{
  "header": {
    "PPQ": 480,
    "bpm": 120,
    "name": ""
  },
  "tempo": [
    {
      "absoluteTime": 0,
      "seconds": 0,
      "bpm": 120
    }
  ],
  "timeSignature": [],
  "startTime": 0,
  "duration": 86.39479166666649,
  "tracks": [
    {
      "startTime": 0,
      "duration": 0,
      "length": 0,
      "notes": [],
      "controlChanges": {},
      "id": 0
    },
    {
      "startTime": 0.7197916666666667,
      "duration": 86.39479166666649,
      "length": 128,
      "notes": [
        {
          "name": "C5",
          "midi": 72,
          "time": 0.7197916666666667,
          "velocity": 0.7874015748031497,
          "duration": 0.0010416666666667185
        },
        {
          "name": "C5",
          "midi": 72,
          "time": 2.869791666666667,
          "velocity": 0.7874015748031497,
          "duration": 0.0010416666666666075
        },
        {
          "name": "C5",
          "midi": 72,
          "time": 4.9697916666666675,
          "velocity": 0.7874015748031497,
          "duration": 0.0010416666666666075
        },
        {
          "name": "C5",
          "midi": 72,
          "time": 7.139583333333334,
          "velocity": 0.7874015748031497,
          "duration": 0.0010416666666666075
        },
        {
          "name": "C5",
          "midi": 72,
          "time": 9.280208333333334,
          "velocity": 0.7874015748031497,
          "duration": 0.0010416666666674956
        },
        {
          "name": "C5",
          "midi": 72,
          "time": 11.439583333333335,
          "velocity": 0.7874015748031497,
          "duration": 0.0010416666666674956
        },
        {
          "name": "C5",
          "midi": 72,
          "time": 13.589583333333335,
          "velocity": 0.7874015748031497,
          "duration": 0.0010416666666674956
        },
        {
          "name": "C5",
          "midi": 72,
          "time": 15.689583333333337,
          "velocity": 0.7874015748031497,
          "duration": 0.0010416666666674956
        },
        {
          "name": "C5",
          "midi": 72,
          "time": 17.813541666666673,
          "velocity": 0.7874015748031497,
          "duration": 0.0010416666666657193
        },
        {
          "name": "C5",
          "midi": 72,
          "time": 18.38020833333334,
          "velocity": 0.7874015748031497,
          "duration": 0.0010416666666657193
        },
        {
          "name": "C5",
          "midi": 72,
          "time": 18.88541666666667,
          "velocity": 0.7874015748031497,
          "duration": 0.0010416666666657193
        },
        {
          "name": "C5",
          "midi": 72,
          "time": 19.43958333333334,
          "velocity": 0.7874015748031497,
          "duration": 0.0010416666666657193
        },
        {
          "name": "C5",
          "midi": 72,
          "time": 19.95729166666667,
          "velocity": 0.7874015748031497,
          "duration": 0.0010416666666657193
        },
        {
          "name": "C5",
          "midi": 72,
          "time": 20.530208333333334,
          "velocity": 0.7874015748031497,
          "duration": 0.0010416666666657193
        },
        {
          "name": "C5",
          "midi": 72,
          "time": 21.047916666666666,
          "velocity": 0.7874015748031497,
          "duration": 0.0010416666666657193
        },
        {
          "name": "C5",
          "midi": 72,
          "time": 21.563541666666666,
          "velocity": 0.7874015748031497,
          "duration": 0.0010416666666657193
        },
        {
          "name": "C5",
          "midi": 72,
          "time": 22.099999999999998,
          "velocity": 0.7874015748031497,
          "duration": 0.0010416666666657193
        },
        {
          "name": "C5",
          "midi": 72,
          "time": 22.660416666666663,
          "velocity": 0.7874015748031497,
          "duration": 0.0010416666666657193
        },
        {
          "name": "C5",
          "midi": 72,
          "time": 23.170833333333327,
          "velocity": 0.7874015748031497,
          "duration": 0.0010416666666657193
        },
        {
          "name": "C5",
          "midi": 72,
          "time": 23.749999999999993,
          "velocity": 0.7874015748031497,
          "duration": 0.0010416666666657193
        },
        {
          "name": "C5",
          "midi": 72,
          "time": 24.27291666666666,
          "velocity": 0.7874015748031497,
          "duration": 0.0010416666666657193
        },
        {
          "name": "C5",
          "midi": 72,
          "time": 24.789583333333326,
          "velocity": 0.7874015748031497,
          "duration": 0.0010416666666657193
        },
        {
          "name": "C5",
          "midi": 72,
          "time": 25.31354166666666,
          "velocity": 0.7874015748031497,
          "duration": 0.0010416666666657193
        },
        {
          "name": "C5",
          "midi": 72,
          "time": 25.84999999999999,
          "velocity": 0.7874015748031497,
          "duration": 0.0010416666666657193
        },
        {
          "name": "C5",
          "midi": 72,
          "time": 26.405208333333324,
          "velocity": 0.7874015748031497,
          "duration": 0.0010416666666657193
        },
        {
          "name": "C5",
          "midi": 72,
          "time": 26.94999999999999,
          "velocity": 0.7874015748031497,
          "duration": 0.0010416666666657193
        },
        {
          "name": "C5",
          "midi": 72,
          "time": 27.466666666666654,
          "velocity": 0.7874015748031497,
          "duration": 0.0010416666666657193
        },
        {
          "name": "C5",
          "midi": 72,
          "time": 28.019791666666652,
          "velocity": 0.7874015748031497,
          "duration": 0.0010416666666657193
        },
        {
          "name": "C5",
          "midi": 72,
          "time": 28.528124999999985,
          "velocity": 0.7874015748031497,
          "duration": 0.0010416666666657193
        },
        {
          "name": "C5",
          "midi": 72,
          "time": 29.080208333333317,
          "velocity": 0.7874015748031497,
          "duration": 0.0010416666666657193
        },
        {
          "name": "C5",
          "midi": 72,
          "time": 29.599999999999984,
          "velocity": 0.7874015748031497,
          "duration": 0.0010416666666657193
        },
        {
          "name": "C5",
          "midi": 72,
          "time": 30.13541666666665,
          "velocity": 0.7874015748031497,
          "duration": 0.0010416666666657193
        },
        {
          "name": "C5",
          "midi": 72,
          "time": 30.670833333333317,
          "velocity": 0.7874015748031497,
          "duration": 0.0010416666666657193
        },
        {
          "name": "C5",
          "midi": 72,
          "time": 31.249999999999982,
          "velocity": 0.7874015748031497,
          "duration": 0.0010416666666657193
        },
        {
          "name": "C5",
          "midi": 72,
          "time": 31.742708333333315,
          "velocity": 0.7874015748031497,
          "duration": 0.0010416666666657193
        },
        {
          "name": "C5",
          "midi": 72,
          "time": 32.31041666666665,
          "velocity": 0.7874015748031497,
          "duration": 0.0010416666666657193
        },
        {
          "name": "C5",
          "midi": 72,
          "time": 32.813541666666644,
          "velocity": 0.7874015748031497,
          "duration": 0.0010416666666657193
        },
        {
          "name": "C5",
          "midi": 72,
          "time": 33.38958333333331,
          "velocity": 0.7874015748031497,
          "duration": 0.0010416666666657193
        },
        {
          "name": "C5",
          "midi": 72,
          "time": 33.88541666666664,
          "velocity": 0.7874015748031497,
          "duration": 0.0010416666666657193
        },
        {
          "name": "C5",
          "midi": 72,
          "time": 34.420833333333306,
          "velocity": 0.7874015748031497,
          "duration": 0.0010416666666657193
        },
        {
          "name": "C5",
          "midi": 72,
          "time": 34.95729166666664,
          "velocity": 0.7874015748031497,
          "duration": 0.0010416666666657193
        },
        {
          "name": "C5",
          "midi": 72,
          "time": 35.49999999999997,
          "velocity": 0.7874015748031497,
          "duration": 0.0010416666666657193
        },
        {
          "name": "C5",
          "midi": 72,
          "time": 36.07812499999997,
          "velocity": 0.7874015748031497,
          "duration": 0.0010416666666657193
        },
        {
          "name": "C5",
          "midi": 72,
          "time": 36.59999999999997,
          "velocity": 0.7874015748031497,
          "duration": 0.0010416666666657193
        },
        {
          "name": "C5",
          "midi": 72,
          "time": 37.09999999999997,
          "velocity": 0.7874015748031497,
          "duration": 0.0010416666666657193
        },
        {
          "name": "C5",
          "midi": 72,
          "time": 37.66041666666664,
          "velocity": 0.7874015748031497,
          "duration": 0.0010416666666657193
        },
        {
          "name": "C5",
          "midi": 72,
          "time": 38.170833333333306,
          "velocity": 0.7874015748031497,
          "duration": 0.0010416666666657193
        },
        {
          "name": "C5",
          "midi": 72,
          "time": 38.73749999999997,
          "velocity": 0.7874015748031497,
          "duration": 0.5166666666666657
        },
        {
          "name": "C5",
          "midi": 72,
          "time": 39.25312499999997,
          "velocity": 0.7874015748031497,
          "duration": 0.55833333333333
        },
        {
          "name": "C5",
          "midi": 72,
          "time": 39.81041666666663,
          "velocity": 0.7874015748031497,
          "duration": 0.5249999999999986
        },
        {
          "name": "C5",
          "midi": 72,
          "time": 40.334374999999966,
          "velocity": 0.7874015748031497,
          "duration": 0.5166666666666657
        },
        {
          "name": "C5",
          "midi": 72,
          "time": 40.849999999999966,
          "velocity": 0.7874015748031497,
          "duration": 0.5656249999999972
        },
        {
          "name": "C5",
          "midi": 72,
          "time": 41.4145833333333,
          "velocity": 0.7874015748031497,
          "duration": 0.5364583333333286
        },
        {
          "name": "C5",
          "midi": 72,
          "time": 41.94999999999996,
          "velocity": 0.7874015748031497,
          "duration": 0.5375000000000014
        },
        {
          "name": "C5",
          "midi": 72,
          "time": 42.48749999999996,
          "velocity": 0.7874015748031497,
          "duration": 0.5260416666666643
        },
        {
          "name": "C5",
          "midi": 72,
          "time": 43.01249999999996,
          "velocity": 0.7874015748031497,
          "duration": 0.546875
        },
        {
          "name": "C5",
          "midi": 72,
          "time": 43.558333333333294,
          "velocity": 0.7874015748031497,
          "duration": 0.5625
        },
        {
          "name": "C5",
          "midi": 72,
          "time": 44.11979166666663,
          "velocity": 0.7874015748031497,
          "duration": 0.5010416666666657
        },
        {
          "name": "C5",
          "midi": 72,
          "time": 44.61979166666663,
          "velocity": 0.7874015748031497,
          "duration": 0.5510416666666629
        },
        {
          "name": "C5",
          "midi": 72,
          "time": 45.169791666666626,
          "velocity": 0.7874015748031497,
          "duration": 0.5218750000000014
        },
        {
          "name": "C5",
          "midi": 72,
          "time": 45.69062499999996,
          "velocity": 0.7874015748031497,
          "duration": 0.5302083333333343
        },
        {
          "name": "C5",
          "midi": 72,
          "time": 46.21979166666663,
          "velocity": 0.7874015748031497,
          "duration": 0.5239583333333329
        },
        {
          "name": "C5",
          "midi": 72,
          "time": 46.7427083333333,
          "velocity": 0.7874015748031497,
          "duration": 0.5364583333333286
        },
        {
          "name": "C5",
          "midi": 72,
          "time": 47.27812499999996,
          "velocity": 0.7874015748031497,
          "duration": 0.5364583333333286
        },
        {
          "name": "C5",
          "midi": 72,
          "time": 47.81354166666662,
          "velocity": 0.7874015748031497,
          "duration": 0.5572916666666643
        },
        {
          "name": "C5",
          "midi": 72,
          "time": 48.36979166666662,
          "velocity": 0.7874015748031497,
          "duration": 0.5166666666666657
        },
        {
          "name": "C5",
          "midi": 72,
          "time": 48.88541666666662,
          "velocity": 0.7874015748031497,
          "duration": 0.5552083333333329
        },
        {
          "name": "C5",
          "midi": 72,
          "time": 49.43958333333329,
          "velocity": 0.7874015748031497,
          "duration": 0.5187499999999972
        },
        {
          "name": "C5",
          "midi": 72,
          "time": 49.95729166666662,
          "velocity": 0.7874015748031497,
          "duration": 0.5364583333333286
        },
        {
          "name": "C5",
          "midi": 72,
          "time": 50.49270833333328,
          "velocity": 0.7874015748031497,
          "duration": 0.5364583333333286
        },
        {
          "name": "C5",
          "midi": 72,
          "time": 51.028124999999946,
          "velocity": 0.7874015748031497,
          "duration": 1.0833333333333286
        },
        {
          "name": "C5",
          "midi": 72,
          "time": 52.11041666666661,
          "velocity": 0.7874015748031497,
          "duration": 0.5510416666666629
        },
        {
          "name": "C5",
          "midi": 72,
          "time": 52.660416666666606,
          "velocity": 0.7874015748031497,
          "duration": 0.5218750000000014
        },
        {
          "name": "C5",
          "midi": 72,
          "time": 53.18124999999994,
          "velocity": 0.7874015748031497,
          "duration": 0.5499999999999972
        },
        {
          "name": "C5",
          "midi": 72,
          "time": 53.73020833333327,
          "velocity": 0.7874015748031497,
          "duration": 0.5239583333333329
        },
        {
          "name": "C5",
          "midi": 72,
          "time": 54.25312499999994,
          "velocity": 0.7874015748031497,
          "duration": 0.5375000000000014
        },
        {
          "name": "C5",
          "midi": 72,
          "time": 54.789583333333276,
          "velocity": 0.7874015748031497,
          "duration": 0.5354166666666629
        },
        {
          "name": "C5",
          "midi": 72,
          "time": 55.32395833333327,
          "velocity": 0.7874015748031497,
          "duration": 0.5572916666666643
        },
        {
          "name": "C5",
          "midi": 72,
          "time": 55.88020833333327,
          "velocity": 0.7874015748031497,
          "duration": 0.515625
        },
        {
          "name": "C5",
          "midi": 72,
          "time": 56.394791666666606,
          "velocity": 0.7874015748031497,
          "duration": 0.5364583333333286
        },
        {
          "name": "C5",
          "midi": 72,
          "time": 56.93020833333327,
          "velocity": 0.7874015748031497,
          "duration": 0.5375000000000014
        },
        {
          "name": "C5",
          "midi": 72,
          "time": 57.466666666666605,
          "velocity": 0.7874015748031497,
          "duration": 0.5541666666666671
        },
        {
          "name": "C5",
          "midi": 72,
          "time": 58.019791666666606,
          "velocity": 0.7874015748031497,
          "duration": 0.5187499999999972
        },
        {
          "name": "C5",
          "midi": 72,
          "time": 58.53749999999994,
          "velocity": 0.7874015748031497,
          "duration": 0.57395833333333
        },
        {
          "name": "C5",
          "midi": 72,
          "time": 59.1104166666666,
          "velocity": 0.7874015748031497,
          "duration": 0.5010416666666657
        },
        {
          "name": "C5",
          "midi": 72,
          "time": 59.6104166666666,
          "velocity": 0.7874015748031497,
          "duration": 0.5510416666666629
        },
        {
          "name": "C5",
          "midi": 72,
          "time": 60.1604166666666,
          "velocity": 0.7874015748031497,
          "duration": 0.5218750000000014
        },
        {
          "name": "C5",
          "midi": 72,
          "time": 60.681249999999935,
          "velocity": 0.7874015748031497,
          "duration": 0.5499999999999972
        },
        {
          "name": "C5",
          "midi": 72,
          "time": 61.230208333333266,
          "velocity": 0.7874015748031497,
          "duration": 0.5239583333333329
        },
        {
          "name": "C5",
          "midi": 72,
          "time": 61.75312499999993,
          "velocity": 0.7874015748031497,
          "duration": 0.5677083333333286
        },
        {
          "name": "C5",
          "midi": 72,
          "time": 62.319791666666596,
          "velocity": 0.7874015748031497,
          "duration": 0.5052083333333286
        },
        {
          "name": "C5",
          "midi": 72,
          "time": 62.82395833333326,
          "velocity": 0.7874015748031497,
          "duration": 0.5666666666666629
        },
        {
          "name": "C5",
          "midi": 72,
          "time": 63.389583333333256,
          "velocity": 0.7874015748031497,
          "duration": 0.5062500000000014
        },
        {
          "name": "C5",
          "midi": 72,
          "time": 63.89479166666659,
          "velocity": 0.7874015748031497,
          "duration": 0.5458333333333343
        },
        {
          "name": "C5",
          "midi": 72,
          "time": 64.43958333333326,
          "velocity": 0.7874015748031497,
          "duration": 0.5281250000000028
        },
        {
          "name": "C5",
          "midi": 72,
          "time": 64.9666666666666,
          "velocity": 0.7874015748031497,
          "duration": 0.5447916666666686
        },
        {
          "name": "C5",
          "midi": 72,
          "time": 65.5104166666666,
          "velocity": 0.7874015748031497,
          "duration": 0.5281250000000028
        },
        {
          "name": "C5",
          "midi": 72,
          "time": 66.03749999999994,
          "velocity": 0.7874015748031497,
          "duration": 0.5531249999999943
        },
        {
          "name": "C5",
          "midi": 72,
          "time": 66.58958333333327,
          "velocity": 0.7874015748031497,
          "duration": 0.5218749999999943
        },
        {
          "name": "C5",
          "midi": 72,
          "time": 67.1104166666666,
          "velocity": 0.7874015748031497,
          "duration": 0.5406249999999915
        },
        {
          "name": "C5",
          "midi": 72,
          "time": 67.64999999999992,
          "velocity": 0.7874015748031497,
          "duration": 0.5322916666666657
        },
        {
          "name": "C5",
          "midi": 72,
          "time": 68.18124999999992,
          "velocity": 0.7874015748031497,
          "duration": 1.0729166666666714
        },
        {
          "name": "C5",
          "midi": 72,
          "time": 69.25312499999993,
          "velocity": 0.7874015748031497,
          "duration": 0.5354166666666629
        },
        {
          "name": "C5",
          "midi": 72,
          "time": 69.78749999999992,
          "velocity": 0.7874015748031497,
          "duration": 0.5374999999999943
        },
        {
          "name": "C5",
          "midi": 72,
          "time": 70.32395833333325,
          "velocity": 0.7874015748031497,
          "duration": 0.5374999999999943
        },
        {
          "name": "C5",
          "midi": 72,
          "time": 70.86041666666658,
          "velocity": 0.7874015748031497,
          "duration": 0.5354166666666629
        },
        {
          "name": "C5",
          "midi": 72,
          "time": 71.39479166666658,
          "velocity": 0.7874015748031497,
          "duration": 0.5374999999999943
        },
        {
          "name": "C5",
          "midi": 72,
          "time": 71.9312499999999,
          "velocity": 0.7874015748031497,
          "duration": 0.5364583333333286
        },
        {
          "name": "C5",
          "midi": 72,
          "time": 72.46666666666657,
          "velocity": 0.7874015748031497,
          "duration": 1.0718749999999915
        },
        {
          "name": "C5",
          "midi": 72,
          "time": 73.5374999999999,
          "velocity": 0.7874015748031497,
          "duration": 0.5374999999999943
        },
        {
          "name": "C5",
          "midi": 72,
          "time": 74.07395833333322,
          "velocity": 0.7874015748031497,
          "duration": 0.5374999999999943
        },
        {
          "name": "C5",
          "midi": 72,
          "time": 74.61041666666655,
          "velocity": 0.7874015748031497,
          "duration": 0.5354166666666629
        },
        {
          "name": "C5",
          "midi": 72,
          "time": 75.14479166666655,
          "velocity": 0.7874015748031497,
          "duration": 0.5374999999999943
        },
        {
          "name": "C5",
          "midi": 72,
          "time": 75.68124999999988,
          "velocity": 0.7874015748031497,
          "duration": 0.5364583333333286
        },
        {
          "name": "C5",
          "midi": 72,
          "time": 76.21666666666654,
          "velocity": 0.7874015748031497,
          "duration": 0.5374999999999943
        },
        {
          "name": "C5",
          "midi": 72,
          "time": 76.75312499999987,
          "velocity": 0.7874015748031497,
          "duration": 1.0718749999999915
        },
        {
          "name": "C5",
          "midi": 72,
          "time": 77.8239583333332,
          "velocity": 0.7874015748031497,
          "duration": 1.0718749999999915
        },
        {
          "name": "C5",
          "midi": 72,
          "time": 78.89479166666652,
          "velocity": 0.7874015748031497,
          "duration": 1.0729166666666714
        },
        {
          "name": "C5",
          "midi": 72,
          "time": 79.96666666666653,
          "velocity": 0.7874015748031497,
          "duration": 1.0718749999999915
        },
        {
          "name": "C5",
          "midi": 72,
          "time": 81.03749999999985,
          "velocity": 0.7874015748031497,
          "duration": 1.0739583333333371
        },
        {
          "name": "C5",
          "midi": 72,
          "time": 82.11041666666652,
          "velocity": 0.7874015748031497,
          "duration": 0.5354166666666629
        },
        {
          "name": "C5",
          "midi": 72,
          "time": 82.64479166666652,
          "velocity": 0.7874015748031497,
          "duration": 0.5374999999999943
        },
        {
          "name": "C5",
          "midi": 72,
          "time": 83.18124999999985,
          "velocity": 0.7874015748031497,
          "duration": 0.5364583333333286
        },
        {
          "name": "C5",
          "midi": 72,
          "time": 83.71666666666651,
          "velocity": 0.7874015748031497,
          "duration": 0.5374999999999943
        },
        {
          "name": "C5",
          "midi": 72,
          "time": 84.25312499999984,
          "velocity": 0.7874015748031497,
          "duration": 0.5354166666666629
        },
        {
          "name": "C5",
          "midi": 72,
          "time": 84.78749999999984,
          "velocity": 0.7874015748031497,
          "duration": 0.5374999999999943
        },
        {
          "name": "C5",
          "midi": 72,
          "time": 85.32395833333317,
          "velocity": 0.7874015748031497,
          "duration": 1.0718749999999915
        },
        {
          "name": "C5",
          "midi": 72,
          "time": 86.39479166666649,
          "velocity": 0.7874015748031497,
          "duration": 0
        }
      ],
      "controlChanges": {},
      "id": 1,
      "name": "PART GUITAR",
      "channelNumber": 0,
      "isPercussion": false
    }
  ]
}