{
  "header": {
    "PPQ": 46,
    "bpm": 120,
    "name": ""
  },
  "tempo": [
    {
      "absoluteTime": 0,
      "seconds": 0,
      "bpm": 120
    }
  ],
  "timeSignature": [],
  "startTime": 0,
  "duration": 97.64130434782219,
  "tracks": [
    {
      "startTime": 0,
      "duration": 97.64130434782219,
      "length": 7952,
      "notes": [
        {
          "name": "G5",
          "midi": 79,
          "time": 0,
          "velocity": 0.2677165354330709,
          "duration": 0.11956521739130432
        },
        {
          "name": "G#5",
          "midi": 80,
          "time": 0,
          "velocity": 0.13385826771653545,
          "duration": 0.03260869565217391
        },
        {
          "name": "D6",
          "midi": 86,
          "time": 0,
          "velocity": 0.1732283464566929,
          "duration": 0.07608695652173914
        },
        {
          "name": "C7",
          "midi": 96,
          "time": 0,
          "velocity": 0.2204724409448819,
          "duration": 0.2934782608695651
        },
        {
          "name": "B4",
          "midi": 71,
          "time": 0.010869565217391304,
          "velocity": 0.2204724409448819,
          "duration": 0.03260869565217391
        },
        {
          "name": "B6",
          "midi": 95,
          "time": 0.010869565217391304,
          "velocity": 0.1732283464566929,
          "duration": 0.11956521739130432
        },
        {
          "name": "F#7",
          "midi": 102,
          "time": 0.010869565217391304,
          "velocity": 0.1732283464566929,
          "duration": 0.2717391304347825
        },
        {
          "name": "A5",
          "midi": 81,
          "time": 0.021739130434782608,
          "velocity": 0.2440944881889764,
          "duration": 0.1956521739130434
        },
        {
          "name": "C#7",
          "midi": 97,
          "time": 0.021739130434782608,
          "velocity": 0.10236220472440945,
          "duration": 0.06521739130434782
        },
        {
          "name": "F7",
          "midi": 101,
          "time": 0.021739130434782608,
          "velocity": 0.2125984251968504,
          "duration": 0.3804347826086955
        },
        {
          "name": "G4",
          "midi": 67,
          "time": 0.03260869565217391,
          "velocity": 0.33070866141732286,
          "duration": 0.2717391304347825
        },
        {
          "name": "D5",
          "midi": 74,
          "time": 0.03260869565217391,
          "velocity": 0.23622047244094488,
          "duration": 0.2608695652173912
        },
        {
          "name": "F5",
          "midi": 77,
          "time": 0.03260869565217391,
          "velocity": 0.15748031496062992,
          "duration": 0.03260869565217391
        },
        {
          "name": "F#6",
          "midi": 90,
          "time": 0.03260869565217391,
          "velocity": 0.1968503937007874,
          "duration": 0.20652173913043467
        },
        {
          "name": "G7",
          "midi": 103,
          "time": 0.03260869565217391,
          "velocity": 0.16535433070866143,
          "duration": 0.0869565217391304
        },
        {
          "name": "B5",
          "midi": 83,
          "time": 0.043478260869565216,
          "velocity": 0.2125984251968504,
          "duration": 0.2826086956521737
        },
        {
          "name": "A#6",
          "midi": 94,
          "time": 0.043478260869565216,
          "velocity": 0.23622047244094488,
          "duration": 0.2717391304347825
        },
        {
          "name": "C#6",
          "midi": 85,
          "time": 0.05434782608695652,
          "velocity": 0.11811023622047244,
          "duration": 0.054347826086956506
        },
        {
          "name": "G1",
          "midi": 31,
          "time": 0.06521739130434782,
          "velocity": 0.2677165354330709,
          "duration": 0.021739130434782608
        },
        {
          "name": "F#1",
          "midi": 30,
          "time": 0.08695652173913043,
          "velocity": 0.2283464566929134,
          "duration": 0.021739130434782594
        },
        {
          "name": "G3",
          "midi": 55,
          "time": 0.08695652173913043,
          "velocity": 0.14960629921259844,
          "duration": 0.03260869565217389
        },
        {
          "name": "D4",
          "midi": 62,
          "time": 0.08695652173913043,
          "velocity": 0.31496062992125984,
          "duration": 0.24999999999999983
        },
        {
          "name": "F5",
          "midi": 77,
          "time": 0.08695652173913043,
          "velocity": 0.12598425196850394,
          "duration": 0.03260869565217389
        },
        {
          "name": "D3",
          "midi": 50,
          "time": 0.09782608695652173,
          "velocity": 0.1732283464566929,
          "duration": 0.13043478260869557
        },
        {
          "name": "B4",
          "midi": 71,
          "time": 0.11956521739130432,
          "velocity": 0.1732283464566929,
          "duration": 0.03260869565217389
        },
        {
          "name": "G#6",
          "midi": 92,
          "time": 0.11956521739130432,
          "velocity": 0.10236220472440945,
          "duration": 0.03260869565217389
        },
        {
          "name": "C#7",
          "midi": 97,
          "time": 0.11956521739130432,
          "velocity": 0.10236220472440945,
          "duration": 0.08695652173913038
        },
        {
          "name": "D7",
          "midi": 98,
          "time": 0.11956521739130432,
          "velocity": 0.1968503937007874,
          "duration": 0.14130434782608686
        },
        {
          "name": "E7",
          "midi": 100,
          "time": 0.11956521739130432,
          "velocity": 0.1889763779527559,
          "duration": 0.17391304347826075
        },
        {
          "name": "F5",
          "midi": 77,
          "time": 0.15217391304347822,
          "velocity": 0.1889763779527559,
          "duration": 0.11956521739130427
        },
        {
          "name": "C#6",
          "midi": 85,
          "time": 0.1739130434782608,
          "velocity": 0.2440944881889764,
          "duration": 0.14130434782608686
        },
        {
          "name": "G#6",
          "midi": 92,
          "time": 0.1847826086956521,
          "velocity": 0.10236220472440945,
          "duration": 0.03260869565217389
        },
        {
          "name": "B6",
          "midi": 95,
          "time": 0.1847826086956521,
          "velocity": 0.2440944881889764,
          "duration": 0.08695652173913038
        },
        {
          "name": "B4",
          "midi": 71,
          "time": 0.1956521739130434,
          "velocity": 0.23622047244094488,
          "duration": 0.054347826086956486
        },
        {
          "name": "D#6",
          "midi": 87,
          "time": 0.2282608695652173,
          "velocity": 0.14173228346456693,
          "duration": 0.07608695652173908
        },
        {
          "name": "D3",
          "midi": 50,
          "time": 0.2391304347826086,
          "velocity": 0.11811023622047244,
          "duration": 0.06521739130434778
        },
        {
          "name": "B4",
          "midi": 71,
          "time": 0.2608695652173912,
          "velocity": 0.2440944881889764,
          "duration": 0.04347826086956519
        },
        {
          "name": "A5",
          "midi": 81,
          "time": 0.2608695652173912,
          "velocity": 0.11811023622047244,
          "duration": 0.03260869565217389
        },
        {
          "name": "A#5",
          "midi": 82,
          "time": 0.31521739130434767,
          "velocity": 0.14173228346456693,
          "duration": 0.09782608695652173
        },
        {
          "name": "E6",
          "midi": 88,
          "time": 0.4565217391304346,
          "velocity": 0.2283464566929134,
          "duration": 0.07608695652173914
        },
        {
          "name": "D7",
          "midi": 98,
          "time": 0.4565217391304346,
          "velocity": 0.14960629921259844,
          "duration": 0.09782608695652184
        },
        {
          "name": "D5",
          "midi": 74,
          "time": 0.4673913043478259,
          "velocity": 0.14960629921259844,
          "duration": 0.054347826086956486
        },
        {
          "name": "F#5",
          "midi": 78,
          "time": 0.4673913043478259,
          "velocity": 0.23622047244094488,
          "duration": 0.06521739130434784
        },
        {
          "name": "C6",
          "midi": 84,
          "time": 0.4673913043478259,
          "velocity": 0.12598425196850394,
          "duration": 0.054347826086956486
        },
        {
          "name": "D#7",
          "midi": 99,
          "time": 0.4673913043478259,
          "velocity": 0.11023622047244094,
          "duration": 0.07608695652173919
        },
        {
          "name": "F7",
          "midi": 101,
          "time": 0.4673913043478259,
          "velocity": 0.2440944881889764,
          "duration": 0.13043478260869595
        },
        {
          "name": "G7",
          "midi": 103,
          "time": 0.4673913043478259,
          "velocity": 0.10236220472440945,
          "duration": 0.054347826086956486
        },
        {
          "name": "D6",
          "midi": 86,
          "time": 0.4782608695652172,
          "velocity": 0.2440944881889764,
          "duration": 0.0652173913043479
        },
        {
          "name": "E7",
          "midi": 100,
          "time": 0.4782608695652172,
          "velocity": 0.2440944881889764,
          "duration": 0.21739130434782683
        },
        {
          "name": "G#6",
          "midi": 92,
          "time": 0.4891304347826085,
          "velocity": 0.10236220472440945,
          "duration": 0.043478260869565244
        },
        {
          "name": "A5",
          "midi": 81,
          "time": 0.4999999999999998,
          "velocity": 0.2125984251968504,
          "duration": 0.19565217391304424
        },
        {
          "name": "G5",
          "midi": 79,
          "time": 0.5326086956521737,
          "velocity": 0.25196850393700787,
          "duration": 0.08695652173913082
        },
        {
          "name": "C#6",
          "midi": 85,
          "time": 0.5326086956521737,
          "velocity": 0.2204724409448819,
          "duration": 0.07608695652173947
        },
        {
          "name": "F#7",
          "midi": 102,
          "time": 0.5326086956521737,
          "velocity": 0.16535433070866143,
          "duration": 0.07608695652173947
        },
        {
          "name": "D#4",
          "midi": 63,
          "time": 0.5434782608695651,
          "velocity": 0.13385826771653545,
          "duration": 0.05434782608695676
        },
        {
          "name": "A#5",
          "midi": 82,
          "time": 0.5434782608695651,
          "velocity": 0.08661417322834646,
          "duration": 0.03260869565217406
        },
        {
          "name": "D#6",
          "midi": 87,
          "time": 0.5434782608695651,
          "velocity": 0.2755905511811024,
          "duration": 0.07608695652173947
        },
        {
          "name": "F6",
          "midi": 89,
          "time": 0.5434782608695651,
          "velocity": 0.15748031496062992,
          "duration": 0.07608695652173947
        },
        {
          "name": "A#6",
          "midi": 94,
          "time": 0.5434782608695651,
          "velocity": 0.11023622047244094,
          "duration": 0.04347826086956541
        },
        {
          "name": "B6",
          "midi": 95,
          "time": 0.5652173913043478,
          "velocity": 0.14960629921259844,
          "duration": 0.03260869565217406
        },
        {
          "name": "D7",
          "midi": 98,
          "time": 0.5760869565217391,
          "velocity": 0.11023622047244094,
          "duration": 0.03260869565217406
        },
        {
          "name": "D4",
          "midi": 62,
          "time": 0.6086956521739132,
          "velocity": 0.13385826771653545,
          "duration": 0.08695652173913082
        },
        {
          "name": "C6",
          "midi": 84,
          "time": 0.6086956521739132,
          "velocity": 0.2047244094488189,
          "duration": 0.13043478260869612
        },
        {
          "name": "G7",
          "midi": 103,
          "time": 0.6086956521739132,
          "velocity": 0.16535433070866143,
          "duration": 0.13043478260869612
        },
        {
          "name": "A4",
          "midi": 69,
          "time": 0.6195652173913045,
          "velocity": 0.2125984251968504,
          "duration": 0.11956521739130477
        },
        {
          "name": "D5",
          "midi": 74,
          "time": 0.6195652173913045,
          "velocity": 0.1732283464566929,
          "duration": 0.09782608695652206
        },
        {
          "name": "F#5",
          "midi": 78,
          "time": 0.6195652173913045,
          "velocity": 0.2125984251968504,
          "duration": 0.13043478260869612
        },
        {
          "name": "D6",
          "midi": 86,
          "time": 0.6195652173913045,
          "velocity": 0.23622047244094488,
          "duration": 0.18478260869565288
        },
        {
          "name": "F7",
          "midi": 101,
          "time": 0.6195652173913045,
          "velocity": 0.10236220472440945,
          "duration": 0.07608695652173947
        },
        {
          "name": "E6",
          "midi": 88,
          "time": 0.6304347826086959,
          "velocity": 0.12598425196850394,
          "duration": 0.08695652173913071
        },
        {
          "name": "A#6",
          "midi": 94,
          "time": 0.6413043478260873,
          "velocity": 0.1889763779527559,
          "duration": 0.09782608695652206
        },
        {
          "name": "C#7",
          "midi": 97,
          "time": 0.6413043478260873,
          "velocity": 0.25196850393700787,
          "duration": 0.10869565217391342
        },
        {
          "name": "D7",
          "midi": 98,
          "time": 0.6521739130434786,
          "velocity": 0.23622047244094488,
          "duration": 0.2826086956521747
        },
        {
          "name": "G#6",
          "midi": 92,
          "time": 0.66304347826087,
          "velocity": 0.07874015748031496,
          "duration": 0.03260869565217406
        },
        {
          "name": "G1",
          "midi": 31,
          "time": 0.6739130434782613,
          "velocity": 0.2755905511811024,
          "duration": 0.021739130434782705
        },
        {
          "name": "F#7",
          "midi": 102,
          "time": 0.6847826086956527,
          "velocity": 0.16535433070866143,
          "duration": 0.05434782608695665
        },
        {
          "name": "F#1",
          "midi": 30,
          "time": 0.695652173913044,
          "velocity": 0.23622047244094488,
          "duration": 0.05434782608695665
        },
        {
          "name": "E7",
          "midi": 100,
          "time": 0.728260869565218,
          "velocity": 0.13385826771653545,
          "duration": 0.03260869565217406
        },
        {
          "name": "G4",
          "midi": 67,
          "time": 0.760869565217392,
          "velocity": 0.2283464566929134,
          "duration": 0.08695652173913071
        },
        {
          "name": "E5",
          "midi": 76,
          "time": 0.760869565217392,
          "velocity": 0.2047244094488189,
          "duration": 0.065217391304348
        },
        {
          "name": "G5",
          "midi": 79,
          "time": 0.760869565217392,
          "velocity": 0.28346456692913385,
          "duration": 0.130434782608696
        },
        {
          "name": "A#5",
          "midi": 82,
          "time": 0.760869565217392,
          "velocity": 0.2125984251968504,
          "duration": 0.10869565217391342
        },
        {
          "name": "C7",
          "midi": 96,
          "time": 0.760869565217392,
          "velocity": 0.15748031496062992,
          "duration": 0.07608695652173936
        },
        {
          "name": "C6",
          "midi": 84,
          "time": 0.7717391304347834,
          "velocity": 0.2125984251968504,
          "duration": 0.09782608695652206
        },
        {
          "name": "C#7",
          "midi": 97,
          "time": 0.7717391304347834,
          "velocity": 0.2283464566929134,
          "duration": 0.07608695652173936
        },
        {
          "name": "C5",
          "midi": 72,
          "time": 0.7826086956521747,
          "velocity": 0.15748031496062992,
          "duration": 0.065217391304348
        },
        {
          "name": "F#7",
          "midi": 102,
          "time": 0.7826086956521747,
          "velocity": 0.11811023622047244,
          "duration": 0.065217391304348
        },
        {
          "name": "B6",
          "midi": 95,
          "time": 0.7934782608695661,
          "velocity": 0.18110236220472442,
          "duration": 0.065217391304348
        },
        {
          "name": "E7",
          "midi": 100,
          "time": 0.8043478260869574,
          "velocity": 0.11811023622047244,
          "duration": 0.0434782608695653
        },
        {
          "name": "F7",
          "midi": 101,
          "time": 0.9130434782608706,
          "velocity": 0.23622047244094488,
          "duration": 0.09782608695652184
        },
        {
          "name": "A#5",
          "midi": 82,
          "time": 0.923913043478262,
          "velocity": 0.2283464566929134,
          "duration": 0.11956521739130455
        },
        {
          "name": "D#6",
          "midi": 87,
          "time": 0.923913043478262,
          "velocity": 0.08661417322834646,
          "duration": 0.14130434782608725
        },
        {
          "name": "F7",
          "midi": 101,
          "time": 1.0326086956521752,
          "velocity": 0.18110236220472442,
          "duration": 0.14130434782608758
        },
        {
          "name": "D5",
          "midi": 74,
          "time": 1.0652173913043492,
          "velocity": 0.2283464566929134,
          "duration": 0.09782608695652217
        },
        {
          "name": "A5",
          "midi": 81,
          "time": 1.0652173913043492,
          "velocity": 0.2677165354330709,
          "duration": 0.22826086956521818
        },
        {
          "name": "D6",
          "midi": 86,
          "time": 1.0652173913043492,
          "velocity": 0.2440944881889764,
          "duration": 0.04347826086956541
        },
        {
          "name": "C#7",
          "midi": 97,
          "time": 1.0652173913043492,
          "velocity": 0.25196850393700787,
          "duration": 0.08695652173913082
        },
        {
          "name": "A4",
          "midi": 69,
          "time": 1.0760869565217406,
          "velocity": 0.2204724409448819,
          "duration": 0.08695652173913082
        },
        {
          "name": "C6",
          "midi": 84,
          "time": 1.086956521739132,
          "velocity": 0.28346456692913385,
          "duration": 0.09782608695652217
        },
        {
          "name": "G7",
          "midi": 103,
          "time": 1.086956521739132,
          "velocity": 0.2047244094488189,
          "duration": 0.09782608695652217
        },
        {
          "name": "G#6",
          "midi": 92,
          "time": 1.0978260869565233,
          "velocity": 0.2204724409448819,
          "duration": 0.07608695652173947
        },
        {
          "name": "D#7",
          "midi": 99,
          "time": 1.0978260869565233,
          "velocity": 0.12598425196850394,
          "duration": 0.08695652173913082
        },
        {
          "name": "E7",
          "midi": 100,
          "time": 1.1086956521739146,
          "velocity": 0.16535433070866143,
          "duration": 0.130434782608696
        },
        {
          "name": "A#6",
          "midi": 94,
          "time": 1.119565217391306,
          "velocity": 0.1889763779527559,
          "duration": 0.06521739130434812
        },
        {
          "name": "E6",
          "midi": 88,
          "time": 1.1413043478260887,
          "velocity": 0.14173228346456693,
          "duration": 0.04347826086956541
        },
        {
          "name": "D4",
          "midi": 62,
          "time": 1.217391304347828,
          "velocity": 0.2755905511811024,
          "duration": 0.03260869565217406
        },
        {
          "name": "G5",
          "midi": 79,
          "time": 1.250000000000002,
          "velocity": 0.15748031496062992,
          "duration": 0.06521739130434812
        },
        {
          "name": "G4",
          "midi": 67,
          "time": 1.2608695652173934,
          "velocity": 0.2047244094488189,
          "duration": 0.08695652173913082
        },
        {
          "name": "B5",
          "midi": 83,
          "time": 1.2608695652173934,
          "velocity": 0.14960629921259844,
          "duration": 0.03260869565217406
        },
        {
          "name": "G1",
          "midi": 31,
          "time": 1.282608695652176,
          "velocity": 0.28346456692913385,
          "duration": 0.03260869565217406
        },
        {
          "name": "D3",
          "midi": 50,
          "time": 1.3043478260869588,
          "velocity": 0.15748031496062992,
          "duration": 0.06521739130434812
        },
        {
          "name": "F#1",
          "midi": 30,
          "time": 1.3152173913043501,
          "velocity": 0.23622047244094488,
          "duration": 0.04347826086956541
        },
        {
          "name": "B4",
          "midi": 71,
          "time": 1.3152173913043501,
          "velocity": 0.23622047244094488,
          "duration": 0.07608695652173947
        },
        {
          "name": "D5",
          "midi": 74,
          "time": 1.3260869565217415,
          "velocity": 0.13385826771653545,
          "duration": 0.05434782608695676
        },
        {
          "name": "G5",
          "midi": 79,
          "time": 1.3260869565217415,
          "velocity": 0.25984251968503935,
          "duration": 0.14130434782608758
        },
        {
          "name": "D4",
          "midi": 62,
          "time": 1.3478260869565242,
          "velocity": 0.15748031496062992,
          "duration": 0.03260869565217406
        },
        {
          "name": "E7",
          "midi": 100,
          "time": 1.3478260869565242,
          "velocity": 0.12598425196850394,
          "duration": 0.10869565217391353
        },
        {
          "name": "A#5",
          "midi": 82,
          "time": 1.3695652173913069,
          "velocity": 0.18110236220472442,
          "duration": 0.08695652173913082
        },
        {
          "name": "G#6",
          "midi": 92,
          "time": 1.3695652173913069,
          "velocity": 0.2204724409448819,
          "duration": 0.08695652173913082
        },
        {
          "name": "D7",
          "midi": 98,
          "time": 1.3695652173913069,
          "velocity": 0.2125984251968504,
          "duration": 0.1630434782608703
        },
        {
          "name": "D3",
          "midi": 50,
          "time": 1.3804347826086982,
          "velocity": 0.1889763779527559,
          "duration": 0.03260869565217406
        },
        {
          "name": "F#6",
          "midi": 90,
          "time": 1.3804347826086982,
          "velocity": 0.1889763779527559,
          "duration": 0.04347826086956541
        },
        {
          "name": "A6",
          "midi": 93,
          "time": 1.3804347826086982,
          "velocity": 0.14173228346456693,
          "duration": 0.06521739130434812
        },
        {
          "name": "C7",
          "midi": 96,
          "time": 1.3804347826086982,
          "velocity": 0.10236220472440945,
          "duration": 0.03260869565217406
        },
        {
          "name": "D#7",
          "midi": 99,
          "time": 1.3804347826086982,
          "velocity": 0.14960629921259844,
          "duration": 0.11956521739130488
        },
        {
          "name": "A#3",
          "midi": 58,
          "time": 1.3913043478260896,
          "velocity": 0.2677165354330709,
          "duration": 0.03260869565217406
        },
        {
          "name": "D4",
          "midi": 62,
          "time": 1.3913043478260896,
          "velocity": 0.2677165354330709,
          "duration": 0.2065217391304357
        },
        {
          "name": "B6",
          "midi": 95,
          "time": 1.3913043478260896,
          "velocity": 0.16535433070866143,
          "duration": 0.11956521739130488
        },
        {
          "name": "F5",
          "midi": 77,
          "time": 1.402173913043481,
          "velocity": 0.2992125984251969,
          "duration": 0.15217391304347894
        },
        {
          "name": "C#7",
          "midi": 97,
          "time": 1.402173913043481,
          "velocity": 0.15748031496062992,
          "duration": 0.11956521739130488
        },
        {
          "name": "D3",
          "midi": 50,
          "time": 1.4239130434782636,
          "velocity": 0.1968503937007874,
          "duration": 0.03260869565217406
        },
        {
          "name": "D6",
          "midi": 86,
          "time": 1.4239130434782636,
          "velocity": 0.2440944881889764,
          "duration": 0.10869565217391353
        },
        {
          "name": "A#3",
          "midi": 58,
          "time": 1.434782608695655,
          "velocity": 0.23622047244094488,
          "duration": 0.06521739130434812
        },
        {
          "name": "G4",
          "midi": 67,
          "time": 1.434782608695655,
          "velocity": 0.25196850393700787,
          "duration": 0.15217391304347894
        },
        {
          "name": "B4",
          "midi": 71,
          "time": 1.434782608695655,
          "velocity": 0.1732283464566929,
          "duration": 0.07608695652173947
        },
        {
          "name": "A#6",
          "midi": 94,
          "time": 1.434782608695655,
          "velocity": 0.2047244094488189,
          "duration": 0.08695652173913082
        },
        {
          "name": "D3",
          "midi": 50,
          "time": 1.467391304347829,
          "velocity": 0.15748031496062992,
          "duration": 0.10869565217391353
        },
        {
          "name": "G#5",
          "midi": 80,
          "time": 1.467391304347829,
          "velocity": 0.1968503937007874,
          "duration": 0.04347826086956541
        },
        {
          "name": "E7",
          "midi": 100,
          "time": 1.467391304347829,
          "velocity": 0.07874015748031496,
          "duration": 0.04347826086956541
        },
        {
          "name": "A#5",
          "midi": 82,
          "time": 1.4782608695652204,
          "velocity": 0.09448818897637795,
          "duration": 0.03260869565217406
        },
        {
          "name": "G6",
          "midi": 91,
          "time": 1.500000000000003,
          "velocity": 0.08661417322834646,
          "duration": 0.03260869565217406
        },
        {
          "name": "A#5",
          "midi": 82,
          "time": 1.5217391304347858,
          "velocity": 0.2204724409448819,
          "duration": 0.11956521739130466
        },
        {
          "name": "F7",
          "midi": 101,
          "time": 1.5434782608695685,
          "velocity": 0.2125984251968504,
          "duration": 0.18478260869565255
        },
        {
          "name": "A#3",
          "midi": 58,
          "time": 1.6739130434782643,
          "velocity": 0.2204724409448819,
          "duration": 0.08695652173913082
        },
        {
          "name": "F5",
          "midi": 77,
          "time": 1.6739130434782643,
          "velocity": 0.2283464566929134,
          "duration": 0.07608695652173947
        },
        {
          "name": "G#5",
          "midi": 80,
          "time": 1.6847826086956557,
          "velocity": 0.2047244094488189,
          "duration": 0.05434782608695676
        },
        {
          "name": "A#5",
          "midi": 82,
          "time": 1.6847826086956557,
          "velocity": 0.10236220472440945,
          "duration": 0.08695652173913082
        },
        {
          "name": "F6",
          "midi": 89,
          "time": 1.6847826086956557,
          "velocity": 0.2440944881889764,
          "duration": 0.07608695652173947
        },
        {
          "name": "F#6",
          "midi": 90,
          "time": 1.6847826086956557,
          "velocity": 0.2125984251968504,
          "duration": 0.05434782608695676
        },
        {
          "name": "C7",
          "midi": 96,
          "time": 1.6847826086956557,
          "velocity": 0.15748031496062992,
          "duration": 0.05434782608695676
        },
        {
          "name": "C#7",
          "midi": 97,
          "time": 1.6847826086956557,
          "velocity": 0.18110236220472442,
          "duration": 0.05434782608695676
        },
        {
          "name": "D7",
          "midi": 98,
          "time": 1.6847826086956557,
          "velocity": 0.14960629921259844,
          "duration": 0.05434782608695676
        },
        {
          "name": "F4",
          "midi": 65,
          "time": 1.695652173913047,
          "velocity": 0.2125984251968504,
          "duration": 0.03260869565217406
        },
        {
          "name": "D5",
          "midi": 74,
          "time": 1.7065217391304384,
          "velocity": 0.14173228346456693,
          "duration": 0.04347826086956541
        },
        {
          "name": "A5",
          "midi": 81,
          "time": 1.7500000000000038,
          "velocity": 0.2440944881889764,
          "duration": 0.130434782608696
        },
        {
          "name": "E7",
          "midi": 100,
          "time": 1.7608695652173951,
          "velocity": 0.2125984251968504,
          "duration": 0.0869565217391306
        },
        {
          "name": "C#3",
          "midi": 49,
          "time": 1.826086956521743,
          "velocity": 0.28346456692913385,
          "duration": 0.021739130434782705
        },
        {
          "name": "F5",
          "midi": 77,
          "time": 1.826086956521743,
          "velocity": 0.2755905511811024,
          "duration": 0.14130434782608758
        },
        {
          "name": "A#3",
          "midi": 58,
          "time": 1.8369565217391344,
          "velocity": 0.2047244094488189,
          "duration": 0.14130434782608758
        },
        {
          "name": "F4",
          "midi": 65,
          "time": 1.8369565217391344,
          "velocity": 0.2047244094488189,
          "duration": 0.13043478260869623
        },
        {
          "name": "E6",
          "midi": 88,
          "time": 1.8369565217391344,
          "velocity": 0.2047244094488189,
          "duration": 0.15217391304347894
        },
        {
          "name": "F#6",
          "midi": 90,
          "time": 1.8369565217391344,
          "velocity": 0.11811023622047244,
          "duration": 0.03260869565217406
        },
        {
          "name": "B6",
          "midi": 95,
          "time": 1.8369565217391344,
          "velocity": 0.2125984251968504,
          "duration": 0.15217391304347894
        },
        {
          "name": "C7",
          "midi": 96,
          "time": 1.8369565217391344,
          "velocity": 0.2125984251968504,
          "duration": 0.2826086956521734
        },
        {
          "name": "C#7",
          "midi": 97,
          "time": 1.8369565217391344,
          "velocity": 0.13385826771653545,
          "duration": 0.11956521739130488
        },
        {
          "name": "D5",
          "midi": 74,
          "time": 1.858695652173917,
          "velocity": 0.25984251968503935,
          "duration": 0.13043478260869623
        },
        {
          "name": "A6",
          "midi": 93,
          "time": 1.8804347826086998,
          "velocity": 0.08661417322834646,
          "duration": 0.03260869565217406
        },
        {
          "name": "A#5",
          "midi": 82,
          "time": 1.8913043478260911,
          "velocity": 0.2125984251968504,
          "duration": 0.11956521739130443
        },
        {
          "name": "G#6",
          "midi": 92,
          "time": 1.8913043478260911,
          "velocity": 0.1732283464566929,
          "duration": 0.07608695652173947
        },
        {
          "name": "G5",
          "midi": 79,
          "time": 1.9021739130434825,
          "velocity": 0.14960629921259844,
          "duration": 0.04347826086956541
        },
        {
          "name": "F#1",
          "midi": 30,
          "time": 1.9130434782608738,
          "velocity": 0.2677165354330709,
          "duration": 0.03260869565217406
        },
        {
          "name": "C6",
          "midi": 84,
          "time": 1.9130434782608738,
          "velocity": 0.10236220472440945,
          "duration": 0.04347826086956541
        },
        {
          "name": "F#6",
          "midi": 90,
          "time": 1.9347826086956565,
          "velocity": 0.08661417322834646,
          "duration": 0.03260869565217406
        },
        {
          "name": "G5",
          "midi": 79,
          "time": 1.9565217391304393,
          "velocity": 0.33858267716535434,
          "duration": 0.1956521739130419
        },
        {
          "name": "C4",
          "midi": 60,
          "time": 1.9891304347826133,
          "velocity": 0.16535433070866143,
          "duration": 0.09782608695652062
        },
        {
          "name": "G4",
          "midi": 67,
          "time": 1.9891304347826133,
          "velocity": 0.2204724409448819,
          "duration": 0.11956521739130332
        },
        {
          "name": "F#6",
          "midi": 90,
          "time": 1.9891304347826133,
          "velocity": 0.2677165354330709,
          "duration": 0.05434782608695565
        },
        {
          "name": "C#7",
          "midi": 97,
          "time": 1.9891304347826133,
          "velocity": 0.2283464566929134,
          "duration": 0.13043478260869446
        },
        {
          "name": "D7",
          "midi": 98,
          "time": 1.9891304347826133,
          "velocity": 0.2204724409448819,
          "duration": 0.2608695652173889
        },
        {
          "name": "E5",
          "midi": 76,
          "time": 2.0000000000000044,
          "velocity": 0.28346456692913385,
          "duration": 0.14130434782608559
        },
        {
          "name": "A#5",
          "midi": 82,
          "time": 2.0217391304347867,
          "velocity": 0.1968503937007874,
          "duration": 0.04347826086956452
        },
        {
          "name": "G#6",
          "midi": 92,
          "time": 2.0217391304347867,
          "velocity": 0.1968503937007874,
          "duration": 0.08695652173912993
        },
        {
          "name": "C6",
          "midi": 84,
          "time": 2.032608695652178,
          "velocity": 0.25984251968503935,
          "duration": 0.08695652173912993
        },
        {
          "name": "F#6",
          "midi": 90,
          "time": 2.05434782608696,
          "velocity": 0.14960629921259844,
          "duration": 0.032608695652173836
        },
        {
          "name": "B6",
          "midi": 95,
          "time": 2.05434782608696,
          "velocity": 0.15748031496062992,
          "duration": 0.05434782608695654
        },
        {
          "name": "D6",
          "midi": 86,
          "time": 2.0652173913043512,
          "velocity": 0.12598425196850394,
          "duration": 0.04347826086956541
        },
        {
          "name": "A5",
          "midi": 81,
          "time": 2.130434782608699,
          "velocity": 0.30708661417322836,
          "duration": 0.13043478260869446
        },
        {
          "name": "C6",
          "midi": 84,
          "time": 2.130434782608699,
          "velocity": 0.1732283464566929,
          "duration": 0.11956521739130332
        },
        {
          "name": "A4",
          "midi": 69,
          "time": 2.14130434782609,
          "velocity": 0.23622047244094488,
          "duration": 0.09782608695652106
        },
        {
          "name": "F#6",
          "midi": 90,
          "time": 2.14130434782609,
          "velocity": 0.2283464566929134,
          "duration": 0.13043478260869446
        },
        {
          "name": "G#6",
          "midi": 92,
          "time": 2.14130434782609,
          "velocity": 0.25196850393700787,
          "duration": 0.08695652173912993
        },
        {
          "name": "C#7",
          "midi": 97,
          "time": 2.14130434782609,
          "velocity": 0.2755905511811024,
          "duration": 0.11956521739130332
        },
        {
          "name": "E7",
          "midi": 100,
          "time": 2.14130434782609,
          "velocity": 0.10236220472440945,
          "duration": 0.1086956521739122
        },
        {
          "name": "F7",
          "midi": 101,
          "time": 2.14130434782609,
          "velocity": 0.14173228346456693,
          "duration": 0.06521739130434723
        },
        {
          "name": "D4",
          "midi": 62,
          "time": 2.152173913043481,
          "velocity": 0.2677165354330709,
          "duration": 0.02173913043478226
        },
        {
          "name": "F5",
          "midi": 77,
          "time": 2.152173913043481,
          "velocity": 0.2204724409448819,
          "duration": 0.03260869565217339
        },
        {
          "name": "D#7",
          "midi": 99,
          "time": 2.152173913043481,
          "velocity": 0.18110236220472442,
          "duration": 0.09782608695652106
        },
        {
          "name": "E6",
          "midi": 88,
          "time": 2.1630434782608723,
          "velocity": 0.2992125984251969,
          "duration": 0.14130434782608559
        },
        {
          "name": "A#6",
          "midi": 94,
          "time": 2.1630434782608723,
          "velocity": 0.1968503937007874,
          "duration": 0.0760869565217388
        },
        {
          "name": "F#4",
          "midi": 66,
          "time": 2.1739130434782634,
          "velocity": 0.2047244094488189,
          "duration": 0.09782608695652106
        },
        {
          "name": "F#5",
          "midi": 78,
          "time": 2.1847826086956545,
          "velocity": 0.36220472440944884,
          "duration": 0.05434782608695654
        },
        {
          "name": "D6",
          "midi": 86,
          "time": 2.1847826086956545,
          "velocity": 0.2283464566929134,
          "duration": 0.06521739130434767
        },
        {
          "name": "C#5",
          "midi": 73,
          "time": 2.2065217391304373,
          "velocity": 0.1732283464566929,
          "duration": 0.08695652173912949
        },
        {
          "name": "C#4",
          "midi": 61,
          "time": 2.22826086956522,
          "velocity": 0.14960629921259844,
          "duration": 0.03260869565217339
        },
        {
          "name": "F5",
          "midi": 77,
          "time": 2.22826086956522,
          "velocity": 0.2047244094488189,
          "duration": 0.05434782608695565
        },
        {
          "name": "C#3",
          "midi": 49,
          "time": 2.239130434782611,
          "velocity": 0.1732283464566929,
          "duration": 0.20652173913043326
        },
        {
          "name": "A#4",
          "midi": 70,
          "time": 2.239130434782611,
          "velocity": 0.2125984251968504,
          "duration": 0.07608695652173791
        },
        {
          "name": "C#4",
          "midi": 61,
          "time": 2.2717391304347845,
          "velocity": 0.29133858267716534,
          "duration": 0.16304347826086873
        },
        {
          "name": "B4",
          "midi": 71,
          "time": 2.304347826086958,
          "velocity": 0.14960629921259844,
          "duration": 0.043478260869564966
        },
        {
          "name": "D7",
          "midi": 98,
          "time": 2.304347826086958,
          "velocity": 0.14960629921259844,
          "duration": 0.09782608695652151
        },
        {
          "name": "E7",
          "midi": 100,
          "time": 2.304347826086958,
          "velocity": 0.16535433070866143,
          "duration": 0.184782608695651
        },
        {
          "name": "G5",
          "midi": 79,
          "time": 2.315217391304349,
          "velocity": 0.2440944881889764,
          "duration": 0.11956521739130421
        },
        {
          "name": "A5",
          "midi": 81,
          "time": 2.3369565217391317,
          "velocity": 0.2047244094488189,
          "duration": 0.11956521739130377
        },
        {
          "name": "F#4",
          "midi": 66,
          "time": 2.347826086956523,
          "velocity": 0.2440944881889764,
          "duration": 0.09782608695652151
        },
        {
          "name": "A#4",
          "midi": 70,
          "time": 2.347826086956523,
          "velocity": 0.1889763779527559,
          "duration": 0.09782608695652151
        },
        {
          "name": "D#5",
          "midi": 75,
          "time": 2.434782608695653,
          "velocity": 0.14173228346456693,
          "duration": 0.03260869565217339
        },
        {
          "name": "D#6",
          "midi": 87,
          "time": 2.434782608695653,
          "velocity": 0.15748031496062992,
          "duration": 0.03260869565217339
        },
        {
          "name": "B3",
          "midi": 59,
          "time": 2.4456521739130443,
          "velocity": 0.23622047244094488,
          "duration": 0.02173913043478226
        },
        {
          "name": "D#4",
          "midi": 63,
          "time": 2.4456521739130443,
          "velocity": 0.2992125984251969,
          "duration": 0.02173913043478226
        },
        {
          "name": "B4",
          "midi": 71,
          "time": 2.4456521739130443,
          "velocity": 0.2440944881889764,
          "duration": 0.05434782608695565
        },
        {
          "name": "B5",
          "midi": 83,
          "time": 2.4456521739130443,
          "velocity": 0.25196850393700787,
          "duration": 0.1086956521739113
        },
        {
          "name": "D6",
          "midi": 86,
          "time": 2.4456521739130443,
          "velocity": 0.1732283464566929,
          "duration": 0.08695652173912904
        },
        {
          "name": "F6",
          "midi": 89,
          "time": 2.4456521739130443,
          "velocity": 0.2440944881889764,
          "duration": 0.22826086956521463
        },
        {
          "name": "G6",
          "midi": 91,
          "time": 2.4456521739130443,
          "velocity": 0.16535433070866143,
          "duration": 0.03260869565217339
        },
        {
          "name": "D5",
          "midi": 74,
          "time": 2.4565217391304355,
          "velocity": 0.1732283464566929,
          "duration": 0.07608695652173791
        },
        {
          "name": "G5",
          "midi": 79,
          "time": 2.4565217391304355,
          "velocity": 0.13385826771653545,
          "duration": 0.06521739130434678
        },
        {
          "name": "F#6",
          "midi": 90,
          "time": 2.4565217391304355,
          "velocity": 0.2677165354330709,
          "duration": 0.29347826086956275
        },
        {
          "name": "D4",
          "midi": 62,
          "time": 2.4673913043478266,
          "velocity": 0.3464566929133858,
          "duration": 0.36956521739130155
        },
        {
          "name": "G4",
          "midi": 67,
          "time": 2.4782608695652177,
          "velocity": 0.33070866141732286,
          "duration": 0.3043478260869539
        },
        {
          "name": "F5",
          "midi": 77,
          "time": 2.4782608695652177,
          "velocity": 0.1968503937007874,
          "duration": 0.06521739130434678
        },
        {
          "name": "A5",
          "midi": 81,
          "time": 2.4782608695652177,
          "velocity": 0.33070866141732286,
          "duration": 0.2826086956521716
        },
        {
          "name": "C6",
          "midi": 84,
          "time": 2.489130434782609,
          "velocity": 0.10236220472440945,
          "duration": 0.04347826086956452
        },
        {
          "name": "G1",
          "midi": 31,
          "time": 2.510869565217391,
          "velocity": 0.2992125984251969,
          "duration": 0.02173913043478226
        },
        {
          "name": "B4",
          "midi": 71,
          "time": 2.5217391304347823,
          "velocity": 0.2755905511811024,
          "duration": 0.22826086956521596
        },
        {
          "name": "G6",
          "midi": 91,
          "time": 2.5217391304347823,
          "velocity": 0.15748031496062992,
          "duration": 0.07608695652173791
        },
        {
          "name": "G5",
          "midi": 79,
          "time": 2.5326086956521734,
          "velocity": 0.3779527559055118,
          "duration": 0.2391304347826071
        },
        {
          "name": "C#6",
          "midi": 85,
          "time": 2.5326086956521734,
          "velocity": 0.14173228346456693,
          "duration": 0.04347826086956452
        },
        {
          "name": "F1",
          "midi": 29,
          "time": 2.5434782608695645,
          "velocity": 0.25984251968503935,
          "duration": 0.02173913043478226
        },
        {
          "name": "D3",
          "midi": 50,
          "time": 2.5543478260869557,
          "velocity": 0.1732283464566929,
          "duration": 0.22826086956521596
        },
        {
          "name": "D6",
          "midi": 86,
          "time": 2.5543478260869557,
          "velocity": 0.25984251968503935,
          "duration": 0.13043478260869446
        },
        {
          "name": "G#6",
          "midi": 92,
          "time": 2.576086956521738,
          "velocity": 0.09448818897637795,
          "duration": 0.06521739130434723
        },
        {
          "name": "F5",
          "midi": 77,
          "time": 2.586956521739129,
          "velocity": 0.25196850393700787,
          "duration": 0.09782608695652106
        },
        {
          "name": "C#6",
          "midi": 85,
          "time": 2.6086956521739113,
          "velocity": 0.2992125984251969,
          "duration": 0.16304347826086918
        },
        {
          "name": "D#6",
          "midi": 87,
          "time": 2.6521739130434763,
          "velocity": 0.14173228346456693,
          "duration": 0.28260869565217295
        },
        {
          "name": "F5",
          "midi": 77,
          "time": 2.7282608695652155,
          "velocity": 0.15748031496062992,
          "duration": 0.1521739130434776
        },
        {
          "name": "F7",
          "midi": 101,
          "time": 2.7499999999999982,
          "velocity": 0.2047244094488189,
          "duration": 0.09782608695652106
        },
        {
          "name": "B3",
          "midi": 59,
          "time": 2.7608695652173894,
          "velocity": 0.13385826771653545,
          "duration": 0.03260869565217339
        },
        {
          "name": "A#5",
          "midi": 82,
          "time": 2.7608695652173894,
          "velocity": 0.15748031496062992,
          "duration": 0.10869565217391264
        },
        {
          "name": "A4",
          "midi": 69,
          "time": 2.913043478260867,
          "velocity": 0.1968503937007874,
          "duration": 0.0543478260869561
        },
        {
          "name": "F#5",
          "midi": 78,
          "time": 2.913043478260867,
          "velocity": 0.29133858267716534,
          "duration": 0.07608695652173836
        },
        {
          "name": "A5",
          "midi": 81,
          "time": 2.913043478260867,
          "velocity": 0.30708661417322836,
          "duration": 0.29347826086956275
        },
        {
          "name": "C7",
          "midi": 96,
          "time": 2.913043478260867,
          "velocity": 0.11811023622047244,
          "duration": 0.08695652173912949
        },
        {
          "name": "G#6",
          "midi": 92,
          "time": 2.923913043478258,
          "velocity": 0.25984251968503935,
          "duration": 0.06521739130434723
        },
        {
          "name": "D7",
          "midi": 98,
          "time": 2.923913043478258,
          "velocity": 0.1889763779527559,
          "duration": 0.07608695652173836
        },
        {
          "name": "D#7",
          "midi": 99,
          "time": 2.923913043478258,
          "velocity": 0.18110236220472442,
          "duration": 0.08695652173912949
        },
        {
          "name": "E7",
          "midi": 100,
          "time": 2.923913043478258,
          "velocity": 0.2677165354330709,
          "duration": 0.36956521739130155
        },
        {
          "name": "D4",
          "midi": 62,
          "time": 2.934782608695649,
          "velocity": 0.10236220472440945,
          "duration": 0.043478260869564966
        },
        {
          "name": "F7",
          "midi": 101,
          "time": 2.934782608695649,
          "velocity": 0.2204724409448819,
          "duration": 0.2934782608695632
        },
        {
          "name": "C6",
          "midi": 84,
          "time": 2.9456521739130404,
          "velocity": 0.18110236220472442,
          "duration": 0.032608695652173836
        },
        {
          "name": "D6",
          "midi": 86,
          "time": 2.9456521739130404,
          "velocity": 0.14173228346456693,
          "duration": 0.032608695652173836
        },
        {
          "name": "A#4",
          "midi": 70,
          "time": 2.978260869565214,
          "velocity": 0.1889763779527559,
          "duration": 0.03260869565217339
        },
        {
          "name": "G5",
          "midi": 79,
          "time": 2.978260869565214,
          "velocity": 0.3228346456692913,
          "duration": 0.06521739130434723
        },
        {
          "name": "A#5",
          "midi": 82,
          "time": 2.978260869565214,
          "velocity": 0.3228346456692913,
          "duration": 0.06521739130434723
        },
        {
          "name": "C#7",
          "midi": 97,
          "time": 2.9891304347826053,
          "velocity": 0.2125984251968504,
          "duration": 0.20652173913043326
        },
        {
          "name": "D#4",
          "midi": 63,
          "time": 3.0108695652173876,
          "velocity": 0.14173228346456693,
          "duration": 0.0543478260869561
        },
        {
          "name": "C#6",
          "midi": 85,
          "time": 3.0108695652173876,
          "velocity": 0.2204724409448819,
          "duration": 0.043478260869564966
        },
        {
          "name": "B6",
          "midi": 95,
          "time": 3.0108695652173876,
          "velocity": 0.09448818897637795,
          "duration": 0.043478260869564966
        },
        {
          "name": "F#7",
          "midi": 102,
          "time": 3.0108695652173876,
          "velocity": 0.07086614173228346,
          "duration": 0.032608695652173836
        },
        {
          "name": "F#5",
          "midi": 78,
          "time": 3.0434782608695614,
          "velocity": 0.2677165354330709,
          "duration": 0.1630434782608683
        },
        {
          "name": "A4",
          "midi": 69,
          "time": 3.0543478260869525,
          "velocity": 0.15748031496062992,
          "duration": 0.14130434782608603
        },
        {
          "name": "C6",
          "midi": 84,
          "time": 3.0543478260869525,
          "velocity": 0.1889763779527559,
          "duration": 0.09782608695652106
        },
        {
          "name": "D#7",
          "midi": 99,
          "time": 3.0543478260869525,
          "velocity": 0.15748031496062992,
          "duration": 0.11956521739130332
        },
        {
          "name": "G#6",
          "midi": 92,
          "time": 3.0652173913043437,
          "velocity": 0.28346456692913385,
          "duration": 0.14130434782608603
        },
        {
          "name": "D4",
          "midi": 62,
          "time": 3.0869565217391264,
          "velocity": 0.13385826771653545,
          "duration": 0.11956521739130332
        },
        {
          "name": "D5",
          "midi": 74,
          "time": 3.0978260869565175,
          "velocity": 0.13385826771653545,
          "duration": 0.09782608695652106
        },
        {
          "name": "A#6",
          "midi": 94,
          "time": 3.0978260869565175,
          "velocity": 0.14173228346456693,
          "duration": 0.032608695652173836
        },
        {
          "name": "G#1",
          "midi": 32,
          "time": 3.1086956521739086,
          "velocity": 0.33070866141732286,
          "duration": 0.021739130434782705
        },
        {
          "name": "E6",
          "midi": 88,
          "time": 3.1086956521739086,
          "velocity": 0.25984251968503935,
          "duration": 0.08695652173912993
        },
        {
          "name": "G7",
          "midi": 103,
          "time": 3.1086956521739086,
          "velocity": 0.07874015748031496,
          "duration": 0.043478260869564966
        },
        {
          "name": "F#7",
          "midi": 102,
          "time": 3.1304347826086913,
          "velocity": 0.15748031496062992,
          "duration": 0.07608695652173836
        },
        {
          "name": "F#1",
          "midi": 30,
          "time": 3.1413043478260825,
          "velocity": 0.28346456692913385,
          "duration": 0.02173913043478226
        },
        {
          "name": "C6",
          "midi": 84,
          "time": 3.1630434782608647,
          "velocity": 0.15748031496062992,
          "duration": 0.1304347826086949
        },
        {
          "name": "F#1",
          "midi": 30,
          "time": 3.173913043478256,
          "velocity": 0.2283464566929134,
          "duration": 0.021739130434782705
        },
        {
          "name": "G5",
          "midi": 79,
          "time": 3.2065217391304297,
          "velocity": 0.4094488188976378,
          "duration": 0.1304347826086949
        },
        {
          "name": "A#5",
          "midi": 82,
          "time": 3.2065217391304297,
          "velocity": 0.23622047244094488,
          "duration": 0.0760869565217388
        },
        {
          "name": "D7",
          "midi": 98,
          "time": 3.2065217391304297,
          "velocity": 0.23622047244094488,
          "duration": 0.11956521739130377
        },
        {
          "name": "D#7",
          "midi": 99,
          "time": 3.2065217391304297,
          "velocity": 0.1889763779527559,
          "duration": 0.08695652173912993
        },
        {
          "name": "E5",
          "midi": 76,
          "time": 3.2282608695652124,
          "velocity": 0.1968503937007874,
          "duration": 0.06521739130434723
        },
        {
          "name": "C4",
          "midi": 60,
          "time": 3.2391304347826035,
          "velocity": 0.1889763779527559,
          "duration": 0.0543478260869561
        },
        {
          "name": "B6",
          "midi": 95,
          "time": 3.2391304347826035,
          "velocity": 0.13385826771653545,
          "duration": 0.0543478260869561
        },
        {
          "name": "D6",
          "midi": 86,
          "time": 3.2499999999999947,
          "velocity": 0.1889763779527559,
          "duration": 0.0543478260869561
        },
        {
          "name": "G#6",
          "midi": 92,
          "time": 3.2499999999999947,
          "velocity": 0.2204724409448819,
          "duration": 0.032608695652173836
        },
        {
          "name": "F6",
          "midi": 89,
          "time": 3.2717391304347774,
          "velocity": 0.2047244094488189,
          "duration": 0.03260869565217339
        },
        {
          "name": "D7",
          "midi": 98,
          "time": 3.3478260869565157,
          "velocity": 0.13385826771653545,
          "duration": 0.03260869565217339
        },
        {
          "name": "A#5",
          "midi": 82,
          "time": 3.358695652173907,
          "velocity": 0.2283464566929134,
          "duration": 0.13043478260869534
        },
        {
          "name": "F7",
          "midi": 101,
          "time": 3.369565217391298,
          "velocity": 0.2283464566929134,
          "duration": 0.08695652173913038
        },
        {
          "name": "F7",
          "midi": 101,
          "time": 3.489130434782602,
          "velocity": 0.12598425196850394,
          "duration": 0.07608695652173836
        },
        {
          "name": "D5",
          "midi": 74,
          "time": 3.510869565217385,
          "velocity": 0.1732283464566929,
          "duration": 0.11956521739130332
        },
        {
          "name": "F#5",
          "midi": 78,
          "time": 3.510869565217385,
          "velocity": 0.13385826771653545,
          "duration": 0.03260869565217339
        },
        {
          "name": "B5",
          "midi": 83,
          "time": 3.510869565217385,
          "velocity": 0.2283464566929134,
          "duration": 0.03260869565217339
        },
        {
          "name": "C7",
          "midi": 96,
          "time": 3.510869565217385,
          "velocity": 0.25984251968503935,
          "duration": 0.13043478260869446
        },
        {
          "name": "C#7",
          "midi": 97,
          "time": 3.510869565217385,
          "velocity": 0.2125984251968504,
          "duration": 0.08695652173912949
        },
        {
          "name": "G7",
          "midi": 103,
          "time": 3.510869565217385,
          "velocity": 0.23622047244094488,
          "duration": 0.1086956521739122
        },
        {
          "name": "D6",
          "midi": 86,
          "time": 3.521739130434776,
          "velocity": 0.2047244094488189,
          "duration": 0.07608695652173836
        },
        {
          "name": "F#7",
          "midi": 102,
          "time": 3.521739130434776,
          "velocity": 0.16535433070866143,
          "duration": 0.09782608695652106
        },
        {
          "name": "A5",
          "midi": 81,
          "time": 3.532608695652167,
          "velocity": 0.2125984251968504,
          "duration": 0.21739130434782483
        },
        {
          "name": "D4",
          "midi": 62,
          "time": 3.5434782608695583,
          "velocity": 0.11811023622047244,
          "duration": 0.0760869565217388
        },
        {
          "name": "C6",
          "midi": 84,
          "time": 3.5434782608695583,
          "velocity": 0.2440944881889764,
          "duration": 0.1304347826086949
        },
        {
          "name": "F#6",
          "midi": 90,
          "time": 3.5434782608695583,
          "velocity": 0.16535433070866143,
          "duration": 0.08695652173912993
        },
        {
          "name": "D#7",
          "midi": 99,
          "time": 3.5434782608695583,
          "velocity": 0.18110236220472442,
          "duration": 0.08695652173912993
        },
        {
          "name": "E6",
          "midi": 88,
          "time": 3.5543478260869494,
          "velocity": 0.12598425196850394,
          "duration": 0.06521739130434767
        },
        {
          "name": "A#6",
          "midi": 94,
          "time": 3.5543478260869494,
          "velocity": 0.2283464566929134,
          "duration": 0.0760869565217388
        },
        {
          "name": "E7",
          "midi": 100,
          "time": 3.5543478260869494,
          "velocity": 0.2283464566929134,
          "duration": 0.16304347826086873
        },
        {
          "name": "D4",
          "midi": 62,
          "time": 3.673913043478253,
          "velocity": 0.2283464566929134,
          "duration": 0.0543478260869561
        },
        {
          "name": "G4",
          "midi": 67,
          "time": 3.706521739130427,
          "velocity": 0.2047244094488189,
          "duration": 0.09782608695652106
        },
        {
          "name": "F#1",
          "midi": 30,
          "time": 3.749999999999992,
          "velocity": 0.30708661417322836,
          "duration": 0.0543478260869561
        },
        {
          "name": "D3",
          "midi": 50,
          "time": 3.749999999999992,
          "velocity": 0.1889763779527559,
          "duration": 0.14130434782608559
        },
        {
          "name": "B4",
          "midi": 71,
          "time": 3.760869565217383,
          "velocity": 0.14173228346456693,
          "duration": 0.07608695652173836
        },
        {
          "name": "A#5",
          "midi": 82,
          "time": 3.760869565217383,
          "velocity": 0.07874015748031496,
          "duration": 0.032608695652173836
        },
        {
          "name": "D5",
          "midi": 74,
          "time": 3.7717391304347743,
          "velocity": 0.14960629921259844,
          "duration": 0.043478260869564966
        },
        {
          "name": "F#7",
          "midi": 102,
          "time": 3.8152173913043392,
          "velocity": 0.13385826771653545,
          "duration": 0.14130434782608559
        },
        {
          "name": "F4",
          "midi": 65,
          "time": 3.8260869565217304,
          "velocity": 0.23622047244094488,
          "duration": 0.043478260869564966
        },
        {
          "name": "G5",
          "midi": 79,
          "time": 3.8260869565217304,
          "velocity": 0.3228346456692913,
          "duration": 0.13043478260869446
        },
        {
          "name": "C6",
          "midi": 84,
          "time": 3.8260869565217304,
          "velocity": 0.2047244094488189,
          "duration": 0.06521739130434723
        },
        {
          "name": "A#6",
          "midi": 94,
          "time": 3.8260869565217304,
          "velocity": 0.2677165354330709,
          "duration": 0.14130434782608559
        },
        {
          "name": "D7",
          "midi": 98,
          "time": 3.8260869565217304,
          "velocity": 0.23622047244094488,
          "duration": 0.11956521739130332
        },
        {
          "name": "E7",
          "midi": 100,
          "time": 3.8260869565217304,
          "velocity": 0.2047244094488189,
          "duration": 0.13043478260869446
        },
        {
          "name": "F7",
          "midi": 101,
          "time": 3.8260869565217304,
          "velocity": 0.2125984251968504,
          "duration": 0.23913043478260754
        },
        {
          "name": "D4",
          "midi": 62,
          "time": 3.8369565217391215,
          "velocity": 0.28346456692913385,
          "duration": 0.20652173913043326
        },
        {
          "name": "A#4",
          "midi": 70,
          "time": 3.8369565217391215,
          "velocity": 0.18110236220472442,
          "duration": 0.032608695652173836
        },
        {
          "name": "A#5",
          "midi": 82,
          "time": 3.8369565217391215,
          "velocity": 0.28346456692913385,
          "duration": 0.26086956521739024
        },
        {
          "name": "B6",
          "midi": 95,
          "time": 3.8369565217391215,
          "velocity": 0.1889763779527559,
          "duration": 0.08695652173912993
        },
        {
          "name": "C#7",
          "midi": 97,
          "time": 3.8369565217391215,
          "velocity": 0.14960629921259844,
          "duration": 0.11956521739130332
        },
        {
          "name": "G4",
          "midi": 67,
          "time": 3.8804347826086865,
          "velocity": 0.2677165354330709,
          "duration": 0.14130434782608603
        },
        {
          "name": "F6",
          "midi": 89,
          "time": 3.8804347826086865,
          "velocity": 0.2125984251968504,
          "duration": 0.09782608695652062
        },
        {
          "name": "B4",
          "midi": 71,
          "time": 3.8913043478260776,
          "velocity": 0.2047244094488189,
          "duration": 0.032608695652173836
        },
        {
          "name": "F5",
          "midi": 77,
          "time": 3.8913043478260776,
          "velocity": 0.10236220472440945,
          "duration": 0.06521739130434723
        },
        {
          "name": "G#6",
          "midi": 92,
          "time": 3.8913043478260776,
          "velocity": 0.08661417322834646,
          "duration": 0.0543478260869561
        },
        {
          "name": "A6",
          "midi": 93,
          "time": 3.8913043478260776,
          "velocity": 0.2125984251968504,
          "duration": 0.08695652173912949
        },
        {
          "name": "D3",
          "midi": 50,
          "time": 3.9347826086956426,
          "velocity": 0.15748031496062992,
          "duration": 0.08695652173912993
        },
        {
          "name": "B4",
          "midi": 71,
          "time": 3.9456521739130337,
          "velocity": 0.10236220472440945,
          "duration": 0.09782608695652106
        },
        {
          "name": "B6",
          "midi": 95,
          "time": 4.054347826086946,
          "velocity": 0.11811023622047244,
          "duration": 0.14130434782608958
        },
        {
          "name": "F7",
          "midi": 101,
          "time": 4.108695652173903,
          "velocity": 0.09448818897637795,
          "duration": 0.06521739130434945
        },
        {
          "name": "D6",
          "midi": 86,
          "time": 4.119565217391295,
          "velocity": 0.1968503937007874,
          "duration": 0.06521739130434945
        },
        {
          "name": "C7",
          "midi": 96,
          "time": 4.119565217391295,
          "velocity": 0.18110236220472442,
          "duration": 0.06521739130434945
        },
        {
          "name": "A#3",
          "midi": 58,
          "time": 4.1304347826086865,
          "velocity": 0.1889763779527559,
          "duration": 0.032608695652174724
        },
        {
          "name": "F4",
          "midi": 65,
          "time": 4.1304347826086865,
          "velocity": 0.1968503937007874,
          "duration": 0.032608695652174724
        },
        {
          "name": "D5",
          "midi": 74,
          "time": 4.1304347826086865,
          "velocity": 0.1732283464566929,
          "duration": 0.05434782608695787
        },
        {
          "name": "G#5",
          "midi": 80,
          "time": 4.1304347826086865,
          "velocity": 0.2283464566929134,
          "duration": 0.0434782608695663
        },
        {
          "name": "A#5",
          "midi": 82,
          "time": 4.1304347826086865,
          "velocity": 0.13385826771653545,
          "duration": 0.08695652173913171
        },
        {
          "name": "E6",
          "midi": 88,
          "time": 4.1304347826086865,
          "velocity": 0.10236220472440945,
          "duration": 0.0434782608695663
        },
        {
          "name": "F6",
          "midi": 89,
          "time": 4.1304347826086865,
          "velocity": 0.09448818897637795,
          "duration": 0.032608695652174724
        },
        {
          "name": "C#7",
          "midi": 97,
          "time": 4.1304347826086865,
          "velocity": 0.2204724409448819,
          "duration": 0.06521739130434945
        },
        {
          "name": "F#7",
          "midi": 102,
          "time": 4.1304347826086865,
          "velocity": 0.18110236220472442,
          "duration": 0.05434782608695787
        },
        {
          "name": "F#6",
          "midi": 90,
          "time": 4.141304347826078,
          "velocity": 0.11023622047244094,
          "duration": 0.032608695652174724
        },
        {
          "name": "C6",
          "midi": 84,
          "time": 4.15217391304347,
          "velocity": 0.2047244094488189,
          "duration": 0.26086956521739424
        },
        {
          "name": "G7",
          "midi": 103,
          "time": 4.173913043478253,
          "velocity": 0.16535433070866143,
          "duration": 0.09782608695652151
        },
        {
          "name": "G5",
          "midi": 79,
          "time": 4.195652173913036,
          "velocity": 0.08661417322834646,
          "duration": 0.0543478260869561
        },
        {
          "name": "A5",
          "midi": 81,
          "time": 4.217391304347818,
          "velocity": 0.12598425196850394,
          "duration": 0.06521739130434767
        },
        {
          "name": "D5",
          "midi": 74,
          "time": 4.271739130434774,
          "velocity": 0.2440944881889764,
          "duration": 0.14130434782608958
        },
        {
          "name": "F5",
          "midi": 77,
          "time": 4.271739130434774,
          "velocity": 0.23622047244094488,
          "duration": 0.14130434782608958
        },
        {
          "name": "G#5",
          "midi": 80,
          "time": 4.282608695652166,
          "velocity": 0.2204724409448819,
          "duration": 0.032608695652173836
        },
        {
          "name": "A#5",
          "midi": 82,
          "time": 4.282608695652166,
          "velocity": 0.23622047244094488,
          "duration": 0.06521739130434856
        },
        {
          "name": "E6",
          "midi": 88,
          "time": 4.282608695652166,
          "velocity": 0.2204724409448819,
          "duration": 0.04347826086956541
        },
        {
          "name": "C#7",
          "midi": 97,
          "time": 4.282608695652166,
          "velocity": 0.23622047244094488,
          "duration": 0.15217391304348116
        },
        {
          "name": "D7",
          "midi": 98,
          "time": 4.282608695652166,
          "velocity": 0.2125984251968504,
          "duration": 0.07608695652174013
        },
        {
          "name": "F7",
          "midi": 101,
          "time": 4.282608695652166,
          "velocity": 0.23622047244094488,
          "duration": 0.22826086956522218
        },
        {
          "name": "C7",
          "midi": 96,
          "time": 4.293478260869557,
          "velocity": 0.25196850393700787,
          "duration": 0.14130434782608958
        },
        {
          "name": "D#7",
          "midi": 99,
          "time": 4.293478260869557,
          "velocity": 0.1968503937007874,
          "duration": 0.08695652173913171
        },
        {
          "name": "A#4",
          "midi": 70,
          "time": 4.31521739130434,
          "velocity": 0.15748031496062992,
          "duration": 0.1304347826086989
        },
        {
          "name": "B6",
          "midi": 95,
          "time": 4.31521739130434,
          "velocity": 0.1968503937007874,
          "duration": 0.07608695652174102
        },
        {
          "name": "F#7",
          "midi": 102,
          "time": 4.336956521739123,
          "velocity": 0.16535433070866143,
          "duration": 0.06521739130434945
        },
        {
          "name": "G1",
          "midi": 31,
          "time": 4.347826086956514,
          "velocity": 0.33070866141732286,
          "duration": 0.02173913043478315
        },
        {
          "name": "A6",
          "midi": 93,
          "time": 4.347826086956514,
          "velocity": 0.10236220472440945,
          "duration": 0.07608695652174102
        },
        {
          "name": "F4",
          "midi": 65,
          "time": 4.358695652173906,
          "velocity": 0.11811023622047244,
          "duration": 0.05434782608695787
        },
        {
          "name": "G#5",
          "midi": 80,
          "time": 4.358695652173906,
          "velocity": 0.13385826771653545,
          "duration": 0.05434782608695787
        },
        {
          "name": "A#5",
          "midi": 82,
          "time": 4.358695652173906,
          "velocity": 0.2047244094488189,
          "duration": 0.19565217391304746
        },
        {
          "name": "F#1",
          "midi": 30,
          "time": 4.3695652173912976,
          "velocity": 0.29133858267716534,
          "duration": 0.05434782608695787
        },
        {
          "name": "D7",
          "midi": 98,
          "time": 4.391304347826081,
          "velocity": 0.08661417322834646,
          "duration": 0.032608695652174724
        },
        {
          "name": "E5",
          "midi": 76,
          "time": 4.423913043478255,
          "velocity": 0.15748031496062992,
          "duration": 0.07608695652174102
        },
        {
          "name": "C6",
          "midi": 84,
          "time": 4.423913043478255,
          "velocity": 0.29133858267716534,
          "duration": 0.15217391304348116
        },
        {
          "name": "B6",
          "midi": 95,
          "time": 4.423913043478255,
          "velocity": 0.14173228346456693,
          "duration": 0.0869565217391326
        },
        {
          "name": "E7",
          "midi": 100,
          "time": 4.423913043478255,
          "velocity": 0.25196850393700787,
          "duration": 0.14130434782608958
        },
        {
          "name": "C4",
          "midi": 60,
          "time": 4.434782608695647,
          "velocity": 0.15748031496062992,
          "duration": 0.0434782608695663
        },
        {
          "name": "G5",
          "midi": 79,
          "time": 4.434782608695647,
          "velocity": 0.33858267716535434,
          "duration": 0.06521739130434945
        },
        {
          "name": "G4",
          "midi": 67,
          "time": 4.445652173913039,
          "velocity": 0.2047244094488189,
          "duration": 0.10869565217391486
        },
        {
          "name": "E6",
          "midi": 88,
          "time": 4.45652173913043,
          "velocity": 0.2677165354330709,
          "duration": 0.25000000000000533
        },
        {
          "name": "F#6",
          "midi": 90,
          "time": 4.45652173913043,
          "velocity": 0.15748031496062992,
          "duration": 0.08695652173913171
        },
        {
          "name": "C#7",
          "midi": 97,
          "time": 4.467391304347822,
          "velocity": 0.07086614173228346,
          "duration": 0.032608695652174724
        },
        {
          "name": "D#7",
          "midi": 99,
          "time": 4.467391304347822,
          "velocity": 0.2440944881889764,
          "duration": 0.09782608695652328
        },
        {
          "name": "C4",
          "midi": 60,
          "time": 4.489130434782605,
          "velocity": 0.1968503937007874,
          "duration": 0.06521739130434856
        },
        {
          "name": "F7",
          "midi": 101,
          "time": 4.53260869565217,
          "velocity": 0.30708661417322836,
          "duration": 0.28260869565217916
        },
        {
          "name": "F#5",
          "midi": 78,
          "time": 4.586956521739128,
          "velocity": 0.2755905511811024,
          "duration": 0.14130434782609047
        },
        {
          "name": "A#5",
          "midi": 82,
          "time": 4.586956521739128,
          "velocity": 0.2440944881889764,
          "duration": 0.11956521739130732
        },
        {
          "name": "C#7",
          "midi": 97,
          "time": 4.586956521739128,
          "velocity": 0.16535433070866143,
          "duration": 0.0434782608695663
        },
        {
          "name": "A4",
          "midi": 69,
          "time": 4.59782608695652,
          "velocity": 0.16535433070866143,
          "duration": 0.0434782608695663
        },
        {
          "name": "E5",
          "midi": 76,
          "time": 4.59782608695652,
          "velocity": 0.07086614173228346,
          "duration": 0.032608695652174724
        },
        {
          "name": "A5",
          "midi": 81,
          "time": 4.59782608695652,
          "velocity": 0.25984251968503935,
          "duration": 0.032608695652174724
        },
        {
          "name": "C6",
          "midi": 84,
          "time": 4.59782608695652,
          "velocity": 0.1732283464566929,
          "duration": 0.07608695652174102
        },
        {
          "name": "C#4",
          "midi": 61,
          "time": 4.608695652173911,
          "velocity": 0.2204724409448819,
          "duration": 0.032608695652174724
        },
        {
          "name": "D#6",
          "midi": 87,
          "time": 4.608695652173911,
          "velocity": 0.16535433070866143,
          "duration": 0.07608695652174102
        },
        {
          "name": "D5",
          "midi": 74,
          "time": 4.619565217391303,
          "velocity": 0.18110236220472442,
          "duration": 0.0434782608695663
        },
        {
          "name": "G#6",
          "midi": 92,
          "time": 4.619565217391303,
          "velocity": 0.1889763779527559,
          "duration": 0.10869565217391575
        },
        {
          "name": "F#4",
          "midi": 66,
          "time": 4.6304347826086945,
          "velocity": 0.2047244094488189,
          "duration": 0.09782608695652417
        },
        {
          "name": "D#7",
          "midi": 99,
          "time": 4.6304347826086945,
          "velocity": 0.16535433070866143,
          "duration": 0.06521739130434945
        },
        {
          "name": "C5",
          "midi": 72,
          "time": 4.641304347826086,
          "velocity": 0.09448818897637795,
          "duration": 0.032608695652174724
        },
        {
          "name": "G7",
          "midi": 103,
          "time": 4.641304347826086,
          "velocity": 0.2125984251968504,
          "duration": 0.06521739130434945
        },
        {
          "name": "C#3",
          "midi": 49,
          "time": 4.652173913043478,
          "velocity": 0.2204724409448819,
          "duration": 0.23913043478261198
        },
        {
          "name": "D#4",
          "midi": 63,
          "time": 4.652173913043478,
          "velocity": 0.13385826771653545,
          "duration": 0.032608695652174724
        },
        {
          "name": "A4",
          "midi": 69,
          "time": 4.663043478260869,
          "velocity": 0.13385826771653545,
          "duration": 0.032608695652174724
        },
        {
          "name": "C#5",
          "midi": 73,
          "time": 4.684782608695652,
          "velocity": 0.23622047244094488,
          "duration": 0.02173913043478315
        },
        {
          "name": "A#4",
          "midi": 70,
          "time": 4.695652173913044,
          "velocity": 0.18110236220472442,
          "duration": 0.07608695652174013
        },
        {
          "name": "C7",
          "midi": 96,
          "time": 4.695652173913044,
          "velocity": 0.08661417322834646,
          "duration": 0.032608695652174724
        },
        {
          "name": "C5",
          "midi": 72,
          "time": 4.7065217391304355,
          "velocity": 0.2440944881889764,
          "duration": 0.0434782608695663
        },
        {
          "name": "C#4",
          "midi": 61,
          "time": 4.717391304347827,
          "velocity": 0.2992125984251969,
          "duration": 0.17391304347826253
        },
        {
          "name": "C#7",
          "midi": 97,
          "time": 4.728260869565219,
          "velocity": 0.13385826771653545,
          "duration": 0.11956521739130466
        },
        {
          "name": "A5",
          "midi": 81,
          "time": 4.73913043478261,
          "velocity": 0.2204724409448819,
          "duration": 0.13043478260869623
        },
        {
          "name": "E7",
          "midi": 100,
          "time": 4.750000000000002,
          "velocity": 0.2283464566929134,
          "duration": 0.20652173913043725
        },
        {
          "name": "F#4",
          "midi": 66,
          "time": 4.782608695652176,
          "velocity": 0.2283464566929134,
          "duration": 0.0978260869565224
        },
        {
          "name": "A#4",
          "midi": 70,
          "time": 4.793478260869567,
          "velocity": 0.14173228346456693,
          "duration": 0.06521739130434767
        },
        {
          "name": "D#6",
          "midi": 87,
          "time": 4.836956521739132,
          "velocity": 0.18110236220472442,
          "duration": 0.07608695652174102
        },
        {
          "name": "G#5",
          "midi": 80,
          "time": 4.869565217391306,
          "velocity": 0.16535433070866143,
          "duration": 0.0434782608695663
        },
        {
          "name": "C#7",
          "midi": 97,
          "time": 4.869565217391306,
          "velocity": 0.18110236220472442,
          "duration": 0.23913043478261375
        },
        {
          "name": "A5",
          "midi": 81,
          "time": 4.880434782608698,
          "velocity": 0.09448818897637795,
          "duration": 0.032608695652174724
        },
        {
          "name": "C6",
          "midi": 84,
          "time": 4.880434782608698,
          "velocity": 0.2125984251968504,
          "duration": 0.06521739130434945
        },
        {
          "name": "A#6",
          "midi": 94,
          "time": 4.880434782608698,
          "velocity": 0.23622047244094488,
          "duration": 0.38043478260870245
        },
        {
          "name": "C7",
          "midi": 96,
          "time": 4.880434782608698,
          "velocity": 0.29133858267716534,
          "duration": 0.3695652173913109
        },
        {
          "name": "F5",
          "midi": 77,
          "time": 4.89130434782609,
          "velocity": 0.1889763779527559,
          "duration": 0.06521739130434945
        },
        {
          "name": "D6",
          "midi": 86,
          "time": 4.89130434782609,
          "velocity": 0.28346456692913385,
          "duration": 0.06521739130434945
        },
        {
          "name": "F6",
          "midi": 89,
          "time": 4.89130434782609,
          "velocity": 0.1889763779527559,
          "duration": 0.15217391304348116
        },
        {
          "name": "G#6",
          "midi": 92,
          "time": 4.89130434782609,
          "velocity": 0.23622047244094488,
          "duration": 0.0434782608695663
        },
        {
          "name": "B6",
          "midi": 95,
          "time": 4.89130434782609,
          "velocity": 0.1968503937007874,
          "duration": 0.07608695652174102
        },
        {
          "name": "F7",
          "midi": 101,
          "time": 4.89130434782609,
          "velocity": 0.2125984251968504,
          "duration": 0.4021739130434856
        },
        {
          "name": "F#7",
          "midi": 102,
          "time": 4.89130434782609,
          "velocity": 0.28346456692913385,
          "duration": 0.2717391304347867
        },
        {
          "name": "G#4",
          "midi": 68,
          "time": 4.902173913043481,
          "velocity": 0.14960629921259844,
          "duration": 0.0434782608695663
        },
        {
          "name": "D5",
          "midi": 74,
          "time": 4.902173913043481,
          "velocity": 0.28346456692913385,
          "duration": 0.315217391304353
        },
        {
          "name": "G6",
          "midi": 91,
          "time": 4.902173913043481,
          "velocity": 0.23622047244094488,
          "duration": 0.0434782608695663
        },
        {
          "name": "D4",
          "midi": 62,
          "time": 4.913043478260873,
          "velocity": 0.2125984251968504,
          "duration": 0.032608695652174724
        },
        {
          "name": "G5",
          "midi": 79,
          "time": 4.913043478260873,
          "velocity": 0.2047244094488189,
          "duration": 0.10869565217391486
        },
        {
          "name": "E6",
          "midi": 88,
          "time": 4.913043478260873,
          "velocity": 0.2204724409448819,
          "duration": 0.032608695652174724
        },
        {
          "name": "A#5",
          "midi": 82,
          "time": 4.923913043478264,
          "velocity": 0.14960629921259844,
          "duration": 0.032608695652174724
        },
        {
          "name": "F#6",
          "midi": 90,
          "time": 4.923913043478264,
          "velocity": 0.18110236220472442,
          "duration": 0.20652173913043814
        },
        {
          "name": "A6",
          "midi": 93,
          "time": 4.923913043478264,
          "velocity": 0.2440944881889764,
          "duration": 0.2608695652173951
        },
        {
          "name": "B4",
          "midi": 71,
          "time": 4.934782608695656,
          "velocity": 0.2755905511811024,
          "duration": 0.1739130434782643
        },
        {
          "name": "C#6",
          "midi": 85,
          "time": 4.934782608695656,
          "velocity": 0.1732283464566929,
          "duration": 0.06521739130434856
        },
        {
          "name": "G4",
          "midi": 67,
          "time": 4.9456521739130475,
          "velocity": 0.16535433070866143,
          "duration": 0.054347826086956985
        },
        {
          "name": "G1",
          "midi": 31,
          "time": 4.956521739130439,
          "velocity": 0.3543307086614173,
          "duration": 0.02173913043478315
        },
        {
          "name": "A5",
          "midi": 81,
          "time": 4.956521739130439,
          "velocity": 0.2677165354330709,
          "duration": 0.15217391304348116
        },
        {
          "name": "F#1",
          "midi": 30,
          "time": 4.978260869565222,
          "velocity": 0.33070866141732286,
          "duration": 0.054347826086956985
        },
        {
          "name": "D3",
          "midi": 50,
          "time": 4.978260869565222,
          "velocity": 0.18110236220472442,
          "duration": 0.16304347826087184
        },
        {
          "name": "E5",
          "midi": 76,
          "time": 4.978260869565222,
          "velocity": 0.15748031496062992,
          "duration": 0.032608695652173836
        },
        {
          "name": "G#6",
          "midi": 92,
          "time": 4.978260869565222,
          "velocity": 0.07874015748031496,
          "duration": 0.054347826086956985
        },
        {
          "name": "C#6",
          "midi": 85,
          "time": 5.010869565217396,
          "velocity": 0.10236220472440945,
          "duration": 0.032608695652174724
        },
        {
          "name": "D#6",
          "midi": 87,
          "time": 5.010869565217396,
          "velocity": 0.13385826771653545,
          "duration": 0.032608695652174724
        },
        {
          "name": "D4",
          "midi": 62,
          "time": 5.021739130434788,
          "velocity": 0.2992125984251969,
          "duration": 0.16304347826087184
        },
        {
          "name": "G5",
          "midi": 79,
          "time": 5.032608695652179,
          "velocity": 0.28346456692913385,
          "duration": 0.1413043478260887
        },
        {
          "name": "E7",
          "midi": 100,
          "time": 5.032608695652179,
          "velocity": 0.2047244094488189,
          "duration": 0.15217391304348027
        },
        {
          "name": "D#6",
          "midi": 87,
          "time": 5.054347826086962,
          "velocity": 0.11023622047244094,
          "duration": 0.07608695652174013
        },
        {
          "name": "G#6",
          "midi": 92,
          "time": 5.054347826086962,
          "velocity": 0.09448818897637795,
          "duration": 0.0434782608695663
        },
        {
          "name": "F5",
          "midi": 77,
          "time": 5.065217391304354,
          "velocity": 0.1732283464566929,
          "duration": 0.1413043478260887
        },
        {
          "name": "B6",
          "midi": 95,
          "time": 5.0760869565217455,
          "velocity": 0.25984251968503935,
          "duration": 0.08695652173913082
        },
        {
          "name": "G4",
          "midi": 67,
          "time": 5.086956521739137,
          "velocity": 0.2755905511811024,
          "duration": 0.0978260869565224
        },
        {
          "name": "F6",
          "midi": 89,
          "time": 5.086956521739137,
          "velocity": 0.1889763779527559,
          "duration": 0.13043478260869712
        },
        {
          "name": "C#6",
          "midi": 85,
          "time": 5.097826086956529,
          "velocity": 0.2440944881889764,
          "duration": 0.0978260869565224
        },
        {
          "name": "B4",
          "midi": 71,
          "time": 5.1304347826087024,
          "velocity": 0.14173228346456693,
          "duration": 0.06521739130434856
        },
        {
          "name": "D#6",
          "midi": 87,
          "time": 5.141304347826094,
          "velocity": 0.18110236220472442,
          "duration": 0.06521739130434856
        },
        {
          "name": "C3",
          "midi": 48,
          "time": 5.184782608695659,
          "velocity": 0.23622047244094488,
          "duration": 0.02173913043478315
        },
        {
          "name": "F4",
          "midi": 65,
          "time": 5.184782608695659,
          "velocity": 0.4015748031496063,
          "duration": 0.0434782608695663
        },
        {
          "name": "D7",
          "midi": 98,
          "time": 5.184782608695659,
          "velocity": 0.14960629921259844,
          "duration": 0.032608695652174724
        },
        {
          "name": "F#7",
          "midi": 102,
          "time": 5.184782608695659,
          "velocity": 0.1968503937007874,
          "duration": 0.06521739130434945
        },
        {
          "name": "F#5",
          "midi": 78,
          "time": 5.195652173913051,
          "velocity": 0.18110236220472442,
          "duration": 0.05434782608695787
        },
        {
          "name": "A#5",
          "midi": 82,
          "time": 5.195652173913051,
          "velocity": 0.16535433070866143,
          "duration": 0.0434782608695663
        },
        {
          "name": "B5",
          "midi": 83,
          "time": 5.195652173913051,
          "velocity": 0.1732283464566929,
          "duration": 0.06521739130434945
        },
        {
          "name": "G6",
          "midi": 91,
          "time": 5.195652173913051,
          "velocity": 0.23622047244094488,
          "duration": 0.05434782608695787
        },
        {
          "name": "A6",
          "midi": 93,
          "time": 5.195652173913051,
          "velocity": 0.18110236220472442,
          "duration": 0.0434782608695663
        },
        {
          "name": "E7",
          "midi": 100,
          "time": 5.195652173913051,
          "velocity": 0.2047244094488189,
          "duration": 0.05434782608695787
        },
        {
          "name": "E6",
          "midi": 88,
          "time": 5.206521739130443,
          "velocity": 0.1889763779527559,
          "duration": 0.0434782608695663
        },
        {
          "name": "G#6",
          "midi": 92,
          "time": 5.206521739130443,
          "velocity": 0.14960629921259844,
          "duration": 0.0434782608695663
        },
        {
          "name": "D#7",
          "midi": 99,
          "time": 5.206521739130443,
          "velocity": 0.08661417322834646,
          "duration": 0.032608695652174724
        },
        {
          "name": "D4",
          "midi": 62,
          "time": 5.217391304347834,
          "velocity": 0.29133858267716534,
          "duration": 0.0434782608695663
        },
        {
          "name": "F#4",
          "midi": 66,
          "time": 5.228260869565226,
          "velocity": 0.3464566929133858,
          "duration": 0.06521739130434945
        },
        {
          "name": "F6",
          "midi": 89,
          "time": 5.228260869565226,
          "velocity": 0.12598425196850394,
          "duration": 0.0434782608695663
        },
        {
          "name": "A#5",
          "midi": 82,
          "time": 5.250000000000009,
          "velocity": 0.16535433070866143,
          "duration": 0.06521739130434856
        },
        {
          "name": "G1",
          "midi": 31,
          "time": 5.2608695652174005,
          "velocity": 0.36220472440944884,
          "duration": 0.02173913043478315
        },
        {
          "name": "F#1",
          "midi": 30,
          "time": 5.282608695652184,
          "velocity": 0.33858267716535434,
          "duration": 0.0543478260869561
        },
        {
          "name": "F5",
          "midi": 77,
          "time": 5.347826086956531,
          "velocity": 0.15748031496062992,
          "duration": 0.032608695652174724
        },
        {
          "name": "A5",
          "midi": 81,
          "time": 5.347826086956531,
          "velocity": 0.13385826771653545,
          "duration": 0.06521739130434856
        },
        {
          "name": "D#7",
          "midi": 99,
          "time": 5.347826086956531,
          "velocity": 0.14960629921259844,
          "duration": 0.07608695652174013
        },
        {
          "name": "F7",
          "midi": 101,
          "time": 5.347826086956531,
          "velocity": 0.29133858267716534,
          "duration": 0.184782608695655
        },
        {
          "name": "E6",
          "midi": 88,
          "time": 5.358695652173923,
          "velocity": 0.2047244094488189,
          "duration": 0.06521739130434856
        },
        {
          "name": "F#6",
          "midi": 90,
          "time": 5.358695652173923,
          "velocity": 0.1732283464566929,
          "duration": 0.054347826086956985
        },
        {
          "name": "E7",
          "midi": 100,
          "time": 5.358695652173923,
          "velocity": 0.2677165354330709,
          "duration": 0.4130434782608754
        },
        {
          "name": "G7",
          "midi": 103,
          "time": 5.358695652173923,
          "velocity": 0.12598425196850394,
          "duration": 0.054347826086956985
        },
        {
          "name": "A4",
          "midi": 69,
          "time": 5.369565217391314,
          "velocity": 0.12598425196850394,
          "duration": 0.04347826086956541
        },
        {
          "name": "D6",
          "midi": 86,
          "time": 5.369565217391314,
          "velocity": 0.2677165354330709,
          "duration": 0.06521739130434856
        },
        {
          "name": "G#6",
          "midi": 92,
          "time": 5.369565217391314,
          "velocity": 0.14960629921259844,
          "duration": 0.04347826086956541
        },
        {
          "name": "A#6",
          "midi": 94,
          "time": 5.369565217391314,
          "velocity": 0.1732283464566929,
          "duration": 0.10869565217391397
        },
        {
          "name": "F#5",
          "midi": 78,
          "time": 5.380434782608706,
          "velocity": 0.16535433070866143,
          "duration": 0.032608695652173836
        },
        {
          "name": "D#5",
          "midi": 75,
          "time": 5.391304347826098,
          "velocity": 0.2677165354330709,
          "duration": 0.13043478260869712
        },
        {
          "name": "A#5",
          "midi": 82,
          "time": 5.41304347826088,
          "velocity": 0.12598425196850394,
          "duration": 0.032608695652174724
        },
        {
          "name": "G5",
          "midi": 79,
          "time": 5.423913043478271,
          "velocity": 0.2125984251968504,
          "duration": 0.07608695652174013
        },
        {
          "name": "A5",
          "midi": 81,
          "time": 5.423913043478271,
          "velocity": 0.14173228346456693,
          "duration": 0.07608695652174013
        },
        {
          "name": "C#6",
          "midi": 85,
          "time": 5.423913043478271,
          "velocity": 0.2204724409448819,
          "duration": 0.09782608695652328
        },
        {
          "name": "G6",
          "midi": 91,
          "time": 5.423913043478271,
          "velocity": 0.2204724409448819,
          "duration": 0.06521739130434856
        },
        {
          "name": "F#7",
          "midi": 102,
          "time": 5.423913043478271,
          "velocity": 0.2204724409448819,
          "duration": 0.3152173913043521
        },
        {
          "name": "D#4",
          "midi": 63,
          "time": 5.434782608695663,
          "velocity": 0.18110236220472442,
          "duration": 0.06521739130434856
        },
        {
          "name": "D#6",
          "midi": 87,
          "time": 5.434782608695663,
          "velocity": 0.29133858267716534,
          "duration": 0.07608695652174013
        },
        {
          "name": "D7",
          "midi": 98,
          "time": 5.456521739130446,
          "velocity": 0.23622047244094488,
          "duration": 0.29347826086956896
        },
        {
          "name": "F6",
          "midi": 89,
          "time": 5.478260869565228,
          "velocity": 0.1732283464566929,
          "duration": 0.0434782608695663
        },
        {
          "name": "C7",
          "midi": 96,
          "time": 5.478260869565228,
          "velocity": 0.14173228346456693,
          "duration": 0.032608695652174724
        },
        {
          "name": "F#5",
          "midi": 78,
          "time": 5.48913043478262,
          "velocity": 0.25196850393700787,
          "duration": 0.15217391304348116
        },
        {
          "name": "A#5",
          "midi": 82,
          "time": 5.48913043478262,
          "velocity": 0.07086614173228346,
          "duration": 0.0434782608695663
        },
        {
          "name": "D6",
          "midi": 86,
          "time": 5.48913043478262,
          "velocity": 0.29133858267716534,
          "duration": 0.20652173913043814
        },
        {
          "name": "B6",
          "midi": 95,
          "time": 5.48913043478262,
          "velocity": 0.11811023622047244,
          "duration": 0.07608695652174102
        },
        {
          "name": "C#7",
          "midi": 97,
          "time": 5.48913043478262,
          "velocity": 0.25984251968503935,
          "duration": 0.23913043478261198
        },
        {
          "name": "C#3",
          "midi": 49,
          "time": 5.5000000000000115,
          "velocity": 0.3464566929133858,
          "duration": 0.02173913043478315
        },
        {
          "name": "A4",
          "midi": 69,
          "time": 5.5000000000000115,
          "velocity": 0.1968503937007874,
          "duration": 0.14130434782608958
        },
        {
          "name": "A6",
          "midi": 93,
          "time": 5.5000000000000115,
          "velocity": 0.15748031496062992,
          "duration": 0.032608695652174724
        },
        {
          "name": "A#6",
          "midi": 94,
          "time": 5.5000000000000115,
          "velocity": 0.16535433070866143,
          "duration": 0.07608695652174102
        },
        {
          "name": "G7",
          "midi": 103,
          "time": 5.5000000000000115,
          "velocity": 0.2125984251968504,
          "duration": 0.130434782608698
        },
        {
          "name": "G5",
          "midi": 79,
          "time": 5.510869565217403,
          "velocity": 0.14173228346456693,
          "duration": 0.032608695652174724
        },
        {
          "name": "C6",
          "midi": 84,
          "time": 5.510869565217403,
          "velocity": 0.28346456692913385,
          "duration": 0.032608695652174724
        },
        {
          "name": "E6",
          "midi": 88,
          "time": 5.510869565217403,
          "velocity": 0.1732283464566929,
          "duration": 0.032608695652174724
        },
        {
          "name": "F#6",
          "midi": 90,
          "time": 5.510869565217403,
          "velocity": 0.2755905511811024,
          "duration": 0.07608695652174102
        },
        {
          "name": "D5",
          "midi": 74,
          "time": 5.521739130434795,
          "velocity": 0.1732283464566929,
          "duration": 0.09782608695652328
        },
        {
          "name": "E5",
          "midi": 76,
          "time": 5.521739130434795,
          "velocity": 0.28346456692913385,
          "duration": 0.184782608695655
        },
        {
          "name": "G6",
          "midi": 91,
          "time": 5.521739130434795,
          "velocity": 0.2440944881889764,
          "duration": 0.08695652173913171
        },
        {
          "name": "D4",
          "midi": 62,
          "time": 5.532608695652186,
          "velocity": 0.13385826771653545,
          "duration": 0.05434782608695787
        },
        {
          "name": "C6",
          "midi": 84,
          "time": 5.554347826086969,
          "velocity": 0.2047244094488189,
          "duration": 0.07608695652174013
        },
        {
          "name": "F7",
          "midi": 101,
          "time": 5.554347826086969,
          "velocity": 0.09448818897637795,
          "duration": 0.032608695652174724
        },
        {
          "name": "B6",
          "midi": 95,
          "time": 5.576086956521753,
          "velocity": 0.2047244094488189,
          "duration": 0.04347826086956541
        },
        {
          "name": "F#1",
          "midi": 30,
          "time": 5.586956521739144,
          "velocity": 0.3464566929133858,
          "duration": 0.02173913043478226
        },
        {
          "name": "D#7",
          "midi": 99,
          "time": 5.608695652173926,
          "velocity": 0.10236220472440945,
          "duration": 0.05434782608695787
        },
        {
          "name": "F7",
          "midi": 101,
          "time": 5.608695652173926,
          "velocity": 0.10236220472440945,
          "duration": 0.15217391304348027
        },
        {
          "name": "F#1",
          "midi": 30,
          "time": 5.619565217391318,
          "velocity": 0.28346456692913385,
          "duration": 0.02173913043478315
        },
        {
          "name": "G5",
          "midi": 79,
          "time": 5.641304347826101,
          "velocity": 0.3228346456692913,
          "duration": 0.1956521739130448
        },
        {
          "name": "C5",
          "midi": 72,
          "time": 5.652173913043493,
          "velocity": 0.2283464566929134,
          "duration": 0.08695652173913082
        },
        {
          "name": "A#5",
          "midi": 82,
          "time": 5.652173913043493,
          "velocity": 0.23622047244094488,
          "duration": 0.08695652173913082
        },
        {
          "name": "G4",
          "midi": 67,
          "time": 5.673913043478276,
          "velocity": 0.1732283464566929,
          "duration": 0.06521739130434767
        },
        {
          "name": "B6",
          "midi": 95,
          "time": 5.673913043478276,
          "velocity": 0.16535433070866143,
          "duration": 0.06521739130434767
        },
        {
          "name": "D#7",
          "midi": 99,
          "time": 5.695652173913058,
          "velocity": 0.10236220472440945,
          "duration": 0.04347826086956541
        },
        {
          "name": "F7",
          "midi": 101,
          "time": 5.771739130434798,
          "velocity": 0.2992125984251969,
          "duration": 0.29347826086956896
        },
        {
          "name": "C6",
          "midi": 84,
          "time": 5.7934782608695805,
          "velocity": 0.1968503937007874,
          "duration": 0.07608695652174013
        },
        {
          "name": "F#4",
          "midi": 66,
          "time": 5.804347826086972,
          "velocity": 0.4566929133858268,
          "duration": 0.08695652173913171
        },
        {
          "name": "C#6",
          "midi": 85,
          "time": 5.804347826086972,
          "velocity": 0.23622047244094488,
          "duration": 0.054347826086956985
        },
        {
          "name": "A6",
          "midi": 93,
          "time": 5.804347826086972,
          "velocity": 0.18110236220472442,
          "duration": 0.054347826086956985
        },
        {
          "name": "A#6",
          "midi": 94,
          "time": 5.804347826086972,
          "velocity": 0.1732283464566929,
          "duration": 0.07608695652174013
        },
        {
          "name": "D#7",
          "midi": 99,
          "time": 5.804347826086972,
          "velocity": 0.18110236220472442,
          "duration": 0.04347826086956541
        },
        {
          "name": "F#7",
          "midi": 102,
          "time": 5.804347826086972,
          "velocity": 0.16535433070866143,
          "duration": 0.054347826086956985
        },
        {
          "name": "A#5",
          "midi": 82,
          "time": 5.815217391304364,
          "velocity": 0.2283464566929134,
          "duration": 0.11956521739130554
        },
        {
          "name": "D#6",
          "midi": 87,
          "time": 5.815217391304364,
          "velocity": 0.1968503937007874,
          "duration": 0.04347826086956541
        },
        {
          "name": "F6",
          "midi": 89,
          "time": 5.815217391304364,
          "velocity": 0.14960629921259844,
          "duration": 0.06521739130434856
        },
        {
          "name": "F#6",
          "midi": 90,
          "time": 5.815217391304364,
          "velocity": 0.2283464566929134,
          "duration": 0.02173913043478226
        },
        {
          "name": "G#6",
          "midi": 92,
          "time": 5.815217391304364,
          "velocity": 0.13385826771653545,
          "duration": 0.054347826086956985
        },
        {
          "name": "E7",
          "midi": 100,
          "time": 5.815217391304364,
          "velocity": 0.2125984251968504,
          "duration": 0.04347826086956541
        },
        {
          "name": "F5",
          "midi": 77,
          "time": 5.836956521739146,
          "velocity": 0.2440944881889764,
          "duration": 0.09782608695652328
        },
        {
          "name": "G1",
          "midi": 31,
          "time": 5.869565217391321,
          "velocity": 0.3700787401574803,
          "duration": 0.032608695652174724
        },
        {
          "name": "F#1",
          "midi": 30,
          "time": 5.923913043478278,
          "velocity": 0.2755905511811024,
          "duration": 0.02173913043478315
        },
        {
          "name": "F1",
          "midi": 29,
          "time": 5.945652173913061,
          "velocity": 0.2047244094488189,
          "duration": 0.032608695652174724
        },
        {
          "name": "A4",
          "midi": 69,
          "time": 5.956521739130452,
          "velocity": 0.14173228346456693,
          "duration": 0.05434782608695787
        },
        {
          "name": "D5",
          "midi": 74,
          "time": 5.956521739130452,
          "velocity": 0.23622047244094488,
          "duration": 0.09782608695652328
        },
        {
          "name": "A5",
          "midi": 81,
          "time": 5.956521739130452,
          "velocity": 0.23622047244094488,
          "duration": 0.184782608695655
        },
        {
          "name": "D6",
          "midi": 86,
          "time": 5.956521739130452,
          "velocity": 0.25984251968503935,
          "duration": 0.11956521739130643
        },
        {
          "name": "C#7",
          "midi": 97,
          "time": 5.956521739130452,
          "velocity": 0.23622047244094488,
          "duration": 0.21739130434782972
        },
        {
          "name": "G5",
          "midi": 79,
          "time": 5.967391304347844,
          "velocity": 0.13385826771653545,
          "duration": 0.032608695652174724
        },
        {
          "name": "G7",
          "midi": 103,
          "time": 5.967391304347844,
          "velocity": 0.1889763779527559,
          "duration": 0.10869565217391486
        },
        {
          "name": "C6",
          "midi": 84,
          "time": 5.989130434782627,
          "velocity": 0.2677165354330709,
          "duration": 0.08695652173913171
        },
        {
          "name": "E6",
          "midi": 88,
          "time": 5.989130434782627,
          "velocity": 0.11811023622047244,
          "duration": 0.08695652173913171
        },
        {
          "name": "G#6",
          "midi": 92,
          "time": 5.989130434782627,
          "velocity": 0.15748031496062992,
          "duration": 0.0434782608695663
        },
        {
          "name": "A#6",
          "midi": 94,
          "time": 5.989130434782627,
          "velocity": 0.16535433070866143,
          "duration": 0.08695652173913171
        },
        {
          "name": "D#7",
          "midi": 99,
          "time": 5.989130434782627,
          "velocity": 0.15748031496062992,
          "duration": 0.07608695652174013
        },
        {
          "name": "F#5",
          "midi": 78,
          "time": 6.000000000000019,
          "velocity": 0.14960629921259844,
          "duration": 0.032608695652174724
        },
        {
          "name": "E7",
          "midi": 100,
          "time": 6.000000000000019,
          "velocity": 0.2204724409448819,
          "duration": 0.16304347826087184
        },
        {
          "name": "D4",
          "midi": 62,
          "time": 6.01086956521741,
          "velocity": 0.07086614173228346,
          "duration": 0.04347826086956541
        },
        {
          "name": "G5",
          "midi": 79,
          "time": 6.021739130434802,
          "velocity": 0.13385826771653545,
          "duration": 0.04347826086956541
        },
        {
          "name": "F#7",
          "midi": 102,
          "time": 6.032608695652193,
          "velocity": 0.11811023622047244,
          "duration": 0.054347826086956985
        },
        {
          "name": "F#5",
          "midi": 78,
          "time": 6.08695652173915,
          "velocity": 0.1968503937007874,
          "duration": 0.11956521739130643
        },
        {
          "name": "B5",
          "midi": 83,
          "time": 6.108695652173933,
          "velocity": 0.14173228346456693,
          "duration": 0.0434782608695663
        },
        {
          "name": "C#6",
          "midi": 85,
          "time": 6.108695652173933,
          "velocity": 0.2755905511811024,
          "duration": 0.032608695652174724
        },
        {
          "name": "D6",
          "midi": 86,
          "time": 6.108695652173933,
          "velocity": 0.16535433070866143,
          "duration": 0.06521739130434945
        },
        {
          "name": "A#6",
          "midi": 94,
          "time": 6.108695652173933,
          "velocity": 0.1889763779527559,
          "duration": 0.05434782608695787
        },
        {
          "name": "B6",
          "midi": 95,
          "time": 6.108695652173933,
          "velocity": 0.16535433070866143,
          "duration": 0.05434782608695787
        },
        {
          "name": "C7",
          "midi": 96,
          "time": 6.108695652173933,
          "velocity": 0.2125984251968504,
          "duration": 0.06521739130434945
        },
        {
          "name": "D#7",
          "midi": 99,
          "time": 6.108695652173933,
          "velocity": 0.14173228346456693,
          "duration": 0.06521739130434945
        },
        {
          "name": "D#4",
          "midi": 63,
          "time": 6.119565217391324,
          "velocity": 0.2677165354330709,
          "duration": 0.032608695652174724
        },
        {
          "name": "C6",
          "midi": 84,
          "time": 6.119565217391324,
          "velocity": 0.23622047244094488,
          "duration": 0.032608695652174724
        },
        {
          "name": "E6",
          "midi": 88,
          "time": 6.119565217391324,
          "velocity": 0.14173228346456693,
          "duration": 0.0434782608695663
        },
        {
          "name": "G6",
          "midi": 91,
          "time": 6.119565217391324,
          "velocity": 0.2047244094488189,
          "duration": 0.05434782608695787
        },
        {
          "name": "D7",
          "midi": 98,
          "time": 6.119565217391324,
          "velocity": 0.18110236220472442,
          "duration": 0.05434782608695787
        },
        {
          "name": "F#7",
          "midi": 102,
          "time": 6.119565217391324,
          "velocity": 0.18110236220472442,
          "duration": 0.11956521739130643
        },
        {
          "name": "F7",
          "midi": 101,
          "time": 6.130434782608716,
          "velocity": 0.15748031496062992,
          "duration": 0.032608695652174724
        },
        {
          "name": "B4",
          "midi": 71,
          "time": 6.141304347826107,
          "velocity": 0.10236220472440945,
          "duration": 0.05434782608695787
        },
        {
          "name": "A#5",
          "midi": 82,
          "time": 6.141304347826107,
          "velocity": 0.18110236220472442,
          "duration": 0.0434782608695663
        },
        {
          "name": "F6",
          "midi": 89,
          "time": 6.141304347826107,
          "velocity": 0.15748031496062992,
          "duration": 0.06521739130434945
        },
        {
          "name": "G4",
          "midi": 67,
          "time": 6.152173913043499,
          "velocity": 0.23622047244094488,
          "duration": 0.08695652173913171
        },
        {
          "name": "A5",
          "midi": 81,
          "time": 6.152173913043499,
          "velocity": 0.11811023622047244,
          "duration": 0.032608695652174724
        },
        {
          "name": "C#6",
          "midi": 85,
          "time": 6.1630434782608905,
          "velocity": 0.13385826771653545,
          "duration": 0.0434782608695663
        },
        {
          "name": "D5",
          "midi": 74,
          "time": 6.173913043478282,
          "velocity": 0.14173228346456693,
          "duration": 0.08695652173913171
        },
        {
          "name": "G5",
          "midi": 79,
          "time": 6.184782608695674,
          "velocity": 0.3228346456692913,
          "duration": 0.23913043478261287
        },
        {
          "name": "F#1",
          "midi": 30,
          "time": 6.195652173913065,
          "velocity": 0.3700787401574803,
          "duration": 0.054347826086956985
        },
        {
          "name": "D3",
          "midi": 50,
          "time": 6.206521739130457,
          "velocity": 0.1968503937007874,
          "duration": 0.09782608695652328
        },
        {
          "name": "B4",
          "midi": 71,
          "time": 6.206521739130457,
          "velocity": 0.25984251968503935,
          "duration": 0.09782608695652328
        },
        {
          "name": "D7",
          "midi": 98,
          "time": 6.206521739130457,
          "velocity": 0.14173228346456693,
          "duration": 0.032608695652173836
        },
        {
          "name": "E7",
          "midi": 100,
          "time": 6.239130434782631,
          "velocity": 0.15748031496062992,
          "duration": 0.10869565217391575
        },
        {
          "name": "F1",
          "midi": 29,
          "time": 6.250000000000022,
          "velocity": 0.23622047244094488,
          "duration": 0.02173913043478315
        },
        {
          "name": "A5",
          "midi": 81,
          "time": 6.260869565217414,
          "velocity": 0.14173228346456693,
          "duration": 0.032608695652174724
        },
        {
          "name": "A#5",
          "midi": 82,
          "time": 6.260869565217414,
          "velocity": 0.1732283464566929,
          "duration": 0.07608695652174102
        },
        {
          "name": "D#6",
          "midi": 87,
          "time": 6.260869565217414,
          "velocity": 0.07874015748031496,
          "duration": 0.0869565217391326
        },
        {
          "name": "G#6",
          "midi": 92,
          "time": 6.260869565217414,
          "velocity": 0.2283464566929134,
          "duration": 0.0869565217391326
        },
        {
          "name": "D7",
          "midi": 98,
          "time": 6.260869565217414,
          "velocity": 0.28346456692913385,
          "duration": 0.18478260869565588
        },
        {
          "name": "A#3",
          "midi": 58,
          "time": 6.271739130434805,
          "velocity": 0.2440944881889764,
          "duration": 0.02173913043478315
        },
        {
          "name": "F4",
          "midi": 65,
          "time": 6.271739130434805,
          "velocity": 0.1968503937007874,
          "duration": 0.032608695652174724
        },
        {
          "name": "B6",
          "midi": 95,
          "time": 6.271739130434805,
          "velocity": 0.15748031496062992,
          "duration": 0.130434782608698
        },
        {
          "name": "D#7",
          "midi": 99,
          "time": 6.271739130434805,
          "velocity": 0.11811023622047244,
          "duration": 0.11956521739130643
        },
        {
          "name": "D4",
          "midi": 62,
          "time": 6.282608695652197,
          "velocity": 0.28346456692913385,
          "duration": 0.2173913043478306
        },
        {
          "name": "C#6",
          "midi": 85,
          "time": 6.282608695652197,
          "velocity": 0.10236220472440945,
          "duration": 0.0434782608695663
        },
        {
          "name": "A6",
          "midi": 93,
          "time": 6.282608695652197,
          "velocity": 0.2047244094488189,
          "duration": 0.20652173913043903
        },
        {
          "name": "F5",
          "midi": 77,
          "time": 6.2934782608695885,
          "velocity": 0.29133858267716534,
          "duration": 0.130434782608698
        },
        {
          "name": "D6",
          "midi": 86,
          "time": 6.2934782608695885,
          "velocity": 0.2992125984251969,
          "duration": 0.1739130434782643
        },
        {
          "name": "C#7",
          "midi": 97,
          "time": 6.2934782608695885,
          "velocity": 0.2047244094488189,
          "duration": 0.1739130434782643
        },
        {
          "name": "D3",
          "midi": 50,
          "time": 6.315217391304372,
          "velocity": 0.18110236220472442,
          "duration": 0.032608695652174724
        },
        {
          "name": "A#3",
          "midi": 58,
          "time": 6.315217391304372,
          "velocity": 0.2440944881889764,
          "duration": 0.06521739130434856
        },
        {
          "name": "G4",
          "midi": 67,
          "time": 6.315217391304372,
          "velocity": 0.2755905511811024,
          "duration": 0.09782608695652328
        },
        {
          "name": "B4",
          "midi": 71,
          "time": 6.326086956521763,
          "velocity": 0.15748031496062992,
          "duration": 0.06521739130434856
        },
        {
          "name": "A#6",
          "midi": 94,
          "time": 6.326086956521763,
          "velocity": 0.2047244094488189,
          "duration": 0.14130434782608958
        },
        {
          "name": "A#3",
          "midi": 58,
          "time": 6.391304347826112,
          "velocity": 0.2204724409448819,
          "duration": 0.032608695652174724
        },
        {
          "name": "D#6",
          "midi": 87,
          "time": 6.391304347826112,
          "velocity": 0.16535433070866143,
          "duration": 0.032608695652174724
        },
        {
          "name": "A5",
          "midi": 81,
          "time": 6.402173913043503,
          "velocity": 0.1732283464566929,
          "duration": 0.06521739130434945
        },
        {
          "name": "C6",
          "midi": 84,
          "time": 6.402173913043503,
          "velocity": 0.15748031496062992,
          "duration": 0.05434782608695787
        },
        {
          "name": "E5",
          "midi": 76,
          "time": 6.413043478260895,
          "velocity": 0.2204724409448819,
          "duration": 0.032608695652174724
        },
        {
          "name": "B6",
          "midi": 95,
          "time": 6.413043478260895,
          "velocity": 0.2204724409448819,
          "duration": 0.05434782608695787
        },
        {
          "name": "D#7",
          "midi": 99,
          "time": 6.413043478260895,
          "velocity": 0.18110236220472442,
          "duration": 0.0434782608695663
        },
        {
          "name": "F#7",
          "midi": 102,
          "time": 6.413043478260895,
          "velocity": 0.13385826771653545,
          "duration": 0.05434782608695787
        },
        {
          "name": "F#4",
          "midi": 66,
          "time": 6.4239130434782865,
          "velocity": 0.4409448818897638,
          "duration": 0.10869565217391575
        },
        {
          "name": "G#5",
          "midi": 80,
          "time": 6.4239130434782865,
          "velocity": 0.16535433070866143,
          "duration": 0.032608695652174724
        },
        {
          "name": "B5",
          "midi": 83,
          "time": 6.4239130434782865,
          "velocity": 0.14173228346456693,
          "duration": 0.0434782608695663
        },
        {
          "name": "D#6",
          "midi": 87,
          "time": 6.434782608695678,
          "velocity": 0.12598425196850394,
          "duration": 0.06521739130434945
        },
        {
          "name": "A#5",
          "midi": 82,
          "time": 6.44565217391307,
          "velocity": 0.2047244094488189,
          "duration": 0.10869565217391575
        },
        {
          "name": "A1",
          "midi": 33,
          "time": 6.456521739130461,
          "velocity": 0.4015748031496063,
          "duration": 0.02173913043478315
        },
        {
          "name": "G5",
          "midi": 79,
          "time": 6.456521739130461,
          "velocity": 0.2283464566929134,
          "duration": 0.06521739130434945
        },
        {
          "name": "G1",
          "midi": 31,
          "time": 6.489130434782636,
          "velocity": 0.3937007874015748,
          "duration": 0.02173913043478315
        },
        {
          "name": "D6",
          "midi": 86,
          "time": 6.5000000000000275,
          "velocity": 0.11023622047244094,
          "duration": 0.032608695652174724
        },
        {
          "name": "F#1",
          "midi": 30,
          "time": 6.510869565217419,
          "velocity": 0.3464566929133858,
          "duration": 0.05434782608695787
        },
        {
          "name": "G#5",
          "midi": 80,
          "time": 6.521739130434811,
          "velocity": 0.23622047244094488,
          "duration": 0.032608695652174724
        },
        {
          "name": "F#4",
          "midi": 66,
          "time": 6.543478260869594,
          "velocity": 0.07874015748031496,
          "duration": 0.032608695652174724
        },
        {
          "name": "F4",
          "midi": 65,
          "time": 6.565217391304377,
          "velocity": 0.2204724409448819,
          "duration": 0.06521739130434945
        },
        {
          "name": "C#6",
          "midi": 85,
          "time": 6.565217391304377,
          "velocity": 0.2283464566929134,
          "duration": 0.032608695652174724
        },
        {
          "name": "D6",
          "midi": 86,
          "time": 6.565217391304377,
          "velocity": 0.2125984251968504,
          "duration": 0.0869565217391326
        },
        {
          "name": "A#3",
          "midi": 58,
          "time": 6.576086956521769,
          "velocity": 0.2125984251968504,
          "duration": 0.07608695652174102
        },
        {
          "name": "G#5",
          "midi": 80,
          "time": 6.576086956521769,
          "velocity": 0.33858267716535434,
          "duration": 0.07608695652174102
        },
        {
          "name": "F6",
          "midi": 89,
          "time": 6.576086956521769,
          "velocity": 0.29133858267716534,
          "duration": 0.0869565217391326
        },
        {
          "name": "G6",
          "midi": 91,
          "time": 6.576086956521769,
          "velocity": 0.29133858267716534,
          "duration": 0.0434782608695663
        },
        {
          "name": "A6",
          "midi": 93,
          "time": 6.576086956521769,
          "velocity": 0.12598425196850394,
          "duration": 0.05434782608695787
        },
        {
          "name": "C7",
          "midi": 96,
          "time": 6.576086956521769,
          "velocity": 0.11811023622047244,
          "duration": 0.07608695652174102
        },
        {
          "name": "E6",
          "midi": 88,
          "time": 6.58695652173916,
          "velocity": 0.14960629921259844,
          "duration": 0.032608695652174724
        },
        {
          "name": "E7",
          "midi": 100,
          "time": 6.58695652173916,
          "velocity": 0.1732283464566929,
          "duration": 0.032608695652174724
        },
        {
          "name": "C6",
          "midi": 84,
          "time": 6.597826086956552,
          "velocity": 0.1732283464566929,
          "duration": 0.032608695652174724
        },
        {
          "name": "D5",
          "midi": 74,
          "time": 6.608695652173943,
          "velocity": 0.11023622047244094,
          "duration": 0.032608695652174724
        },
        {
          "name": "A#5",
          "midi": 82,
          "time": 6.608695652173943,
          "velocity": 0.16535433070866143,
          "duration": 0.032608695652174724
        },
        {
          "name": "D#7",
          "midi": 99,
          "time": 6.608695652173943,
          "velocity": 0.12598425196850394,
          "duration": 0.032608695652174724
        },
        {
          "name": "D#6",
          "midi": 87,
          "time": 6.619565217391335,
          "velocity": 0.07874015748031496,
          "duration": 0.0434782608695663
        },
        {
          "name": "A5",
          "midi": 81,
          "time": 6.641304347826118,
          "velocity": 0.2755905511811024,
          "duration": 0.1413043478260887
        },
        {
          "name": "B6",
          "midi": 95,
          "time": 6.641304347826118,
          "velocity": 0.2755905511811024,
          "duration": 0.26086956521739424
        },
        {
          "name": "E7",
          "midi": 100,
          "time": 6.641304347826118,
          "velocity": 0.1732283464566929,
          "duration": 0.13043478260869712
        },
        {
          "name": "G#4",
          "midi": 68,
          "time": 6.695652173913075,
          "velocity": 0.14173228346456693,
          "duration": 0.032608695652173836
        },
        {
          "name": "E4",
          "midi": 64,
          "time": 6.717391304347857,
          "velocity": 0.23622047244094488,
          "duration": 0.032608695652174724
        },
        {
          "name": "F#5",
          "midi": 78,
          "time": 6.717391304347857,
          "velocity": 0.16535433070866143,
          "duration": 0.032608695652174724
        },
        {
          "name": "E6",
          "midi": 88,
          "time": 6.717391304347857,
          "velocity": 0.2440944881889764,
          "duration": 0.17391304347826342
        },
        {
          "name": "F6",
          "midi": 89,
          "time": 6.717391304347857,
          "velocity": 0.3228346456692913,
          "duration": 0.10869565217391486
        },
        {
          "name": "C#7",
          "midi": 97,
          "time": 6.717391304347857,
          "velocity": 0.2283464566929134,
          "duration": 0.1413043478260887
        },
        {
          "name": "C#6",
          "midi": 85,
          "time": 6.728260869565249,
          "velocity": 0.25984251968503935,
          "duration": 0.032608695652174724
        },
        {
          "name": "D#6",
          "midi": 87,
          "time": 6.728260869565249,
          "velocity": 0.2047244094488189,
          "duration": 0.032608695652174724
        },
        {
          "name": "G#6",
          "midi": 92,
          "time": 6.728260869565249,
          "velocity": 0.12598425196850394,
          "duration": 0.032608695652174724
        },
        {
          "name": "C7",
          "midi": 96,
          "time": 6.728260869565249,
          "velocity": 0.2283464566929134,
          "duration": 0.30434782608696054
        },
        {
          "name": "D5",
          "midi": 74,
          "time": 6.73913043478264,
          "velocity": 0.23622047244094488,
          "duration": 0.1413043478260887
        },
        {
          "name": "A#5",
          "midi": 82,
          "time": 6.73913043478264,
          "velocity": 0.25984251968503935,
          "duration": 0.13043478260869712
        },
        {
          "name": "C6",
          "midi": 84,
          "time": 6.73913043478264,
          "velocity": 0.2204724409448819,
          "duration": 0.08695652173913171
        },
        {
          "name": "G6",
          "midi": 91,
          "time": 6.73913043478264,
          "velocity": 0.2440944881889764,
          "duration": 0.032608695652174724
        },
        {
          "name": "A#3",
          "midi": 58,
          "time": 6.750000000000032,
          "velocity": 0.1889763779527559,
          "duration": 0.13043478260869712
        },
        {
          "name": "F4",
          "midi": 65,
          "time": 6.750000000000032,
          "velocity": 0.1732283464566929,
          "duration": 0.11956521739130554
        },
        {
          "name": "F5",
          "midi": 77,
          "time": 6.750000000000032,
          "velocity": 0.2755905511811024,
          "duration": 0.11956521739130554
        },
        {
          "name": "F#7",
          "midi": 102,
          "time": 6.750000000000032,
          "velocity": 0.11023622047244094,
          "duration": 0.032608695652174724
        },
        {
          "name": "G5",
          "midi": 79,
          "time": 6.7608695652174235,
          "velocity": 0.2047244094488189,
          "duration": 0.032608695652174724
        },
        {
          "name": "F#6",
          "midi": 90,
          "time": 6.7608695652174235,
          "velocity": 0.23622047244094488,
          "duration": 0.02173913043478315
        },
        {
          "name": "G#6",
          "midi": 92,
          "time": 6.771739130434815,
          "velocity": 0.1968503937007874,
          "duration": 0.08695652173913082
        },
        {
          "name": "G1",
          "midi": 31,
          "time": 6.793478260869598,
          "velocity": 0.4015748031496063,
          "duration": 0.02173913043478226
        },
        {
          "name": "G#5",
          "midi": 80,
          "time": 6.793478260869598,
          "velocity": 0.2047244094488189,
          "duration": 0.06521739130434767
        },
        {
          "name": "F#1",
          "midi": 30,
          "time": 6.836956521739164,
          "velocity": 0.31496062992125984,
          "duration": 0.032608695652173836
        },
        {
          "name": "G5",
          "midi": 79,
          "time": 6.858695652173946,
          "velocity": 0.4015748031496063,
          "duration": 0.15217391304348027
        },
        {
          "name": "F#6",
          "midi": 90,
          "time": 6.8695652173913375,
          "velocity": 0.30708661417322836,
          "duration": 0.06521739130434856
        },
        {
          "name": "C4",
          "midi": 60,
          "time": 6.880434782608729,
          "velocity": 0.1889763779527559,
          "duration": 0.0978260869565224
        },
        {
          "name": "G4",
          "midi": 67,
          "time": 6.880434782608729,
          "velocity": 0.1968503937007874,
          "duration": 0.11956521739130554
        },
        {
          "name": "E5",
          "midi": 76,
          "time": 6.880434782608729,
          "velocity": 0.25984251968503935,
          "duration": 0.16304347826087184
        },
        {
          "name": "C#7",
          "midi": 97,
          "time": 6.880434782608729,
          "velocity": 0.23622047244094488,
          "duration": 0.11956521739130554
        },
        {
          "name": "D7",
          "midi": 98,
          "time": 6.880434782608729,
          "velocity": 0.23622047244094488,
          "duration": 0.10869565217391397
        },
        {
          "name": "A#6",
          "midi": 94,
          "time": 6.891304347826121,
          "velocity": 0.15748031496062992,
          "duration": 0.08695652173913082
        },
        {
          "name": "A#5",
          "midi": 82,
          "time": 6.913043478260904,
          "velocity": 0.1889763779527559,
          "duration": 0.032608695652173836
        },
        {
          "name": "C6",
          "midi": 84,
          "time": 6.913043478260904,
          "velocity": 0.2992125984251969,
          "duration": 0.2282608695652213
        },
        {
          "name": "D6",
          "midi": 86,
          "time": 6.934782608695686,
          "velocity": 0.1968503937007874,
          "duration": 0.06521739130434856
        },
        {
          "name": "F6",
          "midi": 89,
          "time": 6.934782608695686,
          "velocity": 0.2440944881889764,
          "duration": 0.02173913043478315
        },
        {
          "name": "G#6",
          "midi": 92,
          "time": 6.945652173913078,
          "velocity": 0.2283464566929134,
          "duration": 0.054347826086956985
        },
        {
          "name": "B6",
          "midi": 95,
          "time": 6.945652173913078,
          "velocity": 0.18110236220472442,
          "duration": 0.054347826086956985
        },
        {
          "name": "A#5",
          "midi": 82,
          "time": 6.956521739130469,
          "velocity": 0.3464566929133858,
          "duration": 0.08695652173913171
        },
        {
          "name": "F#4",
          "midi": 66,
          "time": 7.021739130434818,
          "velocity": 0.4409448818897638,
          "duration": 0.15217391304348205
        },
        {
          "name": "D6",
          "midi": 86,
          "time": 7.021739130434818,
          "velocity": 0.2440944881889764,
          "duration": 0.0434782608695663
        },
        {
          "name": "F6",
          "midi": 89,
          "time": 7.021739130434818,
          "velocity": 0.2047244094488189,
          "duration": 0.05434782608695787
        },
        {
          "name": "G#6",
          "midi": 92,
          "time": 7.021739130434818,
          "velocity": 0.25196850393700787,
          "duration": 0.0434782608695663
        },
        {
          "name": "B6",
          "midi": 95,
          "time": 7.021739130434818,
          "velocity": 0.14960629921259844,
          "duration": 0.0434782608695663
        },
        {
          "name": "F#7",
          "midi": 102,
          "time": 7.021739130434818,
          "velocity": 0.16535433070866143,
          "duration": 0.06521739130434945
        },
        {
          "name": "A5",
          "midi": 81,
          "time": 7.032608695652209,
          "velocity": 0.2440944881889764,
          "duration": 0.0434782608695663
        },
        {
          "name": "C#6",
          "midi": 85,
          "time": 7.032608695652209,
          "velocity": 0.25984251968503935,
          "duration": 0.0434782608695663
        },
        {
          "name": "A6",
          "midi": 93,
          "time": 7.032608695652209,
          "velocity": 0.28346456692913385,
          "duration": 0.11956521739130732
        },
        {
          "name": "D#7",
          "midi": 99,
          "time": 7.032608695652209,
          "velocity": 0.15748031496062992,
          "duration": 0.0434782608695663
        },
        {
          "name": "G7",
          "midi": 103,
          "time": 7.032608695652209,
          "velocity": 0.09448818897637795,
          "duration": 0.05434782608695787
        },
        {
          "name": "D5",
          "midi": 74,
          "time": 7.043478260869601,
          "velocity": 0.2283464566929134,
          "duration": 0.07608695652174102
        },
        {
          "name": "G5",
          "midi": 79,
          "time": 7.043478260869601,
          "velocity": 0.11811023622047244,
          "duration": 0.0434782608695663
        },
        {
          "name": "B5",
          "midi": 83,
          "time": 7.043478260869601,
          "velocity": 0.2283464566929134,
          "duration": 0.02173913043478315
        },
        {
          "name": "F#6",
          "midi": 90,
          "time": 7.043478260869601,
          "velocity": 0.2440944881889764,
          "duration": 0.09782608695652417
        },
        {
          "name": "E7",
          "midi": 100,
          "time": 7.043478260869601,
          "velocity": 0.2677165354330709,
          "duration": 0.0434782608695663
        },
        {
          "name": "C#4",
          "midi": 61,
          "time": 7.0543478260869925,
          "velocity": 0.2283464566929134,
          "duration": 0.02173913043478315
        },
        {
          "name": "A#4",
          "midi": 70,
          "time": 7.0543478260869925,
          "velocity": 0.2283464566929134,
          "duration": 0.0434782608695663
        },
        {
          "name": "F5",
          "midi": 77,
          "time": 7.0543478260869925,
          "velocity": 0.2204724409448819,
          "duration": 0.032608695652174724
        },
        {
          "name": "E6",
          "midi": 88,
          "time": 7.0543478260869925,
          "velocity": 0.29133858267716534,
          "duration": 0.11956521739130732
        },
        {
          "name": "A#5",
          "midi": 82,
          "time": 7.065217391304384,
          "velocity": 0.30708661417322836,
          "duration": 0.18478260869565588
        },
        {
          "name": "D#6",
          "midi": 87,
          "time": 7.065217391304384,
          "velocity": 0.18110236220472442,
          "duration": 0.032608695652174724
        },
        {
          "name": "C#6",
          "midi": 85,
          "time": 7.086956521739167,
          "velocity": 0.12598425196850394,
          "duration": 0.0434782608695663
        },
        {
          "name": "D6",
          "midi": 86,
          "time": 7.086956521739167,
          "velocity": 0.25984251968503935,
          "duration": 0.07608695652174102
        },
        {
          "name": "G1",
          "midi": 31,
          "time": 7.097826086956559,
          "velocity": 0.4094488188976378,
          "duration": 0.02173913043478315
        },
        {
          "name": "C#3",
          "midi": 49,
          "time": 7.10869565217395,
          "velocity": 0.1732283464566929,
          "duration": 0.2282608695652213
        },
        {
          "name": "A4",
          "midi": 69,
          "time": 7.10869565217395,
          "velocity": 0.1889763779527559,
          "duration": 0.0434782608695663
        },
        {
          "name": "F#1",
          "midi": 30,
          "time": 7.119565217391342,
          "velocity": 0.3779527559055118,
          "duration": 0.02173913043478315
        },
        {
          "name": "C#5",
          "midi": 73,
          "time": 7.119565217391342,
          "velocity": 0.13385826771653545,
          "duration": 0.06521739130434945
        },
        {
          "name": "F#1",
          "midi": 30,
          "time": 7.152173913043517,
          "velocity": 0.31496062992125984,
          "duration": 0.02173913043478315
        },
        {
          "name": "A#4",
          "midi": 70,
          "time": 7.152173913043517,
          "velocity": 0.1732283464566929,
          "duration": 0.06521739130434856
        },
        {
          "name": "F7",
          "midi": 101,
          "time": 7.152173913043517,
          "velocity": 0.09448818897637795,
          "duration": 0.032608695652174724
        },
        {
          "name": "F1",
          "midi": 29,
          "time": 7.1739130434783,
          "velocity": 0.2283464566929134,
          "duration": 0.02173913043478315
        },
        {
          "name": "C#4",
          "midi": 61,
          "time": 7.1739130434783,
          "velocity": 0.28346456692913385,
          "duration": 0.1413043478260887
        },
        {
          "name": "G5",
          "midi": 79,
          "time": 7.184782608695691,
          "velocity": 0.2440944881889764,
          "duration": 0.11956521739130554
        },
        {
          "name": "A5",
          "midi": 81,
          "time": 7.184782608695691,
          "velocity": 0.07874015748031496,
          "duration": 0.032608695652173836
        },
        {
          "name": "C#6",
          "midi": 85,
          "time": 7.195652173913083,
          "velocity": 0.09448818897637795,
          "duration": 0.032608695652173836
        },
        {
          "name": "D7",
          "midi": 98,
          "time": 7.195652173913083,
          "velocity": 0.14960629921259844,
          "duration": 0.054347826086956985
        },
        {
          "name": "E7",
          "midi": 100,
          "time": 7.195652173913083,
          "velocity": 0.23622047244094488,
          "duration": 0.184782608695655
        },
        {
          "name": "F#4",
          "midi": 66,
          "time": 7.228260869565257,
          "velocity": 0.29133858267716534,
          "duration": 0.10869565217391486
        },
        {
          "name": "C6",
          "midi": 84,
          "time": 7.239130434782648,
          "velocity": 0.07086614173228346,
          "duration": 0.032608695652174724
        },
        {
          "name": "A#4",
          "midi": 70,
          "time": 7.25000000000004,
          "velocity": 0.1732283464566929,
          "duration": 0.054347826086956985
        },
        {
          "name": "B5",
          "midi": 83,
          "time": 7.25000000000004,
          "velocity": 0.1889763779527559,
          "duration": 0.032608695652174724
        },
        {
          "name": "A5",
          "midi": 81,
          "time": 7.2608695652174315,
          "velocity": 0.10236220472440945,
          "duration": 0.04347826086956541
        },
        {
          "name": "B4",
          "midi": 71,
          "time": 7.304347826086997,
          "velocity": 0.2047244094488189,
          "duration": 0.032608695652174724
        },
        {
          "name": "D7",
          "midi": 98,
          "time": 7.3152173913043885,
          "velocity": 0.12598425196850394,
          "duration": 0.032608695652174724
        },
        {
          "name": "C#6",
          "midi": 85,
          "time": 7.32608695652178,
          "velocity": 0.18110236220472442,
          "duration": 0.0434782608695663
        },
        {
          "name": "D6",
          "midi": 86,
          "time": 7.32608695652178,
          "velocity": 0.2677165354330709,
          "duration": 0.0869565217391326
        },
        {
          "name": "C7",
          "midi": 96,
          "time": 7.32608695652178,
          "velocity": 0.16535433070866143,
          "duration": 0.032608695652174724
        },
        {
          "name": "C#7",
          "midi": 97,
          "time": 7.32608695652178,
          "velocity": 0.2204724409448819,
          "duration": 0.07608695652174102
        },
        {
          "name": "A#2",
          "midi": 46,
          "time": 7.336956521739172,
          "velocity": 0.4094488188976378,
          "duration": 0.02173913043478315
        },
        {
          "name": "E5",
          "midi": 76,
          "time": 7.336956521739172,
          "velocity": 0.2125984251968504,
          "duration": 0.032608695652174724
        },
        {
          "name": "A5",
          "midi": 81,
          "time": 7.336956521739172,
          "velocity": 0.3228346456692913,
          "duration": 0.22826086956522218
        },
        {
          "name": "G#6",
          "midi": 92,
          "time": 7.336956521739172,
          "velocity": 0.2440944881889764,
          "duration": 0.032608695652174724
        },
        {
          "name": "F#7",
          "midi": 102,
          "time": 7.336956521739172,
          "velocity": 0.2125984251968504,
          "duration": 0.05434782608695787
        },
        {
          "name": "D#4",
          "midi": 63,
          "time": 7.347826086956563,
          "velocity": 0.3700787401574803,
          "duration": 0.02173913043478315
        },
        {
          "name": "F6",
          "midi": 89,
          "time": 7.347826086956563,
          "velocity": 0.2992125984251969,
          "duration": 0.18478260869565588
        },
        {
          "name": "F#6",
          "midi": 90,
          "time": 7.347826086956563,
          "velocity": 0.28346456692913385,
          "duration": 0.2934782608695716
        },
        {
          "name": "A#6",
          "midi": 94,
          "time": 7.347826086956563,
          "velocity": 0.14173228346456693,
          "duration": 0.06521739130434945
        },
        {
          "name": "B4",
          "midi": 71,
          "time": 7.358695652173955,
          "velocity": 0.33858267716535434,
          "duration": 0.19565217391304746
        },
        {
          "name": "D5",
          "midi": 74,
          "time": 7.358695652173955,
          "velocity": 0.10236220472440945,
          "duration": 0.0434782608695663
        },
        {
          "name": "D#6",
          "midi": 87,
          "time": 7.358695652173955,
          "velocity": 0.13385826771653545,
          "duration": 0.0434782608695663
        },
        {
          "name": "G6",
          "midi": 91,
          "time": 7.358695652173955,
          "velocity": 0.2125984251968504,
          "duration": 0.07608695652174102
        },
        {
          "name": "D4",
          "midi": 62,
          "time": 7.369565217391346,
          "velocity": 0.29133858267716534,
          "duration": 0.11956521739130643
        },
        {
          "name": "G4",
          "midi": 67,
          "time": 7.369565217391346,
          "velocity": 0.3464566929133858,
          "duration": 0.130434782608698
        },
        {
          "name": "C7",
          "midi": 96,
          "time": 7.369565217391346,
          "velocity": 0.14173228346456693,
          "duration": 0.032608695652174724
        },
        {
          "name": "C6",
          "midi": 84,
          "time": 7.3913043478261296,
          "velocity": 0.15748031496062992,
          "duration": 0.032608695652174724
        },
        {
          "name": "G1",
          "midi": 31,
          "time": 7.402173913043521,
          "velocity": 0.4251968503937008,
          "duration": 0.02173913043478315
        },
        {
          "name": "F5",
          "midi": 77,
          "time": 7.402173913043521,
          "velocity": 0.1889763779527559,
          "duration": 0.07608695652174013
        },
        {
          "name": "D#6",
          "midi": 87,
          "time": 7.413043478260913,
          "velocity": 0.13385826771653545,
          "duration": 0.0434782608695663
        },
        {
          "name": "F#1",
          "midi": 30,
          "time": 7.423913043478304,
          "velocity": 0.4015748031496063,
          "duration": 0.054347826086956985
        },
        {
          "name": "D3",
          "midi": 50,
          "time": 7.423913043478304,
          "velocity": 0.14960629921259844,
          "duration": 0.054347826086956985
        },
        {
          "name": "D6",
          "midi": 86,
          "time": 7.434782608695696,
          "velocity": 0.25984251968503935,
          "duration": 0.11956521739130643
        },
        {
          "name": "C6",
          "midi": 84,
          "time": 7.445652173913087,
          "velocity": 0.25196850393700787,
          "duration": 0.054347826086956985
        },
        {
          "name": "G5",
          "midi": 79,
          "time": 7.456521739130479,
          "velocity": 0.3779527559055118,
          "duration": 0.18478260869565588
        },
        {
          "name": "G#6",
          "midi": 92,
          "time": 7.478260869565261,
          "velocity": 0.10236220472440945,
          "duration": 0.032608695652174724
        },
        {
          "name": "F5",
          "midi": 77,
          "time": 7.500000000000044,
          "velocity": 0.2283464566929134,
          "duration": 0.06521739130434945
        },
        {
          "name": "C#6",
          "midi": 85,
          "time": 7.500000000000044,
          "velocity": 0.30708661417322836,
          "duration": 0.0869565217391326
        },
        {
          "name": "D4",
          "midi": 62,
          "time": 7.510869565217436,
          "velocity": 0.36220472440944884,
          "duration": 0.1304347826086989
        },
        {
          "name": "E6",
          "midi": 88,
          "time": 7.510869565217436,
          "velocity": 0.14960629921259844,
          "duration": 0.032608695652174724
        },
        {
          "name": "G4",
          "midi": 67,
          "time": 7.521739130434828,
          "velocity": 0.30708661417322836,
          "duration": 0.11956521739130732
        },
        {
          "name": "G#6",
          "midi": 92,
          "time": 7.532608695652219,
          "velocity": 0.11811023622047244,
          "duration": 0.06521739130434945
        },
        {
          "name": "D3",
          "midi": 50,
          "time": 7.543478260869611,
          "velocity": 0.1732283464566929,
          "duration": 0.0869565217391326
        },
        {
          "name": "D#6",
          "midi": 87,
          "time": 7.543478260869611,
          "velocity": 0.14960629921259844,
          "duration": 0.0434782608695663
        },
        {
          "name": "G1",
          "midi": 31,
          "time": 7.554347826087002,
          "velocity": 0.4330708661417323,
          "duration": 0.02173913043478315
        },
        {
          "name": "C6",
          "midi": 84,
          "time": 7.554347826087002,
          "velocity": 0.2677165354330709,
          "duration": 0.02173913043478315
        },
        {
          "name": "B4",
          "midi": 71,
          "time": 7.565217391304394,
          "velocity": 0.1732283464566929,
          "duration": 0.05434782608695787
        },
        {
          "name": "F#1",
          "midi": 30,
          "time": 7.576086956521785,
          "velocity": 0.4094488188976378,
          "duration": 0.02173913043478315
        },
        {
          "name": "A5",
          "midi": 81,
          "time": 7.576086956521785,
          "velocity": 0.1732283464566929,
          "duration": 0.06521739130434945
        },
        {
          "name": "C#6",
          "midi": 85,
          "time": 7.597826086956569,
          "velocity": 0.23622047244094488,
          "duration": 0.06521739130434945
        },
        {
          "name": "F#1",
          "midi": 30,
          "time": 7.60869565217396,
          "velocity": 0.3228346456692913,
          "duration": 0.032608695652174724
        },
        {
          "name": "C6",
          "midi": 84,
          "time": 7.619565217391352,
          "velocity": 0.25196850393700787,
          "duration": 0.06521739130434945
        },
        {
          "name": "A#5",
          "midi": 82,
          "time": 7.630434782608743,
          "velocity": 0.18110236220472442,
          "duration": 0.1304347826086989
        },
        {
          "name": "C#7",
          "midi": 97,
          "time": 7.630434782608743,
          "velocity": 0.23622047244094488,
          "duration": 0.05434782608695787
        },
        {
          "name": "F#4",
          "midi": 66,
          "time": 7.641304347826135,
          "velocity": 0.4015748031496063,
          "duration": 0.0434782608695663
        },
        {
          "name": "F5",
          "midi": 77,
          "time": 7.641304347826135,
          "velocity": 0.14960629921259844,
          "duration": 0.032608695652174724
        },
        {
          "name": "D#7",
          "midi": 99,
          "time": 7.641304347826135,
          "velocity": 0.14173228346456693,
          "duration": 0.06521739130434945
        },
        {
          "name": "F7",
          "midi": 101,
          "time": 7.641304347826135,
          "velocity": 0.2755905511811024,
          "duration": 0.1304347826086989
        },
        {
          "name": "F#7",
          "midi": 102,
          "time": 7.641304347826135,
          "velocity": 0.13385826771653545,
          "duration": 0.05434782608695787
        },
        {
          "name": "E6",
          "midi": 88,
          "time": 7.6521739130435265,
          "velocity": 0.15748031496062992,
          "duration": 0.032608695652174724
        },
        {
          "name": "A6",
          "midi": 93,
          "time": 7.6521739130435265,
          "velocity": 0.16535433070866143,
          "duration": 0.05434782608695787
        },
        {
          "name": "E7",
          "midi": 100,
          "time": 7.6521739130435265,
          "velocity": 0.2992125984251969,
          "duration": 0.5217391304347814
        },
        {
          "name": "D4",
          "midi": 62,
          "time": 7.67391304347831,
          "velocity": 0.1732283464566929,
          "duration": 0.05434782608695787
        },
        {
          "name": "G5",
          "midi": 79,
          "time": 7.67391304347831,
          "velocity": 0.10236220472440945,
          "duration": 0.0434782608695663
        },
        {
          "name": "D#6",
          "midi": 87,
          "time": 7.684782608695701,
          "velocity": 0.07086614173228346,
          "duration": 0.06521739130434945
        },
        {
          "name": "G#1",
          "midi": 32,
          "time": 7.695652173913093,
          "velocity": 0.44881889763779526,
          "duration": 0.02173913043478315
        },
        {
          "name": "C5",
          "midi": 72,
          "time": 7.695652173913093,
          "velocity": 0.14960629921259844,
          "duration": 0.0434782608695663
        },
        {
          "name": "F#1",
          "midi": 30,
          "time": 7.7282608695652675,
          "velocity": 0.41732283464566927,
          "duration": 0.02173913043478315
        },
        {
          "name": "C#6",
          "midi": 85,
          "time": 7.7282608695652675,
          "velocity": 0.3779527559055118,
          "duration": 0.15217391304348116
        },
        {
          "name": "C#5",
          "midi": 73,
          "time": 7.739130434782659,
          "velocity": 0.1968503937007874,
          "duration": 0.0434782608695663
        },
        {
          "name": "F#1",
          "midi": 30,
          "time": 7.760869565217442,
          "velocity": 0.3464566929133858,
          "duration": 0.032608695652174724
        },
        {
          "name": "G4",
          "midi": 67,
          "time": 7.793478260869617,
          "velocity": 0.3700787401574803,
          "duration": 0.032608695652173836
        },
        {
          "name": "F#5",
          "midi": 78,
          "time": 7.793478260869617,
          "velocity": 0.2677165354330709,
          "duration": 0.09782608695652328
        },
        {
          "name": "G#5",
          "midi": 80,
          "time": 7.793478260869617,
          "velocity": 0.2047244094488189,
          "duration": 0.032608695652173836
        },
        {
          "name": "C7",
          "midi": 96,
          "time": 7.793478260869617,
          "velocity": 0.12598425196850394,
          "duration": 0.08695652173913171
        },
        {
          "name": "D7",
          "midi": 98,
          "time": 7.793478260869617,
          "velocity": 0.1732283464566929,
          "duration": 0.20652173913043814
        },
        {
          "name": "D#7",
          "midi": 99,
          "time": 7.793478260869617,
          "velocity": 0.2125984251968504,
          "duration": 0.130434782608698
        },
        {
          "name": "F7",
          "midi": 101,
          "time": 7.793478260869617,
          "velocity": 0.11811023622047244,
          "duration": 0.04347826086956541
        },
        {
          "name": "G7",
          "midi": 103,
          "time": 7.793478260869617,
          "velocity": 0.09448818897637795,
          "duration": 0.04347826086956541
        },
        {
          "name": "A5",
          "midi": 81,
          "time": 7.8043478260870085,
          "velocity": 0.25196850393700787,
          "duration": 0.06521739130434856
        },
        {
          "name": "A6",
          "midi": 93,
          "time": 7.8043478260870085,
          "velocity": 0.25196850393700787,
          "duration": 0.22826086956521863
        },
        {
          "name": "B6",
          "midi": 95,
          "time": 7.8043478260870085,
          "velocity": 0.09448818897637795,
          "duration": 0.04347826086956541
        },
        {
          "name": "G#6",
          "midi": 92,
          "time": 7.826086956521791,
          "velocity": 0.16535433070866143,
          "duration": 0.0434782608695663
        },
        {
          "name": "D4",
          "midi": 62,
          "time": 7.836956521739182,
          "velocity": 0.11023622047244094,
          "duration": 0.032608695652174724
        },
        {
          "name": "A#5",
          "midi": 82,
          "time": 7.836956521739182,
          "velocity": 0.2283464566929134,
          "duration": 0.05434782608695787
        },
        {
          "name": "C6",
          "midi": 84,
          "time": 7.836956521739182,
          "velocity": 0.14960629921259844,
          "duration": 0.05434782608695787
        },
        {
          "name": "G1",
          "midi": 31,
          "time": 7.8586956521739655,
          "velocity": 0.4409448818897638,
          "duration": 0.032608695652174724
        },
        {
          "name": "G4",
          "midi": 67,
          "time": 7.8586956521739655,
          "velocity": 0.33070866141732286,
          "duration": 0.0434782608695663
        },
        {
          "name": "F7",
          "midi": 101,
          "time": 7.8586956521739655,
          "velocity": 0.2125984251968504,
          "duration": 0.22826086956521507
        },
        {
          "name": "D#5",
          "midi": 75,
          "time": 7.869565217391357,
          "velocity": 0.12598425196850394,
          "duration": 0.07608695652174102
        },
        {
          "name": "A#6",
          "midi": 94,
          "time": 7.869565217391357,
          "velocity": 0.2677165354330709,
          "duration": 0.07608695652174102
        },
        {
          "name": "A5",
          "midi": 81,
          "time": 7.880434782608749,
          "velocity": 0.33070866141732286,
          "duration": 0.19565217391304124
        },
        {
          "name": "F#1",
          "midi": 30,
          "time": 7.89130434782614,
          "velocity": 0.3937007874015748,
          "duration": 0.05434782608695787
        },
        {
          "name": "C#5",
          "midi": 73,
          "time": 7.89130434782614,
          "velocity": 0.1968503937007874,
          "duration": 0.032608695652174724
        },
        {
          "name": "F#7",
          "midi": 102,
          "time": 7.89130434782614,
          "velocity": 0.11023622047244094,
          "duration": 0.032608695652174724
        },
        {
          "name": "G#3",
          "midi": 56,
          "time": 7.902173913043532,
          "velocity": 0.2755905511811024,
          "duration": 0.032608695652174724
        },
        {
          "name": "A#5",
          "midi": 82,
          "time": 7.902173913043532,
          "velocity": 0.2047244094488189,
          "duration": 0.0434782608695663
        },
        {
          "name": "C7",
          "midi": 96,
          "time": 7.902173913043532,
          "velocity": 0.14173228346456693,
          "duration": 0.07608695652174102
        },
        {
          "name": "G4",
          "midi": 67,
          "time": 7.913043478260923,
          "velocity": 0.29133858267716534,
          "duration": 0.02173913043478315
        },
        {
          "name": "C#7",
          "midi": 97,
          "time": 7.913043478260923,
          "velocity": 0.28346456692913385,
          "duration": 0.23913043478260132
        },
        {
          "name": "A4",
          "midi": 69,
          "time": 7.923913043478315,
          "velocity": 0.2755905511811024,
          "duration": 0.032608695652174724
        },
        {
          "name": "C#4",
          "midi": 61,
          "time": 7.9347826086957065,
          "velocity": 0.1732283464566929,
          "duration": 0.032608695652174724
        },
        {
          "name": "G4",
          "midi": 67,
          "time": 7.945652173913098,
          "velocity": 0.28346456692913385,
          "duration": 0.032608695652174724
        },
        {
          "name": "E5",
          "midi": 76,
          "time": 7.945652173913098,
          "velocity": 0.16535433070866143,
          "duration": 0.032608695652174724
        },
        {
          "name": "C6",
          "midi": 84,
          "time": 7.945652173913098,
          "velocity": 0.2283464566929134,
          "duration": 0.14130434782608248
        },
        {
          "name": "E6",
          "midi": 88,
          "time": 7.945652173913098,
          "velocity": 0.2992125984251969,
          "duration": 0.1956521739130359
        },
        {
          "name": "G#6",
          "midi": 92,
          "time": 7.945652173913098,
          "velocity": 0.18110236220472442,
          "duration": 0.054347826086956985
        },
        {
          "name": "B6",
          "midi": 95,
          "time": 7.945652173913098,
          "velocity": 0.18110236220472442,
          "duration": 0.07608695652173836
        },
        {
          "name": "D#7",
          "midi": 99,
          "time": 7.945652173913098,
          "velocity": 0.16535433070866143,
          "duration": 0.1304347826086918
        },
        {
          "name": "F#7",
          "midi": 102,
          "time": 7.945652173913098,
          "velocity": 0.2125984251968504,
          "duration": 0.054347826086956985
        },
        {
          "name": "F#5",
          "midi": 78,
          "time": 7.95652173913049,
          "velocity": 0.29133858267716534,
          "duration": 0.1413043478260816
        },
        {
          "name": "C#6",
          "midi": 85,
          "time": 7.967391304347881,
          "velocity": 0.23622047244094488,
          "duration": 0.02173913043478315
        },
        {
          "name": "D#6",
          "midi": 87,
          "time": 7.967391304347881,
          "velocity": 0.1732283464566929,
          "duration": 0.04347826086956452
        },
        {
          "name": "D#4",
          "midi": 63,
          "time": 7.978260869565273,
          "velocity": 0.14173228346456693,
          "duration": 0.03260869565217295
        },
        {
          "name": "D6",
          "midi": 86,
          "time": 7.989130434782664,
          "velocity": 0.25984251968503935,
          "duration": 0.11956521739129755
        },
        {
          "name": "G#1",
          "midi": 32,
          "time": 8.000000000000055,
          "velocity": 0.44881889763779526,
          "duration": 0.021739130434781373
        },
        {
          "name": "F#4",
          "midi": 66,
          "time": 8.010869565217446,
          "velocity": 0.2440944881889764,
          "duration": 0.021739130434781373
        },
        {
          "name": "G#6",
          "midi": 92,
          "time": 8.010869565217446,
          "velocity": 0.25984251968503935,
          "duration": 0.03260869565217206
        },
        {
          "name": "G#3",
          "midi": 56,
          "time": 8.021739130434836,
          "velocity": 0.15748031496062992,
          "duration": 0.03260869565217206
        },
        {
          "name": "G7",
          "midi": 103,
          "time": 8.021739130434836,
          "velocity": 0.16535433070866143,
          "duration": 0.08695652173912549
        },
        {
          "name": "F#1",
          "midi": 30,
          "time": 8.032608695652227,
          "velocity": 0.41732283464566927,
          "duration": 0.021739130434781373
        },
        {
          "name": "D3",
          "midi": 50,
          "time": 8.043478260869618,
          "velocity": 0.15748031496062992,
          "duration": 0.043478260869562746
        },
        {
          "name": "G4",
          "midi": 67,
          "time": 8.043478260869618,
          "velocity": 0.16535433070866143,
          "duration": 0.043478260869562746
        },
        {
          "name": "B4",
          "midi": 71,
          "time": 8.043478260869618,
          "velocity": 0.2755905511811024,
          "duration": 0.05434782608695343
        },
        {
          "name": "D5",
          "midi": 74,
          "time": 8.043478260869618,
          "velocity": 0.28346456692913385,
          "duration": 0.16304347826086207
        },
        {
          "name": "A#6",
          "midi": 94,
          "time": 8.043478260869618,
          "velocity": 0.14960629921259844,
          "duration": 0.043478260869562746
        },
        {
          "name": "G#6",
          "midi": 92,
          "time": 8.054347826087008,
          "velocity": 0.2204724409448819,
          "duration": 0.03260869565217206
        },
        {
          "name": "F#1",
          "midi": 30,
          "time": 8.0652173913044,
          "velocity": 0.3543307086614173,
          "duration": 0.03260869565217206
        },
        {
          "name": "D4",
          "midi": 62,
          "time": 8.07608695652179,
          "velocity": 0.2755905511811024,
          "duration": 0.18478260869564345
        },
        {
          "name": "C7",
          "midi": 96,
          "time": 8.08695652173918,
          "velocity": 0.14173228346456693,
          "duration": 0.11956521739129933
        },
        {
          "name": "G#3",
          "midi": 56,
          "time": 8.097826086956571,
          "velocity": 0.3464566929133858,
          "duration": 0.021739130434781373
        },
        {
          "name": "F5",
          "midi": 77,
          "time": 8.097826086956571,
          "velocity": 0.18110236220472442,
          "duration": 0.03260869565217206
        },
        {
          "name": "B4",
          "midi": 71,
          "time": 8.108695652173962,
          "velocity": 0.16535433070866143,
          "duration": 0.0652173913043459
        },
        {
          "name": "G5",
          "midi": 79,
          "time": 8.108695652173962,
          "velocity": 0.3543307086614173,
          "duration": 0.1413043478260807
        },
        {
          "name": "A#5",
          "midi": 82,
          "time": 8.108695652173962,
          "velocity": 0.25196850393700787,
          "duration": 0.0652173913043459
        },
        {
          "name": "G#6",
          "midi": 92,
          "time": 8.108695652173962,
          "velocity": 0.2125984251968504,
          "duration": 0.043478260869562746
        },
        {
          "name": "D7",
          "midi": 98,
          "time": 8.108695652173962,
          "velocity": 0.2204724409448819,
          "duration": 0.19565217391303413
        },
        {
          "name": "D#7",
          "midi": 99,
          "time": 8.108695652173962,
          "velocity": 0.2125984251968504,
          "duration": 0.07608695652173658
        },
        {
          "name": "E5",
          "midi": 76,
          "time": 8.130434782608743,
          "velocity": 0.23622047244094488,
          "duration": 0.0652173913043459
        },
        {
          "name": "C6",
          "midi": 84,
          "time": 8.130434782608743,
          "velocity": 0.1889763779527559,
          "duration": 0.04347826086956452
        },
        {
          "name": "B6",
          "midi": 95,
          "time": 8.141304347826134,
          "velocity": 0.1732283464566929,
          "duration": 0.05434782608695521
        },
        {
          "name": "D3",
          "midi": 50,
          "time": 8.173913043478308,
          "velocity": 0.15748031496062992,
          "duration": 0.03260869565217206
        },
        {
          "name": "F#1",
          "midi": 30,
          "time": 8.184782608695699,
          "velocity": 0.4251968503937008,
          "duration": 0.021739130434781373
        },
        {
          "name": "G#4",
          "midi": 68,
          "time": 8.184782608695699,
          "velocity": 0.25984251968503935,
          "duration": 0.021739130434781373
        },
        {
          "name": "C#7",
          "midi": 97,
          "time": 8.19565217391309,
          "velocity": 0.14960629921259844,
          "duration": 0.13043478260868824
        },
        {
          "name": "F#7",
          "midi": 102,
          "time": 8.19565217391309,
          "velocity": 0.12598425196850394,
          "duration": 0.10869565217390686
        },
        {
          "name": "F1",
          "midi": 29,
          "time": 8.20652173913048,
          "velocity": 0.3937007874015748,
          "duration": 0.021739130434781373
        },
        {
          "name": "G4",
          "midi": 67,
          "time": 8.20652173913048,
          "velocity": 0.3858267716535433,
          "duration": 0.05434782608695343
        },
        {
          "name": "B4",
          "midi": 71,
          "time": 8.21739130434787,
          "velocity": 0.15748031496062992,
          "duration": 0.043478260869562746
        },
        {
          "name": "A#5",
          "midi": 82,
          "time": 8.228260869565261,
          "velocity": 0.18110236220472442,
          "duration": 0.14130434782607892
        },
        {
          "name": "F#5",
          "midi": 78,
          "time": 8.239130434782652,
          "velocity": 0.14960629921259844,
          "duration": 0.043478260869562746
        },
        {
          "name": "C#6",
          "midi": 85,
          "time": 8.239130434782652,
          "velocity": 0.2204724409448819,
          "duration": 0.043478260869562746
        },
        {
          "name": "B6",
          "midi": 95,
          "time": 8.239130434782652,
          "velocity": 0.18110236220472442,
          "duration": 0.0760869565217348
        },
        {
          "name": "A#3",
          "midi": 58,
          "time": 8.250000000000043,
          "velocity": 0.2440944881889764,
          "duration": 0.021739130434781373
        },
        {
          "name": "E5",
          "midi": 76,
          "time": 8.250000000000043,
          "velocity": 0.1889763779527559,
          "duration": 0.043478260869562746
        },
        {
          "name": "F6",
          "midi": 89,
          "time": 8.250000000000043,
          "velocity": 0.2125984251968504,
          "duration": 0.0760869565217348
        },
        {
          "name": "F4",
          "midi": 65,
          "time": 8.260869565217433,
          "velocity": 0.4094488188976378,
          "duration": 0.03260869565217206
        },
        {
          "name": "A4",
          "midi": 69,
          "time": 8.260869565217433,
          "velocity": 0.25196850393700787,
          "duration": 0.03260869565217206
        },
        {
          "name": "C6",
          "midi": 84,
          "time": 8.260869565217433,
          "velocity": 0.2204724409448819,
          "duration": 0.043478260869562746
        },
        {
          "name": "G6",
          "midi": 91,
          "time": 8.260869565217433,
          "velocity": 0.2204724409448819,
          "duration": 0.05434782608695343
        },
        {
          "name": "D#7",
          "midi": 99,
          "time": 8.260869565217433,
          "velocity": 0.16535433070866143,
          "duration": 0.05434782608695343
        },
        {
          "name": "E7",
          "midi": 100,
          "time": 8.260869565217433,
          "velocity": 0.2204724409448819,
          "duration": 0.043478260869562746
        },
        {
          "name": "F7",
          "midi": 101,
          "time": 8.260869565217433,
          "velocity": 0.23622047244094488,
          "duration": 0.08695652173912549
        },
        {
          "name": "B3",
          "midi": 59,
          "time": 8.271739130434824,
          "velocity": 0.12598425196850394,
          "duration": 0.03260869565217206
        },
        {
          "name": "E6",
          "midi": 88,
          "time": 8.271739130434824,
          "velocity": 0.2125984251968504,
          "duration": 0.03260869565217206
        },
        {
          "name": "D4",
          "midi": 62,
          "time": 8.282608695652215,
          "velocity": 0.1732283464566929,
          "duration": 0.05434782608695343
        },
        {
          "name": "G5",
          "midi": 79,
          "time": 8.282608695652215,
          "velocity": 0.07874015748031496,
          "duration": 0.03260869565217206
        },
        {
          "name": "F#4",
          "midi": 66,
          "time": 8.293478260869605,
          "velocity": 0.2283464566929134,
          "duration": 0.043478260869562746
        },
        {
          "name": "G1",
          "midi": 31,
          "time": 8.326086956521777,
          "velocity": 0.44881889763779526,
          "duration": 0.021739130434781373
        },
        {
          "name": "A#3",
          "midi": 58,
          "time": 8.326086956521777,
          "velocity": 0.25984251968503935,
          "duration": 0.03260869565217206
        },
        {
          "name": "A4",
          "midi": 69,
          "time": 8.326086956521777,
          "velocity": 0.3228346456692913,
          "duration": 0.021739130434781373
        },
        {
          "name": "D#6",
          "midi": 87,
          "time": 8.326086956521777,
          "velocity": 0.2125984251968504,
          "duration": 0.0760869565217348
        },
        {
          "name": "B6",
          "midi": 95,
          "time": 8.326086956521777,
          "velocity": 0.11023622047244094,
          "duration": 0.03260869565217206
        },
        {
          "name": "G5",
          "midi": 79,
          "time": 8.336956521739168,
          "velocity": 0.1968503937007874,
          "duration": 0.08695652173912549
        },
        {
          "name": "D#5",
          "midi": 75,
          "time": 8.35869565217395,
          "velocity": 0.13385826771653545,
          "duration": 0.05434782608695343
        },
        {
          "name": "F#1",
          "midi": 30,
          "time": 8.36956521739134,
          "velocity": 0.3700787401574803,
          "duration": 0.03260869565217206
        },
        {
          "name": "F7",
          "midi": 101,
          "time": 8.38043478260873,
          "velocity": 0.2283464566929134,
          "duration": 0.08695652173912549
        },
        {
          "name": "A#4",
          "midi": 70,
          "time": 8.391304347826122,
          "velocity": 0.29133858267716534,
          "duration": 0.043478260869562746
        },
        {
          "name": "C#3",
          "midi": 49,
          "time": 8.402173913043512,
          "velocity": 0.41732283464566927,
          "duration": 0.021739130434781373
        },
        {
          "name": "C#6",
          "midi": 85,
          "time": 8.402173913043512,
          "velocity": 0.2440944881889764,
          "duration": 0.021739130434781373
        },
        {
          "name": "D6",
          "midi": 86,
          "time": 8.402173913043512,
          "velocity": 0.1968503937007874,
          "duration": 0.0760869565217348
        },
        {
          "name": "A6",
          "midi": 93,
          "time": 8.402173913043512,
          "velocity": 0.10236220472440945,
          "duration": 0.03260869565217206
        },
        {
          "name": "A#6",
          "midi": 94,
          "time": 8.402173913043512,
          "velocity": 0.2440944881889764,
          "duration": 0.13043478260868824
        },
        {
          "name": "B6",
          "midi": 95,
          "time": 8.402173913043512,
          "velocity": 0.14173228346456693,
          "duration": 0.03260869565217206
        },
        {
          "name": "D5",
          "midi": 74,
          "time": 8.413043478260903,
          "velocity": 0.10236220472440945,
          "duration": 0.03260869565217206
        },
        {
          "name": "E5",
          "midi": 76,
          "time": 8.413043478260903,
          "velocity": 0.1968503937007874,
          "duration": 0.043478260869562746
        },
        {
          "name": "A5",
          "midi": 81,
          "time": 8.413043478260903,
          "velocity": 0.28346456692913385,
          "duration": 0.18478260869564167
        },
        {
          "name": "C6",
          "midi": 84,
          "time": 8.413043478260903,
          "velocity": 0.2992125984251969,
          "duration": 0.14130434782607892
        },
        {
          "name": "F6",
          "midi": 89,
          "time": 8.413043478260903,
          "velocity": 0.1968503937007874,
          "duration": 0.08695652173912549
        },
        {
          "name": "F#6",
          "midi": 90,
          "time": 8.413043478260903,
          "velocity": 0.1968503937007874,
          "duration": 0.09782608695651618
        },
        {
          "name": "G6",
          "midi": 91,
          "time": 8.413043478260903,
          "velocity": 0.25196850393700787,
          "duration": 0.0760869565217348
        },
        {
          "name": "C7",
          "midi": 96,
          "time": 8.413043478260903,
          "velocity": 0.2992125984251969,
          "duration": 0.10869565217390686
        },
        {
          "name": "E7",
          "midi": 100,
          "time": 8.413043478260903,
          "velocity": 0.2440944881889764,
          "duration": 0.2499999999999858
        },
        {
          "name": "D#6",
          "midi": 87,
          "time": 8.423913043478294,
          "velocity": 0.1889763779527559,
          "duration": 0.03260869565217206
        },
        {
          "name": "D#7",
          "midi": 99,
          "time": 8.423913043478294,
          "velocity": 0.2204724409448819,
          "duration": 0.10869565217390686
        },
        {
          "name": "A#5",
          "midi": 82,
          "time": 8.434782608695684,
          "velocity": 0.1889763779527559,
          "duration": 0.03260869565217206
        },
        {
          "name": "D4",
          "midi": 62,
          "time": 8.445652173913075,
          "velocity": 0.11811023622047244,
          "duration": 0.03260869565217206
        },
        {
          "name": "F#5",
          "midi": 78,
          "time": 8.445652173913075,
          "velocity": 0.11811023622047244,
          "duration": 0.03260869565217206
        },
        {
          "name": "E6",
          "midi": 88,
          "time": 8.445652173913075,
          "velocity": 0.3700787401574803,
          "duration": 0.13043478260868824
        },
        {
          "name": "D#5",
          "midi": 75,
          "time": 8.456521739130466,
          "velocity": 0.2440944881889764,
          "duration": 0.03260869565217206
        },
        {
          "name": "A#4",
          "midi": 70,
          "time": 8.467391304347856,
          "velocity": 0.29133858267716534,
          "duration": 0.043478260869562746
        },
        {
          "name": "G1",
          "midi": 31,
          "time": 8.478260869565247,
          "velocity": 0.44881889763779526,
          "duration": 0.021739130434781373
        },
        {
          "name": "G5",
          "midi": 79,
          "time": 8.478260869565247,
          "velocity": 0.11023622047244094,
          "duration": 0.06521739130434412
        },
        {
          "name": "G#6",
          "midi": 92,
          "time": 8.489130434782638,
          "velocity": 0.16535433070866143,
          "duration": 0.03260869565217206
        },
        {
          "name": "F1",
          "midi": 29,
          "time": 8.510869565217419,
          "velocity": 0.4015748031496063,
          "duration": 0.021739130434781373
        },
        {
          "name": "B6",
          "midi": 95,
          "time": 8.52173913043481,
          "velocity": 0.2125984251968504,
          "duration": 0.0760869565217348
        },
        {
          "name": "E5",
          "midi": 76,
          "time": 8.543478260869591,
          "velocity": 0.12598425196850394,
          "duration": 0.03260869565217206
        },
        {
          "name": "A#4",
          "midi": 70,
          "time": 8.554347826086982,
          "velocity": 0.25984251968503935,
          "duration": 0.03260869565217206
        },
        {
          "name": "B5",
          "midi": 83,
          "time": 8.554347826086982,
          "velocity": 0.1968503937007874,
          "duration": 0.03260869565217206
        },
        {
          "name": "C#6",
          "midi": 85,
          "time": 8.554347826086982,
          "velocity": 0.23622047244094488,
          "duration": 0.03260869565217206
        },
        {
          "name": "D6",
          "midi": 86,
          "time": 8.554347826086982,
          "velocity": 0.2125984251968504,
          "duration": 0.05434782608695343
        },
        {
          "name": "C7",
          "midi": 96,
          "time": 8.554347826086982,
          "velocity": 0.14173228346456693,
          "duration": 0.03260869565217206
        },
        {
          "name": "F6",
          "midi": 89,
          "time": 8.565217391304373,
          "velocity": 0.2125984251968504,
          "duration": 0.08695652173912549
        },
        {
          "name": "G#6",
          "midi": 92,
          "time": 8.565217391304373,
          "velocity": 0.1889763779527559,
          "duration": 0.05434782608695343
        },
        {
          "name": "C6",
          "midi": 84,
          "time": 8.576086956521763,
          "velocity": 0.16535433070866143,
          "duration": 0.043478260869562746
        },
        {
          "name": "F#7",
          "midi": 102,
          "time": 8.576086956521763,
          "velocity": 0.14173228346456693,
          "duration": 0.03260869565217206
        },
        {
          "name": "C#4",
          "midi": 61,
          "time": 8.586956521739154,
          "velocity": 0.2283464566929134,
          "duration": 0.021739130434781373
        },
        {
          "name": "G5",
          "midi": 79,
          "time": 8.597826086956545,
          "velocity": 0.15748031496062992,
          "duration": 0.03260869565217206
        },
        {
          "name": "A#6",
          "midi": 94,
          "time": 8.597826086956545,
          "velocity": 0.12598425196850394,
          "duration": 0.043478260869562746
        },
        {
          "name": "G4",
          "midi": 67,
          "time": 8.608695652173935,
          "velocity": 0.2283464566929134,
          "duration": 0.05434782608695343
        },
        {
          "name": "B6",
          "midi": 95,
          "time": 8.608695652173935,
          "velocity": 0.11811023622047244,
          "duration": 0.03260869565217206
        },
        {
          "name": "C#6",
          "midi": 85,
          "time": 8.619565217391326,
          "velocity": 0.11023622047244094,
          "duration": 0.05434782608695343
        },
        {
          "name": "C5",
          "midi": 72,
          "time": 8.641304347826107,
          "velocity": 0.2047244094488189,
          "duration": 0.03260869565217206
        },
        {
          "name": "E5",
          "midi": 76,
          "time": 8.641304347826107,
          "velocity": 0.14960629921259844,
          "duration": 0.043478260869562746
        },
        {
          "name": "D#7",
          "midi": 99,
          "time": 8.641304347826107,
          "velocity": 0.09448818897637795,
          "duration": 0.03260869565217206
        },
        {
          "name": "C7",
          "midi": 96,
          "time": 8.652173913043498,
          "velocity": 0.09448818897637795,
          "duration": 0.03260869565217206
        },
        {
          "name": "A#4",
          "midi": 70,
          "time": 8.67391304347828,
          "velocity": 0.29133858267716534,
          "duration": 0.021739130434781373
        },
        {
          "name": "D5",
          "midi": 74,
          "time": 8.67391304347828,
          "velocity": 0.2283464566929134,
          "duration": 0.03260869565217206
        },
        {
          "name": "F6",
          "midi": 89,
          "time": 8.67391304347828,
          "velocity": 0.14173228346456693,
          "duration": 0.043478260869562746
        },
        {
          "name": "C#7",
          "midi": 97,
          "time": 8.67391304347828,
          "velocity": 0.18110236220472442,
          "duration": 0.0760869565217348
        },
        {
          "name": "G#6",
          "midi": 92,
          "time": 8.68478260869567,
          "velocity": 0.08661417322834646,
          "duration": 0.03260869565217206
        },
        {
          "name": "G4",
          "midi": 67,
          "time": 8.69565217391306,
          "velocity": 0.1968503937007874,
          "duration": 0.03260869565217206
        },
        {
          "name": "B4",
          "midi": 71,
          "time": 8.69565217391306,
          "velocity": 0.28346456692913385,
          "duration": 0.043478260869562746
        },
        {
          "name": "E6",
          "midi": 88,
          "time": 8.706521739130451,
          "velocity": 0.31496062992125984,
          "duration": 0.043478260869562746
        },
        {
          "name": "C6",
          "midi": 84,
          "time": 8.717391304347842,
          "velocity": 0.13385826771653545,
          "duration": 0.05434782608695343
        },
        {
          "name": "A#6",
          "midi": 94,
          "time": 8.717391304347842,
          "velocity": 0.1889763779527559,
          "duration": 0.13043478260868824
        },
        {
          "name": "B6",
          "midi": 95,
          "time": 8.717391304347842,
          "velocity": 0.23622047244094488,
          "duration": 0.09782608695651618
        },
        {
          "name": "F#7",
          "midi": 102,
          "time": 8.717391304347842,
          "velocity": 0.14960629921259844,
          "duration": 0.11956521739129755
        },
        {
          "name": "C4",
          "midi": 60,
          "time": 8.728260869565233,
          "velocity": 0.25984251968503935,
          "duration": 0.043478260869562746
        },
        {
          "name": "G5",
          "midi": 79,
          "time": 8.728260869565233,
          "velocity": 0.25196850393700787,
          "duration": 0.0760869565217348
        },
        {
          "name": "D7",
          "midi": 98,
          "time": 8.728260869565233,
          "velocity": 0.2755905511811024,
          "duration": 0.19565217391303236
        },
        {
          "name": "F7",
          "midi": 101,
          "time": 8.728260869565233,
          "velocity": 0.2677165354330709,
          "duration": 0.26086956521737825
        },
        {
          "name": "A#4",
          "midi": 70,
          "time": 8.739130434782624,
          "velocity": 0.2440944881889764,
          "duration": 0.021739130434781373
        },
        {
          "name": "F6",
          "midi": 89,
          "time": 8.750000000000014,
          "velocity": 0.30708661417322836,
          "duration": 0.03260869565217206
        },
        {
          "name": "G#1",
          "midi": 32,
          "time": 8.760869565217405,
          "velocity": 0.47244094488188976,
          "duration": 0.03260869565217206
        },
        {
          "name": "E6",
          "midi": 88,
          "time": 8.760869565217405,
          "velocity": 0.31496062992125984,
          "duration": 0.0760869565217348
        },
        {
          "name": "A6",
          "midi": 93,
          "time": 8.760869565217405,
          "velocity": 0.23622047244094488,
          "duration": 0.18478260869564167
        },
        {
          "name": "C#7",
          "midi": 97,
          "time": 8.760869565217405,
          "velocity": 0.2125984251968504,
          "duration": 0.17391304347825098
        },
        {
          "name": "G#6",
          "midi": 92,
          "time": 8.771739130434796,
          "velocity": 0.11023622047244094,
          "duration": 0.043478260869562746
        },
        {
          "name": "C4",
          "midi": 60,
          "time": 8.782608695652186,
          "velocity": 0.2992125984251969,
          "duration": 0.021739130434781373
        },
        {
          "name": "B4",
          "midi": 71,
          "time": 8.782608695652186,
          "velocity": 0.25984251968503935,
          "duration": 0.043478260869562746
        },
        {
          "name": "G#5",
          "midi": 80,
          "time": 8.793478260869577,
          "velocity": 0.2047244094488189,
          "duration": 0.0760869565217348
        },
        {
          "name": "A#5",
          "midi": 82,
          "time": 8.793478260869577,
          "velocity": 0.2440944881889764,
          "duration": 0.06521739130434412
        },
        {
          "name": "D6",
          "midi": 86,
          "time": 8.793478260869577,
          "velocity": 0.11023622047244094,
          "duration": 0.06521739130434412
        },
        {
          "name": "F5",
          "midi": 77,
          "time": 8.804347826086968,
          "velocity": 0.25984251968503935,
          "duration": 0.0760869565217348
        },
        {
          "name": "G6",
          "midi": 91,
          "time": 8.804347826086968,
          "velocity": 0.11023622047244094,
          "duration": 0.043478260869562746
        },
        {
          "name": "C#4",
          "midi": 61,
          "time": 8.815217391304358,
          "velocity": 0.2677165354330709,
          "duration": 0.021739130434781373
        },
        {
          "name": "G4",
          "midi": 67,
          "time": 8.815217391304358,
          "velocity": 0.25984251968503935,
          "duration": 0.043478260869562746
        },
        {
          "name": "D#6",
          "midi": 87,
          "time": 8.815217391304358,
          "velocity": 0.07086614173228346,
          "duration": 0.05434782608695343
        },
        {
          "name": "F#6",
          "midi": 90,
          "time": 8.815217391304358,
          "velocity": 0.1732283464566929,
          "duration": 0.09782608695651618
        },
        {
          "name": "C7",
          "midi": 96,
          "time": 8.815217391304358,
          "velocity": 0.2283464566929134,
          "duration": 0.11956521739129755
        },
        {
          "name": "C5",
          "midi": 72,
          "time": 8.826086956521749,
          "velocity": 0.2440944881889764,
          "duration": 0.021739130434781373
        },
        {
          "name": "D5",
          "midi": 74,
          "time": 8.826086956521749,
          "velocity": 0.1889763779527559,
          "duration": 0.043478260869562746
        },
        {
          "name": "G#1",
          "midi": 32,
          "time": 8.83695652173914,
          "velocity": 0.49606299212598426,
          "duration": 0.03260869565217206
        },
        {
          "name": "G7",
          "midi": 103,
          "time": 8.83695652173914,
          "velocity": 0.14960629921259844,
          "duration": 0.06521739130434412
        },
        {
          "name": "F#4",
          "midi": 66,
          "time": 8.858695652173921,
          "velocity": 0.4251968503937008,
          "duration": 0.0760869565217348
        },
        {
          "name": "C#6",
          "midi": 85,
          "time": 8.858695652173921,
          "velocity": 0.2283464566929134,
          "duration": 0.05434782608695343
        },
        {
          "name": "G5",
          "midi": 79,
          "time": 8.869565217391312,
          "velocity": 0.14960629921259844,
          "duration": 0.043478260869562746
        },
        {
          "name": "A#5",
          "midi": 82,
          "time": 8.869565217391312,
          "velocity": 0.25196850393700787,
          "duration": 0.13043478260869001
        },
        {
          "name": "C6",
          "midi": 84,
          "time": 8.869565217391312,
          "velocity": 0.14960629921259844,
          "duration": 0.043478260869562746
        },
        {
          "name": "G6",
          "midi": 91,
          "time": 8.869565217391312,
          "velocity": 0.2755905511811024,
          "duration": 0.05434782608695343
        },
        {
          "name": "D6",
          "midi": 86,
          "time": 8.880434782608702,
          "velocity": 0.2204724409448819,
          "duration": 0.05434782608695343
        },
        {
          "name": "G#5",
          "midi": 80,
          "time": 8.891304347826093,
          "velocity": 0.07874015748031496,
          "duration": 0.03260869565217206
        },
        {
          "name": "F5",
          "midi": 77,
          "time": 8.913043478260875,
          "velocity": 0.15748031496062992,
          "duration": 0.03260869565217206
        },
        {
          "name": "G1",
          "midi": 31,
          "time": 8.923913043478265,
          "velocity": 0.48031496062992124,
          "duration": 0.021739130434781373
        },
        {
          "name": "D4",
          "midi": 62,
          "time": 8.934782608695656,
          "velocity": 0.2440944881889764,
          "duration": 0.032608695652173836
        },
        {
          "name": "C5",
          "midi": 72,
          "time": 8.934782608695656,
          "velocity": 0.29133858267716534,
          "duration": 0.0652173913043459
        },
        {
          "name": "D6",
          "midi": 86,
          "time": 8.97826086956522,
          "velocity": 0.08661417322834646,
          "duration": 0.03260869565217206
        },
        {
          "name": "G6",
          "midi": 91,
          "time": 8.989130434782611,
          "velocity": 0.1732283464566929,
          "duration": 0.0760869565217348
        },
        {
          "name": "C#5",
          "midi": 73,
          "time": 9.000000000000002,
          "velocity": 0.28346456692913385,
          "duration": 0.03260869565217206
        },
        {
          "name": "F#6",
          "midi": 90,
          "time": 9.000000000000002,
          "velocity": 0.1889763779527559,
          "duration": 0.03260869565217206
        },
        {
          "name": "G#5",
          "midi": 80,
          "time": 9.021739130434783,
          "velocity": 0.2755905511811024,
          "duration": 0.043478260869562746
        },
        {
          "name": "E6",
          "midi": 88,
          "time": 9.021739130434783,
          "velocity": 0.1732283464566929,
          "duration": 0.05434782608695343
        },
        {
          "name": "C7",
          "midi": 96,
          "time": 9.021739130434783,
          "velocity": 0.13385826771653545,
          "duration": 0.05434782608695343
        },
        {
          "name": "C#4",
          "midi": 61,
          "time": 9.032608695652174,
          "velocity": 0.14960629921259844,
          "duration": 0.043478260869562746
        },
        {
          "name": "F6",
          "midi": 89,
          "time": 9.032608695652174,
          "velocity": 0.2755905511811024,
          "duration": 0.021739130434781373
        },
        {
          "name": "C#7",
          "midi": 97,
          "time": 9.032608695652174,
          "velocity": 0.2047244094488189,
          "duration": 0.0760869565217348
        },
        {
          "name": "D7",
          "midi": 98,
          "time": 9.043478260869565,
          "velocity": 0.15748031496062992,
          "duration": 0.03260869565217206
        },
        {
          "name": "A#5",
          "midi": 82,
          "time": 9.054347826086955,
          "velocity": 0.11023622047244094,
          "duration": 0.05434782608695343
        },
        {
          "name": "F#6",
          "midi": 90,
          "time": 9.054347826086955,
          "velocity": 0.2440944881889764,
          "duration": 0.11956521739129933
        },
        {
          "name": "C5",
          "midi": 72,
          "time": 9.065217391304346,
          "velocity": 0.29133858267716534,
          "duration": 0.043478260869562746
        },
        {
          "name": "D6",
          "midi": 86,
          "time": 9.065217391304346,
          "velocity": 0.13385826771653545,
          "duration": 0.03260869565217206
        },
        {
          "name": "A6",
          "midi": 93,
          "time": 9.065217391304346,
          "velocity": 0.09448818897637795,
          "duration": 0.07608695652173658
        },
        {
          "name": "A#6",
          "midi": 94,
          "time": 9.065217391304346,
          "velocity": 0.14173228346456693,
          "duration": 0.03260869565217206
        },
        {
          "name": "F#1",
          "midi": 30,
          "time": 9.086956521739127,
          "velocity": 0.41732283464566927,
          "duration": 0.021739130434781373
        },
        {
          "name": "C#6",
          "midi": 85,
          "time": 9.097826086956518,
          "velocity": 0.11023622047244094,
          "duration": 0.05434782608695521
        },
        {
          "name": "G6",
          "midi": 91,
          "time": 9.097826086956518,
          "velocity": 0.08661417322834646,
          "duration": 0.032608695652173836
        },
        {
          "name": "E7",
          "midi": 100,
          "time": 9.097826086956518,
          "velocity": 0.09448818897637795,
          "duration": 0.05434782608695521
        },
        {
          "name": "G7",
          "midi": 103,
          "time": 9.097826086956518,
          "velocity": 0.11023622047244094,
          "duration": 0.0652173913043459
        },
        {
          "name": "A#2",
          "midi": 46,
          "time": 9.108695652173909,
          "velocity": 0.47244094488188976,
          "duration": 0.02173913043478315
        },
        {
          "name": "F6",
          "midi": 89,
          "time": 9.108695652173909,
          "velocity": 0.11023622047244094,
          "duration": 0.04347826086956452
        },
        {
          "name": "C5",
          "midi": 72,
          "time": 9.130434782608692,
          "velocity": 0.28346456692913385,
          "duration": 0.021739130434781373
        },
        {
          "name": "F#5",
          "midi": 78,
          "time": 9.130434782608692,
          "velocity": 0.11811023622047244,
          "duration": 0.03260869565217206
        },
        {
          "name": "A#5",
          "midi": 82,
          "time": 9.130434782608692,
          "velocity": 0.11023622047244094,
          "duration": 0.03260869565217206
        },
        {
          "name": "G#1",
          "midi": 32,
          "time": 9.141304347826082,
          "velocity": 0.5039370078740157,
          "duration": 0.021739130434781373
        },
        {
          "name": "D4",
          "midi": 62,
          "time": 9.152173913043473,
          "velocity": 0.2677165354330709,
          "duration": 0.07608695652173658
        },
        {
          "name": "C#5",
          "midi": 73,
          "time": 9.152173913043473,
          "velocity": 0.2677165354330709,
          "duration": 0.03260869565217206
        },
        {
          "name": "F#1",
          "midi": 30,
          "time": 9.173913043478255,
          "velocity": 0.47244094488188976,
          "duration": 0.0652173913043459
        },
        {
          "name": "A#4",
          "midi": 70,
          "time": 9.217391304347819,
          "velocity": 0.1968503937007874,
          "duration": 0.03260869565217206
        },
        {
          "name": "C5",
          "midi": 72,
          "time": 9.217391304347819,
          "velocity": 0.15748031496062992,
          "duration": 0.03260869565217206
        },
        {
          "name": "C#4",
          "midi": 61,
          "time": 9.22826086956521,
          "velocity": 0.18110236220472442,
          "duration": 0.03260869565217206
        },
        {
          "name": "F1",
          "midi": 29,
          "time": 9.2391304347826,
          "velocity": 0.29133858267716534,
          "duration": 0.03260869565217206
        },
        {
          "name": "B4",
          "midi": 71,
          "time": 9.249999999999991,
          "velocity": 0.16535433070866143,
          "duration": 0.03260869565217206
        },
        {
          "name": "B3",
          "midi": 59,
          "time": 9.271739130434772,
          "velocity": 0.2204724409448819,
          "duration": 0.032608695652173836
        },
        {
          "name": "A4",
          "midi": 69,
          "time": 9.282608695652163,
          "velocity": 0.2283464566929134,
          "duration": 0.032608695652173836
        },
        {
          "name": "C4",
          "midi": 60,
          "time": 9.304347826086946,
          "velocity": 0.23622047244094488,
          "duration": 0.021739130434781373
        },
        {
          "name": "G#4",
          "midi": 68,
          "time": 9.315217391304337,
          "velocity": 0.25984251968503935,
          "duration": 0.0652173913043459
        },
        {
          "name": "A#3",
          "midi": 58,
          "time": 9.336956521739118,
          "velocity": 0.25984251968503935,
          "duration": 0.032608695652173836
        },
        {
          "name": "G3",
          "midi": 55,
          "time": 9.380434782608683,
          "velocity": 0.2755905511811024,
          "duration": 0.054347826086956985
        },
        {
          "name": "F#4",
          "midi": 66,
          "time": 9.413043478260857,
          "velocity": 0.2677165354330709,
          "duration": 0.032608695652173836
        },
        {
          "name": "E4",
          "midi": 64,
          "time": 9.456521739130421,
          "velocity": 0.25196850393700787,
          "duration": 0.02173913043478315
        },
        {
          "name": "A#4",
          "midi": 70,
          "time": 9.489130434782595,
          "velocity": 0.07874015748031496,
          "duration": 0.03260869565217206
        },
        {
          "name": "C5",
          "midi": 72,
          "time": 9.499999999999986,
          "velocity": 0.2047244094488189,
          "duration": 0.03260869565217206
        },
        {
          "name": "G#3",
          "midi": 56,
          "time": 9.510869565217376,
          "velocity": 0.12598425196850394,
          "duration": 0.0652173913043459
        },
        {
          "name": "D#4",
          "midi": 63,
          "time": 9.510869565217376,
          "velocity": 0.2204724409448819,
          "duration": 0.04347826086956452
        },
        {
          "name": "G#5",
          "midi": 80,
          "time": 9.510869565217376,
          "velocity": 0.14960629921259844,
          "duration": 0.0652173913043459
        },
        {
          "name": "G#4",
          "midi": 68,
          "time": 9.521739130434767,
          "velocity": 0.15748031496062992,
          "duration": 0.13043478260869357
        },
        {
          "name": "D#5",
          "midi": 75,
          "time": 9.532608695652158,
          "velocity": 0.25984251968503935,
          "duration": 0.18478260869564878
        },
        {
          "name": "A#5",
          "midi": 82,
          "time": 9.532608695652158,
          "velocity": 0.14960629921259844,
          "duration": 0.13043478260869357
        },
        {
          "name": "C5",
          "midi": 72,
          "time": 9.565217391304332,
          "velocity": 0.23622047244094488,
          "duration": 0.10869565217391042
        },
        {
          "name": "D#4",
          "midi": 63,
          "time": 9.576086956521722,
          "velocity": 0.3228346456692913,
          "duration": 0.20652173913043192
        },
        {
          "name": "D#3",
          "midi": 51,
          "time": 9.586956521739113,
          "velocity": 0.1889763779527559,
          "duration": 0.18478260869565055
        },
        {
          "name": "G#4",
          "midi": 68,
          "time": 9.673913043478242,
          "velocity": 0.28346456692913385,
          "duration": 0.1086956521739122
        },
        {
          "name": "F#5",
          "midi": 78,
          "time": 9.684782608695633,
          "velocity": 0.09448818897637795,
          "duration": 0.08695652173913082
        },
        {
          "name": "C5",
          "midi": 72,
          "time": 9.695652173913023,
          "velocity": 0.12598425196850394,
          "duration": 0.07608695652174013
        },
        {
          "name": "E4",
          "midi": 64,
          "time": 9.782608695652154,
          "velocity": 0.15748031496062992,
          "duration": 0.03260869565217206
        },
        {
          "name": "G4",
          "midi": 67,
          "time": 9.782608695652154,
          "velocity": 0.2440944881889764,
          "duration": 0.021739130434781373
        },
        {
          "name": "F#2",
          "midi": 42,
          "time": 9.793478260869545,
          "velocity": 0.5196850393700787,
          "duration": 0.010869565217390686
        },
        {
          "name": "B4",
          "midi": 71,
          "time": 9.815217391304326,
          "velocity": 0.12598425196850394,
          "duration": 0.043478260869562746
        },
        {
          "name": "A5",
          "midi": 81,
          "time": 9.815217391304326,
          "velocity": 0.16535433070866143,
          "duration": 0.06521739130434412
        },
        {
          "name": "A1",
          "midi": 33,
          "time": 9.826086956521717,
          "velocity": 0.47244094488188976,
          "duration": 0.021739130434781373
        },
        {
          "name": "G4",
          "midi": 67,
          "time": 9.826086956521717,
          "velocity": 0.25196850393700787,
          "duration": 0.11956521739129755
        },
        {
          "name": "G5",
          "midi": 79,
          "time": 9.826086956521717,
          "velocity": 0.2677165354330709,
          "duration": 0.09782608695651618
        },
        {
          "name": "B5",
          "midi": 83,
          "time": 9.836956521739108,
          "velocity": 0.14173228346456693,
          "duration": 0.0760869565217348
        },
        {
          "name": "D5",
          "midi": 74,
          "time": 9.858695652173889,
          "velocity": 0.2677165354330709,
          "duration": 0.08695652173912549
        },
        {
          "name": "F1",
          "midi": 29,
          "time": 9.86956521739128,
          "velocity": 0.4566929133858268,
          "duration": 0.03260869565217206
        },
        {
          "name": "B4",
          "midi": 71,
          "time": 9.86956521739128,
          "velocity": 0.2755905511811024,
          "duration": 0.09782608695651618
        },
        {
          "name": "D3",
          "midi": 50,
          "time": 9.88043478260867,
          "velocity": 0.25196850393700787,
          "duration": 0.03260869565217206
        },
        {
          "name": "F#6",
          "midi": 90,
          "time": 9.88043478260867,
          "velocity": 0.14960629921259844,
          "duration": 0.03260869565217206
        },
        {
          "name": "F5",
          "midi": 77,
          "time": 9.891304347826061,
          "velocity": 0.11023622047244094,
          "duration": 0.043478260869562746
        },
        {
          "name": "F#1",
          "midi": 30,
          "time": 9.902173913043452,
          "velocity": 0.5118110236220472,
          "duration": 0.043478260869562746
        },
        {
          "name": "D4",
          "midi": 62,
          "time": 9.902173913043452,
          "velocity": 0.25984251968503935,
          "duration": 0.19565217391303769
        },
        {
          "name": "G1",
          "midi": 31,
          "time": 9.945652173913015,
          "velocity": 0.5275590551181102,
          "duration": 0.13043478260869357
        },
        {
          "name": "G5",
          "midi": 79,
          "time": 9.945652173913015,
          "velocity": 0.10236220472440945,
          "duration": 0.13043478260869357
        },
        {
          "name": "G4",
          "midi": 67,
          "time": 9.956521739130405,
          "velocity": 0.25984251968503935,
          "duration": 0.13043478260869357
        },
        {
          "name": "C5",
          "midi": 72,
          "time": 9.967391304347796,
          "velocity": 0.09448818897637795,
          "duration": 0.032608695652173836
        },
        {
          "name": "B4",
          "midi": 71,
          "time": 9.99999999999997,
          "velocity": 0.2125984251968504,
          "duration": 0.06521739130434767
        },
        {
          "name": "A#5",
          "midi": 82,
          "time": 10.01086956521736,
          "velocity": 0.07874015748031496,
          "duration": 0.06521739130434767
        },
        {
          "name": "B1",
          "midi": 35,
          "time": 10.086956521739099,
          "velocity": 0.5511811023622047,
          "duration": 0.010869565217390686
        },
        {
          "name": "A1",
          "midi": 33,
          "time": 10.09782608695649,
          "velocity": 0.5511811023622047,
          "duration": 0.010869565217390686
        },
        {
          "name": "D#4",
          "midi": 63,
          "time": 10.09782608695649,
          "velocity": 0.1732283464566929,
          "duration": 0.03260869565217206
        },
        {
          "name": "G1",
          "midi": 31,
          "time": 10.10869565217388,
          "velocity": 0.5433070866141733,
          "duration": 0.11956521739130288
        },
        {
          "name": "G4",
          "midi": 67,
          "time": 10.119565217391271,
          "velocity": 0.16535433070866143,
          "duration": 0.184782608695647
        },
        {
          "name": "A5",
          "midi": 81,
          "time": 10.141304347826052,
          "velocity": 0.16535433070866143,
          "duration": 0.032608695652173836
        },
        {
          "name": "D5",
          "midi": 74,
          "time": 10.163043478260835,
          "velocity": 0.2204724409448819,
          "duration": 0.08695652173912904
        },
        {
          "name": "B4",
          "midi": 71,
          "time": 10.173913043478226,
          "velocity": 0.2204724409448819,
          "duration": 0.08695652173912904
        },
        {
          "name": "F5",
          "midi": 77,
          "time": 10.173913043478226,
          "velocity": 0.14960629921259844,
          "duration": 0.054347826086956985
        },
        {
          "name": "D4",
          "midi": 62,
          "time": 10.19565217391301,
          "velocity": 0.13385826771653545,
          "duration": 0.0652173913043459
        },
        {
          "name": "F#5",
          "midi": 78,
          "time": 10.2065217391304,
          "velocity": 0.10236220472440945,
          "duration": 0.032608695652173836
        },
        {
          "name": "F#1",
          "midi": 30,
          "time": 10.228260869565183,
          "velocity": 0.5354330708661418,
          "duration": 0.010869565217390686
        },
        {
          "name": "E1",
          "midi": 28,
          "time": 10.239130434782574,
          "velocity": 0.5669291338582677,
          "duration": 0.010869565217390686
        },
        {
          "name": "F1",
          "midi": 29,
          "time": 10.249999999999964,
          "velocity": 0.5826771653543307,
          "duration": 0.010869565217390686
        },
        {
          "name": "G5",
          "midi": 79,
          "time": 10.249999999999964,
          "velocity": 0.1889763779527559,
          "duration": 0.0760869565217348
        },
        {
          "name": "G1",
          "midi": 31,
          "time": 10.260869565217355,
          "velocity": 0.5669291338582677,
          "duration": 0.010869565217390686
        },
        {
          "name": "C5",
          "midi": 72,
          "time": 10.260869565217355,
          "velocity": 0.18110236220472442,
          "duration": 0.043478260869562746
        },
        {
          "name": "G#1",
          "midi": 32,
          "time": 10.271739130434746,
          "velocity": 0.5511811023622047,
          "duration": 0.11956521739129933
        },
        {
          "name": "F5",
          "midi": 77,
          "time": 10.271739130434746,
          "velocity": 0.08661417322834646,
          "duration": 0.03260869565217206
        },
        {
          "name": "G#5",
          "midi": 80,
          "time": 10.282608695652137,
          "velocity": 0.13385826771653545,
          "duration": 0.03260869565217206
        },
        {
          "name": "D#3",
          "midi": 51,
          "time": 10.293478260869527,
          "velocity": 0.2440944881889764,
          "duration": 0.021739130434781373
        },
        {
          "name": "D#5",
          "midi": 75,
          "time": 10.293478260869527,
          "velocity": 0.2283464566929134,
          "duration": 0.13043478260869001
        },
        {
          "name": "B4",
          "midi": 71,
          "time": 10.304347826086918,
          "velocity": 0.14960629921259844,
          "duration": 0.03260869565217206
        },
        {
          "name": "A#5",
          "midi": 82,
          "time": 10.3260869565217,
          "velocity": 0.09448818897637795,
          "duration": 0.03260869565217206
        },
        {
          "name": "C5",
          "midi": 72,
          "time": 10.33695652173909,
          "velocity": 0.28346456692913385,
          "duration": 0.08695652173912727
        },
        {
          "name": "D#4",
          "midi": 63,
          "time": 10.34782608695648,
          "velocity": 0.1889763779527559,
          "duration": 0.04347826086956452
        },
        {
          "name": "G#5",
          "midi": 80,
          "time": 10.34782608695648,
          "velocity": 0.11811023622047244,
          "duration": 0.07608695652173658
        },
        {
          "name": "G#6",
          "midi": 92,
          "time": 10.380434782608654,
          "velocity": 0.15748031496062992,
          "duration": 0.03260869565217206
        },
        {
          "name": "A#6",
          "midi": 94,
          "time": 10.380434782608654,
          "velocity": 0.14960629921259844,
          "duration": 0.043478260869562746
        },
        {
          "name": "C7",
          "midi": 96,
          "time": 10.380434782608654,
          "velocity": 0.1889763779527559,
          "duration": 0.043478260869562746
        },
        {
          "name": "D7",
          "midi": 98,
          "time": 10.380434782608654,
          "velocity": 0.12598425196850394,
          "duration": 0.043478260869562746
        },
        {
          "name": "D#7",
          "midi": 99,
          "time": 10.380434782608654,
          "velocity": 0.14960629921259844,
          "duration": 0.03260869565217206
        },
        {
          "name": "F7",
          "midi": 101,
          "time": 10.380434782608654,
          "velocity": 0.13385826771653545,
          "duration": 0.03260869565217206
        },
        {
          "name": "D6",
          "midi": 86,
          "time": 10.391304347826045,
          "velocity": 0.18110236220472442,
          "duration": 0.03260869565217206
        },
        {
          "name": "G7",
          "midi": 103,
          "time": 10.391304347826045,
          "velocity": 0.18110236220472442,
          "duration": 0.03260869565217206
        },
        {
          "name": "A#3",
          "midi": 58,
          "time": 10.402173913043436,
          "velocity": 0.5354330708661418,
          "duration": 0.010869565217390686
        },
        {
          "name": "G4",
          "midi": 67,
          "time": 10.402173913043436,
          "velocity": 0.2283464566929134,
          "duration": 0.10869565217390864
        },
        {
          "name": "B6",
          "midi": 95,
          "time": 10.402173913043436,
          "velocity": 0.11023622047244094,
          "duration": 0.05434782608695521
        },
        {
          "name": "A3",
          "midi": 57,
          "time": 10.413043478260827,
          "velocity": 0.5984251968503937,
          "duration": 0.04347826086956452
        },
        {
          "name": "D#4",
          "midi": 63,
          "time": 10.413043478260827,
          "velocity": 0.23622047244094488,
          "duration": 0.04347826086956452
        },
        {
          "name": "E5",
          "midi": 76,
          "time": 10.413043478260827,
          "velocity": 0.13385826771653545,
          "duration": 0.032608695652173836
        },
        {
          "name": "G5",
          "midi": 79,
          "time": 10.413043478260827,
          "velocity": 0.2283464566929134,
          "duration": 0.08695652173912727
        },
        {
          "name": "B4",
          "midi": 71,
          "time": 10.423913043478217,
          "velocity": 0.29133858267716534,
          "duration": 0.16304347826086563
        },
        {
          "name": "G1",
          "midi": 31,
          "time": 10.445652173913,
          "velocity": 0.5354330708661418,
          "duration": 0.24999999999999467
        },
        {
          "name": "C#7",
          "midi": 97,
          "time": 10.445652173913,
          "velocity": 0.08661417322834646,
          "duration": 0.03260869565217206
        },
        {
          "name": "G#3",
          "midi": 56,
          "time": 10.456521739130391,
          "velocity": 0.44881889763779526,
          "duration": 0.043478260869562746
        },
        {
          "name": "E5",
          "midi": 76,
          "time": 10.456521739130391,
          "velocity": 0.14173228346456693,
          "duration": 0.03260869565217206
        },
        {
          "name": "F#7",
          "midi": 102,
          "time": 10.456521739130391,
          "velocity": 0.10236220472440945,
          "duration": 0.03260869565217206
        },
        {
          "name": "D3",
          "midi": 50,
          "time": 10.467391304347782,
          "velocity": 0.2677165354330709,
          "duration": 0.03260869565217206
        },
        {
          "name": "D5",
          "midi": 74,
          "time": 10.467391304347782,
          "velocity": 0.25196850393700787,
          "duration": 0.09782608695651795
        },
        {
          "name": "A6",
          "midi": 93,
          "time": 10.467391304347782,
          "velocity": 0.07086614173228346,
          "duration": 0.03260869565217206
        },
        {
          "name": "G4",
          "midi": 67,
          "time": 10.521739130434735,
          "velocity": 0.2440944881889764,
          "duration": 0.18478260869565055
        },
        {
          "name": "D3",
          "midi": 50,
          "time": 10.532608695652126,
          "velocity": 0.3464566929133858,
          "duration": 0.08695652173913082
        },
        {
          "name": "A5",
          "midi": 81,
          "time": 10.543478260869517,
          "velocity": 0.09448818897637795,
          "duration": 0.054347826086956985
        },
        {
          "name": "B4",
          "midi": 71,
          "time": 10.597826086956474,
          "velocity": 0.2125984251968504,
          "duration": 0.09782608695652151
        },
        {
          "name": "F#1",
          "midi": 30,
          "time": 10.695652173912995,
          "velocity": 0.5669291338582677,
          "duration": 0.021739130434781373
        },
        {
          "name": "G1",
          "midi": 31,
          "time": 10.717391304347776,
          "velocity": 0.5826771653543307,
          "duration": 0.2826086956521685
        },
        {
          "name": "G4",
          "midi": 67,
          "time": 10.728260869565167,
          "velocity": 0.18110236220472442,
          "duration": 0.09782608695652151
        },
        {
          "name": "A5",
          "midi": 81,
          "time": 10.74999999999995,
          "velocity": 0.15748031496062992,
          "duration": 0.032608695652173836
        },
        {
          "name": "B5",
          "midi": 83,
          "time": 10.74999999999995,
          "velocity": 0.14173228346456693,
          "duration": 0.10869565217391042
        },
        {
          "name": "D5",
          "midi": 74,
          "time": 10.760869565217341,
          "velocity": 0.2047244094488189,
          "duration": 0.08695652173912904
        },
        {
          "name": "B4",
          "midi": 71,
          "time": 10.782608695652124,
          "velocity": 0.23622047244094488,
          "duration": 0.1195652173913011
        },
        {
          "name": "F5",
          "midi": 77,
          "time": 10.793478260869515,
          "velocity": 0.14960629921259844,
          "duration": 0.032608695652173836
        },
        {
          "name": "D4",
          "midi": 62,
          "time": 10.804347826086905,
          "velocity": 0.2677165354330709,
          "duration": 0.18478260869564878
        },
        {
          "name": "G4",
          "midi": 67,
          "time": 10.83695652173908,
          "velocity": 0.28346456692913385,
          "duration": 0.2499999999999929
        },
        {
          "name": "F5",
          "midi": 77,
          "time": 10.891304347826035,
          "velocity": 0.11023622047244094,
          "duration": 0.10869565217391042
        },
        {
          "name": "A5",
          "midi": 81,
          "time": 10.913043478260816,
          "velocity": 0.07086614173228346,
          "duration": 0.032608695652173836
        },
        {
          "name": "B4",
          "midi": 71,
          "time": 10.923913043478207,
          "velocity": 0.18110236220472442,
          "duration": 0.1195652173913011
        },
        {
          "name": "D3",
          "midi": 50,
          "time": 10.989130434782554,
          "velocity": 0.4251968503937008,
          "duration": 0.021739130434781373
        },
        {
          "name": "E5",
          "midi": 76,
          "time": 10.999999999999945,
          "velocity": 0.11811023622047244,
          "duration": 0.03260869565217206
        },
        {
          "name": "C#3",
          "midi": 49,
          "time": 11.010869565217336,
          "velocity": 0.5354330708661418,
          "duration": 0.010869565217390686
        },
        {
          "name": "D#4",
          "midi": 63,
          "time": 11.010869565217336,
          "velocity": 0.2047244094488189,
          "duration": 0.03260869565217206
        },
        {
          "name": "F#2",
          "midi": 42,
          "time": 11.021739130434726,
          "velocity": 0.5590551181102362,
          "duration": 0.010869565217390686
        },
        {
          "name": "D2",
          "midi": 38,
          "time": 11.032608695652117,
          "velocity": 0.5511811023622047,
          "duration": 0.010869565217390686
        },
        {
          "name": "A1",
          "midi": 33,
          "time": 11.043478260869508,
          "velocity": 0.5590551181102362,
          "duration": 0.010869565217390686
        },
        {
          "name": "G#1",
          "midi": 32,
          "time": 11.054347826086898,
          "velocity": 0.5590551181102362,
          "duration": 0.02173913043478315
        },
        {
          "name": "A5",
          "midi": 81,
          "time": 11.054347826086898,
          "velocity": 0.13385826771653545,
          "duration": 0.032608695652173836
        },
        {
          "name": "G1",
          "midi": 31,
          "time": 11.076086956521682,
          "velocity": 0.5354330708661418,
          "duration": 0.010869565217390686
        },
        {
          "name": "D5",
          "midi": 74,
          "time": 11.076086956521682,
          "velocity": 0.2204724409448819,
          "duration": 0.08695652173912727
        },
        {
          "name": "B5",
          "midi": 83,
          "time": 11.076086956521682,
          "velocity": 0.11811023622047244,
          "duration": 0.03260869565217206
        },
        {
          "name": "F#1",
          "midi": 30,
          "time": 11.086956521739072,
          "velocity": 0.5511811023622047,
          "duration": 0.07608695652173658
        },
        {
          "name": "B4",
          "midi": 71,
          "time": 11.086956521739072,
          "velocity": 0.2204724409448819,
          "duration": 0.09782608695651795
        },
        {
          "name": "F5",
          "midi": 77,
          "time": 11.086956521739072,
          "velocity": 0.14173228346456693,
          "duration": 0.0652173913043459
        },
        {
          "name": "D4",
          "midi": 62,
          "time": 11.097826086956463,
          "velocity": 0.14960629921259844,
          "duration": 0.0652173913043459
        },
        {
          "name": "G4",
          "midi": 67,
          "time": 11.097826086956463,
          "velocity": 0.1732283464566929,
          "duration": 0.09782608695651795
        },
        {
          "name": "A2",
          "midi": 45,
          "time": 11.152173913043418,
          "velocity": 0.3543307086614173,
          "duration": 0.021739130434781373
        },
        {
          "name": "G1",
          "midi": 31,
          "time": 11.163043478260809,
          "velocity": 0.5433070866141733,
          "duration": 0.010869565217390686
        },
        {
          "name": "G#1",
          "midi": 32,
          "time": 11.1739130434782,
          "velocity": 0.5511811023622047,
          "duration": 0.14130434782607892
        },
        {
          "name": "C5",
          "midi": 72,
          "time": 11.1739130434782,
          "velocity": 0.2125984251968504,
          "duration": 0.043478260869562746
        },
        {
          "name": "D#3",
          "midi": 51,
          "time": 11.18478260869559,
          "velocity": 0.28346456692913385,
          "duration": 0.021739130434781373
        },
        {
          "name": "G#5",
          "midi": 80,
          "time": 11.19565217391298,
          "velocity": 0.11811023622047244,
          "duration": 0.05434782608695343
        },
        {
          "name": "D#5",
          "midi": 75,
          "time": 11.217391304347762,
          "velocity": 0.2283464566929134,
          "duration": 0.09782608695651618
        },
        {
          "name": "A5",
          "midi": 81,
          "time": 11.217391304347762,
          "velocity": 0.07086614173228346,
          "duration": 0.03260869565217206
        },
        {
          "name": "G#4",
          "midi": 68,
          "time": 11.228260869565153,
          "velocity": 0.16535433070866143,
          "duration": 0.11956521739129933
        },
        {
          "name": "G#6",
          "midi": 92,
          "time": 11.239130434782544,
          "velocity": 0.14173228346456693,
          "duration": 0.03260869565217206
        },
        {
          "name": "D#4",
          "midi": 63,
          "time": 11.249999999999934,
          "velocity": 0.23622047244094488,
          "duration": 0.11956521739129933
        },
        {
          "name": "C5",
          "midi": 72,
          "time": 11.249999999999934,
          "velocity": 0.12598425196850394,
          "duration": 0.05434782608695343
        },
        {
          "name": "D#3",
          "midi": 51,
          "time": 11.260869565217325,
          "velocity": 0.30708661417322836,
          "duration": 0.03260869565217206
        },
        {
          "name": "C6",
          "midi": 84,
          "time": 11.260869565217325,
          "velocity": 0.13385826771653545,
          "duration": 0.05434782608695343
        },
        {
          "name": "G5",
          "midi": 79,
          "time": 11.271739130434716,
          "velocity": 0.12598425196850394,
          "duration": 0.03260869565217206
        },
        {
          "name": "F#5",
          "midi": 78,
          "time": 11.282608695652106,
          "velocity": 0.07086614173228346,
          "duration": 0.03260869565217206
        },
        {
          "name": "F#1",
          "midi": 30,
          "time": 11.315217391304278,
          "velocity": 0.5826771653543307,
          "duration": 0.02173913043478315
        },
        {
          "name": "G1",
          "midi": 31,
          "time": 11.336956521739062,
          "velocity": 0.5511811023622047,
          "duration": 0.27173913043477604
        },
        {
          "name": "B4",
          "midi": 71,
          "time": 11.347826086956452,
          "velocity": 0.12598425196850394,
          "duration": 0.043478260869562746
        },
        {
          "name": "G5",
          "midi": 79,
          "time": 11.358695652173843,
          "velocity": 0.1889763779527559,
          "duration": 0.08695652173912727
        },
        {
          "name": "A5",
          "midi": 81,
          "time": 11.358695652173843,
          "velocity": 0.13385826771653545,
          "duration": 0.03260869565217206
        },
        {
          "name": "G4",
          "midi": 67,
          "time": 11.380434782608624,
          "velocity": 0.1968503937007874,
          "duration": 0.05434782608695521
        },
        {
          "name": "B4",
          "midi": 71,
          "time": 11.402173913043406,
          "velocity": 0.2440944881889764,
          "duration": 0.19565217391304124
        },
        {
          "name": "D4",
          "midi": 62,
          "time": 11.467391304347753,
          "velocity": 0.25196850393700787,
          "duration": 0.15217391304347494
        },
        {
          "name": "G4",
          "midi": 67,
          "time": 11.478260869565144,
          "velocity": 0.28346456692913385,
          "duration": 0.16304347826086563
        },
        {
          "name": "F5",
          "midi": 77,
          "time": 11.543478260869492,
          "velocity": 0.13385826771653545,
          "duration": 0.05434782608695521
        },
        {
          "name": "A#5",
          "midi": 82,
          "time": 11.554347826086882,
          "velocity": 0.07086614173228346,
          "duration": 0.032608695652173836
        },
        {
          "name": "F6",
          "midi": 89,
          "time": 11.608695652173838,
          "velocity": 0.11811023622047244,
          "duration": 0.0652173913043459
        },
        {
          "name": "A6",
          "midi": 93,
          "time": 11.608695652173838,
          "velocity": 0.1889763779527559,
          "duration": 0.03260869565217206
        },
        {
          "name": "C7",
          "midi": 96,
          "time": 11.608695652173838,
          "velocity": 0.15748031496062992,
          "duration": 0.0652173913043459
        },
        {
          "name": "D#7",
          "midi": 99,
          "time": 11.608695652173838,
          "velocity": 0.11811023622047244,
          "duration": 0.03260869565217206
        },
        {
          "name": "A3",
          "midi": 57,
          "time": 11.630434782608619,
          "velocity": 0.5826771653543307,
          "duration": 0.05434782608695521
        },
        {
          "name": "G1",
          "midi": 31,
          "time": 11.64130434782601,
          "velocity": 0.5433070866141733,
          "duration": 0.27173913043477604
        },
        {
          "name": "A5",
          "midi": 81,
          "time": 11.663043478260793,
          "velocity": 0.13385826771653545,
          "duration": 0.043478260869562746
        },
        {
          "name": "G4",
          "midi": 67,
          "time": 11.673913043478183,
          "velocity": 0.2677165354330709,
          "duration": 0.2391304347826022
        },
        {
          "name": "B6",
          "midi": 95,
          "time": 11.673913043478183,
          "velocity": 0.07086614173228346,
          "duration": 0.03260869565217206
        },
        {
          "name": "G#3",
          "midi": 56,
          "time": 11.684782608695574,
          "velocity": 0.4094488188976378,
          "duration": 0.03260869565217206
        },
        {
          "name": "F7",
          "midi": 101,
          "time": 11.684782608695574,
          "velocity": 0.11811023622047244,
          "duration": 0.043478260869562746
        },
        {
          "name": "D5",
          "midi": 74,
          "time": 11.695652173912965,
          "velocity": 0.2283464566929134,
          "duration": 0.08695652173912727
        },
        {
          "name": "D3",
          "midi": 50,
          "time": 11.706521739130356,
          "velocity": 0.23622047244094488,
          "duration": 0.021739130434781373
        },
        {
          "name": "B4",
          "midi": 71,
          "time": 11.706521739130356,
          "velocity": 0.2440944881889764,
          "duration": 0.10869565217391042
        },
        {
          "name": "F5",
          "midi": 77,
          "time": 11.706521739130356,
          "velocity": 0.2047244094488189,
          "duration": 0.043478260869562746
        },
        {
          "name": "A6",
          "midi": 93,
          "time": 11.706521739130356,
          "velocity": 0.10236220472440945,
          "duration": 0.03260869565217206
        },
        {
          "name": "D4",
          "midi": 62,
          "time": 11.717391304347746,
          "velocity": 0.28346456692913385,
          "duration": 0.19565217391303946
        },
        {
          "name": "F5",
          "midi": 77,
          "time": 11.804347826086875,
          "velocity": 0.11811023622047244,
          "duration": 0.1195652173913011
        },
        {
          "name": "D3",
          "midi": 50,
          "time": 11.826086956521657,
          "velocity": 0.33858267716535434,
          "duration": 0.021739130434781373
        },
        {
          "name": "B4",
          "midi": 71,
          "time": 11.836956521739047,
          "velocity": 0.1732283464566929,
          "duration": 0.08695652173912904
        },
        {
          "name": "C#3",
          "midi": 49,
          "time": 11.902173913043395,
          "velocity": 0.3543307086614173,
          "duration": 0.021739130434781373
        },
        {
          "name": "F#1",
          "midi": 30,
          "time": 11.913043478260786,
          "velocity": 0.5511811023622047,
          "duration": 0.010869565217390686
        },
        {
          "name": "E1",
          "midi": 28,
          "time": 11.923913043478176,
          "velocity": 0.5669291338582677,
          "duration": 0.010869565217390686
        },
        {
          "name": "F1",
          "midi": 29,
          "time": 11.934782608695567,
          "velocity": 0.5748031496062992,
          "duration": 0.010869565217390686
        },
        {
          "name": "F#1",
          "midi": 30,
          "time": 11.945652173912958,
          "velocity": 0.5669291338582677,
          "duration": 0.28260869565217206
        },
        {
          "name": "F#4",
          "midi": 66,
          "time": 11.967391304347741,
          "velocity": 0.25984251968503935,
          "duration": 0.14130434782608425
        },
        {
          "name": "C#5",
          "midi": 73,
          "time": 11.999999999999915,
          "velocity": 0.23622047244094488,
          "duration": 0.08695652173912727
        },
        {
          "name": "E5",
          "midi": 76,
          "time": 11.999999999999915,
          "velocity": 0.12598425196850394,
          "duration": 0.0652173913043459
        },
        {
          "name": "G#5",
          "midi": 80,
          "time": 11.999999999999915,
          "velocity": 0.16535433070866143,
          "duration": 0.07608695652173658
        },
        {
          "name": "C#4",
          "midi": 61,
          "time": 12.010869565217305,
          "velocity": 0.30708661417322836,
          "duration": 0.19565217391304124
        },
        {
          "name": "A#4",
          "midi": 70,
          "time": 12.021739130434696,
          "velocity": 0.15748031496062992,
          "duration": 0.09782608695651973
        },
        {
          "name": "F#4",
          "midi": 66,
          "time": 12.119565217391216,
          "velocity": 0.2440944881889764,
          "duration": 0.08695652173913082
        },
        {
          "name": "A#4",
          "midi": 70,
          "time": 12.141304347825999,
          "velocity": 0.08661417322834646,
          "duration": 0.08695652173913082
        },
        {
          "name": "C#5",
          "midi": 73,
          "time": 12.206521739130347,
          "velocity": 0.13385826771653545,
          "duration": 0.032608695652173836
        },
        {
          "name": "C2",
          "midi": 36,
          "time": 12.22826086956513,
          "velocity": 0.5196850393700787,
          "duration": 0.021739130434781373
        },
        {
          "name": "C5",
          "midi": 72,
          "time": 12.22826086956513,
          "velocity": 0.15748031496062992,
          "duration": 0.03260869565217206
        },
        {
          "name": "B2",
          "midi": 47,
          "time": 12.23913043478252,
          "velocity": 0.5118110236220472,
          "duration": 0.010869565217390686
        },
        {
          "name": "G1",
          "midi": 31,
          "time": 12.249999999999911,
          "velocity": 0.5354330708661418,
          "duration": 0.021739130434781373
        },
        {
          "name": "G#4",
          "midi": 68,
          "time": 12.249999999999911,
          "velocity": 0.09448818897637795,
          "duration": 0.03260869565217206
        },
        {
          "name": "A5",
          "midi": 81,
          "time": 12.249999999999911,
          "velocity": 0.09448818897637795,
          "duration": 0.03260869565217206
        },
        {
          "name": "B4",
          "midi": 71,
          "time": 12.260869565217302,
          "velocity": 0.11811023622047244,
          "duration": 0.043478260869562746
        },
        {
          "name": "G5",
          "midi": 79,
          "time": 12.260869565217302,
          "velocity": 0.2047244094488189,
          "duration": 0.08695652173912549
        },
        {
          "name": "G#1",
          "midi": 32,
          "time": 12.271739130434693,
          "velocity": 0.5826771653543307,
          "duration": 0.021739130434781373
        },
        {
          "name": "G4",
          "midi": 67,
          "time": 12.271739130434693,
          "velocity": 0.1968503937007874,
          "duration": 0.06521739130434412
        },
        {
          "name": "F5",
          "midi": 77,
          "time": 12.271739130434693,
          "velocity": 0.16535433070866143,
          "duration": 0.13043478260868824
        },
        {
          "name": "B5",
          "midi": 83,
          "time": 12.282608695652083,
          "velocity": 0.14173228346456693,
          "duration": 0.06521739130434412
        },
        {
          "name": "G1",
          "midi": 31,
          "time": 12.293478260869474,
          "velocity": 0.5748031496062992,
          "duration": 0.03260869565217206
        },
        {
          "name": "D5",
          "midi": 74,
          "time": 12.293478260869474,
          "velocity": 0.2440944881889764,
          "duration": 0.16304347826086207
        },
        {
          "name": "B4",
          "midi": 71,
          "time": 12.315217391304255,
          "velocity": 0.2755905511811024,
          "duration": 0.10869565217390686
        },
        {
          "name": "F#1",
          "midi": 30,
          "time": 12.326086956521646,
          "velocity": 0.5669291338582677,
          "duration": 0.03260869565217206
        },
        {
          "name": "F#6",
          "midi": 90,
          "time": 12.326086956521646,
          "velocity": 0.09448818897637795,
          "duration": 0.03260869565217206
        },
        {
          "name": "G4",
          "midi": 67,
          "time": 12.347826086956427,
          "velocity": 0.1889763779527559,
          "duration": 0.043478260869562746
        },
        {
          "name": "G1",
          "midi": 31,
          "time": 12.358695652173818,
          "velocity": 0.5118110236220472,
          "duration": 0.021739130434781373
        },
        {
          "name": "D4",
          "midi": 62,
          "time": 12.369565217391209,
          "velocity": 0.25984251968503935,
          "duration": 0.15217391304347494
        },
        {
          "name": "G#1",
          "midi": 32,
          "time": 12.3804347826086,
          "velocity": 0.48031496062992124,
          "duration": 0.021739130434781373
        },
        {
          "name": "G1",
          "midi": 31,
          "time": 12.40217391304338,
          "velocity": 0.5354330708661418,
          "duration": 0.11956521739130288
        },
        {
          "name": "G4",
          "midi": 67,
          "time": 12.413043478260771,
          "velocity": 0.2755905511811024,
          "duration": 0.1086956521739122
        },
        {
          "name": "B4",
          "midi": 71,
          "time": 12.445652173912945,
          "velocity": 0.2204724409448819,
          "duration": 0.08695652173912904
        },
        {
          "name": "F#1",
          "midi": 30,
          "time": 12.521739130434684,
          "velocity": 0.5354330708661418,
          "duration": 0.010869565217390686
        },
        {
          "name": "F1",
          "midi": 29,
          "time": 12.532608695652074,
          "velocity": 0.5196850393700787,
          "duration": 0.010869565217390686
        },
        {
          "name": "F#2",
          "midi": 42,
          "time": 12.543478260869465,
          "velocity": 0.5118110236220472,
          "duration": 0.010869565217390686
        },
        {
          "name": "F1",
          "midi": 29,
          "time": 12.554347826086856,
          "velocity": 0.5433070866141733,
          "duration": 0.010869565217390686
        },
        {
          "name": "G5",
          "midi": 79,
          "time": 12.554347826086856,
          "velocity": 0.2440944881889764,
          "duration": 0.14130434782608248
        },
        {
          "name": "G#1",
          "midi": 32,
          "time": 12.565217391304246,
          "velocity": 0.5511811023622047,
          "duration": 0.010869565217390686
        },
        {
          "name": "G4",
          "midi": 67,
          "time": 12.565217391304246,
          "velocity": 0.25196850393700787,
          "duration": 0.2717391304347778
        },
        {
          "name": "D5",
          "midi": 74,
          "time": 12.565217391304246,
          "velocity": 0.09448818897637795,
          "duration": 0.04347826086956452
        },
        {
          "name": "G1",
          "midi": 31,
          "time": 12.576086956521637,
          "velocity": 0.5511811023622047,
          "duration": 0.26086956521738713
        },
        {
          "name": "F5",
          "midi": 77,
          "time": 12.576086956521637,
          "velocity": 0.13385826771653545,
          "duration": 0.032608695652173836
        },
        {
          "name": "A5",
          "midi": 81,
          "time": 12.576086956521637,
          "velocity": 0.14960629921259844,
          "duration": 0.05434782608695521
        },
        {
          "name": "B3",
          "midi": 59,
          "time": 12.586956521739028,
          "velocity": 0.11811023622047244,
          "duration": 0.04347826086956452
        },
        {
          "name": "B5",
          "midi": 83,
          "time": 12.586956521739028,
          "velocity": 0.14960629921259844,
          "duration": 0.07608695652173836
        },
        {
          "name": "D6",
          "midi": 86,
          "time": 12.608695652173811,
          "velocity": 0.09448818897637795,
          "duration": 0.03260869565217206
        },
        {
          "name": "D5",
          "midi": 74,
          "time": 12.619565217391202,
          "velocity": 0.1889763779527559,
          "duration": 0.0652173913043459
        },
        {
          "name": "F#6",
          "midi": 90,
          "time": 12.619565217391202,
          "velocity": 0.09448818897637795,
          "duration": 0.05434782608695521
        },
        {
          "name": "B4",
          "midi": 71,
          "time": 12.663043478260766,
          "velocity": 0.23622047244094488,
          "duration": 0.07608695652173836
        },
        {
          "name": "D4",
          "midi": 62,
          "time": 12.684782608695548,
          "velocity": 0.29133858267716534,
          "duration": 0.15217391304347672
        },
        {
          "name": "F5",
          "midi": 77,
          "time": 12.717391304347721,
          "velocity": 0.07086614173228346,
          "duration": 0.032608695652173836
        },
        {
          "name": "B4",
          "midi": 71,
          "time": 12.760869565217286,
          "velocity": 0.14960629921259844,
          "duration": 0.07608695652173836
        },
        {
          "name": "F6",
          "midi": 89,
          "time": 12.826086956521634,
          "velocity": 0.18110236220472442,
          "duration": 0.05434782608695343
        },
        {
          "name": "A6",
          "midi": 93,
          "time": 12.826086956521634,
          "velocity": 0.2125984251968504,
          "duration": 0.03260869565217206
        },
        {
          "name": "G#4",
          "midi": 68,
          "time": 12.836956521739024,
          "velocity": 0.2283464566929134,
          "duration": 0.021739130434781373
        },
        {
          "name": "F5",
          "midi": 77,
          "time": 12.836956521739024,
          "velocity": 0.12598425196850394,
          "duration": 0.03260869565217206
        },
        {
          "name": "F#5",
          "midi": 78,
          "time": 12.836956521739024,
          "velocity": 0.14960629921259844,
          "duration": 0.03260869565217206
        },
        {
          "name": "E6",
          "midi": 88,
          "time": 12.836956521739024,
          "velocity": 0.16535433070866143,
          "duration": 0.03260869565217206
        },
        {
          "name": "D#7",
          "midi": 99,
          "time": 12.836956521739024,
          "velocity": 0.11023622047244094,
          "duration": 0.03260869565217206
        },
        {
          "name": "A#3",
          "midi": 58,
          "time": 12.847826086956415,
          "velocity": 0.5275590551181102,
          "duration": 0.010869565217390686
        },
        {
          "name": "F#4",
          "midi": 66,
          "time": 12.847826086956415,
          "velocity": 0.14173228346456693,
          "duration": 0.03260869565217206
        },
        {
          "name": "A3",
          "midi": 57,
          "time": 12.858695652173806,
          "velocity": 0.5905511811023622,
          "duration": 0.04347826086956452
        },
        {
          "name": "A5",
          "midi": 81,
          "time": 12.858695652173806,
          "velocity": 0.13385826771653545,
          "duration": 0.10869565217391042
        },
        {
          "name": "G1",
          "midi": 31,
          "time": 12.869565217391196,
          "velocity": 0.5039370078740157,
          "duration": 0.1195652173913011
        },
        {
          "name": "G5",
          "midi": 79,
          "time": 12.869565217391196,
          "velocity": 0.23622047244094488,
          "duration": 0.07608695652173836
        },
        {
          "name": "G4",
          "midi": 67,
          "time": 12.880434782608587,
          "velocity": 0.2125984251968504,
          "duration": 0.15217391304347316
        },
        {
          "name": "G#3",
          "midi": 56,
          "time": 12.90217391304337,
          "velocity": 0.4645669291338583,
          "duration": 0.032608695652173836
        },
        {
          "name": "B5",
          "midi": 83,
          "time": 12.90217391304337,
          "velocity": 0.11811023622047244,
          "duration": 0.05434782608695521
        },
        {
          "name": "B4",
          "midi": 71,
          "time": 12.91304347826076,
          "velocity": 0.2047244094488189,
          "duration": 0.04347826086956452
        },
        {
          "name": "D7",
          "midi": 98,
          "time": 12.934782608695544,
          "velocity": 0.11023622047244094,
          "duration": 0.03260869565217206
        },
        {
          "name": "D5",
          "midi": 74,
          "time": 12.945652173912935,
          "velocity": 0.2047244094488189,
          "duration": 0.05434782608695343
        },
        {
          "name": "C6",
          "midi": 84,
          "time": 12.956521739130325,
          "velocity": 0.11023622047244094,
          "duration": 0.03260869565217206
        },
        {
          "name": "B4",
          "midi": 71,
          "time": 12.978260869565107,
          "velocity": 0.1732283464566929,
          "duration": 0.03260869565217206
        },
        {
          "name": "E3",
          "midi": 52,
          "time": 12.989130434782497,
          "velocity": 0.2755905511811024,
          "duration": 0.021739130434781373
        },
        {
          "name": "A5",
          "midi": 81,
          "time": 12.989130434782497,
          "velocity": 0.10236220472440945,
          "duration": 0.043478260869562746
        },
        {
          "name": "D#1",
          "midi": 27,
          "time": 12.999999999999888,
          "velocity": 0.5354330708661418,
          "duration": 0.010869565217390686
        },
        {
          "name": "F#1",
          "midi": 30,
          "time": 13.010869565217279,
          "velocity": 0.5511811023622047,
          "duration": 0.010869565217390686
        },
        {
          "name": "C5",
          "midi": 72,
          "time": 13.010869565217279,
          "velocity": 0.14960629921259844,
          "duration": 0.043478260869562746
        },
        {
          "name": "G#1",
          "midi": 32,
          "time": 13.02173913043467,
          "velocity": 0.5511811023622047,
          "duration": 0.1195652173913011
        },
        {
          "name": "D#4",
          "midi": 63,
          "time": 13.02173913043467,
          "velocity": 0.25196850393700787,
          "duration": 0.021739130434781373
        },
        {
          "name": "G#4",
          "midi": 68,
          "time": 13.03260869565206,
          "velocity": 0.15748031496062992,
          "duration": 0.1304347826086918
        },
        {
          "name": "D#5",
          "midi": 75,
          "time": 13.04347826086945,
          "velocity": 0.2125984251968504,
          "duration": 0.09782608695651973
        },
        {
          "name": "G5",
          "midi": 79,
          "time": 13.065217391304232,
          "velocity": 0.13385826771653545,
          "duration": 0.03260869565217206
        },
        {
          "name": "G#6",
          "midi": 92,
          "time": 13.076086956521623,
          "velocity": 0.10236220472440945,
          "duration": 0.04347826086956452
        },
        {
          "name": "D#4",
          "midi": 63,
          "time": 13.086956521739014,
          "velocity": 0.2204724409448819,
          "duration": 0.14130434782608248
        },
        {
          "name": "C5",
          "midi": 72,
          "time": 13.086956521739014,
          "velocity": 0.1889763779527559,
          "duration": 0.07608695652173836
        },
        {
          "name": "A1",
          "midi": 33,
          "time": 13.14130434782597,
          "velocity": 0.5118110236220472,
          "duration": 0.010869565217390686
        },
        {
          "name": "B1",
          "midi": 35,
          "time": 13.152173913043361,
          "velocity": 0.5511811023622047,
          "duration": 0.010869565217390686
        },
        {
          "name": "G#1",
          "midi": 32,
          "time": 13.163043478260752,
          "velocity": 0.5433070866141733,
          "duration": 0.010869565217390686
        },
        {
          "name": "G1",
          "midi": 31,
          "time": 13.173913043478143,
          "velocity": 0.5433070866141733,
          "duration": 0.28260869565216495
        },
        {
          "name": "A5",
          "midi": 81,
          "time": 13.173913043478143,
          "velocity": 0.13385826771653545,
          "duration": 0.03260869565217206
        },
        {
          "name": "B3",
          "midi": 59,
          "time": 13.184782608695533,
          "velocity": 0.11811023622047244,
          "duration": 0.05434782608695343
        },
        {
          "name": "D5",
          "midi": 74,
          "time": 13.184782608695533,
          "velocity": 0.25196850393700787,
          "duration": 0.11956521739129933
        },
        {
          "name": "G5",
          "midi": 79,
          "time": 13.184782608695533,
          "velocity": 0.2755905511811024,
          "duration": 0.0760869565217348
        },
        {
          "name": "B5",
          "midi": 83,
          "time": 13.184782608695533,
          "velocity": 0.18110236220472442,
          "duration": 0.08695652173912549
        },
        {
          "name": "G4",
          "midi": 67,
          "time": 13.195652173912924,
          "velocity": 0.2677165354330709,
          "duration": 0.2499999999999929
        },
        {
          "name": "A5",
          "midi": 81,
          "time": 13.217391304347705,
          "velocity": 0.13385826771653545,
          "duration": 0.03260869565217206
        },
        {
          "name": "G#6",
          "midi": 92,
          "time": 13.217391304347705,
          "velocity": 0.09448818897637795,
          "duration": 0.03260869565217206
        },
        {
          "name": "B4",
          "midi": 71,
          "time": 13.239130434782487,
          "velocity": 0.2677165354330709,
          "duration": 0.09782608695651795
        },
        {
          "name": "F#6",
          "midi": 90,
          "time": 13.239130434782487,
          "velocity": 0.10236220472440945,
          "duration": 0.03260869565217206
        },
        {
          "name": "F5",
          "midi": 77,
          "time": 13.28260869565205,
          "velocity": 0.07086614173228346,
          "duration": 0.04347826086956452
        },
        {
          "name": "D4",
          "midi": 62,
          "time": 13.315217391304223,
          "velocity": 0.2755905511811024,
          "duration": 0.13043478260869357
        },
        {
          "name": "B4",
          "midi": 71,
          "time": 13.358695652173788,
          "velocity": 0.18110236220472442,
          "duration": 0.07608695652173836
        },
        {
          "name": "D3",
          "midi": 50,
          "time": 13.434782608695526,
          "velocity": 0.4330708661417323,
          "duration": 0.021739130434781373
        },
        {
          "name": "F5",
          "midi": 77,
          "time": 13.434782608695526,
          "velocity": 0.11811023622047244,
          "duration": 0.03260869565217206
        },
        {
          "name": "A5",
          "midi": 81,
          "time": 13.434782608695526,
          "velocity": 0.14960629921259844,
          "duration": 0.03260869565217206
        },
        {
          "name": "B5",
          "midi": 83,
          "time": 13.434782608695526,
          "velocity": 0.10236220472440945,
          "duration": 0.03260869565217206
        },
        {
          "name": "B4",
          "midi": 71,
          "time": 13.456521739130308,
          "velocity": 0.14173228346456693,
          "duration": 0.03260869565217206
        },
        {
          "name": "F#2",
          "midi": 42,
          "time": 13.467391304347698,
          "velocity": 0.5511811023622047,
          "duration": 0.010869565217390686
        },
        {
          "name": "D#2",
          "midi": 39,
          "time": 13.478260869565089,
          "velocity": 0.5196850393700787,
          "duration": 0.010869565217390686
        },
        {
          "name": "A1",
          "midi": 33,
          "time": 13.49999999999987,
          "velocity": 0.5118110236220472,
          "duration": 0.010869565217390686
        },
        {
          "name": "G#1",
          "midi": 32,
          "time": 13.510869565217261,
          "velocity": 0.5196850393700787,
          "duration": 0.010869565217390686
        },
        {
          "name": "C#5",
          "midi": 73,
          "time": 13.510869565217261,
          "velocity": 0.14173228346456693,
          "duration": 0.05434782608695343
        },
        {
          "name": "G1",
          "midi": 31,
          "time": 13.521739130434652,
          "velocity": 0.5118110236220472,
          "duration": 0.021739130434781373
        },
        {
          "name": "G#5",
          "midi": 80,
          "time": 13.521739130434652,
          "velocity": 0.25984251968503935,
          "duration": 0.08695652173912727
        },
        {
          "name": "A#5",
          "midi": 82,
          "time": 13.532608695652042,
          "velocity": 0.14173228346456693,
          "duration": 0.0652173913043459
        },
        {
          "name": "F#1",
          "midi": 30,
          "time": 13.543478260869433,
          "velocity": 0.4330708661417323,
          "duration": 0.021739130434781373
        },
        {
          "name": "D#6",
          "midi": 87,
          "time": 13.554347826086824,
          "velocity": 0.10236220472440945,
          "duration": 0.032608695652173836
        },
        {
          "name": "C5",
          "midi": 72,
          "time": 13.565217391304214,
          "velocity": 0.13385826771653545,
          "duration": 0.032608695652173836
        },
        {
          "name": "F#1",
          "midi": 30,
          "time": 13.608695652173779,
          "velocity": 0.41732283464566927,
          "duration": 0.021739130434781373
        },
        {
          "name": "C4",
          "midi": 60,
          "time": 13.61956521739117,
          "velocity": 0.29133858267716534,
          "duration": 0.04347826086956452
        },
        {
          "name": "G#1",
          "midi": 32,
          "time": 13.63043478260856,
          "velocity": 0.5118110236220472,
          "duration": 0.02173913043478315
        },
        {
          "name": "F4",
          "midi": 65,
          "time": 13.63043478260856,
          "velocity": 0.12598425196850394,
          "duration": 0.032608695652173836
        },
        {
          "name": "B6",
          "midi": 95,
          "time": 13.63043478260856,
          "velocity": 0.11811023622047244,
          "duration": 0.04347826086956452
        },
        {
          "name": "G1",
          "midi": 31,
          "time": 13.652173913043343,
          "velocity": 0.5275590551181102,
          "duration": 0.010869565217390686
        },
        {
          "name": "C#5",
          "midi": 73,
          "time": 13.652173913043343,
          "velocity": 0.28346456692913385,
          "duration": 0.09782608695651795
        },
        {
          "name": "F#5",
          "midi": 78,
          "time": 13.652173913043343,
          "velocity": 0.14173228346456693,
          "duration": 0.08695652173912727
        },
        {
          "name": "G#5",
          "midi": 80,
          "time": 13.652173913043343,
          "velocity": 0.3228346456692913,
          "duration": 0.11956521739129933
        },
        {
          "name": "C6",
          "midi": 84,
          "time": 13.652173913043343,
          "velocity": 0.23622047244094488,
          "duration": 0.10869565217390864
        },
        {
          "name": "G#1",
          "midi": 32,
          "time": 13.663043478260734,
          "velocity": 0.5511811023622047,
          "duration": 0.03260869565217206
        },
        {
          "name": "A#5",
          "midi": 82,
          "time": 13.663043478260734,
          "velocity": 0.31496062992125984,
          "duration": 0.09782608695651795
        },
        {
          "name": "E6",
          "midi": 88,
          "time": 13.673913043478125,
          "velocity": 0.14173228346456693,
          "duration": 0.05434782608695521
        },
        {
          "name": "D#5",
          "midi": 75,
          "time": 13.684782608695516,
          "velocity": 0.14173228346456693,
          "duration": 0.05434782608695521
        },
        {
          "name": "G1",
          "midi": 31,
          "time": 13.695652173912906,
          "velocity": 0.5511811023622047,
          "duration": 0.04347826086956452
        },
        {
          "name": "B1",
          "midi": 35,
          "time": 13.749999999999861,
          "velocity": 0.41732283464566927,
          "duration": 0.021739130434781373
        },
        {
          "name": "D#6",
          "midi": 87,
          "time": 13.771739130434643,
          "velocity": 0.1889763779527559,
          "duration": 0.2391304347826022
        },
        {
          "name": "C4",
          "midi": 60,
          "time": 13.782608695652034,
          "velocity": 0.31496062992125984,
          "duration": 0.03260869565217206
        },
        {
          "name": "G1",
          "midi": 31,
          "time": 13.793478260869424,
          "velocity": 0.5590551181102362,
          "duration": 0.22826086956521152
        },
        {
          "name": "C6",
          "midi": 84,
          "time": 13.793478260869424,
          "velocity": 0.2283464566929134,
          "duration": 0.22826086956521152
        },
        {
          "name": "G6",
          "midi": 91,
          "time": 13.793478260869424,
          "velocity": 0.08661417322834646,
          "duration": 0.05434782608695343
        },
        {
          "name": "B6",
          "midi": 95,
          "time": 13.793478260869424,
          "velocity": 0.07086614173228346,
          "duration": 0.03260869565217206
        },
        {
          "name": "C#5",
          "midi": 73,
          "time": 13.804347826086815,
          "velocity": 0.23622047244094488,
          "duration": 0.1195652173913011
        },
        {
          "name": "F#5",
          "midi": 78,
          "time": 13.804347826086815,
          "velocity": 0.1732283464566929,
          "duration": 0.0652173913043459
        },
        {
          "name": "A#5",
          "midi": 82,
          "time": 13.804347826086815,
          "velocity": 0.3543307086614173,
          "duration": 0.20652173913043015
        },
        {
          "name": "C#6",
          "midi": 85,
          "time": 13.804347826086815,
          "velocity": 0.23622047244094488,
          "duration": 0.22826086956521152
        },
        {
          "name": "F7",
          "midi": 101,
          "time": 13.804347826086815,
          "velocity": 0.11023622047244094,
          "duration": 0.043478260869562746
        },
        {
          "name": "E5",
          "midi": 76,
          "time": 13.815217391304206,
          "velocity": 0.14173228346456693,
          "duration": 0.03260869565217206
        },
        {
          "name": "G#5",
          "midi": 80,
          "time": 13.815217391304206,
          "velocity": 0.29133858267716534,
          "duration": 0.20652173913043015
        },
        {
          "name": "E7",
          "midi": 100,
          "time": 13.836956521738987,
          "velocity": 0.10236220472440945,
          "duration": 0.04347826086956452
        },
        {
          "name": "D#5",
          "midi": 75,
          "time": 13.847826086956378,
          "velocity": 0.13385826771653545,
          "duration": 0.1739130434782581
        },
        {
          "name": "C5",
          "midi": 72,
          "time": 13.923913043478116,
          "velocity": 0.2125984251968504,
          "duration": 0.08695652173912904
        },
        {
          "name": "F#5",
          "midi": 78,
          "time": 13.95652173913029,
          "velocity": 0.18110236220472442,
          "duration": 0.05434782608695521
        },
        {
          "name": "E6",
          "midi": 88,
          "time": 13.95652173913029,
          "velocity": 0.07086614173228346,
          "duration": 0.03260869565217206
        },
        {
          "name": "E7",
          "midi": 100,
          "time": 13.95652173913029,
          "velocity": 0.12598425196850394,
          "duration": 0.0652173913043459
        },
        {
          "name": "F6",
          "midi": 89,
          "time": 13.96739130434768,
          "velocity": 0.10236220472440945,
          "duration": 0.07608695652173658
        },
        {
          "name": "D3",
          "midi": 50,
          "time": 13.978260869565071,
          "velocity": 0.14173228346456693,
          "duration": 0.04347826086956452
        },
        {
          "name": "B3",
          "midi": 59,
          "time": 13.989130434782462,
          "velocity": 0.28346456692913385,
          "duration": 0.02173913043478315
        },
        {
          "name": "E4",
          "midi": 64,
          "time": 13.989130434782462,
          "velocity": 0.25984251968503935,
          "duration": 0.032608695652173836
        },
        {
          "name": "A#3",
          "midi": 58,
          "time": 14.010869565217245,
          "velocity": 0.4015748031496063,
          "duration": 0.03260869565217206
        },
        {
          "name": "F#1",
          "midi": 30,
          "time": 14.021739130434636,
          "velocity": 0.48031496062992124,
          "duration": 0.021739130434781373
        },
        {
          "name": "E3",
          "midi": 52,
          "time": 14.032608695652026,
          "velocity": 0.30708661417322836,
          "duration": 0.021739130434781373
        },
        {
          "name": "B3",
          "midi": 59,
          "time": 14.054347826086808,
          "velocity": 0.47244094488188976,
          "duration": 0.021739130434781373
        },
        {
          "name": "F#4",
          "midi": 66,
          "time": 14.054347826086808,
          "velocity": 0.33858267716535434,
          "duration": 0.021739130434781373
        },
        {
          "name": "C5",
          "midi": 72,
          "time": 14.054347826086808,
          "velocity": 0.29133858267716534,
          "duration": 0.04347826086956452
        },
        {
          "name": "F5",
          "midi": 77,
          "time": 14.054347826086808,
          "velocity": 0.1968503937007874,
          "duration": 0.04347826086956452
        },
        {
          "name": "D#6",
          "midi": 87,
          "time": 14.054347826086808,
          "velocity": 0.14173228346456693,
          "duration": 0.05434782608695521
        },
        {
          "name": "G6",
          "midi": 91,
          "time": 14.065217391304198,
          "velocity": 0.07086614173228346,
          "duration": 0.032608695652173836
        },
        {
          "name": "A3",
          "midi": 57,
          "time": 14.07608695652159,
          "velocity": 0.5984251968503937,
          "duration": 0.04347826086956452
        },
        {
          "name": "G1",
          "midi": 31,
          "time": 14.097826086956372,
          "velocity": 0.5433070866141733,
          "duration": 0.22826086956520975
        },
        {
          "name": "G#3",
          "midi": 56,
          "time": 14.119565217391154,
          "velocity": 0.5275590551181102,
          "duration": 0.05434782608695343
        },
        {
          "name": "F7",
          "midi": 101,
          "time": 14.130434782608544,
          "velocity": 0.08661417322834646,
          "duration": 0.03260869565217206
        },
        {
          "name": "E5",
          "midi": 76,
          "time": 14.141304347825935,
          "velocity": 0.08661417322834646,
          "duration": 0.03260869565217206
        },
        {
          "name": "A#5",
          "midi": 82,
          "time": 14.152173913043326,
          "velocity": 0.2283464566929134,
          "duration": 0.14130434782608425
        },
        {
          "name": "C#5",
          "midi": 73,
          "time": 14.184782608695498,
          "velocity": 0.11023622047244094,
          "duration": 0.032608695652173836
        },
        {
          "name": "F#5",
          "midi": 78,
          "time": 14.184782608695498,
          "velocity": 0.18110236220472442,
          "duration": 0.14130434782608425
        },
        {
          "name": "C6",
          "midi": 84,
          "time": 14.184782608695498,
          "velocity": 0.2204724409448819,
          "duration": 0.15217391304347494
        },
        {
          "name": "C#6",
          "midi": 85,
          "time": 14.184782608695498,
          "velocity": 0.28346456692913385,
          "duration": 0.16304347826086563
        },
        {
          "name": "D#5",
          "midi": 75,
          "time": 14.206521739130281,
          "velocity": 0.25984251968503935,
          "duration": 0.10869565217391042
        },
        {
          "name": "E6",
          "midi": 88,
          "time": 14.206521739130281,
          "velocity": 0.1732283464566929,
          "duration": 0.1304347826086918
        },
        {
          "name": "C5",
          "midi": 72,
          "time": 14.217391304347672,
          "velocity": 0.2125984251968504,
          "duration": 0.09782608695651973
        },
        {
          "name": "F6",
          "midi": 89,
          "time": 14.249999999999845,
          "velocity": 0.07874015748031496,
          "duration": 0.04347826086956452
        },
        {
          "name": "B3",
          "midi": 59,
          "time": 14.29347826086941,
          "velocity": 0.2755905511811024,
          "duration": 0.021739130434781373
        },
        {
          "name": "E4",
          "midi": 64,
          "time": 14.29347826086941,
          "velocity": 0.2755905511811024,
          "duration": 0.043478260869562746
        },
        {
          "name": "B6",
          "midi": 95,
          "time": 14.3043478260868,
          "velocity": 0.13385826771653545,
          "duration": 0.043478260869562746
        },
        {
          "name": "A#3",
          "midi": 58,
          "time": 14.315217391304191,
          "velocity": 0.4094488188976378,
          "duration": 0.021739130434781373
        },
        {
          "name": "F#1",
          "midi": 30,
          "time": 14.326086956521582,
          "velocity": 0.47244094488188976,
          "duration": 0.021739130434781373
        },
        {
          "name": "F1",
          "midi": 29,
          "time": 14.347826086956363,
          "velocity": 0.31496062992125984,
          "duration": 0.021739130434781373
        },
        {
          "name": "C5",
          "midi": 72,
          "time": 14.358695652173754,
          "velocity": 0.16535433070866143,
          "duration": 0.03260869565217206
        },
        {
          "name": "B2",
          "midi": 47,
          "time": 14.380434782608535,
          "velocity": 0.5433070866141733,
          "duration": 0.010869565217390686
        },
        {
          "name": "G2",
          "midi": 43,
          "time": 14.391304347825926,
          "velocity": 0.5433070866141733,
          "duration": 0.010869565217390686
        },
        {
          "name": "C#2",
          "midi": 37,
          "time": 14.402173913043317,
          "velocity": 0.5118110236220472,
          "duration": 0.010869565217390686
        },
        {
          "name": "A#5",
          "midi": 82,
          "time": 14.43478260869549,
          "velocity": 0.28346456692913385,
          "duration": 0.18478260869564878
        },
        {
          "name": "C#5",
          "midi": 73,
          "time": 14.445652173912881,
          "velocity": 0.10236220472440945,
          "duration": 0.08695652173912904
        },
        {
          "name": "G#5",
          "midi": 80,
          "time": 14.445652173912881,
          "velocity": 0.2440944881889764,
          "duration": 0.18478260869564878
        },
        {
          "name": "E1",
          "midi": 28,
          "time": 14.456521739130272,
          "velocity": 0.4015748031496063,
          "duration": 0.02173913043478315
        },
        {
          "name": "C6",
          "midi": 84,
          "time": 14.456521739130272,
          "velocity": 0.2440944881889764,
          "duration": 0.18478260869564878
        },
        {
          "name": "F#1",
          "midi": 30,
          "time": 14.489130434782446,
          "velocity": 0.5118110236220472,
          "duration": 0.04347826086956452
        },
        {
          "name": "D#6",
          "midi": 87,
          "time": 14.489130434782446,
          "velocity": 0.12598425196850394,
          "duration": 0.14130434782608425
        },
        {
          "name": "G1",
          "midi": 31,
          "time": 14.53260869565201,
          "velocity": 0.5433070866141733,
          "duration": 0.1195652173913011
        },
        {
          "name": "C5",
          "midi": 72,
          "time": 14.53260869565201,
          "velocity": 0.1968503937007874,
          "duration": 0.08695652173912904
        },
        {
          "name": "F#5",
          "midi": 78,
          "time": 14.554347826086794,
          "velocity": 0.2047244094488189,
          "duration": 0.07608695652173658
        },
        {
          "name": "D3",
          "midi": 50,
          "time": 14.576086956521577,
          "velocity": 0.1889763779527559,
          "duration": 0.06521739130434412
        },
        {
          "name": "A6",
          "midi": 93,
          "time": 14.576086956521577,
          "velocity": 0.08661417322834646,
          "duration": 0.043478260869562746
        },
        {
          "name": "E7",
          "midi": 100,
          "time": 14.576086956521577,
          "velocity": 0.11811023622047244,
          "duration": 0.06521739130434412
        },
        {
          "name": "C#6",
          "midi": 85,
          "time": 14.586956521738967,
          "velocity": 0.09448818897637795,
          "duration": 0.05434782608695343
        },
        {
          "name": "B3",
          "midi": 59,
          "time": 14.597826086956358,
          "velocity": 0.3228346456692913,
          "duration": 0.03260869565217206
        },
        {
          "name": "E4",
          "midi": 64,
          "time": 14.608695652173749,
          "velocity": 0.28346456692913385,
          "duration": 0.03260869565217206
        },
        {
          "name": "D#4",
          "midi": 63,
          "time": 14.663043478260702,
          "velocity": 0.23622047244094488,
          "duration": 0.02173913043478315
        },
        {
          "name": "B4",
          "midi": 71,
          "time": 14.663043478260702,
          "velocity": 0.16535433070866143,
          "duration": 0.054347826086956985
        },
        {
          "name": "B2",
          "midi": 47,
          "time": 14.684782608695485,
          "velocity": 0.5354330708661418,
          "duration": 0.010869565217390686
        },
        {
          "name": "G#3",
          "midi": 56,
          "time": 14.684782608695485,
          "velocity": 0.2992125984251969,
          "duration": 0.032608695652173836
        },
        {
          "name": "D4",
          "midi": 62,
          "time": 14.684782608695485,
          "velocity": 0.1889763779527559,
          "duration": 0.04347826086956452
        },
        {
          "name": "A1",
          "midi": 33,
          "time": 14.695652173912876,
          "velocity": 0.5275590551181102,
          "duration": 0.032608695652173836
        },
        {
          "name": "A5",
          "midi": 81,
          "time": 14.71739130434766,
          "velocity": 0.14173228346456693,
          "duration": 0.032608695652173836
        },
        {
          "name": "G4",
          "midi": 67,
          "time": 14.72826086956505,
          "velocity": 0.2283464566929134,
          "duration": 0.04347826086956452
        },
        {
          "name": "F#1",
          "midi": 30,
          "time": 14.749999999999833,
          "velocity": 0.5196850393700787,
          "duration": 0.07608695652173658
        },
        {
          "name": "D3",
          "midi": 50,
          "time": 14.760869565217224,
          "velocity": 0.31496062992125984,
          "duration": 0.10869565217390864
        },
        {
          "name": "B4",
          "midi": 71,
          "time": 14.771739130434614,
          "velocity": 0.2440944881889764,
          "duration": 0.0652173913043459
        },
        {
          "name": "F5",
          "midi": 77,
          "time": 14.771739130434614,
          "velocity": 0.16535433070866143,
          "duration": 0.04347826086956452
        },
        {
          "name": "D5",
          "midi": 74,
          "time": 14.782608695652005,
          "velocity": 0.07086614173228346,
          "duration": 0.0652173913043459
        },
        {
          "name": "G1",
          "midi": 31,
          "time": 14.82608695652157,
          "velocity": 0.5118110236220472,
          "duration": 0.14130434782608248
        },
        {
          "name": "G4",
          "midi": 67,
          "time": 14.82608695652157,
          "velocity": 0.25984251968503935,
          "duration": 0.14130434782608248
        },
        {
          "name": "G#6",
          "midi": 92,
          "time": 14.847826086956351,
          "velocity": 0.07874015748031496,
          "duration": 0.03260869565217206
        },
        {
          "name": "B5",
          "midi": 83,
          "time": 14.858695652173742,
          "velocity": 0.14173228346456693,
          "duration": 0.08695652173912904
        },
        {
          "name": "B4",
          "midi": 71,
          "time": 14.891304347825914,
          "velocity": 0.14960629921259844,
          "duration": 0.08695652173912904
        },
        {
          "name": "F5",
          "midi": 77,
          "time": 14.891304347825914,
          "velocity": 0.14173228346456693,
          "duration": 0.07608695652173836
        },
        {
          "name": "A#5",
          "midi": 82,
          "time": 14.923913043478088,
          "velocity": 0.07086614173228346,
          "duration": 0.032608695652173836
        },
        {
          "name": "D3",
          "midi": 50,
          "time": 14.94565217391287,
          "velocity": 0.2992125984251969,
          "duration": 0.021739130434781373
        },
        {
          "name": "F#1",
          "midi": 30,
          "time": 14.967391304347652,
          "velocity": 0.5590551181102362,
          "duration": 0.021739130434781373
        },
        {
          "name": "D#4",
          "midi": 63,
          "time": 14.978260869565043,
          "velocity": 0.10236220472440945,
          "duration": 0.03260869565217206
        },
        {
          "name": "F1",
          "midi": 29,
          "time": 14.989130434782433,
          "velocity": 0.5590551181102362,
          "duration": 0.010869565217390686
        },
        {
          "name": "F#1",
          "midi": 30,
          "time": 14.999999999999824,
          "velocity": 0.5511811023622047,
          "duration": 0.010869565217390686
        },
        {
          "name": "G1",
          "midi": 31,
          "time": 15.010869565217215,
          "velocity": 0.5433070866141733,
          "duration": 0.10869565217391042
        },
        {
          "name": "G4",
          "midi": 67,
          "time": 15.010869565217215,
          "velocity": 0.2125984251968504,
          "duration": 0.04347826086956452
        },
        {
          "name": "D5",
          "midi": 74,
          "time": 15.010869565217215,
          "velocity": 0.11023622047244094,
          "duration": 0.05434782608695521
        },
        {
          "name": "G5",
          "midi": 79,
          "time": 15.010869565217215,
          "velocity": 0.2440944881889764,
          "duration": 0.0652173913043459
        },
        {
          "name": "F5",
          "midi": 77,
          "time": 15.021739130434606,
          "velocity": 0.07874015748031496,
          "duration": 0.032608695652173836
        },
        {
          "name": "B5",
          "midi": 83,
          "time": 15.032608695651996,
          "velocity": 0.11811023622047244,
          "duration": 0.07608695652173836
        },
        {
          "name": "G4",
          "midi": 67,
          "time": 15.06521739130417,
          "velocity": 0.2204724409448819,
          "duration": 0.09782608695651795
        },
        {
          "name": "B4",
          "midi": 71,
          "time": 15.06521739130417,
          "velocity": 0.1968503937007874,
          "duration": 0.032608695652173836
        },
        {
          "name": "D5",
          "midi": 74,
          "time": 15.07608695652156,
          "velocity": 0.14960629921259844,
          "duration": 0.032608695652173836
        },
        {
          "name": "D3",
          "midi": 50,
          "time": 15.108695652173735,
          "velocity": 0.3464566929133858,
          "duration": 0.021739130434781373
        },
        {
          "name": "B4",
          "midi": 71,
          "time": 15.108695652173735,
          "velocity": 0.15748031496062992,
          "duration": 0.043478260869562746
        },
        {
          "name": "G#1",
          "midi": 32,
          "time": 15.119565217391125,
          "velocity": 0.5354330708661418,
          "duration": 0.010869565217390686
        },
        {
          "name": "A1",
          "midi": 33,
          "time": 15.130434782608516,
          "velocity": 0.5511811023622047,
          "duration": 0.021739130434781373
        },
        {
          "name": "D#4",
          "midi": 63,
          "time": 15.141304347825907,
          "velocity": 0.23622047244094488,
          "duration": 0.043478260869562746
        },
        {
          "name": "G#1",
          "midi": 32,
          "time": 15.152173913043297,
          "velocity": 0.5511811023622047,
          "duration": 0.1304347826086918
        },
        {
          "name": "C5",
          "midi": 72,
          "time": 15.152173913043297,
          "velocity": 0.1889763779527559,
          "duration": 0.1195652173913011
        },
        {
          "name": "G#5",
          "midi": 80,
          "time": 15.173913043478079,
          "velocity": 0.2047244094488189,
          "duration": 0.05434782608695521
        },
        {
          "name": "D#5",
          "midi": 75,
          "time": 15.18478260869547,
          "velocity": 0.18110236220472442,
          "duration": 0.05434782608695521
        },
        {
          "name": "D#4",
          "midi": 63,
          "time": 15.19565217391286,
          "velocity": 0.2125984251968504,
          "duration": 0.07608695652173836
        },
        {
          "name": "D#3",
          "midi": 51,
          "time": 15.217391304347643,
          "velocity": 0.3228346456692913,
          "duration": 0.05434782608695521
        },
        {
          "name": "A#5",
          "midi": 82,
          "time": 15.228260869565034,
          "velocity": 0.13385826771653545,
          "duration": 0.032608695652173836
        },
        {
          "name": "F#4",
          "midi": 66,
          "time": 15.271739130434598,
          "velocity": 0.28346456692913385,
          "duration": 0.03260869565217206
        },
        {
          "name": "G#5",
          "midi": 80,
          "time": 15.271739130434598,
          "velocity": 0.13385826771653545,
          "duration": 0.05434782608695343
        },
        {
          "name": "D#5",
          "midi": 75,
          "time": 15.282608695651989,
          "velocity": 0.14173228346456693,
          "duration": 0.03260869565217206
        },
        {
          "name": "A6",
          "midi": 93,
          "time": 15.282608695651989,
          "velocity": 0.09448818897637795,
          "duration": 0.03260869565217206
        },
        {
          "name": "F7",
          "midi": 101,
          "time": 15.282608695651989,
          "velocity": 0.09448818897637795,
          "duration": 0.03260869565217206
        },
        {
          "name": "A#3",
          "midi": 58,
          "time": 15.29347826086938,
          "velocity": 0.5511811023622047,
          "duration": 0.010869565217390686
        },
        {
          "name": "A3",
          "midi": 57,
          "time": 15.30434782608677,
          "velocity": 0.5905511811023622,
          "duration": 0.043478260869562746
        },
        {
          "name": "G4",
          "midi": 67,
          "time": 15.30434782608677,
          "velocity": 0.2125984251968504,
          "duration": 0.10869565217390686
        },
        {
          "name": "G1",
          "midi": 31,
          "time": 15.326086956521552,
          "velocity": 0.5275590551181102,
          "duration": 0.2608695652173818
        },
        {
          "name": "D#5",
          "midi": 75,
          "time": 15.326086956521552,
          "velocity": 0.12598425196850394,
          "duration": 0.03260869565217206
        },
        {
          "name": "F5",
          "midi": 77,
          "time": 15.336956521738943,
          "velocity": 0.11023622047244094,
          "duration": 0.03260869565217206
        },
        {
          "name": "A5",
          "midi": 81,
          "time": 15.336956521738943,
          "velocity": 0.08661417322834646,
          "duration": 0.03260869565217206
        },
        {
          "name": "E7",
          "midi": 100,
          "time": 15.336956521738943,
          "velocity": 0.12598425196850394,
          "duration": 0.06521739130434412
        },
        {
          "name": "G#3",
          "midi": 56,
          "time": 15.347826086956333,
          "velocity": 0.47244094488188976,
          "duration": 0.043478260869562746
        },
        {
          "name": "B5",
          "midi": 83,
          "time": 15.358695652173724,
          "velocity": 0.07874015748031496,
          "duration": 0.08695652173912549
        },
        {
          "name": "A6",
          "midi": 93,
          "time": 15.358695652173724,
          "velocity": 0.13385826771653545,
          "duration": 0.03260869565217206
        },
        {
          "name": "A#6",
          "midi": 94,
          "time": 15.358695652173724,
          "velocity": 0.08661417322834646,
          "duration": 0.043478260869562746
        },
        {
          "name": "B4",
          "midi": 71,
          "time": 15.380434782608505,
          "velocity": 0.2677165354330709,
          "duration": 0.09782608695651795
        },
        {
          "name": "F5",
          "midi": 77,
          "time": 15.391304347825896,
          "velocity": 0.12598425196850394,
          "duration": 0.043478260869562746
        },
        {
          "name": "G4",
          "midi": 67,
          "time": 15.423913043478068,
          "velocity": 0.25196850393700787,
          "duration": 0.15217391304347494
        },
        {
          "name": "D4",
          "midi": 62,
          "time": 15.434782608695459,
          "velocity": 0.25984251968503935,
          "duration": 0.184782608695647
        },
        {
          "name": "A5",
          "midi": 81,
          "time": 15.478260869565023,
          "velocity": 0.08661417322834646,
          "duration": 0.05434782608695521
        },
        {
          "name": "B4",
          "midi": 71,
          "time": 15.489130434782414,
          "velocity": 0.18110236220472442,
          "duration": 0.09782608695651973
        },
        {
          "name": "D3",
          "midi": 50,
          "time": 15.565217391304152,
          "velocity": 0.28346456692913385,
          "duration": 0.021739130434781373
        },
        {
          "name": "B1",
          "midi": 35,
          "time": 15.597826086956324,
          "velocity": 0.5275590551181102,
          "duration": 0.010869565217390686
        },
        {
          "name": "E5",
          "midi": 76,
          "time": 15.597826086956324,
          "velocity": 0.12598425196850394,
          "duration": 0.03260869565217206
        },
        {
          "name": "G#1",
          "midi": 32,
          "time": 15.608695652173715,
          "velocity": 0.5433070866141733,
          "duration": 0.010869565217390686
        },
        {
          "name": "G1",
          "midi": 31,
          "time": 15.619565217391106,
          "velocity": 0.5354330708661418,
          "duration": 0.26086956521739246
        },
        {
          "name": "G4",
          "midi": 67,
          "time": 15.630434782608496,
          "velocity": 0.2677165354330709,
          "duration": 0.45652173913043015
        },
        {
          "name": "A5",
          "midi": 81,
          "time": 15.630434782608496,
          "velocity": 0.14960629921259844,
          "duration": 0.0434782608695663
        },
        {
          "name": "B5",
          "midi": 83,
          "time": 15.65217391304328,
          "velocity": 0.08661417322834646,
          "duration": 0.054347826086956985
        },
        {
          "name": "D4",
          "midi": 62,
          "time": 15.673913043478063,
          "velocity": 0.2755905511811024,
          "duration": 0.21739130434782616
        },
        {
          "name": "B4",
          "midi": 71,
          "time": 15.673913043478063,
          "velocity": 0.2677165354330709,
          "duration": 0.11956521739130466
        },
        {
          "name": "E5",
          "midi": 76,
          "time": 15.673913043478063,
          "velocity": 0.13385826771653545,
          "duration": 0.032608695652173836
        },
        {
          "name": "F#5",
          "midi": 78,
          "time": 15.706521739130237,
          "velocity": 0.11023622047244094,
          "duration": 0.032608695652173836
        },
        {
          "name": "B4",
          "midi": 71,
          "time": 15.81521739130415,
          "velocity": 0.18110236220472442,
          "duration": 0.16304347826086563
        },
        {
          "name": "F#1",
          "midi": 30,
          "time": 15.880434782608498,
          "velocity": 0.5039370078740157,
          "duration": 0.021739130434781373
        },
        {
          "name": "F#2",
          "midi": 42,
          "time": 15.880434782608498,
          "velocity": 0.5590551181102362,
          "duration": 0.03260869565217206
        },
        {
          "name": "E5",
          "midi": 76,
          "time": 15.880434782608498,
          "velocity": 0.11811023622047244,
          "duration": 0.03260869565217206
        },
        {
          "name": "A#3",
          "midi": 58,
          "time": 15.90217391304328,
          "velocity": 0.2677165354330709,
          "duration": 0.021739130434781373
        },
        {
          "name": "A5",
          "midi": 81,
          "time": 15.934782608695452,
          "velocity": 0.1889763779527559,
          "duration": 0.04347826086956452
        },
        {
          "name": "D5",
          "midi": 74,
          "time": 15.956521739130235,
          "velocity": 0.1889763779527559,
          "duration": 0.09782608695651973
        },
        {
          "name": "G1",
          "midi": 31,
          "time": 15.967391304347625,
          "velocity": 0.4330708661417323,
          "duration": 0.021739130434781373
        },
        {
          "name": "G2",
          "midi": 43,
          "time": 15.989130434782407,
          "velocity": 0.2755905511811024,
          "duration": 0.021739130434781373
        },
        {
          "name": "B4",
          "midi": 71,
          "time": 15.989130434782407,
          "velocity": 0.25984251968503935,
          "duration": 0.07608695652173836
        },
        {
          "name": "D4",
          "midi": 62,
          "time": 15.999999999999797,
          "velocity": 0.2125984251968504,
          "duration": 0.054347826086956985
        },
        {
          "name": "F5",
          "midi": 77,
          "time": 15.999999999999797,
          "velocity": 0.14173228346456693,
          "duration": 0.0434782608695663
        },
        {
          "name": "G3",
          "midi": 55,
          "time": 16.010869565217188,
          "velocity": 0.14960629921259844,
          "duration": 0.03260869565217561
        },
        {
          "name": "A#1",
          "midi": 34,
          "time": 16.065217391304145,
          "velocity": 0.5196850393700787,
          "duration": 0.010869565217390686
        },
        {
          "name": "G#2",
          "midi": 44,
          "time": 16.065217391304145,
          "velocity": 0.3700787401574803,
          "duration": 0.021739130434781373
        },
        {
          "name": "G#1",
          "midi": 32,
          "time": 16.076086956521536,
          "velocity": 0.5511811023622047,
          "duration": 0.11956521739129755
        },
        {
          "name": "D#4",
          "midi": 63,
          "time": 16.076086956521536,
          "velocity": 0.2125984251968504,
          "duration": 0.03260869565217206
        },
        {
          "name": "C5",
          "midi": 72,
          "time": 16.076086956521536,
          "velocity": 0.2125984251968504,
          "duration": 0.05434782608695343
        },
        {
          "name": "G#5",
          "midi": 80,
          "time": 16.076086956521536,
          "velocity": 0.11023622047244094,
          "duration": 0.043478260869562746
        },
        {
          "name": "D#3",
          "midi": 51,
          "time": 16.086956521738927,
          "velocity": 0.30708661417322836,
          "duration": 0.08695652173912549
        },
        {
          "name": "D#5",
          "midi": 75,
          "time": 16.108695652173708,
          "velocity": 0.2283464566929134,
          "duration": 0.08695652173912549
        },
        {
          "name": "G5",
          "midi": 79,
          "time": 16.108695652173708,
          "velocity": 0.11811023622047244,
          "duration": 0.05434782608695343
        },
        {
          "name": "G#4",
          "midi": 68,
          "time": 16.1195652173911,
          "velocity": 0.1968503937007874,
          "duration": 0.13043478260868824
        },
        {
          "name": "A#5",
          "midi": 82,
          "time": 16.1195652173911,
          "velocity": 0.14173228346456693,
          "duration": 0.0760869565217348
        },
        {
          "name": "G#6",
          "midi": 92,
          "time": 16.1195652173911,
          "velocity": 0.13385826771653545,
          "duration": 0.043478260869562746
        },
        {
          "name": "C5",
          "midi": 72,
          "time": 16.14130434782588,
          "velocity": 0.1732283464566929,
          "duration": 0.08695652173912549
        },
        {
          "name": "G1",
          "midi": 31,
          "time": 16.195652173912833,
          "velocity": 0.5196850393700787,
          "duration": 0.010869565217390686
        },
        {
          "name": "D#1",
          "midi": 27,
          "time": 16.217391304347615,
          "velocity": 0.5118110236220472,
          "duration": 0.010869565217390686
        },
        {
          "name": "G1",
          "midi": 31,
          "time": 16.228260869565005,
          "velocity": 0.5433070866141733,
          "duration": 0.27173913043477427
        },
        {
          "name": "B4",
          "midi": 71,
          "time": 16.228260869565005,
          "velocity": 0.15748031496062992,
          "duration": 0.03260869565217206
        },
        {
          "name": "F5",
          "midi": 77,
          "time": 16.239130434782396,
          "velocity": 0.12598425196850394,
          "duration": 0.043478260869562746
        },
        {
          "name": "G5",
          "midi": 79,
          "time": 16.239130434782396,
          "velocity": 0.2204724409448819,
          "duration": 0.06521739130434412
        },
        {
          "name": "A5",
          "midi": 81,
          "time": 16.249999999999787,
          "velocity": 0.14960629921259844,
          "duration": 0.05434782608695343
        },
        {
          "name": "B5",
          "midi": 83,
          "time": 16.249999999999787,
          "velocity": 0.1732283464566929,
          "duration": 0.06521739130434412
        },
        {
          "name": "G4",
          "midi": 67,
          "time": 16.260869565217178,
          "velocity": 0.1889763779527559,
          "duration": 0.043478260869562746
        },
        {
          "name": "D5",
          "midi": 74,
          "time": 16.28260869565196,
          "velocity": 0.2125984251968504,
          "duration": 0.08695652173912904
        },
        {
          "name": "E5",
          "midi": 76,
          "time": 16.28260869565196,
          "velocity": 0.11023622047244094,
          "duration": 0.03260869565217206
        },
        {
          "name": "B4",
          "midi": 71,
          "time": 16.29347826086935,
          "velocity": 0.25984251968503935,
          "duration": 0.09782608695651973
        },
        {
          "name": "F5",
          "midi": 77,
          "time": 16.32608695652152,
          "velocity": 0.13385826771653545,
          "duration": 0.054347826086956985
        },
        {
          "name": "D4",
          "midi": 62,
          "time": 16.358695652173697,
          "velocity": 0.2677165354330709,
          "duration": 0.14130434782608248
        },
        {
          "name": "G5",
          "midi": 79,
          "time": 16.358695652173697,
          "velocity": 0.09448818897637795,
          "duration": 0.1195652173913011
        },
        {
          "name": "G4",
          "midi": 67,
          "time": 16.38043478260848,
          "velocity": 0.3228346456692913,
          "duration": 0.15217391304347316
        },
        {
          "name": "B4",
          "midi": 71,
          "time": 16.41304347826065,
          "velocity": 0.2047244094488189,
          "duration": 0.08695652173912904
        },
        {
          "name": "A6",
          "midi": 93,
          "time": 16.49999999999978,
          "velocity": 0.2125984251968504,
          "duration": 0.043478260869562746
        },
        {
          "name": "F7",
          "midi": 101,
          "time": 16.49999999999978,
          "velocity": 0.15748031496062992,
          "duration": 0.03260869565217206
        },
        {
          "name": "G7",
          "midi": 103,
          "time": 16.49999999999978,
          "velocity": 0.15748031496062992,
          "duration": 0.03260869565217206
        },
        {
          "name": "F6",
          "midi": 89,
          "time": 16.51086956521717,
          "velocity": 0.09448818897637795,
          "duration": 0.03260869565217206
        },
        {
          "name": "A#6",
          "midi": 94,
          "time": 16.51086956521717,
          "velocity": 0.08661417322834646,
          "duration": 0.03260869565217206
        },
        {
          "name": "A3",
          "midi": 57,
          "time": 16.52173913043456,
          "velocity": 0.5984251968503937,
          "duration": 0.05434782608695343
        },
        {
          "name": "B4",
          "midi": 71,
          "time": 16.532608695651952,
          "velocity": 0.2047244094488189,
          "duration": 0.03260869565217206
        },
        {
          "name": "D#6",
          "midi": 87,
          "time": 16.543478260869342,
          "velocity": 0.12598425196850394,
          "duration": 0.03260869565217206
        },
        {
          "name": "G1",
          "midi": 31,
          "time": 16.554347826086733,
          "velocity": 0.5354330708661418,
          "duration": 0.2499999999999929
        },
        {
          "name": "G5",
          "midi": 79,
          "time": 16.554347826086733,
          "velocity": 0.11811023622047244,
          "duration": 0.043478260869562746
        },
        {
          "name": "A5",
          "midi": 81,
          "time": 16.554347826086733,
          "velocity": 0.16535433070866143,
          "duration": 0.043478260869562746
        },
        {
          "name": "G#3",
          "midi": 56,
          "time": 16.576086956521515,
          "velocity": 0.41732283464566927,
          "duration": 0.03260869565217206
        },
        {
          "name": "G4",
          "midi": 67,
          "time": 16.576086956521515,
          "velocity": 0.2755905511811024,
          "duration": 0.22826086956521152
        },
        {
          "name": "D5",
          "midi": 74,
          "time": 16.576086956521515,
          "velocity": 0.2283464566929134,
          "duration": 0.09782608695651973
        },
        {
          "name": "A#6",
          "midi": 94,
          "time": 16.576086956521515,
          "velocity": 0.07874015748031496,
          "duration": 0.043478260869562746
        },
        {
          "name": "E7",
          "midi": 100,
          "time": 16.576086956521515,
          "velocity": 0.07874015748031496,
          "duration": 0.03260869565217206
        },
        {
          "name": "F5",
          "midi": 77,
          "time": 16.586956521738905,
          "velocity": 0.2283464566929134,
          "duration": 0.05434782608695343
        },
        {
          "name": "D4",
          "midi": 62,
          "time": 16.597826086956296,
          "velocity": 0.2755905511811024,
          "duration": 0.21739130434782084
        },
        {
          "name": "B4",
          "midi": 71,
          "time": 16.64130434782586,
          "velocity": 0.2440944881889764,
          "duration": 0.06521739130434767
        },
        {
          "name": "F5",
          "midi": 77,
          "time": 16.695652173912816,
          "velocity": 0.14173228346456693,
          "duration": 0.1304347826086918
        },
        {
          "name": "B4",
          "midi": 71,
          "time": 16.728260869564988,
          "velocity": 0.1732283464566929,
          "duration": 0.054347826086956985
        },
        {
          "name": "C2",
          "midi": 36,
          "time": 16.815217391304117,
          "velocity": 0.5275590551181102,
          "duration": 0.010869565217390686
        },
        {
          "name": "G#1",
          "midi": 32,
          "time": 16.826086956521507,
          "velocity": 0.5590551181102362,
          "duration": 0.010869565217390686
        },
        {
          "name": "F#1",
          "midi": 30,
          "time": 16.836956521738898,
          "velocity": 0.5590551181102362,
          "duration": 0.2608695652173907
        },
        {
          "name": "C#4",
          "midi": 61,
          "time": 16.836956521738898,
          "velocity": 0.18110236220472442,
          "duration": 0.054347826086956985
        },
        {
          "name": "A#4",
          "midi": 70,
          "time": 16.836956521738898,
          "velocity": 0.14173228346456693,
          "duration": 0.09782608695651973
        },
        {
          "name": "F#5",
          "midi": 78,
          "time": 16.836956521738898,
          "velocity": 0.1889763779527559,
          "duration": 0.06521739130434767
        },
        {
          "name": "C#5",
          "midi": 73,
          "time": 16.869565217391074,
          "velocity": 0.2204724409448819,
          "duration": 0.18478260869564878
        },
        {
          "name": "G#5",
          "midi": 80,
          "time": 16.869565217391074,
          "velocity": 0.14960629921259844,
          "duration": 0.09782608695651618
        },
        {
          "name": "F#4",
          "midi": 66,
          "time": 16.891304347825855,
          "velocity": 0.1889763779527559,
          "duration": 0.03260869565217206
        },
        {
          "name": "C#4",
          "midi": 61,
          "time": 16.913043478260636,
          "velocity": 0.15748031496062992,
          "duration": 0.03260869565217206
        },
        {
          "name": "F#5",
          "midi": 78,
          "time": 16.934782608695418,
          "velocity": 0.14960629921259844,
          "duration": 0.16304347826087096
        },
        {
          "name": "F#4",
          "midi": 66,
          "time": 16.94565217391281,
          "velocity": 0.2283464566929134,
          "duration": 0.16304347826087096
        },
        {
          "name": "A#4",
          "midi": 70,
          "time": 16.94565217391281,
          "velocity": 0.1889763779527559,
          "duration": 0.06521739130434767
        },
        {
          "name": "C#4",
          "midi": 61,
          "time": 16.9565217391302,
          "velocity": 0.3228346456692913,
          "duration": 0.15217391304348027
        },
        {
          "name": "A#4",
          "midi": 70,
          "time": 17.043478260869332,
          "velocity": 0.15748031496062992,
          "duration": 0.054347826086956985
        },
        {
          "name": "E5",
          "midi": 76,
          "time": 17.043478260869332,
          "velocity": 0.15748031496062992,
          "duration": 0.07608695652173836
        },
        {
          "name": "C5",
          "midi": 72,
          "time": 17.10869565217368,
          "velocity": 0.1732283464566929,
          "duration": 0.043478260869562746
        },
        {
          "name": "C#5",
          "midi": 73,
          "time": 17.10869565217368,
          "velocity": 0.1732283464566929,
          "duration": 0.03260869565217206
        },
        {
          "name": "C#3",
          "midi": 49,
          "time": 17.11956521739107,
          "velocity": 0.48031496062992124,
          "duration": 0.021739130434781373
        },
        {
          "name": "E4",
          "midi": 64,
          "time": 17.11956521739107,
          "velocity": 0.2204724409448819,
          "duration": 0.03260869565217206
        },
        {
          "name": "G#1",
          "midi": 32,
          "time": 17.152173913043242,
          "velocity": 0.5511811023622047,
          "duration": 0.010869565217390686
        },
        {
          "name": "B4",
          "midi": 71,
          "time": 17.152173913043242,
          "velocity": 0.11023622047244094,
          "duration": 0.03260869565217206
        },
        {
          "name": "A5",
          "midi": 81,
          "time": 17.152173913043242,
          "velocity": 0.14960629921259844,
          "duration": 0.06521739130434412
        },
        {
          "name": "A1",
          "midi": 33,
          "time": 17.163043478260633,
          "velocity": 0.5905511811023622,
          "duration": 0.010869565217390686
        },
        {
          "name": "F5",
          "midi": 77,
          "time": 17.163043478260633,
          "velocity": 0.07874015748031496,
          "duration": 0.03260869565217206
        },
        {
          "name": "B5",
          "midi": 83,
          "time": 17.163043478260633,
          "velocity": 0.15748031496062992,
          "duration": 0.0760869565217348
        },
        {
          "name": "G#1",
          "midi": 32,
          "time": 17.173913043478024,
          "velocity": 0.5905511811023622,
          "duration": 0.010869565217390686
        },
        {
          "name": "G4",
          "midi": 67,
          "time": 17.173913043478024,
          "velocity": 0.2283464566929134,
          "duration": 0.05434782608695343
        },
        {
          "name": "G1",
          "midi": 31,
          "time": 17.184782608695414,
          "velocity": 0.5826771653543307,
          "duration": 0.03260869565217206
        },
        {
          "name": "D5",
          "midi": 74,
          "time": 17.195652173912805,
          "velocity": 0.2677165354330709,
          "duration": 0.08695652173912549
        },
        {
          "name": "B4",
          "midi": 71,
          "time": 17.206521739130196,
          "velocity": 0.28346456692913385,
          "duration": 0.10869565217390686
        },
        {
          "name": "F#1",
          "midi": 30,
          "time": 17.217391304347586,
          "velocity": 0.5669291338582677,
          "duration": 0.021739130434781373
        },
        {
          "name": "F5",
          "midi": 77,
          "time": 17.217391304347586,
          "velocity": 0.12598425196850394,
          "duration": 0.0760869565217348
        },
        {
          "name": "G1",
          "midi": 31,
          "time": 17.239130434782368,
          "velocity": 0.5354330708661418,
          "duration": 0.03260869565217206
        },
        {
          "name": "G4",
          "midi": 67,
          "time": 17.239130434782368,
          "velocity": 0.13385826771653545,
          "duration": 0.03260869565217206
        },
        {
          "name": "D4",
          "midi": 62,
          "time": 17.26086956521715,
          "velocity": 0.2755905511811024,
          "duration": 0.16304347826086385
        },
        {
          "name": "G#1",
          "midi": 32,
          "time": 17.27173913043454,
          "velocity": 0.4881889763779528,
          "duration": 0.021739130434781373
        },
        {
          "name": "G4",
          "midi": 67,
          "time": 17.28260869565193,
          "velocity": 0.25196850393700787,
          "duration": 0.16304347826086385
        },
        {
          "name": "G1",
          "midi": 31,
          "time": 17.29347826086932,
          "velocity": 0.5433070866141733,
          "duration": 0.1195652173913011
        },
        {
          "name": "B4",
          "midi": 71,
          "time": 17.336956521738884,
          "velocity": 0.1968503937007874,
          "duration": 0.06521739130434767
        },
        {
          "name": "F5",
          "midi": 77,
          "time": 17.40217391304323,
          "velocity": 0.08661417322834646,
          "duration": 0.03260869565217206
        },
        {
          "name": "A1",
          "midi": 33,
          "time": 17.423913043478013,
          "velocity": 0.5669291338582677,
          "duration": 0.021739130434781373
        },
        {
          "name": "G1",
          "midi": 31,
          "time": 17.445652173912794,
          "velocity": 0.5669291338582677,
          "duration": 0.2717391304347778
        },
        {
          "name": "G5",
          "midi": 79,
          "time": 17.456521739130185,
          "velocity": 0.1968503937007874,
          "duration": 0.05434782608695343
        },
        {
          "name": "G4",
          "midi": 67,
          "time": 17.467391304347576,
          "velocity": 0.25984251968503935,
          "duration": 0.24999999999999645
        },
        {
          "name": "A5",
          "midi": 81,
          "time": 17.467391304347576,
          "velocity": 0.16535433070866143,
          "duration": 0.043478260869562746
        },
        {
          "name": "B5",
          "midi": 83,
          "time": 17.478260869564966,
          "velocity": 0.11811023622047244,
          "duration": 0.08695652173912904
        },
        {
          "name": "D5",
          "midi": 74,
          "time": 17.489130434782357,
          "velocity": 0.25196850393700787,
          "duration": 0.08695652173912904
        },
        {
          "name": "F#5",
          "midi": 78,
          "time": 17.51086956521714,
          "velocity": 0.12598425196850394,
          "duration": 0.054347826086956985
        },
        {
          "name": "F5",
          "midi": 77,
          "time": 17.52173913043453,
          "velocity": 0.1889763779527559,
          "duration": 0.0434782608695663
        },
        {
          "name": "D4",
          "midi": 62,
          "time": 17.554347826086705,
          "velocity": 0.29133858267716534,
          "duration": 0.1739130434782581
        },
        {
          "name": "B4",
          "midi": 71,
          "time": 17.554347826086705,
          "velocity": 0.2440944881889764,
          "duration": 0.07608695652173836
        },
        {
          "name": "F5",
          "midi": 77,
          "time": 17.60869565217366,
          "velocity": 0.13385826771653545,
          "duration": 0.043478260869562746
        },
        {
          "name": "B4",
          "midi": 71,
          "time": 17.652173913043224,
          "velocity": 0.1732283464566929,
          "duration": 0.054347826086956985
        },
        {
          "name": "B3",
          "midi": 59,
          "time": 17.717391304347572,
          "velocity": 0.3700787401574803,
          "duration": 0.021739130434781373
        },
        {
          "name": "D#5",
          "midi": 75,
          "time": 17.717391304347572,
          "velocity": 0.2047244094488189,
          "duration": 0.03260869565217206
        },
        {
          "name": "G#6",
          "midi": 92,
          "time": 17.717391304347572,
          "velocity": 0.2125984251968504,
          "duration": 0.03260869565217206
        },
        {
          "name": "A6",
          "midi": 93,
          "time": 17.717391304347572,
          "velocity": 0.18110236220472442,
          "duration": 0.03260869565217206
        },
        {
          "name": "D7",
          "midi": 98,
          "time": 17.717391304347572,
          "velocity": 0.16535433070866143,
          "duration": 0.03260869565217206
        },
        {
          "name": "E1",
          "midi": 28,
          "time": 17.728260869564963,
          "velocity": 0.44881889763779526,
          "duration": 0.021739130434781373
        },
        {
          "name": "G2",
          "midi": 43,
          "time": 17.728260869564963,
          "velocity": 0.3858267716535433,
          "duration": 0.021739130434781373
        },
        {
          "name": "F#4",
          "midi": 66,
          "time": 17.728260869564963,
          "velocity": 0.30708661417322836,
          "duration": 0.043478260869562746
        },
        {
          "name": "A4",
          "midi": 69,
          "time": 17.728260869564963,
          "velocity": 0.2440944881889764,
          "duration": 0.021739130434781373
        },
        {
          "name": "C5",
          "midi": 72,
          "time": 17.728260869564963,
          "velocity": 0.2440944881889764,
          "duration": 0.021739130434781373
        },
        {
          "name": "F6",
          "midi": 89,
          "time": 17.728260869564963,
          "velocity": 0.14960629921259844,
          "duration": 0.05434782608695343
        },
        {
          "name": "E7",
          "midi": 100,
          "time": 17.728260869564963,
          "velocity": 0.11023622047244094,
          "duration": 0.03260869565217206
        },
        {
          "name": "G7",
          "midi": 103,
          "time": 17.728260869564963,
          "velocity": 0.13385826771653545,
          "duration": 0.03260869565217206
        },
        {
          "name": "A#3",
          "midi": 58,
          "time": 17.739130434782354,
          "velocity": 0.5433070866141733,
          "duration": 0.010869565217390686
        },
        {
          "name": "G5",
          "midi": 79,
          "time": 17.739130434782354,
          "velocity": 0.23622047244094488,
          "duration": 0.10869565217390686
        },
        {
          "name": "F#1",
          "midi": 30,
          "time": 17.749999999999744,
          "velocity": 0.2992125984251969,
          "duration": 0.021739130434781373
        },
        {
          "name": "A3",
          "midi": 57,
          "time": 17.749999999999744,
          "velocity": 0.5826771653543307,
          "duration": 0.043478260869562746
        },
        {
          "name": "F5",
          "midi": 77,
          "time": 17.749999999999744,
          "velocity": 0.15748031496062992,
          "duration": 0.05434782608695343
        },
        {
          "name": "G1",
          "midi": 31,
          "time": 17.771739130434526,
          "velocity": 0.5039370078740157,
          "duration": 0.10869565217390686
        },
        {
          "name": "G4",
          "midi": 67,
          "time": 17.771739130434526,
          "velocity": 0.25196850393700787,
          "duration": 0.1521739130434696
        },
        {
          "name": "A5",
          "midi": 81,
          "time": 17.771739130434526,
          "velocity": 0.1889763779527559,
          "duration": 0.06521739130434412
        },
        {
          "name": "D5",
          "midi": 74,
          "time": 17.782608695651916,
          "velocity": 0.12598425196850394,
          "duration": 0.03260869565217206
        },
        {
          "name": "G#3",
          "midi": 56,
          "time": 17.793478260869307,
          "velocity": 0.47244094488188976,
          "duration": 0.05434782608695343
        },
        {
          "name": "B5",
          "midi": 83,
          "time": 17.793478260869307,
          "velocity": 0.13385826771653545,
          "duration": 0.05434782608695343
        },
        {
          "name": "B4",
          "midi": 71,
          "time": 17.804347826086698,
          "velocity": 0.2283464566929134,
          "duration": 0.05434782608695343
        },
        {
          "name": "F#6",
          "midi": 90,
          "time": 17.81521739130409,
          "velocity": 0.10236220472440945,
          "duration": 0.05434782608695343
        },
        {
          "name": "D5",
          "midi": 74,
          "time": 17.82608695652148,
          "velocity": 0.1968503937007874,
          "duration": 0.06521739130434412
        },
        {
          "name": "D3",
          "midi": 50,
          "time": 17.83695652173887,
          "velocity": 0.28346456692913385,
          "duration": 0.03260869565217206
        },
        {
          "name": "E5",
          "midi": 76,
          "time": 17.85869565217365,
          "velocity": 0.07086614173228346,
          "duration": 0.03260869565217206
        },
        {
          "name": "B4",
          "midi": 71,
          "time": 17.86956521739104,
          "velocity": 0.1968503937007874,
          "duration": 0.043478260869562746
        },
        {
          "name": "B1",
          "midi": 35,
          "time": 17.880434782608432,
          "velocity": 0.5275590551181102,
          "duration": 0.021739130434781373
        },
        {
          "name": "A1",
          "midi": 33,
          "time": 17.902173913043214,
          "velocity": 0.5354330708661418,
          "duration": 0.010869565217390686
        },
        {
          "name": "F#5",
          "midi": 78,
          "time": 17.902173913043214,
          "velocity": 0.07874015748031496,
          "duration": 0.03260869565217206
        },
        {
          "name": "G#1",
          "midi": 32,
          "time": 17.913043478260605,
          "velocity": 0.5433070866141733,
          "duration": 0.1195652173913011
        },
        {
          "name": "C5",
          "midi": 72,
          "time": 17.913043478260605,
          "velocity": 0.2047244094488189,
          "duration": 0.0760869565217348
        },
        {
          "name": "D#5",
          "midi": 75,
          "time": 17.945652173912777,
          "velocity": 0.16535433070866143,
          "duration": 0.043478260869562746
        },
        {
          "name": "G#5",
          "midi": 80,
          "time": 17.945652173912777,
          "velocity": 0.1968503937007874,
          "duration": 0.03260869565217206
        },
        {
          "name": "E6",
          "midi": 88,
          "time": 17.945652173912777,
          "velocity": 0.10236220472440945,
          "duration": 0.03260869565217206
        },
        {
          "name": "A#6",
          "midi": 94,
          "time": 17.945652173912777,
          "velocity": 0.07086614173228346,
          "duration": 0.043478260869562746
        },
        {
          "name": "D#4",
          "midi": 63,
          "time": 17.956521739130167,
          "velocity": 0.25196850393700787,
          "duration": 0.14130434782608248
        },
        {
          "name": "A#5",
          "midi": 82,
          "time": 17.967391304347558,
          "velocity": 0.11023622047244094,
          "duration": 0.07608695652173836
        },
        {
          "name": "G5",
          "midi": 79,
          "time": 17.98913043478234,
          "velocity": 0.11023622047244094,
          "duration": 0.0434782608695663
        },
        {
          "name": "C5",
          "midi": 72,
          "time": 17.99999999999973,
          "velocity": 0.10236220472440945,
          "duration": 0.03260869565217561
        },
        {
          "name": "D1",
          "midi": 26,
          "time": 18.043478260869296,
          "velocity": 0.5511811023622047,
          "duration": 0.010869565217390686
        },
        {
          "name": "F#1",
          "midi": 30,
          "time": 18.054347826086687,
          "velocity": 0.5669291338582677,
          "duration": 0.010869565217390686
        },
        {
          "name": "G1",
          "midi": 31,
          "time": 18.065217391304078,
          "velocity": 0.5511811023622047,
          "duration": 0.2717391304347778
        },
        {
          "name": "G#4",
          "midi": 68,
          "time": 18.065217391304078,
          "velocity": 0.1732283464566929,
          "duration": 0.03260869565217206
        },
        {
          "name": "B4",
          "midi": 71,
          "time": 18.07608695652147,
          "velocity": 0.2755905511811024,
          "duration": 0.1630434782608674
        },
        {
          "name": "G5",
          "midi": 79,
          "time": 18.07608695652147,
          "velocity": 0.2283464566929134,
          "duration": 0.09782608695651973
        },
        {
          "name": "G4",
          "midi": 67,
          "time": 18.09782608695625,
          "velocity": 0.23622047244094488,
          "duration": 0.054347826086956985
        },
        {
          "name": "D5",
          "midi": 74,
          "time": 18.10869565217364,
          "velocity": 0.2440944881889764,
          "duration": 0.09782608695652328
        },
        {
          "name": "A5",
          "midi": 81,
          "time": 18.10869565217364,
          "velocity": 0.15748031496062992,
          "duration": 0.03260869565217561
        },
        {
          "name": "F5",
          "midi": 77,
          "time": 18.141304347825816,
          "velocity": 0.13385826771653545,
          "duration": 0.06521739130434767
        },
        {
          "name": "G4",
          "midi": 67,
          "time": 18.163043478260597,
          "velocity": 0.25196850393700787,
          "duration": 0.1739130434782581
        },
        {
          "name": "D4",
          "midi": 62,
          "time": 18.173913043477988,
          "velocity": 0.12598425196850394,
          "duration": 0.03260869565217561
        },
        {
          "name": "D4",
          "midi": 62,
          "time": 18.217391304347554,
          "velocity": 0.25196850393700787,
          "duration": 0.1195652173913011
        },
        {
          "name": "B4",
          "midi": 71,
          "time": 18.249999999999726,
          "velocity": 0.2047244094488189,
          "duration": 0.07608695652173836
        },
        {
          "name": "C4",
          "midi": 60,
          "time": 18.336956521738855,
          "velocity": 0.2677165354330709,
          "duration": 0.021739130434781373
        },
        {
          "name": "E4",
          "midi": 64,
          "time": 18.336956521738855,
          "velocity": 0.2440944881889764,
          "duration": 0.021739130434781373
        },
        {
          "name": "F#4",
          "midi": 66,
          "time": 18.336956521738855,
          "velocity": 0.2440944881889764,
          "duration": 0.021739130434781373
        },
        {
          "name": "C2",
          "midi": 36,
          "time": 18.347826086956246,
          "velocity": 0.4645669291338583,
          "duration": 0.021739130434781373
        },
        {
          "name": "C#2",
          "midi": 37,
          "time": 18.369565217391028,
          "velocity": 0.4645669291338583,
          "duration": 0.021739130434781373
        },
        {
          "name": "E5",
          "midi": 76,
          "time": 18.369565217391028,
          "velocity": 0.14173228346456693,
          "duration": 0.043478260869562746
        },
        {
          "name": "F#5",
          "midi": 78,
          "time": 18.38043478260842,
          "velocity": 0.10236220472440945,
          "duration": 0.03260869565217206
        },
        {
          "name": "G1",
          "midi": 31,
          "time": 18.4021739130432,
          "velocity": 0.5039370078740157,
          "duration": 0.03260869565217206
        },
        {
          "name": "F1",
          "midi": 29,
          "time": 18.445652173912762,
          "velocity": 0.3700787401574803,
          "duration": 0.021739130434781373
        },
        {
          "name": "C4",
          "midi": 60,
          "time": 18.49999999999972,
          "velocity": 0.2677165354330709,
          "duration": 0.03260869565217206
        },
        {
          "name": "D7",
          "midi": 98,
          "time": 18.49999999999972,
          "velocity": 0.15748031496062992,
          "duration": 0.03260869565217206
        },
        {
          "name": "F#7",
          "midi": 102,
          "time": 18.49999999999972,
          "velocity": 0.09448818897637795,
          "duration": 0.05434782608695343
        },
        {
          "name": "A#5",
          "midi": 82,
          "time": 18.51086956521711,
          "velocity": 0.16535433070866143,
          "duration": 0.0760869565217348
        },
        {
          "name": "C6",
          "midi": 84,
          "time": 18.51086956521711,
          "velocity": 0.08661417322834646,
          "duration": 0.06521739130434412
        },
        {
          "name": "G1",
          "midi": 31,
          "time": 18.5217391304345,
          "velocity": 0.5275590551181102,
          "duration": 0.06521739130434412
        },
        {
          "name": "G#5",
          "midi": 80,
          "time": 18.5217391304345,
          "velocity": 0.14960629921259844,
          "duration": 0.06521739130434412
        },
        {
          "name": "D#5",
          "midi": 75,
          "time": 18.53260869565189,
          "velocity": 0.2755905511811024,
          "duration": 0.05434782608695343
        },
        {
          "name": "F#5",
          "midi": 78,
          "time": 18.53260869565189,
          "velocity": 0.14173228346456693,
          "duration": 0.043478260869562746
        },
        {
          "name": "C#6",
          "midi": 85,
          "time": 18.53260869565189,
          "velocity": 0.11811023622047244,
          "duration": 0.05434782608695343
        },
        {
          "name": "B2",
          "midi": 47,
          "time": 18.586956521738845,
          "velocity": 0.2677165354330709,
          "duration": 0.021739130434781373
        },
        {
          "name": "G1",
          "midi": 31,
          "time": 18.597826086956236,
          "velocity": 0.44881889763779526,
          "duration": 0.021739130434781373
        },
        {
          "name": "C4",
          "midi": 60,
          "time": 18.652173913043192,
          "velocity": 0.29133858267716534,
          "duration": 0.03260869565217206
        },
        {
          "name": "D7",
          "midi": 98,
          "time": 18.652173913043192,
          "velocity": 0.16535433070866143,
          "duration": 0.043478260869562746
        },
        {
          "name": "F#7",
          "midi": 102,
          "time": 18.652173913043192,
          "velocity": 0.12598425196850394,
          "duration": 0.03260869565217206
        },
        {
          "name": "G1",
          "midi": 31,
          "time": 18.663043478260583,
          "velocity": 0.5118110236220472,
          "duration": 0.010869565217390686
        },
        {
          "name": "A#5",
          "midi": 82,
          "time": 18.663043478260583,
          "velocity": 0.14960629921259844,
          "duration": 0.05434782608695343
        },
        {
          "name": "G#1",
          "midi": 32,
          "time": 18.673913043477974,
          "velocity": 0.5275590551181102,
          "duration": 0.021739130434781373
        },
        {
          "name": "E5",
          "midi": 76,
          "time": 18.673913043477974,
          "velocity": 0.28346456692913385,
          "duration": 0.05434782608695343
        },
        {
          "name": "G#5",
          "midi": 80,
          "time": 18.673913043477974,
          "velocity": 0.29133858267716534,
          "duration": 0.06521739130434412
        },
        {
          "name": "E7",
          "midi": 100,
          "time": 18.673913043477974,
          "velocity": 0.11023622047244094,
          "duration": 0.03260869565217206
        },
        {
          "name": "F#5",
          "midi": 78,
          "time": 18.684782608695365,
          "velocity": 0.10236220472440945,
          "duration": 0.03260869565217206
        },
        {
          "name": "D6",
          "midi": 86,
          "time": 18.684782608695365,
          "velocity": 0.07086614173228346,
          "duration": 0.03260869565217206
        },
        {
          "name": "G1",
          "midi": 31,
          "time": 18.695652173912755,
          "velocity": 0.5275590551181102,
          "duration": 0.07608695652173836
        },
        {
          "name": "C4",
          "midi": 60,
          "time": 18.80434782608667,
          "velocity": 0.31496062992125984,
          "duration": 0.043478260869562746
        },
        {
          "name": "F#6",
          "midi": 90,
          "time": 18.80434782608667,
          "velocity": 0.1732283464566929,
          "duration": 0.043478260869562746
        },
        {
          "name": "G6",
          "midi": 91,
          "time": 18.80434782608667,
          "velocity": 0.11811023622047244,
          "duration": 0.03260869565217206
        },
        {
          "name": "D7",
          "midi": 98,
          "time": 18.80434782608667,
          "velocity": 0.1889763779527559,
          "duration": 0.043478260869562746
        },
        {
          "name": "G1",
          "midi": 31,
          "time": 18.81521739130406,
          "velocity": 0.5275590551181102,
          "duration": 0.010869565217390686
        },
        {
          "name": "C6",
          "midi": 84,
          "time": 18.81521739130406,
          "velocity": 0.2047244094488189,
          "duration": 0.0760869565217348
        },
        {
          "name": "G#1",
          "midi": 32,
          "time": 18.82608695652145,
          "velocity": 0.5354330708661418,
          "duration": 0.010869565217390686
        },
        {
          "name": "F#5",
          "midi": 78,
          "time": 18.82608695652145,
          "velocity": 0.2125984251968504,
          "duration": 0.05434782608695343
        },
        {
          "name": "G#5",
          "midi": 80,
          "time": 18.82608695652145,
          "velocity": 0.2677165354330709,
          "duration": 0.06521739130434412
        },
        {
          "name": "A#5",
          "midi": 82,
          "time": 18.82608695652145,
          "velocity": 0.2204724409448819,
          "duration": 0.06521739130434412
        },
        {
          "name": "G1",
          "midi": 31,
          "time": 18.83695652173884,
          "velocity": 0.5511811023622047,
          "duration": 0.05434782608695343
        },
        {
          "name": "D#5",
          "midi": 75,
          "time": 18.847826086956232,
          "velocity": 0.15748031496062992,
          "duration": 0.03260869565217206
        },
        {
          "name": "C#7",
          "midi": 97,
          "time": 18.869565217391013,
          "velocity": 0.11023622047244094,
          "duration": 0.043478260869562746
        },
        {
          "name": "G1",
          "midi": 31,
          "time": 18.902173913043185,
          "velocity": 0.4409448818897638,
          "duration": 0.021739130434781373
        },
        {
          "name": "D3",
          "midi": 50,
          "time": 18.902173913043185,
          "velocity": 0.2283464566929134,
          "duration": 0.021739130434781373
        },
        {
          "name": "G4",
          "midi": 67,
          "time": 18.945652173912748,
          "velocity": 0.31496062992125984,
          "duration": 0.03260869565217206
        },
        {
          "name": "C#5",
          "midi": 73,
          "time": 18.945652173912748,
          "velocity": 0.25984251968503935,
          "duration": 0.043478260869562746
        },
        {
          "name": "E5",
          "midi": 76,
          "time": 18.945652173912748,
          "velocity": 0.1732283464566929,
          "duration": 0.06521739130434412
        },
        {
          "name": "D#6",
          "midi": 87,
          "time": 18.945652173912748,
          "velocity": 0.18110236220472442,
          "duration": 0.03260869565217206
        },
        {
          "name": "F6",
          "midi": 89,
          "time": 18.945652173912748,
          "velocity": 0.14173228346456693,
          "duration": 0.043478260869562746
        },
        {
          "name": "G#6",
          "midi": 92,
          "time": 18.945652173912748,
          "velocity": 0.1732283464566929,
          "duration": 0.05434782608695343
        },
        {
          "name": "A#6",
          "midi": 94,
          "time": 18.945652173912748,
          "velocity": 0.18110236220472442,
          "duration": 0.03260869565217206
        },
        {
          "name": "B6",
          "midi": 95,
          "time": 18.945652173912748,
          "velocity": 0.07874015748031496,
          "duration": 0.043478260869562746
        },
        {
          "name": "D7",
          "midi": 98,
          "time": 18.945652173912748,
          "velocity": 0.11811023622047244,
          "duration": 0.03260869565217206
        },
        {
          "name": "E7",
          "midi": 100,
          "time": 18.945652173912748,
          "velocity": 0.1732283464566929,
          "duration": 0.03260869565217206
        },
        {
          "name": "A6",
          "midi": 93,
          "time": 18.95652173913014,
          "velocity": 0.10236220472440945,
          "duration": 0.03260869565217206
        },
        {
          "name": "C7",
          "midi": 96,
          "time": 18.95652173913014,
          "velocity": 0.11811023622047244,
          "duration": 0.03260869565217206
        },
        {
          "name": "C#7",
          "midi": 97,
          "time": 18.95652173913014,
          "velocity": 0.13385826771653545,
          "duration": 0.043478260869562746
        },
        {
          "name": "A3",
          "midi": 57,
          "time": 18.96739130434753,
          "velocity": 0.5905511811023622,
          "duration": 0.043478260869562746
        },
        {
          "name": "A#4",
          "midi": 70,
          "time": 18.96739130434753,
          "velocity": 0.14173228346456693,
          "duration": 0.03260869565217206
        },
        {
          "name": "G1",
          "midi": 31,
          "time": 18.97826086956492,
          "velocity": 0.5275590551181102,
          "duration": 0.22826086956520442
        },
        {
          "name": "C7",
          "midi": 96,
          "time": 18.9999999999997,
          "velocity": 0.10236220472440945,
          "duration": 0.06521739130434412
        },
        {
          "name": "G#3",
          "midi": 56,
          "time": 19.010869565217092,
          "velocity": 0.5196850393700787,
          "duration": 0.05434782608695343
        },
        {
          "name": "D#7",
          "midi": 99,
          "time": 19.010869565217092,
          "velocity": 0.11811023622047244,
          "duration": 0.09782608695651618
        },
        {
          "name": "F7",
          "midi": 101,
          "time": 19.010869565217092,
          "velocity": 0.11811023622047244,
          "duration": 0.03260869565217206
        },
        {
          "name": "G6",
          "midi": 91,
          "time": 19.032608695651874,
          "velocity": 0.11023622047244094,
          "duration": 0.03260869565217206
        },
        {
          "name": "C6",
          "midi": 84,
          "time": 19.043478260869264,
          "velocity": 0.16535433070866143,
          "duration": 0.08695652173912549
        },
        {
          "name": "A#6",
          "midi": 94,
          "time": 19.043478260869264,
          "velocity": 0.07086614173228346,
          "duration": 0.03260869565217206
        },
        {
          "name": "G#5",
          "midi": 80,
          "time": 19.076086956521436,
          "velocity": 0.10236220472440945,
          "duration": 0.10869565217390686
        },
        {
          "name": "D6",
          "midi": 86,
          "time": 19.076086956521436,
          "velocity": 0.2125984251968504,
          "duration": 0.11956521739129755
        },
        {
          "name": "F#6",
          "midi": 90,
          "time": 19.086956521738827,
          "velocity": 0.16535433070866143,
          "duration": 0.06521739130434412
        },
        {
          "name": "G5",
          "midi": 79,
          "time": 19.119565217391,
          "velocity": 0.11023622047244094,
          "duration": 0.05434782608695343
        },
        {
          "name": "D#7",
          "midi": 99,
          "time": 19.119565217391,
          "velocity": 0.11023622047244094,
          "duration": 0.05434782608695343
        },
        {
          "name": "A4",
          "midi": 69,
          "time": 19.163043478260562,
          "velocity": 0.1732283464566929,
          "duration": 0.03260869565217206
        },
        {
          "name": "F7",
          "midi": 101,
          "time": 19.163043478260562,
          "velocity": 0.07874015748031496,
          "duration": 0.043478260869562746
        },
        {
          "name": "A6",
          "midi": 93,
          "time": 19.173913043477953,
          "velocity": 0.1968503937007874,
          "duration": 0.05434782608695343
        },
        {
          "name": "B3",
          "midi": 59,
          "time": 19.184782608695343,
          "velocity": 0.23622047244094488,
          "duration": 0.03260869565217206
        },
        {
          "name": "B4",
          "midi": 71,
          "time": 19.184782608695343,
          "velocity": 0.2677165354330709,
          "duration": 0.0760869565217348
        },
        {
          "name": "E7",
          "midi": 100,
          "time": 19.184782608695343,
          "velocity": 0.10236220472440945,
          "duration": 0.03260869565217206
        },
        {
          "name": "G#1",
          "midi": 32,
          "time": 19.206521739130125,
          "velocity": 0.48031496062992124,
          "duration": 0.021739130434781373
        },
        {
          "name": "A4",
          "midi": 69,
          "time": 19.206521739130125,
          "velocity": 0.1968503937007874,
          "duration": 0.03260869565217206
        },
        {
          "name": "A#3",
          "midi": 58,
          "time": 19.217391304347515,
          "velocity": 0.3543307086614173,
          "duration": 0.043478260869562746
        },
        {
          "name": "F#4",
          "midi": 66,
          "time": 19.249999999999687,
          "velocity": 0.14960629921259844,
          "duration": 0.03260869565217206
        },
        {
          "name": "B2",
          "midi": 47,
          "time": 19.27173913043447,
          "velocity": 0.5275590551181102,
          "duration": 0.010869565217390686
        },
        {
          "name": "D#2",
          "midi": 39,
          "time": 19.28260869565186,
          "velocity": 0.5590551181102362,
          "duration": 0.010869565217390686
        },
        {
          "name": "C#2",
          "midi": 37,
          "time": 19.29347826086925,
          "velocity": 0.5433070866141733,
          "duration": 0.010869565217390686
        },
        {
          "name": "D#6",
          "midi": 87,
          "time": 19.29347826086925,
          "velocity": 0.07874015748031496,
          "duration": 0.043478260869562746
        },
        {
          "name": "G1",
          "midi": 31,
          "time": 19.326086956521422,
          "velocity": 0.4330708661417323,
          "duration": 0.021739130434781373
        },
        {
          "name": "G1",
          "midi": 31,
          "time": 19.39130434782577,
          "velocity": 0.3543307086614173,
          "duration": 0.021739130434781373
        },
        {
          "name": "F1",
          "midi": 29,
          "time": 19.41304347826055,
          "velocity": 0.4409448818897638,
          "duration": 0.021739130434781373
        },
        {
          "name": "A6",
          "midi": 93,
          "time": 19.434782608695333,
          "velocity": 0.18110236220472442,
          "duration": 0.08695652173912549
        },
        {
          "name": "G1",
          "midi": 31,
          "time": 19.445652173912723,
          "velocity": 0.5196850393700787,
          "duration": 0.03260869565217206
        },
        {
          "name": "A5",
          "midi": 81,
          "time": 19.445652173912723,
          "velocity": 0.25984251968503935,
          "duration": 0.05434782608695343
        },
        {
          "name": "F#6",
          "midi": 90,
          "time": 19.456521739130114,
          "velocity": 0.14960629921259844,
          "duration": 0.03260869565217206
        },
        {
          "name": "A#5",
          "midi": 82,
          "time": 19.489130434782286,
          "velocity": 0.23622047244094488,
          "duration": 0.05434782608695343
        },
        {
          "name": "G#1",
          "midi": 32,
          "time": 19.499999999999677,
          "velocity": 0.5196850393700787,
          "duration": 0.010869565217390686
        },
        {
          "name": "E6",
          "midi": 88,
          "time": 19.499999999999677,
          "velocity": 0.14960629921259844,
          "duration": 0.043478260869562746
        },
        {
          "name": "G1",
          "midi": 31,
          "time": 19.510869565217067,
          "velocity": 0.5118110236220472,
          "duration": 0.021739130434781373
        },
        {
          "name": "B4",
          "midi": 71,
          "time": 19.521739130434458,
          "velocity": 0.28346456692913385,
          "duration": 0.11956521739129755
        },
        {
          "name": "F#1",
          "midi": 30,
          "time": 19.53260869565185,
          "velocity": 0.4566929133858268,
          "duration": 0.03260869565217206
        },
        {
          "name": "C#4",
          "midi": 61,
          "time": 19.54347826086924,
          "velocity": 0.2677165354330709,
          "duration": 0.021739130434781373
        },
        {
          "name": "F#4",
          "midi": 66,
          "time": 19.55434782608663,
          "velocity": 0.1889763779527559,
          "duration": 0.03260869565217206
        },
        {
          "name": "A#2",
          "midi": 46,
          "time": 19.57608695652141,
          "velocity": 0.5354330708661418,
          "duration": 0.010869565217390686
        },
        {
          "name": "D4",
          "midi": 62,
          "time": 19.57608695652141,
          "velocity": 0.16535433070866143,
          "duration": 0.043478260869562746
        },
        {
          "name": "G#2",
          "midi": 44,
          "time": 19.586956521738802,
          "velocity": 0.5275590551181102,
          "duration": 0.010869565217390686
        },
        {
          "name": "C#2",
          "midi": 37,
          "time": 19.597826086956193,
          "velocity": 0.5669291338582677,
          "duration": 0.010869565217390686
        },
        {
          "name": "A1",
          "midi": 33,
          "time": 19.608695652173584,
          "velocity": 0.5511811023622047,
          "duration": 0.010869565217390686
        },
        {
          "name": "G4",
          "midi": 67,
          "time": 19.608695652173584,
          "velocity": 0.2283464566929134,
          "duration": 0.0760869565217348
        },
        {
          "name": "G#1",
          "midi": 32,
          "time": 19.619565217390974,
          "velocity": 0.5196850393700787,
          "duration": 0.010869565217390686
        },
        {
          "name": "G5",
          "midi": 79,
          "time": 19.619565217390974,
          "velocity": 0.2283464566929134,
          "duration": 0.22826086956520797
        },
        {
          "name": "A5",
          "midi": 81,
          "time": 19.619565217390974,
          "velocity": 0.12598425196850394,
          "duration": 0.03260869565217206
        },
        {
          "name": "G1",
          "midi": 31,
          "time": 19.630434782608365,
          "velocity": 0.49606299212598426,
          "duration": 0.021739130434781373
        },
        {
          "name": "D6",
          "midi": 86,
          "time": 19.641304347825756,
          "velocity": 0.15748031496062992,
          "duration": 0.23913043478259866
        },
        {
          "name": "F#1",
          "midi": 30,
          "time": 19.652173913043146,
          "velocity": 0.5196850393700787,
          "duration": 0.06521739130434767
        },
        {
          "name": "B4",
          "midi": 71,
          "time": 19.663043478260537,
          "velocity": 0.2440944881889764,
          "duration": 0.09782608695651973
        },
        {
          "name": "F5",
          "midi": 77,
          "time": 19.663043478260537,
          "velocity": 0.15748031496062992,
          "duration": 0.08695652173912904
        },
        {
          "name": "G1",
          "midi": 31,
          "time": 19.717391304347494,
          "velocity": 0.4881889763779528,
          "duration": 0.021739130434781373
        },
        {
          "name": "B6",
          "midi": 95,
          "time": 19.717391304347494,
          "velocity": 0.1968503937007874,
          "duration": 0.0760869565217348
        },
        {
          "name": "D4",
          "midi": 62,
          "time": 19.728260869564885,
          "velocity": 0.2283464566929134,
          "duration": 0.19565217391303236
        },
        {
          "name": "G4",
          "midi": 67,
          "time": 19.728260869564885,
          "velocity": 0.25984251968503935,
          "duration": 0.1521739130434696
        },
        {
          "name": "G#6",
          "midi": 92,
          "time": 19.739130434782275,
          "velocity": 0.07874015748031496,
          "duration": 0.043478260869562746
        },
        {
          "name": "G1",
          "midi": 31,
          "time": 19.749999999999666,
          "velocity": 0.49606299212598426,
          "duration": 0.11956521739129755
        },
        {
          "name": "A5",
          "midi": 81,
          "time": 19.760869565217057,
          "velocity": 0.07874015748031496,
          "duration": 0.043478260869562746
        },
        {
          "name": "B5",
          "midi": 83,
          "time": 19.760869565217057,
          "velocity": 0.11023622047244094,
          "duration": 0.08695652173912549
        },
        {
          "name": "B4",
          "midi": 71,
          "time": 19.771739130434447,
          "velocity": 0.11811023622047244,
          "duration": 0.09782608695651618
        },
        {
          "name": "F5",
          "midi": 77,
          "time": 19.80434782608662,
          "velocity": 0.12598425196850394,
          "duration": 0.06521739130434412
        },
        {
          "name": "B6",
          "midi": 95,
          "time": 19.8260869565214,
          "velocity": 0.18110236220472442,
          "duration": 0.05434782608695343
        },
        {
          "name": "B5",
          "midi": 83,
          "time": 19.880434782608354,
          "velocity": 0.09448818897637795,
          "duration": 0.1304347826086918
        },
        {
          "name": "F#1",
          "midi": 30,
          "time": 19.891304347825745,
          "velocity": 0.5433070866141733,
          "duration": 0.021739130434781373
        },
        {
          "name": "G4",
          "midi": 67,
          "time": 19.902173913043136,
          "velocity": 0.2204724409448819,
          "duration": 0.18478260869564522
        },
        {
          "name": "G1",
          "midi": 31,
          "time": 19.913043478260526,
          "velocity": 0.5354330708661418,
          "duration": 0.10869565217391042
        },
        {
          "name": "A5",
          "midi": 81,
          "time": 19.923913043477917,
          "velocity": 0.15748031496062992,
          "duration": 0.05434782608695343
        },
        {
          "name": "B6",
          "midi": 95,
          "time": 19.923913043477917,
          "velocity": 0.18110236220472442,
          "duration": 0.043478260869562746
        },
        {
          "name": "D5",
          "midi": 74,
          "time": 19.9456521739127,
          "velocity": 0.2047244094488189,
          "duration": 0.08695652173912904
        },
        {
          "name": "B4",
          "midi": 71,
          "time": 19.95652173913009,
          "velocity": 0.2204724409448819,
          "duration": 0.08695652173912904
        },
        {
          "name": "F5",
          "midi": 77,
          "time": 19.95652173913009,
          "velocity": 0.1889763779527559,
          "duration": 0.054347826086956985
        },
        {
          "name": "D7",
          "midi": 98,
          "time": 19.96739130434748,
          "velocity": 0.14173228346456693,
          "duration": 0.06521739130434767
        },
        {
          "name": "D4",
          "midi": 62,
          "time": 19.97826086956487,
          "velocity": 0.15748031496062992,
          "duration": 0.054347826086956985
        },
        {
          "name": "D#3",
          "midi": 51,
          "time": 20.010869565217046,
          "velocity": 0.30708661417322836,
          "duration": 0.021739130434781373
        },
        {
          "name": "G1",
          "midi": 31,
          "time": 20.043478260869218,
          "velocity": 0.5196850393700787,
          "duration": 0.010869565217390686
        },
        {
          "name": "C5",
          "midi": 72,
          "time": 20.043478260869218,
          "velocity": 0.2283464566929134,
          "duration": 0.14130434782607892
        },
        {
          "name": "G#6",
          "midi": 92,
          "time": 20.043478260869218,
          "velocity": 0.12598425196850394,
          "duration": 0.06521739130434412
        },
        {
          "name": "G#1",
          "midi": 32,
          "time": 20.05434782608661,
          "velocity": 0.5196850393700787,
          "duration": 0.11956521739129755
        },
        {
          "name": "D#7",
          "midi": 99,
          "time": 20.05434782608661,
          "velocity": 0.14960629921259844,
          "duration": 0.03260869565217206
        },
        {
          "name": "D#3",
          "midi": 51,
          "time": 20.065217391304,
          "velocity": 0.2204724409448819,
          "duration": 0.03260869565217206
        },
        {
          "name": "D#4",
          "midi": 63,
          "time": 20.065217391304,
          "velocity": 0.2204724409448819,
          "duration": 0.10869565217390686
        },
        {
          "name": "F5",
          "midi": 77,
          "time": 20.065217391304,
          "velocity": 0.08661417322834646,
          "duration": 0.03260869565217206
        },
        {
          "name": "D#5",
          "midi": 75,
          "time": 20.07608695652139,
          "velocity": 0.2204724409448819,
          "duration": 0.05434782608695343
        },
        {
          "name": "E6",
          "midi": 88,
          "time": 20.08695652173878,
          "velocity": 0.08661417322834646,
          "duration": 0.03260869565217206
        },
        {
          "name": "E7",
          "midi": 100,
          "time": 20.08695652173878,
          "velocity": 0.08661417322834646,
          "duration": 0.043478260869562746
        },
        {
          "name": "A#5",
          "midi": 82,
          "time": 20.108695652173562,
          "velocity": 0.13385826771653545,
          "duration": 0.043478260869562746
        },
        {
          "name": "C#7",
          "midi": 97,
          "time": 20.108695652173562,
          "velocity": 0.13385826771653545,
          "duration": 0.14130434782607892
        },
        {
          "name": "D#3",
          "midi": 51,
          "time": 20.130434782608344,
          "velocity": 0.25984251968503935,
          "duration": 0.03260869565217206
        },
        {
          "name": "G5",
          "midi": 79,
          "time": 20.130434782608344,
          "velocity": 0.11811023622047244,
          "duration": 0.043478260869562746
        },
        {
          "name": "G#6",
          "midi": 92,
          "time": 20.130434782608344,
          "velocity": 0.2283464566929134,
          "duration": 0.043478260869562746
        },
        {
          "name": "F#4",
          "midi": 66,
          "time": 20.163043478260516,
          "velocity": 0.2677165354330709,
          "duration": 0.021739130434781373
        },
        {
          "name": "F6",
          "midi": 89,
          "time": 20.163043478260516,
          "velocity": 0.18110236220472442,
          "duration": 0.03260869565217206
        },
        {
          "name": "A6",
          "midi": 93,
          "time": 20.163043478260516,
          "velocity": 0.1732283464566929,
          "duration": 0.05434782608695343
        },
        {
          "name": "A#6",
          "midi": 94,
          "time": 20.163043478260516,
          "velocity": 0.16535433070866143,
          "duration": 0.03260869565217206
        },
        {
          "name": "B5",
          "midi": 83,
          "time": 20.173913043477906,
          "velocity": 0.11023622047244094,
          "duration": 0.10869565217390686
        },
        {
          "name": "E6",
          "midi": 88,
          "time": 20.173913043477906,
          "velocity": 0.15748031496062992,
          "duration": 0.05434782608695343
        },
        {
          "name": "D7",
          "midi": 98,
          "time": 20.173913043477906,
          "velocity": 0.10236220472440945,
          "duration": 0.0760869565217348
        },
        {
          "name": "A#3",
          "midi": 58,
          "time": 20.184782608695297,
          "velocity": 0.5275590551181102,
          "duration": 0.010869565217390686
        },
        {
          "name": "G4",
          "midi": 67,
          "time": 20.184782608695297,
          "velocity": 0.25196850393700787,
          "duration": 0.14130434782607892
        },
        {
          "name": "A3",
          "midi": 57,
          "time": 20.195652173912688,
          "velocity": 0.5826771653543307,
          "duration": 0.043478260869562746
        },
        {
          "name": "F#5",
          "midi": 78,
          "time": 20.195652173912688,
          "velocity": 0.11023622047244094,
          "duration": 0.03260869565217206
        },
        {
          "name": "B4",
          "midi": 71,
          "time": 20.20652173913008,
          "velocity": 0.13385826771653545,
          "duration": 0.03260869565217206
        },
        {
          "name": "E5",
          "midi": 76,
          "time": 20.20652173913008,
          "velocity": 0.15748031496062992,
          "duration": 0.03260869565217206
        },
        {
          "name": "G1",
          "midi": 31,
          "time": 20.21739130434747,
          "velocity": 0.5039370078740157,
          "duration": 0.26086956521738003
        },
        {
          "name": "G#3",
          "midi": 56,
          "time": 20.23913043478225,
          "velocity": 0.4645669291338583,
          "duration": 0.05434782608695343
        },
        {
          "name": "B6",
          "midi": 95,
          "time": 20.23913043478225,
          "velocity": 0.14960629921259844,
          "duration": 0.18478260869564167
        },
        {
          "name": "B4",
          "midi": 71,
          "time": 20.24999999999964,
          "velocity": 0.28346456692913385,
          "duration": 0.11956521739129755
        },
        {
          "name": "A5",
          "midi": 81,
          "time": 20.24999999999964,
          "velocity": 0.11023622047244094,
          "duration": 0.043478260869562746
        },
        {
          "name": "D5",
          "midi": 74,
          "time": 20.260869565217032,
          "velocity": 0.28346456692913385,
          "duration": 0.08695652173912549
        },
        {
          "name": "G7",
          "midi": 103,
          "time": 20.260869565217032,
          "velocity": 0.07874015748031496,
          "duration": 0.05434782608695343
        },
        {
          "name": "F5",
          "midi": 77,
          "time": 20.271739130434423,
          "velocity": 0.18110236220472442,
          "duration": 0.06521739130434412
        },
        {
          "name": "F#6",
          "midi": 90,
          "time": 20.271739130434423,
          "velocity": 0.11023622047244094,
          "duration": 0.03260869565217206
        },
        {
          "name": "D7",
          "midi": 98,
          "time": 20.271739130434423,
          "velocity": 0.14173228346456693,
          "duration": 0.0760869565217348
        },
        {
          "name": "D4",
          "midi": 62,
          "time": 20.326086956521376,
          "velocity": 0.25984251968503935,
          "duration": 0.16304347826086385
        },
        {
          "name": "G4",
          "midi": 67,
          "time": 20.336956521738767,
          "velocity": 0.2204724409448819,
          "duration": 0.15217391304347316
        },
        {
          "name": "G6",
          "midi": 91,
          "time": 20.347826086956157,
          "velocity": 0.30708661417322836,
          "duration": 0.1304347826086918
        },
        {
          "name": "F7",
          "midi": 101,
          "time": 20.358695652173548,
          "velocity": 0.12598425196850394,
          "duration": 0.043478260869562746
        },
        {
          "name": "B4",
          "midi": 71,
          "time": 20.39130434782572,
          "velocity": 0.2125984251968504,
          "duration": 0.06521739130434767
        },
        {
          "name": "D#1",
          "midi": 27,
          "time": 20.48913043478224,
          "velocity": 0.5354330708661418,
          "duration": 0.010869565217390686
        },
        {
          "name": "F#1",
          "midi": 30,
          "time": 20.49999999999963,
          "velocity": 0.5354330708661418,
          "duration": 0.010869565217390686
        },
        {
          "name": "G1",
          "midi": 31,
          "time": 20.51086956521702,
          "velocity": 0.5196850393700787,
          "duration": 0.28260869565216495
        },
        {
          "name": "G4",
          "midi": 67,
          "time": 20.521739130434412,
          "velocity": 0.2755905511811024,
          "duration": 0.28260869565216495
        },
        {
          "name": "A5",
          "midi": 81,
          "time": 20.521739130434412,
          "velocity": 0.14960629921259844,
          "duration": 0.043478260869562746
        },
        {
          "name": "B6",
          "midi": 95,
          "time": 20.532608695651803,
          "velocity": 0.2125984251968504,
          "duration": 0.21739130434782084
        },
        {
          "name": "D5",
          "midi": 74,
          "time": 20.543478260869193,
          "velocity": 0.1968503937007874,
          "duration": 0.09782608695651618
        },
        {
          "name": "B5",
          "midi": 83,
          "time": 20.543478260869193,
          "velocity": 0.11811023622047244,
          "duration": 0.043478260869562746
        },
        {
          "name": "B4",
          "midi": 71,
          "time": 20.565217391303975,
          "velocity": 0.15748031496062992,
          "duration": 0.03260869565217206
        },
        {
          "name": "D6",
          "midi": 86,
          "time": 20.565217391303975,
          "velocity": 0.2047244094488189,
          "duration": 0.08695652173912549
        },
        {
          "name": "F5",
          "midi": 77,
          "time": 20.576086956521365,
          "velocity": 0.1889763779527559,
          "duration": 0.043478260869562746
        },
        {
          "name": "G6",
          "midi": 91,
          "time": 20.576086956521365,
          "velocity": 0.25196850393700787,
          "duration": 0.21739130434782084
        },
        {
          "name": "D4",
          "midi": 62,
          "time": 20.586956521738756,
          "velocity": 0.2755905511811024,
          "duration": 0.18478260869564878
        },
        {
          "name": "B4",
          "midi": 71,
          "time": 20.619565217390928,
          "velocity": 0.2440944881889764,
          "duration": 0.05434782608695343
        },
        {
          "name": "B5",
          "midi": 83,
          "time": 20.67391304347788,
          "velocity": 0.15748031496062992,
          "duration": 0.07608695652174191
        },
        {
          "name": "F7",
          "midi": 101,
          "time": 20.67391304347788,
          "velocity": 0.11811023622047244,
          "duration": 0.11956521739130466
        },
        {
          "name": "B4",
          "midi": 71,
          "time": 20.706521739130057,
          "velocity": 0.16535433070866143,
          "duration": 0.0434782608695663
        },
        {
          "name": "D6",
          "midi": 86,
          "time": 20.706521739130057,
          "velocity": 0.13385826771653545,
          "duration": 0.08695652173912904
        },
        {
          "name": "C#4",
          "midi": 61,
          "time": 20.771739130434405,
          "velocity": 0.2283464566929134,
          "duration": 0.021739130434781373
        },
        {
          "name": "B4",
          "midi": 71,
          "time": 20.771739130434405,
          "velocity": 0.18110236220472442,
          "duration": 0.05434782608695343
        },
        {
          "name": "G5",
          "midi": 79,
          "time": 20.771739130434405,
          "velocity": 0.2755905511811024,
          "duration": 0.11956521739129755
        },
        {
          "name": "F#2",
          "midi": 42,
          "time": 20.793478260869186,
          "velocity": 0.5196850393700787,
          "duration": 0.010869565217390686
        },
        {
          "name": "G#1",
          "midi": 32,
          "time": 20.826086956521358,
          "velocity": 0.5826771653543307,
          "duration": 0.03260869565217206
        },
        {
          "name": "G4",
          "midi": 67,
          "time": 20.826086956521358,
          "velocity": 0.23622047244094488,
          "duration": 0.1521739130434696
        },
        {
          "name": "A5",
          "midi": 81,
          "time": 20.826086956521358,
          "velocity": 0.12598425196850394,
          "duration": 0.06521739130434412
        },
        {
          "name": "B5",
          "midi": 83,
          "time": 20.83695652173875,
          "velocity": 0.13385826771653545,
          "duration": 0.06521739130434412
        },
        {
          "name": "G1",
          "midi": 31,
          "time": 20.85869565217353,
          "velocity": 0.5748031496062992,
          "duration": 0.021739130434781373
        },
        {
          "name": "D#5",
          "midi": 75,
          "time": 20.85869565217353,
          "velocity": 0.11023622047244094,
          "duration": 0.03260869565217206
        },
        {
          "name": "F#6",
          "midi": 90,
          "time": 20.85869565217353,
          "velocity": 0.10236220472440945,
          "duration": 0.05434782608695343
        },
        {
          "name": "B4",
          "midi": 71,
          "time": 20.86956521739092,
          "velocity": 0.25196850393700787,
          "duration": 0.043478260869562746
        },
        {
          "name": "F#1",
          "midi": 30,
          "time": 20.88043478260831,
          "velocity": 0.5511811023622047,
          "duration": 0.021739130434781373
        },
        {
          "name": "D5",
          "midi": 74,
          "time": 20.891304347825702,
          "velocity": 0.18110236220472442,
          "duration": 0.06521739130434412
        },
        {
          "name": "G1",
          "midi": 31,
          "time": 20.902173913043093,
          "velocity": 0.5039370078740157,
          "duration": 0.03260869565217206
        },
        {
          "name": "D4",
          "midi": 62,
          "time": 20.913043478260484,
          "velocity": 0.15748031496062992,
          "duration": 0.03260869565217206
        },
        {
          "name": "B4",
          "midi": 71,
          "time": 20.923913043477874,
          "velocity": 0.1968503937007874,
          "duration": 0.043478260869562746
        },
        {
          "name": "F#1",
          "midi": 30,
          "time": 20.934782608695265,
          "velocity": 0.4566929133858268,
          "duration": 0.021739130434781373
        },
        {
          "name": "G2",
          "midi": 43,
          "time": 20.934782608695265,
          "velocity": 0.3858267716535433,
          "duration": 0.03260869565217206
        },
        {
          "name": "G#1",
          "midi": 32,
          "time": 20.967391304347437,
          "velocity": 0.5118110236220472,
          "duration": 0.11956521739129755
        },
        {
          "name": "D#4",
          "midi": 63,
          "time": 20.967391304347437,
          "velocity": 0.2440944881889764,
          "duration": 0.021739130434781373
        },
        {
          "name": "C5",
          "midi": 72,
          "time": 20.967391304347437,
          "velocity": 0.1889763779527559,
          "duration": 0.03260869565217206
        },
        {
          "name": "G#5",
          "midi": 80,
          "time": 20.967391304347437,
          "velocity": 0.14960629921259844,
          "duration": 0.043478260869562746
        },
        {
          "name": "G#4",
          "midi": 68,
          "time": 20.98913043478222,
          "velocity": 0.2125984251968504,
          "duration": 0.14130434782607892
        },
        {
          "name": "B4",
          "midi": 71,
          "time": 20.99999999999961,
          "velocity": 0.13385826771653545,
          "duration": 0.03260869565217206
        },
        {
          "name": "D#5",
          "midi": 75,
          "time": 20.99999999999961,
          "velocity": 0.23622047244094488,
          "duration": 0.09782608695651618
        },
        {
          "name": "G5",
          "midi": 79,
          "time": 20.99999999999961,
          "velocity": 0.15748031496062992,
          "duration": 0.03260869565217206
        },
        {
          "name": "A#5",
          "midi": 82,
          "time": 20.99999999999961,
          "velocity": 0.14960629921259844,
          "duration": 0.0760869565217348
        },
        {
          "name": "G#6",
          "midi": 92,
          "time": 20.99999999999961,
          "velocity": 0.2125984251968504,
          "duration": 0.09782608695651618
        },
        {
          "name": "D#6",
          "midi": 87,
          "time": 21.010869565217,
          "velocity": 0.23622047244094488,
          "duration": 0.08695652173912549
        },
        {
          "name": "C5",
          "midi": 72,
          "time": 21.03260869565178,
          "velocity": 0.11811023622047244,
          "duration": 0.03260869565217206
        },
        {
          "name": "D#4",
          "midi": 63,
          "time": 21.043478260869172,
          "velocity": 0.2204724409448819,
          "duration": 0.0760869565217348
        },
        {
          "name": "B4",
          "midi": 71,
          "time": 21.065217391303953,
          "velocity": 0.18110236220472442,
          "duration": 0.03260869565217206
        },
        {
          "name": "A1",
          "midi": 33,
          "time": 21.086956521738735,
          "velocity": 0.5118110236220472,
          "duration": 0.021739130434781373
        },
        {
          "name": "G#1",
          "midi": 32,
          "time": 21.108695652173516,
          "velocity": 0.5354330708661418,
          "duration": 0.010869565217390686
        },
        {
          "name": "G1",
          "midi": 31,
          "time": 21.119565217390907,
          "velocity": 0.5354330708661418,
          "duration": 0.3043478260869428
        },
        {
          "name": "B5",
          "midi": 83,
          "time": 21.119565217390907,
          "velocity": 0.12598425196850394,
          "duration": 0.09782608695651618
        },
        {
          "name": "G4",
          "midi": 67,
          "time": 21.130434782608297,
          "velocity": 0.23622047244094488,
          "duration": 0.08695652173912549
        },
        {
          "name": "A5",
          "midi": 81,
          "time": 21.141304347825688,
          "velocity": 0.11023622047244094,
          "duration": 0.03260869565217206
        },
        {
          "name": "B6",
          "midi": 95,
          "time": 21.141304347825688,
          "velocity": 0.16535433070866143,
          "duration": 0.043478260869562746
        },
        {
          "name": "F5",
          "midi": 77,
          "time": 21.15217391304308,
          "velocity": 0.13385826771653545,
          "duration": 0.0760869565217348
        },
        {
          "name": "D6",
          "midi": 86,
          "time": 21.16304347826047,
          "velocity": 0.2440944881889764,
          "duration": 0.2065217391304266
        },
        {
          "name": "B4",
          "midi": 71,
          "time": 21.18478260869525,
          "velocity": 0.2440944881889764,
          "duration": 0.08695652173912549
        },
        {
          "name": "G7",
          "midi": 103,
          "time": 21.19565217391264,
          "velocity": 0.10236220472440945,
          "duration": 0.043478260869562746
        },
        {
          "name": "D3",
          "midi": 50,
          "time": 21.206521739130032,
          "velocity": 0.30708661417322836,
          "duration": 0.043478260869562746
        },
        {
          "name": "B6",
          "midi": 95,
          "time": 21.228260869564814,
          "velocity": 0.28346456692913385,
          "duration": 0.15217391304347316
        },
        {
          "name": "D4",
          "midi": 62,
          "time": 21.249999999999595,
          "velocity": 0.23622047244094488,
          "duration": 0.14130434782608248
        },
        {
          "name": "G4",
          "midi": 67,
          "time": 21.249999999999595,
          "velocity": 0.3464566929133858,
          "duration": 0.17391304347825454
        },
        {
          "name": "G#6",
          "midi": 92,
          "time": 21.271739130434376,
          "velocity": 0.08661417322834646,
          "duration": 0.043478260869562746
        },
        {
          "name": "B5",
          "midi": 83,
          "time": 21.282608695651767,
          "velocity": 0.14173228346456693,
          "duration": 0.09782608695651973
        },
        {
          "name": "F7",
          "midi": 101,
          "time": 21.282608695651767,
          "velocity": 0.10236220472440945,
          "duration": 0.09782608695651973
        },
        {
          "name": "B4",
          "midi": 71,
          "time": 21.293478260869158,
          "velocity": 0.18110236220472442,
          "duration": 0.08695652173912904
        },
        {
          "name": "A5",
          "midi": 81,
          "time": 21.293478260869158,
          "velocity": 0.08661417322834646,
          "duration": 0.03260869565217206
        },
        {
          "name": "G6",
          "midi": 91,
          "time": 21.293478260869158,
          "velocity": 0.25196850393700787,
          "duration": 0.10869565217391042
        },
        {
          "name": "F5",
          "midi": 77,
          "time": 21.32608695652133,
          "velocity": 0.15748031496062992,
          "duration": 0.08695652173912904
        },
        {
          "name": "C#5",
          "midi": 73,
          "time": 21.391304347825677,
          "velocity": 0.25984251968503935,
          "duration": 0.021739130434781373
        },
        {
          "name": "E6",
          "midi": 88,
          "time": 21.391304347825677,
          "velocity": 0.1889763779527559,
          "duration": 0.03260869565217206
        },
        {
          "name": "F7",
          "midi": 101,
          "time": 21.391304347825677,
          "velocity": 0.11811023622047244,
          "duration": 0.043478260869562746
        },
        {
          "name": "A#6",
          "midi": 94,
          "time": 21.402173913043068,
          "velocity": 0.11811023622047244,
          "duration": 0.03260869565217206
        },
        {
          "name": "F#7",
          "midi": 102,
          "time": 21.402173913043068,
          "velocity": 0.11811023622047244,
          "duration": 0.0760869565217348
        },
        {
          "name": "A#3",
          "midi": 58,
          "time": 21.41304347826046,
          "velocity": 0.5669291338582677,
          "duration": 0.010869565217390686
        },
        {
          "name": "A3",
          "midi": 57,
          "time": 21.42391304347785,
          "velocity": 0.5905511811023622,
          "duration": 0.03260869565217206
        },
        {
          "name": "G1",
          "midi": 31,
          "time": 21.43478260869524,
          "velocity": 0.33858267716535434,
          "duration": 0.043478260869562746
        },
        {
          "name": "A5",
          "midi": 81,
          "time": 21.44565217391263,
          "velocity": 0.15748031496062992,
          "duration": 0.06521739130434412
        },
        {
          "name": "G#3",
          "midi": 56,
          "time": 21.45652173913002,
          "velocity": 0.5196850393700787,
          "duration": 0.043478260869562746
        },
        {
          "name": "B4",
          "midi": 71,
          "time": 21.45652173913002,
          "velocity": 0.2204724409448819,
          "duration": 0.05434782608695343
        },
        {
          "name": "G5",
          "midi": 79,
          "time": 21.45652173913002,
          "velocity": 0.2204724409448819,
          "duration": 0.1304347826086918
        },
        {
          "name": "G4",
          "midi": 67,
          "time": 21.467391304347412,
          "velocity": 0.2677165354330709,
          "duration": 0.2608695652173836
        },
        {
          "name": "D5",
          "midi": 74,
          "time": 21.467391304347412,
          "velocity": 0.2047244094488189,
          "duration": 0.08695652173912549
        },
        {
          "name": "F#6",
          "midi": 90,
          "time": 21.467391304347412,
          "velocity": 0.10236220472440945,
          "duration": 0.043478260869562746
        },
        {
          "name": "G1",
          "midi": 31,
          "time": 21.489130434782194,
          "velocity": 0.5039370078740157,
          "duration": 0.20652173913043015
        },
        {
          "name": "D7",
          "midi": 98,
          "time": 21.489130434782194,
          "velocity": 0.11023622047244094,
          "duration": 0.03260869565217206
        },
        {
          "name": "D4",
          "midi": 62,
          "time": 21.532608695651756,
          "velocity": 0.28346456692913385,
          "duration": 0.1630434782608674
        },
        {
          "name": "B4",
          "midi": 71,
          "time": 21.532608695651756,
          "velocity": 0.23622047244094488,
          "duration": 0.06521739130434767
        },
        {
          "name": "F7",
          "midi": 101,
          "time": 21.597826086956104,
          "velocity": 0.2047244094488189,
          "duration": 0.054347826086956985
        },
        {
          "name": "B6",
          "midi": 95,
          "time": 21.608695652173495,
          "velocity": 0.14173228346456693,
          "duration": 0.06521739130434767
        },
        {
          "name": "B4",
          "midi": 71,
          "time": 21.619565217390885,
          "velocity": 0.14173228346456693,
          "duration": 0.07608695652173836
        },
        {
          "name": "G6",
          "midi": 91,
          "time": 21.619565217390885,
          "velocity": 0.25196850393700787,
          "duration": 0.08695652173912904
        },
        {
          "name": "D7",
          "midi": 98,
          "time": 21.619565217390885,
          "velocity": 0.10236220472440945,
          "duration": 0.06521739130434767
        },
        {
          "name": "F5",
          "midi": 77,
          "time": 21.66304347826045,
          "velocity": 0.08661417322834646,
          "duration": 0.043478260869562746
        },
        {
          "name": "G#1",
          "midi": 32,
          "time": 21.695652173912624,
          "velocity": 0.5354330708661418,
          "duration": 0.021739130434781373
        },
        {
          "name": "F#1",
          "midi": 30,
          "time": 21.717391304347405,
          "velocity": 0.5511811023622047,
          "duration": 0.28260869565216495
        },
        {
          "name": "F#4",
          "midi": 66,
          "time": 21.749999999999577,
          "velocity": 0.2755905511811024,
          "duration": 0.2499999999999929
        },
        {
          "name": "C#5",
          "midi": 73,
          "time": 21.749999999999577,
          "velocity": 0.23622047244094488,
          "duration": 0.10869565217390686
        },
        {
          "name": "A#5",
          "midi": 82,
          "time": 21.749999999999577,
          "velocity": 0.16535433070866143,
          "duration": 0.06521739130434412
        },
        {
          "name": "C#7",
          "midi": 97,
          "time": 21.749999999999577,
          "velocity": 0.07874015748031496,
          "duration": 0.06521739130434412
        },
        {
          "name": "A#6",
          "midi": 94,
          "time": 21.760869565216968,
          "velocity": 0.18110236220472442,
          "duration": 0.043478260869562746
        },
        {
          "name": "D#7",
          "midi": 99,
          "time": 21.760869565216968,
          "velocity": 0.07874015748031496,
          "duration": 0.03260869565217206
        },
        {
          "name": "G#5",
          "midi": 80,
          "time": 21.77173913043436,
          "velocity": 0.1968503937007874,
          "duration": 0.0760869565217348
        },
        {
          "name": "E5",
          "midi": 76,
          "time": 21.79347826086914,
          "velocity": 0.16535433070866143,
          "duration": 0.043478260869562746
        },
        {
          "name": "A#4",
          "midi": 70,
          "time": 21.80434782608653,
          "velocity": 0.16535433070866143,
          "duration": 0.09782608695651973
        },
        {
          "name": "F#7",
          "midi": 102,
          "time": 21.80434782608653,
          "velocity": 0.12598425196850394,
          "duration": 0.10869565217391042
        },
        {
          "name": "E7",
          "midi": 100,
          "time": 21.826086956521312,
          "velocity": 0.09448818897637795,
          "duration": 0.03260869565217206
        },
        {
          "name": "C#4",
          "midi": 61,
          "time": 21.836956521738703,
          "velocity": 0.3228346456692913,
          "duration": 0.1630434782608674
        },
        {
          "name": "F#6",
          "midi": 90,
          "time": 21.869565217390875,
          "velocity": 0.2440944881889764,
          "duration": 0.14130434782608603
        },
        {
          "name": "A#4",
          "midi": 70,
          "time": 21.92391304347783,
          "velocity": 0.12598425196850394,
          "duration": 0.08695652173912904
        },
        {
          "name": "A5",
          "midi": 81,
          "time": 21.92391304347783,
          "velocity": 0.07086614173228346,
          "duration": 0.06521739130434767
        },
        {
          "name": "E7",
          "midi": 100,
          "time": 21.967391304347398,
          "velocity": 0.15748031496062992,
          "duration": 0.043478260869562746
        },
        {
          "name": "G1",
          "midi": 31,
          "time": 21.99999999999957,
          "velocity": 0.48031496062992124,
          "duration": 0.021739130434781373
        },
        {
          "name": "D3",
          "midi": 50,
          "time": 21.99999999999957,
          "velocity": 0.4881889763779528,
          "duration": 0.021739130434781373
        },
        {
          "name": "C5",
          "midi": 72,
          "time": 21.99999999999957,
          "velocity": 0.14960629921259844,
          "duration": 0.043478260869562746
        },
        {
          "name": "A5",
          "midi": 81,
          "time": 21.99999999999957,
          "velocity": 0.14173228346456693,
          "duration": 0.08695652173912549
        },
        {
          "name": "E4",
          "midi": 64,
          "time": 22.01086956521696,
          "velocity": 0.2125984251968504,
          "duration": 0.03260869565217206
        },
        {
          "name": "B2",
          "midi": 47,
          "time": 22.02173913043435,
          "velocity": 0.5354330708661418,
          "duration": 0.010869565217390686
        },
        {
          "name": "F#2",
          "midi": 42,
          "time": 22.032608695651742,
          "velocity": 0.5354330708661418,
          "duration": 0.010869565217390686
        },
        {
          "name": "D2",
          "midi": 38,
          "time": 22.043478260869133,
          "velocity": 0.5433070866141733,
          "duration": 0.010869565217390686
        },
        {
          "name": "A1",
          "midi": 33,
          "time": 22.054347826086524,
          "velocity": 0.5669291338582677,
          "duration": 0.010869565217390686
        },
        {
          "name": "B4",
          "midi": 71,
          "time": 22.054347826086524,
          "velocity": 0.16535433070866143,
          "duration": 0.03260869565217206
        },
        {
          "name": "F#5",
          "midi": 78,
          "time": 22.054347826086524,
          "velocity": 0.10236220472440945,
          "duration": 0.043478260869562746
        },
        {
          "name": "G#1",
          "midi": 32,
          "time": 22.065217391303914,
          "velocity": 0.5748031496062992,
          "duration": 0.010869565217390686
        },
        {
          "name": "G4",
          "midi": 67,
          "time": 22.065217391303914,
          "velocity": 0.2283464566929134,
          "duration": 0.0760869565217348
        },
        {
          "name": "G1",
          "midi": 31,
          "time": 22.076086956521305,
          "velocity": 0.5669291338582677,
          "duration": 0.021739130434781373
        },
        {
          "name": "C#5",
          "midi": 73,
          "time": 22.086956521738696,
          "velocity": 0.11811023622047244,
          "duration": 0.03260869565217206
        },
        {
          "name": "F#1",
          "midi": 30,
          "time": 22.097826086956086,
          "velocity": 0.5511811023622047,
          "duration": 0.043478260869562746
        },
        {
          "name": "D3",
          "midi": 50,
          "time": 22.108695652173477,
          "velocity": 0.2755905511811024,
          "duration": 0.05434782608695343
        },
        {
          "name": "B4",
          "midi": 71,
          "time": 22.108695652173477,
          "velocity": 0.25196850393700787,
          "duration": 0.19565217391303946
        },
        {
          "name": "F5",
          "midi": 77,
          "time": 22.108695652173477,
          "velocity": 0.12598425196850394,
          "duration": 0.043478260869562746
        },
        {
          "name": "G1",
          "midi": 31,
          "time": 22.14130434782565,
          "velocity": 0.47244094488188976,
          "duration": 0.021739130434781373
        },
        {
          "name": "G6",
          "midi": 91,
          "time": 22.14130434782565,
          "velocity": 0.30708661417322836,
          "duration": 0.1739130434782581
        },
        {
          "name": "G4",
          "midi": 67,
          "time": 22.15217391304304,
          "velocity": 0.25984251968503935,
          "duration": 0.18478260869564878
        },
        {
          "name": "G#1",
          "midi": 32,
          "time": 22.16304347826043,
          "velocity": 0.4330708661417323,
          "duration": 0.021739130434781373
        },
        {
          "name": "D4",
          "midi": 62,
          "time": 22.17391304347782,
          "velocity": 0.2440944881889764,
          "duration": 0.14130434782608603
        },
        {
          "name": "G1",
          "midi": 31,
          "time": 22.184782608695212,
          "velocity": 0.49606299212598426,
          "duration": 0.11956521739130466
        },
        {
          "name": "G#6",
          "midi": 92,
          "time": 22.184782608695212,
          "velocity": 0.09448818897637795,
          "duration": 0.0434782608695663
        },
        {
          "name": "B6",
          "midi": 95,
          "time": 22.217391304347387,
          "velocity": 0.16535433070866143,
          "duration": 0.10869565217391042
        },
        {
          "name": "F5",
          "midi": 77,
          "time": 22.24999999999956,
          "velocity": 0.14960629921259844,
          "duration": 0.054347826086956985
        },
        {
          "name": "D7",
          "midi": 98,
          "time": 22.27173913043434,
          "velocity": 0.14173228346456693,
          "duration": 0.0434782608695663
        },
        {
          "name": "F1",
          "midi": 29,
          "time": 22.315217391303907,
          "velocity": 0.5511811023622047,
          "duration": 0.010869565217390686
        },
        {
          "name": "F#1",
          "midi": 30,
          "time": 22.326086956521298,
          "velocity": 0.5590551181102362,
          "duration": 0.010869565217390686
        },
        {
          "name": "G1",
          "midi": 31,
          "time": 22.33695652173869,
          "velocity": 0.5275590551181102,
          "duration": 0.2826086956521614
        },
        {
          "name": "G4",
          "midi": 67,
          "time": 22.34782608695608,
          "velocity": 0.15748031496062992,
          "duration": 0.03260869565217206
        },
        {
          "name": "G5",
          "midi": 79,
          "time": 22.35869565217347,
          "velocity": 0.2204724409448819,
          "duration": 0.11956521739129755
        },
        {
          "name": "B5",
          "midi": 83,
          "time": 22.35869565217347,
          "velocity": 0.11811023622047244,
          "duration": 0.0760869565217348
        },
        {
          "name": "D7",
          "midi": 98,
          "time": 22.35869565217347,
          "velocity": 0.11023622047244094,
          "duration": 0.043478260869562746
        },
        {
          "name": "A5",
          "midi": 81,
          "time": 22.36956521739086,
          "velocity": 0.11811023622047244,
          "duration": 0.03260869565217206
        },
        {
          "name": "D5",
          "midi": 74,
          "time": 22.38043478260825,
          "velocity": 0.2283464566929134,
          "duration": 0.08695652173912549
        },
        {
          "name": "D4",
          "midi": 62,
          "time": 22.402173913043033,
          "velocity": 0.2755905511811024,
          "duration": 0.21739130434781728
        },
        {
          "name": "G4",
          "midi": 67,
          "time": 22.402173913043033,
          "velocity": 0.2677165354330709,
          "duration": 0.21739130434781728
        },
        {
          "name": "B4",
          "midi": 71,
          "time": 22.402173913043033,
          "velocity": 0.18110236220472442,
          "duration": 0.03260869565217206
        },
        {
          "name": "G6",
          "midi": 91,
          "time": 22.423913043477814,
          "velocity": 0.25984251968503935,
          "duration": 0.21739130434781728
        },
        {
          "name": "B4",
          "midi": 71,
          "time": 22.445652173912595,
          "velocity": 0.2755905511811024,
          "duration": 0.0760869565217348
        },
        {
          "name": "D7",
          "midi": 98,
          "time": 22.445652173912595,
          "velocity": 0.18110236220472442,
          "duration": 0.0760869565217348
        },
        {
          "name": "B6",
          "midi": 95,
          "time": 22.49999999999955,
          "velocity": 0.13385826771653545,
          "duration": 0.05434782608695343
        },
        {
          "name": "F5",
          "midi": 77,
          "time": 22.51086956521694,
          "velocity": 0.11811023622047244,
          "duration": 0.03260869565217206
        },
        {
          "name": "B4",
          "midi": 71,
          "time": 22.54347826086911,
          "velocity": 0.1889763779527559,
          "duration": 0.07608695652173836
        },
        {
          "name": "C#5",
          "midi": 73,
          "time": 22.60869565217346,
          "velocity": 0.2677165354330709,
          "duration": 0.043478260869562746
        },
        {
          "name": "G#6",
          "midi": 92,
          "time": 22.60869565217346,
          "velocity": 0.2125984251968504,
          "duration": 0.03260869565217206
        },
        {
          "name": "A#3",
          "midi": 58,
          "time": 22.61956521739085,
          "velocity": 0.5433070866141733,
          "duration": 0.021739130434781373
        },
        {
          "name": "B5",
          "midi": 83,
          "time": 22.61956521739085,
          "velocity": 0.11811023622047244,
          "duration": 0.043478260869562746
        },
        {
          "name": "E6",
          "midi": 88,
          "time": 22.61956521739085,
          "velocity": 0.18110236220472442,
          "duration": 0.03260869565217206
        },
        {
          "name": "A#6",
          "midi": 94,
          "time": 22.61956521739085,
          "velocity": 0.09448818897637795,
          "duration": 0.05434782608695343
        },
        {
          "name": "F#4",
          "midi": 66,
          "time": 22.63043478260824,
          "velocity": 0.23622047244094488,
          "duration": 0.021739130434781373
        },
        {
          "name": "G5",
          "midi": 79,
          "time": 22.63043478260824,
          "velocity": 0.14960629921259844,
          "duration": 0.0760869565217348
        },
        {
          "name": "A3",
          "midi": 57,
          "time": 22.64130434782563,
          "velocity": 0.5905511811023622,
          "duration": 0.043478260869562746
        },
        {
          "name": "D#6",
          "midi": 87,
          "time": 22.652173913043022,
          "velocity": 0.11811023622047244,
          "duration": 0.03260869565217206
        },
        {
          "name": "G1",
          "midi": 31,
          "time": 22.663043478260413,
          "velocity": 0.4566929133858268,
          "duration": 0.09782608695651618
        },
        {
          "name": "A5",
          "midi": 81,
          "time": 22.673913043477803,
          "velocity": 0.14173228346456693,
          "duration": 0.06521739130434412
        },
        {
          "name": "G#6",
          "midi": 92,
          "time": 22.673913043477803,
          "velocity": 0.11023622047244094,
          "duration": 0.03260869565217206
        },
        {
          "name": "C7",
          "midi": 96,
          "time": 22.673913043477803,
          "velocity": 0.09448818897637795,
          "duration": 0.03260869565217206
        },
        {
          "name": "E7",
          "midi": 100,
          "time": 22.673913043477803,
          "velocity": 0.14960629921259844,
          "duration": 0.03260869565217206
        },
        {
          "name": "G#3",
          "midi": 56,
          "time": 22.684782608695194,
          "velocity": 0.47244094488188976,
          "duration": 0.03260869565217206
        },
        {
          "name": "D5",
          "midi": 74,
          "time": 22.695652173912585,
          "velocity": 0.1968503937007874,
          "duration": 0.08695652173912549
        },
        {
          "name": "F7",
          "midi": 101,
          "time": 22.695652173912585,
          "velocity": 0.11811023622047244,
          "duration": 0.05434782608695343
        },
        {
          "name": "G4",
          "midi": 67,
          "time": 22.706521739129975,
          "velocity": 0.15748031496062992,
          "duration": 0.10869565217390686
        },
        {
          "name": "B4",
          "midi": 71,
          "time": 22.706521739129975,
          "velocity": 0.15748031496062992,
          "duration": 0.03260869565217206
        },
        {
          "name": "D#7",
          "midi": 99,
          "time": 22.706521739129975,
          "velocity": 0.11811023622047244,
          "duration": 0.05434782608695343
        },
        {
          "name": "D3",
          "midi": 50,
          "time": 22.728260869564757,
          "velocity": 0.28346456692913385,
          "duration": 0.03260869565217206
        },
        {
          "name": "F5",
          "midi": 77,
          "time": 22.728260869564757,
          "velocity": 0.07874015748031496,
          "duration": 0.03260869565217206
        },
        {
          "name": "B4",
          "midi": 71,
          "time": 22.749999999999538,
          "velocity": 0.2283464566929134,
          "duration": 0.043478260869562746
        },
        {
          "name": "G6",
          "midi": 91,
          "time": 22.749999999999538,
          "velocity": 0.13385826771653545,
          "duration": 0.03260869565217206
        },
        {
          "name": "F1",
          "midi": 29,
          "time": 22.77173913043432,
          "velocity": 0.5196850393700787,
          "duration": 0.010869565217390686
        },
        {
          "name": "F#1",
          "midi": 30,
          "time": 22.78260869565171,
          "velocity": 0.5511811023622047,
          "duration": 0.010869565217390686
        },
        {
          "name": "G#1",
          "midi": 32,
          "time": 22.7934782608691,
          "velocity": 0.5669291338582677,
          "duration": 0.1521739130434696
        },
        {
          "name": "C5",
          "midi": 72,
          "time": 22.7934782608691,
          "velocity": 0.15748031496062992,
          "duration": 0.043478260869562746
        },
        {
          "name": "D#4",
          "midi": 63,
          "time": 22.80434782608649,
          "velocity": 0.2125984251968504,
          "duration": 0.03260869565217206
        },
        {
          "name": "G#4",
          "midi": 68,
          "time": 22.80434782608649,
          "velocity": 0.2204724409448819,
          "duration": 0.0760869565217348
        },
        {
          "name": "D#5",
          "midi": 75,
          "time": 22.826086956521273,
          "velocity": 0.2204724409448819,
          "duration": 0.09782608695651618
        },
        {
          "name": "G5",
          "midi": 79,
          "time": 22.826086956521273,
          "velocity": 0.16535433070866143,
          "duration": 0.043478260869562746
        },
        {
          "name": "D#7",
          "midi": 99,
          "time": 22.836956521738664,
          "velocity": 0.07086614173228346,
          "duration": 0.03260869565217206
        },
        {
          "name": "G#6",
          "midi": 92,
          "time": 22.847826086956054,
          "velocity": 0.2047244094488189,
          "duration": 0.0760869565217348
        },
        {
          "name": "F#7",
          "midi": 102,
          "time": 22.847826086956054,
          "velocity": 0.11023622047244094,
          "duration": 0.043478260869562746
        },
        {
          "name": "B5",
          "midi": 83,
          "time": 22.858695652173445,
          "velocity": 0.09448818897637795,
          "duration": 0.043478260869562746
        },
        {
          "name": "D#4",
          "midi": 63,
          "time": 22.869565217390836,
          "velocity": 0.23622047244094488,
          "duration": 0.13043478260868824
        },
        {
          "name": "C5",
          "midi": 72,
          "time": 22.869565217390836,
          "velocity": 0.2047244094488189,
          "duration": 0.0760869565217348
        },
        {
          "name": "C7",
          "midi": 96,
          "time": 22.880434782608226,
          "velocity": 0.2047244094488189,
          "duration": 0.06521739130434412
        },
        {
          "name": "G#4",
          "midi": 68,
          "time": 22.891304347825617,
          "velocity": 0.1968503937007874,
          "duration": 0.09782608695651618
        },
        {
          "name": "G1",
          "midi": 31,
          "time": 22.94565217391257,
          "velocity": 0.5433070866141733,
          "duration": 0.29347826086955564
        },
        {
          "name": "E5",
          "midi": 76,
          "time": 22.94565217391257,
          "velocity": 0.11811023622047244,
          "duration": 0.03260869565217206
        },
        {
          "name": "B4",
          "midi": 71,
          "time": 22.95652173912996,
          "velocity": 0.12598425196850394,
          "duration": 0.043478260869562746
        },
        {
          "name": "G5",
          "midi": 79,
          "time": 22.95652173912996,
          "velocity": 0.2440944881889764,
          "duration": 0.06521739130434412
        },
        {
          "name": "D6",
          "midi": 86,
          "time": 22.95652173912996,
          "velocity": 0.2125984251968504,
          "duration": 0.10869565217390686
        },
        {
          "name": "A5",
          "midi": 81,
          "time": 22.967391304347352,
          "velocity": 0.14173228346456693,
          "duration": 0.06521739130434412
        },
        {
          "name": "B5",
          "midi": 83,
          "time": 22.967391304347352,
          "velocity": 0.13385826771653545,
          "duration": 0.043478260869562746
        },
        {
          "name": "G4",
          "midi": 67,
          "time": 22.989130434782133,
          "velocity": 0.2440944881889764,
          "duration": 0.2391304347826022
        },
        {
          "name": "B4",
          "midi": 71,
          "time": 23.010869565216915,
          "velocity": 0.28346456692913385,
          "duration": 0.10869565217390686
        },
        {
          "name": "D5",
          "midi": 74,
          "time": 23.010869565216915,
          "velocity": 0.25984251968503935,
          "duration": 0.08695652173912549
        },
        {
          "name": "F5",
          "midi": 77,
          "time": 23.021739130434305,
          "velocity": 0.1732283464566929,
          "duration": 0.0760869565217348
        },
        {
          "name": "C#4",
          "midi": 61,
          "time": 23.054347826086477,
          "velocity": 0.11811023622047244,
          "duration": 0.03260869565217206
        },
        {
          "name": "A5",
          "midi": 81,
          "time": 23.07608695652126,
          "velocity": 0.10236220472440945,
          "duration": 0.03260869565217206
        },
        {
          "name": "D4",
          "midi": 62,
          "time": 23.08695652173865,
          "velocity": 0.2755905511811024,
          "duration": 0.13043478260869534
        },
        {
          "name": "D6",
          "midi": 86,
          "time": 23.09782608695604,
          "velocity": 0.18110236220472442,
          "duration": 0.14130434782608603
        },
        {
          "name": "B6",
          "midi": 95,
          "time": 23.09782608695604,
          "velocity": 0.23622047244094488,
          "duration": 0.15217391304347672
        },
        {
          "name": "F7",
          "midi": 101,
          "time": 23.130434782608212,
          "velocity": 0.10236220472440945,
          "duration": 0.054347826086956985
        },
        {
          "name": "B4",
          "midi": 71,
          "time": 23.141304347825603,
          "velocity": 0.1968503937007874,
          "duration": 0.0869565217391326
        },
        {
          "name": "D3",
          "midi": 50,
          "time": 23.217391304347345,
          "velocity": 0.3700787401574803,
          "duration": 0.021739130434781373
        },
        {
          "name": "G2",
          "midi": 43,
          "time": 23.249999999999517,
          "velocity": 0.5511811023622047,
          "duration": 0.010869565217390686
        },
        {
          "name": "D#2",
          "midi": 39,
          "time": 23.260869565216908,
          "velocity": 0.5275590551181102,
          "duration": 0.010869565217390686
        },
        {
          "name": "C4",
          "midi": 60,
          "time": 23.260869565216908,
          "velocity": 0.1889763779527559,
          "duration": 0.03260869565217206
        },
        {
          "name": "A1",
          "midi": 33,
          "time": 23.28260869565169,
          "velocity": 0.5196850393700787,
          "duration": 0.010869565217390686
        },
        {
          "name": "G#1",
          "midi": 32,
          "time": 23.29347826086908,
          "velocity": 0.5275590551181102,
          "duration": 0.010869565217390686
        },
        {
          "name": "G1",
          "midi": 31,
          "time": 23.30434782608647,
          "velocity": 0.5118110236220472,
          "duration": 0.021739130434781373
        },
        {
          "name": "G#5",
          "midi": 80,
          "time": 23.30434782608647,
          "velocity": 0.11811023622047244,
          "duration": 0.06521739130434412
        },
        {
          "name": "A#5",
          "midi": 82,
          "time": 23.30434782608647,
          "velocity": 0.1889763779527559,
          "duration": 0.08695652173912549
        },
        {
          "name": "F#1",
          "midi": 30,
          "time": 23.32608695652125,
          "velocity": 0.4409448818897638,
          "duration": 0.021739130434781373
        },
        {
          "name": "D3",
          "midi": 50,
          "time": 23.32608695652125,
          "velocity": 0.10236220472440945,
          "duration": 0.03260869565217206
        },
        {
          "name": "C6",
          "midi": 84,
          "time": 23.32608695652125,
          "velocity": 0.11023622047244094,
          "duration": 0.05434782608695343
        },
        {
          "name": "C#6",
          "midi": 85,
          "time": 23.32608695652125,
          "velocity": 0.12598425196850394,
          "duration": 0.06521739130434412
        },
        {
          "name": "F#7",
          "midi": 102,
          "time": 23.402173913042986,
          "velocity": 0.13385826771653545,
          "duration": 0.03260869565217206
        },
        {
          "name": "C4",
          "midi": 60,
          "time": 23.413043478260377,
          "velocity": 0.25196850393700787,
          "duration": 0.03260869565217206
        },
        {
          "name": "D#6",
          "midi": 87,
          "time": 23.413043478260377,
          "velocity": 0.14960629921259844,
          "duration": 0.13043478260868824
        },
        {
          "name": "C#6",
          "midi": 85,
          "time": 23.423913043477768,
          "velocity": 0.1732283464566929,
          "duration": 0.10869565217390686
        },
        {
          "name": "G6",
          "midi": 91,
          "time": 23.423913043477768,
          "velocity": 0.07874015748031496,
          "duration": 0.05434782608695343
        },
        {
          "name": "G1",
          "midi": 31,
          "time": 23.43478260869516,
          "velocity": 0.5433070866141733,
          "duration": 0.021739130434781373
        },
        {
          "name": "E5",
          "midi": 76,
          "time": 23.43478260869516,
          "velocity": 0.25984251968503935,
          "duration": 0.06521739130434412
        },
        {
          "name": "F#5",
          "midi": 78,
          "time": 23.43478260869516,
          "velocity": 0.2204724409448819,
          "duration": 0.09782608695651618
        },
        {
          "name": "F7",
          "midi": 101,
          "time": 23.43478260869516,
          "velocity": 0.09448818897637795,
          "duration": 0.043478260869562746
        },
        {
          "name": "C#5",
          "midi": 73,
          "time": 23.44565217391255,
          "velocity": 0.14960629921259844,
          "duration": 0.08695652173912549
        },
        {
          "name": "G#5",
          "midi": 80,
          "time": 23.44565217391255,
          "velocity": 0.2755905511811024,
          "duration": 0.09782608695651618
        },
        {
          "name": "A#5",
          "midi": 82,
          "time": 23.44565217391255,
          "velocity": 0.3543307086614173,
          "duration": 0.10869565217390686
        },
        {
          "name": "C6",
          "midi": 84,
          "time": 23.44565217391255,
          "velocity": 0.2125984251968504,
          "duration": 0.09782608695651618
        },
        {
          "name": "F#1",
          "midi": 30,
          "time": 23.45652173912994,
          "velocity": 0.5511811023622047,
          "duration": 0.03260869565217206
        },
        {
          "name": "G1",
          "midi": 31,
          "time": 23.489130434782112,
          "velocity": 0.5511811023622047,
          "duration": 0.03260869565217206
        },
        {
          "name": "D#5",
          "midi": 75,
          "time": 23.499999999999503,
          "velocity": 0.2204724409448819,
          "duration": 0.03260869565217206
        },
        {
          "name": "E7",
          "midi": 100,
          "time": 23.499999999999503,
          "velocity": 0.12598425196850394,
          "duration": 0.03260869565217206
        },
        {
          "name": "G#1",
          "midi": 32,
          "time": 23.543478260869065,
          "velocity": 0.49606299212598426,
          "duration": 0.03260869565217206
        },
        {
          "name": "D#7",
          "midi": 99,
          "time": 23.554347826086456,
          "velocity": 0.15748031496062992,
          "duration": 0.043478260869562746
        },
        {
          "name": "F#7",
          "midi": 102,
          "time": 23.554347826086456,
          "velocity": 0.14173228346456693,
          "duration": 0.03260869565217206
        },
        {
          "name": "C4",
          "midi": 60,
          "time": 23.565217391303847,
          "velocity": 0.30708661417322836,
          "duration": 0.021739130434781373
        },
        {
          "name": "F4",
          "midi": 65,
          "time": 23.565217391303847,
          "velocity": 0.12598425196850394,
          "duration": 0.03260869565217206
        },
        {
          "name": "B6",
          "midi": 95,
          "time": 23.565217391303847,
          "velocity": 0.10236220472440945,
          "duration": 0.03260869565217206
        },
        {
          "name": "C7",
          "midi": 96,
          "time": 23.565217391303847,
          "velocity": 0.11811023622047244,
          "duration": 0.0760869565217348
        },
        {
          "name": "G1",
          "midi": 31,
          "time": 23.576086956521237,
          "velocity": 0.5590551181102362,
          "duration": 0.22826086956520797
        },
        {
          "name": "G6",
          "midi": 91,
          "time": 23.576086956521237,
          "velocity": 0.09448818897637795,
          "duration": 0.05434782608695343
        },
        {
          "name": "C#5",
          "midi": 73,
          "time": 23.586956521738628,
          "velocity": 0.1732283464566929,
          "duration": 0.10869565217390686
        },
        {
          "name": "F#5",
          "midi": 78,
          "time": 23.586956521738628,
          "velocity": 0.25984251968503935,
          "duration": 0.0760869565217348
        },
        {
          "name": "A#5",
          "midi": 82,
          "time": 23.586956521738628,
          "velocity": 0.3779527559055118,
          "duration": 0.2065217391304266
        },
        {
          "name": "C6",
          "midi": 84,
          "time": 23.586956521738628,
          "velocity": 0.29133858267716534,
          "duration": 0.22826086956520797
        },
        {
          "name": "C#6",
          "midi": 85,
          "time": 23.586956521738628,
          "velocity": 0.2125984251968504,
          "duration": 0.22826086956520797
        },
        {
          "name": "F7",
          "midi": 101,
          "time": 23.586956521738628,
          "velocity": 0.07874015748031496,
          "duration": 0.043478260869562746
        },
        {
          "name": "E5",
          "midi": 76,
          "time": 23.59782608695602,
          "velocity": 0.12598425196850394,
          "duration": 0.05434782608695343
        },
        {
          "name": "G#5",
          "midi": 80,
          "time": 23.59782608695602,
          "velocity": 0.2283464566929134,
          "duration": 0.06521739130434412
        },
        {
          "name": "D#6",
          "midi": 87,
          "time": 23.60869565217341,
          "velocity": 0.1968503937007874,
          "duration": 0.2065217391304266
        },
        {
          "name": "F6",
          "midi": 89,
          "time": 23.64130434782558,
          "velocity": 0.10236220472440945,
          "duration": 0.09782608695651973
        },
        {
          "name": "G5",
          "midi": 79,
          "time": 23.663043478260363,
          "velocity": 0.11023622047244094,
          "duration": 0.043478260869562746
        },
        {
          "name": "E7",
          "midi": 100,
          "time": 23.663043478260363,
          "velocity": 0.10236220472440945,
          "duration": 0.08695652173912904
        },
        {
          "name": "G#5",
          "midi": 80,
          "time": 23.684782608695144,
          "velocity": 0.10236220472440945,
          "duration": 0.09782608695651973
        },
        {
          "name": "F#6",
          "midi": 90,
          "time": 23.684782608695144,
          "velocity": 0.13385826771653545,
          "duration": 0.14130434782608248
        },
        {
          "name": "C5",
          "midi": 72,
          "time": 23.695652173912535,
          "velocity": 0.25196850393700787,
          "duration": 0.09782608695651973
        },
        {
          "name": "F#5",
          "midi": 78,
          "time": 23.7391304347821,
          "velocity": 0.15748031496062992,
          "duration": 0.05434782608695343
        },
        {
          "name": "D3",
          "midi": 50,
          "time": 23.760869565216883,
          "velocity": 0.1889763779527559,
          "duration": 0.043478260869562746
        },
        {
          "name": "B3",
          "midi": 59,
          "time": 23.771739130434273,
          "velocity": 0.28346456692913385,
          "duration": 0.021739130434781373
        },
        {
          "name": "E4",
          "midi": 64,
          "time": 23.782608695651664,
          "velocity": 0.2677165354330709,
          "duration": 0.03260869565217206
        },
        {
          "name": "A#3",
          "midi": 58,
          "time": 23.793478260869055,
          "velocity": 0.3779527559055118,
          "duration": 0.03260869565217206
        },
        {
          "name": "F#1",
          "midi": 30,
          "time": 23.804347826086445,
          "velocity": 0.4645669291338583,
          "duration": 0.021739130434781373
        },
        {
          "name": "F#4",
          "midi": 66,
          "time": 23.836956521738617,
          "velocity": 0.36220472440944884,
          "duration": 0.03260869565217206
        },
        {
          "name": "C#5",
          "midi": 73,
          "time": 23.836956521738617,
          "velocity": 0.2755905511811024,
          "duration": 0.043478260869562746
        },
        {
          "name": "F5",
          "midi": 77,
          "time": 23.836956521738617,
          "velocity": 0.2047244094488189,
          "duration": 0.03260869565217206
        },
        {
          "name": "B5",
          "midi": 83,
          "time": 23.836956521738617,
          "velocity": 0.15748031496062992,
          "duration": 0.03260869565217206
        },
        {
          "name": "D#6",
          "midi": 87,
          "time": 23.836956521738617,
          "velocity": 0.11811023622047244,
          "duration": 0.043478260869562746
        },
        {
          "name": "G#6",
          "midi": 92,
          "time": 23.836956521738617,
          "velocity": 0.1732283464566929,
          "duration": 0.03260869565217206
        },
        {
          "name": "E7",
          "midi": 100,
          "time": 23.836956521738617,
          "velocity": 0.18110236220472442,
          "duration": 0.03260869565217206
        },
        {
          "name": "F7",
          "midi": 101,
          "time": 23.836956521738617,
          "velocity": 0.1889763779527559,
          "duration": 0.03260869565217206
        },
        {
          "name": "A#5",
          "midi": 82,
          "time": 23.847826086956008,
          "velocity": 0.10236220472440945,
          "duration": 0.03260869565217206
        },
        {
          "name": "A#3",
          "midi": 58,
          "time": 23.8586956521734,
          "velocity": 0.5669291338582677,
          "duration": 0.010869565217390686
        },
        {
          "name": "E4",
          "midi": 64,
          "time": 23.8586956521734,
          "velocity": 0.25984251968503935,
          "duration": 0.021739130434781373
        },
        {
          "name": "A3",
          "midi": 57,
          "time": 23.86956521739079,
          "velocity": 0.5984251968503937,
          "duration": 0.043478260869562746
        },
        {
          "name": "G1",
          "midi": 31,
          "time": 23.88043478260818,
          "velocity": 0.5511811023622047,
          "duration": 0.23913043478260576
        },
        {
          "name": "C#5",
          "midi": 73,
          "time": 23.90217391304296,
          "velocity": 0.1968503937007874,
          "duration": 0.10869565217391397
        },
        {
          "name": "G#3",
          "midi": 56,
          "time": 23.913043478260352,
          "velocity": 0.4330708661417323,
          "duration": 0.0434782608695663
        },
        {
          "name": "G#5",
          "midi": 80,
          "time": 23.923913043477743,
          "velocity": 0.2755905511811024,
          "duration": 0.17391304347826164
        },
        {
          "name": "A#5",
          "midi": 82,
          "time": 23.923913043477743,
          "velocity": 0.2992125984251969,
          "duration": 0.15217391304348027
        },
        {
          "name": "C6",
          "midi": 84,
          "time": 23.95652173912992,
          "velocity": 0.25984251968503935,
          "duration": 0.1630434782608674
        },
        {
          "name": "F#5",
          "midi": 78,
          "time": 23.9782608695647,
          "velocity": 0.11023622047244094,
          "duration": 0.03260869565217561
        },
        {
          "name": "D#6",
          "midi": 87,
          "time": 23.9782608695647,
          "velocity": 0.13385826771653545,
          "duration": 0.14130434782608603
        },
        {
          "name": "C5",
          "midi": 72,
          "time": 24.010869565216876,
          "velocity": 0.2204724409448819,
          "duration": 0.08695652173912904
        },
        {
          "name": "D#5",
          "midi": 75,
          "time": 24.010869565216876,
          "velocity": 0.16535433070866143,
          "duration": 0.09782608695651973
        },
        {
          "name": "D3",
          "midi": 50,
          "time": 24.054347826086442,
          "velocity": 0.14173228346456693,
          "duration": 0.043478260869562746
        },
        {
          "name": "F#5",
          "midi": 78,
          "time": 24.054347826086442,
          "velocity": 0.11811023622047244,
          "duration": 0.05434782608695343
        },
        {
          "name": "E7",
          "midi": 100,
          "time": 24.065217391303833,
          "velocity": 0.15748031496062992,
          "duration": 0.05434782608695343
        },
        {
          "name": "B3",
          "midi": 59,
          "time": 24.076086956521223,
          "velocity": 0.2283464566929134,
          "duration": 0.021739130434781373
        },
        {
          "name": "E4",
          "midi": 64,
          "time": 24.076086956521223,
          "velocity": 0.2677165354330709,
          "duration": 0.043478260869562746
        },
        {
          "name": "F#6",
          "midi": 90,
          "time": 24.076086956521223,
          "velocity": 0.13385826771653545,
          "duration": 0.05434782608695343
        },
        {
          "name": "E6",
          "midi": 88,
          "time": 24.086956521738614,
          "velocity": 0.07874015748031496,
          "duration": 0.03260869565217206
        },
        {
          "name": "F6",
          "midi": 89,
          "time": 24.086956521738614,
          "velocity": 0.10236220472440945,
          "duration": 0.03260869565217206
        },
        {
          "name": "A#3",
          "midi": 58,
          "time": 24.097826086956005,
          "velocity": 0.3779527559055118,
          "duration": 0.021739130434781373
        },
        {
          "name": "F#1",
          "midi": 30,
          "time": 24.119565217390786,
          "velocity": 0.3858267716535433,
          "duration": 0.021739130434781373
        },
        {
          "name": "F#4",
          "midi": 66,
          "time": 24.141304347825567,
          "velocity": 0.1968503937007874,
          "duration": 0.043478260869562746
        },
        {
          "name": "B2",
          "midi": 47,
          "time": 24.16304347826035,
          "velocity": 0.5590551181102362,
          "duration": 0.010869565217390686
        },
        {
          "name": "G2",
          "midi": 43,
          "time": 24.17391304347774,
          "velocity": 0.5590551181102362,
          "duration": 0.010869565217390686
        },
        {
          "name": "C#2",
          "midi": 37,
          "time": 24.18478260869513,
          "velocity": 0.5196850393700787,
          "duration": 0.010869565217390686
        },
        {
          "name": "F#5",
          "midi": 78,
          "time": 24.217391304347302,
          "velocity": 0.2440944881889764,
          "duration": 0.19565217391303236
        },
        {
          "name": "G#5",
          "midi": 80,
          "time": 24.217391304347302,
          "velocity": 0.23622047244094488,
          "duration": 0.19565217391303236
        },
        {
          "name": "C#5",
          "midi": 73,
          "time": 24.228260869564693,
          "velocity": 0.07086614173228346,
          "duration": 0.0760869565217348
        },
        {
          "name": "A#5",
          "midi": 82,
          "time": 24.228260869564693,
          "velocity": 0.2755905511811024,
          "duration": 0.17391304347825098
        },
        {
          "name": "E1",
          "midi": 28,
          "time": 24.239130434782084,
          "velocity": 0.3937007874015748,
          "duration": 0.021739130434781373
        },
        {
          "name": "C#6",
          "midi": 85,
          "time": 24.239130434782084,
          "velocity": 0.15748031496062992,
          "duration": 0.18478260869564167
        },
        {
          "name": "C6",
          "midi": 84,
          "time": 24.260869565216865,
          "velocity": 0.23622047244094488,
          "duration": 0.1630434782608603
        },
        {
          "name": "F#1",
          "midi": 30,
          "time": 24.271739130434256,
          "velocity": 0.5196850393700787,
          "duration": 0.043478260869562746
        },
        {
          "name": "D#5",
          "midi": 75,
          "time": 24.282608695651646,
          "velocity": 0.2125984251968504,
          "duration": 0.11956521739129755
        },
        {
          "name": "E7",
          "midi": 100,
          "time": 24.293478260869037,
          "velocity": 0.11023622047244094,
          "duration": 0.043478260869562746
        },
        {
          "name": "G1",
          "midi": 31,
          "time": 24.31521739130382,
          "velocity": 0.5433070866141733,
          "duration": 0.13043478260868824
        },
        {
          "name": "C5",
          "midi": 72,
          "time": 24.31521739130382,
          "velocity": 0.18110236220472442,
          "duration": 0.08695652173912549
        },
        {
          "name": "D3",
          "midi": 50,
          "time": 24.35869565217338,
          "velocity": 0.12598425196850394,
          "duration": 0.05434782608695343
        },
        {
          "name": "B3",
          "midi": 59,
          "time": 24.380434782608162,
          "velocity": 0.33070866141732286,
          "duration": 0.03260869565217206
        },
        {
          "name": "E4",
          "midi": 64,
          "time": 24.380434782608162,
          "velocity": 0.30708661417322836,
          "duration": 0.05434782608695343
        },
        {
          "name": "F#2",
          "midi": 42,
          "time": 24.456521739129897,
          "velocity": 0.4094488188976378,
          "duration": 0.021739130434781373
        },
        {
          "name": "B4",
          "midi": 71,
          "time": 24.456521739129897,
          "velocity": 0.14960629921259844,
          "duration": 0.03260869565217206
        },
        {
          "name": "D4",
          "midi": 62,
          "time": 24.467391304347288,
          "velocity": 0.1968503937007874,
          "duration": 0.05434782608695343
        },
        {
          "name": "C#2",
          "midi": 37,
          "time": 24.48913043478207,
          "velocity": 0.5748031496062992,
          "duration": 0.010869565217390686
        },
        {
          "name": "A1",
          "midi": 33,
          "time": 24.49999999999946,
          "velocity": 0.5590551181102362,
          "duration": 0.010869565217390686
        },
        {
          "name": "A5",
          "midi": 81,
          "time": 24.49999999999946,
          "velocity": 0.13385826771653545,
          "duration": 0.043478260869562746
        },
        {
          "name": "G#1",
          "midi": 32,
          "time": 24.51086956521685,
          "velocity": 0.5354330708661418,
          "duration": 0.010869565217390686
        },
        {
          "name": "G4",
          "midi": 67,
          "time": 24.51086956521685,
          "velocity": 0.2125984251968504,
          "duration": 0.07608695652173836
        },
        {
          "name": "G1",
          "midi": 31,
          "time": 24.52173913043424,
          "velocity": 0.5275590551181102,
          "duration": 0.010869565217390686
        },
        {
          "name": "F#1",
          "midi": 30,
          "time": 24.532608695651632,
          "velocity": 0.5354330708661418,
          "duration": 0.07608695652173836
        },
        {
          "name": "G6",
          "midi": 91,
          "time": 24.543478260869023,
          "velocity": 0.18110236220472442,
          "duration": 0.10869565217391042
        },
        {
          "name": "D3",
          "midi": 50,
          "time": 24.554347826086413,
          "velocity": 0.25196850393700787,
          "duration": 0.03260869565217561
        },
        {
          "name": "B4",
          "midi": 71,
          "time": 24.554347826086413,
          "velocity": 0.2283464566929134,
          "duration": 0.07608695652173836
        },
        {
          "name": "F5",
          "midi": 77,
          "time": 24.554347826086413,
          "velocity": 0.15748031496062992,
          "duration": 0.0434782608695663
        },
        {
          "name": "G1",
          "midi": 31,
          "time": 24.60869565217337,
          "velocity": 0.5118110236220472,
          "duration": 0.14130434782607892
        },
        {
          "name": "G5",
          "midi": 79,
          "time": 24.60869565217337,
          "velocity": 0.2125984251968504,
          "duration": 0.13043478260868824
        },
        {
          "name": "B6",
          "midi": 95,
          "time": 24.60869565217337,
          "velocity": 0.16535433070866143,
          "duration": 0.1521739130434696
        },
        {
          "name": "D4",
          "midi": 62,
          "time": 24.61956521739076,
          "velocity": 0.2283464566929134,
          "duration": 0.14130434782607892
        },
        {
          "name": "G4",
          "midi": 67,
          "time": 24.61956521739076,
          "velocity": 0.2677165354330709,
          "duration": 0.13043478260868824
        },
        {
          "name": "B5",
          "midi": 83,
          "time": 24.641304347825542,
          "velocity": 0.12598425196850394,
          "duration": 0.10869565217390686
        },
        {
          "name": "F7",
          "midi": 101,
          "time": 24.641304347825542,
          "velocity": 0.14960629921259844,
          "duration": 0.05434782608695343
        },
        {
          "name": "A5",
          "midi": 81,
          "time": 24.652173913042933,
          "velocity": 0.07874015748031496,
          "duration": 0.03260869565217206
        },
        {
          "name": "D7",
          "midi": 98,
          "time": 24.652173913042933,
          "velocity": 0.18110236220472442,
          "duration": 0.06521739130434412
        },
        {
          "name": "B4",
          "midi": 71,
          "time": 24.673913043477715,
          "velocity": 0.14173228346456693,
          "duration": 0.08695652173912549
        },
        {
          "name": "F5",
          "midi": 77,
          "time": 24.695652173912496,
          "velocity": 0.11811023622047244,
          "duration": 0.043478260869562746
        },
        {
          "name": "F7",
          "midi": 101,
          "time": 24.728260869564668,
          "velocity": 0.08661417322834646,
          "duration": 0.03260869565217206
        },
        {
          "name": "G#1",
          "midi": 32,
          "time": 24.74999999999945,
          "velocity": 0.5433070866141733,
          "duration": 0.021739130434781373
        },
        {
          "name": "G1",
          "midi": 31,
          "time": 24.77173913043423,
          "velocity": 0.5511811023622047,
          "duration": 0.1630434782608603
        },
        {
          "name": "B5",
          "midi": 83,
          "time": 24.793478260869012,
          "velocity": 0.08661417322834646,
          "duration": 0.08695652173912549
        },
        {
          "name": "G4",
          "midi": 67,
          "time": 24.804347826086403,
          "velocity": 0.1968503937007874,
          "duration": 0.1630434782608603
        },
        {
          "name": "A5",
          "midi": 81,
          "time": 24.804347826086403,
          "velocity": 0.16535433070866143,
          "duration": 0.043478260869562746
        },
        {
          "name": "D5",
          "midi": 74,
          "time": 24.826086956521184,
          "velocity": 0.2125984251968504,
          "duration": 0.08695652173912549
        },
        {
          "name": "B4",
          "midi": 71,
          "time": 24.847826086955966,
          "velocity": 0.14173228346456693,
          "duration": 0.03260869565217206
        },
        {
          "name": "G6",
          "midi": 91,
          "time": 24.847826086955966,
          "velocity": 0.1889763779527559,
          "duration": 0.06521739130434412
        },
        {
          "name": "D4",
          "midi": 62,
          "time": 24.858695652173356,
          "velocity": 0.15748031496062992,
          "duration": 0.06521739130434412
        },
        {
          "name": "F5",
          "midi": 77,
          "time": 24.858695652173356,
          "velocity": 0.14173228346456693,
          "duration": 0.03260869565217206
        },
        {
          "name": "F7",
          "midi": 101,
          "time": 24.858695652173356,
          "velocity": 0.14173228346456693,
          "duration": 0.03260869565217206
        },
        {
          "name": "B4",
          "midi": 71,
          "time": 24.89130434782553,
          "velocity": 0.2283464566929134,
          "duration": 0.043478260869562746
        },
        {
          "name": "C5",
          "midi": 72,
          "time": 24.9239130434777,
          "velocity": 0.1968503937007874,
          "duration": 0.05434782608695343
        },
        {
          "name": "G#1",
          "midi": 32,
          "time": 24.93478260869509,
          "velocity": 0.5275590551181102,
          "duration": 0.13043478260868824
        },
        {
          "name": "D#4",
          "midi": 63,
          "time": 24.94565217391248,
          "velocity": 0.23622047244094488,
          "duration": 0.043478260869562746
        },
        {
          "name": "G#5",
          "midi": 80,
          "time": 24.956521739129872,
          "velocity": 0.11811023622047244,
          "duration": 0.03260869565217206
        },
        {
          "name": "D#7",
          "midi": 99,
          "time": 24.956521739129872,
          "velocity": 0.16535433070866143,
          "duration": 0.06521739130434412
        },
        {
          "name": "C7",
          "midi": 96,
          "time": 24.967391304347263,
          "velocity": 0.07874015748031496,
          "duration": 0.03260869565217206
        },
        {
          "name": "G5",
          "midi": 79,
          "time": 24.978260869564654,
          "velocity": 0.12598425196850394,
          "duration": 0.03260869565217206
        },
        {
          "name": "G#6",
          "midi": 92,
          "time": 24.989130434782044,
          "velocity": 0.14960629921259844,
          "duration": 0.03260869565217206
        },
        {
          "name": "B5",
          "midi": 83,
          "time": 24.999999999999435,
          "velocity": 0.14173228346456693,
          "duration": 0.03260869565217206
        },
        {
          "name": "D#6",
          "midi": 87,
          "time": 24.999999999999435,
          "velocity": 0.2047244094488189,
          "duration": 0.08695652173912549
        },
        {
          "name": "D#4",
          "midi": 63,
          "time": 25.010869565216826,
          "velocity": 0.16535433070866143,
          "duration": 0.03260869565217206
        },
        {
          "name": "C5",
          "midi": 72,
          "time": 25.010869565216826,
          "velocity": 0.25196850393700787,
          "duration": 0.0760869565217348
        },
        {
          "name": "G#5",
          "midi": 80,
          "time": 25.021739130434216,
          "velocity": 0.15748031496062992,
          "duration": 0.0760869565217348
        },
        {
          "name": "G#6",
          "midi": 92,
          "time": 25.032608695651607,
          "velocity": 0.1732283464566929,
          "duration": 0.05434782608695343
        },
        {
          "name": "G1",
          "midi": 31,
          "time": 25.06521739130378,
          "velocity": 0.4330708661417323,
          "duration": 0.021739130434781373
        },
        {
          "name": "A#3",
          "midi": 58,
          "time": 25.06521739130378,
          "velocity": 0.5433070866141733,
          "duration": 0.021739130434781373
        },
        {
          "name": "E5",
          "midi": 76,
          "time": 25.06521739130378,
          "velocity": 0.1889763779527559,
          "duration": 0.05434782608695343
        },
        {
          "name": "D#4",
          "midi": 63,
          "time": 25.07608695652117,
          "velocity": 0.31496062992125984,
          "duration": 0.043478260869562746
        },
        {
          "name": "A3",
          "midi": 57,
          "time": 25.08695652173856,
          "velocity": 0.5905511811023622,
          "duration": 0.043478260869562746
        },
        {
          "name": "B4",
          "midi": 71,
          "time": 25.08695652173856,
          "velocity": 0.16535433070866143,
          "duration": 0.06521739130434412
        },
        {
          "name": "G4",
          "midi": 67,
          "time": 25.108695652173342,
          "velocity": 0.1732283464566929,
          "duration": 0.05434782608695343
        },
        {
          "name": "G1",
          "midi": 31,
          "time": 25.119565217390733,
          "velocity": 0.5118110236220472,
          "duration": 0.2391304347825951
        },
        {
          "name": "D#5",
          "midi": 75,
          "time": 25.119565217390733,
          "velocity": 0.15748031496062992,
          "duration": 0.03260869565217206
        },
        {
          "name": "G#3",
          "midi": 56,
          "time": 25.130434782608123,
          "velocity": 0.4645669291338583,
          "duration": 0.03260869565217206
        },
        {
          "name": "G6",
          "midi": 91,
          "time": 25.130434782608123,
          "velocity": 0.14173228346456693,
          "duration": 0.03260869565217206
        },
        {
          "name": "A6",
          "midi": 93,
          "time": 25.130434782608123,
          "velocity": 0.13385826771653545,
          "duration": 0.03260869565217206
        },
        {
          "name": "E5",
          "midi": 76,
          "time": 25.152173913042905,
          "velocity": 0.1889763779527559,
          "duration": 0.03260869565217206
        },
        {
          "name": "B4",
          "midi": 71,
          "time": 25.163043478260295,
          "velocity": 0.25984251968503935,
          "duration": 0.20652173913042304
        },
        {
          "name": "G4",
          "midi": 67,
          "time": 25.173913043477686,
          "velocity": 0.28346456692913385,
          "duration": 0.20652173913042304
        },
        {
          "name": "D7",
          "midi": 98,
          "time": 25.173913043477686,
          "velocity": 0.09448818897637795,
          "duration": 0.03260869565217206
        },
        {
          "name": "G6",
          "midi": 91,
          "time": 25.184782608695077,
          "velocity": 0.1968503937007874,
          "duration": 0.1521739130434696
        },
        {
          "name": "B6",
          "midi": 95,
          "time": 25.195652173912467,
          "velocity": 0.2125984251968504,
          "duration": 0.05434782608695343
        },
        {
          "name": "D4",
          "midi": 62,
          "time": 25.22826086956464,
          "velocity": 0.25984251968503935,
          "duration": 0.14130434782607892
        },
        {
          "name": "F7",
          "midi": 101,
          "time": 25.22826086956464,
          "velocity": 0.15748031496062992,
          "duration": 0.043478260869562746
        },
        {
          "name": "G#6",
          "midi": 92,
          "time": 25.24999999999942,
          "velocity": 0.07874015748031496,
          "duration": 0.03260869565217206
        },
        {
          "name": "A5",
          "midi": 81,
          "time": 25.26086956521681,
          "velocity": 0.11811023622047244,
          "duration": 0.03260869565217206
        },
        {
          "name": "F5",
          "midi": 77,
          "time": 25.293478260868984,
          "velocity": 0.16535433070866143,
          "duration": 0.06521739130434412
        },
        {
          "name": "D6",
          "midi": 86,
          "time": 25.304347826086374,
          "velocity": 0.16535433070866143,
          "duration": 0.09782608695651618
        },
        {
          "name": "B6",
          "midi": 95,
          "time": 25.315217391303765,
          "velocity": 0.2204724409448819,
          "duration": 0.06521739130434412
        },
        {
          "name": "G#1",
          "midi": 32,
          "time": 25.38043478260811,
          "velocity": 0.5511811023622047,
          "duration": 0.03260869565217206
        },
        {
          "name": "B5",
          "midi": 83,
          "time": 25.40217391304289,
          "velocity": 0.14173228346456693,
          "duration": 0.08695652173912549
        },
        {
          "name": "G1",
          "midi": 31,
          "time": 25.41304347826028,
          "velocity": 0.5354330708661418,
          "duration": 0.2608695652173765
        },
        {
          "name": "G4",
          "midi": 67,
          "time": 25.41304347826028,
          "velocity": 0.25196850393700787,
          "duration": 0.2499999999999858
        },
        {
          "name": "C4",
          "midi": 60,
          "time": 25.423913043477672,
          "velocity": 0.10236220472440945,
          "duration": 0.03260869565217206
        },
        {
          "name": "A5",
          "midi": 81,
          "time": 25.423913043477672,
          "velocity": 0.1732283464566929,
          "duration": 0.043478260869562746
        },
        {
          "name": "G6",
          "midi": 91,
          "time": 25.434782608695063,
          "velocity": 0.18110236220472442,
          "duration": 0.09782608695651618
        },
        {
          "name": "D5",
          "midi": 74,
          "time": 25.445652173912453,
          "velocity": 0.23622047244094488,
          "duration": 0.08695652173912549
        },
        {
          "name": "D4",
          "midi": 62,
          "time": 25.478260869564625,
          "velocity": 0.29133858267716534,
          "duration": 0.19565217391303236
        },
        {
          "name": "F5",
          "midi": 77,
          "time": 25.478260869564625,
          "velocity": 0.13385826771653545,
          "duration": 0.03260869565217206
        },
        {
          "name": "B4",
          "midi": 71,
          "time": 25.499999999999407,
          "velocity": 0.25196850393700787,
          "duration": 0.0760869565217348
        },
        {
          "name": "F7",
          "midi": 101,
          "time": 25.53260869565158,
          "velocity": 0.15748031496062992,
          "duration": 0.05434782608695343
        },
        {
          "name": "D3",
          "midi": 50,
          "time": 25.55434782608636,
          "velocity": 0.3228346456692913,
          "duration": 0.03260869565217206
        },
        {
          "name": "G6",
          "midi": 91,
          "time": 25.55434782608636,
          "velocity": 0.25984251968503935,
          "duration": 0.14130434782607892
        },
        {
          "name": "F5",
          "midi": 77,
          "time": 25.56521739130375,
          "velocity": 0.09448818897637795,
          "duration": 0.03260869565217206
        },
        {
          "name": "B6",
          "midi": 95,
          "time": 25.586956521738532,
          "velocity": 0.31496062992125984,
          "duration": 0.09782608695651618
        },
        {
          "name": "D7",
          "midi": 98,
          "time": 25.586956521738532,
          "velocity": 0.11811023622047244,
          "duration": 0.06521739130434412
        },
        {
          "name": "B4",
          "midi": 71,
          "time": 25.597826086955923,
          "velocity": 0.15748031496062992,
          "duration": 0.08695652173912549
        },
        {
          "name": "F7",
          "midi": 101,
          "time": 25.619565217390704,
          "velocity": 0.11023622047244094,
          "duration": 0.043478260869562746
        },
        {
          "name": "D6",
          "midi": 86,
          "time": 25.630434782608095,
          "velocity": 0.07086614173228346,
          "duration": 0.05434782608695343
        },
        {
          "name": "C#3",
          "midi": 49,
          "time": 25.68478260869505,
          "velocity": 0.5118110236220472,
          "duration": 0.010869565217390686
        },
        {
          "name": "B1",
          "midi": 35,
          "time": 25.69565217391244,
          "velocity": 0.5354330708661418,
          "duration": 0.010869565217390686
        },
        {
          "name": "B4",
          "midi": 71,
          "time": 25.69565217391244,
          "velocity": 0.18110236220472442,
          "duration": 0.09782608695651618
        },
        {
          "name": "C2",
          "midi": 36,
          "time": 25.70652173912983,
          "velocity": 0.5748031496062992,
          "duration": 0.010869565217390686
        },
        {
          "name": "A1",
          "midi": 33,
          "time": 25.71739130434722,
          "velocity": 0.5511811023622047,
          "duration": 0.010869565217390686
        },
        {
          "name": "G4",
          "midi": 67,
          "time": 25.71739130434722,
          "velocity": 0.1968503937007874,
          "duration": 0.1521739130434696
        },
        {
          "name": "G#1",
          "midi": 32,
          "time": 25.72826086956461,
          "velocity": 0.5354330708661418,
          "duration": 0.010869565217390686
        },
        {
          "name": "A5",
          "midi": 81,
          "time": 25.72826086956461,
          "velocity": 0.1889763779527559,
          "duration": 0.043478260869562746
        },
        {
          "name": "G1",
          "midi": 31,
          "time": 25.739130434782002,
          "velocity": 0.5118110236220472,
          "duration": 0.021739130434781373
        },
        {
          "name": "D5",
          "midi": 74,
          "time": 25.749999999999392,
          "velocity": 0.2283464566929134,
          "duration": 0.08695652173912549
        },
        {
          "name": "F#1",
          "midi": 30,
          "time": 25.760869565216783,
          "velocity": 0.5196850393700787,
          "duration": 0.06521739130434412
        },
        {
          "name": "F5",
          "midi": 77,
          "time": 25.760869565216783,
          "velocity": 0.15748031496062992,
          "duration": 0.043478260869562746
        },
        {
          "name": "D3",
          "midi": 50,
          "time": 25.804347826086346,
          "velocity": 0.2755905511811024,
          "duration": 0.03260869565217206
        },
        {
          "name": "B4",
          "midi": 71,
          "time": 25.815217391303737,
          "velocity": 0.2047244094488189,
          "duration": 0.03260869565217206
        },
        {
          "name": "D#3",
          "midi": 51,
          "time": 25.84782608695591,
          "velocity": 0.2440944881889764,
          "duration": 0.021739130434781373
        },
        {
          "name": "G#1",
          "midi": 32,
          "time": 25.8586956521733,
          "velocity": 0.5275590551181102,
          "duration": 0.11956521739129755
        },
        {
          "name": "C5",
          "midi": 72,
          "time": 25.8586956521733,
          "velocity": 0.18110236220472442,
          "duration": 0.11956521739129755
        },
        {
          "name": "E5",
          "midi": 76,
          "time": 25.86956521739069,
          "velocity": 0.10236220472440945,
          "duration": 0.043478260869562746
        },
        {
          "name": "G#5",
          "midi": 80,
          "time": 25.88043478260808,
          "velocity": 0.1889763779527559,
          "duration": 0.043478260869562746
        },
        {
          "name": "G#6",
          "midi": 92,
          "time": 25.88043478260808,
          "velocity": 0.2047244094488189,
          "duration": 0.11956521739129755
        },
        {
          "name": "D#6",
          "midi": 87,
          "time": 25.902173913042862,
          "velocity": 0.2677165354330709,
          "duration": 0.09782608695651618
        },
        {
          "name": "D#3",
          "midi": 51,
          "time": 25.913043478260253,
          "velocity": 0.29133858267716534,
          "duration": 0.03260869565217206
        },
        {
          "name": "A#5",
          "midi": 82,
          "time": 25.913043478260253,
          "velocity": 0.16535433070866143,
          "duration": 0.06521739130434412
        },
        {
          "name": "B5",
          "midi": 83,
          "time": 25.934782608695034,
          "velocity": 0.10236220472440945,
          "duration": 0.03260869565217206
        },
        {
          "name": "D#3",
          "midi": 51,
          "time": 25.956521739129816,
          "velocity": 0.2677165354330709,
          "duration": 0.021739130434781373
        },
        {
          "name": "G#4",
          "midi": 68,
          "time": 25.956521739129816,
          "velocity": 0.11023622047244094,
          "duration": 0.06521739130434412
        },
        {
          "name": "G#5",
          "midi": 80,
          "time": 25.956521739129816,
          "velocity": 0.13385826771653545,
          "duration": 0.03260869565217206
        },
        {
          "name": "C7",
          "midi": 96,
          "time": 25.956521739129816,
          "velocity": 0.1732283464566929,
          "duration": 0.03260869565217206
        },
        {
          "name": "F#1",
          "midi": 30,
          "time": 25.978260869564597,
          "velocity": 0.5118110236220472,
          "duration": 0.010869565217390686
        },
        {
          "name": "F1",
          "midi": 29,
          "time": 25.989130434781988,
          "velocity": 0.5433070866141733,
          "duration": 0.021739130434781373
        },
        {
          "name": "F#1",
          "midi": 30,
          "time": 26.01086956521677,
          "velocity": 0.5433070866141733,
          "duration": 0.010869565217390686
        },
        {
          "name": "G1",
          "midi": 31,
          "time": 26.02173913043416,
          "velocity": 0.5433070866141733,
          "duration": 0.26086956521738003
        },
        {
          "name": "B5",
          "midi": 83,
          "time": 26.02173913043416,
          "velocity": 0.12598425196850394,
          "duration": 0.05434782608695343
        },
        {
          "name": "A5",
          "midi": 81,
          "time": 26.03260869565155,
          "velocity": 0.13385826771653545,
          "duration": 0.05434782608695343
        },
        {
          "name": "G5",
          "midi": 79,
          "time": 26.04347826086894,
          "velocity": 0.18110236220472442,
          "duration": 0.05434782608695343
        },
        {
          "name": "G4",
          "midi": 67,
          "time": 26.05434782608633,
          "velocity": 0.28346456692913385,
          "duration": 0.22826086956520797
        },
        {
          "name": "E5",
          "midi": 76,
          "time": 26.05434782608633,
          "velocity": 0.12598425196850394,
          "duration": 0.03260869565217206
        },
        {
          "name": "A#5",
          "midi": 82,
          "time": 26.05434782608633,
          "velocity": 0.11023622047244094,
          "duration": 0.03260869565217206
        },
        {
          "name": "D6",
          "midi": 86,
          "time": 26.05434782608633,
          "velocity": 0.2440944881889764,
          "duration": 0.24999999999998934
        },
        {
          "name": "D3",
          "midi": 50,
          "time": 26.076086956521113,
          "velocity": 0.33070866141732286,
          "duration": 0.08695652173912549
        },
        {
          "name": "B4",
          "midi": 71,
          "time": 26.076086956521113,
          "velocity": 0.2440944881889764,
          "duration": 0.08695652173912549
        },
        {
          "name": "B6",
          "midi": 95,
          "time": 26.076086956521113,
          "velocity": 0.10236220472440945,
          "duration": 0.05434782608695343
        },
        {
          "name": "C#4",
          "midi": 61,
          "time": 26.097826086955894,
          "velocity": 0.07874015748031496,
          "duration": 0.03260869565217206
        },
        {
          "name": "F5",
          "midi": 77,
          "time": 26.108695652173285,
          "velocity": 0.11811023622047244,
          "duration": 0.03260869565217206
        },
        {
          "name": "G6",
          "midi": 91,
          "time": 26.119565217390676,
          "velocity": 0.2677165354330709,
          "duration": 0.17391304347825454
        },
        {
          "name": "B6",
          "midi": 95,
          "time": 26.152173913042848,
          "velocity": 0.2047244094488189,
          "duration": 0.16304347826086385
        },
        {
          "name": "F7",
          "midi": 101,
          "time": 26.152173913042848,
          "velocity": 0.12598425196850394,
          "duration": 0.06521739130434412
        },
        {
          "name": "D4",
          "midi": 62,
          "time": 26.16304347826024,
          "velocity": 0.23622047244094488,
          "duration": 0.1195652173913011
        },
        {
          "name": "B5",
          "midi": 83,
          "time": 26.17391304347763,
          "velocity": 0.11811023622047244,
          "duration": 0.07608695652173836
        },
        {
          "name": "B4",
          "midi": 71,
          "time": 26.19565217391241,
          "velocity": 0.1889763779527559,
          "duration": 0.08695652173912904
        },
        {
          "name": "F5",
          "midi": 77,
          "time": 26.217391304347192,
          "velocity": 0.12598425196850394,
          "duration": 0.07608695652173836
        },
        {
          "name": "B3",
          "midi": 59,
          "time": 26.27173913043415,
          "velocity": 0.4645669291338583,
          "duration": 0.03260869565217206
        },
        {
          "name": "C#5",
          "midi": 73,
          "time": 26.28260869565154,
          "velocity": 0.25984251968503935,
          "duration": 0.021739130434781373
        },
        {
          "name": "B5",
          "midi": 83,
          "time": 26.28260869565154,
          "velocity": 0.10236220472440945,
          "duration": 0.05434782608695343
        },
        {
          "name": "G#6",
          "midi": 92,
          "time": 26.28260869565154,
          "velocity": 0.14173228346456693,
          "duration": 0.03260869565217206
        },
        {
          "name": "A#6",
          "midi": 94,
          "time": 26.28260869565154,
          "velocity": 0.1889763779527559,
          "duration": 0.043478260869562746
        },
        {
          "name": "E7",
          "midi": 100,
          "time": 26.28260869565154,
          "velocity": 0.15748031496062992,
          "duration": 0.03260869565217206
        },
        {
          "name": "G4",
          "midi": 67,
          "time": 26.29347826086893,
          "velocity": 0.33858267716535434,
          "duration": 0.021739130434781373
        },
        {
          "name": "F6",
          "midi": 89,
          "time": 26.29347826086893,
          "velocity": 0.14960629921259844,
          "duration": 0.043478260869562746
        },
        {
          "name": "A#3",
          "midi": 58,
          "time": 26.30434782608632,
          "velocity": 0.5748031496062992,
          "duration": 0.010869565217390686
        },
        {
          "name": "D5",
          "midi": 74,
          "time": 26.30434782608632,
          "velocity": 0.2204724409448819,
          "duration": 0.14130434782607892
        },
        {
          "name": "D#6",
          "midi": 87,
          "time": 26.30434782608632,
          "velocity": 0.12598425196850394,
          "duration": 0.03260869565217206
        },
        {
          "name": "D7",
          "midi": 98,
          "time": 26.30434782608632,
          "velocity": 0.11811023622047244,
          "duration": 0.05434782608695343
        },
        {
          "name": "G1",
          "midi": 31,
          "time": 26.31521739130371,
          "velocity": 0.4881889763779528,
          "duration": 0.26086956521738003
        },
        {
          "name": "A3",
          "midi": 57,
          "time": 26.31521739130371,
          "velocity": 0.5984251968503937,
          "duration": 0.043478260869562746
        },
        {
          "name": "A5",
          "midi": 81,
          "time": 26.336956521738493,
          "velocity": 0.2047244094488189,
          "duration": 0.043478260869562746
        },
        {
          "name": "G4",
          "midi": 67,
          "time": 26.347826086955884,
          "velocity": 0.2755905511811024,
          "duration": 0.23913043478259866
        },
        {
          "name": "G#3",
          "midi": 56,
          "time": 26.358695652173274,
          "velocity": 0.41732283464566927,
          "duration": 0.03260869565217206
        },
        {
          "name": "E7",
          "midi": 100,
          "time": 26.358695652173274,
          "velocity": 0.10236220472440945,
          "duration": 0.043478260869562746
        },
        {
          "name": "D3",
          "midi": 50,
          "time": 26.369565217390665,
          "velocity": 0.2204724409448819,
          "duration": 0.03260869565217206
        },
        {
          "name": "B4",
          "midi": 71,
          "time": 26.369565217390665,
          "velocity": 0.28346456692913385,
          "duration": 0.11956521739129755
        },
        {
          "name": "F5",
          "midi": 77,
          "time": 26.380434782608056,
          "velocity": 0.15748031496062992,
          "duration": 0.043478260869562746
        },
        {
          "name": "D4",
          "midi": 62,
          "time": 26.391304347825447,
          "velocity": 0.25984251968503935,
          "duration": 0.1956521739130359
        },
        {
          "name": "D3",
          "midi": 50,
          "time": 26.43478260869501,
          "velocity": 0.30708661417322836,
          "duration": 0.08695652173912549
        },
        {
          "name": "F7",
          "midi": 101,
          "time": 26.4456521739124,
          "velocity": 0.11811023622047244,
          "duration": 0.043478260869562746
        },
        {
          "name": "G6",
          "midi": 91,
          "time": 26.46739130434718,
          "velocity": 0.23622047244094488,
          "duration": 0.1304347826086918
        },
        {
          "name": "B6",
          "midi": 95,
          "time": 26.46739130434718,
          "velocity": 0.1889763779527559,
          "duration": 0.1304347826086918
        },
        {
          "name": "B5",
          "midi": 83,
          "time": 26.499999999999353,
          "velocity": 0.09448818897637795,
          "duration": 0.054347826086956985
        },
        {
          "name": "D6",
          "midi": 86,
          "time": 26.499999999999353,
          "velocity": 0.11023622047244094,
          "duration": 0.07608695652173836
        },
        {
          "name": "B4",
          "midi": 71,
          "time": 26.510869565216744,
          "velocity": 0.14960629921259844,
          "duration": 0.08695652173912904
        },
        {
          "name": "F7",
          "midi": 101,
          "time": 26.521739130434135,
          "velocity": 0.11023622047244094,
          "duration": 0.0434782608695663
        },
        {
          "name": "F#1",
          "midi": 30,
          "time": 26.57608695652109,
          "velocity": 0.5039370078740157,
          "duration": 0.021739130434781373
        },
        {
          "name": "C#1",
          "midi": 25,
          "time": 26.597826086955873,
          "velocity": 0.4881889763779528,
          "duration": 0.021739130434781373
        },
        {
          "name": "F#1",
          "midi": 30,
          "time": 26.619565217390655,
          "velocity": 0.5354330708661418,
          "duration": 0.27173913043477427
        },
        {
          "name": "F#5",
          "midi": 78,
          "time": 26.619565217390655,
          "velocity": 0.2125984251968504,
          "duration": 0.06521739130434412
        },
        {
          "name": "A#4",
          "midi": 70,
          "time": 26.630434782608045,
          "velocity": 0.1889763779527559,
          "duration": 0.1630434782608603
        },
        {
          "name": "C#5",
          "midi": 73,
          "time": 26.652173913042827,
          "velocity": 0.2047244094488189,
          "duration": 0.09782608695651618
        },
        {
          "name": "G#5",
          "midi": 80,
          "time": 26.663043478260217,
          "velocity": 0.11023622047244094,
          "duration": 0.08695652173912549
        },
        {
          "name": "C#3",
          "midi": 49,
          "time": 26.673913043477608,
          "velocity": 0.3228346456692913,
          "duration": 0.05434782608695343
        },
        {
          "name": "G#6",
          "midi": 92,
          "time": 26.70652173912978,
          "velocity": 0.1732283464566929,
          "duration": 0.03260869565217206
        },
        {
          "name": "C#4",
          "midi": 61,
          "time": 26.71739130434717,
          "velocity": 0.3228346456692913,
          "duration": 0.1739130434782581
        },
        {
          "name": "F#4",
          "midi": 66,
          "time": 26.71739130434717,
          "velocity": 0.1968503937007874,
          "duration": 0.0760869565217348
        },
        {
          "name": "A#6",
          "midi": 94,
          "time": 26.760869565216733,
          "velocity": 0.2047244094488189,
          "duration": 0.14130434782608603
        },
        {
          "name": "F#5",
          "midi": 78,
          "time": 26.771739130434124,
          "velocity": 0.1968503937007874,
          "duration": 0.14130434782608603
        },
        {
          "name": "F#4",
          "midi": 66,
          "time": 26.804347826086296,
          "velocity": 0.2440944881889764,
          "duration": 0.09782608695652328
        },
        {
          "name": "F#6",
          "midi": 90,
          "time": 26.804347826086296,
          "velocity": 0.25984251968503935,
          "duration": 0.09782608695652328
        },
        {
          "name": "E7",
          "midi": 100,
          "time": 26.804347826086296,
          "velocity": 0.10236220472440945,
          "duration": 0.07608695652174191
        },
        {
          "name": "A#4",
          "midi": 70,
          "time": 26.836956521738472,
          "velocity": 0.12598425196850394,
          "duration": 0.0434782608695663
        },
        {
          "name": "E5",
          "midi": 76,
          "time": 26.836956521738472,
          "velocity": 0.12598425196850394,
          "duration": 0.06521739130434767
        },
        {
          "name": "D3",
          "midi": 50,
          "time": 26.90217391304282,
          "velocity": 0.5118110236220472,
          "duration": 0.010869565217390686
        },
        {
          "name": "C5",
          "midi": 72,
          "time": 26.90217391304282,
          "velocity": 0.12598425196850394,
          "duration": 0.03260869565217206
        },
        {
          "name": "B2",
          "midi": 47,
          "time": 26.91304347826021,
          "velocity": 0.5511811023622047,
          "duration": 0.010869565217390686
        },
        {
          "name": "F#2",
          "midi": 42,
          "time": 26.9239130434776,
          "velocity": 0.5275590551181102,
          "duration": 0.010869565217390686
        },
        {
          "name": "D2",
          "midi": 38,
          "time": 26.93478260869499,
          "velocity": 0.5511811023622047,
          "duration": 0.010869565217390686
        },
        {
          "name": "G4",
          "midi": 67,
          "time": 26.93478260869499,
          "velocity": 0.25984251968503935,
          "duration": 0.0760869565217348
        },
        {
          "name": "B4",
          "midi": 71,
          "time": 26.93478260869499,
          "velocity": 0.12598425196850394,
          "duration": 0.03260869565217206
        },
        {
          "name": "A5",
          "midi": 81,
          "time": 26.93478260869499,
          "velocity": 0.15748031496062992,
          "duration": 0.0760869565217348
        },
        {
          "name": "G#1",
          "midi": 32,
          "time": 26.945652173912382,
          "velocity": 0.5748031496062992,
          "duration": 0.021739130434781373
        },
        {
          "name": "F5",
          "midi": 77,
          "time": 26.945652173912382,
          "velocity": 0.11811023622047244,
          "duration": 0.03260869565217206
        },
        {
          "name": "B5",
          "midi": 83,
          "time": 26.945652173912382,
          "velocity": 0.15748031496062992,
          "duration": 0.08695652173912549
        },
        {
          "name": "G1",
          "midi": 31,
          "time": 26.967391304347164,
          "velocity": 0.5669291338582677,
          "duration": 0.03260869565217206
        },
        {
          "name": "D5",
          "midi": 74,
          "time": 26.967391304347164,
          "velocity": 0.2755905511811024,
          "duration": 0.10869565217390686
        },
        {
          "name": "B4",
          "midi": 71,
          "time": 26.989130434781945,
          "velocity": 0.28346456692913385,
          "duration": 0.09782608695651618
        },
        {
          "name": "F#6",
          "midi": 90,
          "time": 26.989130434781945,
          "velocity": 0.13385826771653545,
          "duration": 0.05434782608695343
        },
        {
          "name": "F#1",
          "midi": 30,
          "time": 26.999999999999336,
          "velocity": 0.5275590551181102,
          "duration": 0.021739130434781373
        },
        {
          "name": "G1",
          "midi": 31,
          "time": 27.021739130434117,
          "velocity": 0.47244094488188976,
          "duration": 0.03260869565217206
        },
        {
          "name": "G4",
          "midi": 67,
          "time": 27.021739130434117,
          "velocity": 0.25984251968503935,
          "duration": 0.17391304347825454
        },
        {
          "name": "F5",
          "midi": 77,
          "time": 27.032608695651508,
          "velocity": 0.12598425196850394,
          "duration": 0.05434782608695343
        },
        {
          "name": "D4",
          "midi": 62,
          "time": 27.05434782608629,
          "velocity": 0.2677165354330709,
          "duration": 0.15217391304347316
        },
        {
          "name": "G1",
          "midi": 31,
          "time": 27.07608695652107,
          "velocity": 0.49606299212598426,
          "duration": 0.1304347826086918
        },
        {
          "name": "D6",
          "midi": 86,
          "time": 27.07608695652107,
          "velocity": 0.25196850393700787,
          "duration": 0.1195652173913011
        },
        {
          "name": "F7",
          "midi": 101,
          "time": 27.08695652173846,
          "velocity": 0.09448818897637795,
          "duration": 0.05434782608695343
        },
        {
          "name": "B6",
          "midi": 95,
          "time": 27.108695652173243,
          "velocity": 0.2204724409448819,
          "duration": 0.10869565217391042
        },
        {
          "name": "B4",
          "midi": 71,
          "time": 27.119565217390633,
          "velocity": 0.1968503937007874,
          "duration": 0.08695652173912904
        },
        {
          "name": "F7",
          "midi": 101,
          "time": 27.17391304347759,
          "velocity": 0.11811023622047244,
          "duration": 0.03260869565217206
        },
        {
          "name": "C#2",
          "midi": 37,
          "time": 27.217391304347153,
          "velocity": 0.5118110236220472,
          "duration": 0.010869565217390686
        },
        {
          "name": "D#4",
          "midi": 63,
          "time": 27.217391304347153,
          "velocity": 0.2125984251968504,
          "duration": 0.03260869565217206
        },
        {
          "name": "G1",
          "midi": 31,
          "time": 27.228260869564544,
          "velocity": 0.5275590551181102,
          "duration": 0.010869565217390686
        },
        {
          "name": "F#1",
          "midi": 30,
          "time": 27.239130434781934,
          "velocity": 0.5118110236220472,
          "duration": 0.010869565217390686
        },
        {
          "name": "G4",
          "midi": 67,
          "time": 27.239130434781934,
          "velocity": 0.25196850393700787,
          "duration": 0.2608695652173765
        },
        {
          "name": "G1",
          "midi": 31,
          "time": 27.249999999999325,
          "velocity": 0.5196850393700787,
          "duration": 0.2391304347825951
        },
        {
          "name": "A5",
          "midi": 81,
          "time": 27.249999999999325,
          "velocity": 0.11811023622047244,
          "duration": 0.043478260869562746
        },
        {
          "name": "G6",
          "midi": 91,
          "time": 27.249999999999325,
          "velocity": 0.30708661417322836,
          "duration": 0.21739130434781373
        },
        {
          "name": "B6",
          "midi": 95,
          "time": 27.249999999999325,
          "velocity": 0.1889763779527559,
          "duration": 0.05434782608695343
        },
        {
          "name": "D5",
          "midi": 74,
          "time": 27.271739130434106,
          "velocity": 0.2125984251968504,
          "duration": 0.10869565217390686
        },
        {
          "name": "B4",
          "midi": 71,
          "time": 27.293478260868888,
          "velocity": 0.2440944881889764,
          "duration": 0.11956521739129755
        },
        {
          "name": "F5",
          "midi": 77,
          "time": 27.293478260868888,
          "velocity": 0.1732283464566929,
          "duration": 0.05434782608695343
        },
        {
          "name": "D4",
          "midi": 62,
          "time": 27.32608695652106,
          "velocity": 0.28346456692913385,
          "duration": 0.17391304347825098
        },
        {
          "name": "F7",
          "midi": 101,
          "time": 27.358695652173232,
          "velocity": 0.2047244094488189,
          "duration": 0.08695652173912549
        },
        {
          "name": "D6",
          "midi": 86,
          "time": 27.369565217390623,
          "velocity": 0.2440944881889764,
          "duration": 0.1630434782608603
        },
        {
          "name": "B6",
          "midi": 95,
          "time": 27.380434782608013,
          "velocity": 0.2755905511811024,
          "duration": 0.14130434782607892
        },
        {
          "name": "F5",
          "midi": 77,
          "time": 27.402173913042795,
          "velocity": 0.09448818897637795,
          "duration": 0.03260869565217206
        },
        {
          "name": "B4",
          "midi": 71,
          "time": 27.434782608694967,
          "velocity": 0.14173228346456693,
          "duration": 0.0760869565217348
        },
        {
          "name": "D3",
          "midi": 50,
          "time": 27.445652173912357,
          "velocity": 0.28346456692913385,
          "duration": 0.03260869565217206
        },
        {
          "name": "F5",
          "midi": 77,
          "time": 27.456521739129748,
          "velocity": 0.07086614173228346,
          "duration": 0.05434782608695343
        },
        {
          "name": "F#1",
          "midi": 30,
          "time": 27.48913043478192,
          "velocity": 0.48031496062992124,
          "duration": 0.03260869565217206
        },
        {
          "name": "B3",
          "midi": 59,
          "time": 27.49999999999931,
          "velocity": 0.3700787401574803,
          "duration": 0.021739130434781373
        },
        {
          "name": "E6",
          "midi": 88,
          "time": 27.49999999999931,
          "velocity": 0.2047244094488189,
          "duration": 0.03260869565217206
        },
        {
          "name": "F6",
          "midi": 89,
          "time": 27.49999999999931,
          "velocity": 0.16535433070866143,
          "duration": 0.0760869565217348
        },
        {
          "name": "G#6",
          "midi": 92,
          "time": 27.49999999999931,
          "velocity": 0.15748031496062992,
          "duration": 0.03260869565217206
        },
        {
          "name": "A6",
          "midi": 93,
          "time": 27.49999999999931,
          "velocity": 0.1732283464566929,
          "duration": 0.043478260869562746
        },
        {
          "name": "C5",
          "midi": 72,
          "time": 27.5108695652167,
          "velocity": 0.2440944881889764,
          "duration": 0.021739130434781373
        },
        {
          "name": "A#6",
          "midi": 94,
          "time": 27.5108695652167,
          "velocity": 0.11811023622047244,
          "duration": 0.043478260869562746
        },
        {
          "name": "C#7",
          "midi": 97,
          "time": 27.5108695652167,
          "velocity": 0.14960629921259844,
          "duration": 0.06521739130434412
        },
        {
          "name": "F#7",
          "midi": 102,
          "time": 27.5108695652167,
          "velocity": 0.10236220472440945,
          "duration": 0.03260869565217206
        },
        {
          "name": "G7",
          "midi": 103,
          "time": 27.5108695652167,
          "velocity": 0.14173228346456693,
          "duration": 0.043478260869562746
        },
        {
          "name": "A#3",
          "midi": 58,
          "time": 27.521739130434092,
          "velocity": 0.5433070866141733,
          "duration": 0.010869565217390686
        },
        {
          "name": "F#4",
          "midi": 66,
          "time": 27.521739130434092,
          "velocity": 0.29133858267716534,
          "duration": 0.03260869565217206
        },
        {
          "name": "A3",
          "midi": 57,
          "time": 27.532608695651483,
          "velocity": 0.5826771653543307,
          "duration": 0.043478260869562746
        },
        {
          "name": "D#4",
          "midi": 63,
          "time": 27.532608695651483,
          "velocity": 0.2047244094488189,
          "duration": 0.03260869565217206
        },
        {
          "name": "C#5",
          "midi": 73,
          "time": 27.532608695651483,
          "velocity": 0.14173228346456693,
          "duration": 0.043478260869562746
        },
        {
          "name": "G4",
          "midi": 67,
          "time": 27.554347826086264,
          "velocity": 0.2047244094488189,
          "duration": 0.17391304347825098
        },
        {
          "name": "G1",
          "midi": 31,
          "time": 27.565217391303655,
          "velocity": 0.4566929133858268,
          "duration": 0.09782608695651618
        },
        {
          "name": "A5",
          "midi": 81,
          "time": 27.565217391303655,
          "velocity": 0.13385826771653545,
          "duration": 0.03260869565217206
        },
        {
          "name": "G#3",
          "midi": 56,
          "time": 27.576086956521046,
          "velocity": 0.47244094488188976,
          "duration": 0.03260869565217206
        },
        {
          "name": "D5",
          "midi": 74,
          "time": 27.576086956521046,
          "velocity": 0.2204724409448819,
          "duration": 0.09782608695651618
        },
        {
          "name": "E7",
          "midi": 100,
          "time": 27.576086956521046,
          "velocity": 0.14960629921259844,
          "duration": 0.03260869565217206
        },
        {
          "name": "F5",
          "midi": 77,
          "time": 27.597826086955827,
          "velocity": 0.2047244094488189,
          "duration": 0.043478260869562746
        },
        {
          "name": "D#7",
          "midi": 99,
          "time": 27.597826086955827,
          "velocity": 0.07874015748031496,
          "duration": 0.03260869565217206
        },
        {
          "name": "B4",
          "midi": 71,
          "time": 27.608695652173218,
          "velocity": 0.2204724409448819,
          "duration": 0.06521739130434412
        },
        {
          "name": "F7",
          "midi": 101,
          "time": 27.608695652173218,
          "velocity": 0.10236220472440945,
          "duration": 0.03260869565217206
        },
        {
          "name": "D4",
          "midi": 62,
          "time": 27.61956521739061,
          "velocity": 0.16535433070866143,
          "duration": 0.06521739130434412
        },
        {
          "name": "G6",
          "midi": 91,
          "time": 27.61956521739061,
          "velocity": 0.1968503937007874,
          "duration": 0.05434782608695343
        },
        {
          "name": "C2",
          "midi": 36,
          "time": 27.66304347826017,
          "velocity": 0.41732283464566927,
          "duration": 0.021739130434781373
        },
        {
          "name": "A#2",
          "midi": 46,
          "time": 27.66304347826017,
          "velocity": 0.3543307086614173,
          "duration": 0.021739130434781373
        },
        {
          "name": "G1",
          "midi": 31,
          "time": 27.684782608694952,
          "velocity": 0.5196850393700787,
          "duration": 0.021739130434781373
        },
        {
          "name": "D#3",
          "midi": 51,
          "time": 27.684782608694952,
          "velocity": 0.2677165354330709,
          "duration": 0.03260869565217206
        },
        {
          "name": "C5",
          "midi": 72,
          "time": 27.684782608694952,
          "velocity": 0.23622047244094488,
          "duration": 0.13043478260868824
        },
        {
          "name": "A5",
          "midi": 81,
          "time": 27.695652173912343,
          "velocity": 0.13385826771653545,
          "duration": 0.03260869565217206
        },
        {
          "name": "G#1",
          "midi": 32,
          "time": 27.706521739129734,
          "velocity": 0.5196850393700787,
          "duration": 0.09782608695651618
        },
        {
          "name": "D#7",
          "midi": 99,
          "time": 27.706521739129734,
          "velocity": 0.10236220472440945,
          "duration": 0.043478260869562746
        },
        {
          "name": "A#5",
          "midi": 82,
          "time": 27.717391304347125,
          "velocity": 0.14960629921259844,
          "duration": 0.10869565217390686
        },
        {
          "name": "D#3",
          "midi": 51,
          "time": 27.728260869564515,
          "velocity": 0.28346456692913385,
          "duration": 0.09782608695651618
        },
        {
          "name": "G#4",
          "midi": 68,
          "time": 27.739130434781906,
          "velocity": 0.13385826771653545,
          "duration": 0.08695652173912549
        },
        {
          "name": "G5",
          "midi": 79,
          "time": 27.739130434781906,
          "velocity": 0.1968503937007874,
          "duration": 0.03260869565217206
        },
        {
          "name": "G#6",
          "midi": 92,
          "time": 27.739130434781906,
          "velocity": 0.18110236220472442,
          "duration": 0.06521739130434412
        },
        {
          "name": "B5",
          "midi": 83,
          "time": 27.760869565216687,
          "velocity": 0.09448818897637795,
          "duration": 0.03260869565217206
        },
        {
          "name": "G#5",
          "midi": 80,
          "time": 27.771739130434078,
          "velocity": 0.2047244094488189,
          "duration": 0.0760869565217348
        },
        {
          "name": "D#4",
          "midi": 63,
          "time": 27.81521739130364,
          "velocity": 0.30708661417322836,
          "duration": 0.05434782608695343
        },
        {
          "name": "G1",
          "midi": 31,
          "time": 27.82608695652103,
          "velocity": 0.5196850393700787,
          "duration": 0.010869565217390686
        },
        {
          "name": "G#1",
          "midi": 32,
          "time": 27.836956521738422,
          "velocity": 0.5039370078740157,
          "duration": 0.021739130434781373
        },
        {
          "name": "G1",
          "midi": 31,
          "time": 27.858695652173203,
          "velocity": 0.5196850393700787,
          "duration": 0.24999999999998934
        },
        {
          "name": "F5",
          "midi": 77,
          "time": 27.858695652173203,
          "velocity": 0.13385826771653545,
          "duration": 0.05434782608695343
        },
        {
          "name": "B5",
          "midi": 83,
          "time": 27.858695652173203,
          "velocity": 0.14173228346456693,
          "duration": 0.11956521739129755
        },
        {
          "name": "B4",
          "midi": 71,
          "time": 27.869565217390594,
          "velocity": 0.25196850393700787,
          "duration": 0.26086956521738003
        },
        {
          "name": "G5",
          "midi": 79,
          "time": 27.880434782607985,
          "velocity": 0.16535433070866143,
          "duration": 0.03260869565217206
        },
        {
          "name": "G6",
          "midi": 91,
          "time": 27.880434782607985,
          "velocity": 0.2047244094488189,
          "duration": 0.24999999999998934
        },
        {
          "name": "A6",
          "midi": 93,
          "time": 27.891304347825375,
          "velocity": 0.07874015748031496,
          "duration": 0.03260869565217206
        },
        {
          "name": "B6",
          "midi": 95,
          "time": 27.93478260869494,
          "velocity": 0.1889763779527559,
          "duration": 0.2065217391304266
        },
        {
          "name": "G4",
          "midi": 67,
          "time": 27.95652173912972,
          "velocity": 0.29133858267716534,
          "duration": 0.17391304347825454
        },
        {
          "name": "D4",
          "midi": 62,
          "time": 27.96739130434711,
          "velocity": 0.2440944881889764,
          "duration": 0.16304347826086385
        },
        {
          "name": "D7",
          "midi": 98,
          "time": 27.96739130434711,
          "velocity": 0.07874015748031496,
          "duration": 0.03260869565217206
        },
        {
          "name": "G#6",
          "midi": 92,
          "time": 27.999999999999282,
          "velocity": 0.11023622047244094,
          "duration": 0.03260869565217206
        },
        {
          "name": "F7",
          "midi": 101,
          "time": 27.999999999999282,
          "velocity": 0.12598425196850394,
          "duration": 0.06521739130434412
        },
        {
          "name": "A5",
          "midi": 81,
          "time": 28.021739130434064,
          "velocity": 0.07086614173228346,
          "duration": 0.03260869565217206
        },
        {
          "name": "D7",
          "midi": 98,
          "time": 28.043478260868845,
          "velocity": 0.12598425196850394,
          "duration": 0.06521739130434767
        },
        {
          "name": "F5",
          "midi": 77,
          "time": 28.054347826086236,
          "velocity": 0.16535433070866143,
          "duration": 0.06521739130434767
        },
        {
          "name": "D6",
          "midi": 86,
          "time": 28.076086956521017,
          "velocity": 0.10236220472440945,
          "duration": 0.054347826086956985
        },
        {
          "name": "F6",
          "midi": 89,
          "time": 28.119565217390583,
          "velocity": 0.1968503937007874,
          "duration": 0.043478260869562746
        },
        {
          "name": "F#6",
          "midi": 90,
          "time": 28.119565217390583,
          "velocity": 0.23622047244094488,
          "duration": 0.03260869565217206
        },
        {
          "name": "D7",
          "midi": 98,
          "time": 28.130434782607974,
          "velocity": 0.2283464566929134,
          "duration": 0.09782608695651973
        },
        {
          "name": "E7",
          "midi": 100,
          "time": 28.130434782607974,
          "velocity": 0.07874015748031496,
          "duration": 0.03260869565217206
        },
        {
          "name": "G#1",
          "midi": 32,
          "time": 28.141304347825365,
          "velocity": 0.5196850393700787,
          "duration": 0.010869565217390686
        },
        {
          "name": "C4",
          "midi": 60,
          "time": 28.141304347825365,
          "velocity": 0.3228346456692913,
          "duration": 0.021739130434781373
        },
        {
          "name": "G#5",
          "midi": 80,
          "time": 28.141304347825365,
          "velocity": 0.2047244094488189,
          "duration": 0.07608695652173836
        },
        {
          "name": "A#5",
          "midi": 82,
          "time": 28.141304347825365,
          "velocity": 0.1732283464566929,
          "duration": 0.06521739130434767
        },
        {
          "name": "C6",
          "midi": 84,
          "time": 28.141304347825365,
          "velocity": 0.13385826771653545,
          "duration": 0.07608695652173836
        },
        {
          "name": "D#6",
          "midi": 87,
          "time": 28.141304347825365,
          "velocity": 0.10236220472440945,
          "duration": 0.06521739130434767
        },
        {
          "name": "G1",
          "midi": 31,
          "time": 28.152173913042756,
          "velocity": 0.5511811023622047,
          "duration": 0.06521739130434767
        },
        {
          "name": "E5",
          "midi": 76,
          "time": 28.152173913042756,
          "velocity": 0.1889763779527559,
          "duration": 0.0434782608695663
        },
        {
          "name": "F#5",
          "midi": 78,
          "time": 28.152173913042756,
          "velocity": 0.1968503937007874,
          "duration": 0.054347826086956985
        },
        {
          "name": "G1",
          "midi": 31,
          "time": 28.228260869564494,
          "velocity": 0.3937007874015748,
          "duration": 0.021739130434781373
        },
        {
          "name": "G1",
          "midi": 31,
          "time": 28.28260869565145,
          "velocity": 0.5196850393700787,
          "duration": 0.021739130434781373
        },
        {
          "name": "C4",
          "midi": 60,
          "time": 28.28260869565145,
          "velocity": 0.3228346456692913,
          "duration": 0.03260869565217206
        },
        {
          "name": "F#6",
          "midi": 90,
          "time": 28.28260869565145,
          "velocity": 0.13385826771653545,
          "duration": 0.03260869565217206
        },
        {
          "name": "G#6",
          "midi": 92,
          "time": 28.28260869565145,
          "velocity": 0.14173228346456693,
          "duration": 0.03260869565217206
        },
        {
          "name": "D7",
          "midi": 98,
          "time": 28.28260869565145,
          "velocity": 0.2125984251968504,
          "duration": 0.0760869565217348
        },
        {
          "name": "C#3",
          "midi": 49,
          "time": 28.29347826086884,
          "velocity": 0.23622047244094488,
          "duration": 0.021739130434781373
        },
        {
          "name": "C6",
          "midi": 84,
          "time": 28.29347826086884,
          "velocity": 0.12598425196850394,
          "duration": 0.043478260869562746
        },
        {
          "name": "F#1",
          "midi": 30,
          "time": 28.304347826086232,
          "velocity": 0.5354330708661418,
          "duration": 0.010869565217390686
        },
        {
          "name": "F#5",
          "midi": 78,
          "time": 28.304347826086232,
          "velocity": 0.15748031496062992,
          "duration": 0.05434782608695343
        },
        {
          "name": "G#5",
          "midi": 80,
          "time": 28.304347826086232,
          "velocity": 0.18110236220472442,
          "duration": 0.06521739130434412
        },
        {
          "name": "A#5",
          "midi": 82,
          "time": 28.304347826086232,
          "velocity": 0.23622047244094488,
          "duration": 0.06521739130434412
        },
        {
          "name": "C#6",
          "midi": 85,
          "time": 28.304347826086232,
          "velocity": 0.07086614173228346,
          "duration": 0.06521739130434412
        },
        {
          "name": "G1",
          "midi": 31,
          "time": 28.315217391303623,
          "velocity": 0.5511811023622047,
          "duration": 0.08695652173912549
        },
        {
          "name": "D#5",
          "midi": 75,
          "time": 28.315217391303623,
          "velocity": 0.23622047244094488,
          "duration": 0.05434782608695343
        },
        {
          "name": "B5",
          "midi": 83,
          "time": 28.336956521738404,
          "velocity": 0.11023622047244094,
          "duration": 0.03260869565217206
        },
        {
          "name": "C#3",
          "midi": 49,
          "time": 28.380434782607967,
          "velocity": 0.2677165354330709,
          "duration": 0.021739130434781373
        },
        {
          "name": "C4",
          "midi": 60,
          "time": 28.434782608694924,
          "velocity": 0.2755905511811024,
          "duration": 0.03260869565217206
        },
        {
          "name": "D7",
          "midi": 98,
          "time": 28.434782608694924,
          "velocity": 0.15748031496062992,
          "duration": 0.09782608695651973
        },
        {
          "name": "F#7",
          "midi": 102,
          "time": 28.434782608694924,
          "velocity": 0.07086614173228346,
          "duration": 0.03260869565217206
        },
        {
          "name": "G1",
          "midi": 31,
          "time": 28.445652173912315,
          "velocity": 0.5590551181102362,
          "duration": 0.07608695652173836
        },
        {
          "name": "G#5",
          "midi": 80,
          "time": 28.445652173912315,
          "velocity": 0.2047244094488189,
          "duration": 0.06521739130434767
        },
        {
          "name": "A#5",
          "midi": 82,
          "time": 28.445652173912315,
          "velocity": 0.1889763779527559,
          "duration": 0.06521739130434767
        },
        {
          "name": "E5",
          "midi": 76,
          "time": 28.456521739129705,
          "velocity": 0.31496062992125984,
          "duration": 0.0434782608695663
        },
        {
          "name": "F#5",
          "midi": 78,
          "time": 28.456521739129705,
          "velocity": 0.2440944881889764,
          "duration": 0.06521739130434767
        },
        {
          "name": "C6",
          "midi": 84,
          "time": 28.456521739129705,
          "velocity": 0.09448818897637795,
          "duration": 0.054347826086956985
        },
        {
          "name": "D6",
          "midi": 86,
          "time": 28.456521739129705,
          "velocity": 0.08661417322834646,
          "duration": 0.054347826086956985
        },
        {
          "name": "G#1",
          "midi": 32,
          "time": 28.521739130434053,
          "velocity": 0.47244094488188976,
          "duration": 0.021739130434781373
        },
        {
          "name": "G1",
          "midi": 31,
          "time": 28.543478260868834,
          "velocity": 0.3228346456692913,
          "duration": 0.021739130434781373
        },
        {
          "name": "C4",
          "midi": 60,
          "time": 28.586956521738397,
          "velocity": 0.29133858267716534,
          "duration": 0.043478260869562746
        },
        {
          "name": "D7",
          "midi": 98,
          "time": 28.586956521738397,
          "velocity": 0.2283464566929134,
          "duration": 0.043478260869562746
        },
        {
          "name": "F#7",
          "midi": 102,
          "time": 28.586956521738397,
          "velocity": 0.14960629921259844,
          "duration": 0.03260869565217206
        },
        {
          "name": "G1",
          "midi": 31,
          "time": 28.597826086955788,
          "velocity": 0.5118110236220472,
          "duration": 0.010869565217390686
        },
        {
          "name": "F#5",
          "midi": 78,
          "time": 28.597826086955788,
          "velocity": 0.2440944881889764,
          "duration": 0.07608695652173836
        },
        {
          "name": "A#5",
          "midi": 82,
          "time": 28.597826086955788,
          "velocity": 0.23622047244094488,
          "duration": 0.07608695652173836
        },
        {
          "name": "C6",
          "midi": 84,
          "time": 28.597826086955788,
          "velocity": 0.15748031496062992,
          "duration": 0.06521739130434767
        },
        {
          "name": "F#1",
          "midi": 30,
          "time": 28.60869565217318,
          "velocity": 0.5433070866141733,
          "duration": 0.010869565217390686
        },
        {
          "name": "G#5",
          "midi": 80,
          "time": 28.60869565217318,
          "velocity": 0.18110236220472442,
          "duration": 0.054347826086956985
        },
        {
          "name": "G1",
          "midi": 31,
          "time": 28.61956521739057,
          "velocity": 0.5511811023622047,
          "duration": 0.0869565217391326
        },
        {
          "name": "D#5",
          "midi": 75,
          "time": 28.61956521739057,
          "velocity": 0.2283464566929134,
          "duration": 0.054347826086956985
        },
        {
          "name": "C#6",
          "midi": 85,
          "time": 28.61956521739057,
          "velocity": 0.08661417322834646,
          "duration": 0.0434782608695663
        },
        {
          "name": "F#5",
          "midi": 78,
          "time": 28.826086956521006,
          "velocity": 0.18110236220472442,
          "duration": 0.03260869565217206
        },
        {
          "name": "D5",
          "midi": 74,
          "time": 28.847826086955788,
          "velocity": 0.30708661417322836,
          "duration": 0.03260869565217206
        },
        {
          "name": "E5",
          "midi": 76,
          "time": 28.847826086955788,
          "velocity": 0.18110236220472442,
          "duration": 0.043478260869562746
        },
        {
          "name": "G5",
          "midi": 79,
          "time": 28.85869565217318,
          "velocity": 0.1968503937007874,
          "duration": 0.03260869565217206
        },
        {
          "name": "A#5",
          "midi": 82,
          "time": 28.86956521739057,
          "velocity": 0.14960629921259844,
          "duration": 0.03260869565217206
        },
        {
          "name": "C6",
          "midi": 84,
          "time": 28.88043478260796,
          "velocity": 0.25196850393700787,
          "duration": 0.043478260869562746
        },
        {
          "name": "F#5",
          "midi": 78,
          "time": 28.89130434782535,
          "velocity": 0.11023622047244094,
          "duration": 0.043478260869562746
        },
        {
          "name": "B5",
          "midi": 83,
          "time": 28.90217391304274,
          "velocity": 0.13385826771653545,
          "duration": 0.03260869565217206
        },
        {
          "name": "C#6",
          "midi": 85,
          "time": 28.923913043477523,
          "velocity": 0.2440944881889764,
          "duration": 0.021739130434781373
        },
        {
          "name": "D#6",
          "midi": 87,
          "time": 28.923913043477523,
          "velocity": 0.2677165354330709,
          "duration": 0.043478260869562746
        },
        {
          "name": "G#6",
          "midi": 92,
          "time": 28.923913043477523,
          "velocity": 0.1889763779527559,
          "duration": 0.03260869565217206
        },
        {
          "name": "C6",
          "midi": 84,
          "time": 28.934782608694913,
          "velocity": 0.2677165354330709,
          "duration": 0.021739130434781373
        },
        {
          "name": "E6",
          "midi": 88,
          "time": 28.945652173912304,
          "velocity": 0.3464566929133858,
          "duration": 0.03260869565217206
        },
        {
          "name": "B5",
          "midi": 83,
          "time": 28.956521739129695,
          "velocity": 0.08661417322834646,
          "duration": 0.03260869565217206
        },
        {
          "name": "C#6",
          "midi": 85,
          "time": 28.956521739129695,
          "velocity": 0.3464566929133858,
          "duration": 0.05434782608695343
        },
        {
          "name": "G6",
          "midi": 91,
          "time": 28.956521739129695,
          "velocity": 0.14173228346456693,
          "duration": 0.03260869565217206
        },
        {
          "name": "C6",
          "midi": 84,
          "time": 28.978260869564476,
          "velocity": 0.12598425196850394,
          "duration": 0.043478260869562746
        },
        {
          "name": "D#6",
          "midi": 87,
          "time": 28.978260869564476,
          "velocity": 0.33858267716535434,
          "duration": 0.06521739130434412
        },
        {
          "name": "B6",
          "midi": 95,
          "time": 28.978260869564476,
          "velocity": 0.11811023622047244,
          "duration": 0.05434782608695343
        },
        {
          "name": "F6",
          "midi": 89,
          "time": 28.999999999999257,
          "velocity": 0.2125984251968504,
          "duration": 0.03260869565217206
        },
        {
          "name": "D6",
          "midi": 86,
          "time": 29.010869565216648,
          "velocity": 0.25984251968503935,
          "duration": 0.03260869565217206
        },
        {
          "name": "C#5",
          "midi": 73,
          "time": 29.02173913043404,
          "velocity": 0.11023622047244094,
          "duration": 0.03260869565217206
        },
        {
          "name": "G#5",
          "midi": 80,
          "time": 29.076086956520992,
          "velocity": 0.28346456692913385,
          "duration": 0.05434782608695343
        },
        {
          "name": "B6",
          "midi": 95,
          "time": 29.076086956520992,
          "velocity": 0.08661417322834646,
          "duration": 0.03260869565217206
        },
        {
          "name": "C7",
          "midi": 96,
          "time": 29.076086956520992,
          "velocity": 0.14960629921259844,
          "duration": 0.05434782608695343
        },
        {
          "name": "B5",
          "midi": 83,
          "time": 29.086956521738383,
          "velocity": 0.2125984251968504,
          "duration": 0.043478260869562746
        },
        {
          "name": "C#6",
          "midi": 85,
          "time": 29.086956521738383,
          "velocity": 0.2204724409448819,
          "duration": 0.06521739130434412
        },
        {
          "name": "F6",
          "midi": 89,
          "time": 29.086956521738383,
          "velocity": 0.13385826771653545,
          "duration": 0.03260869565217206
        },
        {
          "name": "D#5",
          "midi": 75,
          "time": 29.097826086955774,
          "velocity": 0.33070866141732286,
          "duration": 0.05434782608695343
        },
        {
          "name": "F5",
          "midi": 77,
          "time": 29.097826086955774,
          "velocity": 0.1889763779527559,
          "duration": 0.03260869565217206
        },
        {
          "name": "F#5",
          "midi": 78,
          "time": 29.097826086955774,
          "velocity": 0.11023622047244094,
          "duration": 0.03260869565217206
        },
        {
          "name": "A5",
          "midi": 81,
          "time": 29.097826086955774,
          "velocity": 0.2992125984251969,
          "duration": 0.03260869565217206
        },
        {
          "name": "F#6",
          "midi": 90,
          "time": 29.119565217390555,
          "velocity": 0.11811023622047244,
          "duration": 0.03260869565217206
        },
        {
          "name": "C4",
          "midi": 60,
          "time": 29.141304347825336,
          "velocity": 0.33070866141732286,
          "duration": 0.021739130434781373
        },
        {
          "name": "A#3",
          "midi": 58,
          "time": 29.163043478260118,
          "velocity": 0.36220472440944884,
          "duration": 0.021739130434781373
        },
        {
          "name": "C6",
          "midi": 84,
          "time": 29.163043478260118,
          "velocity": 0.13385826771653545,
          "duration": 0.03260869565217206
        },
        {
          "name": "F#5",
          "midi": 78,
          "time": 29.19565217391229,
          "velocity": 0.2283464566929134,
          "duration": 0.0760869565217348
        },
        {
          "name": "A#5",
          "midi": 82,
          "time": 29.19565217391229,
          "velocity": 0.14960629921259844,
          "duration": 0.043478260869562746
        },
        {
          "name": "E7",
          "midi": 100,
          "time": 29.19565217391229,
          "velocity": 0.13385826771653545,
          "duration": 0.06521739130434412
        },
        {
          "name": "D#6",
          "midi": 87,
          "time": 29.20652173912968,
          "velocity": 0.16535433070866143,
          "duration": 0.03260869565217206
        },
        {
          "name": "C7",
          "midi": 96,
          "time": 29.20652173912968,
          "velocity": 0.1732283464566929,
          "duration": 0.09782608695651618
        },
        {
          "name": "D7",
          "midi": 98,
          "time": 29.20652173912968,
          "velocity": 0.18110236220472442,
          "duration": 0.03260869565217206
        },
        {
          "name": "G5",
          "midi": 79,
          "time": 29.228260869564462,
          "velocity": 0.2755905511811024,
          "duration": 0.021739130434781373
        },
        {
          "name": "C6",
          "midi": 84,
          "time": 29.228260869564462,
          "velocity": 0.18110236220472442,
          "duration": 0.043478260869562746
        },
        {
          "name": "F6",
          "midi": 89,
          "time": 29.228260869564462,
          "velocity": 0.10236220472440945,
          "duration": 0.043478260869562746
        },
        {
          "name": "A4",
          "midi": 69,
          "time": 29.271739130434025,
          "velocity": 0.2440944881889764,
          "duration": 0.03260869565217206
        },
        {
          "name": "G5",
          "midi": 79,
          "time": 29.271739130434025,
          "velocity": 0.18110236220472442,
          "duration": 0.03260869565217206
        },
        {
          "name": "F#6",
          "midi": 90,
          "time": 29.271739130434025,
          "velocity": 0.14173228346456693,
          "duration": 0.043478260869562746
        },
        {
          "name": "F#4",
          "midi": 66,
          "time": 29.282608695651415,
          "velocity": 0.2125984251968504,
          "duration": 0.03260869565217206
        },
        {
          "name": "C#7",
          "midi": 97,
          "time": 29.282608695651415,
          "velocity": 0.13385826771653545,
          "duration": 0.03260869565217206
        },
        {
          "name": "E7",
          "midi": 100,
          "time": 29.293478260868806,
          "velocity": 0.13385826771653545,
          "duration": 0.03260869565217206
        },
        {
          "name": "F4",
          "midi": 65,
          "time": 29.326086956520978,
          "velocity": 0.2204724409448819,
          "duration": 0.0434782608695663
        },
        {
          "name": "B2",
          "midi": 47,
          "time": 29.358695652173154,
          "velocity": 0.5118110236220472,
          "duration": 0.010869565217390686
        },
        {
          "name": "G1",
          "midi": 31,
          "time": 29.369565217390544,
          "velocity": 0.5433070866141733,
          "duration": 0.05434782608695343
        },
        {
          "name": "B4",
          "midi": 71,
          "time": 29.369565217390544,
          "velocity": 0.13385826771653545,
          "duration": 0.05434782608695343
        },
        {
          "name": "A5",
          "midi": 81,
          "time": 29.380434782607935,
          "velocity": 0.15748031496062992,
          "duration": 0.06521739130434412
        },
        {
          "name": "G5",
          "midi": 79,
          "time": 29.391304347825326,
          "velocity": 0.2440944881889764,
          "duration": 0.06521739130434412
        },
        {
          "name": "B5",
          "midi": 83,
          "time": 29.391304347825326,
          "velocity": 0.14960629921259844,
          "duration": 0.0760869565217348
        },
        {
          "name": "G4",
          "midi": 67,
          "time": 29.402173913042716,
          "velocity": 0.25196850393700787,
          "duration": 0.05434782608695343
        },
        {
          "name": "F#1",
          "midi": 30,
          "time": 29.423913043477498,
          "velocity": 0.5354330708661418,
          "duration": 0.07608695652173836
        },
        {
          "name": "B4",
          "midi": 71,
          "time": 29.43478260869489,
          "velocity": 0.2755905511811024,
          "duration": 0.10869565217391042
        },
        {
          "name": "D5",
          "midi": 74,
          "time": 29.43478260869489,
          "velocity": 0.25984251968503935,
          "duration": 0.08695652173912904
        },
        {
          "name": "D3",
          "midi": 50,
          "time": 29.44565217391228,
          "velocity": 0.28346456692913385,
          "duration": 0.054347826086956985
        },
        {
          "name": "F5",
          "midi": 77,
          "time": 29.44565217391228,
          "velocity": 0.14960629921259844,
          "duration": 0.07608695652173836
        },
        {
          "name": "G4",
          "midi": 67,
          "time": 29.46739130434706,
          "velocity": 0.25196850393700787,
          "duration": 0.23913043478260576
        },
        {
          "name": "G1",
          "midi": 31,
          "time": 29.499999999999236,
          "velocity": 0.5275590551181102,
          "duration": 0.43478260869564167
        },
        {
          "name": "D4",
          "midi": 62,
          "time": 29.499999999999236,
          "velocity": 0.25984251968503935,
          "duration": 0.14130434782608248
        },
        {
          "name": "B4",
          "midi": 71,
          "time": 29.56521739130358,
          "velocity": 0.1732283464566929,
          "duration": 0.06521739130434767
        },
        {
          "name": "D4",
          "midi": 62,
          "time": 29.6630434782601,
          "velocity": 0.1968503937007874,
          "duration": 0.06521739130434767
        },
        {
          "name": "D5",
          "midi": 74,
          "time": 29.815217391303577,
          "velocity": 0.14960629921259844,
          "duration": 0.043478260869562746
        },
        {
          "name": "F#5",
          "midi": 78,
          "time": 29.815217391303577,
          "velocity": 0.2204724409448819,
          "duration": 0.06521739130434412
        },
        {
          "name": "D#7",
          "midi": 99,
          "time": 29.815217391303577,
          "velocity": 0.12598425196850394,
          "duration": 0.06521739130434412
        },
        {
          "name": "E7",
          "midi": 100,
          "time": 29.815217391303577,
          "velocity": 0.18110236220472442,
          "duration": 0.06521739130434412
        },
        {
          "name": "F7",
          "midi": 101,
          "time": 29.815217391303577,
          "velocity": 0.2204724409448819,
          "duration": 0.1304347826086918
        },
        {
          "name": "G7",
          "midi": 103,
          "time": 29.815217391303577,
          "velocity": 0.07086614173228346,
          "duration": 0.05434782608695343
        },
        {
          "name": "C6",
          "midi": 84,
          "time": 29.826086956520967,
          "velocity": 0.1889763779527559,
          "duration": 0.043478260869562746
        },
        {
          "name": "D6",
          "midi": 86,
          "time": 29.826086956520967,
          "velocity": 0.2440944881889764,
          "duration": 0.06521739130434412
        },
        {
          "name": "E6",
          "midi": 88,
          "time": 29.836956521738358,
          "velocity": 0.18110236220472442,
          "duration": 0.043478260869562746
        },
        {
          "name": "G5",
          "midi": 79,
          "time": 29.88043478260792,
          "velocity": 0.2204724409448819,
          "duration": 0.09782608695651973
        },
        {
          "name": "C#6",
          "midi": 85,
          "time": 29.88043478260792,
          "velocity": 0.2204724409448819,
          "duration": 0.07608695652173836
        },
        {
          "name": "G6",
          "midi": 91,
          "time": 29.88043478260792,
          "velocity": 0.2283464566929134,
          "duration": 0.054347826086956985
        },
        {
          "name": "A#6",
          "midi": 94,
          "time": 29.88043478260792,
          "velocity": 0.12598425196850394,
          "duration": 0.054347826086956985
        },
        {
          "name": "F#7",
          "midi": 102,
          "time": 29.88043478260792,
          "velocity": 0.1732283464566929,
          "duration": 0.06521739130434767
        },
        {
          "name": "D#4",
          "midi": 63,
          "time": 29.89130434782531,
          "velocity": 0.13385826771653545,
          "duration": 0.06521739130434767
        },
        {
          "name": "F6",
          "midi": 89,
          "time": 29.89130434782531,
          "velocity": 0.1889763779527559,
          "duration": 0.08695652173912904
        },
        {
          "name": "E7",
          "midi": 100,
          "time": 29.89130434782531,
          "velocity": 0.15748031496062992,
          "duration": 0.054347826086956985
        },
        {
          "name": "D#6",
          "midi": 87,
          "time": 29.902173913042702,
          "velocity": 0.28346456692913385,
          "duration": 0.06521739130434767
        },
        {
          "name": "C7",
          "midi": 96,
          "time": 29.934782608694878,
          "velocity": 0.09448818897637795,
          "duration": 0.03260869565217206
        },
        {
          "name": "C5",
          "midi": 72,
          "time": 29.95652173912966,
          "velocity": 0.2283464566929134,
          "duration": 0.03260869565217206
        },
        {
          "name": "F#6",
          "midi": 90,
          "time": 29.95652173912966,
          "velocity": 0.14960629921259844,
          "duration": 0.08695652173912549
        },
        {
          "name": "E7",
          "midi": 100,
          "time": 29.95652173912966,
          "velocity": 0.2047244094488189,
          "duration": 0.09782608695651618
        },
        {
          "name": "G7",
          "midi": 103,
          "time": 29.95652173912966,
          "velocity": 0.1732283464566929,
          "duration": 0.13043478260868824
        },
        {
          "name": "A#3",
          "midi": 58,
          "time": 29.96739130434705,
          "velocity": 0.5354330708661418,
          "duration": 0.010869565217390686
        },
        {
          "name": "G4",
          "midi": 67,
          "time": 29.96739130434705,
          "velocity": 0.25984251968503935,
          "duration": 0.021739130434781373
        },
        {
          "name": "E6",
          "midi": 88,
          "time": 29.96739130434705,
          "velocity": 0.14960629921259844,
          "duration": 0.09782608695651618
        },
        {
          "name": "A#6",
          "midi": 94,
          "time": 29.96739130434705,
          "velocity": 0.16535433070866143,
          "duration": 0.11956521739129755
        },
        {
          "name": "D7",
          "midi": 98,
          "time": 29.96739130434705,
          "velocity": 0.23622047244094488,
          "duration": 0.20652173913042304
        },
        {
          "name": "A3",
          "midi": 57,
          "time": 29.97826086956444,
          "velocity": 0.5984251968503937,
          "duration": 0.043478260869562746
        },
        {
          "name": "F#5",
          "midi": 78,
          "time": 29.98913043478183,
          "velocity": 0.18110236220472442,
          "duration": 0.10869565217390686
        },
        {
          "name": "D6",
          "midi": 86,
          "time": 29.98913043478183,
          "velocity": 0.2204724409448819,
          "duration": 0.1630434782608603
        },
        {
          "name": "D5",
          "midi": 74,
          "time": 30.010869565216613,
          "velocity": 0.1968503937007874,
          "duration": 0.0760869565217348
        },
        {
          "name": "C6",
          "midi": 84,
          "time": 30.010869565216613,
          "velocity": 0.2125984251968504,
          "duration": 0.08695652173912549
        },
        {
          "name": "C#7",
          "midi": 97,
          "time": 30.010869565216613,
          "velocity": 0.2125984251968504,
          "duration": 0.08695652173912549
        },
        {
          "name": "G#3",
          "midi": 56,
          "time": 30.021739130434003,
          "velocity": 0.4645669291338583,
          "duration": 0.043478260869562746
        },
        {
          "name": "F#7",
          "midi": 102,
          "time": 30.043478260868785,
          "velocity": 0.15748031496062992,
          "duration": 0.06521739130434412
        },
        {
          "name": "D4",
          "midi": 62,
          "time": 30.054347826086175,
          "velocity": 0.11023622047244094,
          "duration": 0.03260869565217206
        },
        {
          "name": "G#6",
          "midi": 92,
          "time": 30.076086956520957,
          "velocity": 0.10236220472440945,
          "duration": 0.03260869565217206
        },
        {
          "name": "A#5",
          "midi": 82,
          "time": 30.097826086955738,
          "velocity": 0.2125984251968504,
          "duration": 0.10869565217390686
        },
        {
          "name": "C5",
          "midi": 72,
          "time": 30.10869565217313,
          "velocity": 0.2283464566929134,
          "duration": 0.08695652173912549
        },
        {
          "name": "E5",
          "midi": 76,
          "time": 30.10869565217313,
          "velocity": 0.25196850393700787,
          "duration": 0.0760869565217348
        },
        {
          "name": "C#7",
          "midi": 97,
          "time": 30.10869565217313,
          "velocity": 0.23622047244094488,
          "duration": 0.0760869565217348
        },
        {
          "name": "G4",
          "midi": 67,
          "time": 30.11956521739052,
          "velocity": 0.18110236220472442,
          "duration": 0.0760869565217348
        },
        {
          "name": "F#7",
          "midi": 102,
          "time": 30.13043478260791,
          "velocity": 0.10236220472440945,
          "duration": 0.06521739130434412
        },
        {
          "name": "F7",
          "midi": 101,
          "time": 30.1413043478253,
          "velocity": 0.07086614173228346,
          "duration": 0.043478260869562746
        },
        {
          "name": "B6",
          "midi": 95,
          "time": 30.15217391304269,
          "velocity": 0.1889763779527559,
          "duration": 0.05434782608695343
        },
        {
          "name": "D#7",
          "midi": 99,
          "time": 30.163043478260082,
          "velocity": 0.07874015748031496,
          "duration": 0.03260869565217206
        },
        {
          "name": "D5",
          "midi": 74,
          "time": 30.41304347826008,
          "velocity": 0.2283464566929134,
          "duration": 0.09782608695651618
        },
        {
          "name": "D6",
          "midi": 86,
          "time": 30.41304347826008,
          "velocity": 0.2283464566929134,
          "duration": 0.10869565217390686
        },
        {
          "name": "C#7",
          "midi": 97,
          "time": 30.41304347826008,
          "velocity": 0.2283464566929134,
          "duration": 0.09782608695651618
        },
        {
          "name": "D7",
          "midi": 98,
          "time": 30.41304347826008,
          "velocity": 0.23622047244094488,
          "duration": 0.0760869565217348
        },
        {
          "name": "A4",
          "midi": 69,
          "time": 30.42391304347747,
          "velocity": 0.1889763779527559,
          "duration": 0.09782608695651618
        },
        {
          "name": "A5",
          "midi": 81,
          "time": 30.42391304347747,
          "velocity": 0.2125984251968504,
          "duration": 0.11956521739129755
        },
        {
          "name": "F#6",
          "midi": 90,
          "time": 30.42391304347747,
          "velocity": 0.07874015748031496,
          "duration": 0.05434782608695343
        },
        {
          "name": "F7",
          "midi": 101,
          "time": 30.42391304347747,
          "velocity": 0.14173228346456693,
          "duration": 0.09782608695651618
        },
        {
          "name": "G7",
          "midi": 103,
          "time": 30.42391304347747,
          "velocity": 0.1968503937007874,
          "duration": 0.09782608695651618
        },
        {
          "name": "C6",
          "midi": 84,
          "time": 30.43478260869486,
          "velocity": 0.2755905511811024,
          "duration": 0.09782608695651618
        },
        {
          "name": "E6",
          "midi": 88,
          "time": 30.44565217391225,
          "velocity": 0.14173228346456693,
          "duration": 0.08695652173912549
        },
        {
          "name": "A#6",
          "midi": 94,
          "time": 30.44565217391225,
          "velocity": 0.18110236220472442,
          "duration": 0.08695652173912549
        },
        {
          "name": "D#7",
          "midi": 99,
          "time": 30.45652173912964,
          "velocity": 0.13385826771653545,
          "duration": 0.06521739130434412
        },
        {
          "name": "E7",
          "midi": 100,
          "time": 30.45652173912964,
          "velocity": 0.2204724409448819,
          "duration": 0.0760869565217348
        },
        {
          "name": "D4",
          "midi": 62,
          "time": 30.467391304347032,
          "velocity": 0.09448818897637795,
          "duration": 0.05434782608695343
        },
        {
          "name": "F#5",
          "midi": 78,
          "time": 30.467391304347032,
          "velocity": 0.07874015748031496,
          "duration": 0.03260869565217206
        },
        {
          "name": "G#6",
          "midi": 92,
          "time": 30.467391304347032,
          "velocity": 0.2047244094488189,
          "duration": 0.05434782608695343
        },
        {
          "name": "C#3",
          "midi": 49,
          "time": 30.576086956520943,
          "velocity": 0.5118110236220472,
          "duration": 0.010869565217390686
        },
        {
          "name": "A#2",
          "midi": 46,
          "time": 30.586956521738333,
          "velocity": 0.5433070866141733,
          "duration": 0.010869565217390686
        },
        {
          "name": "D2",
          "midi": 38,
          "time": 30.597826086955724,
          "velocity": 0.5511811023622047,
          "duration": 0.010869565217390686
        },
        {
          "name": "A#1",
          "midi": 34,
          "time": 30.608695652173115,
          "velocity": 0.5354330708661418,
          "duration": 0.010869565217390686
        },
        {
          "name": "A1",
          "midi": 33,
          "time": 30.619565217390505,
          "velocity": 0.5354330708661418,
          "duration": 0.010869565217390686
        },
        {
          "name": "G#1",
          "midi": 32,
          "time": 30.630434782607896,
          "velocity": 0.5275590551181102,
          "duration": 0.010869565217390686
        },
        {
          "name": "G1",
          "midi": 31,
          "time": 30.641304347825287,
          "velocity": 0.5118110236220472,
          "duration": 0.010869565217390686
        },
        {
          "name": "F#1",
          "midi": 30,
          "time": 30.652173913042677,
          "velocity": 0.49606299212598426,
          "duration": 0.021739130434781373
        },
        {
          "name": "F#1",
          "midi": 30,
          "time": 30.68478260869485,
          "velocity": 0.4251968503937008,
          "duration": 0.021739130434781373
        },
        {
          "name": "F1",
          "midi": 29,
          "time": 30.70652173912963,
          "velocity": 0.33858267716535434,
          "duration": 0.03260869565217206
        },
        {
          "name": "G#5",
          "midi": 80,
          "time": 30.71739130434702,
          "velocity": 0.2283464566929134,
          "duration": 0.14130434782607892
        },
        {
          "name": "F4",
          "midi": 65,
          "time": 30.728260869564412,
          "velocity": 0.1968503937007874,
          "duration": 0.09782608695651618
        },
        {
          "name": "B4",
          "midi": 71,
          "time": 30.728260869564412,
          "velocity": 0.07874015748031496,
          "duration": 0.03260869565217206
        },
        {
          "name": "A#5",
          "midi": 82,
          "time": 30.728260869564412,
          "velocity": 0.18110236220472442,
          "duration": 0.0760869565217348
        },
        {
          "name": "F#6",
          "midi": 90,
          "time": 30.728260869564412,
          "velocity": 0.1968503937007874,
          "duration": 0.0760869565217348
        },
        {
          "name": "A6",
          "midi": 93,
          "time": 30.728260869564412,
          "velocity": 0.1732283464566929,
          "duration": 0.09782608695651618
        },
        {
          "name": "C7",
          "midi": 96,
          "time": 30.728260869564412,
          "velocity": 0.07874015748031496,
          "duration": 0.03260869565217206
        },
        {
          "name": "D#7",
          "midi": 99,
          "time": 30.728260869564412,
          "velocity": 0.15748031496062992,
          "duration": 0.11956521739129755
        },
        {
          "name": "E7",
          "midi": 100,
          "time": 30.728260869564412,
          "velocity": 0.12598425196850394,
          "duration": 0.11956521739129755
        },
        {
          "name": "A#3",
          "midi": 58,
          "time": 30.739130434781803,
          "velocity": 0.2204724409448819,
          "duration": 0.13043478260868824
        },
        {
          "name": "F5",
          "midi": 77,
          "time": 30.739130434781803,
          "velocity": 0.25196850393700787,
          "duration": 0.14130434782607892
        },
        {
          "name": "B6",
          "midi": 95,
          "time": 30.739130434781803,
          "velocity": 0.1732283464566929,
          "duration": 0.11956521739129755
        },
        {
          "name": "C#7",
          "midi": 97,
          "time": 30.749999999999194,
          "velocity": 0.1732283464566929,
          "duration": 0.11956521739129755
        },
        {
          "name": "D7",
          "midi": 98,
          "time": 30.749999999999194,
          "velocity": 0.1732283464566929,
          "duration": 0.10869565217390686
        },
        {
          "name": "D6",
          "midi": 86,
          "time": 30.771739130433975,
          "velocity": 0.23622047244094488,
          "duration": 0.10869565217390686
        },
        {
          "name": "A#6",
          "midi": 94,
          "time": 30.793478260868756,
          "velocity": 0.2125984251968504,
          "duration": 0.0760869565217348
        },
        {
          "name": "D5",
          "midi": 74,
          "time": 30.815217391303538,
          "velocity": 0.11811023622047244,
          "duration": 0.043478260869562746
        },
        {
          "name": "G6",
          "midi": 91,
          "time": 30.84782608695571,
          "velocity": 0.09448818897637795,
          "duration": 0.03260869565217206
        },
        {
          "name": "F4",
          "midi": 65,
          "time": 31.021739130433968,
          "velocity": 0.2440944881889764,
          "duration": 0.05434782608695343
        },
        {
          "name": "G#5",
          "midi": 80,
          "time": 31.021739130433968,
          "velocity": 0.1968503937007874,
          "duration": 0.06521739130434412
        },
        {
          "name": "A#3",
          "midi": 58,
          "time": 31.03260869565136,
          "velocity": 0.2440944881889764,
          "duration": 0.0760869565217348
        },
        {
          "name": "F#6",
          "midi": 90,
          "time": 31.03260869565136,
          "velocity": 0.2204724409448819,
          "duration": 0.05434782608695343
        },
        {
          "name": "C7",
          "midi": 96,
          "time": 31.03260869565136,
          "velocity": 0.1732283464566929,
          "duration": 0.05434782608695343
        },
        {
          "name": "C#7",
          "midi": 97,
          "time": 31.03260869565136,
          "velocity": 0.18110236220472442,
          "duration": 0.06521739130434412
        },
        {
          "name": "D5",
          "midi": 74,
          "time": 31.05434782608614,
          "velocity": 0.14960629921259844,
          "duration": 0.043478260869562746
        },
        {
          "name": "G4",
          "midi": 67,
          "time": 31.17391304347744,
          "velocity": 0.2992125984251969,
          "duration": 0.03260869565217206
        },
        {
          "name": "D#5",
          "midi": 75,
          "time": 31.17391304347744,
          "velocity": 0.1968503937007874,
          "duration": 0.03260869565217206
        },
        {
          "name": "C#6",
          "midi": 85,
          "time": 31.17391304347744,
          "velocity": 0.16535433070866143,
          "duration": 0.03260869565217206
        },
        {
          "name": "F6",
          "midi": 89,
          "time": 31.17391304347744,
          "velocity": 0.2440944881889764,
          "duration": 0.08695652173912549
        },
        {
          "name": "G6",
          "midi": 91,
          "time": 31.17391304347744,
          "velocity": 0.13385826771653545,
          "duration": 0.03260869565217206
        },
        {
          "name": "A6",
          "midi": 93,
          "time": 31.17391304347744,
          "velocity": 0.2047244094488189,
          "duration": 0.043478260869562746
        },
        {
          "name": "B6",
          "midi": 95,
          "time": 31.17391304347744,
          "velocity": 0.2125984251968504,
          "duration": 0.1521739130434696
        },
        {
          "name": "C7",
          "midi": 96,
          "time": 31.17391304347744,
          "velocity": 0.2125984251968504,
          "duration": 0.28260869565215785
        },
        {
          "name": "D7",
          "midi": 98,
          "time": 31.17391304347744,
          "velocity": 0.1732283464566929,
          "duration": 0.1521739130434696
        },
        {
          "name": "D#7",
          "midi": 99,
          "time": 31.17391304347744,
          "velocity": 0.10236220472440945,
          "duration": 0.03260869565217206
        },
        {
          "name": "E7",
          "midi": 100,
          "time": 31.17391304347744,
          "velocity": 0.18110236220472442,
          "duration": 0.10869565217390686
        },
        {
          "name": "G7",
          "midi": 103,
          "time": 31.17391304347744,
          "velocity": 0.15748031496062992,
          "duration": 0.043478260869562746
        },
        {
          "name": "F5",
          "midi": 77,
          "time": 31.18478260869483,
          "velocity": 0.28346456692913385,
          "duration": 0.14130434782607892
        },
        {
          "name": "D6",
          "midi": 86,
          "time": 31.18478260869483,
          "velocity": 0.1732283464566929,
          "duration": 0.03260869565217206
        },
        {
          "name": "F#6",
          "midi": 90,
          "time": 31.18478260869483,
          "velocity": 0.12598425196850394,
          "duration": 0.043478260869562746
        },
        {
          "name": "A3",
          "midi": 57,
          "time": 31.195652173912222,
          "velocity": 0.5748031496062992,
          "duration": 0.05434782608695343
        },
        {
          "name": "C6",
          "midi": 84,
          "time": 31.195652173912222,
          "velocity": 0.1889763779527559,
          "duration": 0.06521739130434412
        },
        {
          "name": "C#7",
          "midi": 97,
          "time": 31.195652173912222,
          "velocity": 0.2283464566929134,
          "duration": 0.2608695652173765
        },
        {
          "name": "D5",
          "midi": 74,
          "time": 31.206521739129613,
          "velocity": 0.23622047244094488,
          "duration": 0.13043478260868824
        },
        {
          "name": "E6",
          "midi": 88,
          "time": 31.206521739129613,
          "velocity": 0.2204724409448819,
          "duration": 0.08695652173912549
        },
        {
          "name": "G#5",
          "midi": 80,
          "time": 31.217391304347004,
          "velocity": 0.1968503937007874,
          "duration": 0.08695652173912549
        },
        {
          "name": "F4",
          "midi": 65,
          "time": 31.239130434781785,
          "velocity": 0.1968503937007874,
          "duration": 0.08695652173912549
        },
        {
          "name": "G#3",
          "midi": 56,
          "time": 31.249999999999176,
          "velocity": 0.3937007874015748,
          "duration": 0.043478260869562746
        },
        {
          "name": "A#5",
          "midi": 82,
          "time": 31.249999999999176,
          "velocity": 0.2047244094488189,
          "duration": 0.08695652173912549
        },
        {
          "name": "F#6",
          "midi": 90,
          "time": 31.249999999999176,
          "velocity": 0.13385826771653545,
          "duration": 0.05434782608695343
        },
        {
          "name": "C#6",
          "midi": 85,
          "time": 31.282608695651348,
          "velocity": 0.1968503937007874,
          "duration": 0.05434782608695343
        },
        {
          "name": "G5",
          "midi": 79,
          "time": 31.30434782608613,
          "velocity": 0.2992125984251969,
          "duration": 0.10869565217390686
        },
        {
          "name": "G4",
          "midi": 67,
          "time": 31.32608695652091,
          "velocity": 0.2204724409448819,
          "duration": 0.13043478260868824
        },
        {
          "name": "F6",
          "midi": 89,
          "time": 31.32608695652091,
          "velocity": 0.29133858267716534,
          "duration": 0.03260869565217206
        },
        {
          "name": "C4",
          "midi": 60,
          "time": 31.347826086955692,
          "velocity": 0.1968503937007874,
          "duration": 0.08695652173912549
        },
        {
          "name": "E5",
          "midi": 76,
          "time": 31.347826086955692,
          "velocity": 0.2677165354330709,
          "duration": 0.11956521739129755
        },
        {
          "name": "D7",
          "midi": 98,
          "time": 31.347826086955692,
          "velocity": 0.11023622047244094,
          "duration": 0.09782608695651618
        },
        {
          "name": "C6",
          "midi": 84,
          "time": 31.358695652173083,
          "velocity": 0.25984251968503935,
          "duration": 0.10869565217390686
        },
        {
          "name": "F#6",
          "midi": 90,
          "time": 31.358695652173083,
          "velocity": 0.25196850393700787,
          "duration": 0.03260869565217206
        },
        {
          "name": "A#5",
          "midi": 82,
          "time": 31.369565217390473,
          "velocity": 0.18110236220472442,
          "duration": 0.06521739130434412
        },
        {
          "name": "G#6",
          "midi": 92,
          "time": 31.391304347825255,
          "velocity": 0.2047244094488189,
          "duration": 0.09782608695651618
        },
        {
          "name": "B6",
          "midi": 95,
          "time": 31.391304347825255,
          "velocity": 0.15748031496062992,
          "duration": 0.06521739130434412
        },
        {
          "name": "D6",
          "midi": 86,
          "time": 31.413043478260036,
          "velocity": 0.14960629921259844,
          "duration": 0.03260869565217206
        },
        {
          "name": "A5",
          "midi": 81,
          "time": 31.47826086956438,
          "velocity": 0.33070866141732286,
          "duration": 0.06521739130434412
        },
        {
          "name": "C6",
          "midi": 84,
          "time": 31.47826086956438,
          "velocity": 0.15748031496062992,
          "duration": 0.03260869565217206
        },
        {
          "name": "A4",
          "midi": 69,
          "time": 31.48913043478177,
          "velocity": 0.1968503937007874,
          "duration": 0.1195652173913011
        },
        {
          "name": "F#5",
          "midi": 78,
          "time": 31.48913043478177,
          "velocity": 0.28346456692913385,
          "duration": 0.1304347826086918
        },
        {
          "name": "G6",
          "midi": 91,
          "time": 31.48913043478177,
          "velocity": 0.25984251968503935,
          "duration": 0.021739130434781373
        },
        {
          "name": "A#6",
          "midi": 94,
          "time": 31.48913043478177,
          "velocity": 0.15748031496062992,
          "duration": 0.09782608695651973
        },
        {
          "name": "D7",
          "midi": 98,
          "time": 31.48913043478177,
          "velocity": 0.2283464566929134,
          "duration": 0.1304347826086918
        },
        {
          "name": "E7",
          "midi": 100,
          "time": 31.48913043478177,
          "velocity": 0.16535433070866143,
          "duration": 0.14130434782608248
        },
        {
          "name": "D5",
          "midi": 74,
          "time": 31.49999999999916,
          "velocity": 0.14960629921259844,
          "duration": 0.08695652173912904
        },
        {
          "name": "C#7",
          "midi": 97,
          "time": 31.49999999999916,
          "velocity": 0.23622047244094488,
          "duration": 0.10869565217391042
        },
        {
          "name": "D#7",
          "midi": 99,
          "time": 31.49999999999916,
          "velocity": 0.14173228346456693,
          "duration": 0.08695652173912904
        },
        {
          "name": "E6",
          "midi": 88,
          "time": 31.510869565216552,
          "velocity": 0.30708661417322836,
          "duration": 0.1304347826086918
        },
        {
          "name": "G#6",
          "midi": 92,
          "time": 31.510869565216552,
          "velocity": 0.25196850393700787,
          "duration": 0.043478260869562746
        },
        {
          "name": "G6",
          "midi": 91,
          "time": 31.521739130433943,
          "velocity": 0.08661417322834646,
          "duration": 0.06521739130434767
        },
        {
          "name": "F#7",
          "midi": 102,
          "time": 31.521739130433943,
          "velocity": 0.2992125984251969,
          "duration": 0.2717391304347778
        },
        {
          "name": "G#5",
          "midi": 80,
          "time": 31.532608695651334,
          "velocity": 0.3543307086614173,
          "duration": 0.054347826086956985
        },
        {
          "name": "C#6",
          "midi": 85,
          "time": 31.532608695651334,
          "velocity": 0.14173228346456693,
          "duration": 0.1195652173913011
        },
        {
          "name": "D6",
          "midi": 86,
          "time": 31.532608695651334,
          "velocity": 0.25984251968503935,
          "duration": 0.06521739130434767
        },
        {
          "name": "A6",
          "midi": 93,
          "time": 31.554347826086115,
          "velocity": 0.1889763779527559,
          "duration": 0.0434782608695663
        },
        {
          "name": "G#5",
          "midi": 80,
          "time": 31.663043478260025,
          "velocity": 0.15748031496062992,
          "duration": 0.13043478260869534
        },
        {
          "name": "G1",
          "midi": 31,
          "time": 31.78260869565133,
          "velocity": 0.4645669291338583,
          "duration": 0.021739130434781373
        },
        {
          "name": "F#4",
          "midi": 66,
          "time": 31.78260869565133,
          "velocity": 0.16535433070866143,
          "duration": 0.03260869565217206
        },
        {
          "name": "C#5",
          "midi": 73,
          "time": 31.78260869565133,
          "velocity": 0.15748031496062992,
          "duration": 0.03260869565217206
        },
        {
          "name": "G2",
          "midi": 43,
          "time": 31.80434782608611,
          "velocity": 0.5511811023622047,
          "duration": 0.010869565217390686
        },
        {
          "name": "B4",
          "midi": 71,
          "time": 31.815217391303502,
          "velocity": 0.07086614173228346,
          "duration": 0.05434782608695343
        },
        {
          "name": "G#1",
          "midi": 32,
          "time": 31.836956521738283,
          "velocity": 0.5511811023622047,
          "duration": 0.021739130434781373
        },
        {
          "name": "A5",
          "midi": 81,
          "time": 31.836956521738283,
          "velocity": 0.11811023622047244,
          "duration": 0.03260869565217206
        },
        {
          "name": "B5",
          "midi": 83,
          "time": 31.836956521738283,
          "velocity": 0.12598425196850394,
          "duration": 0.0760869565217348
        },
        {
          "name": "G4",
          "midi": 67,
          "time": 31.847826086955674,
          "velocity": 0.18110236220472442,
          "duration": 0.043478260869562746
        },
        {
          "name": "G5",
          "midi": 79,
          "time": 31.847826086955674,
          "velocity": 0.1968503937007874,
          "duration": 0.06521739130434412
        },
        {
          "name": "G1",
          "midi": 31,
          "time": 31.858695652173065,
          "velocity": 0.5511811023622047,
          "duration": 0.03260869565217206
        },
        {
          "name": "C#5",
          "midi": 73,
          "time": 31.869565217390456,
          "velocity": 0.15748031496062992,
          "duration": 0.03260869565217206
        },
        {
          "name": "F#1",
          "midi": 30,
          "time": 31.891304347825237,
          "velocity": 0.48031496062992124,
          "duration": 0.021739130434781373
        },
        {
          "name": "B4",
          "midi": 71,
          "time": 31.891304347825237,
          "velocity": 0.25196850393700787,
          "duration": 0.0760869565217348
        },
        {
          "name": "F5",
          "midi": 77,
          "time": 31.891304347825237,
          "velocity": 0.13385826771653545,
          "duration": 0.03260869565217206
        },
        {
          "name": "G3",
          "midi": 55,
          "time": 31.91304347826002,
          "velocity": 0.12598425196850394,
          "duration": 0.03260869565217206
        },
        {
          "name": "F4",
          "midi": 65,
          "time": 31.91304347826002,
          "velocity": 0.11023622047244094,
          "duration": 0.03260869565217206
        },
        {
          "name": "G4",
          "midi": 67,
          "time": 31.9347826086948,
          "velocity": 0.28346456692913385,
          "duration": 0.22826086956520797
        },
        {
          "name": "G1",
          "midi": 31,
          "time": 31.94565217391219,
          "velocity": 0.5354330708661418,
          "duration": 0.4565217391304195
        },
        {
          "name": "D4",
          "midi": 62,
          "time": 31.95652173912958,
          "velocity": 0.2440944881889764,
          "duration": 0.21739130434781728
        },
        {
          "name": "G#6",
          "midi": 92,
          "time": 31.96739130434697,
          "velocity": 0.07086614173228346,
          "duration": 0.0434782608695663
        },
        {
          "name": "B5",
          "midi": 83,
          "time": 31.978260869564362,
          "velocity": 0.12598425196850394,
          "duration": 0.07608695652173836
        },
        {
          "name": "B4",
          "midi": 71,
          "time": 31.999999999999144,
          "velocity": 0.18110236220472442,
          "duration": 0.1304347826086918
        },
        {
          "name": "F5",
          "midi": 77,
          "time": 32.03260869565132,
          "velocity": 0.12598425196850394,
          "duration": 0.06521739130434412
        },
        {
          "name": "A#5",
          "midi": 82,
          "time": 32.04347826086871,
          "velocity": 0.07086614173228346,
          "duration": 0.03260869565217206
        },
        {
          "name": "D#5",
          "midi": 75,
          "time": 32.108695652173054,
          "velocity": 0.07086614173228346,
          "duration": 0.03260869565217206
        },
        {
          "name": "A4",
          "midi": 69,
          "time": 32.24999999999914,
          "velocity": 0.2204724409448819,
          "duration": 0.06521739130434412
        },
        {
          "name": "F#5",
          "midi": 78,
          "time": 32.24999999999914,
          "velocity": 0.2677165354330709,
          "duration": 0.08695652173912549
        },
        {
          "name": "G#5",
          "midi": 80,
          "time": 32.24999999999914,
          "velocity": 0.2283464566929134,
          "duration": 0.021739130434781373
        },
        {
          "name": "C7",
          "midi": 96,
          "time": 32.24999999999914,
          "velocity": 0.13385826771653545,
          "duration": 0.0760869565217348
        },
        {
          "name": "A5",
          "midi": 81,
          "time": 32.27173913043392,
          "velocity": 0.29133858267716534,
          "duration": 0.05434782608695343
        },
        {
          "name": "D7",
          "midi": 98,
          "time": 32.27173913043392,
          "velocity": 0.14173228346456693,
          "duration": 0.06521739130434412
        },
        {
          "name": "D#7",
          "midi": 99,
          "time": 32.27173913043392,
          "velocity": 0.1889763779527559,
          "duration": 0.10869565217390686
        },
        {
          "name": "E7",
          "midi": 100,
          "time": 32.27173913043392,
          "velocity": 0.2283464566929134,
          "duration": 0.36956521739128334
        },
        {
          "name": "C6",
          "midi": 84,
          "time": 32.28260869565131,
          "velocity": 0.1889763779527559,
          "duration": 0.043478260869562746
        },
        {
          "name": "G#6",
          "midi": 92,
          "time": 32.28260869565131,
          "velocity": 0.2204724409448819,
          "duration": 0.05434782608695343
        },
        {
          "name": "A#4",
          "midi": 70,
          "time": 32.326086956520875,
          "velocity": 0.2047244094488189,
          "duration": 0.03260869565217206
        },
        {
          "name": "A#5",
          "midi": 82,
          "time": 32.326086956520875,
          "velocity": 0.31496062992125984,
          "duration": 0.0760869565217348
        },
        {
          "name": "F7",
          "midi": 101,
          "time": 32.326086956520875,
          "velocity": 0.23622047244094488,
          "duration": 0.21739130434781373
        },
        {
          "name": "D#4",
          "midi": 63,
          "time": 32.336956521738266,
          "velocity": 0.13385826771653545,
          "duration": 0.06521739130434412
        },
        {
          "name": "G5",
          "midi": 79,
          "time": 32.336956521738266,
          "velocity": 0.2992125984251969,
          "duration": 0.05434782608695343
        },
        {
          "name": "A6",
          "midi": 93,
          "time": 32.336956521738266,
          "velocity": 0.2047244094488189,
          "duration": 0.22826086956520442
        },
        {
          "name": "C#7",
          "midi": 97,
          "time": 32.336956521738266,
          "velocity": 0.16535433070866143,
          "duration": 0.08695652173912549
        },
        {
          "name": "C#6",
          "midi": 85,
          "time": 32.35869565217305,
          "velocity": 0.16535433070866143,
          "duration": 0.043478260869562746
        },
        {
          "name": "B6",
          "midi": 95,
          "time": 32.35869565217305,
          "velocity": 0.09448818897637795,
          "duration": 0.06521739130434412
        },
        {
          "name": "D#6",
          "midi": 87,
          "time": 32.36956521739044,
          "velocity": 0.18110236220472442,
          "duration": 0.05434782608695343
        },
        {
          "name": "G#4",
          "midi": 68,
          "time": 32.39130434782522,
          "velocity": 0.28346456692913385,
          "duration": 0.021739130434781373
        },
        {
          "name": "G#6",
          "midi": 92,
          "time": 32.39130434782522,
          "velocity": 0.1968503937007874,
          "duration": 0.043478260869562746
        },
        {
          "name": "C7",
          "midi": 96,
          "time": 32.39130434782522,
          "velocity": 0.1889763779527559,
          "duration": 0.03260869565217206
        },
        {
          "name": "A#3",
          "midi": 58,
          "time": 32.40217391304261,
          "velocity": 0.5275590551181102,
          "duration": 0.021739130434781373
        },
        {
          "name": "A5",
          "midi": 81,
          "time": 32.40217391304261,
          "velocity": 0.25196850393700787,
          "duration": 0.14130434782607892
        },
        {
          "name": "B5",
          "midi": 83,
          "time": 32.40217391304261,
          "velocity": 0.13385826771653545,
          "duration": 0.03260869565217206
        },
        {
          "name": "F#6",
          "midi": 90,
          "time": 32.40217391304261,
          "velocity": 0.10236220472440945,
          "duration": 0.043478260869562746
        },
        {
          "name": "G7",
          "midi": 103,
          "time": 32.40217391304261,
          "velocity": 0.09448818897637795,
          "duration": 0.03260869565217206
        },
        {
          "name": "F#4",
          "midi": 66,
          "time": 32.41304347826,
          "velocity": 0.2283464566929134,
          "duration": 0.021739130434781373
        },
        {
          "name": "A4",
          "midi": 69,
          "time": 32.41304347826,
          "velocity": 0.2440944881889764,
          "duration": 0.03260869565217206
        },
        {
          "name": "C#5",
          "midi": 73,
          "time": 32.41304347826,
          "velocity": 0.23622047244094488,
          "duration": 0.021739130434781373
        },
        {
          "name": "E6",
          "midi": 88,
          "time": 32.41304347826,
          "velocity": 0.25984251968503935,
          "duration": 0.17391304347825098
        },
        {
          "name": "F#7",
          "midi": 102,
          "time": 32.41304347826,
          "velocity": 0.14960629921259844,
          "duration": 0.13043478260868824
        },
        {
          "name": "A3",
          "midi": 57,
          "time": 32.42391304347739,
          "velocity": 0.5826771653543307,
          "duration": 0.043478260869562746
        },
        {
          "name": "E5",
          "midi": 76,
          "time": 32.42391304347739,
          "velocity": 0.08661417322834646,
          "duration": 0.043478260869562746
        },
        {
          "name": "F#5",
          "midi": 78,
          "time": 32.42391304347739,
          "velocity": 0.2755905511811024,
          "duration": 0.11956521739129755
        },
        {
          "name": "B6",
          "midi": 95,
          "time": 32.43478260869478,
          "velocity": 0.07086614173228346,
          "duration": 0.03260869565217206
        },
        {
          "name": "C6",
          "midi": 84,
          "time": 32.44565217391217,
          "velocity": 0.13385826771653545,
          "duration": 0.03260869565217206
        },
        {
          "name": "D#7",
          "midi": 99,
          "time": 32.44565217391217,
          "velocity": 0.11023622047244094,
          "duration": 0.08695652173912549
        },
        {
          "name": "D4",
          "midi": 62,
          "time": 32.45652173912956,
          "velocity": 0.14173228346456693,
          "duration": 0.043478260869562746
        },
        {
          "name": "G#6",
          "midi": 92,
          "time": 32.45652173912956,
          "velocity": 0.29133858267716534,
          "duration": 0.19565217391303236
        },
        {
          "name": "C#7",
          "midi": 97,
          "time": 32.45652173912956,
          "velocity": 0.18110236220472442,
          "duration": 0.08695652173912549
        },
        {
          "name": "G#3",
          "midi": 56,
          "time": 32.467391304346954,
          "velocity": 0.4645669291338583,
          "duration": 0.05434782608695343
        },
        {
          "name": "C7",
          "midi": 96,
          "time": 32.467391304346954,
          "velocity": 0.15748031496062992,
          "duration": 0.06521739130434412
        },
        {
          "name": "A4",
          "midi": 69,
          "time": 32.478260869564345,
          "velocity": 0.12598425196850394,
          "duration": 0.06521739130434412
        },
        {
          "name": "D5",
          "midi": 74,
          "time": 32.478260869564345,
          "velocity": 0.15748031496062992,
          "duration": 0.06521739130434412
        },
        {
          "name": "A#6",
          "midi": 94,
          "time": 32.51086956521652,
          "velocity": 0.1732283464566929,
          "duration": 0.03260869565217206
        },
        {
          "name": "A#5",
          "midi": 82,
          "time": 32.54347826086869,
          "velocity": 0.2440944881889764,
          "duration": 0.08695652173912549
        },
        {
          "name": "F#4",
          "midi": 66,
          "time": 32.55434782608608,
          "velocity": 0.2047244094488189,
          "duration": 0.03260869565217206
        },
        {
          "name": "G5",
          "midi": 79,
          "time": 32.55434782608608,
          "velocity": 0.2283464566929134,
          "duration": 0.11956521739129755
        },
        {
          "name": "C7",
          "midi": 96,
          "time": 32.55434782608608,
          "velocity": 0.11023622047244094,
          "duration": 0.03260869565217206
        },
        {
          "name": "D#7",
          "midi": 99,
          "time": 32.56521739130347,
          "velocity": 0.1968503937007874,
          "duration": 0.0760869565217348
        },
        {
          "name": "C6",
          "midi": 84,
          "time": 32.57608695652086,
          "velocity": 0.15748031496062992,
          "duration": 0.06521739130434412
        },
        {
          "name": "D7",
          "midi": 98,
          "time": 32.57608695652086,
          "velocity": 0.11023622047244094,
          "duration": 0.05434782608695343
        },
        {
          "name": "C4",
          "midi": 60,
          "time": 32.58695652173825,
          "velocity": 0.2204724409448819,
          "duration": 0.05434782608695343
        },
        {
          "name": "G4",
          "midi": 67,
          "time": 32.58695652173825,
          "velocity": 0.14173228346456693,
          "duration": 0.043478260869562746
        },
        {
          "name": "E5",
          "midi": 76,
          "time": 32.59782608695564,
          "velocity": 0.1732283464566929,
          "duration": 0.043478260869562746
        },
        {
          "name": "D6",
          "midi": 86,
          "time": 32.59782608695564,
          "velocity": 0.18110236220472442,
          "duration": 0.05434782608695343
        },
        {
          "name": "B6",
          "midi": 95,
          "time": 32.59782608695564,
          "velocity": 0.14173228346456693,
          "duration": 0.043478260869562746
        },
        {
          "name": "A4",
          "midi": 69,
          "time": 32.858695652173026,
          "velocity": 0.1889763779527559,
          "duration": 0.03260869565217206
        },
        {
          "name": "D5",
          "midi": 74,
          "time": 32.858695652173026,
          "velocity": 0.2047244094488189,
          "duration": 0.11956521739129755
        },
        {
          "name": "C6",
          "midi": 84,
          "time": 32.858695652173026,
          "velocity": 0.2677165354330709,
          "duration": 0.1630434782608603
        },
        {
          "name": "C7",
          "midi": 96,
          "time": 32.858695652173026,
          "velocity": 0.31496062992125984,
          "duration": 0.14130434782607892
        },
        {
          "name": "F#7",
          "midi": 102,
          "time": 32.858695652173026,
          "velocity": 0.1889763779527559,
          "duration": 0.10869565217390686
        },
        {
          "name": "G7",
          "midi": 103,
          "time": 32.858695652173026,
          "velocity": 0.2440944881889764,
          "duration": 0.10869565217390686
        },
        {
          "name": "A5",
          "midi": 81,
          "time": 32.86956521739042,
          "velocity": 0.23622047244094488,
          "duration": 0.1630434782608603
        },
        {
          "name": "D6",
          "midi": 86,
          "time": 32.86956521739042,
          "velocity": 0.2125984251968504,
          "duration": 0.06521739130434412
        },
        {
          "name": "B6",
          "midi": 95,
          "time": 32.86956521739042,
          "velocity": 0.11811023622047244,
          "duration": 0.03260869565217206
        },
        {
          "name": "C#7",
          "midi": 97,
          "time": 32.86956521739042,
          "velocity": 0.2125984251968504,
          "duration": 0.0760869565217348
        },
        {
          "name": "D#7",
          "midi": 99,
          "time": 32.86956521739042,
          "velocity": 0.18110236220472442,
          "duration": 0.10869565217390686
        },
        {
          "name": "D4",
          "midi": 62,
          "time": 32.8913043478252,
          "velocity": 0.08661417322834646,
          "duration": 0.06521739130434412
        },
        {
          "name": "F#6",
          "midi": 90,
          "time": 32.8913043478252,
          "velocity": 0.1968503937007874,
          "duration": 0.08695652173912549
        },
        {
          "name": "E7",
          "midi": 100,
          "time": 32.8913043478252,
          "velocity": 0.15748031496062992,
          "duration": 0.0760869565217348
        },
        {
          "name": "E6",
          "midi": 88,
          "time": 32.90217391304259,
          "velocity": 0.09448818897637795,
          "duration": 0.06521739130434412
        },
        {
          "name": "A#6",
          "midi": 94,
          "time": 32.90217391304259,
          "velocity": 0.2047244094488189,
          "duration": 0.0760869565217348
        },
        {
          "name": "G#6",
          "midi": 92,
          "time": 32.91304347825998,
          "velocity": 0.16535433070866143,
          "duration": 0.03260869565217206
        },
        {
          "name": "D3",
          "midi": 50,
          "time": 33.021739130433886,
          "velocity": 0.5118110236220472,
          "duration": 0.010869565217390686
        },
        {
          "name": "A#2",
          "midi": 46,
          "time": 33.03260869565128,
          "velocity": 0.5433070866141733,
          "duration": 0.010869565217390686
        },
        {
          "name": "D2",
          "midi": 38,
          "time": 33.04347826086867,
          "velocity": 0.5511811023622047,
          "duration": 0.010869565217390686
        },
        {
          "name": "A#1",
          "midi": 34,
          "time": 33.05434782608606,
          "velocity": 0.5354330708661418,
          "duration": 0.010869565217390686
        },
        {
          "name": "G#1",
          "midi": 32,
          "time": 33.06521739130345,
          "velocity": 0.5275590551181102,
          "duration": 0.021739130434781373
        },
        {
          "name": "G1",
          "midi": 31,
          "time": 33.08695652173823,
          "velocity": 0.5118110236220472,
          "duration": 0.010869565217390686
        },
        {
          "name": "F#1",
          "midi": 30,
          "time": 33.09782608695562,
          "velocity": 0.49606299212598426,
          "duration": 0.021739130434781373
        },
        {
          "name": "F#1",
          "midi": 30,
          "time": 33.13043478260779,
          "velocity": 0.4330708661417323,
          "duration": 0.021739130434781373
        },
        {
          "name": "F1",
          "midi": 29,
          "time": 33.152173913042574,
          "velocity": 0.33858267716535434,
          "duration": 0.03260869565217206
        },
        {
          "name": "C6",
          "midi": 84,
          "time": 33.163043478259965,
          "velocity": 0.2125984251968504,
          "duration": 0.05434782608695343
        },
        {
          "name": "B6",
          "midi": 95,
          "time": 33.163043478259965,
          "velocity": 0.1889763779527559,
          "duration": 0.10869565217390686
        },
        {
          "name": "F4",
          "midi": 65,
          "time": 33.173913043477356,
          "velocity": 0.2125984251968504,
          "duration": 0.14130434782607892
        },
        {
          "name": "D5",
          "midi": 74,
          "time": 33.173913043477356,
          "velocity": 0.14960629921259844,
          "duration": 0.14130434782607892
        },
        {
          "name": "A#5",
          "midi": 82,
          "time": 33.173913043477356,
          "velocity": 0.23622047244094488,
          "duration": 0.1521739130434696
        },
        {
          "name": "A#6",
          "midi": 94,
          "time": 33.173913043477356,
          "velocity": 0.23622047244094488,
          "duration": 0.1521739130434696
        },
        {
          "name": "F7",
          "midi": 101,
          "time": 33.173913043477356,
          "velocity": 0.2283464566929134,
          "duration": 0.13043478260868824
        },
        {
          "name": "F#7",
          "midi": 102,
          "time": 33.173913043477356,
          "velocity": 0.16535433070866143,
          "duration": 0.13043478260868824
        },
        {
          "name": "A#4",
          "midi": 70,
          "time": 33.184782608694746,
          "velocity": 0.2283464566929134,
          "duration": 0.021739130434781373
        },
        {
          "name": "G#5",
          "midi": 80,
          "time": 33.184782608694746,
          "velocity": 0.2440944881889764,
          "duration": 0.14130434782607892
        },
        {
          "name": "C#7",
          "midi": 97,
          "time": 33.184782608694746,
          "velocity": 0.14960629921259844,
          "duration": 0.11956521739129755
        },
        {
          "name": "E7",
          "midi": 100,
          "time": 33.184782608694746,
          "velocity": 0.14960629921259844,
          "duration": 0.11956521739129755
        },
        {
          "name": "A6",
          "midi": 93,
          "time": 33.19565217391214,
          "velocity": 0.2204724409448819,
          "duration": 0.13043478260868824
        },
        {
          "name": "F6",
          "midi": 89,
          "time": 33.21739130434692,
          "velocity": 0.1968503937007874,
          "duration": 0.10869565217390686
        },
        {
          "name": "D7",
          "midi": 98,
          "time": 33.21739130434692,
          "velocity": 0.14960629921259844,
          "duration": 0.0760869565217348
        },
        {
          "name": "A#4",
          "midi": 70,
          "time": 33.24999999999909,
          "velocity": 0.08661417322834646,
          "duration": 0.043478260869562746
        },
        {
          "name": "F#6",
          "midi": 90,
          "time": 33.28260869565126,
          "velocity": 0.07874015748031496,
          "duration": 0.03260869565217206
        },
        {
          "name": "A#3",
          "midi": 58,
          "time": 33.46739130434691,
          "velocity": 0.2125984251968504,
          "duration": 0.05434782608695343
        },
        {
          "name": "F5",
          "midi": 77,
          "time": 33.46739130434691,
          "velocity": 0.13385826771653545,
          "duration": 0.03260869565217206
        },
        {
          "name": "G#5",
          "midi": 80,
          "time": 33.46739130434691,
          "velocity": 0.2440944881889764,
          "duration": 0.05434782608695343
        },
        {
          "name": "C7",
          "midi": 96,
          "time": 33.46739130434691,
          "velocity": 0.1889763779527559,
          "duration": 0.0760869565217348
        },
        {
          "name": "F4",
          "midi": 65,
          "time": 33.4782608695643,
          "velocity": 0.18110236220472442,
          "duration": 0.03260869565217206
        },
        {
          "name": "D5",
          "midi": 74,
          "time": 33.4782608695643,
          "velocity": 0.14960629921259844,
          "duration": 0.05434782608695343
        },
        {
          "name": "C6",
          "midi": 84,
          "time": 33.4782608695643,
          "velocity": 0.15748031496062992,
          "duration": 0.05434782608695343
        },
        {
          "name": "D6",
          "midi": 86,
          "time": 33.4782608695643,
          "velocity": 0.18110236220472442,
          "duration": 0.06521739130434412
        },
        {
          "name": "E6",
          "midi": 88,
          "time": 33.4782608695643,
          "velocity": 0.07086614173228346,
          "duration": 0.043478260869562746
        },
        {
          "name": "B6",
          "midi": 95,
          "time": 33.4782608695643,
          "velocity": 0.11023622047244094,
          "duration": 0.06521739130434412
        },
        {
          "name": "C#7",
          "midi": 97,
          "time": 33.4782608695643,
          "velocity": 0.1889763779527559,
          "duration": 0.05434782608695343
        },
        {
          "name": "G7",
          "midi": 103,
          "time": 33.4782608695643,
          "velocity": 0.15748031496062992,
          "duration": 0.06521739130434412
        },
        {
          "name": "A#5",
          "midi": 82,
          "time": 33.48913043478169,
          "velocity": 0.2125984251968504,
          "duration": 0.05434782608695343
        },
        {
          "name": "C#5",
          "midi": 73,
          "time": 33.61956521739039,
          "velocity": 0.30708661417322836,
          "duration": 0.021739130434781373
        },
        {
          "name": "G5",
          "midi": 79,
          "time": 33.61956521739039,
          "velocity": 0.1889763779527559,
          "duration": 0.03260869565217206
        },
        {
          "name": "D#6",
          "midi": 87,
          "time": 33.61956521739039,
          "velocity": 0.18110236220472442,
          "duration": 0.043478260869562746
        },
        {
          "name": "F6",
          "midi": 89,
          "time": 33.61956521739039,
          "velocity": 0.13385826771653545,
          "duration": 0.05434782608695343
        },
        {
          "name": "A6",
          "midi": 93,
          "time": 33.61956521739039,
          "velocity": 0.1889763779527559,
          "duration": 0.043478260869562746
        },
        {
          "name": "A#6",
          "midi": 94,
          "time": 33.61956521739039,
          "velocity": 0.25196850393700787,
          "duration": 0.03260869565217206
        },
        {
          "name": "E7",
          "midi": 100,
          "time": 33.61956521739039,
          "velocity": 0.16535433070866143,
          "duration": 0.03260869565217206
        },
        {
          "name": "F7",
          "midi": 101,
          "time": 33.61956521739039,
          "velocity": 0.1968503937007874,
          "duration": 0.03260869565217206
        },
        {
          "name": "G7",
          "midi": 103,
          "time": 33.61956521739039,
          "velocity": 0.1968503937007874,
          "duration": 0.03260869565217206
        },
        {
          "name": "C#7",
          "midi": 97,
          "time": 33.63043478260778,
          "velocity": 0.11811023622047244,
          "duration": 0.03260869565217206
        },
        {
          "name": "F#7",
          "midi": 102,
          "time": 33.63043478260778,
          "velocity": 0.10236220472440945,
          "duration": 0.03260869565217206
        },
        {
          "name": "A#3",
          "midi": 58,
          "time": 33.64130434782517,
          "velocity": 0.5590551181102362,
          "duration": 0.010869565217390686
        },
        {
          "name": "G4",
          "midi": 67,
          "time": 33.64130434782517,
          "velocity": 0.2440944881889764,
          "duration": 0.03260869565217206
        },
        {
          "name": "A3",
          "midi": 57,
          "time": 33.65217391304256,
          "velocity": 0.5984251968503937,
          "duration": 0.03260869565217206
        },
        {
          "name": "G1",
          "midi": 31,
          "time": 33.66304347825995,
          "velocity": 0.5511811023622047,
          "duration": 0.2391304347825951
        },
        {
          "name": "G#3",
          "midi": 56,
          "time": 33.68478260869473,
          "velocity": 0.5196850393700787,
          "duration": 0.043478260869562746
        },
        {
          "name": "C6",
          "midi": 84,
          "time": 33.69565217391212,
          "velocity": 0.29133858267716534,
          "duration": 0.20652173913042304
        },
        {
          "name": "G#5",
          "midi": 80,
          "time": 33.70652173912951,
          "velocity": 0.2755905511811024,
          "duration": 0.18478260869564167
        },
        {
          "name": "A#5",
          "midi": 82,
          "time": 33.70652173912951,
          "velocity": 0.29133858267716534,
          "duration": 0.17391304347825098
        },
        {
          "name": "C#5",
          "midi": 73,
          "time": 33.717391304346904,
          "velocity": 0.11023622047244094,
          "duration": 0.03260869565217206
        },
        {
          "name": "C#6",
          "midi": 85,
          "time": 33.739130434781686,
          "velocity": 0.1889763779527559,
          "duration": 0.1630434782608603
        },
        {
          "name": "D#6",
          "midi": 87,
          "time": 33.76086956521647,
          "velocity": 0.15748031496062992,
          "duration": 0.14130434782607892
        },
        {
          "name": "F#5",
          "midi": 78,
          "time": 33.77173913043386,
          "velocity": 0.12598425196850394,
          "duration": 0.03260869565217206
        },
        {
          "name": "C5",
          "midi": 72,
          "time": 33.78260869565125,
          "velocity": 0.25196850393700787,
          "duration": 0.09782608695651618
        },
        {
          "name": "E7",
          "midi": 100,
          "time": 33.78260869565125,
          "velocity": 0.12598425196850394,
          "duration": 0.08695652173912549
        },
        {
          "name": "G7",
          "midi": 103,
          "time": 33.78260869565125,
          "velocity": 0.08661417322834646,
          "duration": 0.03260869565217206
        },
        {
          "name": "D3",
          "midi": 50,
          "time": 33.79347826086864,
          "velocity": 0.15748031496062992,
          "duration": 0.0760869565217348
        },
        {
          "name": "D#5",
          "midi": 75,
          "time": 33.79347826086864,
          "velocity": 0.14960629921259844,
          "duration": 0.06521739130434412
        },
        {
          "name": "F#5",
          "midi": 78,
          "time": 33.81521739130342,
          "velocity": 0.2047244094488189,
          "duration": 0.0760869565217348
        },
        {
          "name": "E6",
          "midi": 88,
          "time": 33.81521739130342,
          "velocity": 0.10236220472440945,
          "duration": 0.08695652173912549
        },
        {
          "name": "E4",
          "midi": 64,
          "time": 33.869565217390374,
          "velocity": 0.29133858267716534,
          "duration": 0.03260869565217206
        },
        {
          "name": "F6",
          "midi": 89,
          "time": 33.880434782607765,
          "velocity": 0.14960629921259844,
          "duration": 0.03260869565217206
        },
        {
          "name": "F#1",
          "midi": 30,
          "time": 33.902173913042546,
          "velocity": 0.4409448818897638,
          "duration": 0.021739130434781373
        },
        {
          "name": "C5",
          "midi": 72,
          "time": 33.92391304347733,
          "velocity": 0.14960629921259844,
          "duration": 0.03260869565217206
        },
        {
          "name": "B2",
          "midi": 47,
          "time": 33.94565217391211,
          "velocity": 0.5196850393700787,
          "duration": 0.010869565217390686
        },
        {
          "name": "C#2",
          "midi": 37,
          "time": 33.9565217391295,
          "velocity": 0.5511811023622047,
          "duration": 0.021739130434781373
        },
        {
          "name": "A1",
          "midi": 33,
          "time": 33.97826086956428,
          "velocity": 0.5354330708661418,
          "duration": 0.010869565217390686
        },
        {
          "name": "F#5",
          "midi": 78,
          "time": 33.98913043478167,
          "velocity": 0.15748031496062992,
          "duration": 0.043478260869562746
        },
        {
          "name": "C#5",
          "midi": 73,
          "time": 33.99999999999906,
          "velocity": 0.11023622047244094,
          "duration": 0.08695652173912549
        },
        {
          "name": "A#5",
          "midi": 82,
          "time": 33.99999999999906,
          "velocity": 0.1889763779527559,
          "duration": 0.17391304347825098
        },
        {
          "name": "F#1",
          "midi": 30,
          "time": 34.01086956521645,
          "velocity": 0.5433070866141733,
          "duration": 0.0760869565217348
        },
        {
          "name": "C6",
          "midi": 84,
          "time": 34.043478260868625,
          "velocity": 0.14173228346456693,
          "duration": 0.06521739130434412
        },
        {
          "name": "C#6",
          "midi": 85,
          "time": 34.043478260868625,
          "velocity": 0.11023622047244094,
          "duration": 0.1521739130434696
        },
        {
          "name": "G#5",
          "midi": 80,
          "time": 34.054347826086016,
          "velocity": 0.2204724409448819,
          "duration": 0.14130434782607892
        },
        {
          "name": "G1",
          "midi": 31,
          "time": 34.08695652173819,
          "velocity": 0.5511811023622047,
          "duration": 0.11956521739129755
        },
        {
          "name": "C5",
          "midi": 72,
          "time": 34.10869565217297,
          "velocity": 0.1968503937007874,
          "duration": 0.08695652173912549
        },
        {
          "name": "G5",
          "midi": 79,
          "time": 34.10869565217297,
          "velocity": 0.11811023622047244,
          "duration": 0.03260869565217206
        },
        {
          "name": "C6",
          "midi": 84,
          "time": 34.11956521739036,
          "velocity": 0.1968503937007874,
          "duration": 0.06521739130434412
        },
        {
          "name": "D3",
          "midi": 50,
          "time": 34.14130434782514,
          "velocity": 0.1732283464566929,
          "duration": 0.043478260869562746
        },
        {
          "name": "A6",
          "midi": 93,
          "time": 34.14130434782514,
          "velocity": 0.07086614173228346,
          "duration": 0.05434782608695343
        },
        {
          "name": "F#5",
          "midi": 78,
          "time": 34.15217391304253,
          "velocity": 0.14173228346456693,
          "duration": 0.03260869565217206
        },
        {
          "name": "D#6",
          "midi": 87,
          "time": 34.15217391304253,
          "velocity": 0.09448818897637795,
          "duration": 0.043478260869562746
        },
        {
          "name": "E7",
          "midi": 100,
          "time": 34.15217391304253,
          "velocity": 0.11811023622047244,
          "duration": 0.043478260869562746
        },
        {
          "name": "E4",
          "midi": 64,
          "time": 34.16304347825992,
          "velocity": 0.31496062992125984,
          "duration": 0.043478260869562746
        },
        {
          "name": "B3",
          "midi": 59,
          "time": 34.17391304347731,
          "velocity": 0.33858267716535434,
          "duration": 0.021739130434781373
        },
        {
          "name": "F6",
          "midi": 89,
          "time": 34.17391304347731,
          "velocity": 0.14173228346456693,
          "duration": 0.043478260869562746
        },
        {
          "name": "B6",
          "midi": 95,
          "time": 34.17391304347731,
          "velocity": 0.14960629921259844,
          "duration": 0.043478260869562746
        },
        {
          "name": "F#6",
          "midi": 90,
          "time": 34.184782608694704,
          "velocity": 0.11811023622047244,
          "duration": 0.03260869565217206
        },
        {
          "name": "F#1",
          "midi": 30,
          "time": 34.206521739129485,
          "velocity": 0.44881889763779526,
          "duration": 0.021739130434781373
        },
        {
          "name": "F#4",
          "midi": 66,
          "time": 34.22826086956427,
          "velocity": 0.2047244094488189,
          "duration": 0.03260869565217206
        },
        {
          "name": "B4",
          "midi": 71,
          "time": 34.23913043478166,
          "velocity": 0.15748031496062992,
          "duration": 0.05434782608695343
        },
        {
          "name": "G#3",
          "midi": 56,
          "time": 34.24999999999905,
          "velocity": 0.2677165354330709,
          "duration": 0.021739130434781373
        },
        {
          "name": "C#2",
          "midi": 37,
          "time": 34.26086956521644,
          "velocity": 0.5433070866141733,
          "duration": 0.010869565217390686
        },
        {
          "name": "G5",
          "midi": 79,
          "time": 34.26086956521644,
          "velocity": 0.2204724409448819,
          "duration": 0.08695652173912549
        },
        {
          "name": "A#1",
          "midi": 34,
          "time": 34.27173913043383,
          "velocity": 0.5590551181102362,
          "duration": 0.010869565217390686
        },
        {
          "name": "A1",
          "midi": 33,
          "time": 34.28260869565122,
          "velocity": 0.5590551181102362,
          "duration": 0.010869565217390686
        },
        {
          "name": "G#1",
          "midi": 32,
          "time": 34.29347826086861,
          "velocity": 0.5354330708661418,
          "duration": 0.010869565217390686
        },
        {
          "name": "G4",
          "midi": 67,
          "time": 34.29347826086861,
          "velocity": 0.23622047244094488,
          "duration": 0.09782608695651618
        },
        {
          "name": "B5",
          "midi": 83,
          "time": 34.29347826086861,
          "velocity": 0.11023622047244094,
          "duration": 0.0760869565217348
        },
        {
          "name": "G1",
          "midi": 31,
          "time": 34.304347826086,
          "velocity": 0.5196850393700787,
          "duration": 0.010869565217390686
        },
        {
          "name": "D5",
          "midi": 74,
          "time": 34.304347826086,
          "velocity": 0.25196850393700787,
          "duration": 0.09782608695651618
        },
        {
          "name": "G#6",
          "midi": 92,
          "time": 34.304347826086,
          "velocity": 0.09448818897637795,
          "duration": 0.043478260869562746
        },
        {
          "name": "F#1",
          "midi": 30,
          "time": 34.31521739130339,
          "velocity": 0.5354330708661418,
          "duration": 0.08695652173912549
        },
        {
          "name": "B4",
          "midi": 71,
          "time": 34.31521739130339,
          "velocity": 0.25984251968503935,
          "duration": 0.10869565217390686
        },
        {
          "name": "F#6",
          "midi": 90,
          "time": 34.32608695652078,
          "velocity": 0.11811023622047244,
          "duration": 0.043478260869562746
        },
        {
          "name": "D3",
          "midi": 50,
          "time": 34.33695652173817,
          "velocity": 0.2440944881889764,
          "duration": 0.03260869565217206
        },
        {
          "name": "D4",
          "midi": 62,
          "time": 34.358695652172955,
          "velocity": 0.25984251968503935,
          "duration": 0.2608695652173836
        },
        {
          "name": "F5",
          "midi": 77,
          "time": 34.369565217390345,
          "velocity": 0.08661417322834646,
          "duration": 0.043478260869562746
        },
        {
          "name": "G5",
          "midi": 79,
          "time": 34.39130434782513,
          "velocity": 0.12598425196850394,
          "duration": 0.11956521739130466
        },
        {
          "name": "G1",
          "midi": 31,
          "time": 34.40217391304252,
          "velocity": 0.5275590551181102,
          "duration": 0.46739130434781373
        },
        {
          "name": "G4",
          "midi": 67,
          "time": 34.4239130434773,
          "velocity": 0.2440944881889764,
          "duration": 0.1739130434782581
        },
        {
          "name": "B4",
          "midi": 71,
          "time": 34.44565217391208,
          "velocity": 0.2125984251968504,
          "duration": 0.07608695652174191
        },
        {
          "name": "F5",
          "midi": 77,
          "time": 34.53260869565121,
          "velocity": 0.07086614173228346,
          "duration": 0.03260869565217206
        },
        {
          "name": "B5",
          "midi": 83,
          "time": 34.53260869565121,
          "velocity": 0.07086614173228346,
          "duration": 0.043478260869562746
        },
        {
          "name": "F4",
          "midi": 65,
          "time": 34.565217391303385,
          "velocity": 0.11811023622047244,
          "duration": 0.03260869565217206
        },
        {
          "name": "F#5",
          "midi": 78,
          "time": 34.69565217391208,
          "velocity": 0.25196850393700787,
          "duration": 0.0760869565217348
        },
        {
          "name": "E6",
          "midi": 88,
          "time": 34.70652173912947,
          "velocity": 0.2047244094488189,
          "duration": 0.06521739130434412
        },
        {
          "name": "D#7",
          "midi": 99,
          "time": 34.70652173912947,
          "velocity": 0.10236220472440945,
          "duration": 0.0760869565217348
        },
        {
          "name": "E7",
          "midi": 100,
          "time": 34.70652173912947,
          "velocity": 0.2125984251968504,
          "duration": 0.28260869565215785
        },
        {
          "name": "F7",
          "midi": 101,
          "time": 34.70652173912947,
          "velocity": 0.2125984251968504,
          "duration": 0.1630434782608603
        },
        {
          "name": "D5",
          "midi": 74,
          "time": 34.71739130434686,
          "velocity": 0.14960629921259844,
          "duration": 0.03260869565217206
        },
        {
          "name": "C6",
          "midi": 84,
          "time": 34.71739130434686,
          "velocity": 0.14960629921259844,
          "duration": 0.043478260869562746
        },
        {
          "name": "D6",
          "midi": 86,
          "time": 34.71739130434686,
          "velocity": 0.23622047244094488,
          "duration": 0.06521739130434412
        },
        {
          "name": "G#6",
          "midi": 92,
          "time": 34.72826086956425,
          "velocity": 0.11811023622047244,
          "duration": 0.03260869565217206
        },
        {
          "name": "C#6",
          "midi": 85,
          "time": 34.760869565216424,
          "velocity": 0.23622047244094488,
          "duration": 0.09782608695651618
        },
        {
          "name": "D#4",
          "midi": 63,
          "time": 34.771739130433815,
          "velocity": 0.14960629921259844,
          "duration": 0.0760869565217348
        },
        {
          "name": "G5",
          "midi": 79,
          "time": 34.771739130433815,
          "velocity": 0.25196850393700787,
          "duration": 0.09782608695651618
        },
        {
          "name": "F#7",
          "midi": 102,
          "time": 34.771739130433815,
          "velocity": 0.1732283464566929,
          "duration": 0.09782608695651618
        },
        {
          "name": "D#6",
          "midi": 87,
          "time": 34.782608695651206,
          "velocity": 0.29133858267716534,
          "duration": 0.08695652173912549
        },
        {
          "name": "F6",
          "midi": 89,
          "time": 34.782608695651206,
          "velocity": 0.1968503937007874,
          "duration": 0.08695652173912549
        },
        {
          "name": "A6",
          "midi": 93,
          "time": 34.782608695651206,
          "velocity": 0.09448818897637795,
          "duration": 0.05434782608695343
        },
        {
          "name": "A#6",
          "midi": 94,
          "time": 34.793478260868596,
          "velocity": 0.18110236220472442,
          "duration": 0.18478260869564167
        },
        {
          "name": "B6",
          "midi": 95,
          "time": 34.793478260868596,
          "velocity": 0.14960629921259844,
          "duration": 0.0760869565217348
        },
        {
          "name": "D7",
          "midi": 98,
          "time": 34.81521739130338,
          "velocity": 0.2283464566929134,
          "duration": 0.2608695652173765
        },
        {
          "name": "F#4",
          "midi": 66,
          "time": 34.83695652173816,
          "velocity": 0.30708661417322836,
          "duration": 0.043478260869562746
        },
        {
          "name": "C5",
          "midi": 72,
          "time": 34.84782608695555,
          "velocity": 0.2440944881889764,
          "duration": 0.03260869565217206
        },
        {
          "name": "F#6",
          "midi": 90,
          "time": 34.84782608695555,
          "velocity": 0.09448818897637795,
          "duration": 0.05434782608695343
        },
        {
          "name": "G#6",
          "midi": 92,
          "time": 34.84782608695555,
          "velocity": 0.13385826771653545,
          "duration": 0.03260869565217206
        },
        {
          "name": "G7",
          "midi": 103,
          "time": 34.84782608695555,
          "velocity": 0.2204724409448819,
          "duration": 0.13043478260868824
        },
        {
          "name": "A#3",
          "midi": 58,
          "time": 34.85869565217294,
          "velocity": 0.5354330708661418,
          "duration": 0.010869565217390686
        },
        {
          "name": "D6",
          "midi": 86,
          "time": 34.85869565217294,
          "velocity": 0.2440944881889764,
          "duration": 0.19565217391303236
        },
        {
          "name": "A3",
          "midi": 57,
          "time": 34.86956521739033,
          "velocity": 0.5984251968503937,
          "duration": 0.043478260869562746
        },
        {
          "name": "D5",
          "midi": 74,
          "time": 34.86956521739033,
          "velocity": 0.1732283464566929,
          "duration": 0.10869565217390686
        },
        {
          "name": "E6",
          "midi": 88,
          "time": 34.86956521739033,
          "velocity": 0.11023622047244094,
          "duration": 0.043478260869562746
        },
        {
          "name": "F7",
          "midi": 101,
          "time": 34.88043478260772,
          "velocity": 0.07874015748031496,
          "duration": 0.05434782608695343
        },
        {
          "name": "D#7",
          "midi": 99,
          "time": 34.89130434782511,
          "velocity": 0.12598425196850394,
          "duration": 0.10869565217390686
        },
        {
          "name": "C6",
          "midi": 84,
          "time": 34.9021739130425,
          "velocity": 0.2204724409448819,
          "duration": 0.08695652173912549
        },
        {
          "name": "C#7",
          "midi": 97,
          "time": 34.9021739130425,
          "velocity": 0.2204724409448819,
          "duration": 0.08695652173912549
        },
        {
          "name": "G#3",
          "midi": 56,
          "time": 34.913043478259894,
          "velocity": 0.4881889763779528,
          "duration": 0.05434782608695343
        },
        {
          "name": "F#7",
          "midi": 102,
          "time": 34.934782608694675,
          "velocity": 0.1968503937007874,
          "duration": 0.06521739130434412
        },
        {
          "name": "G#6",
          "midi": 92,
          "time": 34.96739130434685,
          "velocity": 0.10236220472440945,
          "duration": 0.03260869565217206
        },
        {
          "name": "C5",
          "midi": 72,
          "time": 34.99999999999902,
          "velocity": 0.23622047244094488,
          "duration": 0.08695652173912549
        },
        {
          "name": "E5",
          "midi": 76,
          "time": 34.99999999999902,
          "velocity": 0.2125984251968504,
          "duration": 0.0760869565217348
        },
        {
          "name": "A#5",
          "midi": 82,
          "time": 34.99999999999902,
          "velocity": 0.2125984251968504,
          "duration": 0.09782608695651618
        },
        {
          "name": "C#7",
          "midi": 97,
          "time": 34.99999999999902,
          "velocity": 0.25984251968503935,
          "duration": 0.0760869565217348
        },
        {
          "name": "C4",
          "midi": 60,
          "time": 35.01086956521641,
          "velocity": 0.07874015748031496,
          "duration": 0.05434782608695343
        },
        {
          "name": "G4",
          "midi": 67,
          "time": 35.0217391304338,
          "velocity": 0.18110236220472442,
          "duration": 0.06521739130434412
        },
        {
          "name": "F#7",
          "midi": 102,
          "time": 35.0217391304338,
          "velocity": 0.09448818897637795,
          "duration": 0.06521739130434412
        },
        {
          "name": "B6",
          "midi": 95,
          "time": 35.04347826086858,
          "velocity": 0.15748031496062992,
          "duration": 0.043478260869562746
        },
        {
          "name": "E7",
          "midi": 100,
          "time": 35.04347826086858,
          "velocity": 0.11811023622047244,
          "duration": 0.043478260869562746
        },
        {
          "name": "G6",
          "midi": 91,
          "time": 35.05434782608597,
          "velocity": 0.11023622047244094,
          "duration": 0.03260869565217206
        },
        {
          "name": "D#7",
          "midi": 99,
          "time": 35.05434782608597,
          "velocity": 0.09448818897637795,
          "duration": 0.03260869565217206
        },
        {
          "name": "A4",
          "midi": 69,
          "time": 35.30434782608597,
          "velocity": 0.2125984251968504,
          "duration": 0.09782608695651618
        },
        {
          "name": "D5",
          "midi": 74,
          "time": 35.30434782608597,
          "velocity": 0.2440944881889764,
          "duration": 0.09782608695651618
        },
        {
          "name": "C#7",
          "midi": 97,
          "time": 35.30434782608597,
          "velocity": 0.23622047244094488,
          "duration": 0.09782608695651618
        },
        {
          "name": "D7",
          "midi": 98,
          "time": 35.30434782608597,
          "velocity": 0.2283464566929134,
          "duration": 0.0760869565217348
        },
        {
          "name": "C6",
          "midi": 84,
          "time": 35.315217391303364,
          "velocity": 0.2677165354330709,
          "duration": 0.13043478260868824
        },
        {
          "name": "F7",
          "midi": 101,
          "time": 35.315217391303364,
          "velocity": 0.14960629921259844,
          "duration": 0.08695652173912549
        },
        {
          "name": "G7",
          "midi": 103,
          "time": 35.315217391303364,
          "velocity": 0.1889763779527559,
          "duration": 0.10869565217390686
        },
        {
          "name": "G#6",
          "midi": 92,
          "time": 35.336956521738145,
          "velocity": 0.1732283464566929,
          "duration": 0.043478260869562746
        },
        {
          "name": "A#6",
          "midi": 94,
          "time": 35.336956521738145,
          "velocity": 0.16535433070866143,
          "duration": 0.08695652173912549
        },
        {
          "name": "E6",
          "midi": 88,
          "time": 35.347826086955536,
          "velocity": 0.16535433070866143,
          "duration": 0.0760869565217348
        },
        {
          "name": "D#7",
          "midi": 99,
          "time": 35.347826086955536,
          "velocity": 0.13385826771653545,
          "duration": 0.06521739130434412
        },
        {
          "name": "E7",
          "midi": 100,
          "time": 35.347826086955536,
          "velocity": 0.2204724409448819,
          "duration": 0.0760869565217348
        },
        {
          "name": "D4",
          "midi": 62,
          "time": 35.358695652172926,
          "velocity": 0.07874015748031496,
          "duration": 0.05434782608695343
        },
        {
          "name": "F#5",
          "midi": 78,
          "time": 35.358695652172926,
          "velocity": 0.08661417322834646,
          "duration": 0.03260869565217206
        },
        {
          "name": "C#3",
          "midi": 49,
          "time": 35.46739130434683,
          "velocity": 0.5275590551181102,
          "duration": 0.010869565217390686
        },
        {
          "name": "A#2",
          "midi": 46,
          "time": 35.478260869564224,
          "velocity": 0.5511811023622047,
          "duration": 0.010869565217390686
        },
        {
          "name": "D#2",
          "midi": 39,
          "time": 35.489130434781615,
          "velocity": 0.5433070866141733,
          "duration": 0.010869565217390686
        },
        {
          "name": "A#1",
          "midi": 34,
          "time": 35.499999999999005,
          "velocity": 0.5354330708661418,
          "duration": 0.010869565217390686
        },
        {
          "name": "A1",
          "midi": 33,
          "time": 35.510869565216396,
          "velocity": 0.5354330708661418,
          "duration": 0.010869565217390686
        },
        {
          "name": "G#1",
          "midi": 32,
          "time": 35.52173913043379,
          "velocity": 0.5275590551181102,
          "duration": 0.010869565217390686
        },
        {
          "name": "F#1",
          "midi": 30,
          "time": 35.54347826086857,
          "velocity": 0.4881889763779528,
          "duration": 0.021739130434781373
        },
        {
          "name": "F1",
          "midi": 29,
          "time": 35.56521739130335,
          "velocity": 0.4566929133858268,
          "duration": 0.021739130434781373
        },
        {
          "name": "F1",
          "midi": 29,
          "time": 35.59782608695552,
          "velocity": 0.33858267716535434,
          "duration": 0.03260869565217206
        },
        {
          "name": "G#6",
          "midi": 92,
          "time": 35.60869565217291,
          "velocity": 0.2125984251968504,
          "duration": 0.08695652173912549
        },
        {
          "name": "A#3",
          "midi": 58,
          "time": 35.6195652173903,
          "velocity": 0.2283464566929134,
          "duration": 0.14130434782607892
        },
        {
          "name": "F4",
          "midi": 65,
          "time": 35.6195652173903,
          "velocity": 0.1968503937007874,
          "duration": 0.09782608695651618
        },
        {
          "name": "B4",
          "midi": 71,
          "time": 35.6195652173903,
          "velocity": 0.11023622047244094,
          "duration": 0.03260869565217206
        },
        {
          "name": "A#5",
          "midi": 82,
          "time": 35.6195652173903,
          "velocity": 0.1732283464566929,
          "duration": 0.08695652173912549
        },
        {
          "name": "F#6",
          "midi": 90,
          "time": 35.6195652173903,
          "velocity": 0.1968503937007874,
          "duration": 0.0760869565217348
        },
        {
          "name": "A6",
          "midi": 93,
          "time": 35.6195652173903,
          "velocity": 0.15748031496062992,
          "duration": 0.09782608695651618
        },
        {
          "name": "C7",
          "midi": 96,
          "time": 35.6195652173903,
          "velocity": 0.08661417322834646,
          "duration": 0.03260869565217206
        },
        {
          "name": "D#7",
          "midi": 99,
          "time": 35.6195652173903,
          "velocity": 0.15748031496062992,
          "duration": 0.1521739130434696
        },
        {
          "name": "F5",
          "midi": 77,
          "time": 35.63043478260769,
          "velocity": 0.25196850393700787,
          "duration": 0.14130434782607892
        },
        {
          "name": "B6",
          "midi": 95,
          "time": 35.63043478260769,
          "velocity": 0.16535433070866143,
          "duration": 0.11956521739129755
        },
        {
          "name": "E7",
          "midi": 100,
          "time": 35.63043478260769,
          "velocity": 0.11023622047244094,
          "duration": 0.06521739130434412
        },
        {
          "name": "D7",
          "midi": 98,
          "time": 35.641304347825084,
          "velocity": 0.1732283464566929,
          "duration": 0.13043478260868824
        },
        {
          "name": "G#5",
          "midi": 80,
          "time": 35.652173913042475,
          "velocity": 0.18110236220472442,
          "duration": 0.09782608695651618
        },
        {
          "name": "C#7",
          "midi": 97,
          "time": 35.652173913042475,
          "velocity": 0.15748031496062992,
          "duration": 0.10869565217390686
        },
        {
          "name": "D6",
          "midi": 86,
          "time": 35.673913043477256,
          "velocity": 0.2204724409448819,
          "duration": 0.09782608695651618
        },
        {
          "name": "A#6",
          "midi": 94,
          "time": 35.68478260869465,
          "velocity": 0.2047244094488189,
          "duration": 0.0760869565217348
        },
        {
          "name": "A#3",
          "midi": 58,
          "time": 35.91304347825986,
          "velocity": 0.23622047244094488,
          "duration": 0.08695652173912549
        },
        {
          "name": "F4",
          "midi": 65,
          "time": 35.91304347825986,
          "velocity": 0.2283464566929134,
          "duration": 0.05434782608695343
        },
        {
          "name": "G#5",
          "midi": 80,
          "time": 35.91304347825986,
          "velocity": 0.2047244094488189,
          "duration": 0.06521739130434412
        },
        {
          "name": "F6",
          "midi": 89,
          "time": 35.91304347825986,
          "velocity": 0.25196850393700787,
          "duration": 0.0760869565217348
        },
        {
          "name": "F#6",
          "midi": 90,
          "time": 35.91304347825986,
          "velocity": 0.23622047244094488,
          "duration": 0.0760869565217348
        },
        {
          "name": "F5",
          "midi": 77,
          "time": 35.92391304347725,
          "velocity": 0.23622047244094488,
          "duration": 0.06521739130434412
        },
        {
          "name": "A#6",
          "midi": 94,
          "time": 35.92391304347725,
          "velocity": 0.10236220472440945,
          "duration": 0.03260869565217206
        },
        {
          "name": "C7",
          "midi": 96,
          "time": 35.92391304347725,
          "velocity": 0.16535433070866143,
          "duration": 0.05434782608695343
        },
        {
          "name": "C#7",
          "midi": 97,
          "time": 35.92391304347725,
          "velocity": 0.1889763779527559,
          "duration": 0.05434782608695343
        },
        {
          "name": "D7",
          "midi": 98,
          "time": 35.93478260869464,
          "velocity": 0.08661417322834646,
          "duration": 0.03260869565217206
        },
        {
          "name": "D5",
          "midi": 74,
          "time": 35.94565217391203,
          "velocity": 0.14173228346456693,
          "duration": 0.043478260869562746
        },
        {
          "name": "G#5",
          "midi": 80,
          "time": 36.065217391303335,
          "velocity": 0.25196850393700787,
          "duration": 0.05434782608695343
        },
        {
          "name": "F6",
          "midi": 89,
          "time": 36.065217391303335,
          "velocity": 0.2677165354330709,
          "duration": 0.10869565217390686
        },
        {
          "name": "C7",
          "midi": 96,
          "time": 36.065217391303335,
          "velocity": 0.2125984251968504,
          "duration": 0.29347826086954854
        },
        {
          "name": "D7",
          "midi": 98,
          "time": 36.065217391303335,
          "velocity": 0.18110236220472442,
          "duration": 0.1521739130434696
        },
        {
          "name": "G7",
          "midi": 103,
          "time": 36.065217391303335,
          "velocity": 0.16535433070866143,
          "duration": 0.03260869565217206
        },
        {
          "name": "F5",
          "midi": 77,
          "time": 36.076086956520726,
          "velocity": 0.2992125984251969,
          "duration": 0.13043478260868824
        },
        {
          "name": "A5",
          "midi": 81,
          "time": 36.076086956520726,
          "velocity": 0.11811023622047244,
          "duration": 0.03260869565217206
        },
        {
          "name": "D6",
          "midi": 86,
          "time": 36.076086956520726,
          "velocity": 0.14960629921259844,
          "duration": 0.03260869565217206
        },
        {
          "name": "F#6",
          "midi": 90,
          "time": 36.076086956520726,
          "velocity": 0.07874015748031496,
          "duration": 0.03260869565217206
        },
        {
          "name": "G6",
          "midi": 91,
          "time": 36.076086956520726,
          "velocity": 0.14173228346456693,
          "duration": 0.043478260869562746
        },
        {
          "name": "A#6",
          "midi": 94,
          "time": 36.076086956520726,
          "velocity": 0.16535433070866143,
          "duration": 0.2608695652173765
        },
        {
          "name": "E7",
          "midi": 100,
          "time": 36.076086956520726,
          "velocity": 0.1732283464566929,
          "duration": 0.08695652173912549
        },
        {
          "name": "F#7",
          "midi": 102,
          "time": 36.076086956520726,
          "velocity": 0.07874015748031496,
          "duration": 0.03260869565217206
        },
        {
          "name": "A3",
          "midi": 57,
          "time": 36.08695652173812,
          "velocity": 0.5748031496062992,
          "duration": 0.05434782608695343
        },
        {
          "name": "E4",
          "midi": 64,
          "time": 36.08695652173812,
          "velocity": 0.23622047244094488,
          "duration": 0.021739130434781373
        },
        {
          "name": "C6",
          "midi": 84,
          "time": 36.08695652173812,
          "velocity": 0.11811023622047244,
          "duration": 0.05434782608695343
        },
        {
          "name": "C#7",
          "midi": 97,
          "time": 36.08695652173812,
          "velocity": 0.2283464566929134,
          "duration": 0.05434782608695343
        },
        {
          "name": "D5",
          "midi": 74,
          "time": 36.09782608695551,
          "velocity": 0.23622047244094488,
          "duration": 0.13043478260868824
        },
        {
          "name": "B6",
          "midi": 95,
          "time": 36.09782608695551,
          "velocity": 0.2204724409448819,
          "duration": 0.13043478260868824
        },
        {
          "name": "D#6",
          "midi": 87,
          "time": 36.1086956521729,
          "velocity": 0.14173228346456693,
          "duration": 0.03260869565217206
        },
        {
          "name": "F4",
          "midi": 65,
          "time": 36.13043478260768,
          "velocity": 0.18110236220472442,
          "duration": 0.08695652173912549
        },
        {
          "name": "E6",
          "midi": 88,
          "time": 36.13043478260768,
          "velocity": 0.1889763779527559,
          "duration": 0.03260869565217206
        },
        {
          "name": "G#5",
          "midi": 80,
          "time": 36.14130434782507,
          "velocity": 0.2125984251968504,
          "duration": 0.03260869565217206
        },
        {
          "name": "A#5",
          "midi": 82,
          "time": 36.14130434782507,
          "velocity": 0.2047244094488189,
          "duration": 0.08695652173912549
        },
        {
          "name": "C#6",
          "midi": 85,
          "time": 36.14130434782507,
          "velocity": 0.2204724409448819,
          "duration": 0.08695652173912549
        },
        {
          "name": "D6",
          "midi": 86,
          "time": 36.14130434782507,
          "velocity": 0.2440944881889764,
          "duration": 0.09782608695651618
        },
        {
          "name": "D#6",
          "midi": 87,
          "time": 36.15217391304246,
          "velocity": 0.2283464566929134,
          "duration": 0.05434782608695343
        },
        {
          "name": "F#6",
          "midi": 90,
          "time": 36.15217391304246,
          "velocity": 0.14960629921259844,
          "duration": 0.03260869565217206
        },
        {
          "name": "A#3",
          "midi": 58,
          "time": 36.19565217391202,
          "velocity": 0.10236220472440945,
          "duration": 0.03260869565217206
        },
        {
          "name": "G4",
          "midi": 67,
          "time": 36.217391304346805,
          "velocity": 0.1889763779527559,
          "duration": 0.13043478260868824
        },
        {
          "name": "G5",
          "midi": 79,
          "time": 36.217391304346805,
          "velocity": 0.30708661417322836,
          "duration": 0.08695652173912549
        },
        {
          "name": "D#6",
          "midi": 87,
          "time": 36.217391304346805,
          "velocity": 0.15748031496062992,
          "duration": 0.03260869565217206
        },
        {
          "name": "F#6",
          "midi": 90,
          "time": 36.217391304346805,
          "velocity": 0.30708661417322836,
          "duration": 0.06521739130434412
        },
        {
          "name": "C4",
          "midi": 60,
          "time": 36.228260869564195,
          "velocity": 0.1889763779527559,
          "duration": 0.09782608695651618
        },
        {
          "name": "C#7",
          "midi": 97,
          "time": 36.228260869564195,
          "velocity": 0.2283464566929134,
          "duration": 0.11956521739129755
        },
        {
          "name": "E5",
          "midi": 76,
          "time": 36.239130434781586,
          "velocity": 0.28346456692913385,
          "duration": 0.11956521739129755
        },
        {
          "name": "D7",
          "midi": 98,
          "time": 36.239130434781586,
          "velocity": 0.13385826771653545,
          "duration": 0.09782608695651618
        },
        {
          "name": "C6",
          "midi": 84,
          "time": 36.24999999999898,
          "velocity": 0.25984251968503935,
          "duration": 0.10869565217390686
        },
        {
          "name": "A#5",
          "midi": 82,
          "time": 36.26086956521637,
          "velocity": 0.1889763779527559,
          "duration": 0.06521739130434412
        },
        {
          "name": "G#6",
          "midi": 92,
          "time": 36.27173913043376,
          "velocity": 0.1732283464566929,
          "duration": 0.0760869565217348
        },
        {
          "name": "B6",
          "midi": 95,
          "time": 36.28260869565115,
          "velocity": 0.16535433070866143,
          "duration": 0.06521739130434412
        },
        {
          "name": "D6",
          "midi": 86,
          "time": 36.30434782608593,
          "velocity": 0.14173228346456693,
          "duration": 0.03260869565217206
        },
        {
          "name": "A5",
          "midi": 81,
          "time": 36.369565217390274,
          "velocity": 0.3543307086614173,
          "duration": 0.06521739130434412
        },
        {
          "name": "A4",
          "midi": 69,
          "time": 36.380434782607665,
          "velocity": 0.18110236220472442,
          "duration": 0.11956521739129755
        },
        {
          "name": "D5",
          "midi": 74,
          "time": 36.380434782607665,
          "velocity": 0.16535433070866143,
          "duration": 0.10869565217390686
        },
        {
          "name": "F#5",
          "midi": 78,
          "time": 36.380434782607665,
          "velocity": 0.2992125984251969,
          "duration": 0.13043478260868824
        },
        {
          "name": "B5",
          "midi": 83,
          "time": 36.380434782607665,
          "velocity": 0.15748031496062992,
          "duration": 0.03260869565217206
        },
        {
          "name": "A#6",
          "midi": 94,
          "time": 36.380434782607665,
          "velocity": 0.18110236220472442,
          "duration": 0.09782608695651618
        },
        {
          "name": "D7",
          "midi": 98,
          "time": 36.380434782607665,
          "velocity": 0.23622047244094488,
          "duration": 0.09782608695651618
        },
        {
          "name": "G#6",
          "midi": 92,
          "time": 36.391304347825056,
          "velocity": 0.25196850393700787,
          "duration": 0.06521739130434412
        },
        {
          "name": "C#7",
          "midi": 97,
          "time": 36.391304347825056,
          "velocity": 0.23622047244094488,
          "duration": 0.10869565217390686
        },
        {
          "name": "D#7",
          "midi": 99,
          "time": 36.391304347825056,
          "velocity": 0.14173228346456693,
          "duration": 0.08695652173912549
        },
        {
          "name": "G7",
          "midi": 103,
          "time": 36.391304347825056,
          "velocity": 0.09448818897637795,
          "duration": 0.03260869565217206
        },
        {
          "name": "E6",
          "midi": 88,
          "time": 36.402173913042446,
          "velocity": 0.29133858267716534,
          "duration": 0.13043478260868824
        },
        {
          "name": "F#7",
          "midi": 102,
          "time": 36.402173913042446,
          "velocity": 0.2992125984251969,
          "duration": 0.20652173913042304
        },
        {
          "name": "G#5",
          "midi": 80,
          "time": 36.42391304347723,
          "velocity": 0.36220472440944884,
          "duration": 0.0760869565217348
        },
        {
          "name": "C6",
          "midi": 84,
          "time": 36.43478260869462,
          "velocity": 0.10236220472440945,
          "duration": 0.03260869565217206
        },
        {
          "name": "D6",
          "midi": 86,
          "time": 36.43478260869462,
          "velocity": 0.2047244094488189,
          "duration": 0.05434782608695343
        },
        {
          "name": "A6",
          "midi": 93,
          "time": 36.43478260869462,
          "velocity": 0.18110236220472442,
          "duration": 0.05434782608695343
        },
        {
          "name": "C#6",
          "midi": 85,
          "time": 36.44565217391201,
          "velocity": 0.2125984251968504,
          "duration": 0.09782608695651618
        },
        {
          "name": "G6",
          "midi": 91,
          "time": 36.4565217391294,
          "velocity": 0.07086614173228346,
          "duration": 0.03260869565217206
        },
        {
          "name": "G#5",
          "midi": 80,
          "time": 36.56521739130331,
          "velocity": 0.18110236220472442,
          "duration": 0.09782608695651618
        },
        {
          "name": "F#5",
          "midi": 78,
          "time": 36.673913043477214,
          "velocity": 0.14960629921259844,
          "duration": 0.043478260869562746
        },
        {
          "name": "A#2",
          "midi": 46,
          "time": 36.695652173911995,
          "velocity": 0.5511811023622047,
          "duration": 0.010869565217390686
        },
        {
          "name": "D#4",
          "midi": 63,
          "time": 36.695652173911995,
          "velocity": 0.2125984251968504,
          "duration": 0.05434782608695343
        },
        {
          "name": "G2",
          "midi": 43,
          "time": 36.706521739129386,
          "velocity": 0.5354330708661418,
          "duration": 0.010869565217390686
        },
        {
          "name": "B5",
          "midi": 83,
          "time": 36.717391304346776,
          "velocity": 0.10236220472440945,
          "duration": 0.11956521739129755
        },
        {
          "name": "G#1",
          "midi": 32,
          "time": 36.72826086956417,
          "velocity": 0.5196850393700787,
          "duration": 0.010869565217390686
        },
        {
          "name": "B4",
          "midi": 71,
          "time": 36.72826086956417,
          "velocity": 0.11811023622047244,
          "duration": 0.03260869565217206
        },
        {
          "name": "A5",
          "midi": 81,
          "time": 36.72826086956417,
          "velocity": 0.1732283464566929,
          "duration": 0.06521739130434412
        },
        {
          "name": "A1",
          "midi": 33,
          "time": 36.73913043478156,
          "velocity": 0.5590551181102362,
          "duration": 0.010869565217390686
        },
        {
          "name": "G4",
          "midi": 67,
          "time": 36.73913043478156,
          "velocity": 0.18110236220472442,
          "duration": 0.043478260869562746
        },
        {
          "name": "G#1",
          "midi": 32,
          "time": 36.74999999999895,
          "velocity": 0.5669291338582677,
          "duration": 0.010869565217390686
        },
        {
          "name": "G5",
          "midi": 79,
          "time": 36.74999999999895,
          "velocity": 0.1968503937007874,
          "duration": 0.05434782608695343
        },
        {
          "name": "G1",
          "midi": 31,
          "time": 36.76086956521634,
          "velocity": 0.5590551181102362,
          "duration": 0.021739130434781373
        },
        {
          "name": "C#5",
          "midi": 73,
          "time": 36.76086956521634,
          "velocity": 0.18110236220472442,
          "duration": 0.03260869565217206
        },
        {
          "name": "F#1",
          "midi": 30,
          "time": 36.78260869565112,
          "velocity": 0.5118110236220472,
          "duration": 0.021739130434781373
        },
        {
          "name": "D3",
          "midi": 50,
          "time": 36.78260869565112,
          "velocity": 0.2992125984251969,
          "duration": 0.05434782608695343
        },
        {
          "name": "B4",
          "midi": 71,
          "time": 36.78260869565112,
          "velocity": 0.25196850393700787,
          "duration": 0.0760869565217348
        },
        {
          "name": "F5",
          "midi": 77,
          "time": 36.78260869565112,
          "velocity": 0.1732283464566929,
          "duration": 0.05434782608695343
        },
        {
          "name": "G4",
          "midi": 67,
          "time": 36.82608695652068,
          "velocity": 0.29133858267716534,
          "duration": 0.22826086956521152
        },
        {
          "name": "G1",
          "midi": 31,
          "time": 36.847826086955465,
          "velocity": 0.5354330708661418,
          "duration": 0.423913043478251
        },
        {
          "name": "D4",
          "midi": 62,
          "time": 36.847826086955465,
          "velocity": 0.23622047244094488,
          "duration": 0.20652173913043015
        },
        {
          "name": "B5",
          "midi": 83,
          "time": 36.869565217390246,
          "velocity": 0.14960629921259844,
          "duration": 0.09782608695652328
        },
        {
          "name": "B4",
          "midi": 71,
          "time": 36.89130434782503,
          "velocity": 0.18110236220472442,
          "duration": 0.13043478260869534
        },
        {
          "name": "F5",
          "midi": 77,
          "time": 36.90217391304242,
          "velocity": 0.14173228346456693,
          "duration": 0.0869565217391326
        },
        {
          "name": "F#5",
          "midi": 78,
          "time": 37.14130434782503,
          "velocity": 0.2755905511811024,
          "duration": 0.08695652173912549
        },
        {
          "name": "G6",
          "midi": 91,
          "time": 37.14130434782503,
          "velocity": 0.2283464566929134,
          "duration": 0.03260869565217206
        },
        {
          "name": "A4",
          "midi": 69,
          "time": 37.15217391304242,
          "velocity": 0.2204724409448819,
          "duration": 0.06521739130434412
        },
        {
          "name": "A5",
          "midi": 81,
          "time": 37.15217391304242,
          "velocity": 0.2755905511811024,
          "duration": 0.05434782608695343
        },
        {
          "name": "D#7",
          "midi": 99,
          "time": 37.15217391304242,
          "velocity": 0.2283464566929134,
          "duration": 0.10869565217390686
        },
        {
          "name": "C7",
          "midi": 96,
          "time": 37.16304347825981,
          "velocity": 0.11811023622047244,
          "duration": 0.05434782608695343
        },
        {
          "name": "D7",
          "midi": 98,
          "time": 37.16304347825981,
          "velocity": 0.13385826771653545,
          "duration": 0.06521739130434412
        },
        {
          "name": "E7",
          "midi": 100,
          "time": 37.16304347825981,
          "velocity": 0.23622047244094488,
          "duration": 0.36956521739128334
        },
        {
          "name": "C6",
          "midi": 84,
          "time": 37.1739130434772,
          "velocity": 0.1732283464566929,
          "duration": 0.03260869565217206
        },
        {
          "name": "G#6",
          "midi": 92,
          "time": 37.1739130434772,
          "velocity": 0.2204724409448819,
          "duration": 0.05434782608695343
        },
        {
          "name": "D6",
          "midi": 86,
          "time": 37.18478260869459,
          "velocity": 0.14173228346456693,
          "duration": 0.03260869565217206
        },
        {
          "name": "A#5",
          "midi": 82,
          "time": 37.20652173912937,
          "velocity": 0.30708661417322836,
          "duration": 0.09782608695651618
        },
        {
          "name": "A#4",
          "midi": 70,
          "time": 37.21739130434676,
          "velocity": 0.2204724409448819,
          "duration": 0.03260869565217206
        },
        {
          "name": "F7",
          "midi": 101,
          "time": 37.21739130434676,
          "velocity": 0.2283464566929134,
          "duration": 0.21739130434781373
        },
        {
          "name": "D#4",
          "midi": 63,
          "time": 37.22826086956415,
          "velocity": 0.10236220472440945,
          "duration": 0.06521739130434412
        },
        {
          "name": "G5",
          "midi": 79,
          "time": 37.22826086956415,
          "velocity": 0.2992125984251969,
          "duration": 0.08695652173912549
        },
        {
          "name": "C#7",
          "midi": 97,
          "time": 37.22826086956415,
          "velocity": 0.13385826771653545,
          "duration": 0.09782608695651618
        },
        {
          "name": "F#7",
          "midi": 102,
          "time": 37.23913043478154,
          "velocity": 0.07086614173228346,
          "duration": 0.043478260869562746
        },
        {
          "name": "C#6",
          "midi": 85,
          "time": 37.249999999998934,
          "velocity": 0.18110236220472442,
          "duration": 0.06521739130434412
        },
        {
          "name": "B6",
          "midi": 95,
          "time": 37.249999999998934,
          "velocity": 0.11811023622047244,
          "duration": 0.03260869565217206
        },
        {
          "name": "D#5",
          "midi": 75,
          "time": 37.260869565216325,
          "velocity": 0.11811023622047244,
          "duration": 0.03260869565217206
        },
        {
          "name": "D#6",
          "midi": 87,
          "time": 37.260869565216325,
          "velocity": 0.11811023622047244,
          "duration": 0.03260869565217206
        },
        {
          "name": "A#3",
          "midi": 58,
          "time": 37.30434782608589,
          "velocity": 0.5354330708661418,
          "duration": 0.010869565217390686
        },
        {
          "name": "F#4",
          "midi": 66,
          "time": 37.30434782608589,
          "velocity": 0.2283464566929134,
          "duration": 0.021739130434781373
        },
        {
          "name": "A4",
          "midi": 69,
          "time": 37.30434782608589,
          "velocity": 0.2047244094488189,
          "duration": 0.05434782608695343
        },
        {
          "name": "A5",
          "midi": 81,
          "time": 37.30434782608589,
          "velocity": 0.2440944881889764,
          "duration": 0.14130434782607892
        },
        {
          "name": "F6",
          "midi": 89,
          "time": 37.30434782608589,
          "velocity": 0.08661417322834646,
          "duration": 0.03260869565217206
        },
        {
          "name": "A3",
          "midi": 57,
          "time": 37.31521739130328,
          "velocity": 0.5984251968503937,
          "duration": 0.043478260869562746
        },
        {
          "name": "F#5",
          "midi": 78,
          "time": 37.31521739130328,
          "velocity": 0.2755905511811024,
          "duration": 0.14130434782607892
        },
        {
          "name": "G#6",
          "midi": 92,
          "time": 37.32608695652067,
          "velocity": 0.2677165354330709,
          "duration": 0.09782608695651618
        },
        {
          "name": "E6",
          "midi": 88,
          "time": 37.33695652173806,
          "velocity": 0.25984251968503935,
          "duration": 0.09782608695651618
        },
        {
          "name": "D#7",
          "midi": 99,
          "time": 37.33695652173806,
          "velocity": 0.11811023622047244,
          "duration": 0.08695652173912549
        },
        {
          "name": "C7",
          "midi": 96,
          "time": 37.34782608695545,
          "velocity": 0.11811023622047244,
          "duration": 0.0760869565217348
        },
        {
          "name": "C#7",
          "midi": 97,
          "time": 37.34782608695545,
          "velocity": 0.1968503937007874,
          "duration": 0.0760869565217348
        },
        {
          "name": "G7",
          "midi": 103,
          "time": 37.34782608695545,
          "velocity": 0.10236220472440945,
          "duration": 0.06521739130434412
        },
        {
          "name": "G#3",
          "midi": 56,
          "time": 37.35869565217284,
          "velocity": 0.47244094488188976,
          "duration": 0.05434782608695343
        },
        {
          "name": "B5",
          "midi": 83,
          "time": 37.35869565217284,
          "velocity": 0.14173228346456693,
          "duration": 0.03260869565217206
        },
        {
          "name": "A4",
          "midi": 69,
          "time": 37.36956521739023,
          "velocity": 0.14960629921259844,
          "duration": 0.05434782608695343
        },
        {
          "name": "D5",
          "midi": 74,
          "time": 37.36956521739023,
          "velocity": 0.15748031496062992,
          "duration": 0.0760869565217348
        },
        {
          "name": "C6",
          "midi": 84,
          "time": 37.39130434782501,
          "velocity": 0.13385826771653545,
          "duration": 0.03260869565217206
        },
        {
          "name": "A#6",
          "midi": 94,
          "time": 37.402173913042404,
          "velocity": 0.15748031496062992,
          "duration": 0.14130434782607892
        },
        {
          "name": "G6",
          "midi": 91,
          "time": 37.413043478259794,
          "velocity": 0.18110236220472442,
          "duration": 0.06521739130434412
        },
        {
          "name": "B3",
          "midi": 59,
          "time": 37.44565217391197,
          "velocity": 0.2283464566929134,
          "duration": 0.03260869565217206
        },
        {
          "name": "F#4",
          "midi": 66,
          "time": 37.44565217391197,
          "velocity": 0.1889763779527559,
          "duration": 0.03260869565217206
        },
        {
          "name": "G5",
          "midi": 79,
          "time": 37.44565217391197,
          "velocity": 0.28346456692913385,
          "duration": 0.11956521739129755
        },
        {
          "name": "A#5",
          "midi": 82,
          "time": 37.44565217391197,
          "velocity": 0.23622047244094488,
          "duration": 0.0760869565217348
        },
        {
          "name": "C7",
          "midi": 96,
          "time": 37.44565217391197,
          "velocity": 0.12598425196850394,
          "duration": 0.03260869565217206
        },
        {
          "name": "D#7",
          "midi": 99,
          "time": 37.45652173912936,
          "velocity": 0.15748031496062992,
          "duration": 0.0760869565217348
        },
        {
          "name": "C4",
          "midi": 60,
          "time": 37.47826086956414,
          "velocity": 0.2204724409448819,
          "duration": 0.05434782608695343
        },
        {
          "name": "G4",
          "midi": 67,
          "time": 37.47826086956414,
          "velocity": 0.15748031496062992,
          "duration": 0.043478260869562746
        },
        {
          "name": "C6",
          "midi": 84,
          "time": 37.47826086956414,
          "velocity": 0.16535433070866143,
          "duration": 0.043478260869562746
        },
        {
          "name": "E5",
          "midi": 76,
          "time": 37.48913043478153,
          "velocity": 0.16535433070866143,
          "duration": 0.043478260869562746
        },
        {
          "name": "D6",
          "midi": 86,
          "time": 37.48913043478153,
          "velocity": 0.12598425196850394,
          "duration": 0.05434782608695343
        },
        {
          "name": "A6",
          "midi": 93,
          "time": 37.48913043478153,
          "velocity": 0.1732283464566929,
          "duration": 0.05434782608695343
        },
        {
          "name": "B6",
          "midi": 95,
          "time": 37.48913043478153,
          "velocity": 0.15748031496062992,
          "duration": 0.043478260869562746
        },
        {
          "name": "A4",
          "midi": 69,
          "time": 37.74999999999891,
          "velocity": 0.1889763779527559,
          "duration": 0.043478260869562746
        },
        {
          "name": "D5",
          "midi": 74,
          "time": 37.74999999999891,
          "velocity": 0.2204724409448819,
          "duration": 0.11956521739129755
        },
        {
          "name": "C6",
          "midi": 84,
          "time": 37.74999999999891,
          "velocity": 0.25984251968503935,
          "duration": 0.1521739130434696
        },
        {
          "name": "C7",
          "midi": 96,
          "time": 37.74999999999891,
          "velocity": 0.2992125984251969,
          "duration": 0.14130434782607892
        },
        {
          "name": "C#7",
          "midi": 97,
          "time": 37.74999999999891,
          "velocity": 0.2204724409448819,
          "duration": 0.08695652173912549
        },
        {
          "name": "F#7",
          "midi": 102,
          "time": 37.74999999999891,
          "velocity": 0.2125984251968504,
          "duration": 0.10869565217390686
        },
        {
          "name": "G7",
          "midi": 103,
          "time": 37.74999999999891,
          "velocity": 0.2283464566929134,
          "duration": 0.10869565217390686
        },
        {
          "name": "A5",
          "midi": 81,
          "time": 37.760869565216304,
          "velocity": 0.25984251968503935,
          "duration": 0.1630434782608603
        },
        {
          "name": "B6",
          "midi": 95,
          "time": 37.760869565216304,
          "velocity": 0.16535433070866143,
          "duration": 0.05434782608695343
        },
        {
          "name": "E6",
          "midi": 88,
          "time": 37.782608695651085,
          "velocity": 0.12598425196850394,
          "duration": 0.0760869565217348
        },
        {
          "name": "D#7",
          "midi": 99,
          "time": 37.782608695651085,
          "velocity": 0.18110236220472442,
          "duration": 0.08695652173912549
        },
        {
          "name": "E7",
          "midi": 100,
          "time": 37.782608695651085,
          "velocity": 0.1732283464566929,
          "duration": 0.0760869565217348
        },
        {
          "name": "D4",
          "midi": 62,
          "time": 37.793478260868476,
          "velocity": 0.08661417322834646,
          "duration": 0.05434782608695343
        },
        {
          "name": "F#6",
          "midi": 90,
          "time": 37.793478260868476,
          "velocity": 0.1889763779527559,
          "duration": 0.0760869565217348
        },
        {
          "name": "A#6",
          "midi": 94,
          "time": 37.81521739130326,
          "velocity": 0.2283464566929134,
          "duration": 0.05434782608695343
        },
        {
          "name": "D3",
          "midi": 50,
          "time": 37.91304347825977,
          "velocity": 0.5118110236220472,
          "duration": 0.010869565217390686
        },
        {
          "name": "A#2",
          "midi": 46,
          "time": 37.923913043477164,
          "velocity": 0.5433070866141733,
          "duration": 0.010869565217390686
        },
        {
          "name": "D2",
          "midi": 38,
          "time": 37.934782608694555,
          "velocity": 0.5590551181102362,
          "duration": 0.010869565217390686
        },
        {
          "name": "A#1",
          "midi": 34,
          "time": 37.945652173911945,
          "velocity": 0.5354330708661418,
          "duration": 0.010869565217390686
        },
        {
          "name": "A1",
          "midi": 33,
          "time": 37.956521739129336,
          "velocity": 0.5354330708661418,
          "duration": 0.010869565217390686
        },
        {
          "name": "G#1",
          "midi": 32,
          "time": 37.96739130434673,
          "velocity": 0.5275590551181102,
          "duration": 0.010869565217390686
        },
        {
          "name": "G1",
          "midi": 31,
          "time": 37.97826086956412,
          "velocity": 0.5118110236220472,
          "duration": 0.010869565217390686
        },
        {
          "name": "F#1",
          "midi": 30,
          "time": 37.98913043478151,
          "velocity": 0.4881889763779528,
          "duration": 0.021739130434781373
        },
        {
          "name": "F#1",
          "midi": 30,
          "time": 38.02173913043368,
          "velocity": 0.4251968503937008,
          "duration": 0.021739130434781373
        },
        {
          "name": "F1",
          "midi": 29,
          "time": 38.04347826086846,
          "velocity": 0.33858267716535434,
          "duration": 0.03260869565217206
        },
        {
          "name": "B6",
          "midi": 95,
          "time": 38.05434782608585,
          "velocity": 0.2047244094488189,
          "duration": 0.10869565217390686
        },
        {
          "name": "F4",
          "midi": 65,
          "time": 38.06521739130324,
          "velocity": 0.2125984251968504,
          "duration": 0.14130434782607892
        },
        {
          "name": "A#4",
          "midi": 70,
          "time": 38.06521739130324,
          "velocity": 0.23622047244094488,
          "duration": 0.03260869565217206
        },
        {
          "name": "D5",
          "midi": 74,
          "time": 38.06521739130324,
          "velocity": 0.15748031496062992,
          "duration": 0.14130434782607892
        },
        {
          "name": "G#5",
          "midi": 80,
          "time": 38.06521739130324,
          "velocity": 0.25196850393700787,
          "duration": 0.1521739130434696
        },
        {
          "name": "A#5",
          "midi": 82,
          "time": 38.06521739130324,
          "velocity": 0.23622047244094488,
          "duration": 0.1521739130434696
        },
        {
          "name": "C6",
          "midi": 84,
          "time": 38.06521739130324,
          "velocity": 0.14960629921259844,
          "duration": 0.043478260869562746
        },
        {
          "name": "F7",
          "midi": 101,
          "time": 38.06521739130324,
          "velocity": 0.2047244094488189,
          "duration": 0.14130434782607892
        },
        {
          "name": "F#7",
          "midi": 102,
          "time": 38.06521739130324,
          "velocity": 0.14173228346456693,
          "duration": 0.14130434782607892
        },
        {
          "name": "C#7",
          "midi": 97,
          "time": 38.07608695652063,
          "velocity": 0.14960629921259844,
          "duration": 0.11956521739129755
        },
        {
          "name": "E7",
          "midi": 100,
          "time": 38.07608695652063,
          "velocity": 0.16535433070866143,
          "duration": 0.11956521739129755
        },
        {
          "name": "A6",
          "midi": 93,
          "time": 38.086956521738024,
          "velocity": 0.2204724409448819,
          "duration": 0.13043478260868824
        },
        {
          "name": "F6",
          "midi": 89,
          "time": 38.108695652172806,
          "velocity": 0.18110236220472442,
          "duration": 0.09782608695651618
        },
        {
          "name": "D7",
          "midi": 98,
          "time": 38.119565217390196,
          "velocity": 0.14960629921259844,
          "duration": 0.0760869565217348
        },
        {
          "name": "A#4",
          "midi": 70,
          "time": 38.14130434782498,
          "velocity": 0.11023622047244094,
          "duration": 0.043478260869562746
        },
        {
          "name": "G#5",
          "midi": 80,
          "time": 38.3586956521728,
          "velocity": 0.23622047244094488,
          "duration": 0.05434782608695343
        },
        {
          "name": "A#3",
          "midi": 58,
          "time": 38.36956521739019,
          "velocity": 0.2125984251968504,
          "duration": 0.043478260869562746
        },
        {
          "name": "F4",
          "midi": 65,
          "time": 38.36956521739019,
          "velocity": 0.2047244094488189,
          "duration": 0.03260869565217206
        },
        {
          "name": "D5",
          "midi": 74,
          "time": 38.36956521739019,
          "velocity": 0.1732283464566929,
          "duration": 0.05434782608695343
        },
        {
          "name": "A#5",
          "midi": 82,
          "time": 38.36956521739019,
          "velocity": 0.1968503937007874,
          "duration": 0.06521739130434412
        },
        {
          "name": "C6",
          "midi": 84,
          "time": 38.36956521739019,
          "velocity": 0.1732283464566929,
          "duration": 0.06521739130434412
        },
        {
          "name": "E6",
          "midi": 88,
          "time": 38.36956521739019,
          "velocity": 0.13385826771653545,
          "duration": 0.05434782608695343
        },
        {
          "name": "B6",
          "midi": 95,
          "time": 38.36956521739019,
          "velocity": 0.12598425196850394,
          "duration": 0.06521739130434412
        },
        {
          "name": "C7",
          "midi": 96,
          "time": 38.36956521739019,
          "velocity": 0.18110236220472442,
          "duration": 0.05434782608695343
        },
        {
          "name": "C#7",
          "midi": 97,
          "time": 38.36956521739019,
          "velocity": 0.1732283464566929,
          "duration": 0.05434782608695343
        },
        {
          "name": "F#7",
          "midi": 102,
          "time": 38.36956521739019,
          "velocity": 0.1732283464566929,
          "duration": 0.0760869565217348
        },
        {
          "name": "F5",
          "midi": 77,
          "time": 38.510869565216275,
          "velocity": 0.2204724409448819,
          "duration": 0.03260869565217206
        },
        {
          "name": "A#5",
          "midi": 82,
          "time": 38.510869565216275,
          "velocity": 0.2283464566929134,
          "duration": 0.29347826086954854
        },
        {
          "name": "A6",
          "midi": 93,
          "time": 38.510869565216275,
          "velocity": 0.2204724409448819,
          "duration": 0.0760869565217348
        },
        {
          "name": "C#7",
          "midi": 97,
          "time": 38.510869565216275,
          "velocity": 0.2283464566929134,
          "duration": 0.27173913043476716
        },
        {
          "name": "E7",
          "midi": 100,
          "time": 38.510869565216275,
          "velocity": 0.1968503937007874,
          "duration": 0.05434782608695343
        },
        {
          "name": "G7",
          "midi": 103,
          "time": 38.510869565216275,
          "velocity": 0.07874015748031496,
          "duration": 0.05434782608695343
        },
        {
          "name": "F#4",
          "midi": 66,
          "time": 38.521739130433666,
          "velocity": 0.3464566929133858,
          "duration": 0.021739130434781373
        },
        {
          "name": "D7",
          "midi": 98,
          "time": 38.521739130433666,
          "velocity": 0.14960629921259844,
          "duration": 0.0760869565217348
        },
        {
          "name": "D#7",
          "midi": 99,
          "time": 38.521739130433666,
          "velocity": 0.1889763779527559,
          "duration": 0.06521739130434412
        },
        {
          "name": "F7",
          "midi": 101,
          "time": 38.521739130433666,
          "velocity": 0.2677165354330709,
          "duration": 0.20652173913042304
        },
        {
          "name": "A#3",
          "midi": 58,
          "time": 38.53260869565106,
          "velocity": 0.5511811023622047,
          "duration": 0.010869565217390686
        },
        {
          "name": "G#5",
          "midi": 80,
          "time": 38.53260869565106,
          "velocity": 0.11811023622047244,
          "duration": 0.03260869565217206
        },
        {
          "name": "B6",
          "midi": 95,
          "time": 38.53260869565106,
          "velocity": 0.1732283464566929,
          "duration": 0.11956521739129755
        },
        {
          "name": "A3",
          "midi": 57,
          "time": 38.54347826086845,
          "velocity": 0.5669291338582677,
          "duration": 0.043478260869562746
        },
        {
          "name": "D5",
          "midi": 74,
          "time": 38.54347826086845,
          "velocity": 0.1889763779527559,
          "duration": 0.10869565217390686
        },
        {
          "name": "E5",
          "midi": 76,
          "time": 38.54347826086845,
          "velocity": 0.11811023622047244,
          "duration": 0.043478260869562746
        },
        {
          "name": "D6",
          "midi": 86,
          "time": 38.54347826086845,
          "velocity": 0.1968503937007874,
          "duration": 0.28260869565215785
        },
        {
          "name": "G#6",
          "midi": 92,
          "time": 38.54347826086845,
          "velocity": 0.1889763779527559,
          "duration": 0.043478260869562746
        },
        {
          "name": "F#7",
          "midi": 102,
          "time": 38.54347826086845,
          "velocity": 0.25196850393700787,
          "duration": 0.20652173913042304
        },
        {
          "name": "F#6",
          "midi": 90,
          "time": 38.55434782608584,
          "velocity": 0.2125984251968504,
          "duration": 0.08695652173912549
        },
        {
          "name": "F5",
          "midi": 77,
          "time": 38.56521739130323,
          "velocity": 0.14173228346456693,
          "duration": 0.08695652173912549
        },
        {
          "name": "C7",
          "midi": 96,
          "time": 38.56521739130323,
          "velocity": 0.23622047244094488,
          "duration": 0.11956521739129755
        },
        {
          "name": "C6",
          "midi": 84,
          "time": 38.57608695652062,
          "velocity": 0.1968503937007874,
          "duration": 0.08695652173912549
        },
        {
          "name": "E7",
          "midi": 100,
          "time": 38.57608695652062,
          "velocity": 0.08661417322834646,
          "duration": 0.043478260869562746
        },
        {
          "name": "C#3",
          "midi": 49,
          "time": 38.58695652173801,
          "velocity": 0.12598425196850394,
          "duration": 0.03260869565217206
        },
        {
          "name": "G#3",
          "midi": 56,
          "time": 38.58695652173801,
          "velocity": 0.4015748031496063,
          "duration": 0.05434782608695343
        },
        {
          "name": "F4",
          "midi": 65,
          "time": 38.58695652173801,
          "velocity": 0.13385826771653545,
          "duration": 0.06521739130434412
        },
        {
          "name": "G#5",
          "midi": 80,
          "time": 38.58695652173801,
          "velocity": 0.14173228346456693,
          "duration": 0.06521739130434412
        },
        {
          "name": "D#6",
          "midi": 87,
          "time": 38.58695652173801,
          "velocity": 0.07086614173228346,
          "duration": 0.03260869565217206
        },
        {
          "name": "A#4",
          "midi": 70,
          "time": 38.5978260869554,
          "velocity": 0.07874015748031496,
          "duration": 0.05434782608695343
        },
        {
          "name": "A6",
          "midi": 93,
          "time": 38.60869565217279,
          "velocity": 0.13385826771653545,
          "duration": 0.05434782608695343
        },
        {
          "name": "C3",
          "midi": 48,
          "time": 38.61956521739018,
          "velocity": 0.07086614173228346,
          "duration": 0.043478260869562746
        },
        {
          "name": "G7",
          "midi": 103,
          "time": 38.64130434782496,
          "velocity": 0.07874015748031496,
          "duration": 0.043478260869562746
        },
        {
          "name": "G5",
          "midi": 79,
          "time": 38.663043478259745,
          "velocity": 0.2440944881889764,
          "duration": 0.13043478260868824
        },
        {
          "name": "A2",
          "midi": 45,
          "time": 38.673913043477135,
          "velocity": 0.2283464566929134,
          "duration": 0.06521739130434412
        },
        {
          "name": "C4",
          "midi": 60,
          "time": 38.673913043477135,
          "velocity": 0.15748031496062992,
          "duration": 0.043478260869562746
        },
        {
          "name": "C6",
          "midi": 84,
          "time": 38.673913043477135,
          "velocity": 0.14960629921259844,
          "duration": 0.05434782608695343
        },
        {
          "name": "G#6",
          "midi": 92,
          "time": 38.673913043477135,
          "velocity": 0.09448818897637795,
          "duration": 0.03260869565217206
        },
        {
          "name": "E7",
          "midi": 100,
          "time": 38.673913043477135,
          "velocity": 0.2440944881889764,
          "duration": 0.2608695652173765
        },
        {
          "name": "G4",
          "midi": 67,
          "time": 38.684782608694526,
          "velocity": 0.14960629921259844,
          "duration": 0.10869565217390686
        },
        {
          "name": "B6",
          "midi": 95,
          "time": 38.684782608694526,
          "velocity": 0.16535433070866143,
          "duration": 0.06521739130434412
        },
        {
          "name": "E6",
          "midi": 88,
          "time": 38.69565217391192,
          "velocity": 0.25984251968503935,
          "duration": 0.11956521739129755
        },
        {
          "name": "E5",
          "midi": 76,
          "time": 38.70652173912931,
          "velocity": 0.15748031496062992,
          "duration": 0.043478260869562746
        },
        {
          "name": "D#7",
          "midi": 99,
          "time": 38.70652173912931,
          "velocity": 0.2283464566929134,
          "duration": 0.10869565217390686
        },
        {
          "name": "C4",
          "midi": 60,
          "time": 38.72826086956409,
          "velocity": 0.1968503937007874,
          "duration": 0.06521739130434412
        },
        {
          "name": "F#6",
          "midi": 90,
          "time": 38.72826086956409,
          "velocity": 0.07874015748031496,
          "duration": 0.043478260869562746
        },
        {
          "name": "G#2",
          "midi": 44,
          "time": 38.73913043478148,
          "velocity": 0.25196850393700787,
          "duration": 0.043478260869562746
        },
        {
          "name": "F7",
          "midi": 101,
          "time": 38.77173913043365,
          "velocity": 0.10236220472440945,
          "duration": 0.03260869565217206
        },
        {
          "name": "G2",
          "midi": 43,
          "time": 38.78260869565104,
          "velocity": 0.2440944881889764,
          "duration": 0.021739130434781373
        },
        {
          "name": "F#4",
          "midi": 66,
          "time": 38.815217391303214,
          "velocity": 0.18110236220472442,
          "duration": 0.03260869565217206
        },
        {
          "name": "G5",
          "midi": 79,
          "time": 38.815217391303214,
          "velocity": 0.16535433070866143,
          "duration": 0.03260869565217206
        },
        {
          "name": "B6",
          "midi": 95,
          "time": 38.815217391303214,
          "velocity": 0.11811023622047244,
          "duration": 0.03260869565217206
        },
        {
          "name": "G7",
          "midi": 103,
          "time": 38.815217391303214,
          "velocity": 0.23622047244094488,
          "duration": 0.1521739130434696
        },
        {
          "name": "E6",
          "midi": 88,
          "time": 38.826086956520605,
          "velocity": 0.15748031496062992,
          "duration": 0.05434782608695343
        },
        {
          "name": "A#6",
          "midi": 94,
          "time": 38.826086956520605,
          "velocity": 0.1889763779527559,
          "duration": 0.03260869565217206
        },
        {
          "name": "C#7",
          "midi": 97,
          "time": 38.826086956520605,
          "velocity": 0.14960629921259844,
          "duration": 0.03260869565217206
        },
        {
          "name": "F7",
          "midi": 101,
          "time": 38.826086956520605,
          "velocity": 0.12598425196850394,
          "duration": 0.10869565217390686
        },
        {
          "name": "C6",
          "midi": 84,
          "time": 38.836956521737996,
          "velocity": 0.1889763779527559,
          "duration": 0.043478260869562746
        },
        {
          "name": "D#2",
          "midi": 39,
          "time": 38.847826086955386,
          "velocity": 0.5275590551181102,
          "duration": 0.010869565217390686
        },
        {
          "name": "A5",
          "midi": 81,
          "time": 38.847826086955386,
          "velocity": 0.13385826771653545,
          "duration": 0.0760869565217348
        },
        {
          "name": "D6",
          "midi": 86,
          "time": 38.847826086955386,
          "velocity": 0.09448818897637795,
          "duration": 0.06521739130434412
        },
        {
          "name": "F#6",
          "midi": 90,
          "time": 38.847826086955386,
          "velocity": 0.23622047244094488,
          "duration": 0.09782608695651618
        },
        {
          "name": "G#6",
          "midi": 92,
          "time": 38.847826086955386,
          "velocity": 0.14960629921259844,
          "duration": 0.11956521739129755
        },
        {
          "name": "D#7",
          "midi": 99,
          "time": 38.847826086955386,
          "velocity": 0.2755905511811024,
          "duration": 0.10869565217390686
        },
        {
          "name": "C#2",
          "midi": 37,
          "time": 38.85869565217278,
          "velocity": 0.5354330708661418,
          "duration": 0.010869565217390686
        },
        {
          "name": "D5",
          "midi": 74,
          "time": 38.85869565217278,
          "velocity": 0.14173228346456693,
          "duration": 0.06521739130434412
        },
        {
          "name": "A1",
          "midi": 33,
          "time": 38.86956521739017,
          "velocity": 0.5354330708661418,
          "duration": 0.010869565217390686
        },
        {
          "name": "F#5",
          "midi": 78,
          "time": 38.86956521739017,
          "velocity": 0.13385826771653545,
          "duration": 0.05434782608695343
        },
        {
          "name": "G#1",
          "midi": 32,
          "time": 38.88043478260756,
          "velocity": 0.5275590551181102,
          "duration": 0.010869565217390686
        },
        {
          "name": "G1",
          "midi": 31,
          "time": 38.89130434782495,
          "velocity": 0.5196850393700787,
          "duration": 0.021739130434781373
        },
        {
          "name": "E6",
          "midi": 88,
          "time": 38.90217391304234,
          "velocity": 0.13385826771653545,
          "duration": 0.043478260869562746
        },
        {
          "name": "D7",
          "midi": 98,
          "time": 38.92391304347712,
          "velocity": 0.11811023622047244,
          "duration": 0.11956521739129755
        },
        {
          "name": "F#1",
          "midi": 30,
          "time": 38.93478260869451,
          "velocity": 0.4409448818897638,
          "duration": 0.03260869565217206
        },
        {
          "name": "D#6",
          "midi": 87,
          "time": 38.9456521739119,
          "velocity": 0.2047244094488189,
          "duration": 0.14130434782607892
        },
        {
          "name": "F6",
          "midi": 89,
          "time": 38.9456521739119,
          "velocity": 0.09448818897637795,
          "duration": 0.043478260869562746
        },
        {
          "name": "E7",
          "midi": 100,
          "time": 38.9456521739119,
          "velocity": 0.11023622047244094,
          "duration": 0.06521739130434412
        },
        {
          "name": "D#7",
          "midi": 99,
          "time": 38.967391304346684,
          "velocity": 0.2125984251968504,
          "duration": 0.09782608695651618
        },
        {
          "name": "C#2",
          "midi": 37,
          "time": 38.999999999998856,
          "velocity": 0.2047244094488189,
          "duration": 0.043478260869562746
        },
        {
          "name": "C2",
          "midi": 36,
          "time": 39.04347826086842,
          "velocity": 0.2440944881889764,
          "duration": 0.08695652173912549
        },
        {
          "name": "C#3",
          "midi": 49,
          "time": 39.119565217390154,
          "velocity": 0.4330708661417323,
          "duration": 0.021739130434781373
        },
        {
          "name": "A#2",
          "midi": 46,
          "time": 39.141304347824935,
          "velocity": 0.5433070866141733,
          "duration": 0.010869565217390686
        },
        {
          "name": "B4",
          "midi": 71,
          "time": 39.141304347824935,
          "velocity": 0.2677165354330709,
          "duration": 0.17391304347825098
        },
        {
          "name": "G2",
          "midi": 43,
          "time": 39.152173913042326,
          "velocity": 0.5433070866141733,
          "duration": 0.010869565217390686
        },
        {
          "name": "D2",
          "midi": 38,
          "time": 39.163043478259716,
          "velocity": 0.5669291338582677,
          "duration": 0.010869565217390686
        },
        {
          "name": "G5",
          "midi": 79,
          "time": 39.163043478259716,
          "velocity": 0.25984251968503935,
          "duration": 0.06521739130434412
        },
        {
          "name": "A5",
          "midi": 81,
          "time": 39.163043478259716,
          "velocity": 0.10236220472440945,
          "duration": 0.03260869565217206
        },
        {
          "name": "A1",
          "midi": 33,
          "time": 39.17391304347711,
          "velocity": 0.5511811023622047,
          "duration": 0.010869565217390686
        },
        {
          "name": "G4",
          "midi": 67,
          "time": 39.17391304347711,
          "velocity": 0.25196850393700787,
          "duration": 0.3260869565217348
        },
        {
          "name": "G#1",
          "midi": 32,
          "time": 39.1847826086945,
          "velocity": 0.5196850393700787,
          "duration": 0.010869565217390686
        },
        {
          "name": "G1",
          "midi": 31,
          "time": 39.19565217391189,
          "velocity": 0.5039370078740157,
          "duration": 0.021739130434781373
        },
        {
          "name": "D5",
          "midi": 74,
          "time": 39.19565217391189,
          "velocity": 0.25196850393700787,
          "duration": 0.10869565217390686
        },
        {
          "name": "G#6",
          "midi": 92,
          "time": 39.19565217391189,
          "velocity": 0.09448818897637795,
          "duration": 0.043478260869562746
        },
        {
          "name": "A5",
          "midi": 81,
          "time": 39.20652173912928,
          "velocity": 0.14173228346456693,
          "duration": 0.03260869565217206
        },
        {
          "name": "F#1",
          "midi": 30,
          "time": 39.21739130434667,
          "velocity": 0.5275590551181102,
          "duration": 0.06521739130434412
        },
        {
          "name": "F#6",
          "midi": 90,
          "time": 39.21739130434667,
          "velocity": 0.12598425196850394,
          "duration": 0.043478260869562746
        },
        {
          "name": "F5",
          "midi": 77,
          "time": 39.22826086956406,
          "velocity": 0.11811023622047244,
          "duration": 0.08695652173912549
        },
        {
          "name": "D4",
          "midi": 62,
          "time": 39.24999999999884,
          "velocity": 0.2440944881889764,
          "duration": 0.2608695652173907
        },
        {
          "name": "G1",
          "midi": 31,
          "time": 39.282608695651014,
          "velocity": 0.5275590551181102,
          "duration": 0.46739130434782084
        },
        {
          "name": "B4",
          "midi": 71,
          "time": 39.34782608695536,
          "velocity": 0.2047244094488189,
          "duration": 0.07608695652174191
        },
        {
          "name": "D5",
          "midi": 74,
          "time": 39.586956521737974,
          "velocity": 0.1732283464566929,
          "duration": 0.05434782608695343
        },
        {
          "name": "F#5",
          "midi": 78,
          "time": 39.597826086955365,
          "velocity": 0.23622047244094488,
          "duration": 0.06521739130434412
        },
        {
          "name": "E7",
          "midi": 100,
          "time": 39.597826086955365,
          "velocity": 0.1889763779527559,
          "duration": 0.2391304347825951
        },
        {
          "name": "F7",
          "midi": 101,
          "time": 39.597826086955365,
          "velocity": 0.23622047244094488,
          "duration": 0.20652173913042304
        },
        {
          "name": "D4",
          "midi": 62,
          "time": 39.608695652172756,
          "velocity": 0.09448818897637795,
          "duration": 0.06521739130434412
        },
        {
          "name": "D6",
          "midi": 86,
          "time": 39.608695652172756,
          "velocity": 0.23622047244094488,
          "duration": 0.06521739130434412
        },
        {
          "name": "D#7",
          "midi": 99,
          "time": 39.608695652172756,
          "velocity": 0.11023622047244094,
          "duration": 0.05434782608695343
        },
        {
          "name": "C6",
          "midi": 84,
          "time": 39.61956521739015,
          "velocity": 0.12598425196850394,
          "duration": 0.03260869565217206
        },
        {
          "name": "E6",
          "midi": 88,
          "time": 39.61956521739015,
          "velocity": 0.2125984251968504,
          "duration": 0.05434782608695343
        },
        {
          "name": "G#6",
          "midi": 92,
          "time": 39.61956521739015,
          "velocity": 0.11023622047244094,
          "duration": 0.03260869565217206
        },
        {
          "name": "G5",
          "midi": 79,
          "time": 39.66304347825971,
          "velocity": 0.2440944881889764,
          "duration": 0.09782608695651618
        },
        {
          "name": "C#6",
          "midi": 85,
          "time": 39.66304347825971,
          "velocity": 0.2283464566929134,
          "duration": 0.08695652173912549
        },
        {
          "name": "F#7",
          "midi": 102,
          "time": 39.66304347825971,
          "velocity": 0.1732283464566929,
          "duration": 0.14130434782607892
        },
        {
          "name": "D#4",
          "midi": 63,
          "time": 39.6739130434771,
          "velocity": 0.14173228346456693,
          "duration": 0.06521739130434412
        },
        {
          "name": "D#6",
          "midi": 87,
          "time": 39.6739130434771,
          "velocity": 0.2755905511811024,
          "duration": 0.08695652173912549
        },
        {
          "name": "F6",
          "midi": 89,
          "time": 39.6739130434771,
          "velocity": 0.1968503937007874,
          "duration": 0.0760869565217348
        },
        {
          "name": "A#6",
          "midi": 94,
          "time": 39.68478260869449,
          "velocity": 0.2204724409448819,
          "duration": 0.19565217391303236
        },
        {
          "name": "G4",
          "midi": 67,
          "time": 39.72826086956405,
          "velocity": 0.2992125984251969,
          "duration": 0.021739130434781373
        },
        {
          "name": "C5",
          "midi": 72,
          "time": 39.72826086956405,
          "velocity": 0.25984251968503935,
          "duration": 0.043478260869562746
        },
        {
          "name": "B6",
          "midi": 95,
          "time": 39.72826086956405,
          "velocity": 0.13385826771653545,
          "duration": 0.03260869565217206
        },
        {
          "name": "G7",
          "midi": 103,
          "time": 39.72826086956405,
          "velocity": 0.2125984251968504,
          "duration": 0.14130434782607892
        },
        {
          "name": "A3",
          "midi": 57,
          "time": 39.739130434781444,
          "velocity": 0.5905511811023622,
          "duration": 0.06521739130434412
        },
        {
          "name": "F5",
          "midi": 77,
          "time": 39.739130434781444,
          "velocity": 0.1732283464566929,
          "duration": 0.03260869565217206
        },
        {
          "name": "F#4",
          "midi": 66,
          "time": 39.749999999998835,
          "velocity": 0.2755905511811024,
          "duration": 0.021739130434781373
        },
        {
          "name": "E6",
          "midi": 88,
          "time": 39.749999999998835,
          "velocity": 0.15748031496062992,
          "duration": 0.09782608695651618
        },
        {
          "name": "D5",
          "midi": 74,
          "time": 39.760869565216225,
          "velocity": 0.1889763779527559,
          "duration": 0.10869565217390686
        },
        {
          "name": "D6",
          "midi": 86,
          "time": 39.760869565216225,
          "velocity": 0.2283464566929134,
          "duration": 0.18478260869564167
        },
        {
          "name": "C7",
          "midi": 96,
          "time": 39.78260869565101,
          "velocity": 0.08661417322834646,
          "duration": 0.05434782608695343
        },
        {
          "name": "C#7",
          "midi": 97,
          "time": 39.7934782608684,
          "velocity": 0.2440944881889764,
          "duration": 0.08695652173912549
        },
        {
          "name": "D7",
          "midi": 98,
          "time": 39.7934782608684,
          "velocity": 0.2283464566929134,
          "duration": 0.1630434782608603
        },
        {
          "name": "G#3",
          "midi": 56,
          "time": 39.80434782608579,
          "velocity": 0.4881889763779528,
          "duration": 0.043478260869562746
        },
        {
          "name": "C6",
          "midi": 84,
          "time": 39.80434782608579,
          "velocity": 0.1968503937007874,
          "duration": 0.06521739130434412
        },
        {
          "name": "D4",
          "midi": 62,
          "time": 39.81521739130318,
          "velocity": 0.11811023622047244,
          "duration": 0.05434782608695343
        },
        {
          "name": "F#7",
          "midi": 102,
          "time": 39.81521739130318,
          "velocity": 0.18110236220472442,
          "duration": 0.06521739130434412
        },
        {
          "name": "A6",
          "midi": 93,
          "time": 39.83695652173796,
          "velocity": 0.08661417322834646,
          "duration": 0.03260869565217206
        },
        {
          "name": "E7",
          "midi": 100,
          "time": 39.85869565217274,
          "velocity": 0.07086614173228346,
          "duration": 0.03260869565217206
        },
        {
          "name": "C5",
          "midi": 72,
          "time": 39.891304347824914,
          "velocity": 0.2125984251968504,
          "duration": 0.08695652173912549
        },
        {
          "name": "E5",
          "midi": 76,
          "time": 39.891304347824914,
          "velocity": 0.2283464566929134,
          "duration": 0.0760869565217348
        },
        {
          "name": "C#7",
          "midi": 97,
          "time": 39.891304347824914,
          "velocity": 0.23622047244094488,
          "duration": 0.08695652173912549
        },
        {
          "name": "G4",
          "midi": 67,
          "time": 39.913043478259695,
          "velocity": 0.2047244094488189,
          "duration": 0.06521739130434412
        },
        {
          "name": "F7",
          "midi": 101,
          "time": 39.913043478259695,
          "velocity": 0.10236220472440945,
          "duration": 0.043478260869562746
        },
        {
          "name": "A#5",
          "midi": 82,
          "time": 39.923913043477086,
          "velocity": 0.2125984251968504,
          "duration": 0.05434782608695343
        },
        {
          "name": "F#7",
          "midi": 102,
          "time": 39.923913043477086,
          "velocity": 0.11023622047244094,
          "duration": 0.05434782608695343
        },
        {
          "name": "B2",
          "midi": 47,
          "time": 39.934782608694476,
          "velocity": 0.07086614173228346,
          "duration": 0.03260869565217206
        },
        {
          "name": "B6",
          "midi": 95,
          "time": 39.934782608694476,
          "velocity": 0.18110236220472442,
          "duration": 0.043478260869562746
        },
        {
          "name": "A4",
          "midi": 69,
          "time": 40.19565217391187,
          "velocity": 0.18110236220472442,
          "duration": 0.09782608695651618
        },
        {
          "name": "D5",
          "midi": 74,
          "time": 40.19565217391187,
          "velocity": 0.2440944881889764,
          "duration": 0.09782608695651618
        },
        {
          "name": "D6",
          "midi": 86,
          "time": 40.19565217391187,
          "velocity": 0.25984251968503935,
          "duration": 0.10869565217390686
        },
        {
          "name": "C#7",
          "midi": 97,
          "time": 40.19565217391187,
          "velocity": 0.2125984251968504,
          "duration": 0.08695652173912549
        },
        {
          "name": "A5",
          "midi": 81,
          "time": 40.20652173912926,
          "velocity": 0.2283464566929134,
          "duration": 0.11956521739129755
        },
        {
          "name": "F7",
          "midi": 101,
          "time": 40.20652173912926,
          "velocity": 0.13385826771653545,
          "duration": 0.09782608695651618
        },
        {
          "name": "G7",
          "midi": 103,
          "time": 40.20652173912926,
          "velocity": 0.1968503937007874,
          "duration": 0.10869565217390686
        },
        {
          "name": "C6",
          "midi": 84,
          "time": 40.22826086956404,
          "velocity": 0.28346456692913385,
          "duration": 0.08695652173912549
        },
        {
          "name": "G#6",
          "midi": 92,
          "time": 40.22826086956404,
          "velocity": 0.2204724409448819,
          "duration": 0.0760869565217348
        },
        {
          "name": "A#6",
          "midi": 94,
          "time": 40.22826086956404,
          "velocity": 0.18110236220472442,
          "duration": 0.08695652173912549
        },
        {
          "name": "E6",
          "midi": 88,
          "time": 40.23913043478143,
          "velocity": 0.14960629921259844,
          "duration": 0.0760869565217348
        },
        {
          "name": "D#7",
          "midi": 99,
          "time": 40.23913043478143,
          "velocity": 0.12598425196850394,
          "duration": 0.0760869565217348
        },
        {
          "name": "E7",
          "midi": 100,
          "time": 40.23913043478143,
          "velocity": 0.2125984251968504,
          "duration": 0.0760869565217348
        },
        {
          "name": "D4",
          "midi": 62,
          "time": 40.24999999999882,
          "velocity": 0.07874015748031496,
          "duration": 0.05434782608695343
        },
        {
          "name": "D3",
          "midi": 50,
          "time": 40.35869565217273,
          "velocity": 0.5118110236220472,
          "duration": 0.010869565217390686
        },
        {
          "name": "A#2",
          "midi": 46,
          "time": 40.36956521739012,
          "velocity": 0.5433070866141733,
          "duration": 0.010869565217390686
        },
        {
          "name": "D2",
          "midi": 38,
          "time": 40.38043478260751,
          "velocity": 0.5511811023622047,
          "duration": 0.010869565217390686
        },
        {
          "name": "A#1",
          "midi": 34,
          "time": 40.3913043478249,
          "velocity": 0.5275590551181102,
          "duration": 0.010869565217390686
        },
        {
          "name": "A1",
          "midi": 33,
          "time": 40.40217391304229,
          "velocity": 0.5275590551181102,
          "duration": 0.010869565217390686
        },
        {
          "name": "G#1",
          "midi": 32,
          "time": 40.41304347825968,
          "velocity": 0.5196850393700787,
          "duration": 0.010869565217390686
        },
        {
          "name": "G1",
          "midi": 31,
          "time": 40.42391304347707,
          "velocity": 0.5118110236220472,
          "duration": 0.021739130434781373
        },
        {
          "name": "F#1",
          "midi": 30,
          "time": 40.467391304346634,
          "velocity": 0.4251968503937008,
          "duration": 0.021739130434781373
        },
        {
          "name": "F1",
          "midi": 29,
          "time": 40.489130434781416,
          "velocity": 0.3464566929133858,
          "duration": 0.03260869565217206
        },
        {
          "name": "G#5",
          "midi": 80,
          "time": 40.499999999998806,
          "velocity": 0.2204724409448819,
          "duration": 0.14130434782607892
        },
        {
          "name": "A#3",
          "midi": 58,
          "time": 40.5108695652162,
          "velocity": 0.2204724409448819,
          "duration": 0.14130434782607892
        },
        {
          "name": "F4",
          "midi": 65,
          "time": 40.5108695652162,
          "velocity": 0.1968503937007874,
          "duration": 0.09782608695651618
        },
        {
          "name": "A#5",
          "midi": 82,
          "time": 40.5108695652162,
          "velocity": 0.2125984251968504,
          "duration": 0.08695652173912549
        },
        {
          "name": "F#6",
          "midi": 90,
          "time": 40.5108695652162,
          "velocity": 0.2047244094488189,
          "duration": 0.03260869565217206
        },
        {
          "name": "A6",
          "midi": 93,
          "time": 40.5108695652162,
          "velocity": 0.1732283464566929,
          "duration": 0.09782608695651618
        },
        {
          "name": "D#7",
          "midi": 99,
          "time": 40.5108695652162,
          "velocity": 0.13385826771653545,
          "duration": 0.11956521739129755
        },
        {
          "name": "F5",
          "midi": 77,
          "time": 40.52173913043359,
          "velocity": 0.25984251968503935,
          "duration": 0.14130434782607892
        },
        {
          "name": "B6",
          "midi": 95,
          "time": 40.52173913043359,
          "velocity": 0.1889763779527559,
          "duration": 0.11956521739129755
        },
        {
          "name": "D7",
          "midi": 98,
          "time": 40.53260869565098,
          "velocity": 0.2047244094488189,
          "duration": 0.10869565217390686
        },
        {
          "name": "C#7",
          "midi": 97,
          "time": 40.54347826086837,
          "velocity": 0.1732283464566929,
          "duration": 0.10869565217390686
        },
        {
          "name": "E7",
          "midi": 100,
          "time": 40.54347826086837,
          "velocity": 0.07086614173228346,
          "duration": 0.043478260869562746
        },
        {
          "name": "D6",
          "midi": 86,
          "time": 40.55434782608576,
          "velocity": 0.23622047244094488,
          "duration": 0.10869565217390686
        },
        {
          "name": "A#6",
          "midi": 94,
          "time": 40.57608695652054,
          "velocity": 0.2125984251968504,
          "duration": 0.0760869565217348
        },
        {
          "name": "E7",
          "midi": 100,
          "time": 40.59782608695532,
          "velocity": 0.08661417322834646,
          "duration": 0.03260869565217206
        },
        {
          "name": "D5",
          "midi": 74,
          "time": 40.60869565217271,
          "velocity": 0.09448818897637795,
          "duration": 0.03260869565217206
        },
        {
          "name": "G6",
          "midi": 91,
          "time": 40.630434782607495,
          "velocity": 0.08661417322834646,
          "duration": 0.03260869565217206
        },
        {
          "name": "F4",
          "midi": 65,
          "time": 40.80434782608575,
          "velocity": 0.2125984251968504,
          "duration": 0.05434782608695343
        },
        {
          "name": "G#5",
          "midi": 80,
          "time": 40.80434782608575,
          "velocity": 0.1968503937007874,
          "duration": 0.06521739130434412
        },
        {
          "name": "A#3",
          "midi": 58,
          "time": 40.81521739130314,
          "velocity": 0.2283464566929134,
          "duration": 0.0760869565217348
        },
        {
          "name": "F5",
          "midi": 77,
          "time": 40.81521739130314,
          "velocity": 0.2204724409448819,
          "duration": 0.0760869565217348
        },
        {
          "name": "F6",
          "midi": 89,
          "time": 40.81521739130314,
          "velocity": 0.25196850393700787,
          "duration": 0.0760869565217348
        },
        {
          "name": "F#6",
          "midi": 90,
          "time": 40.81521739130314,
          "velocity": 0.2283464566929134,
          "duration": 0.06521739130434412
        },
        {
          "name": "A#6",
          "midi": 94,
          "time": 40.81521739130314,
          "velocity": 0.11023622047244094,
          "duration": 0.03260869565217206
        },
        {
          "name": "C7",
          "midi": 96,
          "time": 40.81521739130314,
          "velocity": 0.14173228346456693,
          "duration": 0.05434782608695343
        },
        {
          "name": "C#7",
          "midi": 97,
          "time": 40.81521739130314,
          "velocity": 0.14960629921259844,
          "duration": 0.05434782608695343
        },
        {
          "name": "D7",
          "midi": 98,
          "time": 40.826086956520534,
          "velocity": 0.08661417322834646,
          "duration": 0.03260869565217206
        },
        {
          "name": "D5",
          "midi": 74,
          "time": 40.836956521737925,
          "velocity": 0.14173228346456693,
          "duration": 0.043478260869562746
        },
        {
          "name": "G4",
          "midi": 67,
          "time": 40.95652173912923,
          "velocity": 0.2677165354330709,
          "duration": 0.03260869565217206
        },
        {
          "name": "F5",
          "midi": 77,
          "time": 40.95652173912923,
          "velocity": 0.2992125984251969,
          "duration": 0.14130434782607892
        },
        {
          "name": "G#5",
          "midi": 80,
          "time": 40.95652173912923,
          "velocity": 0.1968503937007874,
          "duration": 0.03260869565217206
        },
        {
          "name": "B5",
          "midi": 83,
          "time": 40.95652173912923,
          "velocity": 0.13385826771653545,
          "duration": 0.03260869565217206
        },
        {
          "name": "C7",
          "midi": 96,
          "time": 40.95652173912923,
          "velocity": 0.1732283464566929,
          "duration": 0.043478260869562746
        },
        {
          "name": "E7",
          "midi": 100,
          "time": 40.95652173912923,
          "velocity": 0.1732283464566929,
          "duration": 0.13043478260868824
        },
        {
          "name": "D6",
          "midi": 86,
          "time": 40.96739130434662,
          "velocity": 0.10236220472440945,
          "duration": 0.03260869565217206
        },
        {
          "name": "F#7",
          "midi": 102,
          "time": 40.96739130434662,
          "velocity": 0.10236220472440945,
          "duration": 0.03260869565217206
        },
        {
          "name": "A3",
          "midi": 57,
          "time": 40.97826086956401,
          "velocity": 0.5748031496062992,
          "duration": 0.043478260869562746
        },
        {
          "name": "C#7",
          "midi": 97,
          "time": 40.97826086956401,
          "velocity": 0.25196850393700787,
          "duration": 0.11956521739129755
        },
        {
          "name": "D5",
          "midi": 74,
          "time": 40.9891304347814,
          "velocity": 0.23622047244094488,
          "duration": 0.13043478260868824
        },
        {
          "name": "D7",
          "midi": 98,
          "time": 40.9891304347814,
          "velocity": 0.1732283464566929,
          "duration": 0.10869565217390686
        },
        {
          "name": "D#6",
          "midi": 87,
          "time": 40.99999999999879,
          "velocity": 0.1889763779527559,
          "duration": 0.03260869565217206
        },
        {
          "name": "B6",
          "midi": 95,
          "time": 40.99999999999879,
          "velocity": 0.2047244094488189,
          "duration": 0.2391304347825951
        },
        {
          "name": "A6",
          "midi": 93,
          "time": 41.01086956521618,
          "velocity": 0.10236220472440945,
          "duration": 0.03260869565217206
        },
        {
          "name": "A#6",
          "midi": 94,
          "time": 41.01086956521618,
          "velocity": 0.13385826771653545,
          "duration": 0.13043478260868824
        },
        {
          "name": "G#3",
          "midi": 56,
          "time": 41.02173913043357,
          "velocity": 0.5039370078740157,
          "duration": 0.021739130434781373
        },
        {
          "name": "G#5",
          "midi": 80,
          "time": 41.02173913043357,
          "velocity": 0.1732283464566929,
          "duration": 0.043478260869562746
        },
        {
          "name": "C7",
          "midi": 96,
          "time": 41.02173913043357,
          "velocity": 0.2047244094488189,
          "duration": 0.22826086956520442
        },
        {
          "name": "F4",
          "midi": 65,
          "time": 41.032608695650964,
          "velocity": 0.14960629921259844,
          "duration": 0.0760869565217348
        },
        {
          "name": "F#6",
          "midi": 90,
          "time": 41.032608695650964,
          "velocity": 0.14960629921259844,
          "duration": 0.043478260869562746
        },
        {
          "name": "A#5",
          "midi": 82,
          "time": 41.043478260868355,
          "velocity": 0.18110236220472442,
          "duration": 0.0760869565217348
        },
        {
          "name": "E6",
          "midi": 88,
          "time": 41.065217391303136,
          "velocity": 0.2204724409448819,
          "duration": 0.043478260869562746
        },
        {
          "name": "G5",
          "midi": 79,
          "time": 41.1086956521727,
          "velocity": 0.31496062992125984,
          "duration": 0.09782608695651618
        },
        {
          "name": "F6",
          "midi": 89,
          "time": 41.1086956521727,
          "velocity": 0.2677165354330709,
          "duration": 0.03260869565217206
        },
        {
          "name": "G4",
          "midi": 67,
          "time": 41.11956521739009,
          "velocity": 0.16535433070866143,
          "duration": 0.11956521739129755
        },
        {
          "name": "C#7",
          "midi": 97,
          "time": 41.11956521739009,
          "velocity": 0.2204724409448819,
          "duration": 0.13043478260868824
        },
        {
          "name": "C4",
          "midi": 60,
          "time": 41.13043478260748,
          "velocity": 0.18110236220472442,
          "duration": 0.08695652173912549
        },
        {
          "name": "E5",
          "midi": 76,
          "time": 41.13043478260748,
          "velocity": 0.2755905511811024,
          "duration": 0.1630434782608603
        },
        {
          "name": "F#6",
          "midi": 90,
          "time": 41.13043478260748,
          "velocity": 0.29133858267716534,
          "duration": 0.043478260869562746
        },
        {
          "name": "D7",
          "midi": 98,
          "time": 41.13043478260748,
          "velocity": 0.14173228346456693,
          "duration": 0.09782608695651618
        },
        {
          "name": "E7",
          "midi": 100,
          "time": 41.13043478260748,
          "velocity": 0.10236220472440945,
          "duration": 0.05434782608695343
        },
        {
          "name": "A#5",
          "midi": 82,
          "time": 41.15217391304226,
          "velocity": 0.1968503937007874,
          "duration": 0.06521739130434412
        },
        {
          "name": "G#6",
          "midi": 92,
          "time": 41.15217391304226,
          "velocity": 0.1968503937007874,
          "duration": 0.08695652173912549
        },
        {
          "name": "C6",
          "midi": 84,
          "time": 41.16304347825965,
          "velocity": 0.2677165354330709,
          "duration": 0.08695652173912549
        },
        {
          "name": "F#6",
          "midi": 90,
          "time": 41.184782608694434,
          "velocity": 0.16535433070866143,
          "duration": 0.03260869565217206
        },
        {
          "name": "D6",
          "midi": 86,
          "time": 41.195652173911824,
          "velocity": 0.11023622047244094,
          "duration": 0.03260869565217206
        },
        {
          "name": "A4",
          "midi": 69,
          "time": 41.26086956521617,
          "velocity": 0.1968503937007874,
          "duration": 0.11956521739129755
        },
        {
          "name": "A5",
          "midi": 81,
          "time": 41.26086956521617,
          "velocity": 0.3700787401574803,
          "duration": 0.06521739130434412
        },
        {
          "name": "D5",
          "midi": 74,
          "time": 41.27173913043356,
          "velocity": 0.1889763779527559,
          "duration": 0.10869565217390686
        },
        {
          "name": "F#5",
          "midi": 78,
          "time": 41.27173913043356,
          "velocity": 0.29133858267716534,
          "duration": 0.13043478260868824
        },
        {
          "name": "B5",
          "midi": 83,
          "time": 41.27173913043356,
          "velocity": 0.16535433070866143,
          "duration": 0.03260869565217206
        },
        {
          "name": "A#6",
          "midi": 94,
          "time": 41.27173913043356,
          "velocity": 0.14960629921259844,
          "duration": 0.08695652173912549
        },
        {
          "name": "C#7",
          "midi": 97,
          "time": 41.27173913043356,
          "velocity": 0.25984251968503935,
          "duration": 0.11956521739129755
        },
        {
          "name": "D7",
          "midi": 98,
          "time": 41.27173913043356,
          "velocity": 0.23622047244094488,
          "duration": 0.08695652173912549
        },
        {
          "name": "G#6",
          "midi": 92,
          "time": 41.28260869565095,
          "velocity": 0.25984251968503935,
          "duration": 0.20652173913042304
        },
        {
          "name": "D#7",
          "midi": 99,
          "time": 41.28260869565095,
          "velocity": 0.14960629921259844,
          "duration": 0.09782608695651618
        },
        {
          "name": "E6",
          "midi": 88,
          "time": 41.29347826086834,
          "velocity": 0.30708661417322836,
          "duration": 0.14130434782607892
        },
        {
          "name": "F#7",
          "midi": 102,
          "time": 41.29347826086834,
          "velocity": 0.2755905511811024,
          "duration": 0.17391304347825098
        },
        {
          "name": "G#5",
          "midi": 80,
          "time": 41.31521739130312,
          "velocity": 0.36220472440944884,
          "duration": 0.05434782608695343
        },
        {
          "name": "D6",
          "midi": 86,
          "time": 41.31521739130312,
          "velocity": 0.23622047244094488,
          "duration": 0.06521739130434412
        },
        {
          "name": "A6",
          "midi": 93,
          "time": 41.32608695652051,
          "velocity": 0.15748031496062992,
          "duration": 0.05434782608695343
        },
        {
          "name": "C#6",
          "midi": 85,
          "time": 41.3369565217379,
          "velocity": 0.1968503937007874,
          "duration": 0.05434782608695343
        },
        {
          "name": "C#6",
          "midi": 85,
          "time": 41.40217391304225,
          "velocity": 0.08661417322834646,
          "duration": 0.05434782608695343
        },
        {
          "name": "A5",
          "midi": 81,
          "time": 41.42391304347703,
          "velocity": 0.13385826771653545,
          "duration": 0.03260869565217206
        },
        {
          "name": "G#5",
          "midi": 80,
          "time": 41.4565217391292,
          "velocity": 0.1968503937007874,
          "duration": 0.11956521739130466
        },
        {
          "name": "C5",
          "midi": 72,
          "time": 41.565217391303115,
          "velocity": 0.15748031496062992,
          "duration": 0.043478260869562746
        },
        {
          "name": "F#1",
          "midi": 30,
          "time": 41.576086956520506,
          "velocity": 0.44881889763779526,
          "duration": 0.021739130434781373
        },
        {
          "name": "A#2",
          "midi": 46,
          "time": 41.576086956520506,
          "velocity": 0.5433070866141733,
          "duration": 0.021739130434781373
        },
        {
          "name": "G#2",
          "midi": 44,
          "time": 41.59782608695529,
          "velocity": 0.5118110236220472,
          "duration": 0.010869565217390686
        },
        {
          "name": "B4",
          "midi": 71,
          "time": 41.60869565217268,
          "velocity": 0.11811023622047244,
          "duration": 0.043478260869562746
        },
        {
          "name": "A5",
          "midi": 81,
          "time": 41.60869565217268,
          "velocity": 0.11811023622047244,
          "duration": 0.03260869565217206
        },
        {
          "name": "C#2",
          "midi": 37,
          "time": 41.61956521739007,
          "velocity": 0.5433070866141733,
          "duration": 0.010869565217390686
        },
        {
          "name": "F5",
          "midi": 77,
          "time": 41.61956521739007,
          "velocity": 0.15748031496062992,
          "duration": 0.03260869565217206
        },
        {
          "name": "B5",
          "midi": 83,
          "time": 41.61956521739007,
          "velocity": 0.15748031496062992,
          "duration": 0.08695652173912549
        },
        {
          "name": "G#1",
          "midi": 32,
          "time": 41.63043478260746,
          "velocity": 0.5748031496062992,
          "duration": 0.010869565217390686
        },
        {
          "name": "G4",
          "midi": 67,
          "time": 41.63043478260746,
          "velocity": 0.2204724409448819,
          "duration": 0.05434782608695343
        },
        {
          "name": "G5",
          "midi": 79,
          "time": 41.63043478260746,
          "velocity": 0.2440944881889764,
          "duration": 0.05434782608695343
        },
        {
          "name": "G1",
          "midi": 31,
          "time": 41.64130434782485,
          "velocity": 0.5669291338582677,
          "duration": 0.03260869565217206
        },
        {
          "name": "E5",
          "midi": 76,
          "time": 41.65217391304224,
          "velocity": 0.15748031496062992,
          "duration": 0.03260869565217206
        },
        {
          "name": "D5",
          "midi": 74,
          "time": 41.66304347825963,
          "velocity": 0.2755905511811024,
          "duration": 0.0760869565217348
        },
        {
          "name": "F#6",
          "midi": 90,
          "time": 41.66304347825963,
          "velocity": 0.14173228346456693,
          "duration": 0.043478260869562746
        },
        {
          "name": "F#1",
          "midi": 30,
          "time": 41.67391304347702,
          "velocity": 0.5275590551181102,
          "duration": 0.021739130434781373
        },
        {
          "name": "B4",
          "midi": 71,
          "time": 41.67391304347702,
          "velocity": 0.29133858267716534,
          "duration": 0.09782608695651618
        },
        {
          "name": "F5",
          "midi": 77,
          "time": 41.68478260869441,
          "velocity": 0.14173228346456693,
          "duration": 0.06521739130434412
        },
        {
          "name": "G4",
          "midi": 67,
          "time": 41.6956521739118,
          "velocity": 0.2283464566929134,
          "duration": 0.2499999999999929
        },
        {
          "name": "D4",
          "midi": 62,
          "time": 41.717391304346584,
          "velocity": 0.2677165354330709,
          "duration": 0.2391304347826022
        },
        {
          "name": "G1",
          "midi": 31,
          "time": 41.739130434781366,
          "velocity": 0.5196850393700787,
          "duration": 0.44565217391302525
        },
        {
          "name": "B4",
          "midi": 71,
          "time": 41.79347826086832,
          "velocity": 0.2047244094488189,
          "duration": 0.05434782608695343
        },
        {
          "name": "B4",
          "midi": 71,
          "time": 41.945652173911796,
          "velocity": 0.10236220472440945,
          "duration": 0.043478260869562746
        },
        {
          "name": "F#5",
          "midi": 78,
          "time": 42.03260869565092,
          "velocity": 0.2755905511811024,
          "duration": 0.08695652173912549
        },
        {
          "name": "G6",
          "midi": 91,
          "time": 42.03260869565092,
          "velocity": 0.23622047244094488,
          "duration": 0.03260869565217206
        },
        {
          "name": "A4",
          "midi": 69,
          "time": 42.04347826086831,
          "velocity": 0.2283464566929134,
          "duration": 0.06521739130434412
        },
        {
          "name": "A6",
          "midi": 93,
          "time": 42.04347826086831,
          "velocity": 0.2204724409448819,
          "duration": 0.06521739130434412
        },
        {
          "name": "C7",
          "midi": 96,
          "time": 42.04347826086831,
          "velocity": 0.07874015748031496,
          "duration": 0.06521739130434412
        },
        {
          "name": "D#7",
          "midi": 99,
          "time": 42.04347826086831,
          "velocity": 0.2047244094488189,
          "duration": 0.11956521739129755
        },
        {
          "name": "A5",
          "midi": 81,
          "time": 42.0543478260857,
          "velocity": 0.25984251968503935,
          "duration": 0.05434782608695343
        },
        {
          "name": "D7",
          "midi": 98,
          "time": 42.0543478260857,
          "velocity": 0.14173228346456693,
          "duration": 0.06521739130434412
        },
        {
          "name": "E7",
          "midi": 100,
          "time": 42.0543478260857,
          "velocity": 0.2125984251968504,
          "duration": 0.36956521739128334
        },
        {
          "name": "D4",
          "midi": 62,
          "time": 42.065217391303094,
          "velocity": 0.07086614173228346,
          "duration": 0.05434782608695343
        },
        {
          "name": "G#6",
          "midi": 92,
          "time": 42.065217391303094,
          "velocity": 0.2283464566929134,
          "duration": 0.05434782608695343
        },
        {
          "name": "B5",
          "midi": 83,
          "time": 42.076086956520484,
          "velocity": 0.1732283464566929,
          "duration": 0.03260869565217206
        },
        {
          "name": "F7",
          "midi": 101,
          "time": 42.097826086955266,
          "velocity": 0.2204724409448819,
          "duration": 0.22826086956520442
        },
        {
          "name": "A#4",
          "midi": 70,
          "time": 42.108695652172656,
          "velocity": 0.2047244094488189,
          "duration": 0.03260869565217206
        },
        {
          "name": "A#5",
          "midi": 82,
          "time": 42.108695652172656,
          "velocity": 0.30708661417322836,
          "duration": 0.0760869565217348
        },
        {
          "name": "D#4",
          "midi": 63,
          "time": 42.11956521739005,
          "velocity": 0.12598425196850394,
          "duration": 0.05434782608695343
        },
        {
          "name": "G5",
          "midi": 79,
          "time": 42.11956521739005,
          "velocity": 0.30708661417322836,
          "duration": 0.05434782608695343
        },
        {
          "name": "A6",
          "midi": 93,
          "time": 42.11956521739005,
          "velocity": 0.2047244094488189,
          "duration": 0.27173913043476716
        },
        {
          "name": "C#6",
          "midi": 85,
          "time": 42.13043478260744,
          "velocity": 0.18110236220472442,
          "duration": 0.0760869565217348
        },
        {
          "name": "F#7",
          "midi": 102,
          "time": 42.13043478260744,
          "velocity": 0.10236220472440945,
          "duration": 0.09782608695651618
        },
        {
          "name": "B6",
          "midi": 95,
          "time": 42.14130434782483,
          "velocity": 0.12598425196850394,
          "duration": 0.06521739130434412
        },
        {
          "name": "D#6",
          "midi": 87,
          "time": 42.15217391304222,
          "velocity": 0.11811023622047244,
          "duration": 0.03260869565217206
        },
        {
          "name": "F6",
          "midi": 89,
          "time": 42.16304347825961,
          "velocity": 0.1732283464566929,
          "duration": 0.043478260869562746
        },
        {
          "name": "A4",
          "midi": 69,
          "time": 42.173913043477,
          "velocity": 0.2755905511811024,
          "duration": 0.03260869565217206
        },
        {
          "name": "G#6",
          "midi": 92,
          "time": 42.173913043477,
          "velocity": 0.2992125984251969,
          "duration": 0.17391304347825098
        },
        {
          "name": "C7",
          "midi": 96,
          "time": 42.173913043477,
          "velocity": 0.1732283464566929,
          "duration": 0.13043478260868824
        },
        {
          "name": "G7",
          "midi": 103,
          "time": 42.173913043477,
          "velocity": 0.15748031496062992,
          "duration": 0.03260869565217206
        },
        {
          "name": "A#3",
          "midi": 58,
          "time": 42.18478260869439,
          "velocity": 0.5433070866141733,
          "duration": 0.021739130434781373
        },
        {
          "name": "E6",
          "midi": 88,
          "time": 42.18478260869439,
          "velocity": 0.2755905511811024,
          "duration": 0.14130434782607892
        },
        {
          "name": "D#7",
          "midi": 99,
          "time": 42.18478260869439,
          "velocity": 0.15748031496062992,
          "duration": 0.11956521739129755
        },
        {
          "name": "F#4",
          "midi": 66,
          "time": 42.19565217391178,
          "velocity": 0.2677165354330709,
          "duration": 0.021739130434781373
        },
        {
          "name": "C#5",
          "midi": 73,
          "time": 42.19565217391178,
          "velocity": 0.2283464566929134,
          "duration": 0.021739130434781373
        },
        {
          "name": "A3",
          "midi": 57,
          "time": 42.20652173912917,
          "velocity": 0.5905511811023622,
          "duration": 0.043478260869562746
        },
        {
          "name": "E5",
          "midi": 76,
          "time": 42.20652173912917,
          "velocity": 0.09448818897637795,
          "duration": 0.03260869565217206
        },
        {
          "name": "F#5",
          "midi": 78,
          "time": 42.21739130434656,
          "velocity": 0.28346456692913385,
          "duration": 0.10869565217390686
        },
        {
          "name": "C6",
          "midi": 84,
          "time": 42.21739130434656,
          "velocity": 0.13385826771653545,
          "duration": 0.043478260869562746
        },
        {
          "name": "C#7",
          "midi": 97,
          "time": 42.239130434781345,
          "velocity": 0.18110236220472442,
          "duration": 0.10869565217390686
        },
        {
          "name": "G#3",
          "midi": 56,
          "time": 42.249999999998735,
          "velocity": 0.4645669291338583,
          "duration": 0.043478260869562746
        },
        {
          "name": "D4",
          "midi": 62,
          "time": 42.249999999998735,
          "velocity": 0.11023622047244094,
          "duration": 0.0760869565217348
        },
        {
          "name": "F#7",
          "midi": 102,
          "time": 42.249999999998735,
          "velocity": 0.11811023622047244,
          "duration": 0.0760869565217348
        },
        {
          "name": "A4",
          "midi": 69,
          "time": 42.260869565216126,
          "velocity": 0.10236220472440945,
          "duration": 0.05434782608695343
        },
        {
          "name": "D5",
          "midi": 74,
          "time": 42.260869565216126,
          "velocity": 0.15748031496062992,
          "duration": 0.06521739130434412
        },
        {
          "name": "C6",
          "midi": 84,
          "time": 42.2934782608683,
          "velocity": 0.14960629921259844,
          "duration": 0.03260869565217206
        },
        {
          "name": "A#6",
          "midi": 94,
          "time": 42.2934782608683,
          "velocity": 0.1732283464566929,
          "duration": 0.03260869565217206
        },
        {
          "name": "A#5",
          "midi": 82,
          "time": 42.30434782608569,
          "velocity": 0.2204724409448819,
          "duration": 0.10869565217390686
        },
        {
          "name": "G5",
          "midi": 79,
          "time": 42.33695652173786,
          "velocity": 0.23622047244094488,
          "duration": 0.11956521739129755
        },
        {
          "name": "C7",
          "midi": 96,
          "time": 42.33695652173786,
          "velocity": 0.10236220472440945,
          "duration": 0.03260869565217206
        },
        {
          "name": "C4",
          "midi": 60,
          "time": 42.34782608695525,
          "velocity": 0.23622047244094488,
          "duration": 0.0760869565217348
        },
        {
          "name": "D#7",
          "midi": 99,
          "time": 42.34782608695525,
          "velocity": 0.16535433070866143,
          "duration": 0.0760869565217348
        },
        {
          "name": "G4",
          "midi": 67,
          "time": 42.36956521739003,
          "velocity": 0.15748031496062992,
          "duration": 0.05434782608695343
        },
        {
          "name": "C6",
          "midi": 84,
          "time": 42.36956521739003,
          "velocity": 0.14960629921259844,
          "duration": 0.05434782608695343
        },
        {
          "name": "D7",
          "midi": 98,
          "time": 42.36956521739003,
          "velocity": 0.08661417322834646,
          "duration": 0.05434782608695343
        },
        {
          "name": "E5",
          "midi": 76,
          "time": 42.38043478260742,
          "velocity": 0.15748031496062992,
          "duration": 0.05434782608695343
        },
        {
          "name": "D6",
          "midi": 86,
          "time": 42.38043478260742,
          "velocity": 0.15748031496062992,
          "duration": 0.05434782608695343
        },
        {
          "name": "F6",
          "midi": 89,
          "time": 42.38043478260742,
          "velocity": 0.1968503937007874,
          "duration": 0.043478260869562746
        },
        {
          "name": "G#6",
          "midi": 92,
          "time": 42.391304347824814,
          "velocity": 0.1968503937007874,
          "duration": 0.05434782608695343
        },
        {
          "name": "B6",
          "midi": 95,
          "time": 42.391304347824814,
          "velocity": 0.10236220472440945,
          "duration": 0.03260869565217206
        },
        {
          "name": "A4",
          "midi": 69,
          "time": 42.64130434782481,
          "velocity": 0.16535433070866143,
          "duration": 0.06521739130434412
        },
        {
          "name": "D5",
          "midi": 74,
          "time": 42.64130434782481,
          "velocity": 0.1889763779527559,
          "duration": 0.11956521739129755
        },
        {
          "name": "A5",
          "midi": 81,
          "time": 42.64130434782481,
          "velocity": 0.2440944881889764,
          "duration": 0.17391304347825098
        },
        {
          "name": "C6",
          "midi": 84,
          "time": 42.64130434782481,
          "velocity": 0.2440944881889764,
          "duration": 0.1630434782608603
        },
        {
          "name": "C7",
          "midi": 96,
          "time": 42.64130434782481,
          "velocity": 0.30708661417322836,
          "duration": 0.14130434782607892
        },
        {
          "name": "C#7",
          "midi": 97,
          "time": 42.64130434782481,
          "velocity": 0.2204724409448819,
          "duration": 0.08695652173912549
        },
        {
          "name": "F#7",
          "midi": 102,
          "time": 42.64130434782481,
          "velocity": 0.1968503937007874,
          "duration": 0.10869565217390686
        },
        {
          "name": "G7",
          "midi": 103,
          "time": 42.64130434782481,
          "velocity": 0.2440944881889764,
          "duration": 0.10869565217390686
        },
        {
          "name": "D6",
          "midi": 86,
          "time": 42.6521739130422,
          "velocity": 0.2125984251968504,
          "duration": 0.0760869565217348
        },
        {
          "name": "B6",
          "midi": 95,
          "time": 42.6521739130422,
          "velocity": 0.10236220472440945,
          "duration": 0.03260869565217206
        },
        {
          "name": "D#7",
          "midi": 99,
          "time": 42.6521739130422,
          "velocity": 0.1968503937007874,
          "duration": 0.10869565217390686
        },
        {
          "name": "D4",
          "midi": 62,
          "time": 42.66304347825959,
          "velocity": 0.09448818897637795,
          "duration": 0.0760869565217348
        },
        {
          "name": "E7",
          "midi": 100,
          "time": 42.66304347825959,
          "velocity": 0.15748031496062992,
          "duration": 0.09782608695651618
        },
        {
          "name": "E6",
          "midi": 88,
          "time": 42.68478260869437,
          "velocity": 0.13385826771653545,
          "duration": 0.06521739130434412
        },
        {
          "name": "F#6",
          "midi": 90,
          "time": 42.68478260869437,
          "velocity": 0.2125984251968504,
          "duration": 0.0760869565217348
        },
        {
          "name": "A#6",
          "midi": 94,
          "time": 42.68478260869437,
          "velocity": 0.2125984251968504,
          "duration": 0.0760869565217348
        },
        {
          "name": "G#6",
          "midi": 92,
          "time": 42.69565217391176,
          "velocity": 0.18110236220472442,
          "duration": 0.05434782608695343
        },
        {
          "name": "C#3",
          "midi": 49,
          "time": 42.80434782608567,
          "velocity": 0.5118110236220472,
          "duration": 0.010869565217390686
        },
        {
          "name": "G2",
          "midi": 43,
          "time": 42.81521739130306,
          "velocity": 0.5433070866141733,
          "duration": 0.010869565217390686
        },
        {
          "name": "D2",
          "midi": 38,
          "time": 42.82608695652045,
          "velocity": 0.5590551181102362,
          "duration": 0.010869565217390686
        },
        {
          "name": "A#1",
          "midi": 34,
          "time": 42.83695652173784,
          "velocity": 0.5354330708661418,
          "duration": 0.010869565217390686
        },
        {
          "name": "A1",
          "midi": 33,
          "time": 42.84782608695523,
          "velocity": 0.5354330708661418,
          "duration": 0.010869565217390686
        },
        {
          "name": "G#1",
          "midi": 32,
          "time": 42.85869565217262,
          "velocity": 0.5196850393700787,
          "duration": 0.010869565217390686
        },
        {
          "name": "G1",
          "midi": 31,
          "time": 42.86956521739001,
          "velocity": 0.5118110236220472,
          "duration": 0.010869565217390686
        },
        {
          "name": "F#1",
          "midi": 30,
          "time": 42.8804347826074,
          "velocity": 0.49606299212598426,
          "duration": 0.05434782608695343
        },
        {
          "name": "F1",
          "midi": 29,
          "time": 42.934782608694356,
          "velocity": 0.3464566929133858,
          "duration": 0.021739130434781373
        },
        {
          "name": "C6",
          "midi": 84,
          "time": 42.945652173911746,
          "velocity": 0.2047244094488189,
          "duration": 0.05434782608695343
        },
        {
          "name": "B6",
          "midi": 95,
          "time": 42.945652173911746,
          "velocity": 0.2125984251968504,
          "duration": 0.10869565217390686
        },
        {
          "name": "F4",
          "midi": 65,
          "time": 42.95652173912914,
          "velocity": 0.2125984251968504,
          "duration": 0.13043478260868824
        },
        {
          "name": "A#4",
          "midi": 70,
          "time": 42.95652173912914,
          "velocity": 0.2204724409448819,
          "duration": 0.03260869565217206
        },
        {
          "name": "D5",
          "midi": 74,
          "time": 42.95652173912914,
          "velocity": 0.15748031496062992,
          "duration": 0.13043478260868824
        },
        {
          "name": "A#5",
          "midi": 82,
          "time": 42.95652173912914,
          "velocity": 0.2440944881889764,
          "duration": 0.1521739130434696
        },
        {
          "name": "C#7",
          "midi": 97,
          "time": 42.95652173912914,
          "velocity": 0.14960629921259844,
          "duration": 0.13043478260868824
        },
        {
          "name": "F7",
          "midi": 101,
          "time": 42.95652173912914,
          "velocity": 0.2047244094488189,
          "duration": 0.13043478260868824
        },
        {
          "name": "F#7",
          "midi": 102,
          "time": 42.95652173912914,
          "velocity": 0.14173228346456693,
          "duration": 0.13043478260868824
        },
        {
          "name": "G#5",
          "midi": 80,
          "time": 42.96739130434653,
          "velocity": 0.25984251968503935,
          "duration": 0.14130434782607892
        },
        {
          "name": "E7",
          "midi": 100,
          "time": 42.96739130434653,
          "velocity": 0.15748031496062992,
          "duration": 0.11956521739129755
        },
        {
          "name": "A6",
          "midi": 93,
          "time": 42.97826086956392,
          "velocity": 0.2125984251968504,
          "duration": 0.11956521739129755
        },
        {
          "name": "F6",
          "midi": 89,
          "time": 42.9999999999987,
          "velocity": 0.1968503937007874,
          "duration": 0.09782608695651618
        },
        {
          "name": "D7",
          "midi": 98,
          "time": 42.9999999999987,
          "velocity": 0.14173228346456693,
          "duration": 0.08695652173912549
        },
        {
          "name": "A#4",
          "midi": 70,
          "time": 43.03260869565087,
          "velocity": 0.11023622047244094,
          "duration": 0.043478260869562746
        },
        {
          "name": "A#3",
          "midi": 58,
          "time": 43.24999999999869,
          "velocity": 0.2204724409448819,
          "duration": 0.05434782608695343
        },
        {
          "name": "F4",
          "midi": 65,
          "time": 43.24999999999869,
          "velocity": 0.1968503937007874,
          "duration": 0.043478260869562746
        },
        {
          "name": "G#5",
          "midi": 80,
          "time": 43.24999999999869,
          "velocity": 0.2440944881889764,
          "duration": 0.05434782608695343
        },
        {
          "name": "D5",
          "midi": 74,
          "time": 43.26086956521608,
          "velocity": 0.18110236220472442,
          "duration": 0.06521739130434412
        },
        {
          "name": "B6",
          "midi": 95,
          "time": 43.26086956521608,
          "velocity": 0.09448818897637795,
          "duration": 0.06521739130434412
        },
        {
          "name": "C7",
          "midi": 96,
          "time": 43.26086956521608,
          "velocity": 0.2047244094488189,
          "duration": 0.06521739130434412
        },
        {
          "name": "C#7",
          "midi": 97,
          "time": 43.26086956521608,
          "velocity": 0.1732283464566929,
          "duration": 0.06521739130434412
        },
        {
          "name": "F#7",
          "midi": 102,
          "time": 43.26086956521608,
          "velocity": 0.11811023622047244,
          "duration": 0.03260869565217206
        },
        {
          "name": "G7",
          "midi": 103,
          "time": 43.26086956521608,
          "velocity": 0.16535433070866143,
          "duration": 0.06521739130434412
        },
        {
          "name": "A#5",
          "midi": 82,
          "time": 43.271739130433474,
          "velocity": 0.1968503937007874,
          "duration": 0.05434782608695343
        },
        {
          "name": "C6",
          "midi": 84,
          "time": 43.271739130433474,
          "velocity": 0.13385826771653545,
          "duration": 0.043478260869562746
        },
        {
          "name": "F#4",
          "midi": 66,
          "time": 43.40217391304217,
          "velocity": 0.3464566929133858,
          "duration": 0.03260869565217206
        },
        {
          "name": "C#5",
          "midi": 73,
          "time": 43.40217391304217,
          "velocity": 0.28346456692913385,
          "duration": 0.021739130434781373
        },
        {
          "name": "G5",
          "midi": 79,
          "time": 43.40217391304217,
          "velocity": 0.1889763779527559,
          "duration": 0.03260869565217206
        },
        {
          "name": "D#6",
          "midi": 87,
          "time": 43.40217391304217,
          "velocity": 0.13385826771653545,
          "duration": 0.03260869565217206
        },
        {
          "name": "A6",
          "midi": 93,
          "time": 43.40217391304217,
          "velocity": 0.18110236220472442,
          "duration": 0.03260869565217206
        },
        {
          "name": "A#6",
          "midi": 94,
          "time": 43.40217391304217,
          "velocity": 0.2283464566929134,
          "duration": 0.043478260869562746
        },
        {
          "name": "E7",
          "midi": 100,
          "time": 43.40217391304217,
          "velocity": 0.1889763779527559,
          "duration": 0.03260869565217206
        },
        {
          "name": "F7",
          "midi": 101,
          "time": 43.40217391304217,
          "velocity": 0.1968503937007874,
          "duration": 0.043478260869562746
        },
        {
          "name": "F#7",
          "midi": 102,
          "time": 43.40217391304217,
          "velocity": 0.11023622047244094,
          "duration": 0.043478260869562746
        },
        {
          "name": "G7",
          "midi": 103,
          "time": 43.40217391304217,
          "velocity": 0.1732283464566929,
          "duration": 0.03260869565217206
        },
        {
          "name": "C#7",
          "midi": 97,
          "time": 43.41304347825956,
          "velocity": 0.11023622047244094,
          "duration": 0.03260869565217206
        },
        {
          "name": "A#3",
          "midi": 58,
          "time": 43.42391304347695,
          "velocity": 0.5590551181102362,
          "duration": 0.010869565217390686
        },
        {
          "name": "G#1",
          "midi": 32,
          "time": 43.43478260869434,
          "velocity": 0.28346456692913385,
          "duration": 0.021739130434781373
        },
        {
          "name": "A3",
          "midi": 57,
          "time": 43.43478260869434,
          "velocity": 0.5984251968503937,
          "duration": 0.043478260869562746
        },
        {
          "name": "B4",
          "midi": 71,
          "time": 43.43478260869434,
          "velocity": 0.15748031496062992,
          "duration": 0.043478260869562746
        },
        {
          "name": "C7",
          "midi": 96,
          "time": 43.44565217391173,
          "velocity": 0.11023622047244094,
          "duration": 0.03260869565217206
        },
        {
          "name": "G1",
          "midi": 31,
          "time": 43.45652173912912,
          "velocity": 0.5433070866141733,
          "duration": 0.22826086956520442
        },
        {
          "name": "G#3",
          "midi": 56,
          "time": 43.478260869563904,
          "velocity": 0.41732283464566927,
          "duration": 0.03260869565217206
        },
        {
          "name": "G#5",
          "midi": 80,
          "time": 43.489130434781295,
          "velocity": 0.2440944881889764,
          "duration": 0.18478260869564167
        },
        {
          "name": "A#5",
          "midi": 82,
          "time": 43.489130434781295,
          "velocity": 0.28346456692913385,
          "duration": 0.17391304347825098
        },
        {
          "name": "C6",
          "midi": 84,
          "time": 43.52173913043347,
          "velocity": 0.1889763779527559,
          "duration": 0.14130434782607892
        },
        {
          "name": "D#5",
          "midi": 75,
          "time": 43.54347826086825,
          "velocity": 0.13385826771653545,
          "duration": 0.11956521739129755
        },
        {
          "name": "C#6",
          "midi": 85,
          "time": 43.55434782608564,
          "velocity": 0.1889763779527559,
          "duration": 0.13043478260868824
        },
        {
          "name": "D#6",
          "midi": 87,
          "time": 43.55434782608564,
          "velocity": 0.14960629921259844,
          "duration": 0.13043478260868824
        },
        {
          "name": "E7",
          "midi": 100,
          "time": 43.55434782608564,
          "velocity": 0.07086614173228346,
          "duration": 0.11956521739129755
        },
        {
          "name": "D3",
          "midi": 50,
          "time": 43.56521739130303,
          "velocity": 0.16535433070866143,
          "duration": 0.10869565217390686
        },
        {
          "name": "G5",
          "midi": 79,
          "time": 43.56521739130303,
          "velocity": 0.11023622047244094,
          "duration": 0.03260869565217206
        },
        {
          "name": "E6",
          "midi": 88,
          "time": 43.56521739130303,
          "velocity": 0.07874015748031496,
          "duration": 0.043478260869562746
        },
        {
          "name": "C5",
          "midi": 72,
          "time": 43.58695652173781,
          "velocity": 0.25196850393700787,
          "duration": 0.0760869565217348
        },
        {
          "name": "A6",
          "midi": 93,
          "time": 43.58695652173781,
          "velocity": 0.10236220472440945,
          "duration": 0.06521739130434412
        },
        {
          "name": "F#5",
          "midi": 78,
          "time": 43.60869565217259,
          "velocity": 0.1732283464566929,
          "duration": 0.05434782608695343
        },
        {
          "name": "E4",
          "midi": 64,
          "time": 43.641304347824764,
          "velocity": 0.2992125984251969,
          "duration": 0.043478260869562746
        },
        {
          "name": "A#3",
          "midi": 58,
          "time": 43.663043478259546,
          "velocity": 0.3700787401574803,
          "duration": 0.021739130434781373
        },
        {
          "name": "F6",
          "midi": 89,
          "time": 43.663043478259546,
          "velocity": 0.07874015748031496,
          "duration": 0.03260869565217206
        },
        {
          "name": "F#1",
          "midi": 30,
          "time": 43.68478260869433,
          "velocity": 0.4330708661417323,
          "duration": 0.021739130434781373
        },
        {
          "name": "A#2",
          "midi": 46,
          "time": 43.68478260869433,
          "velocity": 0.2283464566929134,
          "duration": 0.021739130434781373
        },
        {
          "name": "C5",
          "midi": 72,
          "time": 43.70652173912911,
          "velocity": 0.1732283464566929,
          "duration": 0.03260869565217206
        },
        {
          "name": "B2",
          "midi": 47,
          "time": 43.72826086956389,
          "velocity": 0.5196850393700787,
          "duration": 0.010869565217390686
        },
        {
          "name": "C#2",
          "midi": 37,
          "time": 43.73913043478128,
          "velocity": 0.5433070866141733,
          "duration": 0.010869565217390686
        },
        {
          "name": "C2",
          "midi": 36,
          "time": 43.74999999999867,
          "velocity": 0.5511811023622047,
          "duration": 0.010869565217390686
        },
        {
          "name": "A1",
          "midi": 33,
          "time": 43.76086956521606,
          "velocity": 0.5354330708661418,
          "duration": 0.010869565217390686
        },
        {
          "name": "G#1",
          "midi": 32,
          "time": 43.77173913043345,
          "velocity": 0.5118110236220472,
          "duration": 0.010869565217390686
        },
        {
          "name": "C#5",
          "midi": 73,
          "time": 43.77173913043345,
          "velocity": 0.16535433070866143,
          "duration": 0.11956521739130466
        },
        {
          "name": "C6",
          "midi": 84,
          "time": 43.77173913043345,
          "velocity": 0.2755905511811024,
          "duration": 0.20652173913043015
        },
        {
          "name": "G1",
          "midi": 31,
          "time": 43.78260869565084,
          "velocity": 0.4881889763779528,
          "duration": 0.021739130434781373
        },
        {
          "name": "G#5",
          "midi": 80,
          "time": 43.793478260868234,
          "velocity": 0.2440944881889764,
          "duration": 0.1739130434782581
        },
        {
          "name": "A#5",
          "midi": 82,
          "time": 43.793478260868234,
          "velocity": 0.2283464566929134,
          "duration": 0.1630434782608674
        },
        {
          "name": "F#1",
          "midi": 30,
          "time": 43.804347826085625,
          "velocity": 0.5354330708661418,
          "duration": 0.06521739130435122
        },
        {
          "name": "G1",
          "midi": 31,
          "time": 43.869565217389976,
          "velocity": 0.5433070866141733,
          "duration": 0.11956521739129755
        },
        {
          "name": "D#6",
          "midi": 87,
          "time": 43.869565217389976,
          "velocity": 0.10236220472440945,
          "duration": 0.09782608695651618
        },
        {
          "name": "C5",
          "midi": 72,
          "time": 43.89130434782476,
          "velocity": 0.25196850393700787,
          "duration": 0.0760869565217348
        },
        {
          "name": "D3",
          "midi": 50,
          "time": 43.91304347825954,
          "velocity": 0.14960629921259844,
          "duration": 0.05434782608695343
        },
        {
          "name": "F#5",
          "midi": 78,
          "time": 43.92391304347693,
          "velocity": 0.18110236220472442,
          "duration": 0.05434782608695343
        },
        {
          "name": "A6",
          "midi": 93,
          "time": 43.93478260869432,
          "velocity": 0.07086614173228346,
          "duration": 0.06521739130434412
        },
        {
          "name": "E4",
          "midi": 64,
          "time": 43.94565217391171,
          "velocity": 0.30708661417322836,
          "duration": 0.043478260869562746
        },
        {
          "name": "E7",
          "midi": 100,
          "time": 43.94565217391171,
          "velocity": 0.14173228346456693,
          "duration": 0.043478260869562746
        },
        {
          "name": "A#3",
          "midi": 58,
          "time": 43.96739130434649,
          "velocity": 0.3779527559055118,
          "duration": 0.021739130434781373
        },
        {
          "name": "B1",
          "midi": 35,
          "time": 44.010869565216055,
          "velocity": 0.3779527559055118,
          "duration": 0.021739130434781373
        },
        {
          "name": "C#5",
          "midi": 73,
          "time": 44.010869565216055,
          "velocity": 0.16535433070866143,
          "duration": 0.03260869565217206
        },
        {
          "name": "B4",
          "midi": 71,
          "time": 44.021739130433446,
          "velocity": 0.16535433070866143,
          "duration": 0.043478260869562746
        },
        {
          "name": "B2",
          "midi": 47,
          "time": 44.032608695650836,
          "velocity": 0.5433070866141733,
          "duration": 0.010869565217390686
        },
        {
          "name": "D4",
          "midi": 62,
          "time": 44.032608695650836,
          "velocity": 0.1968503937007874,
          "duration": 0.03260869565217206
        },
        {
          "name": "G#2",
          "midi": 44,
          "time": 44.04347826086823,
          "velocity": 0.5433070866141733,
          "duration": 0.010869565217390686
        },
        {
          "name": "C#2",
          "midi": 37,
          "time": 44.05434782608562,
          "velocity": 0.5826771653543307,
          "duration": 0.010869565217390686
        },
        {
          "name": "A#1",
          "midi": 34,
          "time": 44.06521739130301,
          "velocity": 0.5275590551181102,
          "duration": 0.010869565217390686
        },
        {
          "name": "G4",
          "midi": 67,
          "time": 44.0760869565204,
          "velocity": 0.2047244094488189,
          "duration": 0.043478260869562746
        },
        {
          "name": "G5",
          "midi": 79,
          "time": 44.0760869565204,
          "velocity": 0.2047244094488189,
          "duration": 0.06521739130434412
        },
        {
          "name": "A5",
          "midi": 81,
          "time": 44.0760869565204,
          "velocity": 0.14173228346456693,
          "duration": 0.03260869565217206
        },
        {
          "name": "F#1",
          "midi": 30,
          "time": 44.09782608695518,
          "velocity": 0.4566929133858268,
          "duration": 0.021739130434781373
        },
        {
          "name": "D3",
          "midi": 50,
          "time": 44.09782608695518,
          "velocity": 0.2755905511811024,
          "duration": 0.0760869565217348
        },
        {
          "name": "B4",
          "midi": 71,
          "time": 44.11956521738996,
          "velocity": 0.2204724409448819,
          "duration": 0.06521739130434412
        },
        {
          "name": "F#1",
          "midi": 30,
          "time": 44.13043478260735,
          "velocity": 0.5118110236220472,
          "duration": 0.05434782608695343
        },
        {
          "name": "F5",
          "midi": 77,
          "time": 44.14130434782474,
          "velocity": 0.12598425196850394,
          "duration": 0.03260869565217206
        },
        {
          "name": "G5",
          "midi": 79,
          "time": 44.173913043476915,
          "velocity": 0.16535433070866143,
          "duration": 0.13043478260868824
        },
        {
          "name": "G1",
          "midi": 31,
          "time": 44.184782608694306,
          "velocity": 0.49606299212598426,
          "duration": 0.03260869565217206
        },
        {
          "name": "D4",
          "midi": 62,
          "time": 44.184782608694306,
          "velocity": 0.23622047244094488,
          "duration": 0.21739130434781373
        },
        {
          "name": "G4",
          "midi": 67,
          "time": 44.184782608694306,
          "velocity": 0.2677165354330709,
          "duration": 0.17391304347825098
        },
        {
          "name": "B5",
          "midi": 83,
          "time": 44.20652173912909,
          "velocity": 0.14960629921259844,
          "duration": 0.08695652173912549
        },
        {
          "name": "F#1",
          "midi": 30,
          "time": 44.21739130434648,
          "velocity": 0.5118110236220472,
          "duration": 0.03260869565217206
        },
        {
          "name": "B4",
          "midi": 71,
          "time": 44.22826086956387,
          "velocity": 0.1732283464566929,
          "duration": 0.13043478260868824
        },
        {
          "name": "G1",
          "midi": 31,
          "time": 44.24999999999865,
          "velocity": 0.5196850393700787,
          "duration": 0.3913043478260718
        },
        {
          "name": "F5",
          "midi": 77,
          "time": 44.26086956521604,
          "velocity": 0.11023622047244094,
          "duration": 0.05434782608695343
        },
        {
          "name": "E6",
          "midi": 88,
          "time": 44.47826086956386,
          "velocity": 0.1732283464566929,
          "duration": 0.0760869565217348
        },
        {
          "name": "G7",
          "midi": 103,
          "time": 44.47826086956386,
          "velocity": 0.08661417322834646,
          "duration": 0.06521739130434412
        },
        {
          "name": "F#5",
          "midi": 78,
          "time": 44.48913043478125,
          "velocity": 0.2283464566929134,
          "duration": 0.06521739130434412
        },
        {
          "name": "D#7",
          "midi": 99,
          "time": 44.48913043478125,
          "velocity": 0.12598425196850394,
          "duration": 0.06521739130434412
        },
        {
          "name": "E7",
          "midi": 100,
          "time": 44.48913043478125,
          "velocity": 0.1968503937007874,
          "duration": 0.29347826086954854
        },
        {
          "name": "F7",
          "midi": 101,
          "time": 44.48913043478125,
          "velocity": 0.2204724409448819,
          "duration": 0.13043478260868824
        },
        {
          "name": "D4",
          "midi": 62,
          "time": 44.49999999999864,
          "velocity": 0.12598425196850394,
          "duration": 0.06521739130434412
        },
        {
          "name": "C6",
          "midi": 84,
          "time": 44.49999999999864,
          "velocity": 0.16535433070866143,
          "duration": 0.05434782608695343
        },
        {
          "name": "D6",
          "midi": 86,
          "time": 44.49999999999864,
          "velocity": 0.2440944881889764,
          "duration": 0.06521739130434412
        },
        {
          "name": "G#6",
          "midi": 92,
          "time": 44.51086956521603,
          "velocity": 0.11023622047244094,
          "duration": 0.03260869565217206
        },
        {
          "name": "G5",
          "midi": 79,
          "time": 44.554347826085596,
          "velocity": 0.25196850393700787,
          "duration": 0.09782608695651618
        },
        {
          "name": "C#6",
          "midi": 85,
          "time": 44.554347826085596,
          "velocity": 0.2204724409448819,
          "duration": 0.06521739130434412
        },
        {
          "name": "F#7",
          "midi": 102,
          "time": 44.554347826085596,
          "velocity": 0.1732283464566929,
          "duration": 0.0760869565217348
        },
        {
          "name": "D#4",
          "midi": 63,
          "time": 44.56521739130299,
          "velocity": 0.1732283464566929,
          "duration": 0.06521739130434412
        },
        {
          "name": "D#6",
          "midi": 87,
          "time": 44.56521739130299,
          "velocity": 0.28346456692913385,
          "duration": 0.08695652173912549
        },
        {
          "name": "A#6",
          "midi": 94,
          "time": 44.56521739130299,
          "velocity": 0.10236220472440945,
          "duration": 0.043478260869562746
        },
        {
          "name": "F6",
          "midi": 89,
          "time": 44.57608695652038,
          "velocity": 0.1732283464566929,
          "duration": 0.0760869565217348
        },
        {
          "name": "B6",
          "midi": 95,
          "time": 44.57608695652038,
          "velocity": 0.16535433070866143,
          "duration": 0.08695652173912549
        },
        {
          "name": "G4",
          "midi": 67,
          "time": 44.61956521738994,
          "velocity": 0.3228346456692913,
          "duration": 0.021739130434781373
        },
        {
          "name": "G7",
          "midi": 103,
          "time": 44.61956521738994,
          "velocity": 0.2125984251968504,
          "duration": 0.043478260869562746
        },
        {
          "name": "A#3",
          "midi": 58,
          "time": 44.63043478260733,
          "velocity": 0.5275590551181102,
          "duration": 0.021739130434781373
        },
        {
          "name": "B5",
          "midi": 83,
          "time": 44.63043478260733,
          "velocity": 0.10236220472440945,
          "duration": 0.03260869565217206
        },
        {
          "name": "F#6",
          "midi": 90,
          "time": 44.63043478260733,
          "velocity": 0.11811023622047244,
          "duration": 0.06521739130434412
        },
        {
          "name": "A6",
          "midi": 93,
          "time": 44.63043478260733,
          "velocity": 0.14960629921259844,
          "duration": 0.03260869565217206
        },
        {
          "name": "A#6",
          "midi": 94,
          "time": 44.63043478260733,
          "velocity": 0.11811023622047244,
          "duration": 0.043478260869562746
        },
        {
          "name": "F#4",
          "midi": 66,
          "time": 44.64130434782472,
          "velocity": 0.29133858267716534,
          "duration": 0.021739130434781373
        },
        {
          "name": "C#5",
          "midi": 73,
          "time": 44.64130434782472,
          "velocity": 0.25196850393700787,
          "duration": 0.021739130434781373
        },
        {
          "name": "A3",
          "midi": 57,
          "time": 44.65217391304211,
          "velocity": 0.5984251968503937,
          "duration": 0.043478260869562746
        },
        {
          "name": "E6",
          "midi": 88,
          "time": 44.65217391304211,
          "velocity": 0.15748031496062992,
          "duration": 0.09782608695651618
        },
        {
          "name": "D4",
          "midi": 62,
          "time": 44.6630434782595,
          "velocity": 0.13385826771653545,
          "duration": 0.03260869565217206
        },
        {
          "name": "D6",
          "midi": 86,
          "time": 44.6630434782595,
          "velocity": 0.23622047244094488,
          "duration": 0.17391304347825098
        },
        {
          "name": "C#7",
          "midi": 97,
          "time": 44.673913043476894,
          "velocity": 0.2440944881889764,
          "duration": 0.09782608695651618
        },
        {
          "name": "F#7",
          "midi": 102,
          "time": 44.673913043476894,
          "velocity": 0.16535433070866143,
          "duration": 0.19565217391303236
        },
        {
          "name": "C6",
          "midi": 84,
          "time": 44.684782608694285,
          "velocity": 0.1889763779527559,
          "duration": 0.0760869565217348
        },
        {
          "name": "A#6",
          "midi": 94,
          "time": 44.684782608694285,
          "velocity": 0.2283464566929134,
          "duration": 0.06521739130434412
        },
        {
          "name": "G7",
          "midi": 103,
          "time": 44.684782608694285,
          "velocity": 0.1889763779527559,
          "duration": 0.08695652173912549
        },
        {
          "name": "G#3",
          "midi": 56,
          "time": 44.695652173911675,
          "velocity": 0.48031496062992124,
          "duration": 0.05434782608695343
        },
        {
          "name": "D5",
          "midi": 74,
          "time": 44.695652173911675,
          "velocity": 0.18110236220472442,
          "duration": 0.06521739130434412
        },
        {
          "name": "D#7",
          "midi": 99,
          "time": 44.706521739129066,
          "velocity": 0.13385826771653545,
          "duration": 0.08695652173912549
        },
        {
          "name": "G#6",
          "midi": 92,
          "time": 44.74999999999863,
          "velocity": 0.11023622047244094,
          "duration": 0.03260869565217206
        },
        {
          "name": "C5",
          "midi": 72,
          "time": 44.7826086956508,
          "velocity": 0.2440944881889764,
          "duration": 0.08695652173912549
        },
        {
          "name": "E5",
          "midi": 76,
          "time": 44.7826086956508,
          "velocity": 0.2283464566929134,
          "duration": 0.0760869565217348
        },
        {
          "name": "A#5",
          "midi": 82,
          "time": 44.79347826086819,
          "velocity": 0.2047244094488189,
          "duration": 0.09782608695651618
        },
        {
          "name": "C7",
          "midi": 96,
          "time": 44.79347826086819,
          "velocity": 0.16535433070866143,
          "duration": 0.0760869565217348
        },
        {
          "name": "C#7",
          "midi": 97,
          "time": 44.79347826086819,
          "velocity": 0.2204724409448819,
          "duration": 0.06521739130434412
        },
        {
          "name": "G4",
          "midi": 67,
          "time": 44.80434782608558,
          "velocity": 0.2047244094488189,
          "duration": 0.06521739130434412
        },
        {
          "name": "B6",
          "midi": 95,
          "time": 44.80434782608558,
          "velocity": 0.18110236220472442,
          "duration": 0.0760869565217348
        },
        {
          "name": "F7",
          "midi": 101,
          "time": 44.80434782608558,
          "velocity": 0.08661417322834646,
          "duration": 0.03260869565217206
        },
        {
          "name": "E7",
          "midi": 100,
          "time": 44.82608695652036,
          "velocity": 0.10236220472440945,
          "duration": 0.03260869565217206
        },
        {
          "name": "G6",
          "midi": 91,
          "time": 44.836956521737754,
          "velocity": 0.11811023622047244,
          "duration": 0.03260869565217206
        },
        {
          "name": "A4",
          "midi": 69,
          "time": 45.086956521737754,
          "velocity": 0.18110236220472442,
          "duration": 0.09782608695651618
        },
        {
          "name": "D5",
          "midi": 74,
          "time": 45.086956521737754,
          "velocity": 0.2283464566929134,
          "duration": 0.09782608695651618
        },
        {
          "name": "D6",
          "midi": 86,
          "time": 45.086956521737754,
          "velocity": 0.23622047244094488,
          "duration": 0.10869565217390686
        },
        {
          "name": "C#7",
          "midi": 97,
          "time": 45.086956521737754,
          "velocity": 0.2204724409448819,
          "duration": 0.09782608695651618
        },
        {
          "name": "D7",
          "midi": 98,
          "time": 45.086956521737754,
          "velocity": 0.2440944881889764,
          "duration": 0.0760869565217348
        },
        {
          "name": "A5",
          "midi": 81,
          "time": 45.097826086955145,
          "velocity": 0.18110236220472442,
          "duration": 0.11956521739129755
        },
        {
          "name": "F#6",
          "midi": 90,
          "time": 45.097826086955145,
          "velocity": 0.10236220472440945,
          "duration": 0.05434782608695343
        },
        {
          "name": "C7",
          "midi": 96,
          "time": 45.097826086955145,
          "velocity": 0.2283464566929134,
          "duration": 0.10869565217390686
        },
        {
          "name": "F7",
          "midi": 101,
          "time": 45.097826086955145,
          "velocity": 0.14960629921259844,
          "duration": 0.08695652173912549
        },
        {
          "name": "G7",
          "midi": 103,
          "time": 45.097826086955145,
          "velocity": 0.1889763779527559,
          "duration": 0.09782608695651618
        },
        {
          "name": "C6",
          "midi": 84,
          "time": 45.119565217389926,
          "velocity": 0.2677165354330709,
          "duration": 0.10869565217390686
        },
        {
          "name": "G#6",
          "midi": 92,
          "time": 45.119565217389926,
          "velocity": 0.2047244094488189,
          "duration": 0.0760869565217348
        },
        {
          "name": "E7",
          "midi": 100,
          "time": 45.119565217389926,
          "velocity": 0.2204724409448819,
          "duration": 0.09782608695651618
        },
        {
          "name": "D#7",
          "midi": 99,
          "time": 45.13043478260732,
          "velocity": 0.12598425196850394,
          "duration": 0.06521739130434412
        },
        {
          "name": "D4",
          "midi": 62,
          "time": 45.14130434782471,
          "velocity": 0.07874015748031496,
          "duration": 0.03260869565217206
        },
        {
          "name": "E6",
          "midi": 88,
          "time": 45.14130434782471,
          "velocity": 0.16535433070866143,
          "duration": 0.06521739130434412
        },
        {
          "name": "A#6",
          "midi": 94,
          "time": 45.14130434782471,
          "velocity": 0.15748031496062992,
          "duration": 0.06521739130434412
        },
        {
          "name": "D3",
          "midi": 50,
          "time": 45.249999999998614,
          "velocity": 0.5118110236220472,
          "duration": 0.010869565217390686
        },
        {
          "name": "A#2",
          "midi": 46,
          "time": 45.260869565216005,
          "velocity": 0.5433070866141733,
          "duration": 0.010869565217390686
        },
        {
          "name": "D2",
          "midi": 38,
          "time": 45.271739130433396,
          "velocity": 0.5511811023622047,
          "duration": 0.010869565217390686
        },
        {
          "name": "A#1",
          "midi": 34,
          "time": 45.28260869565079,
          "velocity": 0.5354330708661418,
          "duration": 0.010869565217390686
        },
        {
          "name": "G#1",
          "midi": 32,
          "time": 45.29347826086818,
          "velocity": 0.5354330708661418,
          "duration": 0.021739130434781373
        },
        {
          "name": "F#1",
          "midi": 30,
          "time": 45.32608695652035,
          "velocity": 0.4881889763779528,
          "duration": 0.021739130434781373
        },
        {
          "name": "F#1",
          "midi": 30,
          "time": 45.35869565217252,
          "velocity": 0.4330708661417323,
          "duration": 0.021739130434781373
        },
        {
          "name": "F1",
          "midi": 29,
          "time": 45.3804347826073,
          "velocity": 0.3464566929133858,
          "duration": 0.03260869565217206
        },
        {
          "name": "G#6",
          "midi": 92,
          "time": 45.39130434782469,
          "velocity": 0.2125984251968504,
          "duration": 0.08695652173912549
        },
        {
          "name": "A#3",
          "midi": 58,
          "time": 45.402173913042084,
          "velocity": 0.2125984251968504,
          "duration": 0.14130434782607892
        },
        {
          "name": "F4",
          "midi": 65,
          "time": 45.402173913042084,
          "velocity": 0.2125984251968504,
          "duration": 0.09782608695651618
        },
        {
          "name": "A#5",
          "midi": 82,
          "time": 45.402173913042084,
          "velocity": 0.18110236220472442,
          "duration": 0.0760869565217348
        },
        {
          "name": "F#6",
          "midi": 90,
          "time": 45.402173913042084,
          "velocity": 0.18110236220472442,
          "duration": 0.043478260869562746
        },
        {
          "name": "A6",
          "midi": 93,
          "time": 45.402173913042084,
          "velocity": 0.15748031496062992,
          "duration": 0.09782608695651618
        },
        {
          "name": "C7",
          "midi": 96,
          "time": 45.402173913042084,
          "velocity": 0.07874015748031496,
          "duration": 0.03260869565217206
        },
        {
          "name": "E7",
          "midi": 100,
          "time": 45.402173913042084,
          "velocity": 0.09448818897637795,
          "duration": 0.0760869565217348
        },
        {
          "name": "F5",
          "midi": 77,
          "time": 45.413043478259475,
          "velocity": 0.25984251968503935,
          "duration": 0.14130434782607892
        },
        {
          "name": "D#7",
          "midi": 99,
          "time": 45.413043478259475,
          "velocity": 0.14960629921259844,
          "duration": 0.10869565217390686
        },
        {
          "name": "G#5",
          "midi": 80,
          "time": 45.423913043476865,
          "velocity": 0.2283464566929134,
          "duration": 0.03260869565217206
        },
        {
          "name": "C#7",
          "midi": 97,
          "time": 45.423913043476865,
          "velocity": 0.1732283464566929,
          "duration": 0.11956521739129755
        },
        {
          "name": "D7",
          "midi": 98,
          "time": 45.423913043476865,
          "velocity": 0.18110236220472442,
          "duration": 0.10869565217390686
        },
        {
          "name": "D6",
          "midi": 86,
          "time": 45.44565217391165,
          "velocity": 0.2283464566929134,
          "duration": 0.10869565217390686
        },
        {
          "name": "B6",
          "midi": 95,
          "time": 45.44565217391165,
          "velocity": 0.1889763779527559,
          "duration": 0.08695652173912549
        },
        {
          "name": "A#6",
          "midi": 94,
          "time": 45.46739130434643,
          "velocity": 0.2047244094488189,
          "duration": 0.08695652173912549
        },
        {
          "name": "G#5",
          "midi": 80,
          "time": 45.47826086956382,
          "velocity": 0.14960629921259844,
          "duration": 0.05434782608695343
        },
        {
          "name": "D5",
          "midi": 74,
          "time": 45.4999999999986,
          "velocity": 0.10236220472440945,
          "duration": 0.03260869565217206
        },
        {
          "name": "A#3",
          "midi": 58,
          "time": 45.69565217391164,
          "velocity": 0.23622047244094488,
          "duration": 0.08695652173912549
        },
        {
          "name": "F4",
          "midi": 65,
          "time": 45.69565217391164,
          "velocity": 0.2283464566929134,
          "duration": 0.05434782608695343
        },
        {
          "name": "F5",
          "midi": 77,
          "time": 45.69565217391164,
          "velocity": 0.2283464566929134,
          "duration": 0.0760869565217348
        },
        {
          "name": "G#5",
          "midi": 80,
          "time": 45.69565217391164,
          "velocity": 0.2047244094488189,
          "duration": 0.06521739130434412
        },
        {
          "name": "F#6",
          "midi": 90,
          "time": 45.70652173912903,
          "velocity": 0.23622047244094488,
          "duration": 0.021739130434781373
        },
        {
          "name": "A#6",
          "midi": 94,
          "time": 45.70652173912903,
          "velocity": 0.08661417322834646,
          "duration": 0.03260869565217206
        },
        {
          "name": "C7",
          "midi": 96,
          "time": 45.70652173912903,
          "velocity": 0.14173228346456693,
          "duration": 0.05434782608695343
        },
        {
          "name": "C#7",
          "midi": 97,
          "time": 45.70652173912903,
          "velocity": 0.1732283464566929,
          "duration": 0.06521739130434412
        },
        {
          "name": "D5",
          "midi": 74,
          "time": 45.72826086956381,
          "velocity": 0.14173228346456693,
          "duration": 0.043478260869562746
        },
        {
          "name": "G#5",
          "midi": 80,
          "time": 45.847826086955116,
          "velocity": 0.1889763779527559,
          "duration": 0.03260869565217206
        },
        {
          "name": "F6",
          "midi": 89,
          "time": 45.847826086955116,
          "velocity": 0.25984251968503935,
          "duration": 0.11956521739129755
        },
        {
          "name": "C7",
          "midi": 96,
          "time": 45.847826086955116,
          "velocity": 0.16535433070866143,
          "duration": 0.03260869565217206
        },
        {
          "name": "D#7",
          "midi": 99,
          "time": 45.847826086955116,
          "velocity": 0.10236220472440945,
          "duration": 0.03260869565217206
        },
        {
          "name": "E7",
          "midi": 100,
          "time": 45.847826086955116,
          "velocity": 0.1732283464566929,
          "duration": 0.09782608695651618
        },
        {
          "name": "G7",
          "midi": 103,
          "time": 45.847826086955116,
          "velocity": 0.11811023622047244,
          "duration": 0.03260869565217206
        },
        {
          "name": "F5",
          "midi": 77,
          "time": 45.85869565217251,
          "velocity": 0.2677165354330709,
          "duration": 0.13043478260868824
        },
        {
          "name": "D#6",
          "midi": 87,
          "time": 45.85869565217251,
          "velocity": 0.13385826771653545,
          "duration": 0.043478260869562746
        },
        {
          "name": "A#6",
          "midi": 94,
          "time": 45.85869565217251,
          "velocity": 0.15748031496062992,
          "duration": 0.05434782608695343
        },
        {
          "name": "A3",
          "midi": 57,
          "time": 45.8695652173899,
          "velocity": 0.5748031496062992,
          "duration": 0.05434782608695343
        },
        {
          "name": "G6",
          "midi": 91,
          "time": 45.8695652173899,
          "velocity": 0.08661417322834646,
          "duration": 0.03260869565217206
        },
        {
          "name": "B6",
          "midi": 95,
          "time": 45.8695652173899,
          "velocity": 0.23622047244094488,
          "duration": 0.14130434782607892
        },
        {
          "name": "C#7",
          "midi": 97,
          "time": 45.8695652173899,
          "velocity": 0.2283464566929134,
          "duration": 0.13043478260868824
        },
        {
          "name": "D5",
          "midi": 74,
          "time": 45.88043478260729,
          "velocity": 0.25196850393700787,
          "duration": 0.11956521739129755
        },
        {
          "name": "D7",
          "midi": 98,
          "time": 45.88043478260729,
          "velocity": 0.1732283464566929,
          "duration": 0.06521739130434412
        },
        {
          "name": "E6",
          "midi": 88,
          "time": 45.89130434782468,
          "velocity": 0.1968503937007874,
          "duration": 0.043478260869562746
        },
        {
          "name": "A6",
          "midi": 93,
          "time": 45.90217391304207,
          "velocity": 0.08661417322834646,
          "duration": 0.06521739130434412
        },
        {
          "name": "F4",
          "midi": 65,
          "time": 45.91304347825946,
          "velocity": 0.18110236220472442,
          "duration": 0.0760869565217348
        },
        {
          "name": "A#5",
          "midi": 82,
          "time": 45.91304347825946,
          "velocity": 0.16535433070866143,
          "duration": 0.10869565217390686
        },
        {
          "name": "C6",
          "midi": 84,
          "time": 45.91304347825946,
          "velocity": 0.2047244094488189,
          "duration": 0.05434782608695343
        },
        {
          "name": "G#3",
          "midi": 56,
          "time": 45.92391304347685,
          "velocity": 0.3858267716535433,
          "duration": 0.043478260869562746
        },
        {
          "name": "F#6",
          "midi": 90,
          "time": 45.92391304347685,
          "velocity": 0.11811023622047244,
          "duration": 0.03260869565217206
        },
        {
          "name": "G#6",
          "midi": 92,
          "time": 45.93478260869424,
          "velocity": 0.1889763779527559,
          "duration": 0.05434782608695343
        },
        {
          "name": "C7",
          "midi": 96,
          "time": 45.93478260869424,
          "velocity": 0.2125984251968504,
          "duration": 0.20652173913042304
        },
        {
          "name": "C#6",
          "midi": 85,
          "time": 45.95652173912902,
          "velocity": 0.16535433070866143,
          "duration": 0.05434782608695343
        },
        {
          "name": "A#3",
          "midi": 58,
          "time": 45.978260869563805,
          "velocity": 0.11023622047244094,
          "duration": 0.03260869565217206
        },
        {
          "name": "G4",
          "midi": 67,
          "time": 45.999999999998586,
          "velocity": 0.2125984251968504,
          "duration": 0.13043478260868824
        },
        {
          "name": "F6",
          "midi": 89,
          "time": 45.999999999998586,
          "velocity": 0.31496062992125984,
          "duration": 0.03260869565217206
        },
        {
          "name": "E5",
          "midi": 76,
          "time": 46.01086956521598,
          "velocity": 0.2677165354330709,
          "duration": 0.18478260869564167
        },
        {
          "name": "G5",
          "midi": 79,
          "time": 46.01086956521598,
          "velocity": 0.31496062992125984,
          "duration": 0.08695652173912549
        },
        {
          "name": "C#7",
          "midi": 97,
          "time": 46.01086956521598,
          "velocity": 0.2204724409448819,
          "duration": 0.13043478260868824
        },
        {
          "name": "D7",
          "midi": 98,
          "time": 46.01086956521598,
          "velocity": 0.15748031496062992,
          "duration": 0.03260869565217206
        },
        {
          "name": "C4",
          "midi": 60,
          "time": 46.02173913043337,
          "velocity": 0.1968503937007874,
          "duration": 0.08695652173912549
        },
        {
          "name": "F#6",
          "midi": 90,
          "time": 46.03260869565076,
          "velocity": 0.25984251968503935,
          "duration": 0.03260869565217206
        },
        {
          "name": "A#5",
          "midi": 82,
          "time": 46.04347826086815,
          "velocity": 0.1889763779527559,
          "duration": 0.06521739130434412
        },
        {
          "name": "C6",
          "midi": 84,
          "time": 46.04347826086815,
          "velocity": 0.25984251968503935,
          "duration": 0.09782608695651618
        },
        {
          "name": "D6",
          "midi": 86,
          "time": 46.04347826086815,
          "velocity": 0.10236220472440945,
          "duration": 0.08695652173912549
        },
        {
          "name": "E6",
          "midi": 88,
          "time": 46.04347826086815,
          "velocity": 0.2677165354330709,
          "duration": 0.10869565217390686
        },
        {
          "name": "F6",
          "midi": 89,
          "time": 46.06521739130293,
          "velocity": 0.2440944881889764,
          "duration": 0.021739130434781373
        },
        {
          "name": "G#6",
          "midi": 92,
          "time": 46.06521739130293,
          "velocity": 0.18110236220472442,
          "duration": 0.08695652173912549
        },
        {
          "name": "D7",
          "midi": 98,
          "time": 46.06521739130293,
          "velocity": 0.15748031496062992,
          "duration": 0.043478260869562746
        },
        {
          "name": "B6",
          "midi": 95,
          "time": 46.07608695652032,
          "velocity": 0.16535433070866143,
          "duration": 0.05434782608695343
        },
        {
          "name": "A5",
          "midi": 81,
          "time": 46.152173913042056,
          "velocity": 0.33858267716535434,
          "duration": 0.06521739130434412
        },
        {
          "name": "A4",
          "midi": 69,
          "time": 46.163043478259446,
          "velocity": 0.2204724409448819,
          "duration": 0.10869565217390686
        },
        {
          "name": "D5",
          "midi": 74,
          "time": 46.163043478259446,
          "velocity": 0.1889763779527559,
          "duration": 0.10869565217390686
        },
        {
          "name": "F#5",
          "midi": 78,
          "time": 46.163043478259446,
          "velocity": 0.29133858267716534,
          "duration": 0.13043478260868824
        },
        {
          "name": "G6",
          "midi": 91,
          "time": 46.163043478259446,
          "velocity": 0.2283464566929134,
          "duration": 0.03260869565217206
        },
        {
          "name": "D7",
          "midi": 98,
          "time": 46.163043478259446,
          "velocity": 0.25196850393700787,
          "duration": 0.11956521739129755
        },
        {
          "name": "D#7",
          "midi": 99,
          "time": 46.163043478259446,
          "velocity": 0.18110236220472442,
          "duration": 0.09782608695651618
        },
        {
          "name": "C#7",
          "midi": 97,
          "time": 46.17391304347684,
          "velocity": 0.25196850393700787,
          "duration": 0.10869565217390686
        },
        {
          "name": "E7",
          "midi": 100,
          "time": 46.18478260869423,
          "velocity": 0.1889763779527559,
          "duration": 0.11956521739129755
        },
        {
          "name": "F#7",
          "midi": 102,
          "time": 46.18478260869423,
          "velocity": 0.30708661417322836,
          "duration": 0.18478260869564167
        },
        {
          "name": "E6",
          "midi": 88,
          "time": 46.19565217391162,
          "velocity": 0.30708661417322836,
          "duration": 0.11956521739129755
        },
        {
          "name": "G#6",
          "midi": 92,
          "time": 46.19565217391162,
          "velocity": 0.2125984251968504,
          "duration": 0.043478260869562746
        },
        {
          "name": "G#5",
          "midi": 80,
          "time": 46.20652173912901,
          "velocity": 0.3464566929133858,
          "duration": 0.11956521739129755
        },
        {
          "name": "D6",
          "midi": 86,
          "time": 46.20652173912901,
          "velocity": 0.25984251968503935,
          "duration": 0.06521739130434412
        },
        {
          "name": "G6",
          "midi": 91,
          "time": 46.20652173912901,
          "velocity": 0.11023622047244094,
          "duration": 0.043478260869562746
        },
        {
          "name": "A#5",
          "midi": 82,
          "time": 46.22826086956379,
          "velocity": 0.1732283464566929,
          "duration": 0.03260869565217206
        },
        {
          "name": "A6",
          "midi": 93,
          "time": 46.22826086956379,
          "velocity": 0.18110236220472442,
          "duration": 0.06521739130434412
        },
        {
          "name": "C#6",
          "midi": 85,
          "time": 46.23913043478118,
          "velocity": 0.14960629921259844,
          "duration": 0.11956521739129755
        },
        {
          "name": "B5",
          "midi": 83,
          "time": 46.27173913043335,
          "velocity": 0.10236220472440945,
          "duration": 0.03260869565217206
        },
        {
          "name": "D6",
          "midi": 86,
          "time": 46.282608695650744,
          "velocity": 0.07086614173228346,
          "duration": 0.043478260869562746
        },
        {
          "name": "G#5",
          "midi": 80,
          "time": 46.34782608695509,
          "velocity": 0.2125984251968504,
          "duration": 0.11956521739130466
        },
        {
          "name": "E4",
          "midi": 64,
          "time": 46.456521739129,
          "velocity": 0.25984251968503935,
          "duration": 0.03260869565217206
        },
        {
          "name": "C#3",
          "midi": 49,
          "time": 46.46739130434639,
          "velocity": 0.5118110236220472,
          "duration": 0.010869565217390686
        },
        {
          "name": "C5",
          "midi": 72,
          "time": 46.46739130434639,
          "velocity": 0.16535433070866143,
          "duration": 0.03260869565217206
        },
        {
          "name": "F5",
          "midi": 77,
          "time": 46.46739130434639,
          "velocity": 0.13385826771653545,
          "duration": 0.03260869565217206
        },
        {
          "name": "B2",
          "midi": 47,
          "time": 46.47826086956378,
          "velocity": 0.5669291338582677,
          "duration": 0.010869565217390686
        },
        {
          "name": "G2",
          "midi": 43,
          "time": 46.489130434781174,
          "velocity": 0.5433070866141733,
          "duration": 0.010869565217390686
        },
        {
          "name": "D#4",
          "midi": 63,
          "time": 46.489130434781174,
          "velocity": 0.14173228346456693,
          "duration": 0.03260869565217206
        },
        {
          "name": "F2",
          "midi": 41,
          "time": 46.499999999998565,
          "velocity": 0.5354330708661418,
          "duration": 0.010869565217390686
        },
        {
          "name": "B4",
          "midi": 71,
          "time": 46.499999999998565,
          "velocity": 0.13385826771653545,
          "duration": 0.043478260869562746
        },
        {
          "name": "G5",
          "midi": 79,
          "time": 46.499999999998565,
          "velocity": 0.25196850393700787,
          "duration": 0.0760869565217348
        },
        {
          "name": "A1",
          "midi": 33,
          "time": 46.510869565215955,
          "velocity": 0.5669291338582677,
          "duration": 0.010869565217390686
        },
        {
          "name": "F5",
          "midi": 77,
          "time": 46.510869565215955,
          "velocity": 0.14960629921259844,
          "duration": 0.03260869565217206
        },
        {
          "name": "B5",
          "midi": 83,
          "time": 46.510869565215955,
          "velocity": 0.16535433070866143,
          "duration": 0.08695652173912549
        },
        {
          "name": "G#1",
          "midi": 32,
          "time": 46.521739130433346,
          "velocity": 0.5748031496062992,
          "duration": 0.010869565217390686
        },
        {
          "name": "G4",
          "midi": 67,
          "time": 46.521739130433346,
          "velocity": 0.2125984251968504,
          "duration": 0.05434782608695343
        },
        {
          "name": "G1",
          "midi": 31,
          "time": 46.53260869565074,
          "velocity": 0.5748031496062992,
          "duration": 0.021739130434781373
        },
        {
          "name": "D5",
          "midi": 74,
          "time": 46.53260869565074,
          "velocity": 0.25984251968503935,
          "duration": 0.10869565217390686
        },
        {
          "name": "F#1",
          "midi": 30,
          "time": 46.55434782608552,
          "velocity": 0.5590551181102362,
          "duration": 0.03260869565217206
        },
        {
          "name": "B4",
          "midi": 71,
          "time": 46.55434782608552,
          "velocity": 0.31496062992125984,
          "duration": 0.09782608695651618
        },
        {
          "name": "F#6",
          "midi": 90,
          "time": 46.55434782608552,
          "velocity": 0.14173228346456693,
          "duration": 0.03260869565217206
        },
        {
          "name": "D3",
          "midi": 50,
          "time": 46.56521739130291,
          "velocity": 0.3228346456692913,
          "duration": 0.09782608695651618
        },
        {
          "name": "G1",
          "midi": 31,
          "time": 46.58695652173769,
          "velocity": 0.4881889763779528,
          "duration": 0.021739130434781373
        },
        {
          "name": "G4",
          "midi": 67,
          "time": 46.58695652173769,
          "velocity": 0.25196850393700787,
          "duration": 0.25
        },
        {
          "name": "G#1",
          "midi": 32,
          "time": 46.60869565217247,
          "velocity": 0.4645669291338583,
          "duration": 0.03260869565217206
        },
        {
          "name": "F5",
          "midi": 77,
          "time": 46.60869565217247,
          "velocity": 0.08661417322834646,
          "duration": 0.03260869565217206
        },
        {
          "name": "G1",
          "midi": 31,
          "time": 46.641304347824644,
          "velocity": 0.5196850393700787,
          "duration": 0.4239130434782581
        },
        {
          "name": "B4",
          "midi": 71,
          "time": 46.684782608694206,
          "velocity": 0.1968503937007874,
          "duration": 0.07608695652174191
        },
        {
          "name": "F#5",
          "midi": 78,
          "time": 46.91304347825943,
          "velocity": 0.2755905511811024,
          "duration": 0.08695652173912549
        },
        {
          "name": "G#5",
          "midi": 80,
          "time": 46.91304347825943,
          "velocity": 0.2283464566929134,
          "duration": 0.03260869565217206
        },
        {
          "name": "G6",
          "midi": 91,
          "time": 46.92391304347682,
          "velocity": 0.23622047244094488,
          "duration": 0.03260869565217206
        },
        {
          "name": "C7",
          "midi": 96,
          "time": 46.92391304347682,
          "velocity": 0.13385826771653545,
          "duration": 0.10869565217390686
        },
        {
          "name": "A4",
          "midi": 69,
          "time": 46.93478260869421,
          "velocity": 0.2204724409448819,
          "duration": 0.06521739130434412
        },
        {
          "name": "E5",
          "midi": 76,
          "time": 46.93478260869421,
          "velocity": 0.13385826771653545,
          "duration": 0.03260869565217206
        },
        {
          "name": "A6",
          "midi": 93,
          "time": 46.93478260869421,
          "velocity": 0.2204724409448819,
          "duration": 0.3369565217391113
        },
        {
          "name": "A5",
          "midi": 81,
          "time": 46.945652173911604,
          "velocity": 0.28346456692913385,
          "duration": 0.043478260869562746
        },
        {
          "name": "D7",
          "midi": 98,
          "time": 46.945652173911604,
          "velocity": 0.14173228346456693,
          "duration": 0.06521739130434412
        },
        {
          "name": "D#7",
          "midi": 99,
          "time": 46.945652173911604,
          "velocity": 0.2125984251968504,
          "duration": 0.2499999999999858
        },
        {
          "name": "E7",
          "midi": 100,
          "time": 46.945652173911604,
          "velocity": 0.2283464566929134,
          "duration": 0.28260869565215785
        },
        {
          "name": "C6",
          "midi": 84,
          "time": 46.956521739128995,
          "velocity": 0.16535433070866143,
          "duration": 0.03260869565217206
        },
        {
          "name": "G#6",
          "midi": 92,
          "time": 46.956521739128995,
          "velocity": 0.2283464566929134,
          "duration": 0.05434782608695343
        },
        {
          "name": "G7",
          "midi": 103,
          "time": 46.956521739128995,
          "velocity": 0.09448818897637795,
          "duration": 0.03260869565217206
        },
        {
          "name": "A#5",
          "midi": 82,
          "time": 46.98913043478117,
          "velocity": 0.3228346456692913,
          "duration": 0.09782608695651618
        },
        {
          "name": "A#4",
          "midi": 70,
          "time": 46.99999999999856,
          "velocity": 0.2047244094488189,
          "duration": 0.03260869565217206
        },
        {
          "name": "F7",
          "midi": 101,
          "time": 46.99999999999856,
          "velocity": 0.2125984251968504,
          "duration": 0.21739130434781373
        },
        {
          "name": "G5",
          "midi": 79,
          "time": 47.01086956521595,
          "velocity": 0.30708661417322836,
          "duration": 0.05434782608695343
        },
        {
          "name": "D#4",
          "midi": 63,
          "time": 47.02173913043334,
          "velocity": 0.13385826771653545,
          "duration": 0.05434782608695343
        },
        {
          "name": "F#7",
          "midi": 102,
          "time": 47.02173913043334,
          "velocity": 0.07086614173228346,
          "duration": 0.043478260869562746
        },
        {
          "name": "C#6",
          "midi": 85,
          "time": 47.03260869565073,
          "velocity": 0.14960629921259844,
          "duration": 0.043478260869562746
        },
        {
          "name": "D#6",
          "midi": 87,
          "time": 47.04347826086812,
          "velocity": 0.11811023622047244,
          "duration": 0.05434782608695343
        },
        {
          "name": "D7",
          "midi": 98,
          "time": 47.05434782608551,
          "velocity": 0.10236220472440945,
          "duration": 0.06521739130434412
        },
        {
          "name": "B5",
          "midi": 83,
          "time": 47.0652173913029,
          "velocity": 0.1732283464566929,
          "duration": 0.03260869565217206
        },
        {
          "name": "G#6",
          "midi": 92,
          "time": 47.0652173913029,
          "velocity": 0.2283464566929134,
          "duration": 0.05434782608695343
        },
        {
          "name": "G7",
          "midi": 103,
          "time": 47.0652173913029,
          "velocity": 0.1889763779527559,
          "duration": 0.03260869565217206
        },
        {
          "name": "E5",
          "midi": 76,
          "time": 47.07608695652029,
          "velocity": 0.16535433070866143,
          "duration": 0.043478260869562746
        },
        {
          "name": "E6",
          "midi": 88,
          "time": 47.07608695652029,
          "velocity": 0.25196850393700787,
          "duration": 0.18478260869564167
        },
        {
          "name": "F6",
          "midi": 89,
          "time": 47.07608695652029,
          "velocity": 0.13385826771653545,
          "duration": 0.03260869565217206
        },
        {
          "name": "C7",
          "midi": 96,
          "time": 47.07608695652029,
          "velocity": 0.07086614173228346,
          "duration": 0.043478260869562746
        },
        {
          "name": "A#3",
          "midi": 58,
          "time": 47.08695652173768,
          "velocity": 0.5433070866141733,
          "duration": 0.010869565217390686
        },
        {
          "name": "A4",
          "midi": 69,
          "time": 47.08695652173768,
          "velocity": 0.25984251968503935,
          "duration": 0.021739130434781373
        },
        {
          "name": "C#5",
          "midi": 73,
          "time": 47.08695652173768,
          "velocity": 0.1889763779527559,
          "duration": 0.03260869565217206
        },
        {
          "name": "A3",
          "midi": 57,
          "time": 47.097826086955074,
          "velocity": 0.5905511811023622,
          "duration": 0.043478260869562746
        },
        {
          "name": "F#6",
          "midi": 90,
          "time": 47.097826086955074,
          "velocity": 0.12598425196850394,
          "duration": 0.0760869565217348
        },
        {
          "name": "F#5",
          "midi": 78,
          "time": 47.108695652172464,
          "velocity": 0.2677165354330709,
          "duration": 0.10869565217390686
        },
        {
          "name": "D5",
          "midi": 74,
          "time": 47.119565217389855,
          "velocity": 0.14960629921259844,
          "duration": 0.09782608695651618
        },
        {
          "name": "C6",
          "midi": 84,
          "time": 47.119565217389855,
          "velocity": 0.18110236220472442,
          "duration": 0.043478260869562746
        },
        {
          "name": "C#7",
          "midi": 97,
          "time": 47.130434782607246,
          "velocity": 0.2047244094488189,
          "duration": 0.1521739130434696
        },
        {
          "name": "G#3",
          "midi": 56,
          "time": 47.14130434782464,
          "velocity": 0.48031496062992124,
          "duration": 0.043478260869562746
        },
        {
          "name": "D4",
          "midi": 62,
          "time": 47.14130434782464,
          "velocity": 0.12598425196850394,
          "duration": 0.08695652173912549
        },
        {
          "name": "G#6",
          "midi": 92,
          "time": 47.14130434782464,
          "velocity": 0.2755905511811024,
          "duration": 0.06521739130434412
        },
        {
          "name": "C7",
          "midi": 96,
          "time": 47.16304347825942,
          "velocity": 0.2047244094488189,
          "duration": 0.043478260869562746
        },
        {
          "name": "F#7",
          "midi": 102,
          "time": 47.16304347825942,
          "velocity": 0.14960629921259844,
          "duration": 0.043478260869562746
        },
        {
          "name": "C6",
          "midi": 84,
          "time": 47.17391304347681,
          "velocity": 0.1732283464566929,
          "duration": 0.03260869565217206
        },
        {
          "name": "G6",
          "midi": 91,
          "time": 47.20652173912898,
          "velocity": 0.1968503937007874,
          "duration": 0.08695652173912549
        },
        {
          "name": "G5",
          "midi": 79,
          "time": 47.21739130434637,
          "velocity": 0.2677165354330709,
          "duration": 0.14130434782607892
        },
        {
          "name": "C7",
          "midi": 96,
          "time": 47.22826086956376,
          "velocity": 0.1732283464566929,
          "duration": 0.08695652173912549
        },
        {
          "name": "A#5",
          "midi": 82,
          "time": 47.23913043478115,
          "velocity": 0.2204724409448819,
          "duration": 0.06521739130434412
        },
        {
          "name": "D#7",
          "midi": 99,
          "time": 47.23913043478115,
          "velocity": 0.1889763779527559,
          "duration": 0.0760869565217348
        },
        {
          "name": "G4",
          "midi": 67,
          "time": 47.24999999999854,
          "velocity": 0.18110236220472442,
          "duration": 0.05434782608695343
        },
        {
          "name": "C4",
          "midi": 60,
          "time": 47.260869565215934,
          "velocity": 0.1968503937007874,
          "duration": 0.05434782608695343
        },
        {
          "name": "E5",
          "midi": 76,
          "time": 47.260869565215934,
          "velocity": 0.1732283464566929,
          "duration": 0.06521739130434412
        },
        {
          "name": "C6",
          "midi": 84,
          "time": 47.260869565215934,
          "velocity": 0.11023622047244094,
          "duration": 0.05434782608695343
        },
        {
          "name": "B6",
          "midi": 95,
          "time": 47.260869565215934,
          "velocity": 0.12598425196850394,
          "duration": 0.05434782608695343
        },
        {
          "name": "D6",
          "midi": 86,
          "time": 47.271739130433325,
          "velocity": 0.16535433070866143,
          "duration": 0.05434782608695343
        },
        {
          "name": "A6",
          "midi": 93,
          "time": 47.293478260868106,
          "velocity": 0.15748031496062992,
          "duration": 0.03260869565217206
        },
        {
          "name": "A5",
          "midi": 81,
          "time": 47.3043478260855,
          "velocity": 0.08661417322834646,
          "duration": 0.03260869565217206
        },
        {
          "name": "D5",
          "midi": 74,
          "time": 47.53260869565071,
          "velocity": 0.1968503937007874,
          "duration": 0.08695652173912549
        },
        {
          "name": "F#5",
          "midi": 78,
          "time": 47.53260869565071,
          "velocity": 0.11811023622047244,
          "duration": 0.03260869565217206
        },
        {
          "name": "C6",
          "midi": 84,
          "time": 47.53260869565071,
          "velocity": 0.28346456692913385,
          "duration": 0.14130434782607892
        },
        {
          "name": "C7",
          "midi": 96,
          "time": 47.53260869565071,
          "velocity": 0.2992125984251969,
          "duration": 0.11956521739129755
        },
        {
          "name": "C#7",
          "midi": 97,
          "time": 47.53260869565071,
          "velocity": 0.2440944881889764,
          "duration": 0.08695652173912549
        },
        {
          "name": "F#7",
          "midi": 102,
          "time": 47.53260869565071,
          "velocity": 0.1968503937007874,
          "duration": 0.10869565217390686
        },
        {
          "name": "G7",
          "midi": 103,
          "time": 47.53260869565071,
          "velocity": 0.2283464566929134,
          "duration": 0.10869565217390686
        },
        {
          "name": "A4",
          "midi": 69,
          "time": 47.5434782608681,
          "velocity": 0.1732283464566929,
          "duration": 0.03260869565217206
        },
        {
          "name": "A5",
          "midi": 81,
          "time": 47.5434782608681,
          "velocity": 0.2204724409448819,
          "duration": 0.14130434782607892
        },
        {
          "name": "D6",
          "midi": 86,
          "time": 47.5434782608681,
          "velocity": 0.2204724409448819,
          "duration": 0.06521739130434412
        },
        {
          "name": "B6",
          "midi": 95,
          "time": 47.5434782608681,
          "velocity": 0.12598425196850394,
          "duration": 0.03260869565217206
        },
        {
          "name": "E6",
          "midi": 88,
          "time": 47.56521739130288,
          "velocity": 0.13385826771653545,
          "duration": 0.08695652173912549
        },
        {
          "name": "E7",
          "midi": 100,
          "time": 47.56521739130288,
          "velocity": 0.1889763779527559,
          "duration": 0.08695652173912549
        },
        {
          "name": "D4",
          "midi": 62,
          "time": 47.57608695652027,
          "velocity": 0.08661417322834646,
          "duration": 0.05434782608695343
        },
        {
          "name": "F#6",
          "midi": 90,
          "time": 47.57608695652027,
          "velocity": 0.16535433070866143,
          "duration": 0.08695652173912549
        },
        {
          "name": "A#6",
          "midi": 94,
          "time": 47.57608695652027,
          "velocity": 0.23622047244094488,
          "duration": 0.043478260869562746
        },
        {
          "name": "D#7",
          "midi": 99,
          "time": 47.57608695652027,
          "velocity": 0.1732283464566929,
          "duration": 0.0760869565217348
        },
        {
          "name": "G#6",
          "midi": 92,
          "time": 47.58695652173766,
          "velocity": 0.13385826771653545,
          "duration": 0.03260869565217206
        },
        {
          "name": "C7",
          "midi": 96,
          "time": 47.67391304347679,
          "velocity": 0.12598425196850394,
          "duration": 0.06521739130434412
        },
        {
          "name": "C#7",
          "midi": 97,
          "time": 47.73913043478113,
          "velocity": 0.2047244094488189,
          "duration": 0.2608695652173836
        },
        {
          "name": "C6",
          "midi": 84,
          "time": 47.836956521737655,
          "velocity": 0.2283464566929134,
          "duration": 0.09782608695651618
        },
        {
          "name": "F4",
          "midi": 65,
          "time": 47.847826086955045,
          "velocity": 0.2047244094488189,
          "duration": 0.14130434782607892
        },
        {
          "name": "A#6",
          "midi": 94,
          "time": 47.847826086955045,
          "velocity": 0.2283464566929134,
          "duration": 0.13043478260868824
        },
        {
          "name": "B6",
          "midi": 95,
          "time": 47.847826086955045,
          "velocity": 0.1968503937007874,
          "duration": 0.08695652173912549
        },
        {
          "name": "F7",
          "midi": 101,
          "time": 47.847826086955045,
          "velocity": 0.2125984251968504,
          "duration": 0.14130434782607892
        },
        {
          "name": "F#7",
          "midi": 102,
          "time": 47.847826086955045,
          "velocity": 0.13385826771653545,
          "duration": 0.13043478260868824
        },
        {
          "name": "D5",
          "midi": 74,
          "time": 47.858695652172436,
          "velocity": 0.16535433070866143,
          "duration": 0.11956521739129755
        },
        {
          "name": "G#5",
          "midi": 80,
          "time": 47.858695652172436,
          "velocity": 0.25984251968503935,
          "duration": 0.13043478260868824
        },
        {
          "name": "A#5",
          "midi": 82,
          "time": 47.858695652172436,
          "velocity": 0.25196850393700787,
          "duration": 0.14130434782607892
        },
        {
          "name": "A6",
          "midi": 93,
          "time": 47.858695652172436,
          "velocity": 0.2283464566929134,
          "duration": 0.14130434782607892
        },
        {
          "name": "D7",
          "midi": 98,
          "time": 47.858695652172436,
          "velocity": 0.18110236220472442,
          "duration": 0.11956521739129755
        },
        {
          "name": "E7",
          "midi": 100,
          "time": 47.858695652172436,
          "velocity": 0.15748031496062992,
          "duration": 0.13043478260868824
        },
        {
          "name": "F6",
          "midi": 89,
          "time": 47.902173913042,
          "velocity": 0.14960629921259844,
          "duration": 0.0760869565217348
        },
        {
          "name": "E6",
          "midi": 88,
          "time": 47.91304347825939,
          "velocity": 0.11023622047244094,
          "duration": 0.03260869565217206
        },
        {
          "name": "A#4",
          "midi": 70,
          "time": 47.92391304347678,
          "velocity": 0.08661417322834646,
          "duration": 0.043478260869562746
        },
        {
          "name": "B6",
          "midi": 95,
          "time": 47.978260869563734,
          "velocity": 0.14173228346456693,
          "duration": 0.05434782608695343
        },
        {
          "name": "F4",
          "midi": 65,
          "time": 48.1413043478246,
          "velocity": 0.1968503937007874,
          "duration": 0.043478260869562746
        },
        {
          "name": "G#5",
          "midi": 80,
          "time": 48.1413043478246,
          "velocity": 0.2283464566929134,
          "duration": 0.05434782608695343
        },
        {
          "name": "C#7",
          "midi": 97,
          "time": 48.1413043478246,
          "velocity": 0.1889763779527559,
          "duration": 0.09782608695651618
        },
        {
          "name": "A#3",
          "midi": 58,
          "time": 48.15217391304199,
          "velocity": 0.2047244094488189,
          "duration": 0.03260869565217206
        },
        {
          "name": "D5",
          "midi": 74,
          "time": 48.15217391304199,
          "velocity": 0.1968503937007874,
          "duration": 0.05434782608695343
        },
        {
          "name": "E6",
          "midi": 88,
          "time": 48.15217391304199,
          "velocity": 0.07874015748031496,
          "duration": 0.043478260869562746
        },
        {
          "name": "C7",
          "midi": 96,
          "time": 48.15217391304199,
          "velocity": 0.16535433070866143,
          "duration": 0.08695652173912549
        },
        {
          "name": "F#7",
          "midi": 102,
          "time": 48.15217391304199,
          "velocity": 0.18110236220472442,
          "duration": 0.06521739130434412
        },
        {
          "name": "A#5",
          "midi": 82,
          "time": 48.16304347825938,
          "velocity": 0.2047244094488189,
          "duration": 0.05434782608695343
        },
        {
          "name": "C6",
          "midi": 84,
          "time": 48.17391304347677,
          "velocity": 0.18110236220472442,
          "duration": 0.043478260869562746
        },
        {
          "name": "B6",
          "midi": 95,
          "time": 48.17391304347677,
          "velocity": 0.09448818897637795,
          "duration": 0.03260869565217206
        },
        {
          "name": "F1",
          "midi": 29,
          "time": 48.28260869565068,
          "velocity": 0.4015748031496063,
          "duration": 0.021739130434781373
        },
        {
          "name": "G#6",
          "midi": 92,
          "time": 48.29347826086807,
          "velocity": 0.1889763779527559,
          "duration": 0.10869565217390686
        },
        {
          "name": "D7",
          "midi": 98,
          "time": 48.29347826086807,
          "velocity": 0.25984251968503935,
          "duration": 0.06521739130434412
        },
        {
          "name": "F#7",
          "midi": 102,
          "time": 48.29347826086807,
          "velocity": 0.16535433070866143,
          "duration": 0.03260869565217206
        },
        {
          "name": "G1",
          "midi": 31,
          "time": 48.30434782608546,
          "velocity": 0.5196850393700787,
          "duration": 0.010869565217390686
        },
        {
          "name": "C4",
          "midi": 60,
          "time": 48.30434782608546,
          "velocity": 0.2992125984251969,
          "duration": 0.03260869565217206
        },
        {
          "name": "E5",
          "midi": 76,
          "time": 48.30434782608546,
          "velocity": 0.11811023622047244,
          "duration": 0.0760869565217348
        },
        {
          "name": "A#5",
          "midi": 82,
          "time": 48.30434782608546,
          "velocity": 0.1968503937007874,
          "duration": 0.08695652173912549
        },
        {
          "name": "C7",
          "midi": 96,
          "time": 48.30434782608546,
          "velocity": 0.08661417322834646,
          "duration": 0.05434782608695343
        },
        {
          "name": "G#1",
          "midi": 32,
          "time": 48.31521739130285,
          "velocity": 0.5354330708661418,
          "duration": 0.03260869565217206
        },
        {
          "name": "G6",
          "midi": 91,
          "time": 48.31521739130285,
          "velocity": 0.2125984251968504,
          "duration": 0.06521739130434412
        },
        {
          "name": "C#5",
          "midi": 73,
          "time": 48.32608695652024,
          "velocity": 0.09448818897637795,
          "duration": 0.05434782608695343
        },
        {
          "name": "F#5",
          "midi": 78,
          "time": 48.32608695652024,
          "velocity": 0.2125984251968504,
          "duration": 0.06521739130434412
        },
        {
          "name": "G#5",
          "midi": 80,
          "time": 48.32608695652024,
          "velocity": 0.2204724409448819,
          "duration": 0.06521739130434412
        },
        {
          "name": "C6",
          "midi": 84,
          "time": 48.32608695652024,
          "velocity": 0.11811023622047244,
          "duration": 0.06521739130434412
        },
        {
          "name": "D6",
          "midi": 86,
          "time": 48.32608695652024,
          "velocity": 0.14173228346456693,
          "duration": 0.05434782608695343
        },
        {
          "name": "G1",
          "midi": 31,
          "time": 48.347826086955024,
          "velocity": 0.5433070866141733,
          "duration": 0.0760869565217348
        },
        {
          "name": "F6",
          "midi": 89,
          "time": 48.369565217389805,
          "velocity": 0.11811023622047244,
          "duration": 0.03260869565217206
        },
        {
          "name": "D3",
          "midi": 50,
          "time": 48.40217391304198,
          "velocity": 0.2283464566929134,
          "duration": 0.021739130434781373
        },
        {
          "name": "E6",
          "midi": 88,
          "time": 48.41304347825937,
          "velocity": 0.14173228346456693,
          "duration": 0.03260869565217206
        },
        {
          "name": "C7",
          "midi": 96,
          "time": 48.43478260869415,
          "velocity": 0.14173228346456693,
          "duration": 0.09782608695651618
        },
        {
          "name": "A#1",
          "midi": 34,
          "time": 48.44565217391154,
          "velocity": 0.4251968503937008,
          "duration": 0.021739130434781373
        },
        {
          "name": "F#6",
          "midi": 90,
          "time": 48.45652173912893,
          "velocity": 0.2125984251968504,
          "duration": 0.043478260869562746
        },
        {
          "name": "D7",
          "midi": 98,
          "time": 48.45652173912893,
          "velocity": 0.2283464566929134,
          "duration": 0.05434782608695343
        },
        {
          "name": "G1",
          "midi": 31,
          "time": 48.46739130434632,
          "velocity": 0.5354330708661418,
          "duration": 0.0760869565217348
        },
        {
          "name": "C4",
          "midi": 60,
          "time": 48.46739130434632,
          "velocity": 0.2755905511811024,
          "duration": 0.03260869565217206
        },
        {
          "name": "F6",
          "midi": 89,
          "time": 48.46739130434632,
          "velocity": 0.09448818897637795,
          "duration": 0.043478260869562746
        },
        {
          "name": "A#5",
          "midi": 82,
          "time": 48.47826086956371,
          "velocity": 0.2677165354330709,
          "duration": 0.06521739130434412
        },
        {
          "name": "C6",
          "midi": 84,
          "time": 48.47826086956371,
          "velocity": 0.12598425196850394,
          "duration": 0.06521739130434412
        },
        {
          "name": "D#5",
          "midi": 75,
          "time": 48.4891304347811,
          "velocity": 0.23622047244094488,
          "duration": 0.05434782608695343
        },
        {
          "name": "G#5",
          "midi": 80,
          "time": 48.4891304347811,
          "velocity": 0.2125984251968504,
          "duration": 0.05434782608695343
        },
        {
          "name": "F#5",
          "midi": 78,
          "time": 48.499999999998494,
          "velocity": 0.12598425196850394,
          "duration": 0.03260869565217206
        },
        {
          "name": "G1",
          "midi": 31,
          "time": 48.55434782608545,
          "velocity": 0.4566929133858268,
          "duration": 0.03260869565217206
        },
        {
          "name": "F#6",
          "midi": 90,
          "time": 48.59782608695501,
          "velocity": 0.14960629921259844,
          "duration": 0.06521739130434412
        },
        {
          "name": "G1",
          "midi": 31,
          "time": 48.6086956521724,
          "velocity": 0.5354330708661418,
          "duration": 0.10869565217390686
        },
        {
          "name": "C4",
          "midi": 60,
          "time": 48.61956521738979,
          "velocity": 0.2992125984251969,
          "duration": 0.03260869565217206
        },
        {
          "name": "F#5",
          "midi": 78,
          "time": 48.61956521738979,
          "velocity": 0.2283464566929134,
          "duration": 0.08695652173912549
        },
        {
          "name": "A#5",
          "midi": 82,
          "time": 48.61956521738979,
          "velocity": 0.16535433070866143,
          "duration": 0.043478260869562746
        },
        {
          "name": "C6",
          "midi": 84,
          "time": 48.61956521738979,
          "velocity": 0.2125984251968504,
          "duration": 0.14130434782607892
        },
        {
          "name": "G6",
          "midi": 91,
          "time": 48.61956521738979,
          "velocity": 0.13385826771653545,
          "duration": 0.10869565217390686
        },
        {
          "name": "G#6",
          "midi": 92,
          "time": 48.61956521738979,
          "velocity": 0.09448818897637795,
          "duration": 0.09782608695651618
        },
        {
          "name": "D7",
          "midi": 98,
          "time": 48.61956521738979,
          "velocity": 0.12598425196850394,
          "duration": 0.09782608695651618
        },
        {
          "name": "E5",
          "midi": 76,
          "time": 48.63043478260718,
          "velocity": 0.2440944881889764,
          "duration": 0.06521739130434412
        },
        {
          "name": "E7",
          "midi": 100,
          "time": 48.63043478260718,
          "velocity": 0.13385826771653545,
          "duration": 0.0760869565217348
        },
        {
          "name": "C#5",
          "midi": 73,
          "time": 48.64130434782457,
          "velocity": 0.08661417322834646,
          "duration": 0.03260869565217206
        },
        {
          "name": "F6",
          "midi": 89,
          "time": 48.64130434782457,
          "velocity": 0.15748031496062992,
          "duration": 0.043478260869562746
        },
        {
          "name": "G#5",
          "midi": 80,
          "time": 48.65217391304196,
          "velocity": 0.11811023622047244,
          "duration": 0.043478260869562746
        },
        {
          "name": "F#7",
          "midi": 102,
          "time": 48.73913043478109,
          "velocity": 0.08661417322834646,
          "duration": 0.11956521739129755
        },
        {
          "name": "G#6",
          "midi": 92,
          "time": 48.74999999999848,
          "velocity": 0.15748031496062992,
          "duration": 0.06521739130434412
        },
        {
          "name": "C#7",
          "midi": 97,
          "time": 48.74999999999848,
          "velocity": 0.07086614173228346,
          "duration": 0.043478260869562746
        },
        {
          "name": "C4",
          "midi": 60,
          "time": 48.76086956521587,
          "velocity": 0.2677165354330709,
          "duration": 0.03260869565217206
        },
        {
          "name": "F#6",
          "midi": 90,
          "time": 48.76086956521587,
          "velocity": 0.15748031496062992,
          "duration": 0.06521739130434412
        },
        {
          "name": "G1",
          "midi": 31,
          "time": 48.77173913043326,
          "velocity": 0.5354330708661418,
          "duration": 0.0760869565217348
        },
        {
          "name": "G#5",
          "midi": 80,
          "time": 48.77173913043326,
          "velocity": 0.1968503937007874,
          "duration": 0.06521739130434412
        },
        {
          "name": "A#5",
          "midi": 82,
          "time": 48.77173913043326,
          "velocity": 0.2755905511811024,
          "duration": 0.09782608695651618
        },
        {
          "name": "C6",
          "midi": 84,
          "time": 48.77173913043326,
          "velocity": 0.13385826771653545,
          "duration": 0.06521739130434412
        },
        {
          "name": "E6",
          "midi": 88,
          "time": 48.77173913043326,
          "velocity": 0.10236220472440945,
          "duration": 0.03260869565217206
        },
        {
          "name": "D#5",
          "midi": 75,
          "time": 48.79347826086804,
          "velocity": 0.25196850393700787,
          "duration": 0.06521739130434412
        },
        {
          "name": "F#5",
          "midi": 78,
          "time": 48.79347826086804,
          "velocity": 0.2047244094488189,
          "duration": 0.05434782608695343
        },
        {
          "name": "F6",
          "midi": 89,
          "time": 48.80434782608543,
          "velocity": 0.13385826771653545,
          "duration": 0.05434782608695343
        },
        {
          "name": "G6",
          "midi": 91,
          "time": 48.80434782608543,
          "velocity": 0.08661417322834646,
          "duration": 0.05434782608695343
        },
        {
          "name": "E7",
          "midi": 100,
          "time": 48.80434782608543,
          "velocity": 0.10236220472440945,
          "duration": 0.03260869565217206
        },
        {
          "name": "C7",
          "midi": 96,
          "time": 48.815217391302824,
          "velocity": 0.2125984251968504,
          "duration": 0.0760869565217348
        },
        {
          "name": "C#7",
          "midi": 97,
          "time": 48.826086956520214,
          "velocity": 0.12598425196850394,
          "duration": 0.09782608695651618
        },
        {
          "name": "G1",
          "midi": 31,
          "time": 48.858695652172386,
          "velocity": 0.4566929133858268,
          "duration": 0.021739130434781373
        },
        {
          "name": "B5",
          "midi": 83,
          "time": 48.86956521738978,
          "velocity": 0.09448818897637795,
          "duration": 0.03260869565217206
        },
        {
          "name": "D4",
          "midi": 62,
          "time": 48.91304347825934,
          "velocity": 0.23622047244094488,
          "duration": 0.03260869565217206
        },
        {
          "name": "B4",
          "midi": 71,
          "time": 48.93478260869412,
          "velocity": 0.07874015748031496,
          "duration": 0.043478260869562746
        },
        {
          "name": "G4",
          "midi": 67,
          "time": 48.9565217391289,
          "velocity": 0.1968503937007874,
          "duration": 0.08695652173912549
        },
        {
          "name": "D5",
          "midi": 74,
          "time": 48.989130434781075,
          "velocity": 0.12598425196850394,
          "duration": 0.06521739130434412
        },
        {
          "name": "B4",
          "midi": 71,
          "time": 49.010869565215856,
          "velocity": 0.23622047244094488,
          "duration": 0.08695652173912549
        },
        {
          "name": "D3",
          "midi": 50,
          "time": 49.02173913043325,
          "velocity": 0.16535433070866143,
          "duration": 0.2499999999999858
        },
        {
          "name": "D4",
          "midi": 62,
          "time": 49.04347826086803,
          "velocity": 0.2755905511811024,
          "duration": 0.2499999999999858
        },
        {
          "name": "G5",
          "midi": 79,
          "time": 49.0760869565202,
          "velocity": 0.2204724409448819,
          "duration": 0.1521739130434696
        },
        {
          "name": "D7",
          "midi": 98,
          "time": 49.0760869565202,
          "velocity": 0.13385826771653545,
          "duration": 0.08695652173912549
        },
        {
          "name": "G4",
          "midi": 67,
          "time": 49.09782608695498,
          "velocity": 0.25984251968503935,
          "duration": 0.18478260869564167
        },
        {
          "name": "B4",
          "midi": 71,
          "time": 49.13043478260715,
          "velocity": 0.14173228346456693,
          "duration": 0.05434782608695343
        },
        {
          "name": "B4",
          "midi": 71,
          "time": 49.20652173912889,
          "velocity": 0.09448818897637795,
          "duration": 0.043478260869562746
        },
        {
          "name": "F7",
          "midi": 101,
          "time": 49.21739130434628,
          "velocity": 0.18110236220472442,
          "duration": 0.08695652173912549
        },
        {
          "name": "A#5",
          "midi": 82,
          "time": 49.22826086956367,
          "velocity": 0.13385826771653545,
          "duration": 0.09782608695651618
        },
        {
          "name": "F7",
          "midi": 101,
          "time": 49.34782608695497,
          "velocity": 0.12598425196850394,
          "duration": 0.06521739130435122
        },
        {
          "name": "E7",
          "midi": 100,
          "time": 49.44565217391149,
          "velocity": 0.1732283464566929,
          "duration": 0.05434782608695343
        },
        {
          "name": "A5",
          "midi": 81,
          "time": 49.45652173912888,
          "velocity": 0.12598425196850394,
          "duration": 0.11956521739130466
        },
        {
          "name": "G5",
          "midi": 79,
          "time": 49.67391304347671,
          "velocity": 0.25984251968503935,
          "duration": 0.1739130434782581
        },
        {
          "name": "D7",
          "midi": 98,
          "time": 49.6847826086941,
          "velocity": 0.1889763779527559,
          "duration": 0.10869565217391397
        },
        {
          "name": "F7",
          "midi": 101,
          "time": 49.826086956520186,
          "velocity": 0.23622047244094488,
          "duration": 0.09782608695652328
        },
        {
          "name": "A#5",
          "midi": 82,
          "time": 49.83695652173758,
          "velocity": 0.16535433070866143,
          "duration": 0.10869565217391397
        },
        {
          "name": "F7",
          "midi": 101,
          "time": 49.95652173912888,
          "velocity": 0.13385826771653545,
          "duration": 0.0869565217391326
        },
        {
          "name": "A5",
          "midi": 81,
          "time": 50.065217391302795,
          "velocity": 0.1968503937007874,
          "duration": 0.14130434782608603
        },
        {
          "name": "E7",
          "midi": 100,
          "time": 50.065217391302795,
          "velocity": 0.1732283464566929,
          "duration": 0.1630434782608674
        },
        {
          "name": "G#4",
          "midi": 68,
          "time": 50.14130434782454,
          "velocity": 0.15748031496062992,
          "duration": 0.03260869565217206
        },
        {
          "name": "D#4",
          "midi": 63,
          "time": 50.15217391304193,
          "velocity": 0.25984251968503935,
          "duration": 0.021739130434781373
        },
        {
          "name": "B4",
          "midi": 71,
          "time": 50.15217391304193,
          "velocity": 0.07874015748031496,
          "duration": 0.043478260869562746
        },
        {
          "name": "G4",
          "midi": 67,
          "time": 50.17391304347671,
          "velocity": 0.2440944881889764,
          "duration": 0.08695652173912549
        },
        {
          "name": "D3",
          "midi": 50,
          "time": 50.21739130434627,
          "velocity": 0.18110236220472442,
          "duration": 0.2608695652173765
        },
        {
          "name": "B4",
          "midi": 71,
          "time": 50.22826086956366,
          "velocity": 0.2440944881889764,
          "duration": 0.09782608695651618
        },
        {
          "name": "D5",
          "midi": 74,
          "time": 50.23913043478105,
          "velocity": 0.14173228346456693,
          "duration": 0.043478260869562746
        },
        {
          "name": "G5",
          "midi": 79,
          "time": 50.249999999998444,
          "velocity": 0.31496062992125984,
          "duration": 0.20652173913042304
        },
        {
          "name": "E7",
          "midi": 100,
          "time": 50.249999999998444,
          "velocity": 0.08661417322834646,
          "duration": 0.03260869565217206
        },
        {
          "name": "D4",
          "midi": 62,
          "time": 50.260869565215835,
          "velocity": 0.28346456692913385,
          "duration": 0.2499999999999858
        },
        {
          "name": "A5",
          "midi": 81,
          "time": 50.271739130433225,
          "velocity": 0.08661417322834646,
          "duration": 0.03260869565217206
        },
        {
          "name": "D7",
          "midi": 98,
          "time": 50.282608695650616,
          "velocity": 0.2283464566929134,
          "duration": 0.10869565217390686
        },
        {
          "name": "G4",
          "midi": 67,
          "time": 50.29347826086801,
          "velocity": 0.25984251968503935,
          "duration": 0.20652173913042304
        },
        {
          "name": "B5",
          "midi": 83,
          "time": 50.33695652173757,
          "velocity": 0.10236220472440945,
          "duration": 0.10869565217390686
        },
        {
          "name": "B4",
          "midi": 71,
          "time": 50.34782608695496,
          "velocity": 0.16535433070866143,
          "duration": 0.11956521739129755
        },
        {
          "name": "D#6",
          "midi": 87,
          "time": 50.34782608695496,
          "velocity": 0.10236220472440945,
          "duration": 0.08695652173912549
        },
        {
          "name": "F5",
          "midi": 77,
          "time": 50.423913043476695,
          "velocity": 0.08661417322834646,
          "duration": 0.03260869565217206
        },
        {
          "name": "A#5",
          "midi": 82,
          "time": 50.445652173911476,
          "velocity": 0.18110236220472442,
          "duration": 0.09782608695651618
        },
        {
          "name": "F7",
          "midi": 101,
          "time": 50.445652173911476,
          "velocity": 0.2047244094488189,
          "duration": 0.09782608695651618
        },
        {
          "name": "A4",
          "midi": 69,
          "time": 50.46739130434626,
          "velocity": 0.10236220472440945,
          "duration": 0.043478260869562746
        },
        {
          "name": "F7",
          "midi": 101,
          "time": 50.565217391302774,
          "velocity": 0.14960629921259844,
          "duration": 0.09782608695651618
        },
        {
          "name": "D#6",
          "midi": 87,
          "time": 50.576086956520165,
          "velocity": 0.10236220472440945,
          "duration": 0.05434782608695343
        },
        {
          "name": "A5",
          "midi": 81,
          "time": 50.64130434782451,
          "velocity": 0.2440944881889764,
          "duration": 0.1630434782608674
        },
        {
          "name": "E7",
          "midi": 100,
          "time": 50.67391304347668,
          "velocity": 0.1889763779527559,
          "duration": 0.0869565217391326
        },
        {
          "name": "E7",
          "midi": 100,
          "time": 50.804347826085376,
          "velocity": 0.13385826771653545,
          "duration": 0.06521739130435122
        },
        {
          "name": "G5",
          "midi": 79,
          "time": 50.89130434782451,
          "velocity": 0.29133858267716534,
          "duration": 0.1739130434782652
        },
        {
          "name": "D7",
          "midi": 98,
          "time": 50.9021739130419,
          "velocity": 0.25196850393700787,
          "duration": 0.09782608695652328
        },
        {
          "name": "F5",
          "midi": 77,
          "time": 51.065217391302774,
          "velocity": 0.23622047244094488,
          "duration": 0.05434782608695343
        },
        {
          "name": "F7",
          "midi": 101,
          "time": 51.065217391302774,
          "velocity": 0.14960629921259844,
          "duration": 0.05434782608695343
        },
        {
          "name": "A#5",
          "midi": 82,
          "time": 51.076086956520165,
          "velocity": 0.15748031496062992,
          "duration": 0.043478260869562746
        },
        {
          "name": "C7",
          "midi": 96,
          "time": 51.076086956520165,
          "velocity": 0.10236220472440945,
          "duration": 0.08695652173912549
        },
        {
          "name": "A#4",
          "midi": 70,
          "time": 51.086956521737555,
          "velocity": 0.07086614173228346,
          "duration": 0.043478260869562746
        },
        {
          "name": "F#4",
          "midi": 66,
          "time": 51.097826086954946,
          "velocity": 0.1889763779527559,
          "duration": 0.08695652173912549
        },
        {
          "name": "C#5",
          "midi": 73,
          "time": 51.11956521738973,
          "velocity": 0.12598425196850394,
          "duration": 0.03260869565217206
        },
        {
          "name": "C#3",
          "midi": 49,
          "time": 51.13043478260712,
          "velocity": 0.1732283464566929,
          "duration": 0.2391304347826022
        },
        {
          "name": "F5",
          "midi": 77,
          "time": 51.13043478260712,
          "velocity": 0.2440944881889764,
          "duration": 0.06521739130434412
        },
        {
          "name": "A#4",
          "midi": 70,
          "time": 51.14130434782451,
          "velocity": 0.2047244094488189,
          "duration": 0.06521739130434412
        },
        {
          "name": "C#5",
          "midi": 73,
          "time": 51.16304347825929,
          "velocity": 0.15748031496062992,
          "duration": 0.043478260869562746
        },
        {
          "name": "F7",
          "midi": 101,
          "time": 51.18478260869407,
          "velocity": 0.08661417322834646,
          "duration": 0.0760869565217348
        },
        {
          "name": "C#4",
          "midi": 61,
          "time": 51.19565217391146,
          "velocity": 0.30708661417322836,
          "duration": 0.15217391304347672
        },
        {
          "name": "B4",
          "midi": 71,
          "time": 51.20652173912885,
          "velocity": 0.14960629921259844,
          "duration": 0.05434782608695343
        },
        {
          "name": "G5",
          "midi": 79,
          "time": 51.21739130434624,
          "velocity": 0.25196850393700787,
          "duration": 0.22826086956521152
        },
        {
          "name": "D7",
          "midi": 98,
          "time": 51.21739130434624,
          "velocity": 0.09448818897637795,
          "duration": 0.043478260869562746
        },
        {
          "name": "E7",
          "midi": 100,
          "time": 51.21739130434624,
          "velocity": 0.1889763779527559,
          "duration": 0.13043478260869534
        },
        {
          "name": "F#4",
          "midi": 66,
          "time": 51.249999999998415,
          "velocity": 0.2440944881889764,
          "duration": 0.13043478260869534
        },
        {
          "name": "A5",
          "midi": 81,
          "time": 51.249999999998415,
          "velocity": 0.1889763779527559,
          "duration": 0.18478260869564878
        },
        {
          "name": "A#4",
          "midi": 70,
          "time": 51.260869565215806,
          "velocity": 0.1889763779527559,
          "duration": 0.09782608695652328
        },
        {
          "name": "D#4",
          "midi": 63,
          "time": 51.36956521738972,
          "velocity": 0.2677165354330709,
          "duration": 0.021739130434781373
        },
        {
          "name": "B4",
          "midi": 71,
          "time": 51.36956521738972,
          "velocity": 0.11811023622047244,
          "duration": 0.03260869565217206
        },
        {
          "name": "F5",
          "midi": 77,
          "time": 51.36956521738972,
          "velocity": 0.11811023622047244,
          "duration": 0.03260869565217206
        },
        {
          "name": "G4",
          "midi": 67,
          "time": 51.40217391304189,
          "velocity": 0.1889763779527559,
          "duration": 0.13043478260868824
        },
        {
          "name": "D5",
          "midi": 74,
          "time": 51.423913043476674,
          "velocity": 0.14960629921259844,
          "duration": 0.09782608695651618
        },
        {
          "name": "D3",
          "midi": 50,
          "time": 51.434782608694064,
          "velocity": 0.16535433070866143,
          "duration": 0.27173913043476716
        },
        {
          "name": "D4",
          "midi": 62,
          "time": 51.434782608694064,
          "velocity": 0.28346456692913385,
          "duration": 0.3043478260869392
        },
        {
          "name": "B4",
          "midi": 71,
          "time": 51.445652173911455,
          "velocity": 0.23622047244094488,
          "duration": 0.10869565217390686
        },
        {
          "name": "G5",
          "midi": 79,
          "time": 51.456521739128846,
          "velocity": 0.3464566929133858,
          "duration": 0.2499999999999858
        },
        {
          "name": "D7",
          "midi": 98,
          "time": 51.5108695652158,
          "velocity": 0.2125984251968504,
          "duration": 0.18478260869564167
        },
        {
          "name": "F5",
          "midi": 77,
          "time": 51.52173913043319,
          "velocity": 0.12598425196850394,
          "duration": 0.043478260869562746
        },
        {
          "name": "G4",
          "midi": 67,
          "time": 51.54347826086797,
          "velocity": 0.28346456692913385,
          "duration": 0.1521739130434696
        },
        {
          "name": "C#6",
          "midi": 85,
          "time": 51.56521739130275,
          "velocity": 0.11811023622047244,
          "duration": 0.0760869565217348
        },
        {
          "name": "B4",
          "midi": 71,
          "time": 51.57608695652014,
          "velocity": 0.1968503937007874,
          "duration": 0.11956521739129755
        },
        {
          "name": "D#6",
          "midi": 87,
          "time": 51.586956521737534,
          "velocity": 0.11023622047244094,
          "duration": 0.05434782608695343
        },
        {
          "name": "F5",
          "midi": 77,
          "time": 51.65217391304188,
          "velocity": 0.11811023622047244,
          "duration": 0.06521739130434412
        },
        {
          "name": "F7",
          "midi": 101,
          "time": 51.66304347825927,
          "velocity": 0.2047244094488189,
          "duration": 0.10869565217390686
        },
        {
          "name": "A#5",
          "midi": 82,
          "time": 51.67391304347666,
          "velocity": 0.15748031496062992,
          "duration": 0.09782608695651618
        },
        {
          "name": "F4",
          "midi": 65,
          "time": 51.68478260869405,
          "velocity": 0.14960629921259844,
          "duration": 0.03260869565217206
        },
        {
          "name": "D#6",
          "midi": 87,
          "time": 51.81521739130274,
          "velocity": 0.10236220472440945,
          "duration": 0.043478260869562746
        },
        {
          "name": "G#6",
          "midi": 92,
          "time": 51.8586956521723,
          "velocity": 0.07874015748031496,
          "duration": 0.03260869565217206
        },
        {
          "name": "A5",
          "midi": 81,
          "time": 51.89130434782447,
          "velocity": 0.1732283464566929,
          "duration": 0.09782608695651618
        },
        {
          "name": "A#5",
          "midi": 82,
          "time": 51.89130434782447,
          "velocity": 0.15748031496062992,
          "duration": 0.05434782608695343
        },
        {
          "name": "E7",
          "midi": 100,
          "time": 51.902173913041864,
          "velocity": 0.1889763779527559,
          "duration": 0.09782608695651618
        },
        {
          "name": "G#4",
          "midi": 68,
          "time": 51.95652173912882,
          "velocity": 0.07874015748031496,
          "duration": 0.043478260869562746
        },
        {
          "name": "G5",
          "midi": 79,
          "time": 51.9782608695636,
          "velocity": 0.11023622047244094,
          "duration": 0.05434782608695343
        },
        {
          "name": "E7",
          "midi": 100,
          "time": 52.02173913043316,
          "velocity": 0.15748031496062992,
          "duration": 0.03260869565217206
        },
        {
          "name": "G5",
          "midi": 79,
          "time": 52.119565217389685,
          "velocity": 0.3543307086614173,
          "duration": 0.13043478260868824
        },
        {
          "name": "D7",
          "midi": 98,
          "time": 52.119565217389685,
          "velocity": 0.1968503937007874,
          "duration": 0.18478260869564167
        },
        {
          "name": "G#6",
          "midi": 92,
          "time": 52.15217391304186,
          "velocity": 0.09448818897637795,
          "duration": 0.043478260869562746
        },
        {
          "name": "F7",
          "midi": 101,
          "time": 52.282608695650545,
          "velocity": 0.2125984251968504,
          "duration": 0.09782608695652328
        },
        {
          "name": "A#5",
          "midi": 82,
          "time": 52.293478260867936,
          "velocity": 0.1889763779527559,
          "duration": 0.10869565217391397
        },
        {
          "name": "A#5",
          "midi": 82,
          "time": 52.44565217391141,
          "velocity": 0.09448818897637795,
          "duration": 0.043478260869562746
        },
        {
          "name": "C7",
          "midi": 96,
          "time": 52.44565217391141,
          "velocity": 0.07086614173228346,
          "duration": 0.06521739130434412
        },
        {
          "name": "F7",
          "midi": 101,
          "time": 52.44565217391141,
          "velocity": 0.16535433070866143,
          "duration": 0.043478260869562746
        },
        {
          "name": "A5",
          "midi": 81,
          "time": 52.499999999998366,
          "velocity": 0.1889763779527559,
          "duration": 0.15217391304347672
        },
        {
          "name": "E7",
          "midi": 100,
          "time": 52.510869565215756,
          "velocity": 0.2125984251968504,
          "duration": 0.11956521739130466
        },
        {
          "name": "G#4",
          "midi": 68,
          "time": 52.52173913043315,
          "velocity": 0.07874015748031496,
          "duration": 0.06521739130435122
        },
        {
          "name": "D#4",
          "midi": 63,
          "time": 52.5869565217375,
          "velocity": 0.2283464566929134,
          "duration": 0.021739130434781373
        },
        {
          "name": "D4",
          "midi": 62,
          "time": 52.60869565217228,
          "velocity": 0.2283464566929134,
          "duration": 0.03260869565217206
        },
        {
          "name": "G4",
          "midi": 67,
          "time": 52.61956521738967,
          "velocity": 0.18110236220472442,
          "duration": 0.08695652173912549
        },
        {
          "name": "G5",
          "midi": 79,
          "time": 52.63043478260706,
          "velocity": 0.2047244094488189,
          "duration": 0.043478260869562746
        },
        {
          "name": "A#6",
          "midi": 94,
          "time": 52.64130434782445,
          "velocity": 0.07874015748031496,
          "duration": 0.05434782608695343
        },
        {
          "name": "D3",
          "midi": 50,
          "time": 52.673913043476624,
          "velocity": 0.16535433070866143,
          "duration": 0.08695652173912549
        },
        {
          "name": "B4",
          "midi": 71,
          "time": 52.673913043476624,
          "velocity": 0.2440944881889764,
          "duration": 0.09782608695651618
        },
        {
          "name": "D#6",
          "midi": 87,
          "time": 52.673913043476624,
          "velocity": 0.10236220472440945,
          "duration": 0.13043478260868824
        },
        {
          "name": "D5",
          "midi": 74,
          "time": 52.684782608694015,
          "velocity": 0.14960629921259844,
          "duration": 0.043478260869562746
        },
        {
          "name": "F5",
          "midi": 77,
          "time": 52.684782608694015,
          "velocity": 0.07086614173228346,
          "duration": 0.03260869565217206
        },
        {
          "name": "D4",
          "midi": 62,
          "time": 52.71739130434619,
          "velocity": 0.2677165354330709,
          "duration": 0.2391304347825951
        },
        {
          "name": "G5",
          "midi": 79,
          "time": 52.72826086956358,
          "velocity": 0.31496062992125984,
          "duration": 0.2499999999999858
        },
        {
          "name": "A#6",
          "midi": 94,
          "time": 52.73913043478097,
          "velocity": 0.12598425196850394,
          "duration": 0.06521739130434412
        },
        {
          "name": "D7",
          "midi": 98,
          "time": 52.73913043478097,
          "velocity": 0.25196850393700787,
          "duration": 0.09782608695651618
        },
        {
          "name": "C6",
          "midi": 84,
          "time": 52.74999999999836,
          "velocity": 0.07874015748031496,
          "duration": 0.03260869565217206
        },
        {
          "name": "G4",
          "midi": 67,
          "time": 52.76086956521575,
          "velocity": 0.25196850393700787,
          "duration": 0.18478260869564167
        },
        {
          "name": "D3",
          "midi": 50,
          "time": 52.77173913043314,
          "velocity": 0.14960629921259844,
          "duration": 0.1630434782608603
        },
        {
          "name": "B5",
          "midi": 83,
          "time": 52.78260869565053,
          "velocity": 0.09448818897637795,
          "duration": 0.06521739130434412
        },
        {
          "name": "B4",
          "midi": 71,
          "time": 52.79347826086792,
          "velocity": 0.1968503937007874,
          "duration": 0.043478260869562746
        },
        {
          "name": "A#5",
          "midi": 82,
          "time": 52.8152173913027,
          "velocity": 0.1732283464566929,
          "duration": 0.05434782608695343
        },
        {
          "name": "D7",
          "midi": 98,
          "time": 52.858695652172266,
          "velocity": 0.16535433070866143,
          "duration": 0.05434782608695343
        },
        {
          "name": "B4",
          "midi": 71,
          "time": 52.869565217389656,
          "velocity": 0.10236220472440945,
          "duration": 0.05434782608695343
        },
        {
          "name": "B5",
          "midi": 83,
          "time": 52.869565217389656,
          "velocity": 0.10236220472440945,
          "duration": 0.043478260869562746
        },
        {
          "name": "A#5",
          "midi": 82,
          "time": 52.89130434782444,
          "velocity": 0.28346456692913385,
          "duration": 0.11956521739129755
        },
        {
          "name": "F7",
          "midi": 101,
          "time": 52.89130434782444,
          "velocity": 0.2204724409448819,
          "duration": 0.22826086956520442
        },
        {
          "name": "A#4",
          "midi": 70,
          "time": 53.010869565215735,
          "velocity": 0.08661417322834646,
          "duration": 0.03260869565217206
        },
        {
          "name": "C#7",
          "midi": 97,
          "time": 53.0543478260853,
          "velocity": 0.07086614173228346,
          "duration": 0.03260869565217206
        },
        {
          "name": "C6",
          "midi": 84,
          "time": 53.11956521738964,
          "velocity": 0.1968503937007874,
          "duration": 0.11956521739130466
        },
        {
          "name": "G7",
          "midi": 103,
          "time": 53.11956521738964,
          "velocity": 0.16535433070866143,
          "duration": 0.0869565217391326
        },
        {
          "name": "E6",
          "midi": 88,
          "time": 53.195652173911384,
          "velocity": 0.08661417322834646,
          "duration": 0.03260869565217206
        },
        {
          "name": "A#5",
          "midi": 82,
          "time": 53.206521739128775,
          "velocity": 0.11023622047244094,
          "duration": 0.03260869565217206
        },
        {
          "name": "D6",
          "midi": 86,
          "time": 53.217391304346165,
          "velocity": 0.07086614173228346,
          "duration": 0.043478260869562746
        },
        {
          "name": "D5",
          "midi": 74,
          "time": 53.228260869563556,
          "velocity": 0.07874015748031496,
          "duration": 0.043478260869562746
        },
        {
          "name": "C7",
          "midi": 96,
          "time": 53.26086956521573,
          "velocity": 0.14173228346456693,
          "duration": 0.10869565217390686
        },
        {
          "name": "C6",
          "midi": 84,
          "time": 53.28260869565051,
          "velocity": 0.10236220472440945,
          "duration": 0.03260869565217206
        },
        {
          "name": "G5",
          "midi": 79,
          "time": 53.33695652173746,
          "velocity": 0.18110236220472442,
          "duration": 0.0760869565217348
        },
        {
          "name": "C6",
          "midi": 84,
          "time": 53.33695652173746,
          "velocity": 0.2755905511811024,
          "duration": 0.1630434782608603
        },
        {
          "name": "D7",
          "midi": 98,
          "time": 53.34782608695485,
          "velocity": 0.12598425196850394,
          "duration": 0.043478260869562746
        },
        {
          "name": "E7",
          "midi": 100,
          "time": 53.358695652172244,
          "velocity": 0.18110236220472442,
          "duration": 0.10869565217390686
        },
        {
          "name": "F7",
          "midi": 101,
          "time": 53.358695652172244,
          "velocity": 0.08661417322834646,
          "duration": 0.03260869565217206
        },
        {
          "name": "G7",
          "midi": 103,
          "time": 53.380434782607026,
          "velocity": 0.14173228346456693,
          "duration": 0.0760869565217348
        },
        {
          "name": "D6",
          "midi": 86,
          "time": 53.391304347824416,
          "velocity": 0.08661417322834646,
          "duration": 0.03260869565217206
        },
        {
          "name": "E6",
          "midi": 88,
          "time": 53.391304347824416,
          "velocity": 0.09448818897637795,
          "duration": 0.043478260869562746
        },
        {
          "name": "C4",
          "midi": 60,
          "time": 53.4130434782592,
          "velocity": 0.07086614173228346,
          "duration": 0.043478260869562746
        },
        {
          "name": "D#7",
          "midi": 99,
          "time": 53.42391304347659,
          "velocity": 0.14173228346456693,
          "duration": 0.043478260869562746
        },
        {
          "name": "A#5",
          "midi": 82,
          "time": 53.49999999999832,
          "velocity": 0.2677165354330709,
          "duration": 0.13043478260868824
        },
        {
          "name": "E6",
          "midi": 88,
          "time": 53.49999999999832,
          "velocity": 0.14960629921259844,
          "duration": 0.09782608695651618
        },
        {
          "name": "F7",
          "midi": 101,
          "time": 53.49999999999832,
          "velocity": 0.25984251968503935,
          "duration": 0.08695652173912549
        },
        {
          "name": "F#5",
          "midi": 78,
          "time": 53.510869565215714,
          "velocity": 0.2283464566929134,
          "duration": 0.0760869565217348
        },
        {
          "name": "D#6",
          "midi": 87,
          "time": 53.521739130433104,
          "velocity": 0.14960629921259844,
          "duration": 0.0760869565217348
        },
        {
          "name": "D7",
          "midi": 98,
          "time": 53.521739130433104,
          "velocity": 0.08661417322834646,
          "duration": 0.043478260869562746
        },
        {
          "name": "F#4",
          "midi": 66,
          "time": 53.543478260867886,
          "velocity": 0.2047244094488189,
          "duration": 0.0760869565217348
        },
        {
          "name": "G#6",
          "midi": 92,
          "time": 53.543478260867886,
          "velocity": 0.1889763779527559,
          "duration": 0.05434782608695343
        },
        {
          "name": "C5",
          "midi": 72,
          "time": 53.55434782608528,
          "velocity": 0.09448818897637795,
          "duration": 0.03260869565217206
        },
        {
          "name": "G7",
          "midi": 103,
          "time": 53.55434782608528,
          "velocity": 0.11811023622047244,
          "duration": 0.05434782608695343
        },
        {
          "name": "A4",
          "midi": 69,
          "time": 53.56521739130267,
          "velocity": 0.08661417322834646,
          "duration": 0.03260869565217206
        },
        {
          "name": "C6",
          "midi": 84,
          "time": 53.56521739130267,
          "velocity": 0.09448818897637795,
          "duration": 0.03260869565217206
        },
        {
          "name": "C#3",
          "midi": 49,
          "time": 53.59782608695484,
          "velocity": 0.1732283464566929,
          "duration": 0.20652173913042304
        },
        {
          "name": "C#5",
          "midi": 73,
          "time": 53.59782608695484,
          "velocity": 0.2283464566929134,
          "duration": 0.021739130434781373
        },
        {
          "name": "A#4",
          "midi": 70,
          "time": 53.61956521738962,
          "velocity": 0.1968503937007874,
          "duration": 0.043478260869562746
        },
        {
          "name": "C5",
          "midi": 72,
          "time": 53.61956521738962,
          "velocity": 0.2204724409448819,
          "duration": 0.05434782608695343
        },
        {
          "name": "C#4",
          "midi": 61,
          "time": 53.63043478260701,
          "velocity": 0.29133858267716534,
          "duration": 0.1630434782608603
        },
        {
          "name": "C#7",
          "midi": 97,
          "time": 53.63043478260701,
          "velocity": 0.12598425196850394,
          "duration": 0.03260869565217206
        },
        {
          "name": "A5",
          "midi": 81,
          "time": 53.65217391304179,
          "velocity": 0.1968503937007874,
          "duration": 0.13043478260868824
        },
        {
          "name": "E7",
          "midi": 100,
          "time": 53.66304347825918,
          "velocity": 0.14173228346456693,
          "duration": 0.11956521739129755
        },
        {
          "name": "C#7",
          "midi": 97,
          "time": 53.673913043476574,
          "velocity": 0.15748031496062992,
          "duration": 0.09782608695651618
        },
        {
          "name": "F#4",
          "midi": 66,
          "time": 53.695652173911355,
          "velocity": 0.23622047244094488,
          "duration": 0.13043478260868824
        },
        {
          "name": "A#4",
          "midi": 70,
          "time": 53.706521739128746,
          "velocity": 0.16535433070866143,
          "duration": 0.08695652173912549
        },
        {
          "name": "C6",
          "midi": 84,
          "time": 53.72826086956353,
          "velocity": 0.11023622047244094,
          "duration": 0.05434782608695343
        },
        {
          "name": "G#5",
          "midi": 80,
          "time": 53.74999999999831,
          "velocity": 0.13385826771653545,
          "duration": 0.0760869565217348
        },
        {
          "name": "C6",
          "midi": 84,
          "time": 53.79347826086787,
          "velocity": 0.2283464566929134,
          "duration": 0.08695652173912549
        },
        {
          "name": "D6",
          "midi": 86,
          "time": 53.79347826086787,
          "velocity": 0.25196850393700787,
          "duration": 0.08695652173912549
        },
        {
          "name": "D#6",
          "midi": 87,
          "time": 53.79347826086787,
          "velocity": 0.16535433070866143,
          "duration": 0.03260869565217206
        },
        {
          "name": "A#6",
          "midi": 94,
          "time": 53.79347826086787,
          "velocity": 0.18110236220472442,
          "duration": 0.08695652173912549
        },
        {
          "name": "B6",
          "midi": 95,
          "time": 53.79347826086787,
          "velocity": 0.12598425196850394,
          "duration": 0.0760869565217348
        },
        {
          "name": "C#7",
          "midi": 97,
          "time": 53.79347826086787,
          "velocity": 0.16535433070866143,
          "duration": 0.03260869565217206
        },
        {
          "name": "G6",
          "midi": 91,
          "time": 53.80434782608526,
          "velocity": 0.2440944881889764,
          "duration": 0.05434782608695343
        },
        {
          "name": "G#6",
          "midi": 92,
          "time": 53.80434782608526,
          "velocity": 0.2047244094488189,
          "duration": 0.043478260869562746
        },
        {
          "name": "A6",
          "midi": 93,
          "time": 53.80434782608526,
          "velocity": 0.14173228346456693,
          "duration": 0.05434782608695343
        },
        {
          "name": "F#7",
          "midi": 102,
          "time": 53.80434782608526,
          "velocity": 0.2440944881889764,
          "duration": 0.11956521739129755
        },
        {
          "name": "F5",
          "midi": 77,
          "time": 53.81521739130265,
          "velocity": 0.13385826771653545,
          "duration": 0.05434782608695343
        },
        {
          "name": "E6",
          "midi": 88,
          "time": 53.81521739130265,
          "velocity": 0.1968503937007874,
          "duration": 0.05434782608695343
        },
        {
          "name": "F6",
          "midi": 89,
          "time": 53.81521739130265,
          "velocity": 0.1889763779527559,
          "duration": 0.043478260869562746
        },
        {
          "name": "F#6",
          "midi": 90,
          "time": 53.81521739130265,
          "velocity": 0.2047244094488189,
          "duration": 0.06521739130434412
        },
        {
          "name": "E7",
          "midi": 100,
          "time": 53.81521739130265,
          "velocity": 0.2677165354330709,
          "duration": 0.05434782608695343
        },
        {
          "name": "D4",
          "midi": 62,
          "time": 53.826086956520044,
          "velocity": 0.25196850393700787,
          "duration": 0.03260869565217206
        },
        {
          "name": "G5",
          "midi": 79,
          "time": 53.826086956520044,
          "velocity": 0.2047244094488189,
          "duration": 0.0760869565217348
        },
        {
          "name": "F7",
          "midi": 101,
          "time": 53.826086956520044,
          "velocity": 0.1968503937007874,
          "duration": 0.380434782608674
        },
        {
          "name": "G4",
          "midi": 67,
          "time": 53.836956521737434,
          "velocity": 0.14960629921259844,
          "duration": 0.0760869565217348
        },
        {
          "name": "B4",
          "midi": 71,
          "time": 53.836956521737434,
          "velocity": 0.2125984251968504,
          "duration": 0.043478260869562746
        },
        {
          "name": "C#7",
          "midi": 97,
          "time": 53.847826086954825,
          "velocity": 0.07086614173228346,
          "duration": 0.043478260869562746
        },
        {
          "name": "C#6",
          "midi": 85,
          "time": 53.86956521738961,
          "velocity": 0.11023622047244094,
          "duration": 0.03260869565217206
        },
        {
          "name": "A6",
          "midi": 93,
          "time": 53.86956521738961,
          "velocity": 0.16535433070866143,
          "duration": 0.19565217391303236
        },
        {
          "name": "D3",
          "midi": 50,
          "time": 53.880434782607,
          "velocity": 0.16535433070866143,
          "duration": 0.2391304347825951
        },
        {
          "name": "E5",
          "midi": 76,
          "time": 53.880434782607,
          "velocity": 0.1732283464566929,
          "duration": 0.03260869565217206
        },
        {
          "name": "A5",
          "midi": 81,
          "time": 53.880434782607,
          "velocity": 0.11811023622047244,
          "duration": 0.03260869565217206
        },
        {
          "name": "B4",
          "midi": 71,
          "time": 53.90217391304178,
          "velocity": 0.2440944881889764,
          "duration": 0.09782608695651618
        },
        {
          "name": "F#6",
          "midi": 90,
          "time": 53.90217391304178,
          "velocity": 0.10236220472440945,
          "duration": 0.09782608695651618
        },
        {
          "name": "A#6",
          "midi": 94,
          "time": 53.91304347825917,
          "velocity": 0.12598425196850394,
          "duration": 0.09782608695651618
        },
        {
          "name": "D4",
          "midi": 62,
          "time": 53.94565217391134,
          "velocity": 0.29133858267716534,
          "duration": 0.1521739130434696
        },
        {
          "name": "G5",
          "midi": 79,
          "time": 53.94565217391134,
          "velocity": 0.25196850393700787,
          "duration": 0.13043478260868824
        },
        {
          "name": "D7",
          "midi": 98,
          "time": 53.96739130434612,
          "velocity": 0.18110236220472442,
          "duration": 0.0760869565217348
        },
        {
          "name": "E7",
          "midi": 100,
          "time": 53.96739130434612,
          "velocity": 0.07874015748031496,
          "duration": 0.05434782608695343
        },
        {
          "name": "A5",
          "midi": 81,
          "time": 53.97826086956351,
          "velocity": 0.1968503937007874,
          "duration": 0.043478260869562746
        },
        {
          "name": "G4",
          "midi": 67,
          "time": 53.989130434780904,
          "velocity": 0.2677165354330709,
          "duration": 0.10869565217390686
        },
        {
          "name": "C6",
          "midi": 84,
          "time": 53.999999999998295,
          "velocity": 0.14173228346456693,
          "duration": 0.03260869565217206
        },
        {
          "name": "C#6",
          "midi": 85,
          "time": 54.021739130433076,
          "velocity": 0.23622047244094488,
          "duration": 0.11956521739129755
        },
        {
          "name": "B4",
          "midi": 71,
          "time": 54.04347826086786,
          "velocity": 0.11023622047244094,
          "duration": 0.03260869565217206
        },
        {
          "name": "A#6",
          "midi": 94,
          "time": 54.04347826086786,
          "velocity": 0.14173228346456693,
          "duration": 0.05434782608695343
        },
        {
          "name": "E7",
          "midi": 100,
          "time": 54.04347826086786,
          "velocity": 0.18110236220472442,
          "duration": 0.10869565217390686
        },
        {
          "name": "F5",
          "midi": 77,
          "time": 54.05434782608525,
          "velocity": 0.2204724409448819,
          "duration": 0.06521739130434412
        },
        {
          "name": "F4",
          "midi": 65,
          "time": 54.09782608695481,
          "velocity": 0.4015748031496063,
          "duration": 0.03260869565217206
        },
        {
          "name": "F#5",
          "midi": 78,
          "time": 54.09782608695481,
          "velocity": 0.2125984251968504,
          "duration": 0.06521739130434412
        },
        {
          "name": "A#5",
          "midi": 82,
          "time": 54.09782608695481,
          "velocity": 0.16535433070866143,
          "duration": 0.03260869565217206
        },
        {
          "name": "C6",
          "midi": 84,
          "time": 54.09782608695481,
          "velocity": 0.2283464566929134,
          "duration": 0.05434782608695343
        },
        {
          "name": "A6",
          "midi": 93,
          "time": 54.1086956521722,
          "velocity": 0.2125984251968504,
          "duration": 0.05434782608695343
        },
        {
          "name": "F#7",
          "midi": 102,
          "time": 54.1086956521722,
          "velocity": 0.1889763779527559,
          "duration": 0.043478260869562746
        },
        {
          "name": "A5",
          "midi": 81,
          "time": 54.11956521738959,
          "velocity": 0.11023622047244094,
          "duration": 0.03260869565217206
        },
        {
          "name": "G6",
          "midi": 91,
          "time": 54.11956521738959,
          "velocity": 0.2047244094488189,
          "duration": 0.043478260869562746
        },
        {
          "name": "F#4",
          "midi": 66,
          "time": 54.13043478260698,
          "velocity": 0.36220472440944884,
          "duration": 0.05434782608695343
        },
        {
          "name": "E6",
          "midi": 88,
          "time": 54.13043478260698,
          "velocity": 0.13385826771653545,
          "duration": 0.03260869565217206
        },
        {
          "name": "A#5",
          "midi": 82,
          "time": 54.152173913041764,
          "velocity": 0.14960629921259844,
          "duration": 0.06521739130434412
        },
        {
          "name": "F7",
          "midi": 101,
          "time": 54.24999999999828,
          "velocity": 0.2283464566929134,
          "duration": 0.2499999999999858
        },
        {
          "name": "G5",
          "midi": 79,
          "time": 54.26086956521567,
          "velocity": 0.16535433070866143,
          "duration": 0.05434782608695343
        },
        {
          "name": "D7",
          "midi": 98,
          "time": 54.26086956521567,
          "velocity": 0.11811023622047244,
          "duration": 0.03260869565217206
        },
        {
          "name": "D#7",
          "midi": 99,
          "time": 54.27173913043306,
          "velocity": 0.14173228346456693,
          "duration": 0.06521739130434412
        },
        {
          "name": "E7",
          "midi": 100,
          "time": 54.27173913043306,
          "velocity": 0.11023622047244094,
          "duration": 0.05434782608695343
        },
        {
          "name": "F#6",
          "midi": 90,
          "time": 54.28260869565045,
          "velocity": 0.12598425196850394,
          "duration": 0.043478260869562746
        },
        {
          "name": "D6",
          "midi": 86,
          "time": 54.29347826086784,
          "velocity": 0.2047244094488189,
          "duration": 0.05434782608695343
        },
        {
          "name": "E6",
          "midi": 88,
          "time": 54.29347826086784,
          "velocity": 0.13385826771653545,
          "duration": 0.03260869565217206
        },
        {
          "name": "D#5",
          "midi": 75,
          "time": 54.304347826085234,
          "velocity": 0.23622047244094488,
          "duration": 0.0760869565217348
        },
        {
          "name": "A#6",
          "midi": 94,
          "time": 54.304347826085234,
          "velocity": 0.14960629921259844,
          "duration": 0.06521739130434412
        },
        {
          "name": "A#5",
          "midi": 82,
          "time": 54.315217391302625,
          "velocity": 0.09448818897637795,
          "duration": 0.043478260869562746
        },
        {
          "name": "G5",
          "midi": 79,
          "time": 54.336956521737406,
          "velocity": 0.1732283464566929,
          "duration": 0.043478260869562746
        },
        {
          "name": "C#6",
          "midi": 85,
          "time": 54.336956521737406,
          "velocity": 0.23622047244094488,
          "duration": 0.09782608695651618
        },
        {
          "name": "A5",
          "midi": 81,
          "time": 54.3478260869548,
          "velocity": 0.14173228346456693,
          "duration": 0.06521739130434412
        },
        {
          "name": "E7",
          "midi": 100,
          "time": 54.3478260869548,
          "velocity": 0.15748031496062992,
          "duration": 0.05434782608695343
        },
        {
          "name": "F#7",
          "midi": 102,
          "time": 54.3478260869548,
          "velocity": 0.10236220472440945,
          "duration": 0.03260869565217206
        },
        {
          "name": "D#4",
          "midi": 63,
          "time": 54.36956521738958,
          "velocity": 0.11023622047244094,
          "duration": 0.043478260869562746
        },
        {
          "name": "B6",
          "midi": 95,
          "time": 54.38043478260697,
          "velocity": 0.11023622047244094,
          "duration": 0.09782608695651618
        },
        {
          "name": "F#5",
          "midi": 78,
          "time": 54.40217391304175,
          "velocity": 0.2047244094488189,
          "duration": 0.14130434782607892
        },
        {
          "name": "B5",
          "midi": 83,
          "time": 54.40217391304175,
          "velocity": 0.25984251968503935,
          "duration": 0.021739130434781373
        },
        {
          "name": "C7",
          "midi": 96,
          "time": 54.40217391304175,
          "velocity": 0.13385826771653545,
          "duration": 0.03260869565217206
        },
        {
          "name": "D6",
          "midi": 86,
          "time": 54.41304347825914,
          "velocity": 0.2440944881889764,
          "duration": 0.14130434782607892
        },
        {
          "name": "A6",
          "midi": 93,
          "time": 54.41304347825914,
          "velocity": 0.11811023622047244,
          "duration": 0.05434782608695343
        },
        {
          "name": "A#6",
          "midi": 94,
          "time": 54.41304347825914,
          "velocity": 0.2047244094488189,
          "duration": 0.03260869565217206
        },
        {
          "name": "E7",
          "midi": 100,
          "time": 54.41304347825914,
          "velocity": 0.2440944881889764,
          "duration": 0.2391304347825951
        },
        {
          "name": "A4",
          "midi": 69,
          "time": 54.42391304347653,
          "velocity": 0.11811023622047244,
          "duration": 0.043478260869562746
        },
        {
          "name": "G5",
          "midi": 79,
          "time": 54.42391304347653,
          "velocity": 0.11811023622047244,
          "duration": 0.03260869565217206
        },
        {
          "name": "C6",
          "midi": 84,
          "time": 54.42391304347653,
          "velocity": 0.25196850393700787,
          "duration": 0.03260869565217206
        },
        {
          "name": "E6",
          "midi": 88,
          "time": 54.42391304347653,
          "velocity": 0.1732283464566929,
          "duration": 0.03260869565217206
        },
        {
          "name": "F#6",
          "midi": 90,
          "time": 54.42391304347653,
          "velocity": 0.25984251968503935,
          "duration": 0.06521739130434412
        },
        {
          "name": "D5",
          "midi": 74,
          "time": 54.43478260869392,
          "velocity": 0.12598425196850394,
          "duration": 0.08695652173912549
        },
        {
          "name": "E5",
          "midi": 76,
          "time": 54.43478260869392,
          "velocity": 0.23622047244094488,
          "duration": 0.17391304347825098
        },
        {
          "name": "G6",
          "midi": 91,
          "time": 54.43478260869392,
          "velocity": 0.2440944881889764,
          "duration": 0.03260869565217206
        },
        {
          "name": "A#5",
          "midi": 82,
          "time": 54.44565217391131,
          "velocity": 0.08661417322834646,
          "duration": 0.03260869565217206
        },
        {
          "name": "C6",
          "midi": 84,
          "time": 54.478260869563485,
          "velocity": 0.10236220472440945,
          "duration": 0.06521739130434412
        },
        {
          "name": "A#6",
          "midi": 94,
          "time": 54.478260869563485,
          "velocity": 0.11023622047244094,
          "duration": 0.06521739130434412
        },
        {
          "name": "A4",
          "midi": 69,
          "time": 54.489130434780876,
          "velocity": 0.14173228346456693,
          "duration": 0.043478260869562746
        },
        {
          "name": "F#7",
          "midi": 102,
          "time": 54.499999999998266,
          "velocity": 0.12598425196850394,
          "duration": 0.05434782608695343
        },
        {
          "name": "C5",
          "midi": 72,
          "time": 54.56521739130261,
          "velocity": 0.1889763779527559,
          "duration": 0.0760869565217348
        },
        {
          "name": "G5",
          "midi": 79,
          "time": 54.56521739130261,
          "velocity": 0.2992125984251969,
          "duration": 0.1521739130434696
        },
        {
          "name": "A#5",
          "midi": 82,
          "time": 54.56521739130261,
          "velocity": 0.1732283464566929,
          "duration": 0.08695652173912549
        },
        {
          "name": "C#7",
          "midi": 97,
          "time": 54.56521739130261,
          "velocity": 0.16535433070866143,
          "duration": 0.0760869565217348
        },
        {
          "name": "D7",
          "midi": 98,
          "time": 54.56521739130261,
          "velocity": 0.2283464566929134,
          "duration": 0.09782608695651618
        },
        {
          "name": "G4",
          "midi": 67,
          "time": 54.57608695652,
          "velocity": 0.11811023622047244,
          "duration": 0.06521739130434412
        },
        {
          "name": "D6",
          "midi": 86,
          "time": 54.57608695652,
          "velocity": 0.15748031496062992,
          "duration": 0.03260869565217206
        },
        {
          "name": "C7",
          "midi": 96,
          "time": 54.58695652173739,
          "velocity": 0.09448818897637795,
          "duration": 0.043478260869562746
        },
        {
          "name": "B6",
          "midi": 95,
          "time": 54.60869565217217,
          "velocity": 0.12598425196850394,
          "duration": 0.043478260869562746
        },
        {
          "name": "E7",
          "midi": 100,
          "time": 54.66304347825913,
          "velocity": 0.12598425196850394,
          "duration": 0.043478260869562746
        },
        {
          "name": "D7",
          "midi": 98,
          "time": 54.6956521739113,
          "velocity": 0.09448818897637795,
          "duration": 0.03260869565217206
        },
        {
          "name": "E5",
          "midi": 76,
          "time": 54.70652173912869,
          "velocity": 0.2440944881889764,
          "duration": 0.043478260869562746
        },
        {
          "name": "C6",
          "midi": 84,
          "time": 54.70652173912869,
          "velocity": 0.2204724409448819,
          "duration": 0.06521739130434412
        },
        {
          "name": "F7",
          "midi": 101,
          "time": 54.70652173912869,
          "velocity": 0.2755905511811024,
          "duration": 0.27173913043476716
        },
        {
          "name": "F#4",
          "midi": 66,
          "time": 54.71739130434608,
          "velocity": 0.4566929133858268,
          "duration": 0.09782608695651618
        },
        {
          "name": "C#6",
          "midi": 85,
          "time": 54.71739130434608,
          "velocity": 0.2125984251968504,
          "duration": 0.043478260869562746
        },
        {
          "name": "F6",
          "midi": 89,
          "time": 54.71739130434608,
          "velocity": 0.2125984251968504,
          "duration": 0.0760869565217348
        },
        {
          "name": "B6",
          "midi": 95,
          "time": 54.71739130434608,
          "velocity": 0.13385826771653545,
          "duration": 0.043478260869562746
        },
        {
          "name": "D#7",
          "midi": 99,
          "time": 54.71739130434608,
          "velocity": 0.16535433070866143,
          "duration": 0.05434782608695343
        },
        {
          "name": "E7",
          "midi": 100,
          "time": 54.71739130434608,
          "velocity": 0.1889763779527559,
          "duration": 0.05434782608695343
        },
        {
          "name": "F#7",
          "midi": 102,
          "time": 54.71739130434608,
          "velocity": 0.14173228346456693,
          "duration": 0.043478260869562746
        },
        {
          "name": "A#5",
          "midi": 82,
          "time": 54.72826086956347,
          "velocity": 0.23622047244094488,
          "duration": 0.09782608695651618
        },
        {
          "name": "G6",
          "midi": 91,
          "time": 54.72826086956347,
          "velocity": 0.25196850393700787,
          "duration": 0.043478260869562746
        },
        {
          "name": "A6",
          "midi": 93,
          "time": 54.72826086956347,
          "velocity": 0.12598425196850394,
          "duration": 0.043478260869562746
        },
        {
          "name": "D#6",
          "midi": 87,
          "time": 54.73913043478086,
          "velocity": 0.18110236220472442,
          "duration": 0.043478260869562746
        },
        {
          "name": "G#6",
          "midi": 92,
          "time": 54.73913043478086,
          "velocity": 0.10236220472440945,
          "duration": 0.03260869565217206
        },
        {
          "name": "D7",
          "midi": 98,
          "time": 54.74999999999825,
          "velocity": 0.11023622047244094,
          "duration": 0.03260869565217206
        },
        {
          "name": "F5",
          "midi": 77,
          "time": 54.77173913043303,
          "velocity": 0.25196850393700787,
          "duration": 0.08695652173912549
        },
        {
          "name": "A5",
          "midi": 81,
          "time": 54.85869565217216,
          "velocity": 0.2125984251968504,
          "duration": 0.20652173913042304
        },
        {
          "name": "F#7",
          "midi": 102,
          "time": 54.85869565217216,
          "velocity": 0.09448818897637795,
          "duration": 0.05434782608695343
        },
        {
          "name": "D5",
          "midi": 74,
          "time": 54.86956521738955,
          "velocity": 0.15748031496062992,
          "duration": 0.09782608695651618
        },
        {
          "name": "G5",
          "midi": 79,
          "time": 54.86956521738955,
          "velocity": 0.08661417322834646,
          "duration": 0.03260869565217206
        },
        {
          "name": "C#7",
          "midi": 97,
          "time": 54.86956521738955,
          "velocity": 0.2047244094488189,
          "duration": 0.09782608695651618
        },
        {
          "name": "D7",
          "midi": 98,
          "time": 54.86956521738955,
          "velocity": 0.16535433070866143,
          "duration": 0.05434782608695343
        },
        {
          "name": "A4",
          "midi": 69,
          "time": 54.88043478260694,
          "velocity": 0.10236220472440945,
          "duration": 0.043478260869562746
        },
        {
          "name": "C6",
          "midi": 84,
          "time": 54.90217391304172,
          "velocity": 0.2125984251968504,
          "duration": 0.08695652173912549
        },
        {
          "name": "E6",
          "midi": 88,
          "time": 54.90217391304172,
          "velocity": 0.08661417322834646,
          "duration": 0.0760869565217348
        },
        {
          "name": "F#5",
          "midi": 78,
          "time": 54.91304347825911,
          "velocity": 0.14960629921259844,
          "duration": 0.03260869565217206
        },
        {
          "name": "A#6",
          "midi": 94,
          "time": 54.9239130434765,
          "velocity": 0.11811023622047244,
          "duration": 0.06521739130434412
        },
        {
          "name": "E7",
          "midi": 100,
          "time": 54.9239130434765,
          "velocity": 0.2047244094488189,
          "duration": 0.1630434782608603
        },
        {
          "name": "F#7",
          "midi": 102,
          "time": 54.9239130434765,
          "velocity": 0.2204724409448819,
          "duration": 0.21739130434781373
        },
        {
          "name": "G7",
          "midi": 103,
          "time": 54.9239130434765,
          "velocity": 0.15748031496062992,
          "duration": 0.05434782608695343
        },
        {
          "name": "D6",
          "midi": 86,
          "time": 54.934782608693894,
          "velocity": 0.18110236220472442,
          "duration": 0.043478260869562746
        },
        {
          "name": "D#7",
          "midi": 99,
          "time": 54.945652173911284,
          "velocity": 0.09448818897637795,
          "duration": 0.03260869565217206
        },
        {
          "name": "F#5",
          "midi": 78,
          "time": 54.99999999999824,
          "velocity": 0.25196850393700787,
          "duration": 0.10869565217390686
        },
        {
          "name": "C#7",
          "midi": 97,
          "time": 55.01086956521563,
          "velocity": 0.23622047244094488,
          "duration": 0.0760869565217348
        },
        {
          "name": "F7",
          "midi": 101,
          "time": 55.01086956521563,
          "velocity": 0.14960629921259844,
          "duration": 0.06521739130434412
        },
        {
          "name": "C#6",
          "midi": 85,
          "time": 55.02173913043302,
          "velocity": 0.2992125984251969,
          "duration": 0.03260869565217206
        },
        {
          "name": "G6",
          "midi": 91,
          "time": 55.02173913043302,
          "velocity": 0.2047244094488189,
          "duration": 0.06521739130434412
        },
        {
          "name": "A#6",
          "midi": 94,
          "time": 55.02173913043302,
          "velocity": 0.14960629921259844,
          "duration": 0.043478260869562746
        },
        {
          "name": "D#7",
          "midi": 99,
          "time": 55.02173913043302,
          "velocity": 0.13385826771653545,
          "duration": 0.05434782608695343
        },
        {
          "name": "D#4",
          "midi": 63,
          "time": 55.03260869565041,
          "velocity": 0.25196850393700787,
          "duration": 0.03260869565217206
        },
        {
          "name": "E6",
          "midi": 88,
          "time": 55.03260869565041,
          "velocity": 0.18110236220472442,
          "duration": 0.03260869565217206
        },
        {
          "name": "B6",
          "midi": 95,
          "time": 55.03260869565041,
          "velocity": 0.1732283464566929,
          "duration": 0.043478260869562746
        },
        {
          "name": "B4",
          "midi": 71,
          "time": 55.0434782608678,
          "velocity": 0.11811023622047244,
          "duration": 0.043478260869562746
        },
        {
          "name": "C6",
          "midi": 84,
          "time": 55.0434782608678,
          "velocity": 0.2204724409448819,
          "duration": 0.03260869565217206
        },
        {
          "name": "D6",
          "midi": 86,
          "time": 55.0434782608678,
          "velocity": 0.18110236220472442,
          "duration": 0.043478260869562746
        },
        {
          "name": "D#6",
          "midi": 87,
          "time": 55.0434782608678,
          "velocity": 0.16535433070866143,
          "duration": 0.03260869565217206
        },
        {
          "name": "A#5",
          "midi": 82,
          "time": 55.05434782608519,
          "velocity": 0.18110236220472442,
          "duration": 0.043478260869562746
        },
        {
          "name": "C7",
          "midi": 96,
          "time": 55.05434782608519,
          "velocity": 0.25196850393700787,
          "duration": 0.021739130434781373
        },
        {
          "name": "G4",
          "midi": 67,
          "time": 55.097826086954754,
          "velocity": 0.1968503937007874,
          "duration": 0.05434782608695343
        },
        {
          "name": "D5",
          "midi": 74,
          "time": 55.097826086954754,
          "velocity": 0.12598425196850394,
          "duration": 0.0760869565217348
        },
        {
          "name": "D3",
          "midi": 50,
          "time": 55.108695652172145,
          "velocity": 0.18110236220472442,
          "duration": 0.14130434782607892
        },
        {
          "name": "G5",
          "midi": 79,
          "time": 55.108695652172145,
          "velocity": 0.3464566929133858,
          "duration": 0.19565217391303236
        },
        {
          "name": "B4",
          "midi": 71,
          "time": 55.119565217389535,
          "velocity": 0.2440944881889764,
          "duration": 0.0760869565217348
        },
        {
          "name": "D7",
          "midi": 98,
          "time": 55.119565217389535,
          "velocity": 0.16535433070866143,
          "duration": 0.03260869565217206
        },
        {
          "name": "A5",
          "midi": 81,
          "time": 55.14130434782432,
          "velocity": 0.14960629921259844,
          "duration": 0.05434782608695343
        },
        {
          "name": "D4",
          "midi": 62,
          "time": 55.17391304347649,
          "velocity": 0.2755905511811024,
          "duration": 0.1630434782608603
        },
        {
          "name": "F4",
          "midi": 65,
          "time": 55.17391304347649,
          "velocity": 0.18110236220472442,
          "duration": 0.03260869565217206
        },
        {
          "name": "D#6",
          "midi": 87,
          "time": 55.17391304347649,
          "velocity": 0.14173228346456693,
          "duration": 0.03260869565217206
        },
        {
          "name": "D7",
          "midi": 98,
          "time": 55.17391304347649,
          "velocity": 0.28346456692913385,
          "duration": 0.18478260869564167
        },
        {
          "name": "G#6",
          "midi": 92,
          "time": 55.18478260869388,
          "velocity": 0.1889763779527559,
          "duration": 0.06521739130434412
        },
        {
          "name": "D6",
          "midi": 86,
          "time": 55.19565217391127,
          "velocity": 0.2677165354330709,
          "duration": 0.19565217391303236
        },
        {
          "name": "F5",
          "midi": 77,
          "time": 55.20652173912866,
          "velocity": 0.2440944881889764,
          "duration": 0.11956521739129755
        },
        {
          "name": "A6",
          "midi": 93,
          "time": 55.20652173912866,
          "velocity": 0.1732283464566929,
          "duration": 0.0760869565217348
        },
        {
          "name": "E7",
          "midi": 100,
          "time": 55.20652173912866,
          "velocity": 0.07874015748031496,
          "duration": 0.043478260869562746
        },
        {
          "name": "G4",
          "midi": 67,
          "time": 55.21739130434605,
          "velocity": 0.2755905511811024,
          "duration": 0.10869565217390686
        },
        {
          "name": "B5",
          "midi": 83,
          "time": 55.21739130434605,
          "velocity": 0.09448818897637795,
          "duration": 0.10869565217390686
        },
        {
          "name": "A#3",
          "midi": 58,
          "time": 55.22826086956344,
          "velocity": 0.2125984251968504,
          "duration": 0.05434782608695343
        },
        {
          "name": "B4",
          "midi": 71,
          "time": 55.23913043478083,
          "velocity": 0.18110236220472442,
          "duration": 0.06521739130434412
        },
        {
          "name": "A#6",
          "midi": 94,
          "time": 55.249999999998224,
          "velocity": 0.2204724409448819,
          "duration": 0.10869565217390686
        },
        {
          "name": "D#7",
          "midi": 99,
          "time": 55.260869565215614,
          "velocity": 0.09448818897637795,
          "duration": 0.043478260869562746
        },
        {
          "name": "B6",
          "midi": 95,
          "time": 55.271739130433005,
          "velocity": 0.12598425196850394,
          "duration": 0.043478260869562746
        },
        {
          "name": "C#7",
          "midi": 97,
          "time": 55.271739130433005,
          "velocity": 0.1732283464566929,
          "duration": 0.10869565217390686
        },
        {
          "name": "A#3",
          "midi": 58,
          "time": 55.293478260867786,
          "velocity": 0.16535433070866143,
          "duration": 0.043478260869562746
        },
        {
          "name": "C6",
          "midi": 84,
          "time": 55.32608695651996,
          "velocity": 0.1889763779527559,
          "duration": 0.06521739130434412
        },
        {
          "name": "A6",
          "midi": 93,
          "time": 55.32608695651996,
          "velocity": 0.1968503937007874,
          "duration": 0.08695652173912549
        },
        {
          "name": "F#7",
          "midi": 102,
          "time": 55.32608695651996,
          "velocity": 0.1732283464566929,
          "duration": 0.05434782608695343
        },
        {
          "name": "F#4",
          "midi": 66,
          "time": 55.33695652173735,
          "velocity": 0.47244094488188976,
          "duration": 0.13043478260868824
        },
        {
          "name": "G#5",
          "midi": 80,
          "time": 55.33695652173735,
          "velocity": 0.12598425196850394,
          "duration": 0.03260869565217206
        },
        {
          "name": "A#5",
          "midi": 82,
          "time": 55.33695652173735,
          "velocity": 0.2204724409448819,
          "duration": 0.11956521739129755
        },
        {
          "name": "C#6",
          "midi": 85,
          "time": 55.33695652173735,
          "velocity": 0.2283464566929134,
          "duration": 0.021739130434781373
        },
        {
          "name": "E6",
          "midi": 88,
          "time": 55.33695652173735,
          "velocity": 0.2283464566929134,
          "duration": 0.043478260869562746
        },
        {
          "name": "D#7",
          "midi": 99,
          "time": 55.33695652173735,
          "velocity": 0.23622047244094488,
          "duration": 0.043478260869562746
        },
        {
          "name": "F7",
          "midi": 101,
          "time": 55.33695652173735,
          "velocity": 0.1889763779527559,
          "duration": 0.09782608695651618
        },
        {
          "name": "D4",
          "midi": 62,
          "time": 55.34782608695474,
          "velocity": 0.1968503937007874,
          "duration": 0.05434782608695343
        },
        {
          "name": "D#6",
          "midi": 87,
          "time": 55.35869565217213,
          "velocity": 0.12598425196850394,
          "duration": 0.043478260869562746
        },
        {
          "name": "G5",
          "midi": 79,
          "time": 55.36956521738952,
          "velocity": 0.18110236220472442,
          "duration": 0.06521739130434412
        },
        {
          "name": "B5",
          "midi": 83,
          "time": 55.38043478260691,
          "velocity": 0.14173228346456693,
          "duration": 0.03260869565217206
        },
        {
          "name": "A#6",
          "midi": 94,
          "time": 55.40217391304169,
          "velocity": 0.2204724409448819,
          "duration": 0.11956521739129755
        },
        {
          "name": "D#6",
          "midi": 87,
          "time": 55.423913043476475,
          "velocity": 0.09448818897637795,
          "duration": 0.03260869565217206
        },
        {
          "name": "G#5",
          "midi": 80,
          "time": 55.434782608693865,
          "velocity": 0.2283464566929134,
          "duration": 0.03260869565217206
        },
        {
          "name": "A#3",
          "midi": 58,
          "time": 55.47826086956343,
          "velocity": 0.1889763779527559,
          "duration": 0.08695652173912549
        },
        {
          "name": "G#5",
          "midi": 80,
          "time": 55.47826086956343,
          "velocity": 0.2992125984251969,
          "duration": 0.06521739130434412
        },
        {
          "name": "C6",
          "midi": 84,
          "time": 55.47826086956343,
          "velocity": 0.1968503937007874,
          "duration": 0.05434782608695343
        },
        {
          "name": "C#6",
          "midi": 85,
          "time": 55.47826086956343,
          "velocity": 0.25984251968503935,
          "duration": 0.043478260869562746
        },
        {
          "name": "D6",
          "midi": 86,
          "time": 55.47826086956343,
          "velocity": 0.2677165354330709,
          "duration": 0.03260869565217206
        },
        {
          "name": "F6",
          "midi": 89,
          "time": 55.47826086956343,
          "velocity": 0.31496062992125984,
          "duration": 0.08695652173912549
        },
        {
          "name": "B6",
          "midi": 95,
          "time": 55.47826086956343,
          "velocity": 0.11811023622047244,
          "duration": 0.1521739130434696
        },
        {
          "name": "C7",
          "midi": 96,
          "time": 55.47826086956343,
          "velocity": 0.2125984251968504,
          "duration": 0.08695652173912549
        },
        {
          "name": "F4",
          "midi": 65,
          "time": 55.48913043478082,
          "velocity": 0.16535433070866143,
          "duration": 0.043478260869562746
        },
        {
          "name": "F5",
          "midi": 77,
          "time": 55.48913043478082,
          "velocity": 0.2125984251968504,
          "duration": 0.06521739130434412
        },
        {
          "name": "E6",
          "midi": 88,
          "time": 55.48913043478082,
          "velocity": 0.1732283464566929,
          "duration": 0.08695652173912549
        },
        {
          "name": "G6",
          "midi": 91,
          "time": 55.48913043478082,
          "velocity": 0.23622047244094488,
          "duration": 0.05434782608695343
        },
        {
          "name": "A6",
          "midi": 93,
          "time": 55.48913043478082,
          "velocity": 0.14173228346456693,
          "duration": 0.05434782608695343
        },
        {
          "name": "F#7",
          "midi": 102,
          "time": 55.48913043478082,
          "velocity": 0.16535433070866143,
          "duration": 0.043478260869562746
        },
        {
          "name": "D#6",
          "midi": 87,
          "time": 55.49999999999821,
          "velocity": 0.2047244094488189,
          "duration": 0.03260869565217206
        },
        {
          "name": "F#6",
          "midi": 90,
          "time": 55.49999999999821,
          "velocity": 0.2283464566929134,
          "duration": 0.021739130434781373
        },
        {
          "name": "E7",
          "midi": 100,
          "time": 55.49999999999821,
          "velocity": 0.2047244094488189,
          "duration": 0.03260869565217206
        },
        {
          "name": "A5",
          "midi": 81,
          "time": 55.52173913043299,
          "velocity": 0.2283464566929134,
          "duration": 0.1630434782608603
        },
        {
          "name": "D6",
          "midi": 86,
          "time": 55.52173913043299,
          "velocity": 0.07874015748031496,
          "duration": 0.043478260869562746
        },
        {
          "name": "D#7",
          "midi": 99,
          "time": 55.53260869565038,
          "velocity": 0.12598425196850394,
          "duration": 0.03260869565217206
        },
        {
          "name": "E7",
          "midi": 100,
          "time": 55.56521739130255,
          "velocity": 0.1968503937007874,
          "duration": 0.11956521739129755
        },
        {
          "name": "D6",
          "midi": 86,
          "time": 55.576086956519944,
          "velocity": 0.07874015748031496,
          "duration": 0.043478260869562746
        },
        {
          "name": "G#4",
          "midi": 68,
          "time": 55.608695652172116,
          "velocity": 0.12598425196850394,
          "duration": 0.06521739130434412
        },
        {
          "name": "C#6",
          "midi": 85,
          "time": 55.6304347826069,
          "velocity": 0.30708661417322836,
          "duration": 0.0760869565217348
        },
        {
          "name": "F6",
          "midi": 89,
          "time": 55.6304347826069,
          "velocity": 0.31496062992125984,
          "duration": 0.10869565217390686
        },
        {
          "name": "A6",
          "midi": 93,
          "time": 55.6304347826069,
          "velocity": 0.2440944881889764,
          "duration": 0.09782608695651618
        },
        {
          "name": "A#6",
          "midi": 94,
          "time": 55.6304347826069,
          "velocity": 0.16535433070866143,
          "duration": 0.14130434782607892
        },
        {
          "name": "C7",
          "midi": 96,
          "time": 55.6304347826069,
          "velocity": 0.2204724409448819,
          "duration": 0.3152173913043299
        },
        {
          "name": "D#6",
          "midi": 87,
          "time": 55.64130434782429,
          "velocity": 0.1889763779527559,
          "duration": 0.05434782608695343
        },
        {
          "name": "F#6",
          "midi": 90,
          "time": 55.64130434782429,
          "velocity": 0.28346456692913385,
          "duration": 0.0760869565217348
        },
        {
          "name": "B6",
          "midi": 95,
          "time": 55.64130434782429,
          "velocity": 0.2283464566929134,
          "duration": 0.14130434782607892
        },
        {
          "name": "C6",
          "midi": 84,
          "time": 55.65217391304168,
          "velocity": 0.25196850393700787,
          "duration": 0.03260869565217206
        },
        {
          "name": "E6",
          "midi": 88,
          "time": 55.65217391304168,
          "velocity": 0.2125984251968504,
          "duration": 0.13043478260868824
        },
        {
          "name": "D7",
          "midi": 98,
          "time": 55.65217391304168,
          "velocity": 0.18110236220472442,
          "duration": 0.06521739130434412
        },
        {
          "name": "A#3",
          "midi": 58,
          "time": 55.66304347825907,
          "velocity": 0.14960629921259844,
          "duration": 0.10869565217390686
        },
        {
          "name": "F4",
          "midi": 65,
          "time": 55.66304347825907,
          "velocity": 0.13385826771653545,
          "duration": 0.10869565217390686
        },
        {
          "name": "D5",
          "midi": 74,
          "time": 55.66304347825907,
          "velocity": 0.2125984251968504,
          "duration": 0.11956521739129755
        },
        {
          "name": "F5",
          "midi": 77,
          "time": 55.66304347825907,
          "velocity": 0.2204724409448819,
          "duration": 0.10869565217390686
        },
        {
          "name": "G6",
          "midi": 91,
          "time": 55.66304347825907,
          "velocity": 0.1732283464566929,
          "duration": 0.043478260869562746
        },
        {
          "name": "A#5",
          "midi": 82,
          "time": 55.67391304347646,
          "velocity": 0.2283464566929134,
          "duration": 0.11956521739129755
        },
        {
          "name": "G#5",
          "midi": 80,
          "time": 55.68478260869385,
          "velocity": 0.1732283464566929,
          "duration": 0.08695652173912549
        },
        {
          "name": "G5",
          "midi": 79,
          "time": 55.77173913043298,
          "velocity": 0.3700787401574803,
          "duration": 0.22826086956520442
        },
        {
          "name": "A5",
          "midi": 81,
          "time": 55.78260869565037,
          "velocity": 0.12598425196850394,
          "duration": 0.03260869565217206
        },
        {
          "name": "F#6",
          "midi": 90,
          "time": 55.78260869565037,
          "velocity": 0.2755905511811024,
          "duration": 0.06521739130434412
        },
        {
          "name": "C4",
          "midi": 60,
          "time": 55.79347826086776,
          "velocity": 0.14960629921259844,
          "duration": 0.08695652173912549
        },
        {
          "name": "C#7",
          "midi": 97,
          "time": 55.79347826086776,
          "velocity": 0.2204724409448819,
          "duration": 0.11956521739129755
        },
        {
          "name": "D7",
          "midi": 98,
          "time": 55.79347826086776,
          "velocity": 0.2677165354330709,
          "duration": 0.10869565217390686
        },
        {
          "name": "G4",
          "midi": 67,
          "time": 55.80434782608515,
          "velocity": 0.1889763779527559,
          "duration": 0.08695652173912549
        },
        {
          "name": "E5",
          "midi": 76,
          "time": 55.80434782608515,
          "velocity": 0.25196850393700787,
          "duration": 0.18478260869564167
        },
        {
          "name": "A#6",
          "midi": 94,
          "time": 55.80434782608515,
          "velocity": 0.10236220472440945,
          "duration": 0.0760869565217348
        },
        {
          "name": "A#5",
          "midi": 82,
          "time": 55.82608695651993,
          "velocity": 0.11023622047244094,
          "duration": 0.03260869565217206
        },
        {
          "name": "C6",
          "midi": 84,
          "time": 55.82608695651993,
          "velocity": 0.2283464566929134,
          "duration": 0.09782608695651618
        },
        {
          "name": "D6",
          "midi": 86,
          "time": 55.84782608695471,
          "velocity": 0.1732283464566929,
          "duration": 0.06521739130434412
        },
        {
          "name": "G#6",
          "midi": 92,
          "time": 55.84782608695471,
          "velocity": 0.15748031496062992,
          "duration": 0.06521739130434412
        },
        {
          "name": "B6",
          "midi": 95,
          "time": 55.8586956521721,
          "velocity": 0.1732283464566929,
          "duration": 0.05434782608695343
        },
        {
          "name": "A#5",
          "midi": 82,
          "time": 55.86956521738949,
          "velocity": 0.36220472440944884,
          "duration": 0.08695652173912549
        },
        {
          "name": "D7",
          "midi": 98,
          "time": 55.923913043476446,
          "velocity": 0.07086614173228346,
          "duration": 0.043478260869562746
        },
        {
          "name": "F#4",
          "midi": 66,
          "time": 55.93478260869384,
          "velocity": 0.4330708661417323,
          "duration": 0.14130434782607892
        },
        {
          "name": "D5",
          "midi": 74,
          "time": 55.93478260869384,
          "velocity": 0.1889763779527559,
          "duration": 0.10869565217390686
        },
        {
          "name": "C6",
          "midi": 84,
          "time": 55.93478260869384,
          "velocity": 0.25984251968503935,
          "duration": 0.0760869565217348
        },
        {
          "name": "C#6",
          "midi": 85,
          "time": 55.93478260869384,
          "velocity": 0.2677165354330709,
          "duration": 0.05434782608695343
        },
        {
          "name": "F6",
          "midi": 89,
          "time": 55.93478260869384,
          "velocity": 0.2125984251968504,
          "duration": 0.06521739130434412
        },
        {
          "name": "A5",
          "midi": 81,
          "time": 55.94565217391123,
          "velocity": 0.2283464566929134,
          "duration": 0.021739130434781373
        },
        {
          "name": "D6",
          "midi": 86,
          "time": 55.94565217391123,
          "velocity": 0.25984251968503935,
          "duration": 0.11956521739129755
        },
        {
          "name": "E6",
          "midi": 88,
          "time": 55.94565217391123,
          "velocity": 0.2755905511811024,
          "duration": 0.13043478260868824
        },
        {
          "name": "G#6",
          "midi": 92,
          "time": 55.94565217391123,
          "velocity": 0.2992125984251969,
          "duration": 0.09782608695651618
        },
        {
          "name": "D#7",
          "midi": 99,
          "time": 55.94565217391123,
          "velocity": 0.16535433070866143,
          "duration": 0.09782608695651618
        },
        {
          "name": "F#7",
          "midi": 102,
          "time": 55.94565217391123,
          "velocity": 0.2047244094488189,
          "duration": 0.06521739130434412
        },
        {
          "name": "B6",
          "midi": 95,
          "time": 55.95652173912862,
          "velocity": 0.18110236220472442,
          "duration": 0.03260869565217206
        },
        {
          "name": "A#5",
          "midi": 82,
          "time": 55.96739130434601,
          "velocity": 0.2992125984251969,
          "duration": 0.1521739130434696
        },
        {
          "name": "F#6",
          "midi": 90,
          "time": 55.96739130434601,
          "velocity": 0.2125984251968504,
          "duration": 0.08695652173912549
        },
        {
          "name": "C#6",
          "midi": 85,
          "time": 55.99999999999818,
          "velocity": 0.11811023622047244,
          "duration": 0.043478260869562746
        },
        {
          "name": "C7",
          "midi": 96,
          "time": 56.01086956521557,
          "velocity": 0.09448818897637795,
          "duration": 0.043478260869562746
        },
        {
          "name": "C#3",
          "midi": 49,
          "time": 56.02173913043296,
          "velocity": 0.18110236220472442,
          "duration": 0.21739130434781373
        },
        {
          "name": "A4",
          "midi": 69,
          "time": 56.02173913043296,
          "velocity": 0.1968503937007874,
          "duration": 0.05434782608695343
        },
        {
          "name": "C6",
          "midi": 84,
          "time": 56.02173913043296,
          "velocity": 0.10236220472440945,
          "duration": 0.03260869565217206
        },
        {
          "name": "C#5",
          "midi": 73,
          "time": 56.03260869565035,
          "velocity": 0.14960629921259844,
          "duration": 0.06521739130434412
        },
        {
          "name": "F5",
          "midi": 77,
          "time": 56.054347826085134,
          "velocity": 0.12598425196850394,
          "duration": 0.06521739130434412
        },
        {
          "name": "A#4",
          "midi": 70,
          "time": 56.076086956519916,
          "velocity": 0.14173228346456693,
          "duration": 0.043478260869562746
        },
        {
          "name": "C#4",
          "midi": 61,
          "time": 56.08695652173731,
          "velocity": 0.29133858267716534,
          "duration": 0.1630434782608603
        },
        {
          "name": "G5",
          "midi": 79,
          "time": 56.0978260869547,
          "velocity": 0.2125984251968504,
          "duration": 0.03260869565217206
        },
        {
          "name": "D7",
          "midi": 98,
          "time": 56.10869565217209,
          "velocity": 0.11023622047244094,
          "duration": 0.043478260869562746
        },
        {
          "name": "E7",
          "midi": 100,
          "time": 56.10869565217209,
          "velocity": 0.1732283464566929,
          "duration": 0.1630434782608603
        },
        {
          "name": "F#4",
          "midi": 66,
          "time": 56.14130434782426,
          "velocity": 0.33858267716535434,
          "duration": 0.10869565217390686
        },
        {
          "name": "G5",
          "midi": 79,
          "time": 56.14130434782426,
          "velocity": 0.1732283464566929,
          "duration": 0.06521739130434412
        },
        {
          "name": "A#4",
          "midi": 70,
          "time": 56.16304347825904,
          "velocity": 0.1732283464566929,
          "duration": 0.043478260869562746
        },
        {
          "name": "A#5",
          "midi": 82,
          "time": 56.17391304347643,
          "velocity": 0.2047244094488189,
          "duration": 0.03260869565217206
        },
        {
          "name": "A5",
          "midi": 81,
          "time": 56.18478260869382,
          "velocity": 0.2677165354330709,
          "duration": 0.29347826086954854
        },
        {
          "name": "B4",
          "midi": 71,
          "time": 56.206521739128604,
          "velocity": 0.1889763779527559,
          "duration": 0.09782608695651618
        },
        {
          "name": "E5",
          "midi": 76,
          "time": 56.206521739128604,
          "velocity": 0.10236220472440945,
          "duration": 0.043478260869562746
        },
        {
          "name": "B5",
          "midi": 83,
          "time": 56.217391304345995,
          "velocity": 0.25196850393700787,
          "duration": 0.14130434782607892
        },
        {
          "name": "D7",
          "midi": 98,
          "time": 56.228260869563385,
          "velocity": 0.1732283464566929,
          "duration": 0.1521739130434696
        },
        {
          "name": "C#6",
          "midi": 85,
          "time": 56.239130434780776,
          "velocity": 0.2204724409448819,
          "duration": 0.043478260869562746
        },
        {
          "name": "C7",
          "midi": 96,
          "time": 56.239130434780776,
          "velocity": 0.1732283464566929,
          "duration": 0.0760869565217348
        },
        {
          "name": "D6",
          "midi": 86,
          "time": 56.24999999999817,
          "velocity": 0.25196850393700787,
          "duration": 0.0760869565217348
        },
        {
          "name": "F7",
          "midi": 101,
          "time": 56.24999999999817,
          "velocity": 0.16535433070866143,
          "duration": 0.05434782608695343
        },
        {
          "name": "D#4",
          "midi": 63,
          "time": 56.26086956521556,
          "velocity": 0.3464566929133858,
          "duration": 0.021739130434781373
        },
        {
          "name": "E5",
          "midi": 76,
          "time": 56.26086956521556,
          "velocity": 0.2283464566929134,
          "duration": 0.021739130434781373
        },
        {
          "name": "G5",
          "midi": 79,
          "time": 56.26086956521556,
          "velocity": 0.2125984251968504,
          "duration": 0.11956521739129755
        },
        {
          "name": "F6",
          "midi": 89,
          "time": 56.26086956521556,
          "velocity": 0.2755905511811024,
          "duration": 0.14130434782607892
        },
        {
          "name": "F#6",
          "midi": 90,
          "time": 56.26086956521556,
          "velocity": 0.2677165354330709,
          "duration": 0.29347826086954854
        },
        {
          "name": "G6",
          "midi": 91,
          "time": 56.26086956521556,
          "velocity": 0.2755905511811024,
          "duration": 0.05434782608695343
        },
        {
          "name": "G4",
          "midi": 67,
          "time": 56.27173913043295,
          "velocity": 0.3228346456692913,
          "duration": 0.13043478260868824
        },
        {
          "name": "A#6",
          "midi": 94,
          "time": 56.27173913043295,
          "velocity": 0.1889763779527559,
          "duration": 0.043478260869562746
        },
        {
          "name": "F5",
          "midi": 77,
          "time": 56.28260869565034,
          "velocity": 0.2283464566929134,
          "duration": 0.021739130434781373
        },
        {
          "name": "D4",
          "midi": 62,
          "time": 56.31521739130251,
          "velocity": 0.25196850393700787,
          "duration": 0.0760869565217348
        },
        {
          "name": "D3",
          "midi": 50,
          "time": 56.3260869565199,
          "velocity": 0.13385826771653545,
          "duration": 0.06521739130434412
        },
        {
          "name": "B4",
          "midi": 71,
          "time": 56.3260869565199,
          "velocity": 0.25196850393700787,
          "duration": 0.05434782608695343
        },
        {
          "name": "D#6",
          "midi": 87,
          "time": 56.3260869565199,
          "velocity": 0.16535433070866143,
          "duration": 0.043478260869562746
        },
        {
          "name": "C6",
          "midi": 84,
          "time": 56.358695652172074,
          "velocity": 0.25196850393700787,
          "duration": 0.03260869565217206
        },
        {
          "name": "D6",
          "midi": 86,
          "time": 56.358695652172074,
          "velocity": 0.2440944881889764,
          "duration": 0.10869565217390686
        },
        {
          "name": "B4",
          "midi": 71,
          "time": 56.391304347824246,
          "velocity": 0.25984251968503935,
          "duration": 0.06521739130434412
        },
        {
          "name": "G5",
          "midi": 79,
          "time": 56.391304347824246,
          "velocity": 0.3700787401574803,
          "duration": 0.1630434782608603
        },
        {
          "name": "D#7",
          "midi": 99,
          "time": 56.391304347824246,
          "velocity": 0.10236220472440945,
          "duration": 0.06521739130434412
        },
        {
          "name": "F4",
          "midi": 65,
          "time": 56.402173913041636,
          "velocity": 0.3543307086614173,
          "duration": 0.021739130434781373
        },
        {
          "name": "D4",
          "midi": 62,
          "time": 56.41304347825903,
          "velocity": 0.3700787401574803,
          "duration": 0.14130434782607892
        },
        {
          "name": "E6",
          "midi": 88,
          "time": 56.42391304347642,
          "velocity": 0.13385826771653545,
          "duration": 0.05434782608695343
        },
        {
          "name": "D3",
          "midi": 50,
          "time": 56.43478260869381,
          "velocity": 0.15748031496062992,
          "duration": 0.10869565217390686
        },
        {
          "name": "G4",
          "midi": 67,
          "time": 56.43478260869381,
          "velocity": 0.31496062992125984,
          "duration": 0.11956521739129755
        },
        {
          "name": "C6",
          "midi": 84,
          "time": 56.43478260869381,
          "velocity": 0.2677165354330709,
          "duration": 0.05434782608695343
        },
        {
          "name": "G#6",
          "midi": 92,
          "time": 56.4456521739112,
          "velocity": 0.14960629921259844,
          "duration": 0.06521739130434412
        },
        {
          "name": "B4",
          "midi": 71,
          "time": 56.47826086956337,
          "velocity": 0.1889763779527559,
          "duration": 0.05434782608695343
        },
        {
          "name": "C#6",
          "midi": 85,
          "time": 56.47826086956337,
          "velocity": 0.25984251968503935,
          "duration": 0.06521739130434412
        },
        {
          "name": "A5",
          "midi": 81,
          "time": 56.49999999999815,
          "velocity": 0.16535433070866143,
          "duration": 0.05434782608695343
        },
        {
          "name": "D#6",
          "midi": 87,
          "time": 56.49999999999815,
          "velocity": 0.10236220472440945,
          "duration": 0.03260869565217206
        },
        {
          "name": "D6",
          "midi": 86,
          "time": 56.532608695650325,
          "velocity": 0.23622047244094488,
          "duration": 0.0760869565217348
        },
        {
          "name": "G#3",
          "midi": 56,
          "time": 56.543478260867715,
          "velocity": 0.2440944881889764,
          "duration": 0.03260869565217206
        },
        {
          "name": "E5",
          "midi": 76,
          "time": 56.543478260867715,
          "velocity": 0.2125984251968504,
          "duration": 0.03260869565217206
        },
        {
          "name": "A#5",
          "midi": 82,
          "time": 56.543478260867715,
          "velocity": 0.2047244094488189,
          "duration": 0.13043478260868824
        },
        {
          "name": "C6",
          "midi": 84,
          "time": 56.543478260867715,
          "velocity": 0.16535433070866143,
          "duration": 0.03260869565217206
        },
        {
          "name": "F6",
          "midi": 89,
          "time": 56.543478260867715,
          "velocity": 0.15748031496062992,
          "duration": 0.0760869565217348
        },
        {
          "name": "C7",
          "midi": 96,
          "time": 56.543478260867715,
          "velocity": 0.2125984251968504,
          "duration": 0.10869565217390686
        },
        {
          "name": "C#7",
          "midi": 97,
          "time": 56.543478260867715,
          "velocity": 0.2283464566929134,
          "duration": 0.06521739130434412
        },
        {
          "name": "F#4",
          "midi": 66,
          "time": 56.554347826085106,
          "velocity": 0.3937007874015748,
          "duration": 0.043478260869562746
        },
        {
          "name": "C#6",
          "midi": 85,
          "time": 56.554347826085106,
          "velocity": 0.2047244094488189,
          "duration": 0.06521739130434412
        },
        {
          "name": "A6",
          "midi": 93,
          "time": 56.554347826085106,
          "velocity": 0.2204724409448819,
          "duration": 0.05434782608695343
        },
        {
          "name": "D#7",
          "midi": 99,
          "time": 56.554347826085106,
          "velocity": 0.1968503937007874,
          "duration": 0.05434782608695343
        },
        {
          "name": "F7",
          "midi": 101,
          "time": 56.554347826085106,
          "velocity": 0.2755905511811024,
          "duration": 0.09782608695651618
        },
        {
          "name": "F#7",
          "midi": 102,
          "time": 56.554347826085106,
          "velocity": 0.16535433070866143,
          "duration": 0.05434782608695343
        },
        {
          "name": "E7",
          "midi": 100,
          "time": 56.5652173913025,
          "velocity": 0.2440944881889764,
          "duration": 0.06521739130434412
        },
        {
          "name": "D4",
          "midi": 62,
          "time": 56.57608695651989,
          "velocity": 0.1889763779527559,
          "duration": 0.06521739130434412
        },
        {
          "name": "C5",
          "midi": 72,
          "time": 56.60869565217206,
          "velocity": 0.13385826771653545,
          "duration": 0.05434782608695343
        },
        {
          "name": "C#6",
          "midi": 85,
          "time": 56.65217391304162,
          "velocity": 0.3858267716535433,
          "duration": 0.13043478260868824
        },
        {
          "name": "C#5",
          "midi": 73,
          "time": 56.66304347825901,
          "velocity": 0.1968503937007874,
          "duration": 0.03260869565217206
        },
        {
          "name": "E7",
          "midi": 100,
          "time": 56.684782608693794,
          "velocity": 0.1732283464566929,
          "duration": 0.06521739130434412
        },
        {
          "name": "G#5",
          "midi": 80,
          "time": 56.695652173911185,
          "velocity": 0.2440944881889764,
          "duration": 0.043478260869562746
        },
        {
          "name": "D7",
          "midi": 98,
          "time": 56.695652173911185,
          "velocity": 0.1732283464566929,
          "duration": 0.08695652173912549
        },
        {
          "name": "F7",
          "midi": 101,
          "time": 56.695652173911185,
          "velocity": 0.2047244094488189,
          "duration": 0.05434782608695343
        },
        {
          "name": "G4",
          "midi": 67,
          "time": 56.706521739128576,
          "velocity": 0.3228346456692913,
          "duration": 0.021739130434781373
        },
        {
          "name": "F#5",
          "midi": 78,
          "time": 56.706521739128576,
          "velocity": 0.23622047244094488,
          "duration": 0.08695652173912549
        },
        {
          "name": "F6",
          "midi": 89,
          "time": 56.706521739128576,
          "velocity": 0.12598425196850394,
          "duration": 0.043478260869562746
        },
        {
          "name": "D#7",
          "midi": 99,
          "time": 56.706521739128576,
          "velocity": 0.2125984251968504,
          "duration": 0.13043478260868824
        },
        {
          "name": "G6",
          "midi": 91,
          "time": 56.717391304345966,
          "velocity": 0.15748031496062992,
          "duration": 0.043478260869562746
        },
        {
          "name": "A6",
          "midi": 93,
          "time": 56.717391304345966,
          "velocity": 0.2125984251968504,
          "duration": 0.06521739130434412
        },
        {
          "name": "B6",
          "midi": 95,
          "time": 56.717391304345966,
          "velocity": 0.11811023622047244,
          "duration": 0.03260869565217206
        },
        {
          "name": "A4",
          "midi": 69,
          "time": 56.72826086956336,
          "velocity": 0.14960629921259844,
          "duration": 0.03260869565217206
        },
        {
          "name": "A5",
          "midi": 81,
          "time": 56.72826086956336,
          "velocity": 0.25984251968503935,
          "duration": 0.05434782608695343
        },
        {
          "name": "C7",
          "midi": 96,
          "time": 56.73913043478075,
          "velocity": 0.14960629921259844,
          "duration": 0.043478260869562746
        },
        {
          "name": "G#6",
          "midi": 92,
          "time": 56.74999999999814,
          "velocity": 0.15748031496062992,
          "duration": 0.05434782608695343
        },
        {
          "name": "D6",
          "midi": 86,
          "time": 56.76086956521553,
          "velocity": 0.13385826771653545,
          "duration": 0.043478260869562746
        },
        {
          "name": "G4",
          "midi": 67,
          "time": 56.77173913043292,
          "velocity": 0.3464566929133858,
          "duration": 0.03260869565217206
        },
        {
          "name": "A#6",
          "midi": 94,
          "time": 56.77173913043292,
          "velocity": 0.2677165354330709,
          "duration": 0.08695652173912549
        },
        {
          "name": "E7",
          "midi": 100,
          "time": 56.77173913043292,
          "velocity": 0.28346456692913385,
          "duration": 0.27173913043476716
        },
        {
          "name": "G#5",
          "midi": 80,
          "time": 56.78260869565031,
          "velocity": 0.11811023622047244,
          "duration": 0.043478260869562746
        },
        {
          "name": "A#5",
          "midi": 82,
          "time": 56.78260869565031,
          "velocity": 0.2677165354330709,
          "duration": 0.09782608695651618
        },
        {
          "name": "F7",
          "midi": 101,
          "time": 56.78260869565031,
          "velocity": 0.2125984251968504,
          "duration": 0.21739130434781373
        },
        {
          "name": "G#4",
          "midi": 68,
          "time": 56.80434782608509,
          "velocity": 0.2992125984251969,
          "duration": 0.021739130434781373
        },
        {
          "name": "C#5",
          "midi": 73,
          "time": 56.80434782608509,
          "velocity": 0.13385826771653545,
          "duration": 0.03260869565217206
        },
        {
          "name": "D#5",
          "midi": 75,
          "time": 56.81521739130248,
          "velocity": 0.14173228346456693,
          "duration": 0.043478260869562746
        },
        {
          "name": "C7",
          "midi": 96,
          "time": 56.81521739130248,
          "velocity": 0.1968503937007874,
          "duration": 0.1630434782608603
        },
        {
          "name": "F#7",
          "midi": 102,
          "time": 56.81521739130248,
          "velocity": 0.1732283464566929,
          "duration": 0.27173913043476716
        },
        {
          "name": "G#3",
          "midi": 56,
          "time": 56.82608695651987,
          "velocity": 0.30708661417322836,
          "duration": 0.021739130434781373
        },
        {
          "name": "G4",
          "midi": 67,
          "time": 56.82608695651987,
          "velocity": 0.2992125984251969,
          "duration": 0.06521739130434412
        },
        {
          "name": "A5",
          "midi": 81,
          "time": 56.82608695651987,
          "velocity": 0.31496062992125984,
          "duration": 0.17391304347825098
        },
        {
          "name": "C#6",
          "midi": 85,
          "time": 56.82608695651987,
          "velocity": 0.2125984251968504,
          "duration": 0.043478260869562746
        },
        {
          "name": "C#7",
          "midi": 97,
          "time": 56.82608695651987,
          "velocity": 0.25984251968503935,
          "duration": 0.29347826086954854
        },
        {
          "name": "D7",
          "midi": 98,
          "time": 56.82608695651987,
          "velocity": 0.1732283464566929,
          "duration": 0.08695652173912549
        },
        {
          "name": "D#6",
          "midi": 87,
          "time": 56.836956521737264,
          "velocity": 0.18110236220472442,
          "duration": 0.08695652173912549
        },
        {
          "name": "A4",
          "midi": 69,
          "time": 56.858695652172045,
          "velocity": 0.25196850393700787,
          "duration": 0.021739130434781373
        },
        {
          "name": "E5",
          "midi": 76,
          "time": 56.858695652172045,
          "velocity": 0.1968503937007874,
          "duration": 0.05434782608695343
        },
        {
          "name": "F#5",
          "midi": 78,
          "time": 56.858695652172045,
          "velocity": 0.25984251968503935,
          "duration": 0.1630434782608603
        },
        {
          "name": "C6",
          "midi": 84,
          "time": 56.858695652172045,
          "velocity": 0.2677165354330709,
          "duration": 0.08695652173912549
        },
        {
          "name": "D6",
          "midi": 86,
          "time": 56.858695652172045,
          "velocity": 0.25196850393700787,
          "duration": 0.10869565217390686
        },
        {
          "name": "E6",
          "midi": 88,
          "time": 56.858695652172045,
          "velocity": 0.2992125984251969,
          "duration": 0.14130434782607892
        },
        {
          "name": "B6",
          "midi": 95,
          "time": 56.858695652172045,
          "velocity": 0.16535433070866143,
          "duration": 0.03260869565217206
        },
        {
          "name": "D#7",
          "midi": 99,
          "time": 56.858695652172045,
          "velocity": 0.1968503937007874,
          "duration": 0.13043478260868824
        },
        {
          "name": "G6",
          "midi": 91,
          "time": 56.869565217389436,
          "velocity": 0.2755905511811024,
          "duration": 0.06521739130434412
        },
        {
          "name": "B4",
          "midi": 71,
          "time": 56.88043478260683,
          "velocity": 0.08661417322834646,
          "duration": 0.03260869565217206
        },
        {
          "name": "F6",
          "midi": 89,
          "time": 56.88043478260683,
          "velocity": 0.18110236220472442,
          "duration": 0.03260869565217206
        },
        {
          "name": "A#6",
          "midi": 94,
          "time": 56.88043478260683,
          "velocity": 0.18110236220472442,
          "duration": 0.03260869565217206
        },
        {
          "name": "G#4",
          "midi": 68,
          "time": 56.92391304347639,
          "velocity": 0.28346456692913385,
          "duration": 0.03260869565217206
        },
        {
          "name": "D5",
          "midi": 74,
          "time": 56.92391304347639,
          "velocity": 0.28346456692913385,
          "duration": 0.20652173913042304
        },
        {
          "name": "G#6",
          "midi": 92,
          "time": 56.93478260869378,
          "velocity": 0.25984251968503935,
          "duration": 0.043478260869562746
        },
        {
          "name": "G4",
          "midi": 67,
          "time": 56.95652173912856,
          "velocity": 0.1889763779527559,
          "duration": 0.043478260869562746
        },
        {
          "name": "B4",
          "midi": 71,
          "time": 56.95652173912856,
          "velocity": 0.28346456692913385,
          "duration": 0.10869565217390686
        },
        {
          "name": "C6",
          "midi": 84,
          "time": 56.95652173912856,
          "velocity": 0.1889763779527559,
          "duration": 0.14130434782607892
        },
        {
          "name": "D3",
          "midi": 50,
          "time": 56.96739130434595,
          "velocity": 0.1968503937007874,
          "duration": 0.19565217391303236
        },
        {
          "name": "G5",
          "midi": 79,
          "time": 56.97826086956334,
          "velocity": 0.3543307086614173,
          "duration": 0.20652173913042304
        },
        {
          "name": "D4",
          "midi": 62,
          "time": 56.98913043478073,
          "velocity": 0.2677165354330709,
          "duration": 0.08695652173912549
        },
        {
          "name": "G#4",
          "midi": 68,
          "time": 56.999999999998124,
          "velocity": 0.23622047244094488,
          "duration": 0.03260869565217206
        },
        {
          "name": "A#5",
          "midi": 82,
          "time": 56.999999999998124,
          "velocity": 0.25984251968503935,
          "duration": 0.08695652173912549
        },
        {
          "name": "D#7",
          "midi": 99,
          "time": 57.010869565215515,
          "velocity": 0.2047244094488189,
          "duration": 0.08695652173912549
        },
        {
          "name": "A#3",
          "midi": 58,
          "time": 57.021739130432906,
          "velocity": 0.31496062992125984,
          "duration": 0.043478260869562746
        },
        {
          "name": "F5",
          "midi": 77,
          "time": 57.021739130432906,
          "velocity": 0.07874015748031496,
          "duration": 0.03260869565217206
        },
        {
          "name": "E6",
          "midi": 88,
          "time": 57.021739130432906,
          "velocity": 0.10236220472440945,
          "duration": 0.03260869565217206
        },
        {
          "name": "D7",
          "midi": 98,
          "time": 57.021739130432906,
          "velocity": 0.2283464566929134,
          "duration": 0.10869565217390686
        },
        {
          "name": "B6",
          "midi": 95,
          "time": 57.032608695650296,
          "velocity": 0.18110236220472442,
          "duration": 0.0760869565217348
        },
        {
          "name": "G#6",
          "midi": 92,
          "time": 57.04347826086769,
          "velocity": 0.15748031496062992,
          "duration": 0.0760869565217348
        },
        {
          "name": "E5",
          "midi": 76,
          "time": 57.05434782608508,
          "velocity": 0.2283464566929134,
          "duration": 0.05434782608695343
        },
        {
          "name": "E7",
          "midi": 100,
          "time": 57.05434782608508,
          "velocity": 0.2204724409448819,
          "duration": 0.043478260869562746
        },
        {
          "name": "B5",
          "midi": 83,
          "time": 57.07608695651986,
          "velocity": 0.14173228346456693,
          "duration": 0.06521739130434412
        },
        {
          "name": "A#3",
          "midi": 58,
          "time": 57.08695652173725,
          "velocity": 0.2204724409448819,
          "duration": 0.03260869565217206
        },
        {
          "name": "D4",
          "midi": 62,
          "time": 57.08695652173725,
          "velocity": 0.2283464566929134,
          "duration": 0.06521739130434412
        },
        {
          "name": "G4",
          "midi": 67,
          "time": 57.10869565217203,
          "velocity": 0.2677165354330709,
          "duration": 0.05434782608695343
        },
        {
          "name": "F5",
          "midi": 77,
          "time": 57.10869565217203,
          "velocity": 0.09448818897637795,
          "duration": 0.043478260869562746
        },
        {
          "name": "F#7",
          "midi": 102,
          "time": 57.11956521738942,
          "velocity": 0.16535433070866143,
          "duration": 0.09782608695651618
        },
        {
          "name": "D#5",
          "midi": 75,
          "time": 57.13043478260681,
          "velocity": 0.1889763779527559,
          "duration": 0.06521739130434412
        },
        {
          "name": "A#5",
          "midi": 82,
          "time": 57.13043478260681,
          "velocity": 0.2440944881889764,
          "duration": 0.1630434782608603
        },
        {
          "name": "C#7",
          "midi": 97,
          "time": 57.13043478260681,
          "velocity": 0.1968503937007874,
          "duration": 0.10869565217390686
        },
        {
          "name": "C#6",
          "midi": 85,
          "time": 57.152173913041594,
          "velocity": 0.2283464566929134,
          "duration": 0.03260869565217206
        },
        {
          "name": "D#7",
          "midi": 99,
          "time": 57.163043478258984,
          "velocity": 0.1968503937007874,
          "duration": 0.06521739130434412
        },
        {
          "name": "E7",
          "midi": 100,
          "time": 57.163043478258984,
          "velocity": 0.23622047244094488,
          "duration": 0.06521739130434412
        },
        {
          "name": "G7",
          "midi": 103,
          "time": 57.163043478258984,
          "velocity": 0.15748031496062992,
          "duration": 0.05434782608695343
        },
        {
          "name": "B3",
          "midi": 59,
          "time": 57.173913043476375,
          "velocity": 0.2047244094488189,
          "duration": 0.043478260869562746
        },
        {
          "name": "F4",
          "midi": 65,
          "time": 57.173913043476375,
          "velocity": 0.4251968503937008,
          "duration": 0.021739130434781373
        },
        {
          "name": "A4",
          "midi": 69,
          "time": 57.173913043476375,
          "velocity": 0.25984251968503935,
          "duration": 0.021739130434781373
        },
        {
          "name": "B5",
          "midi": 83,
          "time": 57.173913043476375,
          "velocity": 0.18110236220472442,
          "duration": 0.03260869565217206
        },
        {
          "name": "E6",
          "midi": 88,
          "time": 57.173913043476375,
          "velocity": 0.1889763779527559,
          "duration": 0.03260869565217206
        },
        {
          "name": "G#6",
          "midi": 92,
          "time": 57.173913043476375,
          "velocity": 0.1889763779527559,
          "duration": 0.03260869565217206
        },
        {
          "name": "B6",
          "midi": 95,
          "time": 57.173913043476375,
          "velocity": 0.2125984251968504,
          "duration": 0.043478260869562746
        },
        {
          "name": "F7",
          "midi": 101,
          "time": 57.173913043476375,
          "velocity": 0.28346456692913385,
          "duration": 0.09782608695651618
        },
        {
          "name": "F#4",
          "midi": 66,
          "time": 57.19565217391116,
          "velocity": 0.3228346456692913,
          "duration": 0.043478260869562746
        },
        {
          "name": "D#6",
          "midi": 87,
          "time": 57.20652173912855,
          "velocity": 0.2125984251968504,
          "duration": 0.11956521739129755
        },
        {
          "name": "F5",
          "midi": 77,
          "time": 57.22826086956333,
          "velocity": 0.11023622047244094,
          "duration": 0.03260869565217206
        },
        {
          "name": "A4",
          "midi": 69,
          "time": 57.23913043478072,
          "velocity": 0.30708661417322836,
          "duration": 0.021739130434781373
        },
        {
          "name": "B3",
          "midi": 59,
          "time": 57.24999999999811,
          "velocity": 0.2283464566929134,
          "duration": 0.021739130434781373
        },
        {
          "name": "D#5",
          "midi": 75,
          "time": 57.27173913043289,
          "velocity": 0.14173228346456693,
          "duration": 0.05434782608695343
        },
        {
          "name": "F7",
          "midi": 101,
          "time": 57.29347826086767,
          "velocity": 0.25196850393700787,
          "duration": 0.1521739130434696
        },
        {
          "name": "A#4",
          "midi": 70,
          "time": 57.30434782608506,
          "velocity": 0.29133858267716534,
          "duration": 0.043478260869562746
        },
        {
          "name": "A#3",
          "midi": 58,
          "time": 57.315217391302454,
          "velocity": 0.2440944881889764,
          "duration": 0.03260869565217206
        },
        {
          "name": "C#6",
          "midi": 85,
          "time": 57.315217391302454,
          "velocity": 0.29133858267716534,
          "duration": 0.03260869565217206
        },
        {
          "name": "F6",
          "midi": 89,
          "time": 57.315217391302454,
          "velocity": 0.1889763779527559,
          "duration": 0.06521739130434412
        },
        {
          "name": "A#6",
          "midi": 94,
          "time": 57.315217391302454,
          "velocity": 0.2204724409448819,
          "duration": 0.043478260869562746
        },
        {
          "name": "E7",
          "midi": 100,
          "time": 57.315217391302454,
          "velocity": 0.2440944881889764,
          "duration": 0.2499999999999858
        },
        {
          "name": "F#7",
          "midi": 102,
          "time": 57.315217391302454,
          "velocity": 0.1889763779527559,
          "duration": 0.09782608695651618
        },
        {
          "name": "B5",
          "midi": 83,
          "time": 57.326086956519845,
          "velocity": 0.1968503937007874,
          "duration": 0.05434782608695343
        },
        {
          "name": "E6",
          "midi": 88,
          "time": 57.326086956519845,
          "velocity": 0.2047244094488189,
          "duration": 0.06521739130434412
        },
        {
          "name": "F#6",
          "midi": 90,
          "time": 57.326086956519845,
          "velocity": 0.2283464566929134,
          "duration": 0.10869565217390686
        },
        {
          "name": "B6",
          "midi": 95,
          "time": 57.326086956519845,
          "velocity": 0.2283464566929134,
          "duration": 0.0760869565217348
        },
        {
          "name": "C7",
          "midi": 96,
          "time": 57.326086956519845,
          "velocity": 0.33070866141732286,
          "duration": 0.10869565217390686
        },
        {
          "name": "G7",
          "midi": 103,
          "time": 57.326086956519845,
          "velocity": 0.2125984251968504,
          "duration": 0.10869565217390686
        },
        {
          "name": "D5",
          "midi": 74,
          "time": 57.336956521737235,
          "velocity": 0.14960629921259844,
          "duration": 0.03260869565217206
        },
        {
          "name": "A5",
          "midi": 81,
          "time": 57.336956521737235,
          "velocity": 0.29133858267716534,
          "duration": 0.17391304347825098
        },
        {
          "name": "C6",
          "midi": 84,
          "time": 57.336956521737235,
          "velocity": 0.29133858267716534,
          "duration": 0.13043478260868824
        },
        {
          "name": "D#6",
          "midi": 87,
          "time": 57.336956521737235,
          "velocity": 0.2440944881889764,
          "duration": 0.021739130434781373
        },
        {
          "name": "G#6",
          "midi": 92,
          "time": 57.336956521737235,
          "velocity": 0.2125984251968504,
          "duration": 0.043478260869562746
        },
        {
          "name": "G6",
          "midi": 91,
          "time": 57.347826086954626,
          "velocity": 0.23622047244094488,
          "duration": 0.043478260869562746
        },
        {
          "name": "D#5",
          "midi": 75,
          "time": 57.35869565217202,
          "velocity": 0.2047244094488189,
          "duration": 0.043478260869562746
        },
        {
          "name": "G#5",
          "midi": 80,
          "time": 57.35869565217202,
          "velocity": 0.11023622047244094,
          "duration": 0.03260869565217206
        },
        {
          "name": "A#4",
          "midi": 70,
          "time": 57.39130434782419,
          "velocity": 0.2755905511811024,
          "duration": 0.03260869565217206
        },
        {
          "name": "D7",
          "midi": 98,
          "time": 57.39130434782419,
          "velocity": 0.16535433070866143,
          "duration": 0.043478260869562746
        },
        {
          "name": "E6",
          "midi": 88,
          "time": 57.40217391304158,
          "velocity": 0.36220472440944884,
          "duration": 0.08695652173912549
        },
        {
          "name": "G#6",
          "midi": 92,
          "time": 57.40217391304158,
          "velocity": 0.14960629921259844,
          "duration": 0.03260869565217206
        },
        {
          "name": "A#6",
          "midi": 94,
          "time": 57.40217391304158,
          "velocity": 0.2204724409448819,
          "duration": 0.05434782608695343
        },
        {
          "name": "B6",
          "midi": 95,
          "time": 57.43478260869375,
          "velocity": 0.18110236220472442,
          "duration": 0.0760869565217348
        },
        {
          "name": "E5",
          "midi": 76,
          "time": 57.45652173912853,
          "velocity": 0.2204724409448819,
          "duration": 0.0760869565217348
        },
        {
          "name": "B5",
          "midi": 83,
          "time": 57.45652173912853,
          "velocity": 0.14173228346456693,
          "duration": 0.03260869565217206
        },
        {
          "name": "D6",
          "midi": 86,
          "time": 57.45652173912853,
          "velocity": 0.1889763779527559,
          "duration": 0.05434782608695343
        },
        {
          "name": "C#7",
          "midi": 97,
          "time": 57.45652173912853,
          "velocity": 0.1732283464566929,
          "duration": 0.05434782608695343
        },
        {
          "name": "F7",
          "midi": 101,
          "time": 57.45652173912853,
          "velocity": 0.2204724409448819,
          "duration": 0.09782608695651618
        },
        {
          "name": "A#4",
          "midi": 70,
          "time": 57.467391304345924,
          "velocity": 0.2992125984251969,
          "duration": 0.03260869565217206
        },
        {
          "name": "G5",
          "midi": 79,
          "time": 57.467391304345924,
          "velocity": 0.2204724409448819,
          "duration": 0.08695652173912549
        },
        {
          "name": "C#6",
          "midi": 85,
          "time": 57.467391304345924,
          "velocity": 0.25984251968503935,
          "duration": 0.05434782608695343
        },
        {
          "name": "C7",
          "midi": 96,
          "time": 57.467391304345924,
          "velocity": 0.15748031496062992,
          "duration": 0.0760869565217348
        },
        {
          "name": "D#7",
          "midi": 99,
          "time": 57.467391304345924,
          "velocity": 0.13385826771653545,
          "duration": 0.03260869565217206
        },
        {
          "name": "F#7",
          "midi": 102,
          "time": 57.467391304345924,
          "velocity": 0.1968503937007874,
          "duration": 0.06521739130434412
        },
        {
          "name": "C#5",
          "midi": 73,
          "time": 57.478260869563314,
          "velocity": 0.16535433070866143,
          "duration": 0.043478260869562746
        },
        {
          "name": "F6",
          "midi": 89,
          "time": 57.478260869563314,
          "velocity": 0.2440944881889764,
          "duration": 0.08695652173912549
        },
        {
          "name": "G#6",
          "midi": 92,
          "time": 57.478260869563314,
          "velocity": 0.18110236220472442,
          "duration": 0.05434782608695343
        },
        {
          "name": "D4",
          "midi": 62,
          "time": 57.489130434780705,
          "velocity": 0.25196850393700787,
          "duration": 0.043478260869562746
        },
        {
          "name": "C6",
          "midi": 84,
          "time": 57.489130434780705,
          "velocity": 0.2204724409448819,
          "duration": 0.03260869565217206
        },
        {
          "name": "D7",
          "midi": 98,
          "time": 57.489130434780705,
          "velocity": 0.2047244094488189,
          "duration": 0.043478260869562746
        },
        {
          "name": "F#6",
          "midi": 90,
          "time": 57.499999999998096,
          "velocity": 0.16535433070866143,
          "duration": 0.043478260869562746
        },
        {
          "name": "F#4",
          "midi": 66,
          "time": 57.510869565215486,
          "velocity": 0.23622047244094488,
          "duration": 0.043478260869562746
        },
        {
          "name": "A4",
          "midi": 69,
          "time": 57.510869565215486,
          "velocity": 0.25984251968503935,
          "duration": 0.021739130434781373
        },
        {
          "name": "A#5",
          "midi": 82,
          "time": 57.510869565215486,
          "velocity": 0.14173228346456693,
          "duration": 0.043478260869562746
        },
        {
          "name": "E6",
          "midi": 88,
          "time": 57.510869565215486,
          "velocity": 0.2440944881889764,
          "duration": 0.03260869565217206
        },
        {
          "name": "B6",
          "midi": 95,
          "time": 57.52173913043288,
          "velocity": 0.11023622047244094,
          "duration": 0.05434782608695343
        },
        {
          "name": "D#7",
          "midi": 99,
          "time": 57.52173913043288,
          "velocity": 0.09448818897637795,
          "duration": 0.08695652173912549
        },
        {
          "name": "B4",
          "midi": 71,
          "time": 57.53260869565027,
          "velocity": 0.2755905511811024,
          "duration": 0.021739130434781373
        },
        {
          "name": "C4",
          "midi": 60,
          "time": 57.54347826086766,
          "velocity": 0.2755905511811024,
          "duration": 0.021739130434781373
        },
        {
          "name": "C#5",
          "midi": 73,
          "time": 57.54347826086766,
          "velocity": 0.2755905511811024,
          "duration": 0.021739130434781373
        },
        {
          "name": "A5",
          "midi": 81,
          "time": 57.54347826086766,
          "velocity": 0.18110236220472442,
          "duration": 0.043478260869562746
        },
        {
          "name": "F#7",
          "midi": 102,
          "time": 57.54347826086766,
          "velocity": 0.11023622047244094,
          "duration": 0.05434782608695343
        },
        {
          "name": "A#4",
          "midi": 70,
          "time": 57.55434782608505,
          "velocity": 0.25196850393700787,
          "duration": 0.03260869565217206
        },
        {
          "name": "E5",
          "midi": 76,
          "time": 57.55434782608505,
          "velocity": 0.14173228346456693,
          "duration": 0.03260869565217206
        },
        {
          "name": "E6",
          "midi": 88,
          "time": 57.55434782608505,
          "velocity": 0.18110236220472442,
          "duration": 0.05434782608695343
        },
        {
          "name": "D3",
          "midi": 50,
          "time": 57.56521739130244,
          "velocity": 0.1732283464566929,
          "duration": 0.1521739130434696
        },
        {
          "name": "C7",
          "midi": 96,
          "time": 57.56521739130244,
          "velocity": 0.14960629921259844,
          "duration": 0.03260869565217206
        },
        {
          "name": "G5",
          "midi": 79,
          "time": 57.57608695651983,
          "velocity": 0.08661417322834646,
          "duration": 0.043478260869562746
        },
        {
          "name": "C4",
          "midi": 60,
          "time": 57.58695652173722,
          "velocity": 0.2283464566929134,
          "duration": 0.021739130434781373
        },
        {
          "name": "B4",
          "midi": 71,
          "time": 57.58695652173722,
          "velocity": 0.2755905511811024,
          "duration": 0.03260869565217206
        },
        {
          "name": "D5",
          "midi": 74,
          "time": 57.58695652173722,
          "velocity": 0.18110236220472442,
          "duration": 0.0760869565217348
        },
        {
          "name": "F6",
          "midi": 89,
          "time": 57.58695652173722,
          "velocity": 0.1732283464566929,
          "duration": 0.03260869565217206
        },
        {
          "name": "F5",
          "midi": 77,
          "time": 57.59782608695461,
          "velocity": 0.25984251968503935,
          "duration": 0.06521739130434412
        },
        {
          "name": "G#5",
          "midi": 80,
          "time": 57.61956521738939,
          "velocity": 0.2440944881889764,
          "duration": 0.03260869565217206
        },
        {
          "name": "E6",
          "midi": 88,
          "time": 57.61956521738939,
          "velocity": 0.33858267716535434,
          "duration": 0.06521739130434412
        },
        {
          "name": "B4",
          "midi": 71,
          "time": 57.630434782606784,
          "velocity": 0.29133858267716534,
          "duration": 0.021739130434781373
        },
        {
          "name": "G5",
          "midi": 79,
          "time": 57.630434782606784,
          "velocity": 0.2992125984251969,
          "duration": 0.17391304347825098
        },
        {
          "name": "A#5",
          "midi": 82,
          "time": 57.630434782606784,
          "velocity": 0.12598425196850394,
          "duration": 0.05434782608695343
        },
        {
          "name": "C6",
          "midi": 84,
          "time": 57.630434782606784,
          "velocity": 0.2125984251968504,
          "duration": 0.043478260869562746
        },
        {
          "name": "A6",
          "midi": 93,
          "time": 57.630434782606784,
          "velocity": 0.14173228346456693,
          "duration": 0.03260869565217206
        },
        {
          "name": "A#6",
          "midi": 94,
          "time": 57.630434782606784,
          "velocity": 0.25196850393700787,
          "duration": 0.13043478260868824
        },
        {
          "name": "B6",
          "midi": 95,
          "time": 57.630434782606784,
          "velocity": 0.18110236220472442,
          "duration": 0.17391304347825098
        },
        {
          "name": "C#7",
          "midi": 97,
          "time": 57.630434782606784,
          "velocity": 0.16535433070866143,
          "duration": 0.03260869565217206
        },
        {
          "name": "D7",
          "midi": 98,
          "time": 57.630434782606784,
          "velocity": 0.2755905511811024,
          "duration": 0.20652173913042304
        },
        {
          "name": "F7",
          "midi": 101,
          "time": 57.630434782606784,
          "velocity": 0.1968503937007874,
          "duration": 0.13043478260868824
        },
        {
          "name": "F#7",
          "midi": 102,
          "time": 57.641304347824175,
          "velocity": 0.14960629921259844,
          "duration": 0.05434782608695343
        },
        {
          "name": "D4",
          "midi": 62,
          "time": 57.652173913041565,
          "velocity": 0.2204724409448819,
          "duration": 0.043478260869562746
        },
        {
          "name": "G4",
          "midi": 67,
          "time": 57.652173913041565,
          "velocity": 0.2125984251968504,
          "duration": 0.06521739130434412
        },
        {
          "name": "C5",
          "midi": 72,
          "time": 57.67391304347635,
          "velocity": 0.2677165354330709,
          "duration": 0.03260869565217206
        },
        {
          "name": "F6",
          "midi": 89,
          "time": 57.67391304347635,
          "velocity": 0.31496062992125984,
          "duration": 0.14130434782607892
        },
        {
          "name": "C7",
          "midi": 96,
          "time": 57.67391304347635,
          "velocity": 0.11811023622047244,
          "duration": 0.03260869565217206
        },
        {
          "name": "C4",
          "midi": 60,
          "time": 57.68478260869374,
          "velocity": 0.23622047244094488,
          "duration": 0.021739130434781373
        },
        {
          "name": "C#7",
          "midi": 97,
          "time": 57.68478260869374,
          "velocity": 0.2283464566929134,
          "duration": 0.10869565217390686
        },
        {
          "name": "A#5",
          "midi": 82,
          "time": 57.69565217391113,
          "velocity": 0.28346456692913385,
          "duration": 0.18478260869564167
        },
        {
          "name": "A6",
          "midi": 93,
          "time": 57.69565217391113,
          "velocity": 0.2440944881889764,
          "duration": 0.1521739130434696
        },
        {
          "name": "D#4",
          "midi": 63,
          "time": 57.70652173912852,
          "velocity": 0.2677165354330709,
          "duration": 0.021739130434781373
        },
        {
          "name": "B4",
          "midi": 71,
          "time": 57.70652173912852,
          "velocity": 0.2755905511811024,
          "duration": 0.021739130434781373
        },
        {
          "name": "F5",
          "midi": 77,
          "time": 57.70652173912852,
          "velocity": 0.28346456692913385,
          "duration": 0.09782608695651618
        },
        {
          "name": "D6",
          "midi": 86,
          "time": 57.70652173912852,
          "velocity": 0.2047244094488189,
          "duration": 0.17391304347825098
        },
        {
          "name": "F#7",
          "midi": 102,
          "time": 57.70652173912852,
          "velocity": 0.11023622047244094,
          "duration": 0.05434782608695343
        },
        {
          "name": "D#6",
          "midi": 87,
          "time": 57.71739130434591,
          "velocity": 0.14960629921259844,
          "duration": 0.10869565217390686
        },
        {
          "name": "D3",
          "midi": 50,
          "time": 57.7282608695633,
          "velocity": 0.13385826771653545,
          "duration": 0.03260869565217206
        },
        {
          "name": "G4",
          "midi": 67,
          "time": 57.7282608695633,
          "velocity": 0.33858267716535434,
          "duration": 0.05434782608695343
        },
        {
          "name": "C5",
          "midi": 72,
          "time": 57.7282608695633,
          "velocity": 0.25984251968503935,
          "duration": 0.03260869565217206
        },
        {
          "name": "C#4",
          "midi": 61,
          "time": 57.73913043478069,
          "velocity": 0.29133858267716534,
          "duration": 0.021739130434781373
        },
        {
          "name": "D5",
          "midi": 74,
          "time": 57.74999999999808,
          "velocity": 0.14173228346456693,
          "duration": 0.043478260869562746
        },
        {
          "name": "G#5",
          "midi": 80,
          "time": 57.74999999999808,
          "velocity": 0.12598425196850394,
          "duration": 0.03260869565217206
        },
        {
          "name": "F#6",
          "midi": 90,
          "time": 57.74999999999808,
          "velocity": 0.1732283464566929,
          "duration": 0.10869565217390686
        },
        {
          "name": "C5",
          "midi": 72,
          "time": 57.77173913043286,
          "velocity": 0.25984251968503935,
          "duration": 0.021739130434781373
        },
        {
          "name": "C#6",
          "midi": 85,
          "time": 57.77173913043286,
          "velocity": 0.25984251968503935,
          "duration": 0.03260869565217206
        },
        {
          "name": "G#6",
          "midi": 92,
          "time": 57.77173913043286,
          "velocity": 0.15748031496062992,
          "duration": 0.05434782608695343
        },
        {
          "name": "F#4",
          "midi": 66,
          "time": 57.782608695650254,
          "velocity": 0.4094488188976378,
          "duration": 0.06521739130434412
        },
        {
          "name": "E7",
          "midi": 100,
          "time": 57.782608695650254,
          "velocity": 0.2283464566929134,
          "duration": 0.05434782608695343
        },
        {
          "name": "B4",
          "midi": 71,
          "time": 57.793478260867644,
          "velocity": 0.1732283464566929,
          "duration": 0.03260869565217206
        },
        {
          "name": "C6",
          "midi": 84,
          "time": 57.793478260867644,
          "velocity": 0.2125984251968504,
          "duration": 0.03260869565217206
        },
        {
          "name": "D#7",
          "midi": 99,
          "time": 57.793478260867644,
          "velocity": 0.1732283464566929,
          "duration": 0.03260869565217206
        },
        {
          "name": "G#5",
          "midi": 80,
          "time": 57.804347826085035,
          "velocity": 0.14960629921259844,
          "duration": 0.03260869565217206
        },
        {
          "name": "C4",
          "midi": 60,
          "time": 57.815217391302426,
          "velocity": 0.1732283464566929,
          "duration": 0.03260869565217206
        },
        {
          "name": "C#7",
          "midi": 97,
          "time": 57.815217391302426,
          "velocity": 0.07874015748031496,
          "duration": 0.03260869565217206
        },
        {
          "name": "F6",
          "midi": 89,
          "time": 57.826086956519816,
          "velocity": 0.14173228346456693,
          "duration": 0.043478260869562746
        },
        {
          "name": "C5",
          "midi": 72,
          "time": 57.83695652173721,
          "velocity": 0.2677165354330709,
          "duration": 0.08695652173912549
        },
        {
          "name": "G5",
          "midi": 79,
          "time": 57.8478260869546,
          "velocity": 0.1732283464566929,
          "duration": 0.043478260869562746
        },
        {
          "name": "C#4",
          "midi": 61,
          "time": 57.85869565217199,
          "velocity": 0.23622047244094488,
          "duration": 0.05434782608695343
        },
        {
          "name": "F#5",
          "midi": 78,
          "time": 57.86956521738938,
          "velocity": 0.25984251968503935,
          "duration": 0.05434782608695343
        },
        {
          "name": "G6",
          "midi": 91,
          "time": 57.91304347825894,
          "velocity": 0.14960629921259844,
          "duration": 0.03260869565217206
        },
        {
          "name": "C#5",
          "midi": 73,
          "time": 57.92391304347633,
          "velocity": 0.28346456692913385,
          "duration": 0.021739130434781373
        },
        {
          "name": "F#6",
          "midi": 90,
          "time": 57.92391304347633,
          "velocity": 0.23622047244094488,
          "duration": 0.021739130434781373
        },
        {
          "name": "F7",
          "midi": 101,
          "time": 57.92391304347633,
          "velocity": 0.10236220472440945,
          "duration": 0.06521739130434412
        },
        {
          "name": "G#3",
          "midi": 56,
          "time": 57.93478260869372,
          "velocity": 0.08661417322834646,
          "duration": 0.03260869565217206
        },
        {
          "name": "G5",
          "midi": 79,
          "time": 57.93478260869372,
          "velocity": 0.2677165354330709,
          "duration": 0.03260869565217206
        },
        {
          "name": "A#5",
          "midi": 82,
          "time": 57.93478260869372,
          "velocity": 0.1968503937007874,
          "duration": 0.09782608695651618
        },
        {
          "name": "F6",
          "midi": 89,
          "time": 57.945652173911114,
          "velocity": 0.2992125984251969,
          "duration": 0.021739130434781373
        },
        {
          "name": "C#7",
          "midi": 97,
          "time": 57.945652173911114,
          "velocity": 0.2204724409448819,
          "duration": 0.043478260869562746
        },
        {
          "name": "E6",
          "midi": 88,
          "time": 57.956521739128505,
          "velocity": 0.1732283464566929,
          "duration": 0.043478260869562746
        },
        {
          "name": "C5",
          "midi": 72,
          "time": 57.967391304345895,
          "velocity": 0.2440944881889764,
          "duration": 0.021739130434781373
        },
        {
          "name": "F#6",
          "midi": 90,
          "time": 57.967391304345895,
          "velocity": 0.28346456692913385,
          "duration": 0.11956521739129755
        },
        {
          "name": "D7",
          "midi": 98,
          "time": 57.967391304345895,
          "velocity": 0.09448818897637795,
          "duration": 0.03260869565217206
        },
        {
          "name": "A6",
          "midi": 93,
          "time": 57.978260869563286,
          "velocity": 0.11811023622047244,
          "duration": 0.03260869565217206
        },
        {
          "name": "C#5",
          "midi": 73,
          "time": 57.99999999999807,
          "velocity": 0.28346456692913385,
          "duration": 0.03260869565217206
        },
        {
          "name": "G5",
          "midi": 79,
          "time": 57.99999999999807,
          "velocity": 0.13385826771653545,
          "duration": 0.03260869565217206
        },
        {
          "name": "D6",
          "midi": 86,
          "time": 57.99999999999807,
          "velocity": 0.08661417322834646,
          "duration": 0.03260869565217206
        },
        {
          "name": "C#7",
          "midi": 97,
          "time": 57.99999999999807,
          "velocity": 0.14173228346456693,
          "duration": 0.06521739130434412
        },
        {
          "name": "G7",
          "midi": 103,
          "time": 57.99999999999807,
          "velocity": 0.1732283464566929,
          "duration": 0.0760869565217348
        },
        {
          "name": "C#4",
          "midi": 61,
          "time": 58.01086956521546,
          "velocity": 0.23622047244094488,
          "duration": 0.03260869565217206
        },
        {
          "name": "C6",
          "midi": 84,
          "time": 58.02173913043285,
          "velocity": 0.1732283464566929,
          "duration": 0.03260869565217206
        },
        {
          "name": "C#6",
          "midi": 85,
          "time": 58.03260869565024,
          "velocity": 0.11023622047244094,
          "duration": 0.03260869565217206
        },
        {
          "name": "F6",
          "midi": 89,
          "time": 58.03260869565024,
          "velocity": 0.11023622047244094,
          "duration": 0.043478260869562746
        },
        {
          "name": "C#5",
          "midi": 73,
          "time": 58.04347826086763,
          "velocity": 0.31496062992125984,
          "duration": 0.021739130434781373
        },
        {
          "name": "E7",
          "midi": 100,
          "time": 58.04347826086763,
          "velocity": 0.14173228346456693,
          "duration": 0.03260869565217206
        },
        {
          "name": "A#5",
          "midi": 82,
          "time": 58.05434782608502,
          "velocity": 0.07086614173228346,
          "duration": 0.05434782608695343
        },
        {
          "name": "D4",
          "midi": 62,
          "time": 58.0760869565198,
          "velocity": 0.29133858267716534,
          "duration": 0.05434782608695343
        },
        {
          "name": "C#5",
          "midi": 73,
          "time": 58.0760869565198,
          "velocity": 0.2677165354330709,
          "duration": 0.021739130434781373
        },
        {
          "name": "C5",
          "midi": 72,
          "time": 58.108695652171974,
          "velocity": 0.18110236220472442,
          "duration": 0.03260869565217206
        },
        {
          "name": "C#4",
          "midi": 61,
          "time": 58.130434782606756,
          "velocity": 0.18110236220472442,
          "duration": 0.043478260869562746
        },
        {
          "name": "A4",
          "midi": 69,
          "time": 58.16304347825893,
          "velocity": 0.2047244094488189,
          "duration": 0.043478260869562746
        },
        {
          "name": "B4",
          "midi": 71,
          "time": 58.16304347825893,
          "velocity": 0.18110236220472442,
          "duration": 0.03260869565217206
        },
        {
          "name": "B3",
          "midi": 59,
          "time": 58.18478260869371,
          "velocity": 0.2125984251968504,
          "duration": 0.043478260869562746
        },
        {
          "name": "G#4",
          "midi": 68,
          "time": 58.21739130434588,
          "velocity": 0.2204724409448819,
          "duration": 0.03260869565217206
        },
        {
          "name": "A4",
          "midi": 69,
          "time": 58.23913043478066,
          "velocity": 0.15748031496062992,
          "duration": 0.03260869565217206
        },
        {
          "name": "A#3",
          "midi": 58,
          "time": 58.24999999999805,
          "velocity": 0.2204724409448819,
          "duration": 0.05434782608695343
        },
        {
          "name": "G4",
          "midi": 67,
          "time": 58.24999999999805,
          "velocity": 0.2283464566929134,
          "duration": 0.043478260869562746
        },
        {
          "name": "G4",
          "midi": 67,
          "time": 58.30434782608501,
          "velocity": 0.25196850393700787,
          "duration": 0.021739130434781373
        },
        {
          "name": "G3",
          "midi": 55,
          "time": 58.34782608695457,
          "velocity": 0.2677165354330709,
          "duration": 0.021739130434781373
        },
        {
          "name": "E4",
          "midi": 64,
          "time": 58.34782608695457,
          "velocity": 0.23622047244094488,
          "duration": 0.0760869565217348
        },
        {
          "name": "C5",
          "midi": 72,
          "time": 58.40217391304152,
          "velocity": 0.1889763779527559,
          "duration": 0.18478260869564167
        },
        {
          "name": "D#4",
          "midi": 63,
          "time": 58.423913043476304,
          "velocity": 0.3228346456692913,
          "duration": 0.2608695652173765
        },
        {
          "name": "G#5",
          "midi": 80,
          "time": 58.423913043476304,
          "velocity": 0.2283464566929134,
          "duration": 0.06521739130434412
        },
        {
          "name": "A#5",
          "midi": 82,
          "time": 58.423913043476304,
          "velocity": 0.14960629921259844,
          "duration": 0.03260869565217206
        },
        {
          "name": "D#7",
          "midi": 99,
          "time": 58.434782608693695,
          "velocity": 0.10236220472440945,
          "duration": 0.043478260869562746
        },
        {
          "name": "E7",
          "midi": 100,
          "time": 58.456521739128476,
          "velocity": 0.07874015748031496,
          "duration": 0.043478260869562746
        },
        {
          "name": "G#4",
          "midi": 68,
          "time": 58.46739130434587,
          "velocity": 0.14173228346456693,
          "duration": 0.08695652173912549
        },
        {
          "name": "A#5",
          "midi": 82,
          "time": 58.47826086956326,
          "velocity": 0.10236220472440945,
          "duration": 0.03260869565217206
        },
        {
          "name": "D#3",
          "midi": 51,
          "time": 58.48913043478065,
          "velocity": 0.2204724409448819,
          "duration": 0.20652173913042304
        },
        {
          "name": "G5",
          "midi": 79,
          "time": 58.49999999999804,
          "velocity": 0.13385826771653545,
          "duration": 0.03260869565217206
        },
        {
          "name": "F#5",
          "midi": 78,
          "time": 58.5434782608676,
          "velocity": 0.18110236220472442,
          "duration": 0.17391304347825098
        },
        {
          "name": "G#5",
          "midi": 80,
          "time": 58.56521739130238,
          "velocity": 0.11023622047244094,
          "duration": 0.09782608695651618
        },
        {
          "name": "G#4",
          "midi": 68,
          "time": 58.576086956519774,
          "velocity": 0.30708661417322836,
          "duration": 0.11956521739129755
        },
        {
          "name": "A#5",
          "midi": 82,
          "time": 58.576086956519774,
          "velocity": 0.08661417322834646,
          "duration": 0.05434782608695343
        },
        {
          "name": "C5",
          "midi": 72,
          "time": 58.608695652171946,
          "velocity": 0.1968503937007874,
          "duration": 0.11956521739129755
        },
        {
          "name": "B5",
          "midi": 83,
          "time": 58.65217391304151,
          "velocity": 0.07874015748031496,
          "duration": 0.03260869565217206
        },
        {
          "name": "B3",
          "midi": 59,
          "time": 58.68478260869368,
          "velocity": 0.28346456692913385,
          "duration": 0.021739130434781373
        },
        {
          "name": "B2",
          "midi": 47,
          "time": 58.70652173912846,
          "velocity": 0.5511811023622047,
          "duration": 0.010869565217390686
        },
        {
          "name": "G#2",
          "midi": 44,
          "time": 58.71739130434585,
          "velocity": 0.5354330708661418,
          "duration": 0.010869565217390686
        },
        {
          "name": "C#2",
          "midi": 37,
          "time": 58.72826086956324,
          "velocity": 0.5669291338582677,
          "duration": 0.010869565217390686
        },
        {
          "name": "B5",
          "midi": 83,
          "time": 58.72826086956324,
          "velocity": 0.09448818897637795,
          "duration": 0.03260869565217206
        },
        {
          "name": "B4",
          "midi": 71,
          "time": 58.739130434780634,
          "velocity": 0.11811023622047244,
          "duration": 0.03260869565217206
        },
        {
          "name": "G5",
          "midi": 79,
          "time": 58.739130434780634,
          "velocity": 0.2125984251968504,
          "duration": 0.0760869565217348
        },
        {
          "name": "A5",
          "midi": 81,
          "time": 58.739130434780634,
          "velocity": 0.16535433070866143,
          "duration": 0.043478260869562746
        },
        {
          "name": "G4",
          "midi": 67,
          "time": 58.749999999998025,
          "velocity": 0.18110236220472442,
          "duration": 0.043478260869562746
        },
        {
          "name": "B4",
          "midi": 71,
          "time": 58.7826086956502,
          "velocity": 0.23622047244094488,
          "duration": 0.10869565217390686
        },
        {
          "name": "E5",
          "midi": 76,
          "time": 58.7826086956502,
          "velocity": 0.13385826771653545,
          "duration": 0.043478260869562746
        },
        {
          "name": "F#1",
          "midi": 30,
          "time": 58.81521739130237,
          "velocity": 0.5039370078740157,
          "duration": 0.043478260869562746
        },
        {
          "name": "G1",
          "midi": 31,
          "time": 58.85869565217193,
          "velocity": 0.5275590551181102,
          "duration": 0.13043478260868824
        },
        {
          "name": "G4",
          "midi": 67,
          "time": 58.85869565217193,
          "velocity": 0.2677165354330709,
          "duration": 0.13043478260868824
        },
        {
          "name": "D4",
          "midi": 62,
          "time": 58.86956521738932,
          "velocity": 0.2440944881889764,
          "duration": 0.11956521739129755
        },
        {
          "name": "B5",
          "midi": 83,
          "time": 58.891304347824104,
          "velocity": 0.14960629921259844,
          "duration": 0.08695652173912549
        },
        {
          "name": "B4",
          "midi": 71,
          "time": 58.902173913041494,
          "velocity": 0.18110236220472442,
          "duration": 0.08695652173912549
        },
        {
          "name": "F5",
          "midi": 77,
          "time": 58.934782608693666,
          "velocity": 0.12598425196850394,
          "duration": 0.06521739130434412
        },
        {
          "name": "F#1",
          "midi": 30,
          "time": 58.98913043478062,
          "velocity": 0.5354330708661418,
          "duration": 0.010869565217390686
        },
        {
          "name": "D#1",
          "midi": 27,
          "time": 58.99999999999801,
          "velocity": 0.5511811023622047,
          "duration": 0.021739130434781373
        },
        {
          "name": "F#1",
          "midi": 30,
          "time": 59.02173913043279,
          "velocity": 0.5590551181102362,
          "duration": 0.010869565217390686
        },
        {
          "name": "D#4",
          "midi": 63,
          "time": 59.02173913043279,
          "velocity": 0.2047244094488189,
          "duration": 0.05434782608695343
        },
        {
          "name": "G1",
          "midi": 31,
          "time": 59.03260869565018,
          "velocity": 0.5511811023622047,
          "duration": 0.11956521739129755
        },
        {
          "name": "G5",
          "midi": 79,
          "time": 59.03260869565018,
          "velocity": 0.14173228346456693,
          "duration": 0.06521739130434412
        },
        {
          "name": "B5",
          "midi": 83,
          "time": 59.03260869565018,
          "velocity": 0.11023622047244094,
          "duration": 0.13043478260868824
        },
        {
          "name": "G4",
          "midi": 67,
          "time": 59.04347826086757,
          "velocity": 0.2047244094488189,
          "duration": 0.0760869565217348
        },
        {
          "name": "A5",
          "midi": 81,
          "time": 59.054347826084964,
          "velocity": 0.14173228346456693,
          "duration": 0.03260869565217206
        },
        {
          "name": "D5",
          "midi": 74,
          "time": 59.065217391302355,
          "velocity": 0.2204724409448819,
          "duration": 0.08695652173912549
        },
        {
          "name": "F5",
          "midi": 77,
          "time": 59.076086956519745,
          "velocity": 0.1968503937007874,
          "duration": 0.05434782608695343
        },
        {
          "name": "B4",
          "midi": 71,
          "time": 59.086956521737136,
          "velocity": 0.14960629921259844,
          "duration": 0.03260869565217206
        },
        {
          "name": "G4",
          "midi": 67,
          "time": 59.1304347826067,
          "velocity": 0.1889763779527559,
          "duration": 0.08695652173912549
        },
        {
          "name": "B4",
          "midi": 71,
          "time": 59.1304347826067,
          "velocity": 0.2440944881889764,
          "duration": 0.05434782608695343
        },
        {
          "name": "A1",
          "midi": 33,
          "time": 59.15217391304148,
          "velocity": 0.5275590551181102,
          "duration": 0.010869565217390686
        },
        {
          "name": "C#2",
          "midi": 37,
          "time": 59.16304347825887,
          "velocity": 0.5275590551181102,
          "duration": 0.010869565217390686
        },
        {
          "name": "G#1",
          "midi": 32,
          "time": 59.17391304347626,
          "velocity": 0.5669291338582677,
          "duration": 0.11956521739129755
        },
        {
          "name": "C5",
          "midi": 72,
          "time": 59.18478260869365,
          "velocity": 0.1732283464566929,
          "duration": 0.03260869565217206
        },
        {
          "name": "G#5",
          "midi": 80,
          "time": 59.19565217391104,
          "velocity": 0.12598425196850394,
          "duration": 0.03260869565217206
        },
        {
          "name": "G#4",
          "midi": 68,
          "time": 59.217391304345824,
          "velocity": 0.13385826771653545,
          "duration": 0.0760869565217348
        },
        {
          "name": "D#5",
          "midi": 75,
          "time": 59.217391304345824,
          "velocity": 0.2440944881889764,
          "duration": 0.08695652173912549
        },
        {
          "name": "G#6",
          "midi": 92,
          "time": 59.239130434780606,
          "velocity": 0.12598425196850394,
          "duration": 0.03260869565217206
        },
        {
          "name": "C5",
          "midi": 72,
          "time": 59.249999999997996,
          "velocity": 0.2125984251968504,
          "duration": 0.06521739130434412
        },
        {
          "name": "B5",
          "midi": 83,
          "time": 59.29347826086756,
          "velocity": 0.13385826771653545,
          "duration": 0.03260869565217206
        },
        {
          "name": "E5",
          "midi": 76,
          "time": 59.30434782608495,
          "velocity": 0.23622047244094488,
          "duration": 0.03260869565217206
        },
        {
          "name": "F#1",
          "midi": 30,
          "time": 59.31521739130234,
          "velocity": 0.30708661417322836,
          "duration": 0.03260869565217206
        },
        {
          "name": "A#3",
          "midi": 58,
          "time": 59.31521739130234,
          "velocity": 0.5275590551181102,
          "duration": 0.010869565217390686
        },
        {
          "name": "G5",
          "midi": 79,
          "time": 59.31521739130234,
          "velocity": 0.11811023622047244,
          "duration": 0.03260869565217206
        },
        {
          "name": "A3",
          "midi": 57,
          "time": 59.32608695651973,
          "velocity": 0.5826771653543307,
          "duration": 0.043478260869562746
        },
        {
          "name": "D#4",
          "midi": 63,
          "time": 59.32608695651973,
          "velocity": 0.25984251968503935,
          "duration": 0.03260869565217206
        },
        {
          "name": "G4",
          "midi": 67,
          "time": 59.32608695651973,
          "velocity": 0.25196850393700787,
          "duration": 0.29347826086955564
        },
        {
          "name": "A5",
          "midi": 81,
          "time": 59.33695652173712,
          "velocity": 0.07874015748031496,
          "duration": 0.03260869565217206
        },
        {
          "name": "G1",
          "midi": 31,
          "time": 59.34782608695451,
          "velocity": 0.5433070866141733,
          "duration": 0.2608695652173836
        },
        {
          "name": "B4",
          "midi": 71,
          "time": 59.34782608695451,
          "velocity": 0.25196850393700787,
          "duration": 0.1521739130434696
        },
        {
          "name": "F5",
          "midi": 77,
          "time": 59.34782608695451,
          "velocity": 0.15748031496062992,
          "duration": 0.03260869565217206
        },
        {
          "name": "G#6",
          "midi": 92,
          "time": 59.3586956521719,
          "velocity": 0.14173228346456693,
          "duration": 0.05434782608695343
        },
        {
          "name": "G#3",
          "midi": 56,
          "time": 59.369565217389294,
          "velocity": 0.44881889763779526,
          "duration": 0.03260869565217206
        },
        {
          "name": "A#5",
          "midi": 82,
          "time": 59.369565217389294,
          "velocity": 0.10236220472440945,
          "duration": 0.03260869565217206
        },
        {
          "name": "B6",
          "midi": 95,
          "time": 59.369565217389294,
          "velocity": 0.07086614173228346,
          "duration": 0.03260869565217206
        },
        {
          "name": "D#6",
          "midi": 87,
          "time": 59.380434782606685,
          "velocity": 0.07086614173228346,
          "duration": 0.05434782608695343
        },
        {
          "name": "D5",
          "midi": 74,
          "time": 59.391304347824075,
          "velocity": 0.25196850393700787,
          "duration": 0.0760869565217348
        },
        {
          "name": "F5",
          "midi": 77,
          "time": 59.43478260869364,
          "velocity": 0.12598425196850394,
          "duration": 0.05434782608695343
        },
        {
          "name": "D4",
          "midi": 62,
          "time": 59.45652173912842,
          "velocity": 0.25984251968503935,
          "duration": 0.15217391304347672
        },
        {
          "name": "B4",
          "midi": 71,
          "time": 59.52173913043276,
          "velocity": 0.2047244094488189,
          "duration": 0.0869565217391326
        },
        {
          "name": "F5",
          "midi": 77,
          "time": 59.586956521737115,
          "velocity": 0.07086614173228346,
          "duration": 0.03260869565217206
        },
        {
          "name": "A#2",
          "midi": 46,
          "time": 59.608695652171896,
          "velocity": 0.4409448818897638,
          "duration": 0.021739130434781373
        },
        {
          "name": "G#0",
          "midi": 20,
          "time": 59.61956521738929,
          "velocity": 0.5275590551181102,
          "duration": 0.010869565217390686
        },
        {
          "name": "F#1",
          "midi": 30,
          "time": 59.63043478260668,
          "velocity": 0.5748031496062992,
          "duration": 0.010869565217390686
        },
        {
          "name": "G1",
          "midi": 31,
          "time": 59.64130434782407,
          "velocity": 0.5669291338582677,
          "duration": 0.2608695652173836
        },
        {
          "name": "D4",
          "midi": 62,
          "time": 59.65217391304146,
          "velocity": 0.13385826771653545,
          "duration": 0.03260869565217206
        },
        {
          "name": "G4",
          "midi": 67,
          "time": 59.65217391304146,
          "velocity": 0.2440944881889764,
          "duration": 0.28260869565216495
        },
        {
          "name": "A5",
          "midi": 81,
          "time": 59.65217391304146,
          "velocity": 0.14173228346456693,
          "duration": 0.06521739130434412
        },
        {
          "name": "G5",
          "midi": 79,
          "time": 59.66304347825885,
          "velocity": 0.25984251968503935,
          "duration": 0.05434782608695343
        },
        {
          "name": "B5",
          "midi": 83,
          "time": 59.66304347825885,
          "velocity": 0.14173228346456693,
          "duration": 0.08695652173912549
        },
        {
          "name": "B4",
          "midi": 71,
          "time": 59.69565217391102,
          "velocity": 0.1968503937007874,
          "duration": 0.043478260869562746
        },
        {
          "name": "D5",
          "midi": 74,
          "time": 59.69565217391102,
          "velocity": 0.2047244094488189,
          "duration": 0.05434782608695343
        },
        {
          "name": "F#6",
          "midi": 90,
          "time": 59.7173913043458,
          "velocity": 0.07086614173228346,
          "duration": 0.05434782608695343
        },
        {
          "name": "D4",
          "midi": 62,
          "time": 59.749999999997975,
          "velocity": 0.28346456692913385,
          "duration": 0.1630434782608674
        },
        {
          "name": "B4",
          "midi": 71,
          "time": 59.749999999997975,
          "velocity": 0.1968503937007874,
          "duration": 0.05434782608695343
        },
        {
          "name": "F5",
          "midi": 77,
          "time": 59.79347826086754,
          "velocity": 0.07874015748031496,
          "duration": 0.03260869565217206
        },
        {
          "name": "B4",
          "midi": 71,
          "time": 59.82608695651971,
          "velocity": 0.2125984251968504,
          "duration": 0.13043478260869534
        },
        {
          "name": "E5",
          "midi": 76,
          "time": 59.90217391304145,
          "velocity": 0.11811023622047244,
          "duration": 0.05434782608695343
        },
        {
          "name": "C#3",
          "midi": 49,
          "time": 59.92391304347623,
          "velocity": 0.5118110236220472,
          "duration": 0.010869565217390686
        },
        {
          "name": "D2",
          "midi": 38,
          "time": 59.956521739128405,
          "velocity": 0.5196850393700787,
          "duration": 0.010869565217390686
        },
        {
          "name": "G4",
          "midi": 67,
          "time": 59.956521739128405,
          "velocity": 0.1732283464566929,
          "duration": 0.043478260869562746
        },
        {
          "name": "A1",
          "midi": 33,
          "time": 59.967391304345796,
          "velocity": 0.5669291338582677,
          "duration": 0.010869565217390686
        },
        {
          "name": "A5",
          "midi": 81,
          "time": 59.967391304345796,
          "velocity": 0.16535433070866143,
          "duration": 0.043478260869562746
        },
        {
          "name": "G#1",
          "midi": 32,
          "time": 59.97826086956319,
          "velocity": 0.5748031496062992,
          "duration": 0.010869565217390686
        },
        {
          "name": "D5",
          "midi": 74,
          "time": 59.97826086956319,
          "velocity": 0.23622047244094488,
          "duration": 0.09782608695651618
        },
        {
          "name": "G1",
          "midi": 31,
          "time": 59.98913043478058,
          "velocity": 0.5669291338582677,
          "duration": 0.021739130434781373
        },
        {
          "name": "B4",
          "midi": 71,
          "time": 59.99999999999797,
          "velocity": 0.23622047244094488,
          "duration": 0.09782608695651618
        },
        {
          "name": "F#1",
          "midi": 30,
          "time": 60.01086956521536,
          "velocity": 0.5433070866141733,
          "duration": 0.021739130434781373
        },
        {
          "name": "G4",
          "midi": 67,
          "time": 60.01086956521536,
          "velocity": 0.1968503937007874,
          "duration": 0.11956521739129755
        },
        {
          "name": "F5",
          "midi": 77,
          "time": 60.01086956521536,
          "velocity": 0.18110236220472442,
          "duration": 0.05434782608695343
        },
        {
          "name": "G1",
          "midi": 31,
          "time": 60.03260869565014,
          "velocity": 0.47244094488188976,
          "duration": 0.021739130434781373
        },
        {
          "name": "D4",
          "midi": 62,
          "time": 60.04347826086753,
          "velocity": 0.1968503937007874,
          "duration": 0.043478260869562746
        },
        {
          "name": "G1",
          "midi": 31,
          "time": 60.08695652173709,
          "velocity": 0.5433070866141733,
          "duration": 0.010869565217390686
        },
        {
          "name": "G#1",
          "midi": 32,
          "time": 60.097826086954484,
          "velocity": 0.5590551181102362,
          "duration": 0.09782608695651618
        },
        {
          "name": "C5",
          "midi": 72,
          "time": 60.097826086954484,
          "velocity": 0.2283464566929134,
          "duration": 0.043478260869562746
        },
        {
          "name": "D#5",
          "midi": 75,
          "time": 60.130434782606656,
          "velocity": 0.25196850393700787,
          "duration": 0.09782608695651618
        },
        {
          "name": "G#6",
          "midi": 92,
          "time": 60.14130434782405,
          "velocity": 0.11023622047244094,
          "duration": 0.043478260869562746
        },
        {
          "name": "C6",
          "midi": 84,
          "time": 60.16304347825883,
          "velocity": 0.14173228346456693,
          "duration": 0.06521739130434412
        },
        {
          "name": "D#4",
          "midi": 63,
          "time": 60.17391304347622,
          "velocity": 0.2204724409448819,
          "duration": 0.08695652173912549
        },
        {
          "name": "C5",
          "midi": 72,
          "time": 60.17391304347622,
          "velocity": 0.16535433070866143,
          "duration": 0.043478260869562746
        },
        {
          "name": "G#4",
          "midi": 68,
          "time": 60.18478260869361,
          "velocity": 0.12598425196850394,
          "duration": 0.0760869565217348
        },
        {
          "name": "G1",
          "midi": 31,
          "time": 60.195652173911,
          "velocity": 0.5433070866141733,
          "duration": 0.010869565217390686
        },
        {
          "name": "F#1",
          "midi": 30,
          "time": 60.20652173912839,
          "velocity": 0.5196850393700787,
          "duration": 0.010869565217390686
        },
        {
          "name": "A#1",
          "midi": 34,
          "time": 60.22826086956317,
          "velocity": 0.5118110236220472,
          "duration": 0.010869565217390686
        },
        {
          "name": "C2",
          "midi": 36,
          "time": 60.23913043478056,
          "velocity": 0.5196850393700787,
          "duration": 0.03260869565217206
        },
        {
          "name": "B4",
          "midi": 71,
          "time": 60.249999999997954,
          "velocity": 0.2677165354330709,
          "duration": 0.17391304347825098
        },
        {
          "name": "G5",
          "midi": 79,
          "time": 60.249999999997954,
          "velocity": 0.23622047244094488,
          "duration": 0.0760869565217348
        },
        {
          "name": "G1",
          "midi": 31,
          "time": 60.271739130432735,
          "velocity": 0.5669291338582677,
          "duration": 0.2499999999999929
        },
        {
          "name": "G4",
          "midi": 67,
          "time": 60.282608695650126,
          "velocity": 0.2125984251968504,
          "duration": 0.05434782608695343
        },
        {
          "name": "A5",
          "midi": 81,
          "time": 60.293478260867516,
          "velocity": 0.18110236220472442,
          "duration": 0.03260869565217206
        },
        {
          "name": "D5",
          "midi": 74,
          "time": 60.30434782608491,
          "velocity": 0.25984251968503935,
          "duration": 0.08695652173912549
        },
        {
          "name": "F#6",
          "midi": 90,
          "time": 60.3152173913023,
          "velocity": 0.12598425196850394,
          "duration": 0.03260869565217206
        },
        {
          "name": "F5",
          "midi": 77,
          "time": 60.33695652173708,
          "velocity": 0.07874015748031496,
          "duration": 0.03260869565217206
        },
        {
          "name": "G4",
          "midi": 67,
          "time": 60.34782608695447,
          "velocity": 0.2992125984251969,
          "duration": 0.20652173913043015
        },
        {
          "name": "D4",
          "midi": 62,
          "time": 60.38043478260664,
          "velocity": 0.28346456692913385,
          "duration": 0.14130434782608603
        },
        {
          "name": "B4",
          "midi": 71,
          "time": 60.434782608693595,
          "velocity": 0.2204724409448819,
          "duration": 0.07608695652174191
        },
        {
          "name": "A#3",
          "midi": 58,
          "time": 60.52173913043273,
          "velocity": 0.5590551181102362,
          "duration": 0.03260869565217206
        },
        {
          "name": "E6",
          "midi": 88,
          "time": 60.52173913043273,
          "velocity": 0.18110236220472442,
          "duration": 0.03260869565217206
        },
        {
          "name": "F6",
          "midi": 89,
          "time": 60.52173913043273,
          "velocity": 0.15748031496062992,
          "duration": 0.05434782608695343
        },
        {
          "name": "A#6",
          "midi": 94,
          "time": 60.52173913043273,
          "velocity": 0.18110236220472442,
          "duration": 0.03260869565217206
        },
        {
          "name": "C7",
          "midi": 96,
          "time": 60.52173913043273,
          "velocity": 0.16535433070866143,
          "duration": 0.03260869565217206
        },
        {
          "name": "F7",
          "midi": 101,
          "time": 60.52173913043273,
          "velocity": 0.2047244094488189,
          "duration": 0.043478260869562746
        },
        {
          "name": "F5",
          "midi": 77,
          "time": 60.54347826086751,
          "velocity": 0.12598425196850394,
          "duration": 0.06521739130434412
        },
        {
          "name": "G1",
          "midi": 31,
          "time": 60.5543478260849,
          "velocity": 0.5433070866141733,
          "duration": 0.27173913043477427
        },
        {
          "name": "A3",
          "midi": 57,
          "time": 60.5543478260849,
          "velocity": 0.5826771653543307,
          "duration": 0.043478260869562746
        },
        {
          "name": "G5",
          "midi": 79,
          "time": 60.56521739130229,
          "velocity": 0.2204724409448819,
          "duration": 0.06521739130434412
        },
        {
          "name": "D7",
          "midi": 98,
          "time": 60.56521739130229,
          "velocity": 0.09448818897637795,
          "duration": 0.043478260869562746
        },
        {
          "name": "A5",
          "midi": 81,
          "time": 60.57608695651968,
          "velocity": 0.15748031496062992,
          "duration": 0.06521739130434412
        },
        {
          "name": "B5",
          "midi": 83,
          "time": 60.58695652173707,
          "velocity": 0.1732283464566929,
          "duration": 0.06521739130434412
        },
        {
          "name": "F#7",
          "midi": 102,
          "time": 60.58695652173707,
          "velocity": 0.13385826771653545,
          "duration": 0.03260869565217206
        },
        {
          "name": "G#3",
          "midi": 56,
          "time": 60.59782608695446,
          "velocity": 0.4094488188976378,
          "duration": 0.043478260869562746
        },
        {
          "name": "G4",
          "midi": 67,
          "time": 60.59782608695446,
          "velocity": 0.25196850393700787,
          "duration": 0.2499999999999929
        },
        {
          "name": "D6",
          "midi": 86,
          "time": 60.59782608695446,
          "velocity": 0.12598425196850394,
          "duration": 0.03260869565217206
        },
        {
          "name": "F#6",
          "midi": 90,
          "time": 60.59782608695446,
          "velocity": 0.11023622047244094,
          "duration": 0.06521739130434412
        },
        {
          "name": "B4",
          "midi": 71,
          "time": 60.60869565217185,
          "velocity": 0.1968503937007874,
          "duration": 0.043478260869562746
        },
        {
          "name": "D5",
          "midi": 74,
          "time": 60.630434782606635,
          "velocity": 0.16535433070866143,
          "duration": 0.03260869565217206
        },
        {
          "name": "B4",
          "midi": 71,
          "time": 60.66304347825881,
          "velocity": 0.2125984251968504,
          "duration": 0.06521739130434412
        },
        {
          "name": "D4",
          "midi": 62,
          "time": 60.6739130434762,
          "velocity": 0.2755905511811024,
          "duration": 0.14130434782608603
        },
        {
          "name": "B4",
          "midi": 71,
          "time": 60.74999999999793,
          "velocity": 0.09448818897637795,
          "duration": 0.0869565217391326
        },
        {
          "name": "G#1",
          "midi": 32,
          "time": 60.826086956519674,
          "velocity": 0.5275590551181102,
          "duration": 0.010869565217390686
        },
        {
          "name": "A1",
          "midi": 33,
          "time": 60.836956521737065,
          "velocity": 0.5669291338582677,
          "duration": 0.021739130434781373
        },
        {
          "name": "G#4",
          "midi": 68,
          "time": 60.847826086954456,
          "velocity": 0.11023622047244094,
          "duration": 0.03260869565217206
        },
        {
          "name": "F#1",
          "midi": 30,
          "time": 60.858695652171846,
          "velocity": 0.5669291338582677,
          "duration": 0.27173913043476716
        },
        {
          "name": "F#4",
          "midi": 66,
          "time": 60.86956521738924,
          "velocity": 0.25196850393700787,
          "duration": 0.1521739130434696
        },
        {
          "name": "A#5",
          "midi": 82,
          "time": 60.86956521738924,
          "velocity": 0.14173228346456693,
          "duration": 0.0760869565217348
        },
        {
          "name": "C#5",
          "midi": 73,
          "time": 60.88043478260663,
          "velocity": 0.2283464566929134,
          "duration": 0.10869565217390686
        },
        {
          "name": "G#5",
          "midi": 80,
          "time": 60.90217391304141,
          "velocity": 0.1889763779527559,
          "duration": 0.0760869565217348
        },
        {
          "name": "E5",
          "midi": 76,
          "time": 60.92391304347619,
          "velocity": 0.12598425196850394,
          "duration": 0.043478260869562746
        },
        {
          "name": "C#4",
          "midi": 61,
          "time": 60.93478260869358,
          "velocity": 0.31496062992125984,
          "duration": 0.19565217391303236
        },
        {
          "name": "A#4",
          "midi": 70,
          "time": 60.93478260869358,
          "velocity": 0.1732283464566929,
          "duration": 0.09782608695651618
        },
        {
          "name": "F#4",
          "midi": 66,
          "time": 61.04347826086749,
          "velocity": 0.2677165354330709,
          "duration": 0.11956521739129755
        },
        {
          "name": "A#4",
          "midi": 70,
          "time": 61.05434782608488,
          "velocity": 0.10236220472440945,
          "duration": 0.06521739130434412
        },
        {
          "name": "C#3",
          "midi": 49,
          "time": 61.07608695651966,
          "velocity": 0.30708661417322836,
          "duration": 0.043478260869562746
        },
        {
          "name": "F1",
          "midi": 29,
          "time": 61.13043478260661,
          "velocity": 0.5039370078740157,
          "duration": 0.021739130434781373
        },
        {
          "name": "C#5",
          "midi": 73,
          "time": 61.13043478260661,
          "velocity": 0.1732283464566929,
          "duration": 0.03260869565217206
        },
        {
          "name": "C5",
          "midi": 72,
          "time": 61.141304347824004,
          "velocity": 0.11811023622047244,
          "duration": 0.03260869565217206
        },
        {
          "name": "F5",
          "midi": 77,
          "time": 61.141304347824004,
          "velocity": 0.10236220472440945,
          "duration": 0.03260869565217206
        },
        {
          "name": "C#3",
          "midi": 49,
          "time": 61.152173913041395,
          "velocity": 0.5118110236220472,
          "duration": 0.010869565217390686
        },
        {
          "name": "E2",
          "midi": 40,
          "time": 61.163043478258786,
          "velocity": 0.5590551181102362,
          "duration": 0.010869565217390686
        },
        {
          "name": "G#4",
          "midi": 68,
          "time": 61.163043478258786,
          "velocity": 0.09448818897637795,
          "duration": 0.03260869565217206
        },
        {
          "name": "A1",
          "midi": 33,
          "time": 61.173913043476176,
          "velocity": 0.5826771653543307,
          "duration": 0.021739130434781373
        },
        {
          "name": "B5",
          "midi": 83,
          "time": 61.173913043476176,
          "velocity": 0.11023622047244094,
          "duration": 0.11956521739129755
        },
        {
          "name": "A5",
          "midi": 81,
          "time": 61.18478260869357,
          "velocity": 0.13385826771653545,
          "duration": 0.05434782608695343
        },
        {
          "name": "G#1",
          "midi": 32,
          "time": 61.19565217391096,
          "velocity": 0.5748031496062992,
          "duration": 0.010869565217390686
        },
        {
          "name": "G4",
          "midi": 67,
          "time": 61.19565217391096,
          "velocity": 0.1732283464566929,
          "duration": 0.043478260869562746
        },
        {
          "name": "G1",
          "midi": 31,
          "time": 61.20652173912835,
          "velocity": 0.5669291338582677,
          "duration": 0.021739130434781373
        },
        {
          "name": "G5",
          "midi": 79,
          "time": 61.20652173912835,
          "velocity": 0.1889763779527559,
          "duration": 0.05434782608695343
        },
        {
          "name": "F#1",
          "midi": 30,
          "time": 61.22826086956313,
          "velocity": 0.5590551181102362,
          "duration": 0.03260869565217206
        },
        {
          "name": "B4",
          "midi": 71,
          "time": 61.22826086956313,
          "velocity": 0.25196850393700787,
          "duration": 0.08695652173912549
        },
        {
          "name": "F5",
          "midi": 77,
          "time": 61.22826086956313,
          "velocity": 0.11811023622047244,
          "duration": 0.05434782608695343
        },
        {
          "name": "D3",
          "midi": 50,
          "time": 61.24999999999791,
          "velocity": 0.30708661417322836,
          "duration": 0.05434782608695343
        },
        {
          "name": "G1",
          "midi": 31,
          "time": 61.2608695652153,
          "velocity": 0.5433070866141733,
          "duration": 0.043478260869562746
        },
        {
          "name": "F#5",
          "midi": 78,
          "time": 61.2608695652153,
          "velocity": 0.15748031496062992,
          "duration": 0.03260869565217206
        },
        {
          "name": "G4",
          "midi": 67,
          "time": 61.28260869565008,
          "velocity": 0.2755905511811024,
          "duration": 0.1521739130434696
        },
        {
          "name": "D4",
          "midi": 62,
          "time": 61.304347826084864,
          "velocity": 0.2125984251968504,
          "duration": 0.14130434782607892
        },
        {
          "name": "G1",
          "midi": 31,
          "time": 61.315217391302255,
          "velocity": 0.5433070866141733,
          "duration": 0.13043478260868824
        },
        {
          "name": "G#6",
          "midi": 92,
          "time": 61.315217391302255,
          "velocity": 0.12598425196850394,
          "duration": 0.03260869565217206
        },
        {
          "name": "B5",
          "midi": 83,
          "time": 61.33695652173704,
          "velocity": 0.11811023622047244,
          "duration": 0.05434782608695343
        },
        {
          "name": "B4",
          "midi": 71,
          "time": 61.34782608695443,
          "velocity": 0.14960629921259844,
          "duration": 0.09782608695651618
        },
        {
          "name": "F5",
          "midi": 77,
          "time": 61.36956521738921,
          "velocity": 0.14173228346456693,
          "duration": 0.0760869565217348
        },
        {
          "name": "G#1",
          "midi": 32,
          "time": 61.44565217391094,
          "velocity": 0.5748031496062992,
          "duration": 0.021739130434781373
        },
        {
          "name": "D#4",
          "midi": 63,
          "time": 61.44565217391094,
          "velocity": 0.14960629921259844,
          "duration": 0.043478260869562746
        },
        {
          "name": "G1",
          "midi": 31,
          "time": 61.467391304345725,
          "velocity": 0.5433070866141733,
          "duration": 0.27173913043476716
        },
        {
          "name": "G4",
          "midi": 67,
          "time": 61.489130434780506,
          "velocity": 0.2677165354330709,
          "duration": 0.2499999999999858
        },
        {
          "name": "B5",
          "midi": 83,
          "time": 61.489130434780506,
          "velocity": 0.09448818897637795,
          "duration": 0.03260869565217206
        },
        {
          "name": "D7",
          "midi": 98,
          "time": 61.489130434780506,
          "velocity": 0.07086614173228346,
          "duration": 0.03260869565217206
        },
        {
          "name": "A5",
          "midi": 81,
          "time": 61.4999999999979,
          "velocity": 0.14173228346456693,
          "duration": 0.03260869565217206
        },
        {
          "name": "D5",
          "midi": 74,
          "time": 61.52173913043268,
          "velocity": 0.2440944881889764,
          "duration": 0.08695652173912549
        },
        {
          "name": "B4",
          "midi": 71,
          "time": 61.53260869565007,
          "velocity": 0.25984251968503935,
          "duration": 0.13043478260868824
        },
        {
          "name": "F5",
          "midi": 77,
          "time": 61.53260869565007,
          "velocity": 0.14173228346456693,
          "duration": 0.043478260869562746
        },
        {
          "name": "D4",
          "midi": 62,
          "time": 61.57608695651963,
          "velocity": 0.29133858267716534,
          "duration": 0.1630434782608603
        },
        {
          "name": "B4",
          "midi": 71,
          "time": 61.67391304347615,
          "velocity": 0.16535433070866143,
          "duration": 0.0760869565217348
        },
        {
          "name": "F5",
          "midi": 77,
          "time": 61.69565217391093,
          "velocity": 0.1889763779527559,
          "duration": 0.08695652173912549
        },
        {
          "name": "C#5",
          "midi": 73,
          "time": 61.73913043478049,
          "velocity": 0.25196850393700787,
          "duration": 0.021739130434781373
        },
        {
          "name": "A#5",
          "midi": 82,
          "time": 61.73913043478049,
          "velocity": 0.13385826771653545,
          "duration": 0.03260869565217206
        },
        {
          "name": "D6",
          "midi": 86,
          "time": 61.73913043478049,
          "velocity": 0.14960629921259844,
          "duration": 0.03260869565217206
        },
        {
          "name": "E6",
          "midi": 88,
          "time": 61.73913043478049,
          "velocity": 0.1968503937007874,
          "duration": 0.043478260869562746
        },
        {
          "name": "G#6",
          "midi": 92,
          "time": 61.73913043478049,
          "velocity": 0.1889763779527559,
          "duration": 0.03260869565217206
        },
        {
          "name": "G7",
          "midi": 103,
          "time": 61.73913043478049,
          "velocity": 0.1968503937007874,
          "duration": 0.03260869565217206
        },
        {
          "name": "A#3",
          "midi": 58,
          "time": 61.74999999999788,
          "velocity": 0.5433070866141733,
          "duration": 0.021739130434781373
        },
        {
          "name": "C#7",
          "midi": 97,
          "time": 61.74999999999788,
          "velocity": 0.11811023622047244,
          "duration": 0.08695652173912549
        },
        {
          "name": "F#4",
          "midi": 66,
          "time": 61.76086956521527,
          "velocity": 0.2204724409448819,
          "duration": 0.03260869565217206
        },
        {
          "name": "C5",
          "midi": 72,
          "time": 61.76086956521527,
          "velocity": 0.25984251968503935,
          "duration": 0.021739130434781373
        },
        {
          "name": "G1",
          "midi": 31,
          "time": 61.771739130432664,
          "velocity": 0.4881889763779528,
          "duration": 0.13043478260868824
        },
        {
          "name": "A3",
          "midi": 57,
          "time": 61.771739130432664,
          "velocity": 0.5905511811023622,
          "duration": 0.043478260869562746
        },
        {
          "name": "G5",
          "midi": 79,
          "time": 61.782608695650055,
          "velocity": 0.2125984251968504,
          "duration": 0.06521739130434412
        },
        {
          "name": "G4",
          "midi": 67,
          "time": 61.793478260867445,
          "velocity": 0.2204724409448819,
          "duration": 0.14130434782607892
        },
        {
          "name": "F5",
          "midi": 77,
          "time": 61.804347826084836,
          "velocity": 0.10236220472440945,
          "duration": 0.03260869565217206
        },
        {
          "name": "G#3",
          "midi": 56,
          "time": 61.81521739130223,
          "velocity": 0.4645669291338583,
          "duration": 0.05434782608695343
        },
        {
          "name": "D5",
          "midi": 74,
          "time": 61.81521739130223,
          "velocity": 0.1968503937007874,
          "duration": 0.06521739130434412
        },
        {
          "name": "B5",
          "midi": 83,
          "time": 61.81521739130223,
          "velocity": 0.12598425196850394,
          "duration": 0.05434782608695343
        },
        {
          "name": "B4",
          "midi": 71,
          "time": 61.82608695651962,
          "velocity": 0.2283464566929134,
          "duration": 0.09782608695651618
        },
        {
          "name": "E6",
          "midi": 88,
          "time": 61.82608695651962,
          "velocity": 0.09448818897637795,
          "duration": 0.03260869565217206
        },
        {
          "name": "F#6",
          "midi": 90,
          "time": 61.83695652173701,
          "velocity": 0.13385826771653545,
          "duration": 0.043478260869562746
        },
        {
          "name": "A5",
          "midi": 81,
          "time": 61.89130434782396,
          "velocity": 0.11023622047244094,
          "duration": 0.05434782608695343
        },
        {
          "name": "G#1",
          "midi": 32,
          "time": 61.90217391304135,
          "velocity": 0.5433070866141733,
          "duration": 0.1521739130434696
        },
        {
          "name": "C5",
          "midi": 72,
          "time": 61.923913043476134,
          "velocity": 0.18110236220472442,
          "duration": 0.10869565217390686
        },
        {
          "name": "D#4",
          "midi": 63,
          "time": 61.934782608693524,
          "velocity": 0.2125984251968504,
          "duration": 0.03260869565217206
        },
        {
          "name": "G#5",
          "midi": 80,
          "time": 61.945652173910915,
          "velocity": 0.15748031496062992,
          "duration": 0.08695652173912549
        },
        {
          "name": "A#5",
          "midi": 82,
          "time": 61.945652173910915,
          "velocity": 0.14173228346456693,
          "duration": 0.03260869565217206
        },
        {
          "name": "F4",
          "midi": 65,
          "time": 61.956521739128306,
          "velocity": 0.14173228346456693,
          "duration": 0.03260869565217206
        },
        {
          "name": "E6",
          "midi": 88,
          "time": 61.967391304345696,
          "velocity": 0.07086614173228346,
          "duration": 0.043478260869562746
        },
        {
          "name": "F7",
          "midi": 101,
          "time": 61.967391304345696,
          "velocity": 0.11023622047244094,
          "duration": 0.03260869565217206
        },
        {
          "name": "D#4",
          "midi": 63,
          "time": 61.97826086956309,
          "velocity": 0.23622047244094488,
          "duration": 0.11956521739129755
        },
        {
          "name": "A#5",
          "midi": 82,
          "time": 61.99999999999787,
          "velocity": 0.14173228346456693,
          "duration": 0.03260869565217206
        },
        {
          "name": "G1",
          "midi": 31,
          "time": 62.05434782608482,
          "velocity": 0.5433070866141733,
          "duration": 0.010869565217390686
        },
        {
          "name": "F1",
          "midi": 29,
          "time": 62.06521739130221,
          "velocity": 0.5354330708661418,
          "duration": 0.010869565217390686
        },
        {
          "name": "F#1",
          "midi": 30,
          "time": 62.0760869565196,
          "velocity": 0.5275590551181102,
          "duration": 0.010869565217390686
        },
        {
          "name": "B4",
          "midi": 71,
          "time": 62.0760869565196,
          "velocity": 0.12598425196850394,
          "duration": 0.06521739130434412
        },
        {
          "name": "G1",
          "midi": 31,
          "time": 62.086956521736994,
          "velocity": 0.5275590551181102,
          "duration": 0.28260869565216495
        },
        {
          "name": "G5",
          "midi": 79,
          "time": 62.097826086954385,
          "velocity": 0.2283464566929134,
          "duration": 0.06521739130434412
        },
        {
          "name": "A5",
          "midi": 81,
          "time": 62.097826086954385,
          "velocity": 0.1889763779527559,
          "duration": 0.06521739130434412
        },
        {
          "name": "F5",
          "midi": 77,
          "time": 62.108695652171775,
          "velocity": 0.10236220472440945,
          "duration": 0.03260869565217206
        },
        {
          "name": "B5",
          "midi": 83,
          "time": 62.108695652171775,
          "velocity": 0.15748031496062992,
          "duration": 0.09782608695651618
        },
        {
          "name": "G4",
          "midi": 67,
          "time": 62.13043478260656,
          "velocity": 0.1889763779527559,
          "duration": 0.03260869565217206
        },
        {
          "name": "D5",
          "midi": 74,
          "time": 62.14130434782395,
          "velocity": 0.2440944881889764,
          "duration": 0.08695652173912549
        },
        {
          "name": "B4",
          "midi": 71,
          "time": 62.15217391304134,
          "velocity": 0.29133858267716534,
          "duration": 0.09782608695651618
        },
        {
          "name": "G4",
          "midi": 67,
          "time": 62.17391304347612,
          "velocity": 0.25984251968503935,
          "duration": 0.18478260869564878
        },
        {
          "name": "D4",
          "midi": 62,
          "time": 62.21739130434568,
          "velocity": 0.28346456692913385,
          "duration": 0.15217391304347672
        },
        {
          "name": "B4",
          "midi": 71,
          "time": 62.271739130432636,
          "velocity": 0.2047244094488189,
          "duration": 0.07608695652174191
        },
        {
          "name": "D#5",
          "midi": 75,
          "time": 62.34782608695438,
          "velocity": 0.1889763779527559,
          "duration": 0.03260869565217206
        },
        {
          "name": "G#2",
          "midi": 44,
          "time": 62.38043478260655,
          "velocity": 0.5118110236220472,
          "duration": 0.010869565217390686
        },
        {
          "name": "D#2",
          "midi": 39,
          "time": 62.39130434782394,
          "velocity": 0.5118110236220472,
          "duration": 0.010869565217390686
        },
        {
          "name": "A1",
          "midi": 33,
          "time": 62.41304347825872,
          "velocity": 0.5196850393700787,
          "duration": 0.010869565217390686
        },
        {
          "name": "G#1",
          "midi": 32,
          "time": 62.42391304347611,
          "velocity": 0.5196850393700787,
          "duration": 0.010869565217390686
        },
        {
          "name": "F#5",
          "midi": 78,
          "time": 62.42391304347611,
          "velocity": 0.13385826771653545,
          "duration": 0.09782608695651618
        },
        {
          "name": "G1",
          "midi": 31,
          "time": 62.4347826086935,
          "velocity": 0.5118110236220472,
          "duration": 0.021739130434781373
        },
        {
          "name": "G#5",
          "midi": 80,
          "time": 62.4347826086935,
          "velocity": 0.1889763779527559,
          "duration": 0.08695652173912549
        },
        {
          "name": "A#5",
          "midi": 82,
          "time": 62.4347826086935,
          "velocity": 0.2125984251968504,
          "duration": 0.08695652173912549
        },
        {
          "name": "C6",
          "midi": 84,
          "time": 62.445652173910894,
          "velocity": 0.12598425196850394,
          "duration": 0.0760869565217348
        },
        {
          "name": "F#1",
          "midi": 30,
          "time": 62.456521739128284,
          "velocity": 0.4330708661417323,
          "duration": 0.021739130434781373
        },
        {
          "name": "C#6",
          "midi": 85,
          "time": 62.489130434780456,
          "velocity": 0.08661417322834646,
          "duration": 0.03260869565217206
        },
        {
          "name": "C4",
          "midi": 60,
          "time": 62.53260869565002,
          "velocity": 0.29133858267716534,
          "duration": 0.043478260869562746
        },
        {
          "name": "F#7",
          "midi": 102,
          "time": 62.53260869565002,
          "velocity": 0.10236220472440945,
          "duration": 0.03260869565217206
        },
        {
          "name": "F4",
          "midi": 65,
          "time": 62.54347826086741,
          "velocity": 0.16535433070866143,
          "duration": 0.03260869565217206
        },
        {
          "name": "D#6",
          "midi": 87,
          "time": 62.54347826086741,
          "velocity": 0.18110236220472442,
          "duration": 0.13043478260868824
        },
        {
          "name": "C6",
          "midi": 84,
          "time": 62.5543478260848,
          "velocity": 0.25196850393700787,
          "duration": 0.11956521739129755
        },
        {
          "name": "G6",
          "midi": 91,
          "time": 62.5543478260848,
          "velocity": 0.07086614173228346,
          "duration": 0.03260869565217206
        },
        {
          "name": "G#1",
          "midi": 32,
          "time": 62.56521739130219,
          "velocity": 0.5354330708661418,
          "duration": 0.010869565217390686
        },
        {
          "name": "C#5",
          "midi": 73,
          "time": 62.56521739130219,
          "velocity": 0.23622047244094488,
          "duration": 0.09782608695651618
        },
        {
          "name": "F#5",
          "midi": 78,
          "time": 62.56521739130219,
          "velocity": 0.23622047244094488,
          "duration": 0.09782608695651618
        },
        {
          "name": "G#5",
          "midi": 80,
          "time": 62.56521739130219,
          "velocity": 0.29133858267716534,
          "duration": 0.10869565217390686
        },
        {
          "name": "G1",
          "midi": 31,
          "time": 62.57608695651958,
          "velocity": 0.5590551181102362,
          "duration": 0.08695652173912549
        },
        {
          "name": "A#5",
          "midi": 82,
          "time": 62.57608695651958,
          "velocity": 0.31496062992125984,
          "duration": 0.09782608695651618
        },
        {
          "name": "E7",
          "midi": 100,
          "time": 62.58695652173697,
          "velocity": 0.08661417322834646,
          "duration": 0.043478260869562746
        },
        {
          "name": "F#1",
          "midi": 30,
          "time": 62.66304347825871,
          "velocity": 0.5275590551181102,
          "duration": 0.010869565217390686
        },
        {
          "name": "D#7",
          "midi": 99,
          "time": 62.68478260869349,
          "velocity": 0.13385826771653545,
          "duration": 0.03260869565217206
        },
        {
          "name": "F#7",
          "midi": 102,
          "time": 62.68478260869349,
          "velocity": 0.15748031496062992,
          "duration": 0.043478260869562746
        },
        {
          "name": "G1",
          "midi": 31,
          "time": 62.69565217391088,
          "velocity": 0.5511811023622047,
          "duration": 0.2499999999999858
        },
        {
          "name": "C4",
          "midi": 60,
          "time": 62.69565217391088,
          "velocity": 0.29133858267716534,
          "duration": 0.03260869565217206
        },
        {
          "name": "G6",
          "midi": 91,
          "time": 62.69565217391088,
          "velocity": 0.12598425196850394,
          "duration": 0.0760869565217348
        },
        {
          "name": "F7",
          "midi": 101,
          "time": 62.69565217391088,
          "velocity": 0.09448818897637795,
          "duration": 0.043478260869562746
        },
        {
          "name": "C6",
          "midi": 84,
          "time": 62.70652173912827,
          "velocity": 0.29133858267716534,
          "duration": 0.2391304347825951
        },
        {
          "name": "C#5",
          "midi": 73,
          "time": 62.71739130434566,
          "velocity": 0.2755905511811024,
          "duration": 0.11956521739129755
        },
        {
          "name": "F#5",
          "midi": 78,
          "time": 62.71739130434566,
          "velocity": 0.13385826771653545,
          "duration": 0.043478260869562746
        },
        {
          "name": "B6",
          "midi": 95,
          "time": 62.71739130434566,
          "velocity": 0.07086614173228346,
          "duration": 0.06521739130434412
        },
        {
          "name": "G#5",
          "midi": 80,
          "time": 62.72826086956305,
          "velocity": 0.31496062992125984,
          "duration": 0.19565217391303236
        },
        {
          "name": "A#5",
          "midi": 82,
          "time": 62.72826086956305,
          "velocity": 0.29133858267716534,
          "duration": 0.18478260869564167
        },
        {
          "name": "D#6",
          "midi": 87,
          "time": 62.72826086956305,
          "velocity": 0.1732283464566929,
          "duration": 0.22826086956520442
        },
        {
          "name": "E7",
          "midi": 100,
          "time": 62.81521739130218,
          "velocity": 0.08661417322834646,
          "duration": 0.05434782608695343
        },
        {
          "name": "C5",
          "midi": 72,
          "time": 62.83695652173696,
          "velocity": 0.2677165354330709,
          "duration": 0.08695652173912549
        },
        {
          "name": "D3",
          "midi": 50,
          "time": 62.89130434782391,
          "velocity": 0.11811023622047244,
          "duration": 0.043478260869562746
        },
        {
          "name": "F#5",
          "midi": 78,
          "time": 62.89130434782391,
          "velocity": 0.15748031496062992,
          "duration": 0.03260869565217206
        },
        {
          "name": "B3",
          "midi": 59,
          "time": 62.9021739130413,
          "velocity": 0.25984251968503935,
          "duration": 0.021739130434781373
        },
        {
          "name": "E4",
          "midi": 64,
          "time": 62.91304347825869,
          "velocity": 0.2992125984251969,
          "duration": 0.03260869565217206
        },
        {
          "name": "F#6",
          "midi": 90,
          "time": 62.91304347825869,
          "velocity": 0.15748031496062992,
          "duration": 0.043478260869562746
        },
        {
          "name": "B6",
          "midi": 95,
          "time": 62.91304347825869,
          "velocity": 0.12598425196850394,
          "duration": 0.043478260869562746
        },
        {
          "name": "A#3",
          "midi": 58,
          "time": 62.923913043476084,
          "velocity": 0.3779527559055118,
          "duration": 0.021739130434781373
        },
        {
          "name": "F6",
          "midi": 89,
          "time": 62.923913043476084,
          "velocity": 0.11023622047244094,
          "duration": 0.03260869565217206
        },
        {
          "name": "E3",
          "midi": 52,
          "time": 62.956521739128256,
          "velocity": 0.25196850393700787,
          "duration": 0.021739130434781373
        },
        {
          "name": "C#5",
          "midi": 73,
          "time": 62.96739130434565,
          "velocity": 0.29133858267716534,
          "duration": 0.043478260869562746
        },
        {
          "name": "F5",
          "midi": 77,
          "time": 62.96739130434565,
          "velocity": 0.18110236220472442,
          "duration": 0.03260869565217206
        },
        {
          "name": "D#6",
          "midi": 87,
          "time": 62.96739130434565,
          "velocity": 0.11023622047244094,
          "duration": 0.03260869565217206
        },
        {
          "name": "F6",
          "midi": 89,
          "time": 62.96739130434565,
          "velocity": 0.18110236220472442,
          "duration": 0.03260869565217206
        },
        {
          "name": "A6",
          "midi": 93,
          "time": 62.96739130434565,
          "velocity": 0.1968503937007874,
          "duration": 0.043478260869562746
        },
        {
          "name": "D#7",
          "midi": 99,
          "time": 62.96739130434565,
          "velocity": 0.12598425196850394,
          "duration": 0.03260869565217206
        },
        {
          "name": "A3",
          "midi": 57,
          "time": 62.98913043478043,
          "velocity": 0.6062992125984252,
          "duration": 0.043478260869562746
        },
        {
          "name": "G1",
          "midi": 31,
          "time": 63.0217391304326,
          "velocity": 0.5511811023622047,
          "duration": 0.21739130434781373
        },
        {
          "name": "G#3",
          "midi": 56,
          "time": 63.03260869564999,
          "velocity": 0.5196850393700787,
          "duration": 0.05434782608695343
        },
        {
          "name": "C#5",
          "midi": 73,
          "time": 63.04347826086738,
          "velocity": 0.1968503937007874,
          "duration": 0.08695652173912549
        },
        {
          "name": "G#5",
          "midi": 80,
          "time": 63.04347826086738,
          "velocity": 0.2755905511811024,
          "duration": 0.18478260869564167
        },
        {
          "name": "A#5",
          "midi": 82,
          "time": 63.04347826086738,
          "velocity": 0.3228346456692913,
          "duration": 0.17391304347825098
        },
        {
          "name": "D#6",
          "midi": 87,
          "time": 63.07608695651955,
          "velocity": 0.14960629921259844,
          "duration": 0.14130434782607892
        },
        {
          "name": "C6",
          "midi": 84,
          "time": 63.086956521736944,
          "velocity": 0.29133858267716534,
          "duration": 0.1630434782608603
        },
        {
          "name": "D#5",
          "midi": 75,
          "time": 63.108695652171725,
          "velocity": 0.1889763779527559,
          "duration": 0.11956521739129755
        },
        {
          "name": "G5",
          "midi": 79,
          "time": 63.119565217389116,
          "velocity": 0.16535433070866143,
          "duration": 0.03260869565217206
        },
        {
          "name": "C5",
          "midi": 72,
          "time": 63.13043478260651,
          "velocity": 0.2283464566929134,
          "duration": 0.09782608695651618
        },
        {
          "name": "C#6",
          "midi": 85,
          "time": 63.13043478260651,
          "velocity": 0.1889763779527559,
          "duration": 0.11956521739129755
        },
        {
          "name": "F#5",
          "midi": 78,
          "time": 63.1413043478239,
          "velocity": 0.2283464566929134,
          "duration": 0.09782608695651618
        },
        {
          "name": "E6",
          "midi": 88,
          "time": 63.16304347825868,
          "velocity": 0.07086614173228346,
          "duration": 0.043478260869562746
        },
        {
          "name": "D3",
          "midi": 50,
          "time": 63.17391304347607,
          "velocity": 0.14173228346456693,
          "duration": 0.05434782608695343
        },
        {
          "name": "E7",
          "midi": 100,
          "time": 63.17391304347607,
          "velocity": 0.09448818897637795,
          "duration": 0.06521739130434412
        },
        {
          "name": "B3",
          "midi": 59,
          "time": 63.20652173912824,
          "velocity": 0.2440944881889764,
          "duration": 0.021739130434781373
        },
        {
          "name": "E4",
          "midi": 64,
          "time": 63.20652173912824,
          "velocity": 0.29133858267716534,
          "duration": 0.043478260869562746
        },
        {
          "name": "A#3",
          "midi": 58,
          "time": 63.22826086956302,
          "velocity": 0.3858267716535433,
          "duration": 0.021739130434781373
        },
        {
          "name": "B6",
          "midi": 95,
          "time": 63.22826086956302,
          "velocity": 0.08661417322834646,
          "duration": 0.03260869565217206
        },
        {
          "name": "F#1",
          "midi": 30,
          "time": 63.239130434780414,
          "velocity": 0.47244094488188976,
          "duration": 0.05434782608695343
        },
        {
          "name": "F#4",
          "midi": 66,
          "time": 63.271739130432586,
          "velocity": 0.1968503937007874,
          "duration": 0.043478260869562746
        },
        {
          "name": "C5",
          "midi": 72,
          "time": 63.271739130432586,
          "velocity": 0.14173228346456693,
          "duration": 0.03260869565217206
        },
        {
          "name": "B2",
          "midi": 47,
          "time": 63.29347826086737,
          "velocity": 0.5511811023622047,
          "duration": 0.010869565217390686
        },
        {
          "name": "G2",
          "midi": 43,
          "time": 63.30434782608476,
          "velocity": 0.5511811023622047,
          "duration": 0.010869565217390686
        },
        {
          "name": "C#2",
          "midi": 37,
          "time": 63.31521739130215,
          "velocity": 0.5118110236220472,
          "duration": 0.010869565217390686
        },
        {
          "name": "F#5",
          "midi": 78,
          "time": 63.33695652173693,
          "velocity": 0.15748031496062992,
          "duration": 0.0760869565217348
        },
        {
          "name": "G1",
          "midi": 31,
          "time": 63.34782608695432,
          "velocity": 0.3858267716535433,
          "duration": 0.021739130434781373
        },
        {
          "name": "C6",
          "midi": 84,
          "time": 63.34782608695432,
          "velocity": 0.14960629921259844,
          "duration": 0.14130434782607892
        },
        {
          "name": "F1",
          "midi": 29,
          "time": 63.3695652173891,
          "velocity": 0.4015748031496063,
          "duration": 0.021739130434781373
        },
        {
          "name": "A#5",
          "midi": 82,
          "time": 63.3695652173891,
          "velocity": 0.2204724409448819,
          "duration": 0.14130434782607892
        },
        {
          "name": "F#1",
          "midi": 30,
          "time": 63.39130434782388,
          "velocity": 0.5118110236220472,
          "duration": 0.05434782608695343
        },
        {
          "name": "G#5",
          "midi": 80,
          "time": 63.39130434782388,
          "velocity": 0.2992125984251969,
          "duration": 0.1521739130434696
        },
        {
          "name": "C#6",
          "midi": 85,
          "time": 63.39130434782388,
          "velocity": 0.12598425196850394,
          "duration": 0.1521739130434696
        },
        {
          "name": "D#6",
          "midi": 87,
          "time": 63.39130434782388,
          "velocity": 0.18110236220472442,
          "duration": 0.14130434782607892
        },
        {
          "name": "G1",
          "midi": 31,
          "time": 63.44565217391084,
          "velocity": 0.5511811023622047,
          "duration": 0.13043478260868824
        },
        {
          "name": "E7",
          "midi": 100,
          "time": 63.44565217391084,
          "velocity": 0.11023622047244094,
          "duration": 0.10869565217390686
        },
        {
          "name": "C5",
          "midi": 72,
          "time": 63.45652173912823,
          "velocity": 0.1968503937007874,
          "duration": 0.0760869565217348
        },
        {
          "name": "D3",
          "midi": 50,
          "time": 63.46739130434562,
          "velocity": 0.2125984251968504,
          "duration": 0.0760869565217348
        },
        {
          "name": "F#5",
          "midi": 78,
          "time": 63.46739130434562,
          "velocity": 0.2125984251968504,
          "duration": 0.0760869565217348
        },
        {
          "name": "D#5",
          "midi": 75,
          "time": 63.47826086956301,
          "velocity": 0.14960629921259844,
          "duration": 0.05434782608695343
        },
        {
          "name": "B3",
          "midi": 59,
          "time": 63.51086956521518,
          "velocity": 0.3543307086614173,
          "duration": 0.03260869565217206
        },
        {
          "name": "E4",
          "midi": 64,
          "time": 63.51086956521518,
          "velocity": 0.2992125984251969,
          "duration": 0.05434782608695343
        },
        {
          "name": "F#4",
          "midi": 66,
          "time": 63.576086956519525,
          "velocity": 0.2125984251968504,
          "duration": 0.03260869565217206
        },
        {
          "name": "C#5",
          "midi": 73,
          "time": 63.576086956519525,
          "velocity": 0.14173228346456693,
          "duration": 0.03260869565217206
        },
        {
          "name": "F5",
          "midi": 77,
          "time": 63.576086956519525,
          "velocity": 0.11811023622047244,
          "duration": 0.043478260869562746
        },
        {
          "name": "E1",
          "midi": 28,
          "time": 63.586956521736916,
          "velocity": 0.30708661417322836,
          "duration": 0.021739130434781373
        },
        {
          "name": "B2",
          "midi": 47,
          "time": 63.586956521736916,
          "velocity": 0.5511811023622047,
          "duration": 0.021739130434781373
        },
        {
          "name": "B4",
          "midi": 71,
          "time": 63.597826086954306,
          "velocity": 0.2677165354330709,
          "duration": 0.17391304347825098
        },
        {
          "name": "G#2",
          "midi": 44,
          "time": 63.6086956521717,
          "velocity": 0.5590551181102362,
          "duration": 0.010869565217390686
        },
        {
          "name": "D2",
          "midi": 38,
          "time": 63.61956521738909,
          "velocity": 0.5748031496062992,
          "duration": 0.010869565217390686
        },
        {
          "name": "G5",
          "midi": 79,
          "time": 63.61956521738909,
          "velocity": 0.2440944881889764,
          "duration": 0.2499999999999858
        },
        {
          "name": "A5",
          "midi": 81,
          "time": 63.61956521738909,
          "velocity": 0.11023622047244094,
          "duration": 0.043478260869562746
        },
        {
          "name": "A#1",
          "midi": 34,
          "time": 63.63043478260648,
          "velocity": 0.5196850393700787,
          "duration": 0.010869565217390686
        },
        {
          "name": "G4",
          "midi": 67,
          "time": 63.63043478260648,
          "velocity": 0.25196850393700787,
          "duration": 0.27173913043476716
        },
        {
          "name": "F5",
          "midi": 77,
          "time": 63.63043478260648,
          "velocity": 0.11811023622047244,
          "duration": 0.043478260869562746
        },
        {
          "name": "F#1",
          "midi": 30,
          "time": 63.66304347825865,
          "velocity": 0.4566929133858268,
          "duration": 0.021739130434781373
        },
        {
          "name": "D5",
          "midi": 74,
          "time": 63.66304347825865,
          "velocity": 0.25984251968503935,
          "duration": 0.1521739130434696
        },
        {
          "name": "G#6",
          "midi": 92,
          "time": 63.66304347825865,
          "velocity": 0.07874015748031496,
          "duration": 0.043478260869562746
        },
        {
          "name": "D3",
          "midi": 50,
          "time": 63.67391304347604,
          "velocity": 0.25196850393700787,
          "duration": 0.05434782608695343
        },
        {
          "name": "F5",
          "midi": 77,
          "time": 63.68478260869343,
          "velocity": 0.1968503937007874,
          "duration": 0.0760869565217348
        },
        {
          "name": "F#6",
          "midi": 90,
          "time": 63.68478260869343,
          "velocity": 0.12598425196850394,
          "duration": 0.03260869565217206
        },
        {
          "name": "F#1",
          "midi": 30,
          "time": 63.69565217391082,
          "velocity": 0.5118110236220472,
          "duration": 0.05434782608695343
        },
        {
          "name": "D4",
          "midi": 62,
          "time": 63.739130434780385,
          "velocity": 0.2677165354330709,
          "duration": 0.14130434782607892
        },
        {
          "name": "G1",
          "midi": 31,
          "time": 63.749999999997776,
          "velocity": 0.5196850393700787,
          "duration": 0.11956521739129755
        },
        {
          "name": "B4",
          "midi": 71,
          "time": 63.80434782608473,
          "velocity": 0.1968503937007874,
          "duration": 0.06521739130434412
        },
        {
          "name": "G#1",
          "midi": 32,
          "time": 63.891304347823855,
          "velocity": 0.5511811023622047,
          "duration": 0.021739130434781373
        },
        {
          "name": "D#4",
          "midi": 63,
          "time": 63.902173913041246,
          "velocity": 0.11811023622047244,
          "duration": 0.03260869565217206
        },
        {
          "name": "G1",
          "midi": 31,
          "time": 63.913043478258636,
          "velocity": 0.5433070866141733,
          "duration": 0.11956521739130466
        },
        {
          "name": "G4",
          "midi": 67,
          "time": 63.92391304347603,
          "velocity": 0.2440944881889764,
          "duration": 0.1739130434782581
        },
        {
          "name": "G5",
          "midi": 79,
          "time": 63.92391304347603,
          "velocity": 0.2755905511811024,
          "duration": 0.0760869565217348
        },
        {
          "name": "A5",
          "midi": 81,
          "time": 63.92391304347603,
          "velocity": 0.16535433070866143,
          "duration": 0.06521739130434412
        },
        {
          "name": "B5",
          "midi": 83,
          "time": 63.94565217391081,
          "velocity": 0.15748031496062992,
          "duration": 0.07608695652174191
        },
        {
          "name": "B4",
          "midi": 71,
          "time": 63.96739130434559,
          "velocity": 0.2125984251968504,
          "duration": 0.04347826086956985
        },
        {
          "name": "D5",
          "midi": 74,
          "time": 63.98913043478037,
          "velocity": 0.13385826771653545,
          "duration": 0.05434782608696054
        },
        {
          "name": "E5",
          "midi": 76,
          "time": 63.98913043478037,
          "velocity": 0.07874015748031496,
          "duration": 0.05434782608696054
        },
        {
          "name": "F#1",
          "midi": 30,
          "time": 64.03260869564994,
          "velocity": 0.5354330708661418,
          "duration": 0.010869565217390686
        },
        {
          "name": "D4",
          "midi": 62,
          "time": 64.03260869564994,
          "velocity": 0.1968503937007874,
          "duration": 0.03260869565217206
        },
        {
          "name": "B4",
          "midi": 71,
          "time": 64.03260869564994,
          "velocity": 0.13385826771653545,
          "duration": 0.03260869565217206
        },
        {
          "name": "E1",
          "midi": 28,
          "time": 64.04347826086733,
          "velocity": 0.5590551181102362,
          "duration": 0.010869565217390686
        },
        {
          "name": "F1",
          "midi": 29,
          "time": 64.05434782608472,
          "velocity": 0.5669291338582677,
          "duration": 0.010869565217390686
        },
        {
          "name": "G1",
          "midi": 31,
          "time": 64.06521739130211,
          "velocity": 0.5433070866141733,
          "duration": 0.010869565217390686
        },
        {
          "name": "D#4",
          "midi": 63,
          "time": 64.06521739130211,
          "velocity": 0.23622047244094488,
          "duration": 0.021739130434781373
        },
        {
          "name": "C5",
          "midi": 72,
          "time": 64.06521739130211,
          "velocity": 0.16535433070866143,
          "duration": 0.13043478260868824
        },
        {
          "name": "G#1",
          "midi": 32,
          "time": 64.0760869565195,
          "velocity": 0.5354330708661418,
          "duration": 0.11956521739129755
        },
        {
          "name": "F#5",
          "midi": 78,
          "time": 64.0869565217369,
          "velocity": 0.07874015748031496,
          "duration": 0.03260869565217206
        },
        {
          "name": "G#5",
          "midi": 80,
          "time": 64.0869565217369,
          "velocity": 0.16535433070866143,
          "duration": 0.05434782608695343
        },
        {
          "name": "D#3",
          "midi": 51,
          "time": 64.09782608695429,
          "velocity": 0.2440944881889764,
          "duration": 0.043478260869562746
        },
        {
          "name": "D#5",
          "midi": 75,
          "time": 64.09782608695429,
          "velocity": 0.15748031496062992,
          "duration": 0.05434782608695343
        },
        {
          "name": "G#4",
          "midi": 68,
          "time": 64.10869565217168,
          "velocity": 0.10236220472440945,
          "duration": 0.03260869565217206
        },
        {
          "name": "E6",
          "midi": 88,
          "time": 64.10869565217168,
          "velocity": 0.07874015748031496,
          "duration": 0.03260869565217206
        },
        {
          "name": "A#5",
          "midi": 82,
          "time": 64.13043478260646,
          "velocity": 0.10236220472440945,
          "duration": 0.05434782608695343
        },
        {
          "name": "A1",
          "midi": 33,
          "time": 64.1956521739108,
          "velocity": 0.4330708661417323,
          "duration": 0.03260869565217206
        },
        {
          "name": "A#3",
          "midi": 58,
          "time": 64.1956521739108,
          "velocity": 0.5433070866141733,
          "duration": 0.021739130434781373
        },
        {
          "name": "C#5",
          "midi": 73,
          "time": 64.1956521739108,
          "velocity": 0.2440944881889764,
          "duration": 0.03260869565217206
        },
        {
          "name": "E6",
          "midi": 88,
          "time": 64.1956521739108,
          "velocity": 0.14173228346456693,
          "duration": 0.0760869565217348
        },
        {
          "name": "C#7",
          "midi": 97,
          "time": 64.1956521739108,
          "velocity": 0.08661417322834646,
          "duration": 0.05434782608695343
        },
        {
          "name": "A3",
          "midi": 57,
          "time": 64.21739130434558,
          "velocity": 0.5905511811023622,
          "duration": 0.043478260869562746
        },
        {
          "name": "B4",
          "midi": 71,
          "time": 64.22826086956297,
          "velocity": 0.16535433070866143,
          "duration": 0.043478260869562746
        },
        {
          "name": "G1",
          "midi": 31,
          "time": 64.23913043478036,
          "velocity": 0.5590551181102362,
          "duration": 0.27173913043476716
        },
        {
          "name": "G5",
          "midi": 79,
          "time": 64.23913043478036,
          "velocity": 0.1732283464566929,
          "duration": 0.05434782608695343
        },
        {
          "name": "D#5",
          "midi": 75,
          "time": 64.24999999999775,
          "velocity": 0.1732283464566929,
          "duration": 0.03260869565217206
        },
        {
          "name": "A5",
          "midi": 81,
          "time": 64.24999999999775,
          "velocity": 0.10236220472440945,
          "duration": 0.03260869565217206
        },
        {
          "name": "G#3",
          "midi": 56,
          "time": 64.26086956521515,
          "velocity": 0.44881889763779526,
          "duration": 0.03260869565217206
        },
        {
          "name": "G4",
          "midi": 67,
          "time": 64.26086956521515,
          "velocity": 0.2440944881889764,
          "duration": 0.06521739130434412
        },
        {
          "name": "G#6",
          "midi": 92,
          "time": 64.26086956521515,
          "velocity": 0.07874015748031496,
          "duration": 0.043478260869562746
        },
        {
          "name": "B5",
          "midi": 83,
          "time": 64.28260869564993,
          "velocity": 0.09448818897637795,
          "duration": 0.0760869565217348
        },
        {
          "name": "A3",
          "midi": 57,
          "time": 64.29347826086732,
          "velocity": 0.16535433070866143,
          "duration": 0.03260869565217206
        },
        {
          "name": "B4",
          "midi": 71,
          "time": 64.29347826086732,
          "velocity": 0.2440944881889764,
          "duration": 0.06521739130434412
        },
        {
          "name": "A5",
          "midi": 81,
          "time": 64.33695652173688,
          "velocity": 0.11023622047244094,
          "duration": 0.03260869565217206
        },
        {
          "name": "G4",
          "midi": 67,
          "time": 64.34782608695427,
          "velocity": 0.28346456692913385,
          "duration": 0.17391304347825098
        },
        {
          "name": "D4",
          "midi": 62,
          "time": 64.36956521738905,
          "velocity": 0.2440944881889764,
          "duration": 0.14130434782607892
        },
        {
          "name": "G#6",
          "midi": 92,
          "time": 64.36956521738905,
          "velocity": 0.10236220472440945,
          "duration": 0.05434782608695343
        },
        {
          "name": "B4",
          "midi": 71,
          "time": 64.38043478260644,
          "velocity": 0.18110236220472442,
          "duration": 0.10869565217390686
        },
        {
          "name": "F5",
          "midi": 77,
          "time": 64.4347826086934,
          "velocity": 0.13385826771653545,
          "duration": 0.05434782608695343
        },
        {
          "name": "D3",
          "midi": 50,
          "time": 64.46739130434557,
          "velocity": 0.31496062992125984,
          "duration": 0.03260869565217206
        },
        {
          "name": "F3",
          "midi": 53,
          "time": 64.49999999999774,
          "velocity": 0.25196850393700787,
          "duration": 0.021739130434781373
        },
        {
          "name": "F#1",
          "midi": 30,
          "time": 64.51086956521513,
          "velocity": 0.5590551181102362,
          "duration": 0.021739130434781373
        },
        {
          "name": "G1",
          "midi": 31,
          "time": 64.53260869564991,
          "velocity": 0.5433070866141733,
          "duration": 0.2608695652173765
        },
        {
          "name": "G4",
          "midi": 67,
          "time": 64.5434782608673,
          "velocity": 0.2125984251968504,
          "duration": 0.03260869565217206
        },
        {
          "name": "G5",
          "midi": 79,
          "time": 64.5434782608673,
          "velocity": 0.2755905511811024,
          "duration": 0.06521739130434412
        },
        {
          "name": "A5",
          "midi": 81,
          "time": 64.5434782608673,
          "velocity": 0.14960629921259844,
          "duration": 0.06521739130434412
        },
        {
          "name": "B5",
          "midi": 83,
          "time": 64.56521739130208,
          "velocity": 0.13385826771653545,
          "duration": 0.0760869565217348
        },
        {
          "name": "G4",
          "midi": 67,
          "time": 64.58695652173687,
          "velocity": 0.2204724409448819,
          "duration": 0.08695652173912549
        },
        {
          "name": "B4",
          "midi": 71,
          "time": 64.58695652173687,
          "velocity": 0.2283464566929134,
          "duration": 0.10869565217390686
        },
        {
          "name": "F#6",
          "midi": 90,
          "time": 64.58695652173687,
          "velocity": 0.08661417322834646,
          "duration": 0.043478260869562746
        },
        {
          "name": "D5",
          "midi": 74,
          "time": 64.59782608695426,
          "velocity": 0.15748031496062992,
          "duration": 0.06521739130434412
        },
        {
          "name": "D4",
          "midi": 62,
          "time": 64.64130434782382,
          "velocity": 0.2755905511811024,
          "duration": 0.1521739130434696
        },
        {
          "name": "G4",
          "midi": 67,
          "time": 64.68478260869338,
          "velocity": 0.25196850393700787,
          "duration": 0.3260869565217206
        },
        {
          "name": "D3",
          "midi": 50,
          "time": 64.70652173912816,
          "velocity": 0.33070866141732286,
          "duration": 0.021739130434781373
        },
        {
          "name": "B4",
          "midi": 71,
          "time": 64.71739130434555,
          "velocity": 0.2283464566929134,
          "duration": 0.20652173913042304
        },
        {
          "name": "G#1",
          "midi": 32,
          "time": 64.79347826086729,
          "velocity": 0.5118110236220472,
          "duration": 0.03260869565217206
        },
        {
          "name": "E5",
          "midi": 76,
          "time": 64.80434782608468,
          "velocity": 0.11811023622047244,
          "duration": 0.03260869565217206
        },
        {
          "name": "C#3",
          "midi": 49,
          "time": 64.81521739130207,
          "velocity": 0.5275590551181102,
          "duration": 0.010869565217390686
        },
        {
          "name": "D#4",
          "midi": 63,
          "time": 64.81521739130207,
          "velocity": 0.1968503937007874,
          "duration": 0.03260869565217206
        },
        {
          "name": "G1",
          "midi": 31,
          "time": 64.82608695651946,
          "velocity": 0.5039370078740157,
          "duration": 0.021739130434781373
        },
        {
          "name": "A#2",
          "midi": 46,
          "time": 64.82608695651946,
          "velocity": 0.5196850393700787,
          "duration": 0.010869565217390686
        },
        {
          "name": "C#2",
          "midi": 37,
          "time": 64.84782608695424,
          "velocity": 0.5826771653543307,
          "duration": 0.010869565217390686
        },
        {
          "name": "A1",
          "midi": 33,
          "time": 64.85869565217163,
          "velocity": 0.5669291338582677,
          "duration": 0.010869565217390686
        },
        {
          "name": "D5",
          "midi": 74,
          "time": 64.85869565217163,
          "velocity": 0.1968503937007874,
          "duration": 0.11956521739129755
        },
        {
          "name": "A5",
          "midi": 81,
          "time": 64.85869565217163,
          "velocity": 0.1732283464566929,
          "duration": 0.03260869565217206
        },
        {
          "name": "G1",
          "midi": 31,
          "time": 64.86956521738902,
          "velocity": 0.5433070866141733,
          "duration": 0.021739130434781373
        },
        {
          "name": "F#1",
          "midi": 30,
          "time": 64.8913043478238,
          "velocity": 0.5511811023622047,
          "duration": 0.043478260869562746
        },
        {
          "name": "F5",
          "midi": 77,
          "time": 64.9021739130412,
          "velocity": 0.1732283464566929,
          "duration": 0.03260869565217206
        },
        {
          "name": "G1",
          "midi": 31,
          "time": 64.93478260869337,
          "velocity": 0.5433070866141733,
          "duration": 0.010869565217390686
        },
        {
          "name": "G3",
          "midi": 55,
          "time": 64.93478260869337,
          "velocity": 0.12598425196850394,
          "duration": 0.03260869565217206
        },
        {
          "name": "D4",
          "midi": 62,
          "time": 64.93478260869337,
          "velocity": 0.16535433070866143,
          "duration": 0.043478260869562746
        },
        {
          "name": "B4",
          "midi": 71,
          "time": 64.93478260869337,
          "velocity": 0.2047244094488189,
          "duration": 0.043478260869562746
        },
        {
          "name": "F#1",
          "midi": 30,
          "time": 64.94565217391076,
          "velocity": 0.5275590551181102,
          "duration": 0.021739130434781373
        },
        {
          "name": "G1",
          "midi": 31,
          "time": 64.96739130434554,
          "velocity": 0.5118110236220472,
          "duration": 0.010869565217390686
        },
        {
          "name": "G#1",
          "midi": 32,
          "time": 64.97826086956293,
          "velocity": 0.5669291338582677,
          "duration": 0.14130434782607892
        },
        {
          "name": "D#4",
          "midi": 63,
          "time": 64.98913043478032,
          "velocity": 0.2047244094488189,
          "duration": 0.03260869565217206
        },
        {
          "name": "C5",
          "midi": 72,
          "time": 64.98913043478032,
          "velocity": 0.1968503937007874,
          "duration": 0.03260869565217206
        },
        {
          "name": "F5",
          "midi": 77,
          "time": 64.99999999999771,
          "velocity": 0.11811023622047244,
          "duration": 0.03260869565217206
        },
        {
          "name": "G#5",
          "midi": 80,
          "time": 64.99999999999771,
          "velocity": 0.12598425196850394,
          "duration": 0.03260869565217206
        },
        {
          "name": "G5",
          "midi": 79,
          "time": 65.0108695652151,
          "velocity": 0.14173228346456693,
          "duration": 0.043478260869562746
        },
        {
          "name": "D#3",
          "midi": 51,
          "time": 65.0217391304325,
          "velocity": 0.3228346456692913,
          "duration": 0.043478260869562746
        },
        {
          "name": "D#5",
          "midi": 75,
          "time": 65.0217391304325,
          "velocity": 0.2283464566929134,
          "duration": 0.09782608695651618
        },
        {
          "name": "A#5",
          "midi": 82,
          "time": 65.0217391304325,
          "velocity": 0.13385826771653545,
          "duration": 0.03260869565217206
        },
        {
          "name": "G#4",
          "midi": 68,
          "time": 65.03260869564988,
          "velocity": 0.2125984251968504,
          "duration": 0.11956521739129755
        },
        {
          "name": "G#6",
          "midi": 92,
          "time": 65.04347826086727,
          "velocity": 0.08661417322834646,
          "duration": 0.03260869565217206
        },
        {
          "name": "D#4",
          "midi": 63,
          "time": 65.06521739130206,
          "velocity": 0.2440944881889764,
          "duration": 0.11956521739129755
        },
        {
          "name": "C5",
          "midi": 72,
          "time": 65.06521739130206,
          "velocity": 0.2125984251968504,
          "duration": 0.05434782608695343
        },
        {
          "name": "D#3",
          "midi": 51,
          "time": 65.09782608695423,
          "velocity": 0.29133858267716534,
          "duration": 0.021739130434781373
        },
        {
          "name": "G1",
          "midi": 31,
          "time": 65.11956521738901,
          "velocity": 0.5826771653543307,
          "duration": 0.010869565217390686
        },
        {
          "name": "F#1",
          "midi": 30,
          "time": 65.1304347826064,
          "velocity": 0.5590551181102362,
          "duration": 0.021739130434781373
        },
        {
          "name": "B4",
          "midi": 71,
          "time": 65.14130434782379,
          "velocity": 0.14960629921259844,
          "duration": 0.043478260869562746
        },
        {
          "name": "B5",
          "midi": 83,
          "time": 65.14130434782379,
          "velocity": 0.1732283464566929,
          "duration": 0.09782608695651618
        },
        {
          "name": "G1",
          "midi": 31,
          "time": 65.15217391304118,
          "velocity": 0.5433070866141733,
          "duration": 0.2608695652173765
        },
        {
          "name": "F5",
          "midi": 77,
          "time": 65.15217391304118,
          "velocity": 0.11023622047244094,
          "duration": 0.03260869565217206
        },
        {
          "name": "G4",
          "midi": 67,
          "time": 65.16304347825857,
          "velocity": 0.23622047244094488,
          "duration": 0.043478260869562746
        },
        {
          "name": "G5",
          "midi": 79,
          "time": 65.16304347825857,
          "velocity": 0.2677165354330709,
          "duration": 0.0760869565217348
        },
        {
          "name": "D5",
          "midi": 74,
          "time": 65.17391304347596,
          "velocity": 0.25984251968503935,
          "duration": 0.10869565217390686
        },
        {
          "name": "A6",
          "midi": 93,
          "time": 65.17391304347596,
          "velocity": 0.11811023622047244,
          "duration": 0.03260869565217206
        },
        {
          "name": "B4",
          "midi": 71,
          "time": 65.19565217391074,
          "velocity": 0.2677165354330709,
          "duration": 0.10869565217390686
        },
        {
          "name": "F5",
          "midi": 77,
          "time": 65.21739130434553,
          "velocity": 0.18110236220472442,
          "duration": 0.0760869565217348
        },
        {
          "name": "G4",
          "midi": 67,
          "time": 65.23913043478031,
          "velocity": 0.33858267716535434,
          "duration": 0.20652173913042304
        },
        {
          "name": "D4",
          "midi": 62,
          "time": 65.29347826086726,
          "velocity": 0.25984251968503935,
          "duration": 0.13043478260868824
        },
        {
          "name": "B4",
          "midi": 71,
          "time": 65.32608695651943,
          "velocity": 0.2047244094488189,
          "duration": 0.06521739130434412
        },
        {
          "name": "A#4",
          "midi": 70,
          "time": 65.40217391304117,
          "velocity": 0.23622047244094488,
          "duration": 0.03260869565217206
        },
        {
          "name": "C#5",
          "midi": 73,
          "time": 65.41304347825856,
          "velocity": 0.28346456692913385,
          "duration": 0.021739130434781373
        },
        {
          "name": "A6",
          "midi": 93,
          "time": 65.41304347825856,
          "velocity": 0.2047244094488189,
          "duration": 0.03260869565217206
        },
        {
          "name": "A#6",
          "midi": 94,
          "time": 65.41304347825856,
          "velocity": 0.2283464566929134,
          "duration": 0.05434782608695343
        },
        {
          "name": "F7",
          "midi": 101,
          "time": 65.41304347825856,
          "velocity": 0.11811023622047244,
          "duration": 0.043478260869562746
        },
        {
          "name": "A1",
          "midi": 33,
          "time": 65.42391304347595,
          "velocity": 0.4015748031496063,
          "duration": 0.021739130434781373
        },
        {
          "name": "F5",
          "midi": 77,
          "time": 65.42391304347595,
          "velocity": 0.10236220472440945,
          "duration": 0.03260869565217206
        },
        {
          "name": "E6",
          "midi": 88,
          "time": 65.42391304347595,
          "velocity": 0.2047244094488189,
          "duration": 0.0760869565217348
        },
        {
          "name": "A#3",
          "midi": 58,
          "time": 65.43478260869334,
          "velocity": 0.5511811023622047,
          "duration": 0.010869565217390686
        },
        {
          "name": "C5",
          "midi": 72,
          "time": 65.43478260869334,
          "velocity": 0.2677165354330709,
          "duration": 0.021739130434781373
        },
        {
          "name": "G1",
          "midi": 31,
          "time": 65.44565217391073,
          "velocity": 0.5433070866141733,
          "duration": 0.27173913043476716
        },
        {
          "name": "A3",
          "midi": 57,
          "time": 65.44565217391073,
          "velocity": 0.5905511811023622,
          "duration": 0.03260869565217206
        },
        {
          "name": "B4",
          "midi": 71,
          "time": 65.46739130434551,
          "velocity": 0.2283464566929134,
          "duration": 0.0760869565217348
        },
        {
          "name": "F5",
          "midi": 77,
          "time": 65.46739130434551,
          "velocity": 0.12598425196850394,
          "duration": 0.03260869565217206
        },
        {
          "name": "A5",
          "midi": 81,
          "time": 65.46739130434551,
          "velocity": 0.11023622047244094,
          "duration": 0.05434782608695343
        },
        {
          "name": "C7",
          "midi": 96,
          "time": 65.46739130434551,
          "velocity": 0.09448818897637795,
          "duration": 0.03260869565217206
        },
        {
          "name": "G#3",
          "midi": 56,
          "time": 65.4782608695629,
          "velocity": 0.5196850393700787,
          "duration": 0.043478260869562746
        },
        {
          "name": "G5",
          "midi": 79,
          "time": 65.4782608695629,
          "velocity": 0.25196850393700787,
          "duration": 0.043478260869562746
        },
        {
          "name": "F#7",
          "midi": 102,
          "time": 65.4782608695629,
          "velocity": 0.14960629921259844,
          "duration": 0.03260869565217206
        },
        {
          "name": "F#6",
          "midi": 90,
          "time": 65.49999999999768,
          "velocity": 0.10236220472440945,
          "duration": 0.05434782608695343
        },
        {
          "name": "G4",
          "midi": 67,
          "time": 65.51086956521507,
          "velocity": 0.2283464566929134,
          "duration": 0.2391304347825951
        },
        {
          "name": "D5",
          "midi": 74,
          "time": 65.51086956521507,
          "velocity": 0.1968503937007874,
          "duration": 0.0760869565217348
        },
        {
          "name": "E5",
          "midi": 76,
          "time": 65.51086956521507,
          "velocity": 0.09448818897637795,
          "duration": 0.0760869565217348
        },
        {
          "name": "C7",
          "midi": 96,
          "time": 65.52173913043247,
          "velocity": 0.07086614173228346,
          "duration": 0.03260869565217206
        },
        {
          "name": "D4",
          "midi": 62,
          "time": 65.55434782608464,
          "velocity": 0.28346456692913385,
          "duration": 0.17391304347825098
        },
        {
          "name": "B4",
          "midi": 71,
          "time": 65.55434782608464,
          "velocity": 0.2283464566929134,
          "duration": 0.06521739130434412
        },
        {
          "name": "B4",
          "midi": 71,
          "time": 65.64130434782376,
          "velocity": 0.12598425196850394,
          "duration": 0.08695652173912549
        },
        {
          "name": "F5",
          "midi": 77,
          "time": 65.69565217391072,
          "velocity": 0.10236220472440945,
          "duration": 0.03260869565217206
        },
        {
          "name": "F#1",
          "midi": 30,
          "time": 65.7173913043455,
          "velocity": 0.5511811023622047,
          "duration": 0.010869565217390686
        },
        {
          "name": "A2",
          "midi": 45,
          "time": 65.7173913043455,
          "velocity": 0.3543307086614173,
          "duration": 0.021739130434781373
        },
        {
          "name": "F1",
          "midi": 29,
          "time": 65.72826086956289,
          "velocity": 0.5748031496062992,
          "duration": 0.021739130434781373
        },
        {
          "name": "F#1",
          "midi": 30,
          "time": 65.74999999999767,
          "velocity": 0.5669291338582677,
          "duration": 0.29347826086954854
        },
        {
          "name": "C#4",
          "midi": 61,
          "time": 65.74999999999767,
          "velocity": 0.31496062992125984,
          "duration": 0.27173913043476716
        },
        {
          "name": "F#4",
          "midi": 66,
          "time": 65.77173913043245,
          "velocity": 0.25984251968503935,
          "duration": 0.1521739130434696
        },
        {
          "name": "G#5",
          "midi": 80,
          "time": 65.79347826086723,
          "velocity": 0.18110236220472442,
          "duration": 0.0760869565217348
        },
        {
          "name": "E5",
          "midi": 76,
          "time": 65.80434782608462,
          "velocity": 0.14960629921259844,
          "duration": 0.05434782608695343
        },
        {
          "name": "A#4",
          "midi": 70,
          "time": 65.8260869565194,
          "velocity": 0.18110236220472442,
          "duration": 0.08695652173912549
        },
        {
          "name": "F#4",
          "midi": 66,
          "time": 65.93478260869331,
          "velocity": 0.25984251968503935,
          "duration": 0.08695652173912549
        },
        {
          "name": "A5",
          "midi": 81,
          "time": 65.98913043478026,
          "velocity": 0.08661417322834646,
          "duration": 0.05434782608695343
        },
        {
          "name": "C5",
          "midi": 72,
          "time": 66.02173913043244,
          "velocity": 0.16535433070866143,
          "duration": 0.043478260869562746
        },
        {
          "name": "F5",
          "midi": 77,
          "time": 66.03260869564983,
          "velocity": 0.13385826771653545,
          "duration": 0.05434782608695343
        },
        {
          "name": "A1",
          "midi": 33,
          "time": 66.05434782608461,
          "velocity": 0.5905511811023622,
          "duration": 0.021739130434781373
        },
        {
          "name": "G#2",
          "midi": 44,
          "time": 66.065217391302,
          "velocity": 0.2283464566929134,
          "duration": 0.021739130434781373
        },
        {
          "name": "G#1",
          "midi": 32,
          "time": 66.07608695651939,
          "velocity": 0.5905511811023622,
          "duration": 0.021739130434781373
        },
        {
          "name": "G4",
          "midi": 67,
          "time": 66.08695652173678,
          "velocity": 0.2047244094488189,
          "duration": 0.043478260869562746
        },
        {
          "name": "G5",
          "midi": 79,
          "time": 66.08695652173678,
          "velocity": 0.2125984251968504,
          "duration": 0.06521739130434412
        },
        {
          "name": "A5",
          "midi": 81,
          "time": 66.08695652173678,
          "velocity": 0.13385826771653545,
          "duration": 0.03260869565217206
        },
        {
          "name": "G1",
          "midi": 31,
          "time": 66.09782608695417,
          "velocity": 0.5826771653543307,
          "duration": 0.021739130434781373
        },
        {
          "name": "B5",
          "midi": 83,
          "time": 66.09782608695417,
          "velocity": 0.09448818897637795,
          "duration": 0.03260869565217206
        },
        {
          "name": "F#1",
          "midi": 30,
          "time": 66.11956521738895,
          "velocity": 0.5748031496062992,
          "duration": 0.03260869565217206
        },
        {
          "name": "B4",
          "midi": 71,
          "time": 66.11956521738895,
          "velocity": 0.23622047244094488,
          "duration": 0.0760869565217348
        },
        {
          "name": "F5",
          "midi": 77,
          "time": 66.13043478260634,
          "velocity": 0.14960629921259844,
          "duration": 0.043478260869562746
        },
        {
          "name": "G1",
          "midi": 31,
          "time": 66.15217391304112,
          "velocity": 0.5433070866141733,
          "duration": 0.03260869565217206
        },
        {
          "name": "G#1",
          "midi": 32,
          "time": 66.1847826086933,
          "velocity": 0.49606299212598426,
          "duration": 0.021739130434781373
        },
        {
          "name": "G4",
          "midi": 67,
          "time": 66.1847826086933,
          "velocity": 0.2755905511811024,
          "duration": 0.14130434782607892
        },
        {
          "name": "D4",
          "midi": 62,
          "time": 66.19565217391069,
          "velocity": 0.25196850393700787,
          "duration": 0.13043478260868824
        },
        {
          "name": "G1",
          "midi": 31,
          "time": 66.20652173912808,
          "velocity": 0.5433070866141733,
          "duration": 0.11956521739129755
        },
        {
          "name": "G#6",
          "midi": 92,
          "time": 66.20652173912808,
          "velocity": 0.07874015748031496,
          "duration": 0.043478260869562746
        },
        {
          "name": "B4",
          "midi": 71,
          "time": 66.22826086956286,
          "velocity": 0.18110236220472442,
          "duration": 0.10869565217390686
        },
        {
          "name": "A5",
          "midi": 81,
          "time": 66.22826086956286,
          "velocity": 0.07086614173228346,
          "duration": 0.043478260869562746
        },
        {
          "name": "F5",
          "midi": 77,
          "time": 66.24999999999764,
          "velocity": 0.16535433070866143,
          "duration": 0.0760869565217348
        },
        {
          "name": "D#4",
          "midi": 63,
          "time": 66.32608695651938,
          "velocity": 0.13385826771653545,
          "duration": 0.05434782608695343
        },
        {
          "name": "E1",
          "midi": 28,
          "time": 66.34782608695416,
          "velocity": 0.5511811023622047,
          "duration": 0.010869565217390686
        },
        {
          "name": "F#1",
          "midi": 30,
          "time": 66.35869565217155,
          "velocity": 0.5669291338582677,
          "duration": 0.010869565217390686
        },
        {
          "name": "G5",
          "midi": 79,
          "time": 66.35869565217155,
          "velocity": 0.2755905511811024,
          "duration": 0.13043478260868824
        },
        {
          "name": "G1",
          "midi": 31,
          "time": 66.36956521738894,
          "velocity": 0.5669291338582677,
          "duration": 0.27173913043476716
        },
        {
          "name": "G4",
          "midi": 67,
          "time": 66.36956521738894,
          "velocity": 0.23622047244094488,
          "duration": 0.11956521739129755
        },
        {
          "name": "F5",
          "midi": 77,
          "time": 66.38043478260633,
          "velocity": 0.14960629921259844,
          "duration": 0.03260869565217206
        },
        {
          "name": "A5",
          "midi": 81,
          "time": 66.38043478260633,
          "velocity": 0.16535433070866143,
          "duration": 0.05434782608695343
        },
        {
          "name": "B5",
          "midi": 83,
          "time": 66.38043478260633,
          "velocity": 0.10236220472440945,
          "duration": 0.06521739130434412
        },
        {
          "name": "D5",
          "midi": 74,
          "time": 66.43478260869328,
          "velocity": 0.18110236220472442,
          "duration": 0.03260869565217206
        },
        {
          "name": "D4",
          "midi": 62,
          "time": 66.46739130434545,
          "velocity": 0.28346456692913385,
          "duration": 0.1630434782608603
        },
        {
          "name": "B4",
          "midi": 71,
          "time": 66.46739130434545,
          "velocity": 0.2047244094488189,
          "duration": 0.06521739130434412
        },
        {
          "name": "G4",
          "midi": 67,
          "time": 66.49999999999763,
          "velocity": 0.25984251968503935,
          "duration": 0.13043478260868824
        },
        {
          "name": "B5",
          "midi": 83,
          "time": 66.5326086956498,
          "velocity": 0.10236220472440945,
          "duration": 0.06521739130434412
        },
        {
          "name": "B4",
          "midi": 71,
          "time": 66.55434782608458,
          "velocity": 0.1889763779527559,
          "duration": 0.08695652173912549
        },
        {
          "name": "D#5",
          "midi": 75,
          "time": 66.61956521738892,
          "velocity": 0.1968503937007874,
          "duration": 0.043478260869562746
        },
        {
          "name": "C4",
          "midi": 60,
          "time": 66.63043478260632,
          "velocity": 0.36220472440944884,
          "duration": 0.021739130434781373
        },
        {
          "name": "G#4",
          "midi": 68,
          "time": 66.63043478260632,
          "velocity": 0.28346456692913385,
          "duration": 0.021739130434781373
        },
        {
          "name": "F6",
          "midi": 89,
          "time": 66.63043478260632,
          "velocity": 0.14173228346456693,
          "duration": 0.05434782608695343
        },
        {
          "name": "A6",
          "midi": 93,
          "time": 66.63043478260632,
          "velocity": 0.2125984251968504,
          "duration": 0.03260869565217206
        },
        {
          "name": "C7",
          "midi": 96,
          "time": 66.63043478260632,
          "velocity": 0.14960629921259844,
          "duration": 0.043478260869562746
        },
        {
          "name": "B1",
          "midi": 35,
          "time": 66.6413043478237,
          "velocity": 0.4251968503937008,
          "duration": 0.021739130434781373
        },
        {
          "name": "F#6",
          "midi": 90,
          "time": 66.6413043478237,
          "velocity": 0.11811023622047244,
          "duration": 0.1630434782608603
        },
        {
          "name": "G#6",
          "midi": 92,
          "time": 66.6413043478237,
          "velocity": 0.2125984251968504,
          "duration": 0.03260869565217206
        },
        {
          "name": "A#6",
          "midi": 94,
          "time": 66.6413043478237,
          "velocity": 0.18110236220472442,
          "duration": 0.03260869565217206
        },
        {
          "name": "E7",
          "midi": 100,
          "time": 66.6413043478237,
          "velocity": 0.14173228346456693,
          "duration": 0.043478260869562746
        },
        {
          "name": "F7",
          "midi": 101,
          "time": 66.6413043478237,
          "velocity": 0.15748031496062992,
          "duration": 0.043478260869562746
        },
        {
          "name": "G7",
          "midi": 103,
          "time": 66.6413043478237,
          "velocity": 0.2047244094488189,
          "duration": 0.03260869565217206
        },
        {
          "name": "A#3",
          "midi": 58,
          "time": 66.6521739130411,
          "velocity": 0.5354330708661418,
          "duration": 0.010869565217390686
        },
        {
          "name": "F#4",
          "midi": 66,
          "time": 66.6521739130411,
          "velocity": 0.28346456692913385,
          "duration": 0.021739130434781373
        },
        {
          "name": "G#5",
          "midi": 80,
          "time": 66.6521739130411,
          "velocity": 0.07086614173228346,
          "duration": 0.043478260869562746
        },
        {
          "name": "E6",
          "midi": 88,
          "time": 66.6521739130411,
          "velocity": 0.12598425196850394,
          "duration": 0.03260869565217206
        },
        {
          "name": "A3",
          "midi": 57,
          "time": 66.66304347825849,
          "velocity": 0.5905511811023622,
          "duration": 0.043478260869562746
        },
        {
          "name": "G1",
          "midi": 31,
          "time": 66.67391304347588,
          "velocity": 0.49606299212598426,
          "duration": 0.10869565217390686
        },
        {
          "name": "A5",
          "midi": 81,
          "time": 66.67391304347588,
          "velocity": 0.13385826771653545,
          "duration": 0.06521739130434412
        },
        {
          "name": "G4",
          "midi": 67,
          "time": 66.68478260869327,
          "velocity": 0.2047244094488189,
          "duration": 0.1521739130434696
        },
        {
          "name": "F5",
          "midi": 77,
          "time": 66.68478260869327,
          "velocity": 0.12598425196850394,
          "duration": 0.043478260869562746
        },
        {
          "name": "G5",
          "midi": 79,
          "time": 66.69565217391066,
          "velocity": 0.2755905511811024,
          "duration": 0.05434782608695343
        },
        {
          "name": "G#3",
          "midi": 56,
          "time": 66.70652173912805,
          "velocity": 0.4645669291338583,
          "duration": 0.05434782608695343
        },
        {
          "name": "D5",
          "midi": 74,
          "time": 66.70652173912805,
          "velocity": 0.2440944881889764,
          "duration": 0.09782608695651618
        },
        {
          "name": "E7",
          "midi": 100,
          "time": 66.70652173912805,
          "velocity": 0.12598425196850394,
          "duration": 0.043478260869562746
        },
        {
          "name": "B5",
          "midi": 83,
          "time": 66.72826086956283,
          "velocity": 0.1889763779527559,
          "duration": 0.043478260869562746
        },
        {
          "name": "B4",
          "midi": 71,
          "time": 66.7717391304324,
          "velocity": 0.1968503937007874,
          "duration": 0.043478260869562746
        },
        {
          "name": "E5",
          "midi": 76,
          "time": 66.7717391304324,
          "velocity": 0.11811023622047244,
          "duration": 0.043478260869562746
        },
        {
          "name": "F#1",
          "midi": 30,
          "time": 66.78260869564978,
          "velocity": 0.5118110236220472,
          "duration": 0.010869565217390686
        },
        {
          "name": "D#1",
          "midi": 27,
          "time": 66.79347826086718,
          "velocity": 0.5433070866141733,
          "duration": 0.021739130434781373
        },
        {
          "name": "G1",
          "midi": 31,
          "time": 66.81521739130196,
          "velocity": 0.5590551181102362,
          "duration": 0.010869565217390686
        },
        {
          "name": "D#4",
          "midi": 63,
          "time": 66.81521739130196,
          "velocity": 0.2204724409448819,
          "duration": 0.03260869565217206
        },
        {
          "name": "A#4",
          "midi": 70,
          "time": 66.81521739130196,
          "velocity": 0.09448818897637795,
          "duration": 0.03260869565217206
        },
        {
          "name": "C5",
          "midi": 72,
          "time": 66.81521739130196,
          "velocity": 0.14960629921259844,
          "duration": 0.043478260869562746
        },
        {
          "name": "G#1",
          "midi": 32,
          "time": 66.82608695651935,
          "velocity": 0.5669291338582677,
          "duration": 0.11956521739129755
        },
        {
          "name": "G#4",
          "midi": 68,
          "time": 66.83695652173674,
          "velocity": 0.14960629921259844,
          "duration": 0.05434782608695343
        },
        {
          "name": "D#3",
          "midi": 51,
          "time": 66.84782608695413,
          "velocity": 0.28346456692913385,
          "duration": 0.043478260869562746
        },
        {
          "name": "D#5",
          "midi": 75,
          "time": 66.85869565217152,
          "velocity": 0.2283464566929134,
          "duration": 0.08695652173912549
        },
        {
          "name": "A#5",
          "midi": 82,
          "time": 66.85869565217152,
          "velocity": 0.15748031496062992,
          "duration": 0.09782608695651618
        },
        {
          "name": "D#4",
          "midi": 63,
          "time": 66.89130434782369,
          "velocity": 0.23622047244094488,
          "duration": 0.11956521739129755
        },
        {
          "name": "C5",
          "midi": 72,
          "time": 66.89130434782369,
          "velocity": 0.2283464566929134,
          "duration": 0.06521739130434412
        },
        {
          "name": "G#4",
          "midi": 68,
          "time": 66.92391304347586,
          "velocity": 0.14960629921259844,
          "duration": 0.08695652173912549
        },
        {
          "name": "F#5",
          "midi": 78,
          "time": 66.93478260869325,
          "velocity": 0.07086614173228346,
          "duration": 0.03260869565217206
        },
        {
          "name": "A#1",
          "midi": 34,
          "time": 66.94565217391064,
          "velocity": 0.5354330708661418,
          "duration": 0.021739130434781373
        },
        {
          "name": "G#1",
          "midi": 32,
          "time": 66.96739130434543,
          "velocity": 0.5511811023622047,
          "duration": 0.010869565217390686
        },
        {
          "name": "G1",
          "midi": 31,
          "time": 66.97826086956282,
          "velocity": 0.5433070866141733,
          "duration": 0.27173913043476716
        },
        {
          "name": "B5",
          "midi": 83,
          "time": 66.97826086956282,
          "velocity": 0.09448818897637795,
          "duration": 0.11956521739129755
        },
        {
          "name": "A5",
          "midi": 81,
          "time": 66.98913043478021,
          "velocity": 0.16535433070866143,
          "duration": 0.03260869565217206
        },
        {
          "name": "G5",
          "midi": 79,
          "time": 66.9999999999976,
          "velocity": 0.2047244094488189,
          "duration": 0.043478260869562746
        },
        {
          "name": "G4",
          "midi": 67,
          "time": 67.01086956521499,
          "velocity": 0.1732283464566929,
          "duration": 0.03260869565217206
        },
        {
          "name": "B4",
          "midi": 71,
          "time": 67.04347826086716,
          "velocity": 0.23622047244094488,
          "duration": 0.08695652173912549
        },
        {
          "name": "F5",
          "midi": 77,
          "time": 67.05434782608455,
          "velocity": 0.11023622047244094,
          "duration": 0.043478260869562746
        },
        {
          "name": "D4",
          "midi": 62,
          "time": 67.1086956521715,
          "velocity": 0.25984251968503935,
          "duration": 0.1521739130434696
        },
        {
          "name": "G4",
          "midi": 67,
          "time": 67.1086956521715,
          "velocity": 0.2755905511811024,
          "duration": 0.14130434782607892
        },
        {
          "name": "G#6",
          "midi": 92,
          "time": 67.13043478260629,
          "velocity": 0.08661417322834646,
          "duration": 0.03260869565217206
        },
        {
          "name": "B5",
          "midi": 83,
          "time": 67.14130434782368,
          "velocity": 0.13385826771653545,
          "duration": 0.0760869565217348
        },
        {
          "name": "B4",
          "midi": 71,
          "time": 67.15217391304107,
          "velocity": 0.16535433070866143,
          "duration": 0.08695652173912549
        },
        {
          "name": "F5",
          "midi": 77,
          "time": 67.19565217391063,
          "velocity": 0.12598425196850394,
          "duration": 0.06521739130434412
        },
        {
          "name": "B3",
          "midi": 59,
          "time": 67.2391304347802,
          "velocity": 0.25196850393700787,
          "duration": 0.03260869565217206
        },
        {
          "name": "C6",
          "midi": 84,
          "time": 67.24999999999758,
          "velocity": 0.10236220472440945,
          "duration": 0.03260869565217206
        },
        {
          "name": "D7",
          "midi": 98,
          "time": 67.24999999999758,
          "velocity": 0.18110236220472442,
          "duration": 0.03260869565217206
        },
        {
          "name": "D#3",
          "midi": 51,
          "time": 67.28260869564976,
          "velocity": 0.25984251968503935,
          "duration": 0.03260869565217206
        },
        {
          "name": "E5",
          "midi": 76,
          "time": 67.29347826086715,
          "velocity": 0.11023622047244094,
          "duration": 0.043478260869562746
        },
        {
          "name": "F#5",
          "midi": 78,
          "time": 67.29347826086715,
          "velocity": 0.13385826771653545,
          "duration": 0.043478260869562746
        },
        {
          "name": "G1",
          "midi": 31,
          "time": 67.32608695651932,
          "velocity": 0.48031496062992124,
          "duration": 0.021739130434781373
        },
        {
          "name": "E1",
          "midi": 28,
          "time": 67.35869565217149,
          "velocity": 0.3700787401574803,
          "duration": 0.021739130434781373
        },
        {
          "name": "F#1",
          "midi": 30,
          "time": 67.38043478260627,
          "velocity": 0.3779527559055118,
          "duration": 0.021739130434781373
        },
        {
          "name": "D7",
          "midi": 98,
          "time": 67.41304347825844,
          "velocity": 0.11811023622047244,
          "duration": 0.03260869565217206
        },
        {
          "name": "F#7",
          "midi": 102,
          "time": 67.41304347825844,
          "velocity": 0.12598425196850394,
          "duration": 0.03260869565217206
        },
        {
          "name": "C4",
          "midi": 60,
          "time": 67.42391304347584,
          "velocity": 0.2283464566929134,
          "duration": 0.021739130434781373
        },
        {
          "name": "F#5",
          "midi": 78,
          "time": 67.42391304347584,
          "velocity": 0.14173228346456693,
          "duration": 0.05434782608695343
        },
        {
          "name": "G1",
          "midi": 31,
          "time": 67.43478260869323,
          "velocity": 0.5433070866141733,
          "duration": 0.09782608695651618
        },
        {
          "name": "G#5",
          "midi": 80,
          "time": 67.43478260869323,
          "velocity": 0.31496062992125984,
          "duration": 0.06521739130434412
        },
        {
          "name": "A#5",
          "midi": 82,
          "time": 67.43478260869323,
          "velocity": 0.25196850393700787,
          "duration": 0.06521739130434412
        },
        {
          "name": "D#5",
          "midi": 75,
          "time": 67.44565217391062,
          "velocity": 0.1968503937007874,
          "duration": 0.05434782608695343
        },
        {
          "name": "C6",
          "midi": 84,
          "time": 67.44565217391062,
          "velocity": 0.10236220472440945,
          "duration": 0.03260869565217206
        },
        {
          "name": "C#7",
          "midi": 97,
          "time": 67.47826086956279,
          "velocity": 0.09448818897637795,
          "duration": 0.03260869565217206
        },
        {
          "name": "C4",
          "midi": 60,
          "time": 67.56521739130191,
          "velocity": 0.28346456692913385,
          "duration": 0.03260869565217206
        },
        {
          "name": "D7",
          "midi": 98,
          "time": 67.56521739130191,
          "velocity": 0.11811023622047244,
          "duration": 0.043478260869562746
        },
        {
          "name": "F#7",
          "midi": 102,
          "time": 67.56521739130191,
          "velocity": 0.14173228346456693,
          "duration": 0.03260869565217206
        },
        {
          "name": "G1",
          "midi": 31,
          "time": 67.5760869565193,
          "velocity": 0.5433070866141733,
          "duration": 0.09782608695651618
        },
        {
          "name": "F#5",
          "midi": 78,
          "time": 67.5760869565193,
          "velocity": 0.11811023622047244,
          "duration": 0.05434782608695343
        },
        {
          "name": "G#5",
          "midi": 80,
          "time": 67.5760869565193,
          "velocity": 0.3228346456692913,
          "duration": 0.0760869565217348
        },
        {
          "name": "A#5",
          "midi": 82,
          "time": 67.5760869565193,
          "velocity": 0.2283464566929134,
          "duration": 0.0760869565217348
        },
        {
          "name": "C6",
          "midi": 84,
          "time": 67.5869565217367,
          "velocity": 0.14173228346456693,
          "duration": 0.06521739130434412
        },
        {
          "name": "E5",
          "midi": 76,
          "time": 67.59782608695409,
          "velocity": 0.12598425196850394,
          "duration": 0.043478260869562746
        },
        {
          "name": "G#1",
          "midi": 32,
          "time": 67.67391304347582,
          "velocity": 0.3700787401574803,
          "duration": 0.021739130434781373
        },
        {
          "name": "G1",
          "midi": 31,
          "time": 67.71739130434538,
          "velocity": 0.5511811023622047,
          "duration": 0.11956521739129755
        },
        {
          "name": "D7",
          "midi": 98,
          "time": 67.71739130434538,
          "velocity": 0.16535433070866143,
          "duration": 0.043478260869562746
        },
        {
          "name": "F#7",
          "midi": 102,
          "time": 67.71739130434538,
          "velocity": 0.16535433070866143,
          "duration": 0.03260869565217206
        },
        {
          "name": "C4",
          "midi": 60,
          "time": 67.72826086956277,
          "velocity": 0.2992125984251969,
          "duration": 0.021739130434781373
        },
        {
          "name": "C6",
          "midi": 84,
          "time": 67.72826086956277,
          "velocity": 0.13385826771653545,
          "duration": 0.06521739130434412
        },
        {
          "name": "G#5",
          "midi": 80,
          "time": 67.73913043478017,
          "velocity": 0.2283464566929134,
          "duration": 0.06521739130434412
        },
        {
          "name": "A#5",
          "midi": 82,
          "time": 67.73913043478017,
          "velocity": 0.25196850393700787,
          "duration": 0.06521739130434412
        },
        {
          "name": "D#5",
          "midi": 75,
          "time": 67.74999999999756,
          "velocity": 0.2125984251968504,
          "duration": 0.043478260869562746
        },
        {
          "name": "F#5",
          "midi": 78,
          "time": 67.74999999999756,
          "velocity": 0.14173228346456693,
          "duration": 0.05434782608695343
        },
        {
          "name": "A#2",
          "midi": 46,
          "time": 67.80434782608451,
          "velocity": 0.23622047244094488,
          "duration": 0.021739130434781373
        },
        {
          "name": "A#3",
          "midi": 58,
          "time": 67.85869565217146,
          "velocity": 0.5590551181102362,
          "duration": 0.03260869565217206
        },
        {
          "name": "G4",
          "midi": 67,
          "time": 67.85869565217146,
          "velocity": 0.3228346456692913,
          "duration": 0.043478260869562746
        },
        {
          "name": "C#5",
          "midi": 73,
          "time": 67.85869565217146,
          "velocity": 0.2677165354330709,
          "duration": 0.021739130434781373
        },
        {
          "name": "G#6",
          "midi": 92,
          "time": 67.85869565217146,
          "velocity": 0.16535433070866143,
          "duration": 0.043478260869562746
        },
        {
          "name": "A#6",
          "midi": 94,
          "time": 67.85869565217146,
          "velocity": 0.1889763779527559,
          "duration": 0.05434782608695343
        },
        {
          "name": "D7",
          "midi": 98,
          "time": 67.85869565217146,
          "velocity": 0.13385826771653545,
          "duration": 0.043478260869562746
        },
        {
          "name": "E7",
          "midi": 100,
          "time": 67.85869565217146,
          "velocity": 0.18110236220472442,
          "duration": 0.03260869565217206
        },
        {
          "name": "F7",
          "midi": 101,
          "time": 67.85869565217146,
          "velocity": 0.1732283464566929,
          "duration": 0.03260869565217206
        },
        {
          "name": "E6",
          "midi": 88,
          "time": 67.86956521738885,
          "velocity": 0.1968503937007874,
          "duration": 0.03260869565217206
        },
        {
          "name": "F#7",
          "midi": 102,
          "time": 67.86956521738885,
          "velocity": 0.10236220472440945,
          "duration": 0.06521739130434412
        },
        {
          "name": "C5",
          "midi": 72,
          "time": 67.88043478260624,
          "velocity": 0.2283464566929134,
          "duration": 0.021739130434781373
        },
        {
          "name": "G1",
          "midi": 31,
          "time": 67.89130434782363,
          "velocity": 0.47244094488188976,
          "duration": 0.13043478260868824
        },
        {
          "name": "A3",
          "midi": 57,
          "time": 67.89130434782363,
          "velocity": 0.5984251968503937,
          "duration": 0.043478260869562746
        },
        {
          "name": "D#6",
          "midi": 87,
          "time": 67.9239130434758,
          "velocity": 0.11023622047244094,
          "duration": 0.043478260869562746
        },
        {
          "name": "C7",
          "midi": 96,
          "time": 67.9239130434758,
          "velocity": 0.11023622047244094,
          "duration": 0.05434782608695343
        },
        {
          "name": "G#3",
          "midi": 56,
          "time": 67.9347826086932,
          "velocity": 0.41732283464566927,
          "duration": 0.03260869565217206
        },
        {
          "name": "D6",
          "midi": 86,
          "time": 67.94565217391059,
          "velocity": 0.1889763779527559,
          "duration": 0.06521739130434412
        },
        {
          "name": "C#6",
          "midi": 85,
          "time": 67.96739130434537,
          "velocity": 0.25984251968503935,
          "duration": 0.08695652173912549
        },
        {
          "name": "C6",
          "midi": 84,
          "time": 68.01086956521493,
          "velocity": 0.13385826771653545,
          "duration": 0.043478260869562746
        },
        {
          "name": "F7",
          "midi": 101,
          "time": 68.01086956521493,
          "velocity": 0.14960629921259844,
          "duration": 0.08695652173912549
        },
        {
          "name": "G#1",
          "midi": 32,
          "time": 68.02173913043232,
          "velocity": 0.5039370078740157,
          "duration": 0.021739130434781373
        },
        {
          "name": "D6",
          "midi": 86,
          "time": 68.02173913043232,
          "velocity": 0.25196850393700787,
          "duration": 0.08695652173912549
        },
        {
          "name": "G1",
          "midi": 31,
          "time": 68.0434782608671,
          "velocity": 0.5196850393700787,
          "duration": 0.10869565217390686
        },
        {
          "name": "G6",
          "midi": 91,
          "time": 68.0543478260845,
          "velocity": 0.16535433070866143,
          "duration": 0.043478260869562746
        },
        {
          "name": "E7",
          "midi": 100,
          "time": 68.06521739130189,
          "velocity": 0.1968503937007874,
          "duration": 0.0760869565217348
        },
        {
          "name": "A6",
          "midi": 93,
          "time": 68.08695652173667,
          "velocity": 0.15748031496062992,
          "duration": 0.03260869565217206
        },
        {
          "name": "B4",
          "midi": 71,
          "time": 68.09782608695406,
          "velocity": 0.25196850393700787,
          "duration": 0.043478260869562746
        },
        {
          "name": "D#7",
          "midi": 99,
          "time": 68.09782608695406,
          "velocity": 0.07874015748031496,
          "duration": 0.03260869565217206
        },
        {
          "name": "B3",
          "midi": 59,
          "time": 68.10869565217145,
          "velocity": 0.29133858267716534,
          "duration": 0.021739130434781373
        },
        {
          "name": "A#3",
          "midi": 58,
          "time": 68.13043478260623,
          "velocity": 0.3543307086614173,
          "duration": 0.03260869565217206
        },
        {
          "name": "B1",
          "midi": 35,
          "time": 68.1630434782584,
          "velocity": 0.3543307086614173,
          "duration": 0.021739130434781373
        },
        {
          "name": "G1",
          "midi": 31,
          "time": 68.23913043478014,
          "velocity": 0.4330708661417323,
          "duration": 0.021739130434781373
        },
        {
          "name": "F1",
          "midi": 29,
          "time": 68.26086956521492,
          "velocity": 0.3464566929133858,
          "duration": 0.021739130434781373
        },
        {
          "name": "E7",
          "midi": 100,
          "time": 68.26086956521492,
          "velocity": 0.08661417322834646,
          "duration": 0.03260869565217206
        },
        {
          "name": "D4",
          "midi": 62,
          "time": 68.2826086956497,
          "velocity": 0.1732283464566929,
          "duration": 0.03260869565217206
        },
        {
          "name": "A4",
          "midi": 69,
          "time": 68.33695652173665,
          "velocity": 0.11811023622047244,
          "duration": 0.043478260869562746
        },
        {
          "name": "G6",
          "midi": 91,
          "time": 68.34782608695404,
          "velocity": 0.12598425196850394,
          "duration": 0.03260869565217206
        },
        {
          "name": "F#1",
          "midi": 30,
          "time": 68.35869565217143,
          "velocity": 0.5118110236220472,
          "duration": 0.010869565217390686
        },
        {
          "name": "C6",
          "midi": 84,
          "time": 68.35869565217143,
          "velocity": 0.13385826771653545,
          "duration": 0.043478260869562746
        },
        {
          "name": "G#6",
          "midi": 92,
          "time": 68.35869565217143,
          "velocity": 0.11023622047244094,
          "duration": 0.043478260869562746
        },
        {
          "name": "G1",
          "midi": 31,
          "time": 68.36956521738882,
          "velocity": 0.5196850393700787,
          "duration": 0.09782608695651618
        },
        {
          "name": "G#5",
          "midi": 80,
          "time": 68.36956521738882,
          "velocity": 0.10236220472440945,
          "duration": 0.043478260869562746
        },
        {
          "name": "D#6",
          "midi": 87,
          "time": 68.36956521738882,
          "velocity": 0.1968503937007874,
          "duration": 0.08695652173912549
        },
        {
          "name": "E6",
          "midi": 88,
          "time": 68.38043478260622,
          "velocity": 0.12598425196850394,
          "duration": 0.043478260869562746
        },
        {
          "name": "E4",
          "midi": 64,
          "time": 68.44565217391056,
          "velocity": 0.2047244094488189,
          "duration": 0.03260869565217206
        },
        {
          "name": "F#5",
          "midi": 78,
          "time": 68.46739130434534,
          "velocity": 0.14173228346456693,
          "duration": 0.043478260869562746
        },
        {
          "name": "F#4",
          "midi": 66,
          "time": 68.47826086956273,
          "velocity": 0.23622047244094488,
          "duration": 0.021739130434781373
        },
        {
          "name": "B4",
          "midi": 71,
          "time": 68.47826086956273,
          "velocity": 0.14960629921259844,
          "duration": 0.0760869565217348
        },
        {
          "name": "B2",
          "midi": 47,
          "time": 68.48913043478012,
          "velocity": 0.5433070866141733,
          "duration": 0.010869565217390686
        },
        {
          "name": "G#2",
          "midi": 44,
          "time": 68.49999999999751,
          "velocity": 0.5118110236220472,
          "duration": 0.010869565217390686
        },
        {
          "name": "C2",
          "midi": 36,
          "time": 68.5108695652149,
          "velocity": 0.5590551181102362,
          "duration": 0.010869565217390686
        },
        {
          "name": "B5",
          "midi": 83,
          "time": 68.5108695652149,
          "velocity": 0.14960629921259844,
          "duration": 0.0760869565217348
        },
        {
          "name": "A1",
          "midi": 33,
          "time": 68.5217391304323,
          "velocity": 0.5433070866141733,
          "duration": 0.010869565217390686
        },
        {
          "name": "A5",
          "midi": 81,
          "time": 68.5217391304323,
          "velocity": 0.15748031496062992,
          "duration": 0.043478260869562746
        },
        {
          "name": "G#1",
          "midi": 32,
          "time": 68.53260869564969,
          "velocity": 0.5118110236220472,
          "duration": 0.010869565217390686
        },
        {
          "name": "G4",
          "midi": 67,
          "time": 68.53260869564969,
          "velocity": 0.2047244094488189,
          "duration": 0.06521739130434412
        },
        {
          "name": "G5",
          "midi": 79,
          "time": 68.53260869564969,
          "velocity": 0.2204724409448819,
          "duration": 0.08695652173912549
        },
        {
          "name": "F#1",
          "midi": 30,
          "time": 68.55434782608447,
          "velocity": 0.5118110236220472,
          "duration": 0.08695652173912549
        },
        {
          "name": "D3",
          "midi": 50,
          "time": 68.56521739130186,
          "velocity": 0.30708661417322836,
          "duration": 0.1630434782608603
        },
        {
          "name": "B4",
          "midi": 71,
          "time": 68.57608695651925,
          "velocity": 0.25196850393700787,
          "duration": 0.20652173913042304
        },
        {
          "name": "F5",
          "midi": 77,
          "time": 68.57608695651925,
          "velocity": 0.14960629921259844,
          "duration": 0.05434782608695343
        },
        {
          "name": "G4",
          "midi": 67,
          "time": 68.61956521738881,
          "velocity": 0.2677165354330709,
          "duration": 0.18478260869564167
        },
        {
          "name": "D5",
          "midi": 74,
          "time": 68.61956521738881,
          "velocity": 0.07086614173228346,
          "duration": 0.03260869565217206
        },
        {
          "name": "G1",
          "midi": 31,
          "time": 68.64130434782359,
          "velocity": 0.49606299212598426,
          "duration": 0.14130434782607892
        },
        {
          "name": "B6",
          "midi": 95,
          "time": 68.64130434782359,
          "velocity": 0.2677165354330709,
          "duration": 0.1521739130434696
        },
        {
          "name": "G#6",
          "midi": 92,
          "time": 68.65217391304098,
          "velocity": 0.07086614173228346,
          "duration": 0.05434782608695343
        },
        {
          "name": "G6",
          "midi": 91,
          "time": 68.67391304347576,
          "velocity": 0.2204724409448819,
          "duration": 0.13043478260868824
        },
        {
          "name": "F5",
          "midi": 77,
          "time": 68.69565217391055,
          "velocity": 0.11811023622047244,
          "duration": 0.08695652173912549
        },
        {
          "name": "A#5",
          "midi": 82,
          "time": 68.72826086956272,
          "velocity": 0.09448818897637795,
          "duration": 0.043478260869562746
        },
        {
          "name": "F1",
          "midi": 29,
          "time": 68.78260869564967,
          "velocity": 0.5433070866141733,
          "duration": 0.021739130434781373
        },
        {
          "name": "G5",
          "midi": 79,
          "time": 68.79347826086706,
          "velocity": 0.2755905511811024,
          "duration": 0.09782608695651618
        },
        {
          "name": "G1",
          "midi": 31,
          "time": 68.80434782608445,
          "velocity": 0.5433070866141733,
          "duration": 0.11956521739129755
        },
        {
          "name": "G#5",
          "midi": 80,
          "time": 68.82608695651923,
          "velocity": 0.10236220472440945,
          "duration": 0.03260869565217206
        },
        {
          "name": "B5",
          "midi": 83,
          "time": 68.82608695651923,
          "velocity": 0.12598425196850394,
          "duration": 0.08695652173912549
        },
        {
          "name": "G4",
          "midi": 67,
          "time": 68.83695652173662,
          "velocity": 0.18110236220472442,
          "duration": 0.13043478260868824
        },
        {
          "name": "A5",
          "midi": 81,
          "time": 68.84782608695402,
          "velocity": 0.14173228346456693,
          "duration": 0.043478260869562746
        },
        {
          "name": "B6",
          "midi": 95,
          "time": 68.84782608695402,
          "velocity": 0.14960629921259844,
          "duration": 0.03260869565217206
        },
        {
          "name": "D6",
          "midi": 86,
          "time": 68.8586956521714,
          "velocity": 0.15748031496062992,
          "duration": 0.08695652173912549
        },
        {
          "name": "B4",
          "midi": 71,
          "time": 68.8695652173888,
          "velocity": 0.1889763779527559,
          "duration": 0.08695652173912549
        },
        {
          "name": "D5",
          "midi": 74,
          "time": 68.88043478260619,
          "velocity": 0.18110236220472442,
          "duration": 0.03260869565217206
        },
        {
          "name": "D3",
          "midi": 50,
          "time": 68.91304347825836,
          "velocity": 0.33070866141732286,
          "duration": 0.021739130434781373
        },
        {
          "name": "G#1",
          "midi": 32,
          "time": 68.92391304347575,
          "velocity": 0.5118110236220472,
          "duration": 0.010869565217390686
        },
        {
          "name": "B1",
          "midi": 35,
          "time": 68.93478260869314,
          "velocity": 0.5354330708661418,
          "duration": 0.010869565217390686
        },
        {
          "name": "A1",
          "midi": 33,
          "time": 68.94565217391053,
          "velocity": 0.5433070866141733,
          "duration": 0.010869565217390686
        },
        {
          "name": "C5",
          "midi": 72,
          "time": 68.94565217391053,
          "velocity": 0.1732283464566929,
          "duration": 0.09782608695651618
        },
        {
          "name": "G#1",
          "midi": 32,
          "time": 68.95652173912792,
          "velocity": 0.5196850393700787,
          "duration": 0.13043478260868824
        },
        {
          "name": "D#3",
          "midi": 51,
          "time": 68.95652173912792,
          "velocity": 0.23622047244094488,
          "duration": 0.021739130434781373
        },
        {
          "name": "D#4",
          "midi": 63,
          "time": 68.95652173912792,
          "velocity": 0.2677165354330709,
          "duration": 0.03260869565217206
        },
        {
          "name": "G#5",
          "midi": 80,
          "time": 68.9782608695627,
          "velocity": 0.2047244094488189,
          "duration": 0.08695652173912549
        },
        {
          "name": "D#5",
          "midi": 75,
          "time": 68.99999999999748,
          "velocity": 0.15748031496062992,
          "duration": 0.03260869565217206
        },
        {
          "name": "E6",
          "midi": 88,
          "time": 68.99999999999748,
          "velocity": 0.10236220472440945,
          "duration": 0.043478260869562746
        },
        {
          "name": "A#6",
          "midi": 94,
          "time": 68.99999999999748,
          "velocity": 0.07086614173228346,
          "duration": 0.03260869565217206
        },
        {
          "name": "C7",
          "midi": 96,
          "time": 68.99999999999748,
          "velocity": 0.16535433070866143,
          "duration": 0.09782608695651618
        },
        {
          "name": "D#4",
          "midi": 63,
          "time": 69.01086956521488,
          "velocity": 0.25196850393700787,
          "duration": 0.11956521739129755
        },
        {
          "name": "B6",
          "midi": 95,
          "time": 69.01086956521488,
          "velocity": 0.10236220472440945,
          "duration": 0.043478260869562746
        },
        {
          "name": "D#6",
          "midi": 87,
          "time": 69.02173913043227,
          "velocity": 0.1968503937007874,
          "duration": 0.0760869565217348
        },
        {
          "name": "A#5",
          "midi": 82,
          "time": 69.03260869564966,
          "velocity": 0.08661417322834646,
          "duration": 0.03260869565217206
        },
        {
          "name": "D#3",
          "midi": 51,
          "time": 69.04347826086705,
          "velocity": 0.29133858267716534,
          "duration": 0.05434782608695343
        },
        {
          "name": "C5",
          "midi": 72,
          "time": 69.05434782608444,
          "velocity": 0.2283464566929134,
          "duration": 0.05434782608695343
        },
        {
          "name": "G5",
          "midi": 79,
          "time": 69.05434782608444,
          "velocity": 0.08661417322834646,
          "duration": 0.03260869565217206
        },
        {
          "name": "G#4",
          "midi": 68,
          "time": 69.06521739130183,
          "velocity": 0.2047244094488189,
          "duration": 0.03260869565217206
        },
        {
          "name": "G#6",
          "midi": 92,
          "time": 69.06521739130183,
          "velocity": 0.11023622047244094,
          "duration": 0.06521739130434412
        },
        {
          "name": "B6",
          "midi": 95,
          "time": 69.07608695651922,
          "velocity": 0.12598425196850394,
          "duration": 0.03260869565217206
        },
        {
          "name": "F#7",
          "midi": 102,
          "time": 69.07608695651922,
          "velocity": 0.11811023622047244,
          "duration": 0.03260869565217206
        },
        {
          "name": "F5",
          "midi": 77,
          "time": 69.08695652173661,
          "velocity": 0.1968503937007874,
          "duration": 0.043478260869562746
        },
        {
          "name": "A#3",
          "midi": 58,
          "time": 69.097826086954,
          "velocity": 0.5433070866141733,
          "duration": 0.010869565217390686
        },
        {
          "name": "F#4",
          "midi": 66,
          "time": 69.097826086954,
          "velocity": 0.2440944881889764,
          "duration": 0.021739130434781373
        },
        {
          "name": "G5",
          "midi": 79,
          "time": 69.097826086954,
          "velocity": 0.2283464566929134,
          "duration": 0.09782608695651618
        },
        {
          "name": "A3",
          "midi": 57,
          "time": 69.10869565217139,
          "velocity": 0.5905511811023622,
          "duration": 0.043478260869562746
        },
        {
          "name": "G1",
          "midi": 31,
          "time": 69.11956521738878,
          "velocity": 0.2677165354330709,
          "duration": 0.021739130434781373
        },
        {
          "name": "B4",
          "midi": 71,
          "time": 69.13043478260617,
          "velocity": 0.2755905511811024,
          "duration": 0.1521739130434696
        },
        {
          "name": "G4",
          "midi": 67,
          "time": 69.14130434782356,
          "velocity": 0.23622047244094488,
          "duration": 0.2499999999999858
        },
        {
          "name": "G1",
          "midi": 31,
          "time": 69.15217391304095,
          "velocity": 0.49606299212598426,
          "duration": 0.21739130434781373
        },
        {
          "name": "G#3",
          "midi": 56,
          "time": 69.15217391304095,
          "velocity": 0.4566929133858268,
          "duration": 0.05434782608695343
        },
        {
          "name": "G#6",
          "midi": 92,
          "time": 69.15217391304095,
          "velocity": 0.11023622047244094,
          "duration": 0.043478260869562746
        },
        {
          "name": "D6",
          "midi": 86,
          "time": 69.16304347825834,
          "velocity": 0.16535433070866143,
          "duration": 0.1521739130434696
        },
        {
          "name": "D5",
          "midi": 74,
          "time": 69.17391304347574,
          "velocity": 0.2677165354330709,
          "duration": 0.0760869565217348
        },
        {
          "name": "A5",
          "midi": 81,
          "time": 69.17391304347574,
          "velocity": 0.10236220472440945,
          "duration": 0.03260869565217206
        },
        {
          "name": "F5",
          "midi": 77,
          "time": 69.18478260869313,
          "velocity": 0.15748031496062992,
          "duration": 0.05434782608695343
        },
        {
          "name": "F#6",
          "midi": 90,
          "time": 69.18478260869313,
          "velocity": 0.14960629921259844,
          "duration": 0.03260869565217206
        },
        {
          "name": "A5",
          "midi": 81,
          "time": 69.23913043478008,
          "velocity": 0.07874015748031496,
          "duration": 0.043478260869562746
        },
        {
          "name": "D4",
          "midi": 62,
          "time": 69.24999999999747,
          "velocity": 0.25984251968503935,
          "duration": 0.13043478260868824
        },
        {
          "name": "G6",
          "midi": 91,
          "time": 69.26086956521486,
          "velocity": 0.13385826771653545,
          "duration": 0.11956521739129755
        },
        {
          "name": "F7",
          "midi": 101,
          "time": 69.28260869564964,
          "velocity": 0.15748031496062992,
          "duration": 0.05434782608695343
        },
        {
          "name": "B4",
          "midi": 71,
          "time": 69.29347826086703,
          "velocity": 0.2047244094488189,
          "duration": 0.08695652173912549
        },
        {
          "name": "B6",
          "midi": 95,
          "time": 69.31521739130181,
          "velocity": 0.14173228346456693,
          "duration": 0.08695652173912549
        },
        {
          "name": "D7",
          "midi": 98,
          "time": 69.31521739130181,
          "velocity": 0.09448818897637795,
          "duration": 0.06521739130434412
        },
        {
          "name": "C#2",
          "midi": 37,
          "time": 69.39130434782355,
          "velocity": 0.48031496062992124,
          "duration": 0.021739130434781373
        },
        {
          "name": "G1",
          "midi": 31,
          "time": 69.41304347825833,
          "velocity": 0.5275590551181102,
          "duration": 0.27173913043476716
        },
        {
          "name": "D4",
          "midi": 62,
          "time": 69.42391304347572,
          "velocity": 0.16535433070866143,
          "duration": 0.03260869565217206
        },
        {
          "name": "A5",
          "midi": 81,
          "time": 69.42391304347572,
          "velocity": 0.1968503937007874,
          "duration": 0.0760869565217348
        },
        {
          "name": "D6",
          "midi": 86,
          "time": 69.42391304347572,
          "velocity": 0.13385826771653545,
          "duration": 0.03260869565217206
        },
        {
          "name": "F6",
          "midi": 89,
          "time": 69.42391304347572,
          "velocity": 0.07086614173228346,
          "duration": 0.043478260869562746
        },
        {
          "name": "G4",
          "midi": 67,
          "time": 69.43478260869311,
          "velocity": 0.2283464566929134,
          "duration": 0.03260869565217206
        },
        {
          "name": "G5",
          "midi": 79,
          "time": 69.4456521739105,
          "velocity": 0.2677165354330709,
          "duration": 0.043478260869562746
        },
        {
          "name": "B5",
          "midi": 83,
          "time": 69.4456521739105,
          "velocity": 0.11023622047244094,
          "duration": 0.03260869565217206
        },
        {
          "name": "E6",
          "midi": 88,
          "time": 69.46739130434528,
          "velocity": 0.10236220472440945,
          "duration": 0.043478260869562746
        },
        {
          "name": "G4",
          "midi": 67,
          "time": 69.47826086956267,
          "velocity": 0.2283464566929134,
          "duration": 0.0760869565217348
        },
        {
          "name": "B4",
          "midi": 71,
          "time": 69.47826086956267,
          "velocity": 0.16535433070866143,
          "duration": 0.03260869565217206
        },
        {
          "name": "D6",
          "midi": 86,
          "time": 69.47826086956267,
          "velocity": 0.2204724409448819,
          "duration": 0.22826086956520442
        },
        {
          "name": "B6",
          "midi": 95,
          "time": 69.47826086956267,
          "velocity": 0.2440944881889764,
          "duration": 0.1630434782608603
        },
        {
          "name": "D5",
          "midi": 74,
          "time": 69.48913043478007,
          "velocity": 0.1889763779527559,
          "duration": 0.06521739130434412
        },
        {
          "name": "B4",
          "midi": 71,
          "time": 69.52173913043224,
          "velocity": 0.2440944881889764,
          "duration": 0.06521739130434412
        },
        {
          "name": "D4",
          "midi": 62,
          "time": 69.53260869564963,
          "velocity": 0.2755905511811024,
          "duration": 0.1630434782608603
        },
        {
          "name": "G4",
          "midi": 67,
          "time": 69.57608695651919,
          "velocity": 0.2440944881889764,
          "duration": 0.10869565217390686
        },
        {
          "name": "B4",
          "midi": 71,
          "time": 69.60869565217136,
          "velocity": 0.15748031496062992,
          "duration": 0.0760869565217348
        },
        {
          "name": "F7",
          "midi": 101,
          "time": 69.65217391304093,
          "velocity": 0.2047244094488189,
          "duration": 0.05434782608695343
        },
        {
          "name": "F#1",
          "midi": 30,
          "time": 69.6847826086931,
          "velocity": 0.48031496062992124,
          "duration": 0.021739130434781373
        },
        {
          "name": "B5",
          "midi": 83,
          "time": 69.6847826086931,
          "velocity": 0.11023622047244094,
          "duration": 0.03260869565217206
        },
        {
          "name": "A5",
          "midi": 81,
          "time": 69.69565217391049,
          "velocity": 0.11811023622047244,
          "duration": 0.10869565217390686
        },
        {
          "name": "D4",
          "midi": 62,
          "time": 69.73913043478005,
          "velocity": 0.16535433070866143,
          "duration": 0.03260869565217206
        },
        {
          "name": "G4",
          "midi": 67,
          "time": 69.73913043478005,
          "velocity": 0.23622047244094488,
          "duration": 0.1521739130434696
        },
        {
          "name": "F5",
          "midi": 77,
          "time": 69.73913043478005,
          "velocity": 0.18110236220472442,
          "duration": 0.03260869565217206
        },
        {
          "name": "G5",
          "midi": 79,
          "time": 69.74999999999744,
          "velocity": 0.25984251968503935,
          "duration": 0.05434782608695343
        },
        {
          "name": "B5",
          "midi": 83,
          "time": 69.74999999999744,
          "velocity": 0.14960629921259844,
          "duration": 0.08695652173912549
        },
        {
          "name": "G1",
          "midi": 31,
          "time": 69.77173913043222,
          "velocity": 0.41732283464566927,
          "duration": 0.021739130434781373
        },
        {
          "name": "G#2",
          "midi": 44,
          "time": 69.78260869564961,
          "velocity": 0.25984251968503935,
          "duration": 0.021739130434781373
        },
        {
          "name": "B4",
          "midi": 71,
          "time": 69.78260869564961,
          "velocity": 0.1889763779527559,
          "duration": 0.03260869565217206
        },
        {
          "name": "D5",
          "midi": 74,
          "time": 69.793478260867,
          "velocity": 0.2125984251968504,
          "duration": 0.0760869565217348
        },
        {
          "name": "F#6",
          "midi": 90,
          "time": 69.793478260867,
          "velocity": 0.09448818897637795,
          "duration": 0.05434782608695343
        },
        {
          "name": "D#1",
          "midi": 27,
          "time": 69.8043478260844,
          "velocity": 0.30708661417322836,
          "duration": 0.021739130434781373
        },
        {
          "name": "E5",
          "midi": 76,
          "time": 69.81521739130179,
          "velocity": 0.10236220472440945,
          "duration": 0.03260869565217206
        },
        {
          "name": "E1",
          "midi": 28,
          "time": 69.82608695651918,
          "velocity": 0.3228346456692913,
          "duration": 0.021739130434781373
        },
        {
          "name": "D4",
          "midi": 62,
          "time": 69.82608695651918,
          "velocity": 0.13385826771653545,
          "duration": 0.03260869565217206
        },
        {
          "name": "B4",
          "midi": 71,
          "time": 69.83695652173657,
          "velocity": 0.1732283464566929,
          "duration": 0.03260869565217206
        },
        {
          "name": "C5",
          "midi": 72,
          "time": 69.86956521738874,
          "velocity": 0.2125984251968504,
          "duration": 0.05434782608695343
        },
        {
          "name": "G#1",
          "midi": 32,
          "time": 69.88043478260613,
          "velocity": 0.5118110236220472,
          "duration": 0.11956521739129755
        },
        {
          "name": "D#3",
          "midi": 51,
          "time": 69.88043478260613,
          "velocity": 0.2047244094488189,
          "duration": 0.03260869565217206
        },
        {
          "name": "D#4",
          "midi": 63,
          "time": 69.88043478260613,
          "velocity": 0.2440944881889764,
          "duration": 0.05434782608695343
        },
        {
          "name": "G#4",
          "midi": 68,
          "time": 69.89130434782352,
          "velocity": 0.14173228346456693,
          "duration": 0.09782608695651618
        },
        {
          "name": "D#6",
          "midi": 87,
          "time": 69.89130434782352,
          "velocity": 0.2283464566929134,
          "duration": 0.11956521739129755
        },
        {
          "name": "A#5",
          "midi": 82,
          "time": 69.9130434782583,
          "velocity": 0.16535433070866143,
          "duration": 0.09782608695651618
        },
        {
          "name": "C7",
          "midi": 96,
          "time": 69.9130434782583,
          "velocity": 0.18110236220472442,
          "duration": 0.11956521739129755
        },
        {
          "name": "F5",
          "midi": 77,
          "time": 69.93478260869308,
          "velocity": 0.08661417322834646,
          "duration": 0.043478260869562746
        },
        {
          "name": "F6",
          "midi": 89,
          "time": 69.93478260869308,
          "velocity": 0.09448818897637795,
          "duration": 0.03260869565217206
        },
        {
          "name": "G#6",
          "midi": 92,
          "time": 69.93478260869308,
          "velocity": 0.13385826771653545,
          "duration": 0.03260869565217206
        },
        {
          "name": "C6",
          "midi": 84,
          "time": 69.94565217391047,
          "velocity": 0.15748031496062992,
          "duration": 0.08695652173912549
        },
        {
          "name": "D#4",
          "midi": 63,
          "time": 69.95652173912787,
          "velocity": 0.1732283464566929,
          "duration": 0.03260869565217206
        },
        {
          "name": "C5",
          "midi": 72,
          "time": 69.96739130434526,
          "velocity": 0.2125984251968504,
          "duration": 0.05434782608695343
        },
        {
          "name": "E3",
          "midi": 52,
          "time": 69.97826086956265,
          "velocity": 0.2283464566929134,
          "duration": 0.03260869565217206
        },
        {
          "name": "G#5",
          "midi": 80,
          "time": 69.98913043478004,
          "velocity": 0.18110236220472442,
          "duration": 0.05434782608695343
        },
        {
          "name": "G#4",
          "midi": 68,
          "time": 69.99999999999743,
          "velocity": 0.14173228346456693,
          "duration": 0.043478260869562746
        },
        {
          "name": "D#4",
          "midi": 63,
          "time": 70.01086956521482,
          "velocity": 0.2283464566929134,
          "duration": 0.05434782608695343
        },
        {
          "name": "G#1",
          "midi": 32,
          "time": 70.0326086956496,
          "velocity": 0.5196850393700787,
          "duration": 0.010869565217390686
        },
        {
          "name": "B4",
          "midi": 71,
          "time": 70.0326086956496,
          "velocity": 0.14173228346456693,
          "duration": 0.05434782608695343
        },
        {
          "name": "G1",
          "midi": 31,
          "time": 70.04347826086699,
          "velocity": 0.5196850393700787,
          "duration": 0.2608695652173765
        },
        {
          "name": "F5",
          "midi": 77,
          "time": 70.04347826086699,
          "velocity": 0.11023622047244094,
          "duration": 0.043478260869562746
        },
        {
          "name": "G4",
          "midi": 67,
          "time": 70.05434782608438,
          "velocity": 0.2992125984251969,
          "duration": 0.2608695652173765
        },
        {
          "name": "B6",
          "midi": 95,
          "time": 70.05434782608438,
          "velocity": 0.2125984251968504,
          "duration": 0.11956521739129755
        },
        {
          "name": "A6",
          "midi": 93,
          "time": 70.06521739130177,
          "velocity": 0.08661417322834646,
          "duration": 0.03260869565217206
        },
        {
          "name": "F7",
          "midi": 101,
          "time": 70.06521739130177,
          "velocity": 0.07086614173228346,
          "duration": 0.06521739130434412
        },
        {
          "name": "B4",
          "midi": 71,
          "time": 70.09782608695394,
          "velocity": 0.2283464566929134,
          "duration": 0.20652173913042304
        },
        {
          "name": "F5",
          "midi": 77,
          "time": 70.10869565217133,
          "velocity": 0.15748031496062992,
          "duration": 0.03260869565217206
        },
        {
          "name": "D6",
          "midi": 86,
          "time": 70.13043478260612,
          "velocity": 0.25196850393700787,
          "duration": 0.18478260869564167
        },
        {
          "name": "D4",
          "midi": 62,
          "time": 70.16304347825829,
          "velocity": 0.25984251968503935,
          "duration": 0.14130434782607892
        },
        {
          "name": "A5",
          "midi": 81,
          "time": 70.20652173912785,
          "velocity": 0.07874015748031496,
          "duration": 0.03260869565217206
        },
        {
          "name": "F7",
          "midi": 101,
          "time": 70.20652173912785,
          "velocity": 0.14960629921259844,
          "duration": 0.08695652173912549
        },
        {
          "name": "F5",
          "midi": 77,
          "time": 70.22826086956263,
          "velocity": 0.13385826771653545,
          "duration": 0.0760869565217348
        },
        {
          "name": "B6",
          "midi": 95,
          "time": 70.22826086956263,
          "velocity": 0.18110236220472442,
          "duration": 0.09782608695651618
        },
        {
          "name": "B5",
          "midi": 83,
          "time": 70.30434782608437,
          "velocity": 0.14960629921259844,
          "duration": 0.03260869565217206
        },
        {
          "name": "E6",
          "midi": 88,
          "time": 70.30434782608437,
          "velocity": 0.2047244094488189,
          "duration": 0.03260869565217206
        },
        {
          "name": "A6",
          "midi": 93,
          "time": 70.30434782608437,
          "velocity": 0.2125984251968504,
          "duration": 0.03260869565217206
        },
        {
          "name": "A#6",
          "midi": 94,
          "time": 70.30434782608437,
          "velocity": 0.2125984251968504,
          "duration": 0.03260869565217206
        },
        {
          "name": "D#7",
          "midi": 99,
          "time": 70.30434782608437,
          "velocity": 0.09448818897637795,
          "duration": 0.03260869565217206
        },
        {
          "name": "F7",
          "midi": 101,
          "time": 70.30434782608437,
          "velocity": 0.14173228346456693,
          "duration": 0.043478260869562746
        },
        {
          "name": "A#2",
          "midi": 46,
          "time": 70.31521739130176,
          "velocity": 0.2283464566929134,
          "duration": 0.021739130434781373
        },
        {
          "name": "F#7",
          "midi": 102,
          "time": 70.31521739130176,
          "velocity": 0.07874015748031496,
          "duration": 0.03260869565217206
        },
        {
          "name": "A#3",
          "midi": 58,
          "time": 70.32608695651915,
          "velocity": 0.5669291338582677,
          "duration": 0.010869565217390686
        },
        {
          "name": "C5",
          "midi": 72,
          "time": 70.32608695651915,
          "velocity": 0.2755905511811024,
          "duration": 0.021739130434781373
        },
        {
          "name": "D#5",
          "midi": 75,
          "time": 70.32608695651915,
          "velocity": 0.09448818897637795,
          "duration": 0.03260869565217206
        },
        {
          "name": "G1",
          "midi": 31,
          "time": 70.33695652173654,
          "velocity": 0.49606299212598426,
          "duration": 0.2608695652173765
        },
        {
          "name": "A3",
          "midi": 57,
          "time": 70.33695652173654,
          "velocity": 0.5905511811023622,
          "duration": 0.043478260869562746
        },
        {
          "name": "B4",
          "midi": 71,
          "time": 70.33695652173654,
          "velocity": 0.2125984251968504,
          "duration": 0.09782608695651618
        },
        {
          "name": "D6",
          "midi": 86,
          "time": 70.34782608695393,
          "velocity": 0.14173228346456693,
          "duration": 0.0760869565217348
        },
        {
          "name": "D5",
          "midi": 74,
          "time": 70.35869565217132,
          "velocity": 0.07086614173228346,
          "duration": 0.043478260869562746
        },
        {
          "name": "F5",
          "midi": 77,
          "time": 70.35869565217132,
          "velocity": 0.10236220472440945,
          "duration": 0.03260869565217206
        },
        {
          "name": "A5",
          "midi": 81,
          "time": 70.35869565217132,
          "velocity": 0.13385826771653545,
          "duration": 0.05434782608695343
        },
        {
          "name": "G5",
          "midi": 79,
          "time": 70.36956521738871,
          "velocity": 0.2677165354330709,
          "duration": 0.043478260869562746
        },
        {
          "name": "E6",
          "midi": 88,
          "time": 70.36956521738871,
          "velocity": 0.08661417322834646,
          "duration": 0.03260869565217206
        },
        {
          "name": "D#7",
          "midi": 99,
          "time": 70.36956521738871,
          "velocity": 0.11023622047244094,
          "duration": 0.03260869565217206
        },
        {
          "name": "G#3",
          "midi": 56,
          "time": 70.3804347826061,
          "velocity": 0.41732283464566927,
          "duration": 0.03260869565217206
        },
        {
          "name": "G4",
          "midi": 67,
          "time": 70.39130434782349,
          "velocity": 0.23622047244094488,
          "duration": 0.2499999999999858
        },
        {
          "name": "F#6",
          "midi": 90,
          "time": 70.40217391304088,
          "velocity": 0.08661417322834646,
          "duration": 0.043478260869562746
        },
        {
          "name": "B6",
          "midi": 95,
          "time": 70.40217391304088,
          "velocity": 0.07874015748031496,
          "duration": 0.03260869565217206
        },
        {
          "name": "D5",
          "midi": 74,
          "time": 70.41304347825827,
          "velocity": 0.2047244094488189,
          "duration": 0.043478260869562746
        },
        {
          "name": "G6",
          "midi": 91,
          "time": 70.41304347825827,
          "velocity": 0.33858267716535434,
          "duration": 0.20652173913042304
        },
        {
          "name": "E5",
          "midi": 76,
          "time": 70.42391304347566,
          "velocity": 0.11811023622047244,
          "duration": 0.03260869565217206
        },
        {
          "name": "B4",
          "midi": 71,
          "time": 70.44565217391045,
          "velocity": 0.2125984251968504,
          "duration": 0.06521739130434412
        },
        {
          "name": "D4",
          "midi": 62,
          "time": 70.45652173912784,
          "velocity": 0.29133858267716534,
          "duration": 0.17391304347825098
        },
        {
          "name": "B6",
          "midi": 95,
          "time": 70.46739130434523,
          "velocity": 0.2125984251968504,
          "duration": 0.13043478260868824
        },
        {
          "name": "D7",
          "midi": 98,
          "time": 70.51086956521479,
          "velocity": 0.08661417322834646,
          "duration": 0.0760869565217348
        },
        {
          "name": "B4",
          "midi": 71,
          "time": 70.53260869564957,
          "velocity": 0.11023622047244094,
          "duration": 0.08695652173912549
        },
        {
          "name": "F7",
          "midi": 101,
          "time": 70.54347826086696,
          "velocity": 0.11811023622047244,
          "duration": 0.05434782608695343
        },
        {
          "name": "C#2",
          "midi": 37,
          "time": 70.6195652173887,
          "velocity": 0.5118110236220472,
          "duration": 0.010869565217390686
        },
        {
          "name": "F#6",
          "midi": 90,
          "time": 70.6195652173887,
          "velocity": 0.2125984251968504,
          "duration": 0.10869565217390686
        },
        {
          "name": "G1",
          "midi": 31,
          "time": 70.63043478260609,
          "velocity": 0.5511811023622047,
          "duration": 0.010869565217390686
        },
        {
          "name": "F#1",
          "midi": 30,
          "time": 70.64130434782348,
          "velocity": 0.5354330708661418,
          "duration": 0.27173913043476716
        },
        {
          "name": "C#4",
          "midi": 61,
          "time": 70.65217391304087,
          "velocity": 0.11811023622047244,
          "duration": 0.03260869565217206
        },
        {
          "name": "F#4",
          "midi": 66,
          "time": 70.66304347825826,
          "velocity": 0.25196850393700787,
          "duration": 0.13043478260868824
        },
        {
          "name": "C#5",
          "midi": 73,
          "time": 70.66304347825826,
          "velocity": 0.2440944881889764,
          "duration": 0.10869565217390686
        },
        {
          "name": "E5",
          "midi": 76,
          "time": 70.66304347825826,
          "velocity": 0.14960629921259844,
          "duration": 0.10869565217390686
        },
        {
          "name": "A#5",
          "midi": 82,
          "time": 70.66304347825826,
          "velocity": 0.18110236220472442,
          "duration": 0.06521739130434412
        },
        {
          "name": "G#5",
          "midi": 80,
          "time": 70.68478260869304,
          "velocity": 0.1889763779527559,
          "duration": 0.0760869565217348
        },
        {
          "name": "E7",
          "midi": 100,
          "time": 70.68478260869304,
          "velocity": 0.11811023622047244,
          "duration": 0.043478260869562746
        },
        {
          "name": "A#4",
          "midi": 70,
          "time": 70.70652173912782,
          "velocity": 0.16535433070866143,
          "duration": 0.10869565217390686
        },
        {
          "name": "C#4",
          "midi": 61,
          "time": 70.71739130434521,
          "velocity": 0.2992125984251969,
          "duration": 0.20652173913042304
        },
        {
          "name": "E5",
          "midi": 76,
          "time": 70.78260869564956,
          "velocity": 0.07874015748031496,
          "duration": 0.03260869565217206
        },
        {
          "name": "F#4",
          "midi": 66,
          "time": 70.81521739130173,
          "velocity": 0.2755905511811024,
          "duration": 0.09782608695651618
        },
        {
          "name": "A#4",
          "midi": 70,
          "time": 70.8478260869539,
          "velocity": 0.09448818897637795,
          "duration": 0.06521739130434412
        },
        {
          "name": "E7",
          "midi": 100,
          "time": 70.89130434782346,
          "velocity": 0.09448818897637795,
          "duration": 0.043478260869562746
        },
        {
          "name": "D3",
          "midi": 50,
          "time": 70.91304347825825,
          "velocity": 0.4645669291338583,
          "duration": 0.021739130434781373
        },
        {
          "name": "E4",
          "midi": 64,
          "time": 70.92391304347564,
          "velocity": 0.2283464566929134,
          "duration": 0.03260869565217206
        },
        {
          "name": "C5",
          "midi": 72,
          "time": 70.92391304347564,
          "velocity": 0.15748031496062992,
          "duration": 0.03260869565217206
        },
        {
          "name": "G#1",
          "midi": 32,
          "time": 70.95652173912781,
          "velocity": 0.5826771653543307,
          "duration": 0.03260869565217206
        },
        {
          "name": "A5",
          "midi": 81,
          "time": 70.95652173912781,
          "velocity": 0.12598425196850394,
          "duration": 0.0760869565217348
        },
        {
          "name": "G4",
          "midi": 67,
          "time": 70.97826086956259,
          "velocity": 0.1968503937007874,
          "duration": 0.09782608695651618
        },
        {
          "name": "B4",
          "midi": 71,
          "time": 70.97826086956259,
          "velocity": 0.30708661417322836,
          "duration": 0.13043478260868824
        },
        {
          "name": "G5",
          "midi": 79,
          "time": 70.97826086956259,
          "velocity": 0.2125984251968504,
          "duration": 0.06521739130434412
        },
        {
          "name": "G1",
          "midi": 31,
          "time": 70.98913043477998,
          "velocity": 0.5748031496062992,
          "duration": 0.021739130434781373
        },
        {
          "name": "D5",
          "midi": 74,
          "time": 70.99999999999737,
          "velocity": 0.23622047244094488,
          "duration": 0.1521739130434696
        },
        {
          "name": "F#1",
          "midi": 30,
          "time": 71.01086956521476,
          "velocity": 0.5590551181102362,
          "duration": 0.03260869565217206
        },
        {
          "name": "F5",
          "midi": 77,
          "time": 71.01086956521476,
          "velocity": 0.15748031496062992,
          "duration": 0.08695652173912549
        },
        {
          "name": "F#6",
          "midi": 90,
          "time": 71.03260869564954,
          "velocity": 0.07874015748031496,
          "duration": 0.03260869565217206
        },
        {
          "name": "G1",
          "midi": 31,
          "time": 71.04347826086693,
          "velocity": 0.5118110236220472,
          "duration": 0.03260869565217206
        },
        {
          "name": "G6",
          "midi": 91,
          "time": 71.04347826086693,
          "velocity": 0.25984251968503935,
          "duration": 0.19565217391303236
        },
        {
          "name": "D4",
          "midi": 62,
          "time": 71.06521739130172,
          "velocity": 0.2677165354330709,
          "duration": 0.1630434782608603
        },
        {
          "name": "G#1",
          "midi": 32,
          "time": 71.0760869565191,
          "velocity": 0.4409448818897638,
          "duration": 0.021739130434781373
        },
        {
          "name": "G5",
          "midi": 79,
          "time": 71.0760869565191,
          "velocity": 0.14173228346456693,
          "duration": 0.0760869565217348
        },
        {
          "name": "G4",
          "midi": 67,
          "time": 71.0869565217365,
          "velocity": 0.2755905511811024,
          "duration": 0.13043478260868824
        },
        {
          "name": "B6",
          "midi": 95,
          "time": 71.0869565217365,
          "velocity": 0.2677165354330709,
          "duration": 0.14130434782607892
        },
        {
          "name": "G1",
          "midi": 31,
          "time": 71.09782608695389,
          "velocity": 0.49606299212598426,
          "duration": 0.11956521739129755
        },
        {
          "name": "B4",
          "midi": 71,
          "time": 71.14130434782345,
          "velocity": 0.2283464566929134,
          "duration": 0.08695652173912549
        },
        {
          "name": "F7",
          "midi": 101,
          "time": 71.15217391304084,
          "velocity": 0.16535433070866143,
          "duration": 0.06521739130434412
        },
        {
          "name": "D7",
          "midi": 98,
          "time": 71.1956521739104,
          "velocity": 0.14173228346456693,
          "duration": 0.043478260869562746
        },
        {
          "name": "A#1",
          "midi": 34,
          "time": 71.22826086956258,
          "velocity": 0.5196850393700787,
          "duration": 0.021739130434781373
        },
        {
          "name": "D#4",
          "midi": 63,
          "time": 71.22826086956258,
          "velocity": 0.14173228346456693,
          "duration": 0.03260869565217206
        },
        {
          "name": "G1",
          "midi": 31,
          "time": 71.24999999999736,
          "velocity": 0.5433070866141733,
          "duration": 0.27173913043476716
        },
        {
          "name": "G4",
          "midi": 67,
          "time": 71.26086956521475,
          "velocity": 0.1732283464566929,
          "duration": 0.043478260869562746
        },
        {
          "name": "F5",
          "midi": 77,
          "time": 71.27173913043214,
          "velocity": 0.16535433070866143,
          "duration": 0.03260869565217206
        },
        {
          "name": "B5",
          "midi": 83,
          "time": 71.27173913043214,
          "velocity": 0.16535433070866143,
          "duration": 0.08695652173912549
        },
        {
          "name": "G5",
          "midi": 79,
          "time": 71.28260869564953,
          "velocity": 0.2755905511811024,
          "duration": 0.11956521739129755
        },
        {
          "name": "D6",
          "midi": 86,
          "time": 71.30434782608431,
          "velocity": 0.1889763779527559,
          "duration": 0.22826086956520442
        },
        {
          "name": "G6",
          "midi": 91,
          "time": 71.30434782608431,
          "velocity": 0.28346456692913385,
          "duration": 0.2391304347825951
        },
        {
          "name": "G4",
          "midi": 67,
          "time": 71.3152173913017,
          "velocity": 0.2755905511811024,
          "duration": 0.21739130434781373
        },
        {
          "name": "D5",
          "midi": 74,
          "time": 71.32608695651909,
          "velocity": 0.16535433070866143,
          "duration": 0.03260869565217206
        },
        {
          "name": "F#6",
          "midi": 90,
          "time": 71.32608695651909,
          "velocity": 0.11811023622047244,
          "duration": 0.03260869565217206
        },
        {
          "name": "A#4",
          "midi": 70,
          "time": 71.33695652173648,
          "velocity": 0.14173228346456693,
          "duration": 0.03260869565217206
        },
        {
          "name": "B6",
          "midi": 95,
          "time": 71.35869565217126,
          "velocity": 0.1732283464566929,
          "duration": 0.09782608695651618
        },
        {
          "name": "D4",
          "midi": 62,
          "time": 71.36956521738865,
          "velocity": 0.28346456692913385,
          "duration": 0.1630434782608603
        },
        {
          "name": "B4",
          "midi": 71,
          "time": 71.36956521738865,
          "velocity": 0.1968503937007874,
          "duration": 0.06521739130434412
        },
        {
          "name": "B4",
          "midi": 71,
          "time": 71.44565217391039,
          "velocity": 0.12598425196850394,
          "duration": 0.08695652173912549
        },
        {
          "name": "B6",
          "midi": 95,
          "time": 71.48913043477995,
          "velocity": 0.14960629921259844,
          "duration": 0.043478260869562746
        },
        {
          "name": "F7",
          "midi": 101,
          "time": 71.48913043477995,
          "velocity": 0.2204724409448819,
          "duration": 0.08695652173912549
        },
        {
          "name": "A6",
          "midi": 93,
          "time": 71.52173913043212,
          "velocity": 0.18110236220472442,
          "duration": 0.043478260869562746
        },
        {
          "name": "F#4",
          "midi": 66,
          "time": 71.53260869564951,
          "velocity": 0.2283464566929134,
          "duration": 0.03260869565217206
        },
        {
          "name": "C#5",
          "midi": 73,
          "time": 71.53260869564951,
          "velocity": 0.25984251968503935,
          "duration": 0.03260869565217206
        },
        {
          "name": "G5",
          "midi": 79,
          "time": 71.53260869564951,
          "velocity": 0.28346456692913385,
          "duration": 0.10869565217390686
        },
        {
          "name": "D#6",
          "midi": 87,
          "time": 71.53260869564951,
          "velocity": 0.18110236220472442,
          "duration": 0.03260869565217206
        },
        {
          "name": "E6",
          "midi": 88,
          "time": 71.53260869564951,
          "velocity": 0.09448818897637795,
          "duration": 0.03260869565217206
        },
        {
          "name": "A#3",
          "midi": 58,
          "time": 71.5434782608669,
          "velocity": 0.5511811023622047,
          "duration": 0.010869565217390686
        },
        {
          "name": "F#7",
          "midi": 102,
          "time": 71.5434782608669,
          "velocity": 0.11811023622047244,
          "duration": 0.08695652173912549
        },
        {
          "name": "F#1",
          "midi": 30,
          "time": 71.5543478260843,
          "velocity": 0.2755905511811024,
          "duration": 0.021739130434781373
        },
        {
          "name": "A3",
          "midi": 57,
          "time": 71.5543478260843,
          "velocity": 0.5905511811023622,
          "duration": 0.043478260869562746
        },
        {
          "name": "G4",
          "midi": 67,
          "time": 71.56521739130169,
          "velocity": 0.1968503937007874,
          "duration": 0.1630434782608603
        },
        {
          "name": "C#7",
          "midi": 97,
          "time": 71.56521739130169,
          "velocity": 0.07086614173228346,
          "duration": 0.06521739130434412
        },
        {
          "name": "G1",
          "midi": 31,
          "time": 71.57608695651908,
          "velocity": 0.31496062992125984,
          "duration": 0.021739130434781373
        },
        {
          "name": "E7",
          "midi": 100,
          "time": 71.58695652173647,
          "velocity": 0.12598425196850394,
          "duration": 0.03260869565217206
        },
        {
          "name": "D3",
          "midi": 50,
          "time": 71.59782608695386,
          "velocity": 0.25196850393700787,
          "duration": 0.021739130434781373
        },
        {
          "name": "G#3",
          "midi": 56,
          "time": 71.59782608695386,
          "velocity": 0.47244094488188976,
          "duration": 0.043478260869562746
        },
        {
          "name": "G1",
          "midi": 31,
          "time": 71.60869565217125,
          "velocity": 0.4645669291338583,
          "duration": 0.06521739130434412
        },
        {
          "name": "B4",
          "midi": 71,
          "time": 71.60869565217125,
          "velocity": 0.1968503937007874,
          "duration": 0.043478260869562746
        },
        {
          "name": "A5",
          "midi": 81,
          "time": 71.60869565217125,
          "velocity": 0.13385826771653545,
          "duration": 0.043478260869562746
        },
        {
          "name": "D6",
          "midi": 86,
          "time": 71.61956521738864,
          "velocity": 0.1732283464566929,
          "duration": 0.05434782608695343
        },
        {
          "name": "F#6",
          "midi": 90,
          "time": 71.61956521738864,
          "velocity": 0.11811023622047244,
          "duration": 0.05434782608695343
        },
        {
          "name": "D3",
          "midi": 50,
          "time": 71.63043478260603,
          "velocity": 0.2677165354330709,
          "duration": 0.043478260869562746
        },
        {
          "name": "D5",
          "midi": 74,
          "time": 71.63043478260603,
          "velocity": 0.1889763779527559,
          "duration": 0.03260869565217206
        },
        {
          "name": "C6",
          "midi": 84,
          "time": 71.65217391304081,
          "velocity": 0.12598425196850394,
          "duration": 0.03260869565217206
        },
        {
          "name": "G6",
          "midi": 91,
          "time": 71.65217391304081,
          "velocity": 0.1889763779527559,
          "duration": 0.06521739130434412
        },
        {
          "name": "B4",
          "midi": 71,
          "time": 71.6739130434756,
          "velocity": 0.2047244094488189,
          "duration": 0.043478260869562746
        },
        {
          "name": "B1",
          "midi": 35,
          "time": 71.68478260869298,
          "velocity": 0.5039370078740157,
          "duration": 0.021739130434781373
        },
        {
          "name": "A5",
          "midi": 81,
          "time": 71.68478260869298,
          "velocity": 0.07086614173228346,
          "duration": 0.03260869565217206
        },
        {
          "name": "D#3",
          "midi": 51,
          "time": 71.69565217391037,
          "velocity": 0.2755905511811024,
          "duration": 0.021739130434781373
        },
        {
          "name": "A1",
          "midi": 33,
          "time": 71.70652173912777,
          "velocity": 0.5354330708661418,
          "duration": 0.010869565217390686
        },
        {
          "name": "C5",
          "midi": 72,
          "time": 71.70652173912777,
          "velocity": 0.18110236220472442,
          "duration": 0.043478260869562746
        },
        {
          "name": "G#1",
          "midi": 32,
          "time": 71.71739130434516,
          "velocity": 0.5433070866141733,
          "duration": 0.11956521739129755
        },
        {
          "name": "D#4",
          "midi": 63,
          "time": 71.71739130434516,
          "velocity": 0.23622047244094488,
          "duration": 0.021739130434781373
        },
        {
          "name": "G#5",
          "midi": 80,
          "time": 71.72826086956255,
          "velocity": 0.13385826771653545,
          "duration": 0.05434782608695343
        },
        {
          "name": "D#7",
          "midi": 99,
          "time": 71.72826086956255,
          "velocity": 0.12598425196850394,
          "duration": 0.05434782608695343
        },
        {
          "name": "G#3",
          "midi": 56,
          "time": 71.73913043477994,
          "velocity": 0.10236220472440945,
          "duration": 0.043478260869562746
        },
        {
          "name": "D#5",
          "midi": 75,
          "time": 71.73913043477994,
          "velocity": 0.2204724409448819,
          "duration": 0.08695652173912549
        },
        {
          "name": "G#4",
          "midi": 68,
          "time": 71.74999999999733,
          "velocity": 0.14960629921259844,
          "duration": 0.03260869565217206
        },
        {
          "name": "B4",
          "midi": 71,
          "time": 71.74999999999733,
          "velocity": 0.10236220472440945,
          "duration": 0.03260869565217206
        },
        {
          "name": "C7",
          "midi": 96,
          "time": 71.74999999999733,
          "velocity": 0.15748031496062992,
          "duration": 0.09782608695651618
        },
        {
          "name": "G#6",
          "midi": 92,
          "time": 71.76086956521472,
          "velocity": 0.14960629921259844,
          "duration": 0.06521739130434412
        },
        {
          "name": "D#3",
          "midi": 51,
          "time": 71.77173913043211,
          "velocity": 0.2204724409448819,
          "duration": 0.043478260869562746
        },
        {
          "name": "C6",
          "midi": 84,
          "time": 71.77173913043211,
          "velocity": 0.14960629921259844,
          "duration": 0.0760869565217348
        },
        {
          "name": "C5",
          "midi": 72,
          "time": 71.7826086956495,
          "velocity": 0.2283464566929134,
          "duration": 0.08695652173912549
        },
        {
          "name": "A#5",
          "midi": 82,
          "time": 71.7826086956495,
          "velocity": 0.14960629921259844,
          "duration": 0.03260869565217206
        },
        {
          "name": "G#5",
          "midi": 80,
          "time": 71.80434782608428,
          "velocity": 0.14960629921259844,
          "duration": 0.06521739130434412
        },
        {
          "name": "D#4",
          "midi": 63,
          "time": 71.84782608695384,
          "velocity": 0.2204724409448819,
          "duration": 0.043478260869562746
        },
        {
          "name": "G#4",
          "midi": 68,
          "time": 71.84782608695384,
          "velocity": 0.16535433070866143,
          "duration": 0.05434782608695343
        },
        {
          "name": "F#1",
          "midi": 30,
          "time": 71.85869565217124,
          "velocity": 0.5433070866141733,
          "duration": 0.010869565217390686
        },
        {
          "name": "G1",
          "midi": 31,
          "time": 71.86956521738863,
          "velocity": 0.5433070866141733,
          "duration": 0.28260869565215785
        },
        {
          "name": "B4",
          "midi": 71,
          "time": 71.86956521738863,
          "velocity": 0.12598425196850394,
          "duration": 0.043478260869562746
        },
        {
          "name": "A5",
          "midi": 81,
          "time": 71.88043478260602,
          "velocity": 0.11023622047244094,
          "duration": 0.06521739130434412
        },
        {
          "name": "B5",
          "midi": 83,
          "time": 71.88043478260602,
          "velocity": 0.1889763779527559,
          "duration": 0.08695652173912549
        },
        {
          "name": "G5",
          "midi": 79,
          "time": 71.89130434782341,
          "velocity": 0.25196850393700787,
          "duration": 0.20652173913042304
        },
        {
          "name": "G4",
          "midi": 67,
          "time": 71.9021739130408,
          "velocity": 0.2047244094488189,
          "duration": 0.10869565217390686
        },
        {
          "name": "D6",
          "midi": 86,
          "time": 71.91304347825819,
          "velocity": 0.1968503937007874,
          "duration": 0.05434782608695343
        },
        {
          "name": "B4",
          "midi": 71,
          "time": 71.93478260869297,
          "velocity": 0.28346456692913385,
          "duration": 0.09782608695651618
        },
        {
          "name": "D5",
          "midi": 74,
          "time": 71.93478260869297,
          "velocity": 0.25984251968503935,
          "duration": 0.0760869565217348
        },
        {
          "name": "F5",
          "midi": 77,
          "time": 71.93478260869297,
          "velocity": 0.15748031496062992,
          "duration": 0.06521739130434412
        },
        {
          "name": "G6",
          "midi": 91,
          "time": 71.98913043477992,
          "velocity": 0.3858267716535433,
          "duration": 0.17391304347825098
        },
        {
          "name": "D4",
          "midi": 62,
          "time": 71.99999999999731,
          "velocity": 0.2677165354330709,
          "duration": 0.14130434782607892
        },
        {
          "name": "G4",
          "midi": 67,
          "time": 72.03260869564949,
          "velocity": 0.28346456692913385,
          "duration": 0.10869565217390686
        },
        {
          "name": "B6",
          "midi": 95,
          "time": 72.03260869564949,
          "velocity": 0.2283464566929134,
          "duration": 0.13043478260868824
        },
        {
          "name": "D7",
          "midi": 98,
          "time": 72.04347826086688,
          "velocity": 0.11023622047244094,
          "duration": 0.05434782608695343
        },
        {
          "name": "B4",
          "midi": 71,
          "time": 72.05434782608427,
          "velocity": 0.1968503937007874,
          "duration": 0.06521739130434412
        },
        {
          "name": "F7",
          "midi": 101,
          "time": 72.06521739130166,
          "velocity": 0.09448818897637795,
          "duration": 0.043478260869562746
        },
        {
          "name": "D3",
          "midi": 50,
          "time": 72.08695652173644,
          "velocity": 0.30708661417322836,
          "duration": 0.043478260869562746
        },
        {
          "name": "B5",
          "midi": 83,
          "time": 72.130434782606,
          "velocity": 0.12598425196850394,
          "duration": 0.03260869565217206
        },
        {
          "name": "F#3",
          "midi": 54,
          "time": 72.1413043478234,
          "velocity": 0.3543307086614173,
          "duration": 0.043478260869562746
        },
        {
          "name": "D#4",
          "midi": 63,
          "time": 72.1413043478234,
          "velocity": 0.2440944881889764,
          "duration": 0.021739130434781373
        },
        {
          "name": "G2",
          "midi": 43,
          "time": 72.16304347825817,
          "velocity": 0.5511811023622047,
          "duration": 0.010869565217390686
        },
        {
          "name": "E2",
          "midi": 40,
          "time": 72.17391304347557,
          "velocity": 0.5118110236220472,
          "duration": 0.010869565217390686
        },
        {
          "name": "A1",
          "midi": 33,
          "time": 72.19565217391035,
          "velocity": 0.5196850393700787,
          "duration": 0.010869565217390686
        },
        {
          "name": "G#1",
          "midi": 32,
          "time": 72.20652173912774,
          "velocity": 0.5275590551181102,
          "duration": 0.010869565217390686
        },
        {
          "name": "G1",
          "midi": 31,
          "time": 72.21739130434513,
          "velocity": 0.5118110236220472,
          "duration": 0.03260869565217206
        },
        {
          "name": "C#3",
          "midi": 49,
          "time": 72.22826086956252,
          "velocity": 0.09448818897637795,
          "duration": 0.03260869565217206
        },
        {
          "name": "C#5",
          "midi": 73,
          "time": 72.22826086956252,
          "velocity": 0.07086614173228346,
          "duration": 0.06521739130434412
        },
        {
          "name": "G#5",
          "midi": 80,
          "time": 72.22826086956252,
          "velocity": 0.12598425196850394,
          "duration": 0.06521739130434412
        },
        {
          "name": "A#5",
          "midi": 82,
          "time": 72.22826086956252,
          "velocity": 0.1889763779527559,
          "duration": 0.0760869565217348
        },
        {
          "name": "C6",
          "midi": 84,
          "time": 72.23913043477991,
          "velocity": 0.14960629921259844,
          "duration": 0.06521739130434412
        },
        {
          "name": "A1",
          "midi": 33,
          "time": 72.30434782608425,
          "velocity": 0.44881889763779526,
          "duration": 0.03260869565217206
        },
        {
          "name": "C4",
          "midi": 60,
          "time": 72.31521739130164,
          "velocity": 0.29133858267716534,
          "duration": 0.043478260869562746
        },
        {
          "name": "F6",
          "midi": 89,
          "time": 72.31521739130164,
          "velocity": 0.11023622047244094,
          "duration": 0.03260869565217206
        },
        {
          "name": "F7",
          "midi": 101,
          "time": 72.31521739130164,
          "velocity": 0.13385826771653545,
          "duration": 0.05434782608695343
        },
        {
          "name": "F4",
          "midi": 65,
          "time": 72.32608695651903,
          "velocity": 0.1732283464566929,
          "duration": 0.03260869565217206
        },
        {
          "name": "G#5",
          "midi": 80,
          "time": 72.33695652173643,
          "velocity": 0.1732283464566929,
          "duration": 0.11956521739129755
        },
        {
          "name": "C6",
          "midi": 84,
          "time": 72.33695652173643,
          "velocity": 0.33070866141732286,
          "duration": 0.11956521739129755
        },
        {
          "name": "G1",
          "midi": 31,
          "time": 72.34782608695382,
          "velocity": 0.5511811023622047,
          "duration": 0.09782608695651618
        },
        {
          "name": "F#5",
          "midi": 78,
          "time": 72.34782608695382,
          "velocity": 0.29133858267716534,
          "duration": 0.10869565217390686
        },
        {
          "name": "C#6",
          "midi": 85,
          "time": 72.34782608695382,
          "velocity": 0.25984251968503935,
          "duration": 0.10869565217390686
        },
        {
          "name": "B6",
          "midi": 95,
          "time": 72.34782608695382,
          "velocity": 0.07874015748031496,
          "duration": 0.05434782608695343
        },
        {
          "name": "C#5",
          "midi": 73,
          "time": 72.3586956521712,
          "velocity": 0.2204724409448819,
          "duration": 0.09782608695651618
        },
        {
          "name": "A#5",
          "midi": 82,
          "time": 72.3586956521712,
          "velocity": 0.31496062992125984,
          "duration": 0.10869565217390686
        },
        {
          "name": "D#6",
          "midi": 87,
          "time": 72.3695652173886,
          "velocity": 0.14960629921259844,
          "duration": 0.08695652173912549
        },
        {
          "name": "E7",
          "midi": 100,
          "time": 72.3695652173886,
          "velocity": 0.11023622047244094,
          "duration": 0.0760869565217348
        },
        {
          "name": "F#1",
          "midi": 30,
          "time": 72.44565217391033,
          "velocity": 0.5196850393700787,
          "duration": 0.03260869565217206
        },
        {
          "name": "D#6",
          "midi": 87,
          "time": 72.46739130434511,
          "velocity": 0.15748031496062992,
          "duration": 0.2499999999999858
        },
        {
          "name": "D#7",
          "midi": 99,
          "time": 72.46739130434511,
          "velocity": 0.1732283464566929,
          "duration": 0.03260869565217206
        },
        {
          "name": "F7",
          "midi": 101,
          "time": 72.46739130434511,
          "velocity": 0.11023622047244094,
          "duration": 0.06521739130434412
        },
        {
          "name": "F#7",
          "midi": 102,
          "time": 72.46739130434511,
          "velocity": 0.08661417322834646,
          "duration": 0.03260869565217206
        },
        {
          "name": "C4",
          "midi": 60,
          "time": 72.4782608695625,
          "velocity": 0.2992125984251969,
          "duration": 0.03260869565217206
        },
        {
          "name": "B6",
          "midi": 95,
          "time": 72.4782608695625,
          "velocity": 0.07874015748031496,
          "duration": 0.03260869565217206
        },
        {
          "name": "G1",
          "midi": 31,
          "time": 72.4891304347799,
          "velocity": 0.5511811023622047,
          "duration": 0.2499999999999858
        },
        {
          "name": "C6",
          "midi": 84,
          "time": 72.4891304347799,
          "velocity": 0.25984251968503935,
          "duration": 0.2391304347825951
        },
        {
          "name": "G6",
          "midi": 91,
          "time": 72.4891304347799,
          "velocity": 0.08661417322834646,
          "duration": 0.05434782608695343
        },
        {
          "name": "C#5",
          "midi": 73,
          "time": 72.49999999999729,
          "velocity": 0.2677165354330709,
          "duration": 0.11956521739129755
        },
        {
          "name": "F#5",
          "midi": 78,
          "time": 72.49999999999729,
          "velocity": 0.25984251968503935,
          "duration": 0.20652173913042304
        },
        {
          "name": "G#5",
          "midi": 80,
          "time": 72.51086956521468,
          "velocity": 0.3228346456692913,
          "duration": 0.19565217391303236
        },
        {
          "name": "A#5",
          "midi": 82,
          "time": 72.51086956521468,
          "velocity": 0.33070866141732286,
          "duration": 0.19565217391303236
        },
        {
          "name": "C5",
          "midi": 72,
          "time": 72.61956521738858,
          "velocity": 0.2677165354330709,
          "duration": 0.08695652173912549
        },
        {
          "name": "A6",
          "midi": 93,
          "time": 72.61956521738858,
          "velocity": 0.07086614173228346,
          "duration": 0.043478260869562746
        },
        {
          "name": "E7",
          "midi": 100,
          "time": 72.61956521738858,
          "velocity": 0.08661417322834646,
          "duration": 0.10869565217390686
        },
        {
          "name": "D#5",
          "midi": 75,
          "time": 72.64130434782336,
          "velocity": 0.12598425196850394,
          "duration": 0.06521739130434412
        },
        {
          "name": "B3",
          "midi": 59,
          "time": 72.68478260869293,
          "velocity": 0.2440944881889764,
          "duration": 0.021739130434781373
        },
        {
          "name": "F7",
          "midi": 101,
          "time": 72.68478260869293,
          "velocity": 0.07086614173228346,
          "duration": 0.03260869565217206
        },
        {
          "name": "E4",
          "midi": 64,
          "time": 72.69565217391032,
          "velocity": 0.2755905511811024,
          "duration": 0.03260869565217206
        },
        {
          "name": "A#3",
          "midi": 58,
          "time": 72.70652173912771,
          "velocity": 0.3779527559055118,
          "duration": 0.021739130434781373
        },
        {
          "name": "F#4",
          "midi": 66,
          "time": 72.74999999999727,
          "velocity": 0.33858267716535434,
          "duration": 0.021739130434781373
        },
        {
          "name": "C#5",
          "midi": 73,
          "time": 72.74999999999727,
          "velocity": 0.28346456692913385,
          "duration": 0.021739130434781373
        },
        {
          "name": "F5",
          "midi": 77,
          "time": 72.74999999999727,
          "velocity": 0.16535433070866143,
          "duration": 0.03260869565217206
        },
        {
          "name": "G5",
          "midi": 79,
          "time": 72.74999999999727,
          "velocity": 0.13385826771653545,
          "duration": 0.03260869565217206
        },
        {
          "name": "A6",
          "midi": 93,
          "time": 72.74999999999727,
          "velocity": 0.2047244094488189,
          "duration": 0.03260869565217206
        },
        {
          "name": "E7",
          "midi": 100,
          "time": 72.74999999999727,
          "velocity": 0.14960629921259844,
          "duration": 0.0760869565217348
        },
        {
          "name": "F7",
          "midi": 101,
          "time": 72.74999999999727,
          "velocity": 0.13385826771653545,
          "duration": 0.03260869565217206
        },
        {
          "name": "G7",
          "midi": 103,
          "time": 72.74999999999727,
          "velocity": 0.14173228346456693,
          "duration": 0.03260869565217206
        },
        {
          "name": "D7",
          "midi": 98,
          "time": 72.76086956521466,
          "velocity": 0.09448818897637795,
          "duration": 0.043478260869562746
        },
        {
          "name": "A#3",
          "midi": 58,
          "time": 72.77173913043205,
          "velocity": 0.5669291338582677,
          "duration": 0.010869565217390686
        },
        {
          "name": "G4",
          "midi": 67,
          "time": 72.77173913043205,
          "velocity": 0.25984251968503935,
          "duration": 0.021739130434781373
        },
        {
          "name": "C7",
          "midi": 96,
          "time": 72.77173913043205,
          "velocity": 0.09448818897637795,
          "duration": 0.043478260869562746
        },
        {
          "name": "A3",
          "midi": 57,
          "time": 72.78260869564944,
          "velocity": 0.5905511811023622,
          "duration": 0.043478260869562746
        },
        {
          "name": "E5",
          "midi": 76,
          "time": 72.78260869564944,
          "velocity": 0.10236220472440945,
          "duration": 0.043478260869562746
        },
        {
          "name": "G1",
          "midi": 31,
          "time": 72.79347826086683,
          "velocity": 0.5511811023622047,
          "duration": 0.2608695652173765
        },
        {
          "name": "G#3",
          "midi": 56,
          "time": 72.826086956519,
          "velocity": 0.41732283464566927,
          "duration": 0.05434782608695343
        },
        {
          "name": "A#5",
          "midi": 82,
          "time": 72.826086956519,
          "velocity": 0.3543307086614173,
          "duration": 0.18478260869564167
        },
        {
          "name": "C#5",
          "midi": 73,
          "time": 72.8369565217364,
          "velocity": 0.16535433070866143,
          "duration": 0.0760869565217348
        },
        {
          "name": "C6",
          "midi": 84,
          "time": 72.8369565217364,
          "velocity": 0.2047244094488189,
          "duration": 0.19565217391303236
        },
        {
          "name": "C#6",
          "midi": 85,
          "time": 72.8369565217364,
          "velocity": 0.2125984251968504,
          "duration": 0.19565217391303236
        },
        {
          "name": "D#6",
          "midi": 87,
          "time": 72.88043478260596,
          "velocity": 0.14960629921259844,
          "duration": 0.1521739130434696
        },
        {
          "name": "G#5",
          "midi": 80,
          "time": 72.90217391304074,
          "velocity": 0.2204724409448819,
          "duration": 0.10869565217390686
        },
        {
          "name": "D#5",
          "midi": 75,
          "time": 72.92391304347552,
          "velocity": 0.1889763779527559,
          "duration": 0.08695652173912549
        },
        {
          "name": "F#5",
          "midi": 78,
          "time": 72.92391304347552,
          "velocity": 0.2047244094488189,
          "duration": 0.09782608695651618
        },
        {
          "name": "C5",
          "midi": 72,
          "time": 72.93478260869291,
          "velocity": 0.2204724409448819,
          "duration": 0.0760869565217348
        },
        {
          "name": "D3",
          "midi": 50,
          "time": 72.96739130434509,
          "velocity": 0.11811023622047244,
          "duration": 0.05434782608695343
        },
        {
          "name": "B3",
          "midi": 59,
          "time": 72.96739130434509,
          "velocity": 0.28346456692913385,
          "duration": 0.043478260869562746
        },
        {
          "name": "E7",
          "midi": 100,
          "time": 72.97826086956248,
          "velocity": 0.11023622047244094,
          "duration": 0.05434782608695343
        },
        {
          "name": "E4",
          "midi": 64,
          "time": 72.98913043477987,
          "velocity": 0.28346456692913385,
          "duration": 0.03260869565217206
        },
        {
          "name": "A#3",
          "midi": 58,
          "time": 73.01086956521465,
          "velocity": 0.4094488188976378,
          "duration": 0.021739130434781373
        },
        {
          "name": "B2",
          "midi": 47,
          "time": 73.07608695651899,
          "velocity": 0.5511811023622047,
          "duration": 0.010869565217390686
        },
        {
          "name": "G2",
          "midi": 43,
          "time": 73.08695652173638,
          "velocity": 0.5590551181102362,
          "duration": 0.010869565217390686
        },
        {
          "name": "C#2",
          "midi": 37,
          "time": 73.09782608695377,
          "velocity": 0.5196850393700787,
          "duration": 0.010869565217390686
        },
        {
          "name": "C4",
          "midi": 60,
          "time": 73.09782608695377,
          "velocity": 0.2125984251968504,
          "duration": 0.03260869565217206
        },
        {
          "name": "E1",
          "midi": 28,
          "time": 73.15217391304073,
          "velocity": 0.3937007874015748,
          "duration": 0.021739130434781373
        },
        {
          "name": "C#5",
          "midi": 73,
          "time": 73.15217391304073,
          "velocity": 0.10236220472440945,
          "duration": 0.0760869565217348
        },
        {
          "name": "E5",
          "midi": 76,
          "time": 73.15217391304073,
          "velocity": 0.07086614173228346,
          "duration": 0.03260869565217206
        },
        {
          "name": "A#5",
          "midi": 82,
          "time": 73.15217391304073,
          "velocity": 0.29133858267716534,
          "duration": 0.17391304347825098
        },
        {
          "name": "C6",
          "midi": 84,
          "time": 73.16304347825812,
          "velocity": 0.2677165354330709,
          "duration": 0.17391304347825098
        },
        {
          "name": "F#1",
          "midi": 30,
          "time": 73.1847826086929,
          "velocity": 0.5196850393700787,
          "duration": 0.043478260869562746
        },
        {
          "name": "C#6",
          "midi": 85,
          "time": 73.1847826086929,
          "velocity": 0.2440944881889764,
          "duration": 0.1521739130434696
        },
        {
          "name": "D#5",
          "midi": 75,
          "time": 73.20652173912768,
          "velocity": 0.2283464566929134,
          "duration": 0.11956521739129755
        },
        {
          "name": "E7",
          "midi": 100,
          "time": 73.20652173912768,
          "velocity": 0.08661417322834646,
          "duration": 0.05434782608695343
        },
        {
          "name": "G1",
          "midi": 31,
          "time": 73.22826086956246,
          "velocity": 0.5511811023622047,
          "duration": 0.10869565217390686
        },
        {
          "name": "E6",
          "midi": 88,
          "time": 73.22826086956246,
          "velocity": 0.07874015748031496,
          "duration": 0.043478260869562746
        },
        {
          "name": "G#5",
          "midi": 80,
          "time": 73.23913043477985,
          "velocity": 0.11811023622047244,
          "duration": 0.06521739130434412
        },
        {
          "name": "C5",
          "midi": 72,
          "time": 73.26086956521463,
          "velocity": 0.12598425196850394,
          "duration": 0.05434782608695343
        },
        {
          "name": "D3",
          "midi": 50,
          "time": 73.27173913043202,
          "velocity": 0.14960629921259844,
          "duration": 0.043478260869562746
        },
        {
          "name": "B3",
          "midi": 59,
          "time": 73.28260869564942,
          "velocity": 0.3779527559055118,
          "duration": 0.043478260869562746
        },
        {
          "name": "F#5",
          "midi": 78,
          "time": 73.28260869564942,
          "velocity": 0.08661417322834646,
          "duration": 0.03260869565217206
        },
        {
          "name": "E7",
          "midi": 100,
          "time": 73.2934782608668,
          "velocity": 0.07874015748031496,
          "duration": 0.03260869565217206
        },
        {
          "name": "E4",
          "midi": 64,
          "time": 73.3043478260842,
          "velocity": 0.2440944881889764,
          "duration": 0.03260869565217206
        },
        {
          "name": "F6",
          "midi": 89,
          "time": 73.31521739130159,
          "velocity": 0.11023622047244094,
          "duration": 0.03260869565217206
        },
        {
          "name": "B6",
          "midi": 95,
          "time": 73.31521739130159,
          "velocity": 0.10236220472440945,
          "duration": 0.03260869565217206
        },
        {
          "name": "A#3",
          "midi": 58,
          "time": 73.32608695651898,
          "velocity": 0.41732283464566927,
          "duration": 0.03260869565217206
        },
        {
          "name": "F1",
          "midi": 29,
          "time": 73.34782608695376,
          "velocity": 0.3858267716535433,
          "duration": 0.021739130434781373
        },
        {
          "name": "B4",
          "midi": 71,
          "time": 73.36956521738854,
          "velocity": 0.28346456692913385,
          "duration": 0.18478260869564167
        },
        {
          "name": "D4",
          "midi": 62,
          "time": 73.38043478260593,
          "velocity": 0.09448818897637795,
          "duration": 0.043478260869562746
        },
        {
          "name": "G#2",
          "midi": 44,
          "time": 73.39130434782332,
          "velocity": 0.5275590551181102,
          "duration": 0.010869565217390686
        },
        {
          "name": "G5",
          "midi": 79,
          "time": 73.39130434782332,
          "velocity": 0.25196850393700787,
          "duration": 0.10869565217390686
        },
        {
          "name": "C#2",
          "midi": 37,
          "time": 73.40217391304071,
          "velocity": 0.5669291338582677,
          "duration": 0.010869565217390686
        },
        {
          "name": "A5",
          "midi": 81,
          "time": 73.40217391304071,
          "velocity": 0.10236220472440945,
          "duration": 0.043478260869562746
        },
        {
          "name": "A1",
          "midi": 33,
          "time": 73.4130434782581,
          "velocity": 0.5511811023622047,
          "duration": 0.010869565217390686
        },
        {
          "name": "G4",
          "midi": 67,
          "time": 73.4130434782581,
          "velocity": 0.25196850393700787,
          "duration": 0.2499999999999858
        },
        {
          "name": "F5",
          "midi": 77,
          "time": 73.4130434782581,
          "velocity": 0.11023622047244094,
          "duration": 0.03260869565217206
        },
        {
          "name": "G#1",
          "midi": 32,
          "time": 73.4239130434755,
          "velocity": 0.5196850393700787,
          "duration": 0.010869565217390686
        },
        {
          "name": "D5",
          "midi": 74,
          "time": 73.4239130434755,
          "velocity": 0.2677165354330709,
          "duration": 0.11956521739129755
        },
        {
          "name": "C#7",
          "midi": 97,
          "time": 73.4239130434755,
          "velocity": 0.11023622047244094,
          "duration": 0.03260869565217206
        },
        {
          "name": "G1",
          "midi": 31,
          "time": 73.43478260869288,
          "velocity": 0.5039370078740157,
          "duration": 0.021739130434781373
        },
        {
          "name": "G#6",
          "midi": 92,
          "time": 73.43478260869288,
          "velocity": 0.09448818897637795,
          "duration": 0.05434782608695343
        },
        {
          "name": "F#1",
          "midi": 30,
          "time": 73.45652173912767,
          "velocity": 0.5275590551181102,
          "duration": 0.06521739130434412
        },
        {
          "name": "F#6",
          "midi": 90,
          "time": 73.45652173912767,
          "velocity": 0.13385826771653545,
          "duration": 0.03260869565217206
        },
        {
          "name": "F5",
          "midi": 77,
          "time": 73.51086956521462,
          "velocity": 0.11023622047244094,
          "duration": 0.03260869565217206
        },
        {
          "name": "G6",
          "midi": 91,
          "time": 73.51086956521462,
          "velocity": 0.28346456692913385,
          "duration": 0.13043478260868824
        },
        {
          "name": "G1",
          "midi": 31,
          "time": 73.52173913043201,
          "velocity": 0.5118110236220472,
          "duration": 0.13043478260868824
        },
        {
          "name": "D4",
          "midi": 62,
          "time": 73.52173913043201,
          "velocity": 0.2677165354330709,
          "duration": 0.1521739130434696
        },
        {
          "name": "D6",
          "midi": 86,
          "time": 73.54347826086679,
          "velocity": 0.2125984251968504,
          "duration": 0.10869565217390686
        },
        {
          "name": "B6",
          "midi": 95,
          "time": 73.57608695651896,
          "velocity": 0.2283464566929134,
          "duration": 0.10869565217390686
        },
        {
          "name": "B4",
          "midi": 71,
          "time": 73.58695652173635,
          "velocity": 0.2047244094488189,
          "duration": 0.06521739130434412
        },
        {
          "name": "A#5",
          "midi": 82,
          "time": 73.61956521738853,
          "velocity": 0.07874015748031496,
          "duration": 0.03260869565217206
        },
        {
          "name": "F7",
          "midi": 101,
          "time": 73.64130434782331,
          "velocity": 0.14960629921259844,
          "duration": 0.03260869565217206
        },
        {
          "name": "F#1",
          "midi": 30,
          "time": 73.68478260869287,
          "velocity": 0.5196850393700787,
          "duration": 0.010869565217390686
        },
        {
          "name": "E5",
          "midi": 76,
          "time": 73.68478260869287,
          "velocity": 0.07086614173228346,
          "duration": 0.03260869565217206
        },
        {
          "name": "G1",
          "midi": 31,
          "time": 73.69565217391026,
          "velocity": 0.5511811023622047,
          "duration": 0.13043478260868824
        },
        {
          "name": "G5",
          "midi": 79,
          "time": 73.69565217391026,
          "velocity": 0.28346456692913385,
          "duration": 0.08695652173912549
        },
        {
          "name": "G4",
          "midi": 67,
          "time": 73.70652173912765,
          "velocity": 0.2204724409448819,
          "duration": 0.1521739130434696
        },
        {
          "name": "D6",
          "midi": 86,
          "time": 73.70652173912765,
          "velocity": 0.16535433070866143,
          "duration": 0.03260869565217206
        },
        {
          "name": "B6",
          "midi": 95,
          "time": 73.71739130434504,
          "velocity": 0.14173228346456693,
          "duration": 0.043478260869562746
        },
        {
          "name": "B5",
          "midi": 83,
          "time": 73.73913043477982,
          "velocity": 0.13385826771653545,
          "duration": 0.06521739130434412
        },
        {
          "name": "B4",
          "midi": 71,
          "time": 73.74999999999721,
          "velocity": 0.1968503937007874,
          "duration": 0.03260869565217206
        },
        {
          "name": "A5",
          "midi": 81,
          "time": 73.74999999999721,
          "velocity": 0.12598425196850394,
          "duration": 0.03260869565217206
        },
        {
          "name": "D6",
          "midi": 86,
          "time": 73.7608695652146,
          "velocity": 0.2047244094488189,
          "duration": 0.09782608695651618
        },
        {
          "name": "D5",
          "midi": 74,
          "time": 73.771739130432,
          "velocity": 0.18110236220472442,
          "duration": 0.03260869565217206
        },
        {
          "name": "F#6",
          "midi": 90,
          "time": 73.771739130432,
          "velocity": 0.08661417322834646,
          "duration": 0.043478260869562746
        },
        {
          "name": "D3",
          "midi": 50,
          "time": 73.80434782608417,
          "velocity": 0.2677165354330709,
          "duration": 0.021739130434781373
        },
        {
          "name": "B4",
          "midi": 71,
          "time": 73.80434782608417,
          "velocity": 0.1968503937007874,
          "duration": 0.043478260869562746
        },
        {
          "name": "G#6",
          "midi": 92,
          "time": 73.81521739130156,
          "velocity": 0.16535433070866143,
          "duration": 0.13043478260868824
        },
        {
          "name": "D4",
          "midi": 62,
          "time": 73.83695652173634,
          "velocity": 0.2677165354330709,
          "duration": 0.021739130434781373
        },
        {
          "name": "A1",
          "midi": 33,
          "time": 73.85869565217112,
          "velocity": 0.5196850393700787,
          "duration": 0.010869565217390686
        },
        {
          "name": "D#4",
          "midi": 63,
          "time": 73.85869565217112,
          "velocity": 0.23622047244094488,
          "duration": 0.021739130434781373
        },
        {
          "name": "G#4",
          "midi": 68,
          "time": 73.85869565217112,
          "velocity": 0.09448818897637795,
          "duration": 0.03260869565217206
        },
        {
          "name": "C5",
          "midi": 72,
          "time": 73.85869565217112,
          "velocity": 0.15748031496062992,
          "duration": 0.03260869565217206
        },
        {
          "name": "D#6",
          "midi": 87,
          "time": 73.85869565217112,
          "velocity": 0.11811023622047244,
          "duration": 0.03260869565217206
        },
        {
          "name": "G#1",
          "midi": 32,
          "time": 73.86956521738851,
          "velocity": 0.5275590551181102,
          "duration": 0.10869565217390686
        },
        {
          "name": "F5",
          "midi": 77,
          "time": 73.86956521738851,
          "velocity": 0.08661417322834646,
          "duration": 0.03260869565217206
        },
        {
          "name": "F#4",
          "midi": 66,
          "time": 73.8804347826059,
          "velocity": 0.08661417322834646,
          "duration": 0.043478260869562746
        },
        {
          "name": "D#5",
          "midi": 75,
          "time": 73.8804347826059,
          "velocity": 0.2204724409448819,
          "duration": 0.08695652173912549
        },
        {
          "name": "B4",
          "midi": 71,
          "time": 73.8913043478233,
          "velocity": 0.07874015748031496,
          "duration": 0.03260869565217206
        },
        {
          "name": "G#5",
          "midi": 80,
          "time": 73.90217391304068,
          "velocity": 0.15748031496062992,
          "duration": 0.09782608695651618
        },
        {
          "name": "D#4",
          "midi": 63,
          "time": 73.93478260869286,
          "velocity": 0.2677165354330709,
          "duration": 0.06521739130434412
        },
        {
          "name": "C5",
          "midi": 72,
          "time": 73.93478260869286,
          "velocity": 0.2755905511811024,
          "duration": 0.0760869565217348
        },
        {
          "name": "A6",
          "midi": 93,
          "time": 73.96739130434503,
          "velocity": 0.16535433070866143,
          "duration": 0.10869565217390686
        },
        {
          "name": "E7",
          "midi": 100,
          "time": 73.96739130434503,
          "velocity": 0.15748031496062992,
          "duration": 0.03260869565217206
        },
        {
          "name": "C2",
          "midi": 36,
          "time": 73.97826086956242,
          "velocity": 0.41732283464566927,
          "duration": 0.021739130434781373
        },
        {
          "name": "A#3",
          "midi": 58,
          "time": 73.97826086956242,
          "velocity": 0.5433070866141733,
          "duration": 0.021739130434781373
        },
        {
          "name": "G5",
          "midi": 79,
          "time": 73.97826086956242,
          "velocity": 0.2283464566929134,
          "duration": 0.11956521739129755
        },
        {
          "name": "D6",
          "midi": 86,
          "time": 73.97826086956242,
          "velocity": 0.15748031496062992,
          "duration": 0.06521739130434412
        },
        {
          "name": "F6",
          "midi": 89,
          "time": 73.97826086956242,
          "velocity": 0.16535433070866143,
          "duration": 0.03260869565217206
        },
        {
          "name": "G7",
          "midi": 103,
          "time": 73.97826086956242,
          "velocity": 0.18110236220472442,
          "duration": 0.043478260869562746
        },
        {
          "name": "A3",
          "midi": 57,
          "time": 73.9999999999972,
          "velocity": 0.5826771653543307,
          "duration": 0.05434782608695343
        },
        {
          "name": "D#4",
          "midi": 63,
          "time": 74.01086956521459,
          "velocity": 0.2283464566929134,
          "duration": 0.021739130434781373
        },
        {
          "name": "E5",
          "midi": 76,
          "time": 74.01086956521459,
          "velocity": 0.14960629921259844,
          "duration": 0.03260869565217206
        },
        {
          "name": "B4",
          "midi": 71,
          "time": 74.02173913043198,
          "velocity": 0.29133858267716534,
          "duration": 0.1521739130434696
        },
        {
          "name": "A5",
          "midi": 81,
          "time": 74.02173913043198,
          "velocity": 0.15748031496062992,
          "duration": 0.06521739130434412
        },
        {
          "name": "G1",
          "midi": 31,
          "time": 74.03260869564937,
          "velocity": 0.5118110236220472,
          "duration": 0.22826086956520442
        },
        {
          "name": "G4",
          "midi": 67,
          "time": 74.03260869564937,
          "velocity": 0.1968503937007874,
          "duration": 0.06521739130434412
        },
        {
          "name": "C#7",
          "midi": 97,
          "time": 74.03260869564937,
          "velocity": 0.09448818897637795,
          "duration": 0.03260869565217206
        },
        {
          "name": "G#3",
          "midi": 56,
          "time": 74.05434782608415,
          "velocity": 0.33858267716535434,
          "duration": 0.043478260869562746
        },
        {
          "name": "D5",
          "midi": 74,
          "time": 74.06521739130154,
          "velocity": 0.25984251968503935,
          "duration": 0.08695652173912549
        },
        {
          "name": "F#6",
          "midi": 90,
          "time": 74.07608695651894,
          "velocity": 0.09448818897637795,
          "duration": 0.03260869565217206
        },
        {
          "name": "G#6",
          "midi": 92,
          "time": 74.07608695651894,
          "velocity": 0.07086614173228346,
          "duration": 0.05434782608695343
        },
        {
          "name": "D4",
          "midi": 62,
          "time": 74.08695652173633,
          "velocity": 0.08661417322834646,
          "duration": 0.03260869565217206
        },
        {
          "name": "G6",
          "midi": 91,
          "time": 74.08695652173633,
          "velocity": 0.2440944881889764,
          "duration": 0.14130434782607892
        },
        {
          "name": "D7",
          "midi": 98,
          "time": 74.09782608695372,
          "velocity": 0.14960629921259844,
          "duration": 0.08695652173912549
        },
        {
          "name": "G4",
          "midi": 67,
          "time": 74.10869565217111,
          "velocity": 0.2755905511811024,
          "duration": 0.18478260869564167
        },
        {
          "name": "D4",
          "midi": 62,
          "time": 74.14130434782328,
          "velocity": 0.2755905511811024,
          "duration": 0.1521739130434696
        },
        {
          "name": "B6",
          "midi": 95,
          "time": 74.14130434782328,
          "velocity": 0.15748031496062992,
          "duration": 0.06521739130434412
        },
        {
          "name": "D6",
          "midi": 86,
          "time": 74.15217391304067,
          "velocity": 0.15748031496062992,
          "duration": 0.1521739130434696
        },
        {
          "name": "B4",
          "midi": 71,
          "time": 74.19565217391023,
          "velocity": 0.2047244094488189,
          "duration": 0.0760869565217348
        },
        {
          "name": "B6",
          "midi": 95,
          "time": 74.2391304347798,
          "velocity": 0.2125984251968504,
          "duration": 0.043478260869562746
        },
        {
          "name": "G6",
          "midi": 91,
          "time": 74.24999999999719,
          "velocity": 0.11023622047244094,
          "duration": 0.03260869565217206
        },
        {
          "name": "F1",
          "midi": 29,
          "time": 74.29347826086675,
          "velocity": 0.5196850393700787,
          "duration": 0.010869565217390686
        },
        {
          "name": "F#1",
          "midi": 30,
          "time": 74.30434782608414,
          "velocity": 0.5275590551181102,
          "duration": 0.010869565217390686
        },
        {
          "name": "G1",
          "midi": 31,
          "time": 74.31521739130153,
          "velocity": 0.5275590551181102,
          "duration": 0.27173913043476716
        },
        {
          "name": "D4",
          "midi": 62,
          "time": 74.31521739130153,
          "velocity": 0.13385826771653545,
          "duration": 0.03260869565217206
        },
        {
          "name": "G4",
          "midi": 67,
          "time": 74.31521739130153,
          "velocity": 0.25196850393700787,
          "duration": 0.29347826086954854
        },
        {
          "name": "G5",
          "midi": 79,
          "time": 74.31521739130153,
          "velocity": 0.25196850393700787,
          "duration": 0.27173913043476716
        },
        {
          "name": "B6",
          "midi": 95,
          "time": 74.33695652173631,
          "velocity": 0.14173228346456693,
          "duration": 0.05434782608695343
        },
        {
          "name": "D5",
          "midi": 74,
          "time": 74.3478260869537,
          "velocity": 0.1889763779527559,
          "duration": 0.08695652173912549
        },
        {
          "name": "B5",
          "midi": 83,
          "time": 74.3478260869537,
          "velocity": 0.1732283464566929,
          "duration": 0.05434782608695343
        },
        {
          "name": "A5",
          "midi": 81,
          "time": 74.3586956521711,
          "velocity": 0.12598425196850394,
          "duration": 0.03260869565217206
        },
        {
          "name": "B4",
          "midi": 71,
          "time": 74.36956521738848,
          "velocity": 0.1889763779527559,
          "duration": 0.03260869565217206
        },
        {
          "name": "F#6",
          "midi": 90,
          "time": 74.39130434782327,
          "velocity": 0.10236220472440945,
          "duration": 0.03260869565217206
        },
        {
          "name": "B4",
          "midi": 71,
          "time": 74.41304347825805,
          "velocity": 0.2283464566929134,
          "duration": 0.0760869565217348
        },
        {
          "name": "D4",
          "midi": 62,
          "time": 74.42391304347544,
          "velocity": 0.28346456692913385,
          "duration": 0.1630434782608603
        },
        {
          "name": "B6",
          "midi": 95,
          "time": 74.47826086956239,
          "velocity": 0.1889763779527559,
          "duration": 0.11956521739129755
        },
        {
          "name": "D7",
          "midi": 98,
          "time": 74.47826086956239,
          "velocity": 0.08661417322834646,
          "duration": 0.03260869565217206
        },
        {
          "name": "D6",
          "midi": 86,
          "time": 74.49999999999717,
          "velocity": 0.11811023622047244,
          "duration": 0.09782608695651618
        },
        {
          "name": "B4",
          "midi": 71,
          "time": 74.51086956521456,
          "velocity": 0.25196850393700787,
          "duration": 0.11956521739129755
        },
        {
          "name": "F7",
          "midi": 101,
          "time": 74.55434782608413,
          "velocity": 0.14960629921259844,
          "duration": 0.043478260869562746
        },
        {
          "name": "A5",
          "midi": 81,
          "time": 74.5760869565189,
          "velocity": 0.15748031496062992,
          "duration": 0.03260869565217206
        },
        {
          "name": "G2",
          "midi": 43,
          "time": 74.59782608695369,
          "velocity": 0.5354330708661418,
          "duration": 0.010869565217390686
        },
        {
          "name": "G4",
          "midi": 67,
          "time": 74.61956521738847,
          "velocity": 0.1968503937007874,
          "duration": 0.1630434782608603
        },
        {
          "name": "G#1",
          "midi": 32,
          "time": 74.63043478260586,
          "velocity": 0.5354330708661418,
          "duration": 0.010869565217390686
        },
        {
          "name": "A1",
          "midi": 33,
          "time": 74.64130434782325,
          "velocity": 0.5748031496062992,
          "duration": 0.010869565217390686
        },
        {
          "name": "B3",
          "midi": 59,
          "time": 74.64130434782325,
          "velocity": 0.13385826771653545,
          "duration": 0.03260869565217206
        },
        {
          "name": "A5",
          "midi": 81,
          "time": 74.64130434782325,
          "velocity": 0.1732283464566929,
          "duration": 0.043478260869562746
        },
        {
          "name": "B5",
          "midi": 83,
          "time": 74.64130434782325,
          "velocity": 0.11023622047244094,
          "duration": 0.10869565217390686
        },
        {
          "name": "G#1",
          "midi": 32,
          "time": 74.65217391304064,
          "velocity": 0.5748031496062992,
          "duration": 0.010869565217390686
        },
        {
          "name": "G1",
          "midi": 31,
          "time": 74.66304347825803,
          "velocity": 0.5669291338582677,
          "duration": 0.021739130434781373
        },
        {
          "name": "F5",
          "midi": 77,
          "time": 74.67391304347542,
          "velocity": 0.14173228346456693,
          "duration": 0.03260869565217206
        },
        {
          "name": "F#1",
          "midi": 30,
          "time": 74.68478260869281,
          "velocity": 0.5511811023622047,
          "duration": 0.03260869565217206
        },
        {
          "name": "D5",
          "midi": 74,
          "time": 74.68478260869281,
          "velocity": 0.2204724409448819,
          "duration": 0.06521739130434412
        },
        {
          "name": "G1",
          "midi": 31,
          "time": 74.71739130434499,
          "velocity": 0.4645669291338583,
          "duration": 0.03260869565217206
        },
        {
          "name": "D3",
          "midi": 50,
          "time": 74.71739130434499,
          "velocity": 0.2677165354330709,
          "duration": 0.021739130434781373
        },
        {
          "name": "B4",
          "midi": 71,
          "time": 74.72826086956238,
          "velocity": 0.2047244094488189,
          "duration": 0.03260869565217206
        },
        {
          "name": "D#3",
          "midi": 51,
          "time": 74.74999999999716,
          "velocity": 0.2677165354330709,
          "duration": 0.021739130434781373
        },
        {
          "name": "C5",
          "midi": 72,
          "time": 74.76086956521455,
          "velocity": 0.2047244094488189,
          "duration": 0.14130434782607892
        },
        {
          "name": "D6",
          "midi": 86,
          "time": 74.76086956521455,
          "velocity": 0.07874015748031496,
          "duration": 0.03260869565217206
        },
        {
          "name": "G#1",
          "midi": 32,
          "time": 74.77173913043194,
          "velocity": 0.5118110236220472,
          "duration": 0.11956521739129755
        },
        {
          "name": "D#4",
          "midi": 63,
          "time": 74.77173913043194,
          "velocity": 0.2125984251968504,
          "duration": 0.09782608695651618
        },
        {
          "name": "F5",
          "midi": 77,
          "time": 74.78260869564933,
          "velocity": 0.13385826771653545,
          "duration": 0.03260869565217206
        },
        {
          "name": "A#5",
          "midi": 82,
          "time": 74.78260869564933,
          "velocity": 0.14173228346456693,
          "duration": 0.09782608695651618
        },
        {
          "name": "G#4",
          "midi": 68,
          "time": 74.8152173913015,
          "velocity": 0.14173228346456693,
          "duration": 0.06521739130434412
        },
        {
          "name": "G#6",
          "midi": 92,
          "time": 74.8152173913015,
          "velocity": 0.2283464566929134,
          "duration": 0.08695652173912549
        },
        {
          "name": "G5",
          "midi": 79,
          "time": 74.84782608695367,
          "velocity": 0.08661417322834646,
          "duration": 0.03260869565217206
        },
        {
          "name": "D4",
          "midi": 62,
          "time": 74.86956521738846,
          "velocity": 0.2047244094488189,
          "duration": 0.03260869565217206
        },
        {
          "name": "A1",
          "midi": 33,
          "time": 74.89130434782324,
          "velocity": 0.5196850393700787,
          "duration": 0.021739130434781373
        },
        {
          "name": "D#4",
          "midi": 63,
          "time": 74.90217391304063,
          "velocity": 0.25196850393700787,
          "duration": 0.03260869565217206
        },
        {
          "name": "G#5",
          "midi": 80,
          "time": 74.90217391304063,
          "velocity": 0.07086614173228346,
          "duration": 0.03260869565217206
        },
        {
          "name": "G#1",
          "midi": 32,
          "time": 74.91304347825802,
          "velocity": 0.5354330708661418,
          "duration": 0.021739130434781373
        },
        {
          "name": "G1",
          "midi": 31,
          "time": 74.9347826086928,
          "velocity": 0.5275590551181102,
          "duration": 0.28260869565215785
        },
        {
          "name": "B5",
          "midi": 83,
          "time": 74.9347826086928,
          "velocity": 0.12598425196850394,
          "duration": 0.0760869565217348
        },
        {
          "name": "B4",
          "midi": 71,
          "time": 74.94565217391019,
          "velocity": 0.14960629921259844,
          "duration": 0.043478260869562746
        },
        {
          "name": "G6",
          "midi": 91,
          "time": 74.94565217391019,
          "velocity": 0.2125984251968504,
          "duration": 0.27173913043476716
        },
        {
          "name": "G5",
          "midi": 79,
          "time": 74.95652173912758,
          "velocity": 0.25196850393700787,
          "duration": 0.08695652173912549
        },
        {
          "name": "G4",
          "midi": 67,
          "time": 74.96739130434497,
          "velocity": 0.2204724409448819,
          "duration": 0.03260869565217206
        },
        {
          "name": "D6",
          "midi": 86,
          "time": 74.97826086956236,
          "velocity": 0.2440944881889764,
          "duration": 0.21739130434781373
        },
        {
          "name": "F5",
          "midi": 77,
          "time": 74.98913043477975,
          "velocity": 0.12598425196850394,
          "duration": 0.043478260869562746
        },
        {
          "name": "B4",
          "midi": 71,
          "time": 74.99999999999714,
          "velocity": 0.2440944881889764,
          "duration": 0.06521739130434412
        },
        {
          "name": "D3",
          "midi": 50,
          "time": 75.01086956521453,
          "velocity": 0.33070866141732286,
          "duration": 0.08695652173912549
        },
        {
          "name": "G4",
          "midi": 67,
          "time": 75.01086956521453,
          "velocity": 0.1889763779527559,
          "duration": 0.03260869565217206
        },
        {
          "name": "G4",
          "midi": 67,
          "time": 75.06521739130149,
          "velocity": 0.3464566929133858,
          "duration": 0.17391304347825098
        },
        {
          "name": "G#6",
          "midi": 92,
          "time": 75.06521739130149,
          "velocity": 0.10236220472440945,
          "duration": 0.05434782608695343
        },
        {
          "name": "F7",
          "midi": 101,
          "time": 75.07608695651888,
          "velocity": 0.13385826771653545,
          "duration": 0.09782608695651618
        },
        {
          "name": "B5",
          "midi": 83,
          "time": 75.08695652173627,
          "velocity": 0.11811023622047244,
          "duration": 0.08695652173912549
        },
        {
          "name": "B4",
          "midi": 71,
          "time": 75.09782608695366,
          "velocity": 0.1968503937007874,
          "duration": 0.09782608695651618
        },
        {
          "name": "F5",
          "midi": 77,
          "time": 75.13043478260583,
          "velocity": 0.16535433070866143,
          "duration": 0.09782608695651618
        },
        {
          "name": "C#5",
          "midi": 73,
          "time": 75.19565217391018,
          "velocity": 0.25196850393700787,
          "duration": 0.021739130434781373
        },
        {
          "name": "A#5",
          "midi": 82,
          "time": 75.19565217391018,
          "velocity": 0.08661417322834646,
          "duration": 0.043478260869562746
        },
        {
          "name": "E6",
          "midi": 88,
          "time": 75.19565217391018,
          "velocity": 0.1889763779527559,
          "duration": 0.05434782608695343
        },
        {
          "name": "F6",
          "midi": 89,
          "time": 75.19565217391018,
          "velocity": 0.25196850393700787,
          "duration": 0.021739130434781373
        },
        {
          "name": "G#6",
          "midi": 92,
          "time": 75.19565217391018,
          "velocity": 0.1732283464566929,
          "duration": 0.05434782608695343
        },
        {
          "name": "F#7",
          "midi": 102,
          "time": 75.20652173912757,
          "velocity": 0.10236220472440945,
          "duration": 0.03260869565217206
        },
        {
          "name": "F#1",
          "midi": 30,
          "time": 75.21739130434496,
          "velocity": 0.33070866141732286,
          "duration": 0.021739130434781373
        },
        {
          "name": "A#3",
          "midi": 58,
          "time": 75.21739130434496,
          "velocity": 0.5669291338582677,
          "duration": 0.010869565217390686
        },
        {
          "name": "C5",
          "midi": 72,
          "time": 75.21739130434496,
          "velocity": 0.2440944881889764,
          "duration": 0.021739130434781373
        },
        {
          "name": "A3",
          "midi": 57,
          "time": 75.22826086956235,
          "velocity": 0.5905511811023622,
          "duration": 0.03260869565217206
        },
        {
          "name": "G1",
          "midi": 31,
          "time": 75.23913043477974,
          "velocity": 0.4881889763779528,
          "duration": 0.2499999999999858
        },
        {
          "name": "A5",
          "midi": 81,
          "time": 75.24999999999713,
          "velocity": 0.14173228346456693,
          "duration": 0.05434782608695343
        },
        {
          "name": "G#3",
          "midi": 56,
          "time": 75.26086956521452,
          "velocity": 0.5196850393700787,
          "duration": 0.043478260869562746
        },
        {
          "name": "G4",
          "midi": 67,
          "time": 75.26086956521452,
          "velocity": 0.25196850393700787,
          "duration": 0.2391304347825951
        },
        {
          "name": "B4",
          "midi": 71,
          "time": 75.26086956521452,
          "velocity": 0.25196850393700787,
          "duration": 0.14130434782607892
        },
        {
          "name": "E7",
          "midi": 100,
          "time": 75.26086956521452,
          "velocity": 0.10236220472440945,
          "duration": 0.03260869565217206
        },
        {
          "name": "D5",
          "midi": 74,
          "time": 75.27173913043191,
          "velocity": 0.2440944881889764,
          "duration": 0.08695652173912549
        },
        {
          "name": "D#7",
          "midi": 99,
          "time": 75.27173913043191,
          "velocity": 0.09448818897637795,
          "duration": 0.043478260869562746
        },
        {
          "name": "F5",
          "midi": 77,
          "time": 75.2826086956493,
          "velocity": 0.2047244094488189,
          "duration": 0.05434782608695343
        },
        {
          "name": "D3",
          "midi": 50,
          "time": 75.29347826086669,
          "velocity": 0.2677165354330709,
          "duration": 0.06521739130434412
        },
        {
          "name": "D4",
          "midi": 62,
          "time": 75.32608695651886,
          "velocity": 0.2755905511811024,
          "duration": 0.18478260869564167
        },
        {
          "name": "A6",
          "midi": 93,
          "time": 75.32608695651886,
          "velocity": 0.07086614173228346,
          "duration": 0.03260869565217206
        },
        {
          "name": "D7",
          "midi": 98,
          "time": 75.33695652173625,
          "velocity": 0.18110236220472442,
          "duration": 0.05434782608695343
        },
        {
          "name": "G6",
          "midi": 91,
          "time": 75.35869565217104,
          "velocity": 0.2755905511811024,
          "duration": 0.1521739130434696
        },
        {
          "name": "F7",
          "midi": 101,
          "time": 75.35869565217104,
          "velocity": 0.1889763779527559,
          "duration": 0.14130434782607892
        },
        {
          "name": "F5",
          "midi": 77,
          "time": 75.38043478260582,
          "velocity": 0.08661417322834646,
          "duration": 0.043478260869562746
        },
        {
          "name": "B4",
          "midi": 71,
          "time": 75.42391304347538,
          "velocity": 0.15748031496062992,
          "duration": 0.08695652173912549
        },
        {
          "name": "F5",
          "midi": 77,
          "time": 75.44565217391016,
          "velocity": 0.08661417322834646,
          "duration": 0.0760869565217348
        },
        {
          "name": "D6",
          "midi": 86,
          "time": 75.45652173912755,
          "velocity": 0.12598425196850394,
          "duration": 0.05434782608695343
        },
        {
          "name": "B6",
          "midi": 95,
          "time": 75.45652173912755,
          "velocity": 0.18110236220472442,
          "duration": 0.06521739130434412
        },
        {
          "name": "D3",
          "midi": 50,
          "time": 75.48913043477972,
          "velocity": 0.25196850393700787,
          "duration": 0.043478260869562746
        },
        {
          "name": "G1",
          "midi": 31,
          "time": 75.49999999999712,
          "velocity": 0.5354330708661418,
          "duration": 0.021739130434781373
        },
        {
          "name": "F1",
          "midi": 29,
          "time": 75.5217391304319,
          "velocity": 0.5354330708661418,
          "duration": 0.010869565217390686
        },
        {
          "name": "F#1",
          "midi": 30,
          "time": 75.53260869564929,
          "velocity": 0.5275590551181102,
          "duration": 0.28260869565215785
        },
        {
          "name": "F#4",
          "midi": 66,
          "time": 75.54347826086668,
          "velocity": 0.2755905511811024,
          "duration": 0.14130434782607892
        },
        {
          "name": "C#5",
          "midi": 73,
          "time": 75.55434782608407,
          "velocity": 0.2283464566929134,
          "duration": 0.11956521739129755
        },
        {
          "name": "D6",
          "midi": 86,
          "time": 75.55434782608407,
          "velocity": 0.10236220472440945,
          "duration": 0.03260869565217206
        },
        {
          "name": "A#6",
          "midi": 94,
          "time": 75.55434782608407,
          "velocity": 0.14173228346456693,
          "duration": 0.043478260869562746
        },
        {
          "name": "G#5",
          "midi": 80,
          "time": 75.57608695651885,
          "velocity": 0.2204724409448819,
          "duration": 0.0760869565217348
        },
        {
          "name": "A#5",
          "midi": 82,
          "time": 75.58695652173624,
          "velocity": 0.1732283464566929,
          "duration": 0.03260869565217206
        },
        {
          "name": "A#4",
          "midi": 70,
          "time": 75.59782608695363,
          "velocity": 0.10236220472440945,
          "duration": 0.03260869565217206
        },
        {
          "name": "E5",
          "midi": 76,
          "time": 75.59782608695363,
          "velocity": 0.14173228346456693,
          "duration": 0.05434782608695343
        },
        {
          "name": "C#3",
          "midi": 49,
          "time": 75.60869565217102,
          "velocity": 0.30708661417322836,
          "duration": 0.13043478260868824
        },
        {
          "name": "C#4",
          "midi": 61,
          "time": 75.60869565217102,
          "velocity": 0.30708661417322836,
          "duration": 0.18478260869564167
        },
        {
          "name": "F#6",
          "midi": 90,
          "time": 75.6304347826058,
          "velocity": 0.2677165354330709,
          "duration": 0.18478260869564167
        },
        {
          "name": "A#4",
          "midi": 70,
          "time": 75.6413043478232,
          "velocity": 0.14960629921259844,
          "duration": 0.06521739130434412
        },
        {
          "name": "F#4",
          "midi": 66,
          "time": 75.70652173912754,
          "velocity": 0.2755905511811024,
          "duration": 0.10869565217390686
        },
        {
          "name": "A#6",
          "midi": 94,
          "time": 75.70652173912754,
          "velocity": 0.2677165354330709,
          "duration": 0.10869565217390686
        },
        {
          "name": "E5",
          "midi": 76,
          "time": 75.73913043477971,
          "velocity": 0.12598425196850394,
          "duration": 0.0760869565217348
        },
        {
          "name": "A#4",
          "midi": 70,
          "time": 75.77173913043188,
          "velocity": 0.08661417322834646,
          "duration": 0.043478260869562746
        },
        {
          "name": "A5",
          "midi": 81,
          "time": 75.80434782608405,
          "velocity": 0.11023622047244094,
          "duration": 0.03260869565217206
        },
        {
          "name": "C5",
          "midi": 72,
          "time": 75.81521739130145,
          "velocity": 0.16535433070866143,
          "duration": 0.03260869565217206
        },
        {
          "name": "C3",
          "midi": 48,
          "time": 75.82608695651884,
          "velocity": 0.5118110236220472,
          "duration": 0.010869565217390686
        },
        {
          "name": "F#2",
          "midi": 42,
          "time": 75.83695652173623,
          "velocity": 0.5433070866141733,
          "duration": 0.010869565217390686
        },
        {
          "name": "D2",
          "midi": 38,
          "time": 75.84782608695362,
          "velocity": 0.5433070866141733,
          "duration": 0.010869565217390686
        },
        {
          "name": "A1",
          "midi": 33,
          "time": 75.85869565217101,
          "velocity": 0.5669291338582677,
          "duration": 0.010869565217390686
        },
        {
          "name": "G4",
          "midi": 67,
          "time": 75.85869565217101,
          "velocity": 0.2204724409448819,
          "duration": 0.05434782608695343
        },
        {
          "name": "B4",
          "midi": 71,
          "time": 75.85869565217101,
          "velocity": 0.14173228346456693,
          "duration": 0.03260869565217206
        },
        {
          "name": "A5",
          "midi": 81,
          "time": 75.85869565217101,
          "velocity": 0.14173228346456693,
          "duration": 0.043478260869562746
        },
        {
          "name": "G#1",
          "midi": 32,
          "time": 75.8695652173884,
          "velocity": 0.5748031496062992,
          "duration": 0.010869565217390686
        },
        {
          "name": "G1",
          "midi": 31,
          "time": 75.88043478260579,
          "velocity": 0.5669291338582677,
          "duration": 0.021739130434781373
        },
        {
          "name": "F#1",
          "midi": 30,
          "time": 75.90217391304057,
          "velocity": 0.5590551181102362,
          "duration": 0.03260869565217206
        },
        {
          "name": "B4",
          "midi": 71,
          "time": 75.91304347825796,
          "velocity": 0.2440944881889764,
          "duration": 0.08695652173912549
        },
        {
          "name": "F5",
          "midi": 77,
          "time": 75.91304347825796,
          "velocity": 0.13385826771653545,
          "duration": 0.043478260869562746
        },
        {
          "name": "G1",
          "midi": 31,
          "time": 75.93478260869274,
          "velocity": 0.4881889763779528,
          "duration": 0.03260869565217206
        },
        {
          "name": "D3",
          "midi": 50,
          "time": 75.93478260869274,
          "velocity": 0.2755905511811024,
          "duration": 0.03260869565217206
        },
        {
          "name": "G5",
          "midi": 79,
          "time": 75.95652173912752,
          "velocity": 0.2204724409448819,
          "duration": 0.14130434782607892
        },
        {
          "name": "D6",
          "midi": 86,
          "time": 75.95652173912752,
          "velocity": 0.1732283464566929,
          "duration": 0.14130434782607892
        },
        {
          "name": "D4",
          "midi": 62,
          "time": 75.96739130434491,
          "velocity": 0.2677165354330709,
          "duration": 0.1521739130434696
        },
        {
          "name": "G4",
          "midi": 67,
          "time": 75.9782608695623,
          "velocity": 0.2755905511811024,
          "duration": 0.13043478260868824
        },
        {
          "name": "G6",
          "midi": 91,
          "time": 75.9782608695623,
          "velocity": 0.3228346456692913,
          "duration": 0.1521739130434696
        },
        {
          "name": "G1",
          "midi": 31,
          "time": 75.9891304347797,
          "velocity": 0.4881889763779528,
          "duration": 0.11956521739129755
        },
        {
          "name": "G#6",
          "midi": 92,
          "time": 75.9891304347797,
          "velocity": 0.10236220472440945,
          "duration": 0.03260869565217206
        },
        {
          "name": "B6",
          "midi": 95,
          "time": 75.99999999999709,
          "velocity": 0.14960629921259844,
          "duration": 0.043478260869562746
        },
        {
          "name": "B5",
          "midi": 83,
          "time": 76.01086956521448,
          "velocity": 0.12598425196850394,
          "duration": 0.09782608695651618
        },
        {
          "name": "B4",
          "midi": 71,
          "time": 76.02173913043187,
          "velocity": 0.14173228346456693,
          "duration": 0.08695652173912549
        },
        {
          "name": "D3",
          "midi": 50,
          "time": 76.04347826086665,
          "velocity": 0.28346456692913385,
          "duration": 0.043478260869562746
        },
        {
          "name": "F5",
          "midi": 77,
          "time": 76.05434782608404,
          "velocity": 0.12598425196850394,
          "duration": 0.05434782608695343
        },
        {
          "name": "F1",
          "midi": 29,
          "time": 76.11956521738838,
          "velocity": 0.5433070866141733,
          "duration": 0.010869565217390686
        },
        {
          "name": "F#1",
          "midi": 30,
          "time": 76.13043478260578,
          "velocity": 0.5433070866141733,
          "duration": 0.010869565217390686
        },
        {
          "name": "G1",
          "midi": 31,
          "time": 76.14130434782317,
          "velocity": 0.5275590551181102,
          "duration": 0.28260869565215785
        },
        {
          "name": "E5",
          "midi": 76,
          "time": 76.14130434782317,
          "velocity": 0.07086614173228346,
          "duration": 0.03260869565217206
        },
        {
          "name": "G5",
          "midi": 79,
          "time": 76.14130434782317,
          "velocity": 0.2047244094488189,
          "duration": 0.0760869565217348
        },
        {
          "name": "G4",
          "midi": 67,
          "time": 76.16304347825795,
          "velocity": 0.25984251968503935,
          "duration": 0.2608695652173765
        },
        {
          "name": "B5",
          "midi": 83,
          "time": 76.16304347825795,
          "velocity": 0.13385826771653545,
          "duration": 0.0760869565217348
        },
        {
          "name": "C6",
          "midi": 84,
          "time": 76.16304347825795,
          "velocity": 0.07086614173228346,
          "duration": 0.03260869565217206
        },
        {
          "name": "A5",
          "midi": 81,
          "time": 76.17391304347534,
          "velocity": 0.16535433070866143,
          "duration": 0.03260869565217206
        },
        {
          "name": "B6",
          "midi": 95,
          "time": 76.17391304347534,
          "velocity": 0.1889763779527559,
          "duration": 0.13043478260868824
        },
        {
          "name": "D5",
          "midi": 74,
          "time": 76.19565217391012,
          "velocity": 0.2047244094488189,
          "duration": 0.08695652173912549
        },
        {
          "name": "B4",
          "midi": 71,
          "time": 76.20652173912751,
          "velocity": 0.23622047244094488,
          "duration": 0.11956521739129755
        },
        {
          "name": "F5",
          "midi": 77,
          "time": 76.20652173912751,
          "velocity": 0.14960629921259844,
          "duration": 0.043478260869562746
        },
        {
          "name": "G6",
          "midi": 91,
          "time": 76.23913043477968,
          "velocity": 0.29133858267716534,
          "duration": 0.20652173913042304
        },
        {
          "name": "D4",
          "midi": 62,
          "time": 76.24999999999707,
          "velocity": 0.28346456692913385,
          "duration": 0.1630434782608603
        },
        {
          "name": "D6",
          "midi": 86,
          "time": 76.28260869564924,
          "velocity": 0.14173228346456693,
          "duration": 0.10869565217390686
        },
        {
          "name": "F5",
          "midi": 77,
          "time": 76.31521739130142,
          "velocity": 0.11023622047244094,
          "duration": 0.03260869565217206
        },
        {
          "name": "F7",
          "midi": 101,
          "time": 76.31521739130142,
          "velocity": 0.13385826771653545,
          "duration": 0.0760869565217348
        },
        {
          "name": "B5",
          "midi": 83,
          "time": 76.32608695651881,
          "velocity": 0.13385826771653545,
          "duration": 0.06521739130434412
        },
        {
          "name": "B4",
          "midi": 71,
          "time": 76.34782608695359,
          "velocity": 0.14960629921259844,
          "duration": 0.0760869565217348
        },
        {
          "name": "B6",
          "midi": 95,
          "time": 76.34782608695359,
          "velocity": 0.2283464566929134,
          "duration": 0.09782608695651618
        },
        {
          "name": "F5",
          "midi": 77,
          "time": 76.38043478260576,
          "velocity": 0.07086614173228346,
          "duration": 0.043478260869562746
        },
        {
          "name": "D#5",
          "midi": 75,
          "time": 76.41304347825793,
          "velocity": 0.2125984251968504,
          "duration": 0.043478260869562746
        },
        {
          "name": "E6",
          "midi": 88,
          "time": 76.41304347825793,
          "velocity": 0.1732283464566929,
          "duration": 0.03260869565217206
        },
        {
          "name": "F6",
          "midi": 89,
          "time": 76.41304347825793,
          "velocity": 0.16535433070866143,
          "duration": 0.06521739130434412
        },
        {
          "name": "G#6",
          "midi": 92,
          "time": 76.41304347825793,
          "velocity": 0.2125984251968504,
          "duration": 0.043478260869562746
        },
        {
          "name": "C7",
          "midi": 96,
          "time": 76.41304347825793,
          "velocity": 0.1889763779527559,
          "duration": 0.05434782608695343
        },
        {
          "name": "G#1",
          "midi": 32,
          "time": 76.42391304347532,
          "velocity": 0.4251968503937008,
          "duration": 0.021739130434781373
        },
        {
          "name": "C5",
          "midi": 72,
          "time": 76.42391304347532,
          "velocity": 0.2204724409448819,
          "duration": 0.03260869565217206
        },
        {
          "name": "G#5",
          "midi": 80,
          "time": 76.42391304347532,
          "velocity": 0.12598425196850394,
          "duration": 0.043478260869562746
        },
        {
          "name": "A#6",
          "midi": 94,
          "time": 76.42391304347532,
          "velocity": 0.2047244094488189,
          "duration": 0.03260869565217206
        },
        {
          "name": "A#3",
          "midi": 58,
          "time": 76.43478260869271,
          "velocity": 0.5354330708661418,
          "duration": 0.010869565217390686
        },
        {
          "name": "F#4",
          "midi": 66,
          "time": 76.43478260869271,
          "velocity": 0.2677165354330709,
          "duration": 0.043478260869562746
        },
        {
          "name": "A4",
          "midi": 69,
          "time": 76.43478260869271,
          "velocity": 0.18110236220472442,
          "duration": 0.043478260869562746
        },
        {
          "name": "A3",
          "midi": 57,
          "time": 76.4456521739101,
          "velocity": 0.5826771653543307,
          "duration": 0.043478260869562746
        },
        {
          "name": "G1",
          "midi": 31,
          "time": 76.47826086956228,
          "velocity": 0.47244094488188976,
          "duration": 0.09782608695651618
        },
        {
          "name": "G4",
          "midi": 67,
          "time": 76.47826086956228,
          "velocity": 0.1732283464566929,
          "duration": 0.1630434782608603
        },
        {
          "name": "A5",
          "midi": 81,
          "time": 76.47826086956228,
          "velocity": 0.15748031496062992,
          "duration": 0.05434782608695343
        },
        {
          "name": "G#3",
          "midi": 56,
          "time": 76.48913043477967,
          "velocity": 0.47244094488188976,
          "duration": 0.043478260869562746
        },
        {
          "name": "D5",
          "midi": 74,
          "time": 76.48913043477967,
          "velocity": 0.2047244094488189,
          "duration": 0.10869565217390686
        },
        {
          "name": "E7",
          "midi": 100,
          "time": 76.48913043477967,
          "velocity": 0.09448818897637795,
          "duration": 0.05434782608695343
        },
        {
          "name": "B5",
          "midi": 83,
          "time": 76.49999999999706,
          "velocity": 0.18110236220472442,
          "duration": 0.043478260869562746
        },
        {
          "name": "B4",
          "midi": 71,
          "time": 76.51086956521445,
          "velocity": 0.2047244094488189,
          "duration": 0.0760869565217348
        },
        {
          "name": "D#7",
          "midi": 99,
          "time": 76.51086956521445,
          "velocity": 0.09448818897637795,
          "duration": 0.03260869565217206
        },
        {
          "name": "D4",
          "midi": 62,
          "time": 76.52173913043184,
          "velocity": 0.1732283464566929,
          "duration": 0.06521739130434412
        },
        {
          "name": "F5",
          "midi": 77,
          "time": 76.53260869564923,
          "velocity": 0.16535433070866143,
          "duration": 0.03260869565217206
        },
        {
          "name": "G6",
          "midi": 91,
          "time": 76.54347826086662,
          "velocity": 0.18110236220472442,
          "duration": 0.043478260869562746
        },
        {
          "name": "G3",
          "midi": 55,
          "time": 76.55434782608401,
          "velocity": 0.1732283464566929,
          "duration": 0.03260869565217206
        },
        {
          "name": "F#1",
          "midi": 30,
          "time": 76.5760869565188,
          "velocity": 0.5196850393700787,
          "duration": 0.021739130434781373
        },
        {
          "name": "A2",
          "midi": 45,
          "time": 76.5760869565188,
          "velocity": 0.31496062992125984,
          "duration": 0.021739130434781373
        },
        {
          "name": "A5",
          "midi": 81,
          "time": 76.5760869565188,
          "velocity": 0.07086614173228346,
          "duration": 0.03260869565217206
        },
        {
          "name": "G1",
          "midi": 31,
          "time": 76.59782608695357,
          "velocity": 0.5275590551181102,
          "duration": 0.010869565217390686
        },
        {
          "name": "G#1",
          "midi": 32,
          "time": 76.60869565217097,
          "velocity": 0.5275590551181102,
          "duration": 0.13043478260868824
        },
        {
          "name": "C5",
          "midi": 72,
          "time": 76.60869565217097,
          "velocity": 0.18110236220472442,
          "duration": 0.13043478260868824
        },
        {
          "name": "D#5",
          "midi": 75,
          "time": 76.63043478260575,
          "velocity": 0.18110236220472442,
          "duration": 0.05434782608695343
        },
        {
          "name": "C7",
          "midi": 96,
          "time": 76.63043478260575,
          "velocity": 0.14173228346456693,
          "duration": 0.043478260869562746
        },
        {
          "name": "D#7",
          "midi": 99,
          "time": 76.63043478260575,
          "velocity": 0.07874015748031496,
          "duration": 0.03260869565217206
        },
        {
          "name": "G#4",
          "midi": 68,
          "time": 76.64130434782314,
          "velocity": 0.13385826771653545,
          "duration": 0.03260869565217206
        },
        {
          "name": "D#4",
          "midi": 63,
          "time": 76.65217391304053,
          "velocity": 0.23622047244094488,
          "duration": 0.11956521739129755
        },
        {
          "name": "G#5",
          "midi": 80,
          "time": 76.65217391304053,
          "velocity": 0.13385826771653545,
          "duration": 0.06521739130434412
        },
        {
          "name": "B6",
          "midi": 95,
          "time": 76.65217391304053,
          "velocity": 0.11811023622047244,
          "duration": 0.03260869565217206
        },
        {
          "name": "F#7",
          "midi": 102,
          "time": 76.65217391304053,
          "velocity": 0.07086614173228346,
          "duration": 0.05434782608695343
        },
        {
          "name": "D#3",
          "midi": 51,
          "time": 76.66304347825792,
          "velocity": 0.25984251968503935,
          "duration": 0.043478260869562746
        },
        {
          "name": "A#5",
          "midi": 82,
          "time": 76.67391304347531,
          "velocity": 0.11811023622047244,
          "duration": 0.05434782608695343
        },
        {
          "name": "B5",
          "midi": 83,
          "time": 76.67391304347531,
          "velocity": 0.11023622047244094,
          "duration": 0.03260869565217206
        },
        {
          "name": "G#6",
          "midi": 92,
          "time": 76.67391304347531,
          "velocity": 0.2204724409448819,
          "duration": 0.06521739130434412
        },
        {
          "name": "G1",
          "midi": 31,
          "time": 76.73913043477965,
          "velocity": 0.5511811023622047,
          "duration": 0.29347826086954854
        },
        {
          "name": "G4",
          "midi": 67,
          "time": 76.74999999999704,
          "velocity": 0.25196850393700787,
          "duration": 0.10869565217390686
        },
        {
          "name": "B4",
          "midi": 71,
          "time": 76.77173913043183,
          "velocity": 0.14173228346456693,
          "duration": 0.043478260869562746
        },
        {
          "name": "G6",
          "midi": 91,
          "time": 76.77173913043183,
          "velocity": 0.14173228346456693,
          "duration": 0.06521739130434412
        },
        {
          "name": "A5",
          "midi": 81,
          "time": 76.78260869564922,
          "velocity": 0.11811023622047244,
          "duration": 0.03260869565217206
        },
        {
          "name": "B4",
          "midi": 71,
          "time": 76.82608695651878,
          "velocity": 0.25196850393700787,
          "duration": 0.06521739130434412
        },
        {
          "name": "F5",
          "midi": 77,
          "time": 76.83695652173617,
          "velocity": 0.11023622047244094,
          "duration": 0.03260869565217206
        },
        {
          "name": "G4",
          "midi": 67,
          "time": 76.86956521738834,
          "velocity": 0.23622047244094488,
          "duration": 0.18478260869564167
        },
        {
          "name": "G6",
          "midi": 91,
          "time": 76.86956521738834,
          "velocity": 0.25196850393700787,
          "duration": 0.22826086956520442
        },
        {
          "name": "B6",
          "midi": 95,
          "time": 76.86956521738834,
          "velocity": 0.28346456692913385,
          "duration": 0.18478260869564167
        },
        {
          "name": "D4",
          "midi": 62,
          "time": 76.90217391304051,
          "velocity": 0.23622047244094488,
          "duration": 0.14130434782607892
        },
        {
          "name": "G#6",
          "midi": 92,
          "time": 76.90217391304051,
          "velocity": 0.10236220472440945,
          "duration": 0.05434782608695343
        },
        {
          "name": "B4",
          "midi": 71,
          "time": 76.93478260869269,
          "velocity": 0.1968503937007874,
          "duration": 0.05434782608695343
        },
        {
          "name": "F7",
          "midi": 101,
          "time": 76.95652173912747,
          "velocity": 0.11023622047244094,
          "duration": 0.10869565217390686
        },
        {
          "name": "F5",
          "midi": 77,
          "time": 76.96739130434486,
          "velocity": 0.14173228346456693,
          "duration": 0.06521739130434412
        },
        {
          "name": "D7",
          "midi": 98,
          "time": 76.98913043477964,
          "velocity": 0.25196850393700787,
          "duration": 0.1630434782608603
        },
        {
          "name": "F#6",
          "midi": 90,
          "time": 77.0326086956492,
          "velocity": 0.23622047244094488,
          "duration": 0.021739130434781373
        },
        {
          "name": "A#1",
          "midi": 34,
          "time": 77.04347826086659,
          "velocity": 0.49606299212598426,
          "duration": 0.021739130434781373
        },
        {
          "name": "C4",
          "midi": 60,
          "time": 77.04347826086659,
          "velocity": 0.3228346456692913,
          "duration": 0.043478260869562746
        },
        {
          "name": "C#6",
          "midi": 85,
          "time": 77.04347826086659,
          "velocity": 0.10236220472440945,
          "duration": 0.043478260869562746
        },
        {
          "name": "D#6",
          "midi": 87,
          "time": 77.04347826086659,
          "velocity": 0.08661417322834646,
          "duration": 0.043478260869562746
        },
        {
          "name": "G#6",
          "midi": 92,
          "time": 77.04347826086659,
          "velocity": 0.12598425196850394,
          "duration": 0.03260869565217206
        },
        {
          "name": "F#5",
          "midi": 78,
          "time": 77.05434782608398,
          "velocity": 0.25984251968503935,
          "duration": 0.0760869565217348
        },
        {
          "name": "G#5",
          "midi": 80,
          "time": 77.05434782608398,
          "velocity": 0.2755905511811024,
          "duration": 0.0760869565217348
        },
        {
          "name": "A#5",
          "midi": 82,
          "time": 77.05434782608398,
          "velocity": 0.14960629921259844,
          "duration": 0.05434782608695343
        },
        {
          "name": "C6",
          "midi": 84,
          "time": 77.05434782608398,
          "velocity": 0.13385826771653545,
          "duration": 0.0760869565217348
        },
        {
          "name": "G#1",
          "midi": 32,
          "time": 77.06521739130137,
          "velocity": 0.5354330708661418,
          "duration": 0.010869565217390686
        },
        {
          "name": "E5",
          "midi": 76,
          "time": 77.06521739130137,
          "velocity": 0.2125984251968504,
          "duration": 0.043478260869562746
        },
        {
          "name": "G1",
          "midi": 31,
          "time": 77.07608695651876,
          "velocity": 0.5354330708661418,
          "duration": 0.0760869565217348
        },
        {
          "name": "C#3",
          "midi": 49,
          "time": 77.14130434782311,
          "velocity": 0.2440944881889764,
          "duration": 0.021739130434781373
        },
        {
          "name": "E6",
          "midi": 88,
          "time": 77.19565217391006,
          "velocity": 0.15748031496062992,
          "duration": 0.0760869565217348
        },
        {
          "name": "F6",
          "midi": 89,
          "time": 77.19565217391006,
          "velocity": 0.12598425196850394,
          "duration": 0.03260869565217206
        },
        {
          "name": "F#6",
          "midi": 90,
          "time": 77.19565217391006,
          "velocity": 0.11023622047244094,
          "duration": 0.03260869565217206
        },
        {
          "name": "D7",
          "midi": 98,
          "time": 77.19565217391006,
          "velocity": 0.18110236220472442,
          "duration": 0.06521739130434412
        },
        {
          "name": "C4",
          "midi": 60,
          "time": 77.20652173912745,
          "velocity": 0.2992125984251969,
          "duration": 0.021739130434781373
        },
        {
          "name": "G#5",
          "midi": 80,
          "time": 77.20652173912745,
          "velocity": 0.25984251968503935,
          "duration": 0.0760869565217348
        },
        {
          "name": "A#5",
          "midi": 82,
          "time": 77.20652173912745,
          "velocity": 0.2047244094488189,
          "duration": 0.0760869565217348
        },
        {
          "name": "G#1",
          "midi": 32,
          "time": 77.21739130434484,
          "velocity": 0.5354330708661418,
          "duration": 0.021739130434781373
        },
        {
          "name": "F#5",
          "midi": 78,
          "time": 77.21739130434484,
          "velocity": 0.08661417322834646,
          "duration": 0.05434782608695343
        },
        {
          "name": "C6",
          "midi": 84,
          "time": 77.21739130434484,
          "velocity": 0.15748031496062992,
          "duration": 0.06521739130434412
        },
        {
          "name": "D#5",
          "midi": 75,
          "time": 77.22826086956223,
          "velocity": 0.2047244094488189,
          "duration": 0.05434782608695343
        },
        {
          "name": "G1",
          "midi": 31,
          "time": 77.23913043477963,
          "velocity": 0.5433070866141733,
          "duration": 0.06521739130434412
        },
        {
          "name": "F#1",
          "midi": 30,
          "time": 77.30434782608397,
          "velocity": 0.29133858267716534,
          "duration": 0.021739130434781373
        },
        {
          "name": "G1",
          "midi": 31,
          "time": 77.33695652173614,
          "velocity": 0.5433070866141733,
          "duration": 0.13043478260868824
        },
        {
          "name": "C4",
          "midi": 60,
          "time": 77.34782608695353,
          "velocity": 0.29133858267716534,
          "duration": 0.03260869565217206
        },
        {
          "name": "G6",
          "midi": 91,
          "time": 77.34782608695353,
          "velocity": 0.1889763779527559,
          "duration": 0.03260869565217206
        },
        {
          "name": "G#6",
          "midi": 92,
          "time": 77.34782608695353,
          "velocity": 0.11811023622047244,
          "duration": 0.043478260869562746
        },
        {
          "name": "D7",
          "midi": 98,
          "time": 77.34782608695353,
          "velocity": 0.11023622047244094,
          "duration": 0.043478260869562746
        },
        {
          "name": "F#7",
          "midi": 102,
          "time": 77.34782608695353,
          "velocity": 0.08661417322834646,
          "duration": 0.03260869565217206
        },
        {
          "name": "E5",
          "midi": 76,
          "time": 77.35869565217092,
          "velocity": 0.2283464566929134,
          "duration": 0.06521739130434412
        },
        {
          "name": "F#5",
          "midi": 78,
          "time": 77.35869565217092,
          "velocity": 0.25196850393700787,
          "duration": 0.0760869565217348
        },
        {
          "name": "A#5",
          "midi": 82,
          "time": 77.35869565217092,
          "velocity": 0.25984251968503935,
          "duration": 0.0760869565217348
        },
        {
          "name": "D#6",
          "midi": 87,
          "time": 77.35869565217092,
          "velocity": 0.11811023622047244,
          "duration": 0.03260869565217206
        },
        {
          "name": "G#5",
          "midi": 80,
          "time": 77.36956521738831,
          "velocity": 0.18110236220472442,
          "duration": 0.06521739130434412
        },
        {
          "name": "D6",
          "midi": 86,
          "time": 77.36956521738831,
          "velocity": 0.13385826771653545,
          "duration": 0.05434782608695343
        },
        {
          "name": "D3",
          "midi": 50,
          "time": 77.44565217391005,
          "velocity": 0.25984251968503935,
          "duration": 0.021739130434781373
        },
        {
          "name": "D7",
          "midi": 98,
          "time": 77.499999999997,
          "velocity": 0.1889763779527559,
          "duration": 0.03260869565217206
        },
        {
          "name": "F#7",
          "midi": 102,
          "time": 77.499999999997,
          "velocity": 0.10236220472440945,
          "duration": 0.03260869565217206
        },
        {
          "name": "G7",
          "midi": 103,
          "time": 77.499999999997,
          "velocity": 0.11811023622047244,
          "duration": 0.03260869565217206
        },
        {
          "name": "G1",
          "midi": 31,
          "time": 77.51086956521439,
          "velocity": 0.5433070866141733,
          "duration": 0.09782608695651618
        },
        {
          "name": "C4",
          "midi": 60,
          "time": 77.51086956521439,
          "velocity": 0.31496062992125984,
          "duration": 0.021739130434781373
        },
        {
          "name": "F#5",
          "midi": 78,
          "time": 77.51086956521439,
          "velocity": 0.18110236220472442,
          "duration": 0.0760869565217348
        },
        {
          "name": "A#5",
          "midi": 82,
          "time": 77.51086956521439,
          "velocity": 0.2125984251968504,
          "duration": 0.0760869565217348
        },
        {
          "name": "E6",
          "midi": 88,
          "time": 77.51086956521439,
          "velocity": 0.10236220472440945,
          "duration": 0.05434782608695343
        },
        {
          "name": "D#5",
          "midi": 75,
          "time": 77.53260869564917,
          "velocity": 0.23622047244094488,
          "duration": 0.05434782608695343
        },
        {
          "name": "C6",
          "midi": 84,
          "time": 77.53260869564917,
          "velocity": 0.1968503937007874,
          "duration": 0.043478260869562746
        },
        {
          "name": "C#3",
          "midi": 49,
          "time": 77.58695652173613,
          "velocity": 0.2440944881889764,
          "duration": 0.021739130434781373
        },
        {
          "name": "F5",
          "midi": 77,
          "time": 77.70652173912742,
          "velocity": 0.18110236220472442,
          "duration": 0.043478260869562746
        },
        {
          "name": "C#7",
          "midi": 97,
          "time": 77.70652173912742,
          "velocity": 0.13385826771653545,
          "duration": 0.03260869565217206
        },
        {
          "name": "D5",
          "midi": 74,
          "time": 77.76086956521438,
          "velocity": 0.3779527559055118,
          "duration": 0.021739130434781373
        },
        {
          "name": "F5",
          "midi": 77,
          "time": 77.77173913043177,
          "velocity": 0.2992125984251969,
          "duration": 0.043478260869562746
        },
        {
          "name": "A#5",
          "midi": 82,
          "time": 77.77173913043177,
          "velocity": 0.14960629921259844,
          "duration": 0.043478260869562746
        },
        {
          "name": "G5",
          "midi": 79,
          "time": 77.78260869564916,
          "velocity": 0.2440944881889764,
          "duration": 0.021739130434781373
        },
        {
          "name": "G#5",
          "midi": 80,
          "time": 77.80434782608394,
          "velocity": 0.25196850393700787,
          "duration": 0.021739130434781373
        },
        {
          "name": "D7",
          "midi": 98,
          "time": 77.81521739130133,
          "velocity": 0.16535433070866143,
          "duration": 0.05434782608695343
        },
        {
          "name": "C#6",
          "midi": 85,
          "time": 77.82608695651872,
          "velocity": 0.14173228346456693,
          "duration": 0.0760869565217348
        },
        {
          "name": "F6",
          "midi": 89,
          "time": 77.82608695651872,
          "velocity": 0.16535433070866143,
          "duration": 0.0760869565217348
        },
        {
          "name": "G#6",
          "midi": 92,
          "time": 77.82608695651872,
          "velocity": 0.2125984251968504,
          "duration": 0.05434782608695343
        },
        {
          "name": "F#5",
          "midi": 78,
          "time": 77.83695652173611,
          "velocity": 0.11811023622047244,
          "duration": 0.03260869565217206
        },
        {
          "name": "D#6",
          "midi": 87,
          "time": 77.83695652173611,
          "velocity": 0.33858267716535434,
          "duration": 0.021739130434781373
        },
        {
          "name": "D6",
          "midi": 86,
          "time": 77.8586956521709,
          "velocity": 0.14173228346456693,
          "duration": 0.043478260869562746
        },
        {
          "name": "E6",
          "midi": 88,
          "time": 77.8586956521709,
          "velocity": 0.3543307086614173,
          "duration": 0.03260869565217206
        },
        {
          "name": "A6",
          "midi": 93,
          "time": 77.86956521738828,
          "velocity": 0.11811023622047244,
          "duration": 0.043478260869562746
        },
        {
          "name": "F#7",
          "midi": 102,
          "time": 77.86956521738828,
          "velocity": 0.08661417322834646,
          "duration": 0.03260869565217206
        },
        {
          "name": "D#6",
          "midi": 87,
          "time": 77.89130434782307,
          "velocity": 0.36220472440944884,
          "duration": 0.05434782608695343
        },
        {
          "name": "A5",
          "midi": 81,
          "time": 77.98913043477958,
          "velocity": 0.2204724409448819,
          "duration": 0.05434782608695343
        },
        {
          "name": "C6",
          "midi": 84,
          "time": 77.98913043477958,
          "velocity": 0.2283464566929134,
          "duration": 0.03260869565217206
        },
        {
          "name": "G#5",
          "midi": 80,
          "time": 77.99999999999697,
          "velocity": 0.16535433070866143,
          "duration": 0.043478260869562746
        },
        {
          "name": "D#6",
          "midi": 87,
          "time": 77.99999999999697,
          "velocity": 0.15748031496062992,
          "duration": 0.06521739130434412
        },
        {
          "name": "D#5",
          "midi": 75,
          "time": 78.02173913043175,
          "velocity": 0.2440944881889764,
          "duration": 0.043478260869562746
        },
        {
          "name": "F#7",
          "midi": 102,
          "time": 78.02173913043175,
          "velocity": 0.11023622047244094,
          "duration": 0.043478260869562746
        },
        {
          "name": "C#5",
          "midi": 73,
          "time": 78.03260869564915,
          "velocity": 0.23622047244094488,
          "duration": 0.021739130434781373
        },
        {
          "name": "C#3",
          "midi": 49,
          "time": 78.07608695651871,
          "velocity": 0.33070866141732286,
          "duration": 0.021739130434781373
        },
        {
          "name": "D#6",
          "midi": 87,
          "time": 78.09782608695349,
          "velocity": 0.07874015748031496,
          "duration": 0.043478260869562746
        },
        {
          "name": "F#7",
          "midi": 102,
          "time": 78.09782608695349,
          "velocity": 0.14960629921259844,
          "duration": 0.05434782608695343
        },
        {
          "name": "A5",
          "midi": 81,
          "time": 78.11956521738827,
          "velocity": 0.12598425196850394,
          "duration": 0.03260869565217206
        },
        {
          "name": "C#6",
          "midi": 85,
          "time": 78.11956521738827,
          "velocity": 0.09448818897637795,
          "duration": 0.043478260869562746
        },
        {
          "name": "F#6",
          "midi": 90,
          "time": 78.11956521738827,
          "velocity": 0.12598425196850394,
          "duration": 0.043478260869562746
        },
        {
          "name": "D#7",
          "midi": 99,
          "time": 78.11956521738827,
          "velocity": 0.11023622047244094,
          "duration": 0.05434782608695343
        },
        {
          "name": "D5",
          "midi": 74,
          "time": 78.13043478260566,
          "velocity": 0.2440944881889764,
          "duration": 0.021739130434781373
        },
        {
          "name": "A#4",
          "midi": 70,
          "time": 78.15217391304044,
          "velocity": 0.25196850393700787,
          "duration": 0.021739130434781373
        },
        {
          "name": "D#5",
          "midi": 75,
          "time": 78.15217391304044,
          "velocity": 0.31496062992125984,
          "duration": 0.043478260869562746
        },
        {
          "name": "F5",
          "midi": 77,
          "time": 78.15217391304044,
          "velocity": 0.2440944881889764,
          "duration": 0.06521739130434412
        },
        {
          "name": "C6",
          "midi": 84,
          "time": 78.16304347825783,
          "velocity": 0.15748031496062992,
          "duration": 0.03260869565217206
        },
        {
          "name": "F7",
          "midi": 101,
          "time": 78.16304347825783,
          "velocity": 0.09448818897637795,
          "duration": 0.05434782608695343
        },
        {
          "name": "A4",
          "midi": 69,
          "time": 78.17391304347522,
          "velocity": 0.23622047244094488,
          "duration": 0.043478260869562746
        },
        {
          "name": "F#7",
          "midi": 102,
          "time": 78.19565217391,
          "velocity": 0.15748031496062992,
          "duration": 0.03260869565217206
        },
        {
          "name": "A#3",
          "midi": 58,
          "time": 78.23913043477957,
          "velocity": 0.25984251968503935,
          "duration": 0.03260869565217206
        },
        {
          "name": "D5",
          "midi": 74,
          "time": 78.24999999999696,
          "velocity": 0.12598425196850394,
          "duration": 0.03260869565217206
        },
        {
          "name": "E4",
          "midi": 64,
          "time": 78.26086956521435,
          "velocity": 0.1968503937007874,
          "duration": 0.03260869565217206
        },
        {
          "name": "B4",
          "midi": 71,
          "time": 78.27173913043174,
          "velocity": 0.13385826771653545,
          "duration": 0.03260869565217206
        },
        {
          "name": "D#2",
          "midi": 39,
          "time": 78.28260869564913,
          "velocity": 0.5590551181102362,
          "duration": 0.010869565217390686
        },
        {
          "name": "A1",
          "midi": 33,
          "time": 78.29347826086652,
          "velocity": 0.5590551181102362,
          "duration": 0.021739130434781373
        },
        {
          "name": "A5",
          "midi": 81,
          "time": 78.30434782608391,
          "velocity": 0.1732283464566929,
          "duration": 0.043478260869562746
        },
        {
          "name": "G#1",
          "midi": 32,
          "time": 78.3152173913013,
          "velocity": 0.5196850393700787,
          "duration": 0.010869565217390686
        },
        {
          "name": "G4",
          "midi": 67,
          "time": 78.3152173913013,
          "velocity": 0.2047244094488189,
          "duration": 0.06521739130434412
        },
        {
          "name": "G5",
          "midi": 79,
          "time": 78.3152173913013,
          "velocity": 0.2047244094488189,
          "duration": 0.06521739130434412
        },
        {
          "name": "F#1",
          "midi": 30,
          "time": 78.33695652173608,
          "velocity": 0.5354330708661418,
          "duration": 0.0760869565217348
        },
        {
          "name": "D3",
          "midi": 50,
          "time": 78.35869565217087,
          "velocity": 0.29133858267716534,
          "duration": 0.043478260869562746
        },
        {
          "name": "B4",
          "midi": 71,
          "time": 78.35869565217087,
          "velocity": 0.25196850393700787,
          "duration": 0.08695652173912549
        },
        {
          "name": "F5",
          "midi": 77,
          "time": 78.38043478260565,
          "velocity": 0.14173228346456693,
          "duration": 0.03260869565217206
        },
        {
          "name": "D5",
          "midi": 74,
          "time": 78.39130434782304,
          "velocity": 0.1968503937007874,
          "duration": 0.13043478260868824
        },
        {
          "name": "G1",
          "midi": 31,
          "time": 78.41304347825782,
          "velocity": 0.5275590551181102,
          "duration": 0.4782608695651902
        },
        {
          "name": "D4",
          "midi": 62,
          "time": 78.42391304347521,
          "velocity": 0.2204724409448819,
          "duration": 0.21739130434781373
        },
        {
          "name": "G4",
          "midi": 67,
          "time": 78.42391304347521,
          "velocity": 0.25984251968503935,
          "duration": 0.20652173913042304
        },
        {
          "name": "B5",
          "midi": 83,
          "time": 78.44565217390999,
          "velocity": 0.14173228346456693,
          "duration": 0.0760869565217348
        },
        {
          "name": "B4",
          "midi": 71,
          "time": 78.46739130434477,
          "velocity": 0.14960629921259844,
          "duration": 0.13043478260868824
        },
        {
          "name": "F5",
          "midi": 77,
          "time": 78.48913043477955,
          "velocity": 0.15748031496062992,
          "duration": 0.05434782608695343
        },
        {
          "name": "A#5",
          "midi": 82,
          "time": 78.48913043477955,
          "velocity": 0.07086614173228346,
          "duration": 0.043478260869562746
        },
        {
          "name": "F#5",
          "midi": 78,
          "time": 78.72826086956215,
          "velocity": 0.23622047244094488,
          "duration": 0.06521739130434412
        },
        {
          "name": "E7",
          "midi": 100,
          "time": 78.72826086956215,
          "velocity": 0.1889763779527559,
          "duration": 0.06521739130434412
        },
        {
          "name": "F7",
          "midi": 101,
          "time": 78.72826086956215,
          "velocity": 0.2283464566929134,
          "duration": 0.20652173913042304
        },
        {
          "name": "C6",
          "midi": 84,
          "time": 78.73913043477954,
          "velocity": 0.15748031496062992,
          "duration": 0.05434782608695343
        },
        {
          "name": "D6",
          "midi": 86,
          "time": 78.73913043477954,
          "velocity": 0.25196850393700787,
          "duration": 0.06521739130434412
        },
        {
          "name": "G#6",
          "midi": 92,
          "time": 78.73913043477954,
          "velocity": 0.10236220472440945,
          "duration": 0.043478260869562746
        },
        {
          "name": "D#7",
          "midi": 99,
          "time": 78.73913043477954,
          "velocity": 0.13385826771653545,
          "duration": 0.06521739130434412
        },
        {
          "name": "E6",
          "midi": 88,
          "time": 78.74999999999693,
          "velocity": 0.2125984251968504,
          "duration": 0.043478260869562746
        },
        {
          "name": "D#4",
          "midi": 63,
          "time": 78.7826086956491,
          "velocity": 0.11811023622047244,
          "duration": 0.0760869565217348
        },
        {
          "name": "F#7",
          "midi": 102,
          "time": 78.7826086956491,
          "velocity": 0.1732283464566929,
          "duration": 0.10869565217390686
        },
        {
          "name": "A#4",
          "midi": 70,
          "time": 78.7934782608665,
          "velocity": 0.08661417322834646,
          "duration": 0.03260869565217206
        },
        {
          "name": "G5",
          "midi": 79,
          "time": 78.7934782608665,
          "velocity": 0.25196850393700787,
          "duration": 0.09782608695651618
        },
        {
          "name": "C#6",
          "midi": 85,
          "time": 78.7934782608665,
          "velocity": 0.2283464566929134,
          "duration": 0.0760869565217348
        },
        {
          "name": "D#6",
          "midi": 87,
          "time": 78.80434782608388,
          "velocity": 0.28346456692913385,
          "duration": 0.09782608695651618
        },
        {
          "name": "F6",
          "midi": 89,
          "time": 78.80434782608388,
          "velocity": 0.18110236220472442,
          "duration": 0.08695652173912549
        },
        {
          "name": "A#6",
          "midi": 94,
          "time": 78.80434782608388,
          "velocity": 0.08661417322834646,
          "duration": 0.043478260869562746
        },
        {
          "name": "B6",
          "midi": 95,
          "time": 78.81521739130127,
          "velocity": 0.14173228346456693,
          "duration": 0.06521739130434412
        },
        {
          "name": "E7",
          "midi": 100,
          "time": 78.81521739130127,
          "velocity": 0.1889763779527559,
          "duration": 0.28260869565215785
        },
        {
          "name": "G4",
          "midi": 67,
          "time": 78.85869565217084,
          "velocity": 0.3228346456692913,
          "duration": 0.021739130434781373
        },
        {
          "name": "G7",
          "midi": 103,
          "time": 78.85869565217084,
          "velocity": 0.2125984251968504,
          "duration": 0.14130434782607892
        },
        {
          "name": "A#3",
          "midi": 58,
          "time": 78.86956521738823,
          "velocity": 0.5354330708661418,
          "duration": 0.021739130434781373
        },
        {
          "name": "C5",
          "midi": 72,
          "time": 78.86956521738823,
          "velocity": 0.2440944881889764,
          "duration": 0.03260869565217206
        },
        {
          "name": "A6",
          "midi": 93,
          "time": 78.86956521738823,
          "velocity": 0.11811023622047244,
          "duration": 0.043478260869562746
        },
        {
          "name": "A#6",
          "midi": 94,
          "time": 78.86956521738823,
          "velocity": 0.1968503937007874,
          "duration": 0.13043478260868824
        },
        {
          "name": "C#7",
          "midi": 97,
          "time": 78.86956521738823,
          "velocity": 0.11023622047244094,
          "duration": 0.03260869565217206
        },
        {
          "name": "F#4",
          "midi": 66,
          "time": 78.88043478260562,
          "velocity": 0.29133858267716534,
          "duration": 0.043478260869562746
        },
        {
          "name": "E6",
          "midi": 88,
          "time": 78.88043478260562,
          "velocity": 0.13385826771653545,
          "duration": 0.05434782608695343
        },
        {
          "name": "A3",
          "midi": 57,
          "time": 78.89130434782301,
          "velocity": 0.5984251968503937,
          "duration": 0.043478260869562746
        },
        {
          "name": "D5",
          "midi": 74,
          "time": 78.89130434782301,
          "velocity": 0.18110236220472442,
          "duration": 0.11956521739129755
        },
        {
          "name": "D6",
          "midi": 86,
          "time": 78.9021739130404,
          "velocity": 0.23622047244094488,
          "duration": 0.1630434782608603
        },
        {
          "name": "C#7",
          "midi": 97,
          "time": 78.92391304347518,
          "velocity": 0.23622047244094488,
          "duration": 0.17391304347825098
        },
        {
          "name": "G#3",
          "midi": 56,
          "time": 78.93478260869257,
          "velocity": 0.4645669291338583,
          "duration": 0.05434782608695343
        },
        {
          "name": "A4",
          "midi": 69,
          "time": 78.93478260869257,
          "velocity": 0.18110236220472442,
          "duration": 0.06521739130434412
        },
        {
          "name": "C6",
          "midi": 84,
          "time": 78.93478260869257,
          "velocity": 0.2204724409448819,
          "duration": 0.0760869565217348
        },
        {
          "name": "D#7",
          "midi": 99,
          "time": 78.94565217390996,
          "velocity": 0.10236220472440945,
          "duration": 0.08695652173912549
        },
        {
          "name": "F#7",
          "midi": 102,
          "time": 78.94565217390996,
          "velocity": 0.16535433070866143,
          "duration": 0.0760869565217348
        },
        {
          "name": "D4",
          "midi": 62,
          "time": 78.96739130434474,
          "velocity": 0.08661417322834646,
          "duration": 0.03260869565217206
        },
        {
          "name": "G#6",
          "midi": 92,
          "time": 78.98913043477953,
          "velocity": 0.07874015748031496,
          "duration": 0.03260869565217206
        },
        {
          "name": "C5",
          "midi": 72,
          "time": 79.0217391304317,
          "velocity": 0.23622047244094488,
          "duration": 0.08695652173912549
        },
        {
          "name": "E5",
          "midi": 76,
          "time": 79.0217391304317,
          "velocity": 0.2204724409448819,
          "duration": 0.0760869565217348
        },
        {
          "name": "A#5",
          "midi": 82,
          "time": 79.0217391304317,
          "velocity": 0.2204724409448819,
          "duration": 0.09782608695651618
        },
        {
          "name": "C4",
          "midi": 60,
          "time": 79.03260869564909,
          "velocity": 0.07874015748031496,
          "duration": 0.05434782608695343
        },
        {
          "name": "G5",
          "midi": 79,
          "time": 79.03260869564909,
          "velocity": 0.11811023622047244,
          "duration": 0.05434782608695343
        },
        {
          "name": "C7",
          "midi": 96,
          "time": 79.03260869564909,
          "velocity": 0.15748031496062992,
          "duration": 0.0760869565217348
        },
        {
          "name": "G4",
          "midi": 67,
          "time": 79.04347826086648,
          "velocity": 0.2047244094488189,
          "duration": 0.06521739130434412
        },
        {
          "name": "F7",
          "midi": 101,
          "time": 79.04347826086648,
          "velocity": 0.10236220472440945,
          "duration": 0.03260869565217206
        },
        {
          "name": "F#7",
          "midi": 102,
          "time": 79.05434782608387,
          "velocity": 0.09448818897637795,
          "duration": 0.05434782608695343
        },
        {
          "name": "B6",
          "midi": 95,
          "time": 79.06521739130126,
          "velocity": 0.18110236220472442,
          "duration": 0.05434782608695343
        },
        {
          "name": "D#7",
          "midi": 99,
          "time": 79.07608695651865,
          "velocity": 0.11811023622047244,
          "duration": 0.03260869565217206
        },
        {
          "name": "A4",
          "midi": 69,
          "time": 79.32608695651865,
          "velocity": 0.1968503937007874,
          "duration": 0.09782608695651618
        },
        {
          "name": "D5",
          "midi": 74,
          "time": 79.32608695651865,
          "velocity": 0.2283464566929134,
          "duration": 0.09782608695651618
        },
        {
          "name": "C#7",
          "midi": 97,
          "time": 79.32608695651865,
          "velocity": 0.2204724409448819,
          "duration": 0.09782608695651618
        },
        {
          "name": "D7",
          "midi": 98,
          "time": 79.32608695651865,
          "velocity": 0.25984251968503935,
          "duration": 0.0760869565217348
        },
        {
          "name": "A5",
          "midi": 81,
          "time": 79.33695652173604,
          "velocity": 0.2047244094488189,
          "duration": 0.11956521739129755
        },
        {
          "name": "C7",
          "midi": 96,
          "time": 79.33695652173604,
          "velocity": 0.2125984251968504,
          "duration": 0.10869565217390686
        },
        {
          "name": "F7",
          "midi": 101,
          "time": 79.33695652173604,
          "velocity": 0.13385826771653545,
          "duration": 0.09782608695651618
        },
        {
          "name": "G7",
          "midi": 103,
          "time": 79.33695652173604,
          "velocity": 0.1732283464566929,
          "duration": 0.09782608695651618
        },
        {
          "name": "D#7",
          "midi": 99,
          "time": 79.34782608695343,
          "velocity": 0.12598425196850394,
          "duration": 0.09782608695651618
        },
        {
          "name": "C6",
          "midi": 84,
          "time": 79.35869565217082,
          "velocity": 0.2755905511811024,
          "duration": 0.08695652173912549
        },
        {
          "name": "G#6",
          "midi": 92,
          "time": 79.35869565217082,
          "velocity": 0.2047244094488189,
          "duration": 0.0760869565217348
        },
        {
          "name": "A#6",
          "midi": 94,
          "time": 79.36956521738821,
          "velocity": 0.16535433070866143,
          "duration": 0.0760869565217348
        },
        {
          "name": "E7",
          "midi": 100,
          "time": 79.36956521738821,
          "velocity": 0.2125984251968504,
          "duration": 0.0760869565217348
        },
        {
          "name": "D4",
          "midi": 62,
          "time": 79.3804347826056,
          "velocity": 0.07086614173228346,
          "duration": 0.05434782608695343
        },
        {
          "name": "F#5",
          "midi": 78,
          "time": 79.391304347823,
          "velocity": 0.07086614173228346,
          "duration": 0.03260869565217206
        },
        {
          "name": "E6",
          "midi": 88,
          "time": 79.391304347823,
          "velocity": 0.13385826771653545,
          "duration": 0.05434782608695343
        },
        {
          "name": "A#2",
          "midi": 46,
          "time": 79.4999999999969,
          "velocity": 0.5433070866141733,
          "duration": 0.010869565217390686
        },
        {
          "name": "D2",
          "midi": 38,
          "time": 79.51086956521429,
          "velocity": 0.5511811023622047,
          "duration": 0.010869565217390686
        },
        {
          "name": "A#1",
          "midi": 34,
          "time": 79.52173913043168,
          "velocity": 0.5354330708661418,
          "duration": 0.010869565217390686
        },
        {
          "name": "A1",
          "midi": 33,
          "time": 79.53260869564907,
          "velocity": 0.5354330708661418,
          "duration": 0.010869565217390686
        },
        {
          "name": "G#1",
          "midi": 32,
          "time": 79.54347826086646,
          "velocity": 0.5275590551181102,
          "duration": 0.010869565217390686
        },
        {
          "name": "G1",
          "midi": 31,
          "time": 79.55434782608386,
          "velocity": 0.5118110236220472,
          "duration": 0.010869565217390686
        },
        {
          "name": "F#1",
          "midi": 30,
          "time": 79.56521739130125,
          "velocity": 0.49606299212598426,
          "duration": 0.021739130434781373
        },
        {
          "name": "F#1",
          "midi": 30,
          "time": 79.59782608695342,
          "velocity": 0.4330708661417323,
          "duration": 0.021739130434781373
        },
        {
          "name": "F1",
          "midi": 29,
          "time": 79.6195652173882,
          "velocity": 0.3464566929133858,
          "duration": 0.03260869565217206
        },
        {
          "name": "G#6",
          "midi": 92,
          "time": 79.63043478260559,
          "velocity": 0.2125984251968504,
          "duration": 0.08695652173912549
        },
        {
          "name": "A#3",
          "midi": 58,
          "time": 79.64130434782298,
          "velocity": 0.2283464566929134,
          "duration": 0.14130434782607892
        },
        {
          "name": "F4",
          "midi": 65,
          "time": 79.64130434782298,
          "velocity": 0.1889763779527559,
          "duration": 0.09782608695651618
        },
        {
          "name": "A#5",
          "midi": 82,
          "time": 79.64130434782298,
          "velocity": 0.1968503937007874,
          "duration": 0.08695652173912549
        },
        {
          "name": "F#6",
          "midi": 90,
          "time": 79.64130434782298,
          "velocity": 0.1968503937007874,
          "duration": 0.06521739130434412
        },
        {
          "name": "A6",
          "midi": 93,
          "time": 79.64130434782298,
          "velocity": 0.18110236220472442,
          "duration": 0.09782608695651618
        },
        {
          "name": "D#7",
          "midi": 99,
          "time": 79.64130434782298,
          "velocity": 0.14173228346456693,
          "duration": 0.13043478260868824
        },
        {
          "name": "E7",
          "midi": 100,
          "time": 79.64130434782298,
          "velocity": 0.09448818897637795,
          "duration": 0.11956521739129755
        },
        {
          "name": "F5",
          "midi": 77,
          "time": 79.65217391304037,
          "velocity": 0.25196850393700787,
          "duration": 0.14130434782607892
        },
        {
          "name": "B6",
          "midi": 95,
          "time": 79.65217391304037,
          "velocity": 0.1732283464566929,
          "duration": 0.11956521739129755
        },
        {
          "name": "D7",
          "midi": 98,
          "time": 79.66304347825776,
          "velocity": 0.18110236220472442,
          "duration": 0.10869565217390686
        },
        {
          "name": "G#5",
          "midi": 80,
          "time": 79.67391304347515,
          "velocity": 0.2047244094488189,
          "duration": 0.09782608695651618
        },
        {
          "name": "C#7",
          "midi": 97,
          "time": 79.67391304347515,
          "velocity": 0.1732283464566929,
          "duration": 0.09782608695651618
        },
        {
          "name": "D6",
          "midi": 86,
          "time": 79.68478260869254,
          "velocity": 0.23622047244094488,
          "duration": 0.10869565217390686
        },
        {
          "name": "G6",
          "midi": 91,
          "time": 79.70652173912733,
          "velocity": 0.13385826771653545,
          "duration": 0.03260869565217206
        },
        {
          "name": "A#6",
          "midi": 94,
          "time": 79.70652173912733,
          "velocity": 0.2204724409448819,
          "duration": 0.0760869565217348
        },
        {
          "name": "D5",
          "midi": 74,
          "time": 79.7391304347795,
          "velocity": 0.10236220472440945,
          "duration": 0.03260869565217206
        },
        {
          "name": "G6",
          "midi": 91,
          "time": 79.76086956521428,
          "velocity": 0.07086614173228346,
          "duration": 0.03260869565217206
        },
        {
          "name": "F4",
          "midi": 65,
          "time": 79.93478260869254,
          "velocity": 0.2125984251968504,
          "duration": 0.05434782608695343
        },
        {
          "name": "G#5",
          "midi": 80,
          "time": 79.93478260869254,
          "velocity": 0.2047244094488189,
          "duration": 0.06521739130434412
        },
        {
          "name": "F6",
          "midi": 89,
          "time": 79.93478260869254,
          "velocity": 0.2283464566929134,
          "duration": 0.08695652173912549
        },
        {
          "name": "A#3",
          "midi": 58,
          "time": 79.94565217390993,
          "velocity": 0.2283464566929134,
          "duration": 0.0760869565217348
        },
        {
          "name": "F5",
          "midi": 77,
          "time": 79.94565217390993,
          "velocity": 0.2204724409448819,
          "duration": 0.0760869565217348
        },
        {
          "name": "A#6",
          "midi": 94,
          "time": 79.94565217390993,
          "velocity": 0.09448818897637795,
          "duration": 0.03260869565217206
        },
        {
          "name": "C7",
          "midi": 96,
          "time": 79.94565217390993,
          "velocity": 0.16535433070866143,
          "duration": 0.05434782608695343
        },
        {
          "name": "C#7",
          "midi": 97,
          "time": 79.94565217390993,
          "velocity": 0.13385826771653545,
          "duration": 0.06521739130434412
        },
        {
          "name": "D5",
          "midi": 74,
          "time": 79.96739130434472,
          "velocity": 0.16535433070866143,
          "duration": 0.043478260869562746
        },
        {
          "name": "D#5",
          "midi": 75,
          "time": 80.08695652173601,
          "velocity": 0.2047244094488189,
          "duration": 0.03260869565217206
        },
        {
          "name": "G#5",
          "midi": 80,
          "time": 80.08695652173601,
          "velocity": 0.23622047244094488,
          "duration": 0.05434782608695343
        },
        {
          "name": "B5",
          "midi": 83,
          "time": 80.08695652173601,
          "velocity": 0.14173228346456693,
          "duration": 0.03260869565217206
        },
        {
          "name": "D6",
          "midi": 86,
          "time": 80.08695652173601,
          "velocity": 0.12598425196850394,
          "duration": 0.03260869565217206
        },
        {
          "name": "F6",
          "midi": 89,
          "time": 80.08695652173601,
          "velocity": 0.28346456692913385,
          "duration": 0.09782608695651618
        },
        {
          "name": "A6",
          "midi": 93,
          "time": 80.08695652173601,
          "velocity": 0.1968503937007874,
          "duration": 0.06521739130434412
        },
        {
          "name": "C7",
          "midi": 96,
          "time": 80.08695652173601,
          "velocity": 0.2125984251968504,
          "duration": 0.14130434782607892
        },
        {
          "name": "D#7",
          "midi": 99,
          "time": 80.08695652173601,
          "velocity": 0.09448818897637795,
          "duration": 0.043478260869562746
        },
        {
          "name": "E7",
          "midi": 100,
          "time": 80.08695652173601,
          "velocity": 0.1889763779527559,
          "duration": 0.14130434782607892
        },
        {
          "name": "G7",
          "midi": 103,
          "time": 80.08695652173601,
          "velocity": 0.1968503937007874,
          "duration": 0.03260869565217206
        },
        {
          "name": "F5",
          "midi": 77,
          "time": 80.0978260869534,
          "velocity": 0.30708661417322836,
          "duration": 0.14130434782607892
        },
        {
          "name": "A5",
          "midi": 81,
          "time": 80.0978260869534,
          "velocity": 0.1732283464566929,
          "duration": 0.03260869565217206
        },
        {
          "name": "F#6",
          "midi": 90,
          "time": 80.0978260869534,
          "velocity": 0.14960629921259844,
          "duration": 0.03260869565217206
        },
        {
          "name": "G6",
          "midi": 91,
          "time": 80.0978260869534,
          "velocity": 0.16535433070866143,
          "duration": 0.03260869565217206
        },
        {
          "name": "B6",
          "midi": 95,
          "time": 80.0978260869534,
          "velocity": 0.2047244094488189,
          "duration": 0.14130434782607892
        },
        {
          "name": "A#3",
          "midi": 58,
          "time": 80.1086956521708,
          "velocity": 0.5669291338582677,
          "duration": 0.010869565217390686
        },
        {
          "name": "C#7",
          "midi": 97,
          "time": 80.1086956521708,
          "velocity": 0.2204724409448819,
          "duration": 0.13043478260868824
        },
        {
          "name": "A3",
          "midi": 57,
          "time": 80.11956521738819,
          "velocity": 0.5826771653543307,
          "duration": 0.043478260869562746
        },
        {
          "name": "D5",
          "midi": 74,
          "time": 80.13043478260558,
          "velocity": 0.2283464566929134,
          "duration": 0.11956521739129755
        },
        {
          "name": "E6",
          "midi": 88,
          "time": 80.13043478260558,
          "velocity": 0.15748031496062992,
          "duration": 0.03260869565217206
        },
        {
          "name": "D7",
          "midi": 98,
          "time": 80.13043478260558,
          "velocity": 0.15748031496062992,
          "duration": 0.09782608695651618
        },
        {
          "name": "A#6",
          "midi": 94,
          "time": 80.14130434782297,
          "velocity": 0.15748031496062992,
          "duration": 0.09782608695651618
        },
        {
          "name": "A#5",
          "midi": 82,
          "time": 80.15217391304036,
          "velocity": 0.1968503937007874,
          "duration": 0.09782608695651618
        },
        {
          "name": "F#6",
          "midi": 90,
          "time": 80.15217391304036,
          "velocity": 0.13385826771653545,
          "duration": 0.05434782608695343
        },
        {
          "name": "G#3",
          "midi": 56,
          "time": 80.16304347825775,
          "velocity": 0.3858267716535433,
          "duration": 0.03260869565217206
        },
        {
          "name": "F4",
          "midi": 65,
          "time": 80.16304347825775,
          "velocity": 0.15748031496062992,
          "duration": 0.06521739130434412
        },
        {
          "name": "G#5",
          "midi": 80,
          "time": 80.16304347825775,
          "velocity": 0.18110236220472442,
          "duration": 0.03260869565217206
        },
        {
          "name": "C#6",
          "midi": 85,
          "time": 80.19565217390992,
          "velocity": 0.14173228346456693,
          "duration": 0.05434782608695343
        },
        {
          "name": "D#6",
          "midi": 87,
          "time": 80.22826086956209,
          "velocity": 0.11023622047244094,
          "duration": 0.03260869565217206
        },
        {
          "name": "G4",
          "midi": 67,
          "time": 80.23913043477948,
          "velocity": 0.2204724409448819,
          "duration": 0.13043478260868824
        },
        {
          "name": "F6",
          "midi": 89,
          "time": 80.23913043477948,
          "velocity": 0.29133858267716534,
          "duration": 0.021739130434781373
        },
        {
          "name": "C7",
          "midi": 96,
          "time": 80.23913043477948,
          "velocity": 0.2047244094488189,
          "duration": 0.14130434782607892
        },
        {
          "name": "G5",
          "midi": 79,
          "time": 80.24999999999687,
          "velocity": 0.3228346456692913,
          "duration": 0.0760869565217348
        },
        {
          "name": "C6",
          "midi": 84,
          "time": 80.24999999999687,
          "velocity": 0.08661417322834646,
          "duration": 0.03260869565217206
        },
        {
          "name": "C#7",
          "midi": 97,
          "time": 80.24999999999687,
          "velocity": 0.2125984251968504,
          "duration": 0.13043478260868824
        },
        {
          "name": "C4",
          "midi": 60,
          "time": 80.26086956521426,
          "velocity": 0.1732283464566929,
          "duration": 0.08695652173912549
        },
        {
          "name": "E5",
          "midi": 76,
          "time": 80.26086956521426,
          "velocity": 0.2755905511811024,
          "duration": 0.11956521739129755
        },
        {
          "name": "F#6",
          "midi": 90,
          "time": 80.26086956521426,
          "velocity": 0.30708661417322836,
          "duration": 0.0760869565217348
        },
        {
          "name": "A#5",
          "midi": 82,
          "time": 80.28260869564905,
          "velocity": 0.1732283464566929,
          "duration": 0.043478260869562746
        },
        {
          "name": "C6",
          "midi": 84,
          "time": 80.29347826086644,
          "velocity": 0.25984251968503935,
          "duration": 0.10869565217390686
        },
        {
          "name": "G#6",
          "midi": 92,
          "time": 80.30434782608383,
          "velocity": 0.1889763779527559,
          "duration": 0.06521739130434412
        },
        {
          "name": "B6",
          "midi": 95,
          "time": 80.30434782608383,
          "velocity": 0.13385826771653545,
          "duration": 0.06521739130434412
        },
        {
          "name": "A#6",
          "midi": 94,
          "time": 80.32608695651861,
          "velocity": 0.11811023622047244,
          "duration": 0.03260869565217206
        },
        {
          "name": "A5",
          "midi": 81,
          "time": 80.39130434782295,
          "velocity": 0.3464566929133858,
          "duration": 0.06521739130434412
        },
        {
          "name": "A4",
          "midi": 69,
          "time": 80.40217391304034,
          "velocity": 0.1968503937007874,
          "duration": 0.10869565217390686
        },
        {
          "name": "D5",
          "midi": 74,
          "time": 80.40217391304034,
          "velocity": 0.18110236220472442,
          "duration": 0.10869565217390686
        },
        {
          "name": "E5",
          "midi": 76,
          "time": 80.40217391304034,
          "velocity": 0.10236220472440945,
          "duration": 0.05434782608695343
        },
        {
          "name": "F#5",
          "midi": 78,
          "time": 80.40217391304034,
          "velocity": 0.2992125984251969,
          "duration": 0.13043478260868824
        },
        {
          "name": "B5",
          "midi": 83,
          "time": 80.40217391304034,
          "velocity": 0.14173228346456693,
          "duration": 0.043478260869562746
        },
        {
          "name": "A#6",
          "midi": 94,
          "time": 80.40217391304034,
          "velocity": 0.1889763779527559,
          "duration": 0.09782608695651618
        },
        {
          "name": "C#7",
          "midi": 97,
          "time": 80.40217391304034,
          "velocity": 0.25984251968503935,
          "duration": 0.11956521739129755
        },
        {
          "name": "D7",
          "midi": 98,
          "time": 80.40217391304034,
          "velocity": 0.2204724409448819,
          "duration": 0.14130434782607892
        },
        {
          "name": "D#7",
          "midi": 99,
          "time": 80.40217391304034,
          "velocity": 0.16535433070866143,
          "duration": 0.09782608695651618
        },
        {
          "name": "E7",
          "midi": 100,
          "time": 80.40217391304034,
          "velocity": 0.15748031496062992,
          "duration": 0.1521739130434696
        },
        {
          "name": "G#6",
          "midi": 92,
          "time": 80.41304347825773,
          "velocity": 0.25196850393700787,
          "duration": 0.05434782608695343
        },
        {
          "name": "F#7",
          "midi": 102,
          "time": 80.42391304347512,
          "velocity": 0.2992125984251969,
          "duration": 0.20652173913042304
        },
        {
          "name": "E6",
          "midi": 88,
          "time": 80.43478260869252,
          "velocity": 0.28346456692913385,
          "duration": 0.11956521739129755
        },
        {
          "name": "G#5",
          "midi": 80,
          "time": 80.4456521739099,
          "velocity": 0.36220472440944884,
          "duration": 0.05434782608695343
        },
        {
          "name": "D6",
          "midi": 86,
          "time": 80.4456521739099,
          "velocity": 0.25196850393700787,
          "duration": 0.06521739130434412
        },
        {
          "name": "C7",
          "midi": 96,
          "time": 80.4565217391273,
          "velocity": 0.08661417322834646,
          "duration": 0.043478260869562746
        },
        {
          "name": "A#5",
          "midi": 82,
          "time": 80.47826086956208,
          "velocity": 0.16535433070866143,
          "duration": 0.0760869565217348
        },
        {
          "name": "C#6",
          "midi": 85,
          "time": 80.47826086956208,
          "velocity": 0.16535433070866143,
          "duration": 0.0760869565217348
        },
        {
          "name": "G#5",
          "midi": 80,
          "time": 80.51086956521425,
          "velocity": 0.14960629921259844,
          "duration": 0.03260869565217206
        },
        {
          "name": "G#6",
          "midi": 92,
          "time": 80.51086956521425,
          "velocity": 0.1968503937007874,
          "duration": 0.10869565217390686
        },
        {
          "name": "G#5",
          "midi": 80,
          "time": 80.58695652173598,
          "velocity": 0.14173228346456693,
          "duration": 0.11956521739129755
        },
        {
          "name": "F#4",
          "midi": 66,
          "time": 80.69565217390989,
          "velocity": 0.2125984251968504,
          "duration": 0.03260869565217206
        },
        {
          "name": "C5",
          "midi": 72,
          "time": 80.69565217390989,
          "velocity": 0.16535433070866143,
          "duration": 0.043478260869562746
        },
        {
          "name": "A#2",
          "midi": 46,
          "time": 80.70652173912728,
          "velocity": 0.5748031496062992,
          "duration": 0.021739130434781373
        },
        {
          "name": "F#2",
          "midi": 42,
          "time": 80.72826086956206,
          "velocity": 0.5590551181102362,
          "duration": 0.010869565217390686
        },
        {
          "name": "B5",
          "midi": 83,
          "time": 80.72826086956206,
          "velocity": 0.11811023622047244,
          "duration": 0.14130434782607892
        },
        {
          "name": "A1",
          "midi": 33,
          "time": 80.74999999999685,
          "velocity": 0.5196850393700787,
          "duration": 0.010869565217390686
        },
        {
          "name": "A5",
          "midi": 81,
          "time": 80.74999999999685,
          "velocity": 0.14960629921259844,
          "duration": 0.03260869565217206
        },
        {
          "name": "G#1",
          "midi": 32,
          "time": 80.76086956521424,
          "velocity": 0.5669291338582677,
          "duration": 0.021739130434781373
        },
        {
          "name": "G4",
          "midi": 67,
          "time": 80.76086956521424,
          "velocity": 0.1968503937007874,
          "duration": 0.06521739130434412
        },
        {
          "name": "G5",
          "midi": 79,
          "time": 80.76086956521424,
          "velocity": 0.1968503937007874,
          "duration": 0.0760869565217348
        },
        {
          "name": "G1",
          "midi": 31,
          "time": 80.78260869564902,
          "velocity": 0.5511811023622047,
          "duration": 0.021739130434781373
        },
        {
          "name": "D3",
          "midi": 50,
          "time": 80.8043478260838,
          "velocity": 0.2677165354330709,
          "duration": 0.05434782608695343
        },
        {
          "name": "B4",
          "midi": 71,
          "time": 80.8043478260838,
          "velocity": 0.2440944881889764,
          "duration": 0.08695652173912549
        },
        {
          "name": "F5",
          "midi": 77,
          "time": 80.8043478260838,
          "velocity": 0.16535433070866143,
          "duration": 0.043478260869562746
        },
        {
          "name": "G1",
          "midi": 31,
          "time": 80.81521739130119,
          "velocity": 0.4566929133858268,
          "duration": 0.021739130434781373
        },
        {
          "name": "D#5",
          "midi": 75,
          "time": 80.81521739130119,
          "velocity": 0.08661417322834646,
          "duration": 0.03260869565217206
        },
        {
          "name": "G4",
          "midi": 67,
          "time": 80.83695652173597,
          "velocity": 0.2755905511811024,
          "duration": 0.2391304347825951
        },
        {
          "name": "G1",
          "midi": 31,
          "time": 80.86956521738814,
          "velocity": 0.5354330708661418,
          "duration": 0.45652173913040883
        },
        {
          "name": "D4",
          "midi": 62,
          "time": 80.86956521738814,
          "velocity": 0.2440944881889764,
          "duration": 0.21739130434781373
        },
        {
          "name": "G#6",
          "midi": 92,
          "time": 80.88043478260553,
          "velocity": 0.09448818897637795,
          "duration": 0.043478260869562746
        },
        {
          "name": "B5",
          "midi": 83,
          "time": 80.89130434782292,
          "velocity": 0.14960629921259844,
          "duration": 0.1521739130434696
        },
        {
          "name": "B4",
          "midi": 71,
          "time": 80.9130434782577,
          "velocity": 0.1732283464566929,
          "duration": 0.11956521739129755
        },
        {
          "name": "F5",
          "midi": 77,
          "time": 80.9239130434751,
          "velocity": 0.12598425196850394,
          "duration": 0.08695652173912549
        },
        {
          "name": "A4",
          "midi": 69,
          "time": 81.16304347825769,
          "velocity": 0.23622047244094488,
          "duration": 0.0760869565217348
        },
        {
          "name": "F#5",
          "midi": 78,
          "time": 81.16304347825769,
          "velocity": 0.2677165354330709,
          "duration": 0.0760869565217348
        },
        {
          "name": "C7",
          "midi": 96,
          "time": 81.16304347825769,
          "velocity": 0.11811023622047244,
          "duration": 0.08695652173912549
        },
        {
          "name": "A5",
          "midi": 81,
          "time": 81.17391304347508,
          "velocity": 0.28346456692913385,
          "duration": 0.05434782608695343
        },
        {
          "name": "D7",
          "midi": 98,
          "time": 81.17391304347508,
          "velocity": 0.13385826771653545,
          "duration": 0.0760869565217348
        },
        {
          "name": "D#7",
          "midi": 99,
          "time": 81.18478260869247,
          "velocity": 0.2204724409448819,
          "duration": 0.09782608695651618
        },
        {
          "name": "E7",
          "midi": 100,
          "time": 81.18478260869247,
          "velocity": 0.2283464566929134,
          "duration": 0.36956521739128334
        },
        {
          "name": "C6",
          "midi": 84,
          "time": 81.19565217390986,
          "velocity": 0.2047244094488189,
          "duration": 0.043478260869562746
        },
        {
          "name": "G#6",
          "midi": 92,
          "time": 81.19565217390986,
          "velocity": 0.23622047244094488,
          "duration": 0.0760869565217348
        },
        {
          "name": "A#6",
          "midi": 94,
          "time": 81.21739130434464,
          "velocity": 0.2677165354330709,
          "duration": 0.11956521739129755
        },
        {
          "name": "A#5",
          "midi": 82,
          "time": 81.22826086956204,
          "velocity": 0.2677165354330709,
          "duration": 0.08695652173912549
        },
        {
          "name": "A#4",
          "midi": 70,
          "time": 81.23913043477943,
          "velocity": 0.1889763779527559,
          "duration": 0.03260869565217206
        },
        {
          "name": "F7",
          "midi": 101,
          "time": 81.23913043477943,
          "velocity": 0.2204724409448819,
          "duration": 0.21739130434781373
        },
        {
          "name": "D#4",
          "midi": 63,
          "time": 81.24999999999682,
          "velocity": 0.14960629921259844,
          "duration": 0.06521739130434412
        },
        {
          "name": "G5",
          "midi": 79,
          "time": 81.24999999999682,
          "velocity": 0.30708661417322836,
          "duration": 0.05434782608695343
        },
        {
          "name": "C#7",
          "midi": 97,
          "time": 81.24999999999682,
          "velocity": 0.14173228346456693,
          "duration": 0.09782608695651618
        },
        {
          "name": "C#6",
          "midi": 85,
          "time": 81.26086956521421,
          "velocity": 0.15748031496062992,
          "duration": 0.0760869565217348
        },
        {
          "name": "A6",
          "midi": 93,
          "time": 81.2717391304316,
          "velocity": 0.2047244094488189,
          "duration": 0.18478260869564167
        },
        {
          "name": "B6",
          "midi": 95,
          "time": 81.2717391304316,
          "velocity": 0.11023622047244094,
          "duration": 0.03260869565217206
        },
        {
          "name": "D#6",
          "midi": 87,
          "time": 81.28260869564899,
          "velocity": 0.11811023622047244,
          "duration": 0.03260869565217206
        },
        {
          "name": "A4",
          "midi": 69,
          "time": 81.30434782608377,
          "velocity": 0.30708661417322836,
          "duration": 0.03260869565217206
        },
        {
          "name": "E6",
          "midi": 88,
          "time": 81.30434782608377,
          "velocity": 0.25984251968503935,
          "duration": 0.1521739130434696
        },
        {
          "name": "G#6",
          "midi": 92,
          "time": 81.30434782608377,
          "velocity": 0.2440944881889764,
          "duration": 0.03260869565217206
        },
        {
          "name": "C7",
          "midi": 96,
          "time": 81.30434782608377,
          "velocity": 0.16535433070866143,
          "duration": 0.043478260869562746
        },
        {
          "name": "D#7",
          "midi": 99,
          "time": 81.30434782608377,
          "velocity": 0.18110236220472442,
          "duration": 0.13043478260868824
        },
        {
          "name": "A#3",
          "midi": 58,
          "time": 81.31521739130116,
          "velocity": 0.5275590551181102,
          "duration": 0.021739130434781373
        },
        {
          "name": "C#5",
          "midi": 73,
          "time": 81.31521739130116,
          "velocity": 0.2204724409448819,
          "duration": 0.03260869565217206
        },
        {
          "name": "B6",
          "midi": 95,
          "time": 81.31521739130116,
          "velocity": 0.08661417322834646,
          "duration": 0.03260869565217206
        },
        {
          "name": "G7",
          "midi": 103,
          "time": 81.31521739130116,
          "velocity": 0.15748031496062992,
          "duration": 0.03260869565217206
        },
        {
          "name": "F#4",
          "midi": 66,
          "time": 81.32608695651855,
          "velocity": 0.2755905511811024,
          "duration": 0.021739130434781373
        },
        {
          "name": "C6",
          "midi": 84,
          "time": 81.32608695651855,
          "velocity": 0.15748031496062992,
          "duration": 0.06521739130434412
        },
        {
          "name": "A3",
          "midi": 57,
          "time": 81.33695652173594,
          "velocity": 0.5905511811023622,
          "duration": 0.043478260869562746
        },
        {
          "name": "E5",
          "midi": 76,
          "time": 81.33695652173594,
          "velocity": 0.07874015748031496,
          "duration": 0.03260869565217206
        },
        {
          "name": "F#5",
          "midi": 78,
          "time": 81.34782608695333,
          "velocity": 0.28346456692913385,
          "duration": 0.10869565217390686
        },
        {
          "name": "A#6",
          "midi": 94,
          "time": 81.34782608695333,
          "velocity": 0.10236220472440945,
          "duration": 0.043478260869562746
        },
        {
          "name": "G#6",
          "midi": 92,
          "time": 81.35869565217072,
          "velocity": 0.25984251968503935,
          "duration": 0.05434782608695343
        },
        {
          "name": "C#7",
          "midi": 97,
          "time": 81.36956521738811,
          "velocity": 0.16535433070866143,
          "duration": 0.11956521739129755
        },
        {
          "name": "G#3",
          "midi": 56,
          "time": 81.3804347826055,
          "velocity": 0.47244094488188976,
          "duration": 0.043478260869562746
        },
        {
          "name": "D4",
          "midi": 62,
          "time": 81.3804347826055,
          "velocity": 0.13385826771653545,
          "duration": 0.03260869565217206
        },
        {
          "name": "A4",
          "midi": 69,
          "time": 81.3804347826055,
          "velocity": 0.13385826771653545,
          "duration": 0.0760869565217348
        },
        {
          "name": "D5",
          "midi": 74,
          "time": 81.3804347826055,
          "velocity": 0.14173228346456693,
          "duration": 0.0760869565217348
        },
        {
          "name": "A5",
          "midi": 81,
          "time": 81.3804347826055,
          "velocity": 0.18110236220472442,
          "duration": 0.06521739130434412
        },
        {
          "name": "C7",
          "midi": 96,
          "time": 81.3913043478229,
          "velocity": 0.14960629921259844,
          "duration": 0.043478260869562746
        },
        {
          "name": "G7",
          "midi": 103,
          "time": 81.3913043478229,
          "velocity": 0.07874015748031496,
          "duration": 0.043478260869562746
        },
        {
          "name": "G6",
          "midi": 91,
          "time": 81.41304347825768,
          "velocity": 0.2677165354330709,
          "duration": 0.13043478260868824
        },
        {
          "name": "C6",
          "midi": 84,
          "time": 81.42391304347507,
          "velocity": 0.13385826771653545,
          "duration": 0.03260869565217206
        },
        {
          "name": "A#6",
          "midi": 94,
          "time": 81.42391304347507,
          "velocity": 0.16535433070866143,
          "duration": 0.043478260869562746
        },
        {
          "name": "G#6",
          "midi": 92,
          "time": 81.44565217390985,
          "velocity": 0.2204724409448819,
          "duration": 0.09782608695651618
        },
        {
          "name": "A#5",
          "midi": 82,
          "time": 81.45652173912724,
          "velocity": 0.25984251968503935,
          "duration": 0.08695652173912549
        },
        {
          "name": "B3",
          "midi": 59,
          "time": 81.46739130434463,
          "velocity": 0.2125984251968504,
          "duration": 0.03260869565217206
        },
        {
          "name": "G5",
          "midi": 79,
          "time": 81.46739130434463,
          "velocity": 0.23622047244094488,
          "duration": 0.11956521739129755
        },
        {
          "name": "C7",
          "midi": 96,
          "time": 81.46739130434463,
          "velocity": 0.11023622047244094,
          "duration": 0.03260869565217206
        },
        {
          "name": "D7",
          "midi": 98,
          "time": 81.47826086956202,
          "velocity": 0.12598425196850394,
          "duration": 0.06521739130434412
        },
        {
          "name": "D#7",
          "midi": 99,
          "time": 81.47826086956202,
          "velocity": 0.16535433070866143,
          "duration": 0.0760869565217348
        },
        {
          "name": "B6",
          "midi": 95,
          "time": 81.48913043477941,
          "velocity": 0.12598425196850394,
          "duration": 0.06521739130434412
        },
        {
          "name": "C4",
          "midi": 60,
          "time": 81.4999999999968,
          "velocity": 0.2125984251968504,
          "duration": 0.05434782608695343
        },
        {
          "name": "G4",
          "midi": 67,
          "time": 81.4999999999968,
          "velocity": 0.13385826771653545,
          "duration": 0.03260869565217206
        },
        {
          "name": "E5",
          "midi": 76,
          "time": 81.4999999999968,
          "velocity": 0.18110236220472442,
          "duration": 0.06521739130434412
        },
        {
          "name": "C6",
          "midi": 84,
          "time": 81.4999999999968,
          "velocity": 0.16535433070866143,
          "duration": 0.043478260869562746
        },
        {
          "name": "D6",
          "midi": 86,
          "time": 81.5108695652142,
          "velocity": 0.14960629921259844,
          "duration": 0.05434782608695343
        },
        {
          "name": "D5",
          "midi": 74,
          "time": 81.77173913043158,
          "velocity": 0.2125984251968504,
          "duration": 0.11956521739129755
        },
        {
          "name": "C6",
          "midi": 84,
          "time": 81.77173913043158,
          "velocity": 0.25984251968503935,
          "duration": 0.1630434782608603
        },
        {
          "name": "C7",
          "midi": 96,
          "time": 81.77173913043158,
          "velocity": 0.29133858267716534,
          "duration": 0.14130434782607892
        },
        {
          "name": "C#7",
          "midi": 97,
          "time": 81.77173913043158,
          "velocity": 0.2125984251968504,
          "duration": 0.08695652173912549
        },
        {
          "name": "F#7",
          "midi": 102,
          "time": 81.77173913043158,
          "velocity": 0.2047244094488189,
          "duration": 0.10869565217390686
        },
        {
          "name": "G7",
          "midi": 103,
          "time": 81.77173913043158,
          "velocity": 0.2283464566929134,
          "duration": 0.10869565217390686
        },
        {
          "name": "A4",
          "midi": 69,
          "time": 81.78260869564897,
          "velocity": 0.1732283464566929,
          "duration": 0.03260869565217206
        },
        {
          "name": "A5",
          "midi": 81,
          "time": 81.78260869564897,
          "velocity": 0.23622047244094488,
          "duration": 0.1630434782608603
        },
        {
          "name": "D6",
          "midi": 86,
          "time": 81.78260869564897,
          "velocity": 0.2125984251968504,
          "duration": 0.06521739130434412
        },
        {
          "name": "F#6",
          "midi": 90,
          "time": 81.80434782608376,
          "velocity": 0.1968503937007874,
          "duration": 0.08695652173912549
        },
        {
          "name": "D#7",
          "midi": 99,
          "time": 81.80434782608376,
          "velocity": 0.2047244094488189,
          "duration": 0.08695652173912549
        },
        {
          "name": "E7",
          "midi": 100,
          "time": 81.80434782608376,
          "velocity": 0.1732283464566929,
          "duration": 0.08695652173912549
        },
        {
          "name": "D4",
          "midi": 62,
          "time": 81.81521739130115,
          "velocity": 0.07086614173228346,
          "duration": 0.05434782608695343
        },
        {
          "name": "E6",
          "midi": 88,
          "time": 81.81521739130115,
          "velocity": 0.09448818897637795,
          "duration": 0.0760869565217348
        },
        {
          "name": "A#6",
          "midi": 94,
          "time": 81.81521739130115,
          "velocity": 0.2204724409448819,
          "duration": 0.0760869565217348
        },
        {
          "name": "C#3",
          "midi": 49,
          "time": 81.93478260869244,
          "velocity": 0.5354330708661418,
          "duration": 0.010869565217390686
        },
        {
          "name": "A#2",
          "midi": 46,
          "time": 81.94565217390983,
          "velocity": 0.5511811023622047,
          "duration": 0.010869565217390686
        },
        {
          "name": "D2",
          "midi": 38,
          "time": 81.95652173912723,
          "velocity": 0.5511811023622047,
          "duration": 0.010869565217390686
        },
        {
          "name": "A#1",
          "midi": 34,
          "time": 81.96739130434462,
          "velocity": 0.5354330708661418,
          "duration": 0.010869565217390686
        },
        {
          "name": "G#1",
          "midi": 32,
          "time": 81.978260869562,
          "velocity": 0.5354330708661418,
          "duration": 0.021739130434781373
        },
        {
          "name": "G1",
          "midi": 31,
          "time": 81.99999999999679,
          "velocity": 0.5118110236220472,
          "duration": 0.010869565217390686
        },
        {
          "name": "F#1",
          "midi": 30,
          "time": 82.01086956521418,
          "velocity": 0.49606299212598426,
          "duration": 0.021739130434781373
        },
        {
          "name": "F#1",
          "midi": 30,
          "time": 82.04347826086635,
          "velocity": 0.4330708661417323,
          "duration": 0.021739130434781373
        },
        {
          "name": "F1",
          "midi": 29,
          "time": 82.06521739130113,
          "velocity": 0.33858267716535434,
          "duration": 0.03260869565217206
        },
        {
          "name": "C6",
          "midi": 84,
          "time": 82.07608695651852,
          "velocity": 0.2047244094488189,
          "duration": 0.05434782608695343
        },
        {
          "name": "B6",
          "midi": 95,
          "time": 82.07608695651852,
          "velocity": 0.18110236220472442,
          "duration": 0.10869565217390686
        },
        {
          "name": "F#7",
          "midi": 102,
          "time": 82.07608695651852,
          "velocity": 0.14960629921259844,
          "duration": 0.1521739130434696
        },
        {
          "name": "F4",
          "midi": 65,
          "time": 82.08695652173591,
          "velocity": 0.2047244094488189,
          "duration": 0.14130434782607892
        },
        {
          "name": "A#4",
          "midi": 70,
          "time": 82.08695652173591,
          "velocity": 0.23622047244094488,
          "duration": 0.03260869565217206
        },
        {
          "name": "D5",
          "midi": 74,
          "time": 82.08695652173591,
          "velocity": 0.14173228346456693,
          "duration": 0.14130434782607892
        },
        {
          "name": "G#5",
          "midi": 80,
          "time": 82.08695652173591,
          "velocity": 0.25196850393700787,
          "duration": 0.1521739130434696
        },
        {
          "name": "A#5",
          "midi": 82,
          "time": 82.08695652173591,
          "velocity": 0.23622047244094488,
          "duration": 0.1521739130434696
        },
        {
          "name": "A#6",
          "midi": 94,
          "time": 82.08695652173591,
          "velocity": 0.23622047244094488,
          "duration": 0.1521739130434696
        },
        {
          "name": "E7",
          "midi": 100,
          "time": 82.08695652173591,
          "velocity": 0.15748031496062992,
          "duration": 0.13043478260868824
        },
        {
          "name": "F7",
          "midi": 101,
          "time": 82.08695652173591,
          "velocity": 0.2125984251968504,
          "duration": 0.13043478260868824
        },
        {
          "name": "A6",
          "midi": 93,
          "time": 82.0978260869533,
          "velocity": 0.2204724409448819,
          "duration": 0.14130434782607892
        },
        {
          "name": "C#7",
          "midi": 97,
          "time": 82.0978260869533,
          "velocity": 0.13385826771653545,
          "duration": 0.11956521739129755
        },
        {
          "name": "F6",
          "midi": 89,
          "time": 82.13043478260548,
          "velocity": 0.18110236220472442,
          "duration": 0.09782608695651618
        },
        {
          "name": "D7",
          "midi": 98,
          "time": 82.13043478260548,
          "velocity": 0.14960629921259844,
          "duration": 0.08695652173912549
        },
        {
          "name": "A#4",
          "midi": 70,
          "time": 82.15217391304026,
          "velocity": 0.10236220472440945,
          "duration": 0.05434782608695343
        },
        {
          "name": "A#3",
          "midi": 58,
          "time": 82.38043478260548,
          "velocity": 0.2283464566929134,
          "duration": 0.05434782608695343
        },
        {
          "name": "F4",
          "midi": 65,
          "time": 82.38043478260548,
          "velocity": 0.2047244094488189,
          "duration": 0.043478260869562746
        },
        {
          "name": "G#5",
          "midi": 80,
          "time": 82.38043478260548,
          "velocity": 0.25984251968503935,
          "duration": 0.043478260869562746
        },
        {
          "name": "A#5",
          "midi": 82,
          "time": 82.39130434782287,
          "velocity": 0.1732283464566929,
          "duration": 0.06521739130434412
        },
        {
          "name": "D6",
          "midi": 86,
          "time": 82.39130434782287,
          "velocity": 0.1732283464566929,
          "duration": 0.06521739130434412
        },
        {
          "name": "B6",
          "midi": 95,
          "time": 82.39130434782287,
          "velocity": 0.10236220472440945,
          "duration": 0.06521739130434412
        },
        {
          "name": "C7",
          "midi": 96,
          "time": 82.39130434782287,
          "velocity": 0.2047244094488189,
          "duration": 0.06521739130434412
        },
        {
          "name": "C#7",
          "midi": 97,
          "time": 82.39130434782287,
          "velocity": 0.1889763779527559,
          "duration": 0.05434782608695343
        },
        {
          "name": "D5",
          "midi": 74,
          "time": 82.40217391304026,
          "velocity": 0.1889763779527559,
          "duration": 0.043478260869562746
        },
        {
          "name": "C6",
          "midi": 84,
          "time": 82.40217391304026,
          "velocity": 0.14173228346456693,
          "duration": 0.043478260869562746
        },
        {
          "name": "F#6",
          "midi": 90,
          "time": 82.40217391304026,
          "velocity": 0.10236220472440945,
          "duration": 0.03260869565217206
        },
        {
          "name": "F#7",
          "midi": 102,
          "time": 82.43478260869243,
          "velocity": 0.08661417322834646,
          "duration": 0.03260869565217206
        },
        {
          "name": "C#5",
          "midi": 73,
          "time": 82.53260869564895,
          "velocity": 0.31496062992125984,
          "duration": 0.021739130434781373
        },
        {
          "name": "G5",
          "midi": 79,
          "time": 82.53260869564895,
          "velocity": 0.18110236220472442,
          "duration": 0.03260869565217206
        },
        {
          "name": "D#6",
          "midi": 87,
          "time": 82.53260869564895,
          "velocity": 0.18110236220472442,
          "duration": 0.03260869565217206
        },
        {
          "name": "F6",
          "midi": 89,
          "time": 82.53260869564895,
          "velocity": 0.14960629921259844,
          "duration": 0.043478260869562746
        },
        {
          "name": "A6",
          "midi": 93,
          "time": 82.53260869564895,
          "velocity": 0.2047244094488189,
          "duration": 0.03260869565217206
        },
        {
          "name": "A#6",
          "midi": 94,
          "time": 82.53260869564895,
          "velocity": 0.1889763779527559,
          "duration": 0.03260869565217206
        },
        {
          "name": "E7",
          "midi": 100,
          "time": 82.53260869564895,
          "velocity": 0.1968503937007874,
          "duration": 0.03260869565217206
        },
        {
          "name": "F7",
          "midi": 101,
          "time": 82.53260869564895,
          "velocity": 0.1889763779527559,
          "duration": 0.03260869565217206
        },
        {
          "name": "G7",
          "midi": 103,
          "time": 82.53260869564895,
          "velocity": 0.1968503937007874,
          "duration": 0.03260869565217206
        },
        {
          "name": "F#4",
          "midi": 66,
          "time": 82.54347826086634,
          "velocity": 0.36220472440944884,
          "duration": 0.021739130434781373
        },
        {
          "name": "C#7",
          "midi": 97,
          "time": 82.54347826086634,
          "velocity": 0.11023622047244094,
          "duration": 0.03260869565217206
        },
        {
          "name": "F#7",
          "midi": 102,
          "time": 82.54347826086634,
          "velocity": 0.11023622047244094,
          "duration": 0.03260869565217206
        },
        {
          "name": "A#3",
          "midi": 58,
          "time": 82.55434782608373,
          "velocity": 0.5590551181102362,
          "duration": 0.010869565217390686
        },
        {
          "name": "C5",
          "midi": 72,
          "time": 82.55434782608373,
          "velocity": 0.28346456692913385,
          "duration": 0.021739130434781373
        },
        {
          "name": "A3",
          "midi": 57,
          "time": 82.56521739130112,
          "velocity": 0.5905511811023622,
          "duration": 0.03260869565217206
        },
        {
          "name": "G1",
          "midi": 31,
          "time": 82.57608695651851,
          "velocity": 0.30708661417322836,
          "duration": 0.021739130434781373
        },
        {
          "name": "G#3",
          "midi": 56,
          "time": 82.59782608695329,
          "velocity": 0.5196850393700787,
          "duration": 0.05434782608695343
        },
        {
          "name": "G1",
          "midi": 31,
          "time": 82.60869565217068,
          "velocity": 0.5433070866141733,
          "duration": 0.20652173913042304
        },
        {
          "name": "G#5",
          "midi": 80,
          "time": 82.61956521738807,
          "velocity": 0.25196850393700787,
          "duration": 0.18478260869564167
        },
        {
          "name": "A#5",
          "midi": 82,
          "time": 82.61956521738807,
          "velocity": 0.2677165354330709,
          "duration": 0.1630434782608603
        },
        {
          "name": "C6",
          "midi": 84,
          "time": 82.66304347825763,
          "velocity": 0.23622047244094488,
          "duration": 0.11956521739129755
        },
        {
          "name": "F#5",
          "midi": 78,
          "time": 82.67391304347503,
          "velocity": 0.15748031496062992,
          "duration": 0.13043478260868824
        },
        {
          "name": "E7",
          "midi": 100,
          "time": 82.67391304347503,
          "velocity": 0.07874015748031496,
          "duration": 0.03260869565217206
        },
        {
          "name": "D#6",
          "midi": 87,
          "time": 82.68478260869242,
          "velocity": 0.10236220472440945,
          "duration": 0.13043478260868824
        },
        {
          "name": "D3",
          "midi": 50,
          "time": 82.71739130434459,
          "velocity": 0.14960629921259844,
          "duration": 0.09782608695651618
        },
        {
          "name": "C5",
          "midi": 72,
          "time": 82.73913043477937,
          "velocity": 0.1732283464566929,
          "duration": 0.05434782608695343
        },
        {
          "name": "C#6",
          "midi": 85,
          "time": 82.74999999999676,
          "velocity": 0.18110236220472442,
          "duration": 0.0760869565217348
        },
        {
          "name": "A#3",
          "midi": 58,
          "time": 82.78260869564893,
          "velocity": 0.3543307086614173,
          "duration": 0.03260869565217206
        },
        {
          "name": "E4",
          "midi": 64,
          "time": 82.78260869564893,
          "velocity": 0.25984251968503935,
          "duration": 0.03260869565217206
        },
        {
          "name": "F#1",
          "midi": 30,
          "time": 82.8152173913011,
          "velocity": 0.4330708661417323,
          "duration": 0.021739130434781373
        },
        {
          "name": "C#3",
          "midi": 49,
          "time": 82.83695652173589,
          "velocity": 0.47244094488188976,
          "duration": 0.021739130434781373
        },
        {
          "name": "B2",
          "midi": 47,
          "time": 82.85869565217067,
          "velocity": 0.5196850393700787,
          "duration": 0.010869565217390686
        },
        {
          "name": "C#2",
          "midi": 37,
          "time": 82.86956521738806,
          "velocity": 0.5511811023622047,
          "duration": 0.021739130434781373
        },
        {
          "name": "A1",
          "midi": 33,
          "time": 82.89130434782284,
          "velocity": 0.5354330708661418,
          "duration": 0.010869565217390686
        },
        {
          "name": "C#5",
          "midi": 73,
          "time": 82.90217391304023,
          "velocity": 0.12598425196850394,
          "duration": 0.0760869565217348
        },
        {
          "name": "A#5",
          "midi": 82,
          "time": 82.90217391304023,
          "velocity": 0.1889763779527559,
          "duration": 0.19565217391303236
        },
        {
          "name": "C#6",
          "midi": 85,
          "time": 82.90217391304023,
          "velocity": 0.16535433070866143,
          "duration": 0.20652173913042304
        },
        {
          "name": "C6",
          "midi": 84,
          "time": 82.91304347825762,
          "velocity": 0.08661417322834646,
          "duration": 0.08695652173912549
        },
        {
          "name": "F#1",
          "midi": 30,
          "time": 82.92391304347501,
          "velocity": 0.5354330708661418,
          "duration": 0.0760869565217348
        },
        {
          "name": "G#5",
          "midi": 80,
          "time": 82.92391304347501,
          "velocity": 0.2992125984251969,
          "duration": 0.18478260869564167
        },
        {
          "name": "D#6",
          "midi": 87,
          "time": 82.95652173912718,
          "velocity": 0.18110236220472442,
          "duration": 0.1521739130434696
        },
        {
          "name": "C5",
          "midi": 72,
          "time": 82.97826086956196,
          "velocity": 0.14173228346456693,
          "duration": 0.043478260869562746
        },
        {
          "name": "G1",
          "midi": 31,
          "time": 82.99999999999675,
          "velocity": 0.5511811023622047,
          "duration": 0.13043478260868824
        },
        {
          "name": "C7",
          "midi": 96,
          "time": 83.01086956521414,
          "velocity": 0.09448818897637795,
          "duration": 0.10869565217390686
        },
        {
          "name": "D3",
          "midi": 50,
          "time": 83.03260869564892,
          "velocity": 0.1732283464566929,
          "duration": 0.08695652173912549
        },
        {
          "name": "C5",
          "midi": 72,
          "time": 83.03260869564892,
          "velocity": 0.25984251968503935,
          "duration": 0.0760869565217348
        },
        {
          "name": "D#5",
          "midi": 75,
          "time": 83.0543478260837,
          "velocity": 0.08661417322834646,
          "duration": 0.03260869565217206
        },
        {
          "name": "F#5",
          "midi": 78,
          "time": 83.0543478260837,
          "velocity": 0.18110236220472442,
          "duration": 0.043478260869562746
        },
        {
          "name": "E6",
          "midi": 88,
          "time": 83.0543478260837,
          "velocity": 0.08661417322834646,
          "duration": 0.043478260869562746
        },
        {
          "name": "A6",
          "midi": 93,
          "time": 83.06521739130109,
          "velocity": 0.07086614173228346,
          "duration": 0.03260869565217206
        },
        {
          "name": "E7",
          "midi": 100,
          "time": 83.06521739130109,
          "velocity": 0.1732283464566929,
          "duration": 0.043478260869562746
        },
        {
          "name": "B3",
          "midi": 59,
          "time": 83.07608695651848,
          "velocity": 0.23622047244094488,
          "duration": 0.021739130434781373
        },
        {
          "name": "A#3",
          "midi": 58,
          "time": 83.09782608695326,
          "velocity": 0.3858267716535433,
          "duration": 0.021739130434781373
        },
        {
          "name": "E4",
          "midi": 64,
          "time": 83.09782608695326,
          "velocity": 0.2755905511811024,
          "duration": 0.021739130434781373
        },
        {
          "name": "B4",
          "midi": 71,
          "time": 83.14130434782282,
          "velocity": 0.18110236220472442,
          "duration": 0.05434782608695343
        },
        {
          "name": "D#4",
          "midi": 63,
          "time": 83.15217391304022,
          "velocity": 0.23622047244094488,
          "duration": 0.021739130434781373
        },
        {
          "name": "C2",
          "midi": 36,
          "time": 83.173913043475,
          "velocity": 0.5511811023622047,
          "duration": 0.010869565217390686
        },
        {
          "name": "D4",
          "midi": 62,
          "time": 83.173913043475,
          "velocity": 0.12598425196850394,
          "duration": 0.03260869565217206
        },
        {
          "name": "A1",
          "midi": 33,
          "time": 83.18478260869239,
          "velocity": 0.5511811023622047,
          "duration": 0.010869565217390686
        },
        {
          "name": "G#1",
          "midi": 32,
          "time": 83.19565217390978,
          "velocity": 0.5433070866141733,
          "duration": 0.021739130434781373
        },
        {
          "name": "A5",
          "midi": 81,
          "time": 83.19565217390978,
          "velocity": 0.16535433070866143,
          "duration": 0.05434782608695343
        },
        {
          "name": "G4",
          "midi": 67,
          "time": 83.20652173912717,
          "velocity": 0.2125984251968504,
          "duration": 0.043478260869562746
        },
        {
          "name": "F#1",
          "midi": 30,
          "time": 83.22826086956195,
          "velocity": 0.5354330708661418,
          "duration": 0.08695652173912549
        },
        {
          "name": "B4",
          "midi": 71,
          "time": 83.23913043477934,
          "velocity": 0.2440944881889764,
          "duration": 0.08695652173912549
        },
        {
          "name": "F5",
          "midi": 77,
          "time": 83.24999999999673,
          "velocity": 0.14960629921259844,
          "duration": 0.043478260869562746
        },
        {
          "name": "G4",
          "midi": 67,
          "time": 83.26086956521412,
          "velocity": 0.2677165354330709,
          "duration": 0.2499999999999858
        },
        {
          "name": "G1",
          "midi": 31,
          "time": 83.31521739130108,
          "velocity": 0.5196850393700787,
          "duration": 0.44565217391301815
        },
        {
          "name": "D4",
          "midi": 62,
          "time": 83.31521739130108,
          "velocity": 0.25196850393700787,
          "duration": 0.20652173913042304
        },
        {
          "name": "G#6",
          "midi": 92,
          "time": 83.32608695651847,
          "velocity": 0.08661417322834646,
          "duration": 0.043478260869562746
        },
        {
          "name": "B5",
          "midi": 83,
          "time": 83.33695652173586,
          "velocity": 0.14960629921259844,
          "duration": 0.08695652173912549
        },
        {
          "name": "A5",
          "midi": 81,
          "time": 83.34782608695325,
          "velocity": 0.09448818897637795,
          "duration": 0.043478260869562746
        },
        {
          "name": "B4",
          "midi": 71,
          "time": 83.35869565217064,
          "velocity": 0.14173228346456693,
          "duration": 0.09782608695651618
        },
        {
          "name": "F5",
          "midi": 77,
          "time": 83.38043478260542,
          "velocity": 0.14960629921259844,
          "duration": 0.11956521739129755
        },
        {
          "name": "E6",
          "midi": 88,
          "time": 83.60869565217062,
          "velocity": 0.1968503937007874,
          "duration": 0.0760869565217348
        },
        {
          "name": "A6",
          "midi": 93,
          "time": 83.60869565217062,
          "velocity": 0.11811023622047244,
          "duration": 0.043478260869562746
        },
        {
          "name": "D#7",
          "midi": 99,
          "time": 83.60869565217062,
          "velocity": 0.13385826771653545,
          "duration": 0.0760869565217348
        },
        {
          "name": "F#5",
          "midi": 78,
          "time": 83.61956521738801,
          "velocity": 0.2125984251968504,
          "duration": 0.0760869565217348
        },
        {
          "name": "E7",
          "midi": 100,
          "time": 83.61956521738801,
          "velocity": 0.1968503937007874,
          "duration": 0.29347826086954854
        },
        {
          "name": "G7",
          "midi": 103,
          "time": 83.61956521738801,
          "velocity": 0.07874015748031496,
          "duration": 0.06521739130434412
        },
        {
          "name": "C6",
          "midi": 84,
          "time": 83.6304347826054,
          "velocity": 0.18110236220472442,
          "duration": 0.05434782608695343
        },
        {
          "name": "D6",
          "midi": 86,
          "time": 83.6304347826054,
          "velocity": 0.23622047244094488,
          "duration": 0.06521739130434412
        },
        {
          "name": "G#6",
          "midi": 92,
          "time": 83.6304347826054,
          "velocity": 0.09448818897637795,
          "duration": 0.043478260869562746
        },
        {
          "name": "F7",
          "midi": 101,
          "time": 83.6304347826054,
          "velocity": 0.2125984251968504,
          "duration": 0.1521739130434696
        },
        {
          "name": "D4",
          "midi": 62,
          "time": 83.66304347825758,
          "velocity": 0.11023622047244094,
          "duration": 0.03260869565217206
        },
        {
          "name": "C#6",
          "midi": 85,
          "time": 83.68478260869236,
          "velocity": 0.23622047244094488,
          "duration": 0.0760869565217348
        },
        {
          "name": "G6",
          "midi": 91,
          "time": 83.68478260869236,
          "velocity": 0.23622047244094488,
          "duration": 0.05434782608695343
        },
        {
          "name": "A#6",
          "midi": 94,
          "time": 83.68478260869236,
          "velocity": 0.11023622047244094,
          "duration": 0.05434782608695343
        },
        {
          "name": "F#7",
          "midi": 102,
          "time": 83.68478260869236,
          "velocity": 0.1889763779527559,
          "duration": 0.0760869565217348
        },
        {
          "name": "D#4",
          "midi": 63,
          "time": 83.69565217390975,
          "velocity": 0.13385826771653545,
          "duration": 0.06521739130434412
        },
        {
          "name": "G5",
          "midi": 79,
          "time": 83.69565217390975,
          "velocity": 0.2440944881889764,
          "duration": 0.08695652173912549
        },
        {
          "name": "F6",
          "midi": 89,
          "time": 83.69565217390975,
          "velocity": 0.1732283464566929,
          "duration": 0.08695652173912549
        },
        {
          "name": "D#6",
          "midi": 87,
          "time": 83.70652173912714,
          "velocity": 0.28346456692913385,
          "duration": 0.0760869565217348
        },
        {
          "name": "B6",
          "midi": 95,
          "time": 83.71739130434453,
          "velocity": 0.11811023622047244,
          "duration": 0.043478260869562746
        },
        {
          "name": "G4",
          "midi": 67,
          "time": 83.7499999999967,
          "velocity": 0.2992125984251969,
          "duration": 0.021739130434781373
        },
        {
          "name": "A5",
          "midi": 81,
          "time": 83.7499999999967,
          "velocity": 0.16535433070866143,
          "duration": 0.03260869565217206
        },
        {
          "name": "G7",
          "midi": 103,
          "time": 83.7499999999967,
          "velocity": 0.2125984251968504,
          "duration": 0.13043478260868824
        },
        {
          "name": "F#5",
          "midi": 78,
          "time": 83.7608695652141,
          "velocity": 0.2283464566929134,
          "duration": 0.14130434782607892
        },
        {
          "name": "A#6",
          "midi": 94,
          "time": 83.7608695652141,
          "velocity": 0.1732283464566929,
          "duration": 0.03260869565217206
        },
        {
          "name": "A#3",
          "midi": 58,
          "time": 83.77173913043148,
          "velocity": 0.5511811023622047,
          "duration": 0.010869565217390686
        },
        {
          "name": "F#4",
          "midi": 66,
          "time": 83.77173913043148,
          "velocity": 0.2677165354330709,
          "duration": 0.021739130434781373
        },
        {
          "name": "E6",
          "midi": 88,
          "time": 83.77173913043148,
          "velocity": 0.13385826771653545,
          "duration": 0.09782608695651618
        },
        {
          "name": "A3",
          "midi": 57,
          "time": 83.78260869564888,
          "velocity": 0.5984251968503937,
          "duration": 0.043478260869562746
        },
        {
          "name": "D5",
          "midi": 74,
          "time": 83.78260869564888,
          "velocity": 0.1732283464566929,
          "duration": 0.09782608695651618
        },
        {
          "name": "D6",
          "midi": 86,
          "time": 83.78260869564888,
          "velocity": 0.23622047244094488,
          "duration": 0.17391304347825098
        },
        {
          "name": "G#6",
          "midi": 92,
          "time": 83.81521739130105,
          "velocity": 0.15748031496062992,
          "duration": 0.03260869565217206
        },
        {
          "name": "C#7",
          "midi": 97,
          "time": 83.81521739130105,
          "velocity": 0.23622047244094488,
          "duration": 0.17391304347825098
        },
        {
          "name": "D#7",
          "midi": 99,
          "time": 83.81521739130105,
          "velocity": 0.09448818897637795,
          "duration": 0.10869565217390686
        },
        {
          "name": "G#3",
          "midi": 56,
          "time": 83.82608695651844,
          "velocity": 0.47244094488188976,
          "duration": 0.043478260869562746
        },
        {
          "name": "C6",
          "midi": 84,
          "time": 83.82608695651844,
          "velocity": 0.18110236220472442,
          "duration": 0.06521739130434412
        },
        {
          "name": "A#6",
          "midi": 94,
          "time": 83.82608695651844,
          "velocity": 0.2204724409448819,
          "duration": 0.0760869565217348
        },
        {
          "name": "F#7",
          "midi": 102,
          "time": 83.84782608695322,
          "velocity": 0.16535433070866143,
          "duration": 0.043478260869562746
        },
        {
          "name": "D4",
          "midi": 62,
          "time": 83.85869565217061,
          "velocity": 0.09448818897637795,
          "duration": 0.03260869565217206
        },
        {
          "name": "G#6",
          "midi": 92,
          "time": 83.88043478260539,
          "velocity": 0.08661417322834646,
          "duration": 0.043478260869562746
        },
        {
          "name": "C5",
          "midi": 72,
          "time": 83.91304347825756,
          "velocity": 0.2125984251968504,
          "duration": 0.08695652173912549
        },
        {
          "name": "E5",
          "midi": 76,
          "time": 83.91304347825756,
          "velocity": 0.2125984251968504,
          "duration": 0.0760869565217348
        },
        {
          "name": "A#5",
          "midi": 82,
          "time": 83.91304347825756,
          "velocity": 0.1968503937007874,
          "duration": 0.09782608695651618
        },
        {
          "name": "C7",
          "midi": 96,
          "time": 83.91304347825756,
          "velocity": 0.16535433070866143,
          "duration": 0.08695652173912549
        },
        {
          "name": "C6",
          "midi": 84,
          "time": 83.92391304347495,
          "velocity": 0.2283464566929134,
          "duration": 0.09782608695651618
        },
        {
          "name": "G4",
          "midi": 67,
          "time": 83.93478260869234,
          "velocity": 0.2047244094488189,
          "duration": 0.06521739130434412
        },
        {
          "name": "F6",
          "midi": 89,
          "time": 83.93478260869234,
          "velocity": 0.07086614173228346,
          "duration": 0.043478260869562746
        },
        {
          "name": "B6",
          "midi": 95,
          "time": 83.93478260869234,
          "velocity": 0.1732283464566929,
          "duration": 0.06521739130434412
        },
        {
          "name": "F7",
          "midi": 101,
          "time": 83.94565217390974,
          "velocity": 0.07086614173228346,
          "duration": 0.043478260869562746
        },
        {
          "name": "F#7",
          "midi": 102,
          "time": 83.94565217390974,
          "velocity": 0.12598425196850394,
          "duration": 0.05434782608695343
        },
        {
          "name": "G6",
          "midi": 91,
          "time": 83.95652173912713,
          "velocity": 0.14173228346456693,
          "duration": 0.043478260869562746
        },
        {
          "name": "E7",
          "midi": 100,
          "time": 83.95652173912713,
          "velocity": 0.11023622047244094,
          "duration": 0.043478260869562746
        },
        {
          "name": "D5",
          "midi": 74,
          "time": 84.21739130434452,
          "velocity": 0.25984251968503935,
          "duration": 0.09782608695651618
        },
        {
          "name": "D6",
          "midi": 86,
          "time": 84.21739130434452,
          "velocity": 0.25984251968503935,
          "duration": 0.10869565217390686
        },
        {
          "name": "C#7",
          "midi": 97,
          "time": 84.21739130434452,
          "velocity": 0.2204724409448819,
          "duration": 0.09782608695651618
        },
        {
          "name": "D7",
          "midi": 98,
          "time": 84.21739130434452,
          "velocity": 0.25984251968503935,
          "duration": 0.0760869565217348
        },
        {
          "name": "A4",
          "midi": 69,
          "time": 84.22826086956191,
          "velocity": 0.1732283464566929,
          "duration": 0.08695652173912549
        },
        {
          "name": "A5",
          "midi": 81,
          "time": 84.22826086956191,
          "velocity": 0.2204724409448819,
          "duration": 0.11956521739129755
        },
        {
          "name": "C6",
          "midi": 84,
          "time": 84.22826086956191,
          "velocity": 0.2755905511811024,
          "duration": 0.10869565217390686
        },
        {
          "name": "F7",
          "midi": 101,
          "time": 84.22826086956191,
          "velocity": 0.12598425196850394,
          "duration": 0.09782608695651618
        },
        {
          "name": "G7",
          "midi": 103,
          "time": 84.22826086956191,
          "velocity": 0.1968503937007874,
          "duration": 0.09782608695651618
        },
        {
          "name": "E6",
          "midi": 88,
          "time": 84.24999999999669,
          "velocity": 0.13385826771653545,
          "duration": 0.08695652173912549
        },
        {
          "name": "D#7",
          "midi": 99,
          "time": 84.24999999999669,
          "velocity": 0.11023622047244094,
          "duration": 0.08695652173912549
        },
        {
          "name": "E7",
          "midi": 100,
          "time": 84.24999999999669,
          "velocity": 0.2204724409448819,
          "duration": 0.08695652173912549
        },
        {
          "name": "F#5",
          "midi": 78,
          "time": 84.26086956521408,
          "velocity": 0.07086614173228346,
          "duration": 0.05434782608695343
        },
        {
          "name": "G#6",
          "midi": 92,
          "time": 84.26086956521408,
          "velocity": 0.2125984251968504,
          "duration": 0.06521739130434412
        },
        {
          "name": "A#6",
          "midi": 94,
          "time": 84.27173913043147,
          "velocity": 0.18110236220472442,
          "duration": 0.06521739130434412
        },
        {
          "name": "C#3",
          "midi": 49,
          "time": 84.38043478260538,
          "velocity": 0.5196850393700787,
          "duration": 0.010869565217390686
        },
        {
          "name": "A#2",
          "midi": 46,
          "time": 84.39130434782277,
          "velocity": 0.5511811023622047,
          "duration": 0.010869565217390686
        },
        {
          "name": "D2",
          "midi": 38,
          "time": 84.40217391304016,
          "velocity": 0.5590551181102362,
          "duration": 0.010869565217390686
        },
        {
          "name": "A#1",
          "midi": 34,
          "time": 84.41304347825755,
          "velocity": 0.5354330708661418,
          "duration": 0.010869565217390686
        },
        {
          "name": "A1",
          "midi": 33,
          "time": 84.42391304347494,
          "velocity": 0.5354330708661418,
          "duration": 0.010869565217390686
        },
        {
          "name": "G#1",
          "midi": 32,
          "time": 84.43478260869233,
          "velocity": 0.5275590551181102,
          "duration": 0.010869565217390686
        },
        {
          "name": "G1",
          "midi": 31,
          "time": 84.44565217390972,
          "velocity": 0.5118110236220472,
          "duration": 0.010869565217390686
        },
        {
          "name": "F#1",
          "midi": 30,
          "time": 84.45652173912711,
          "velocity": 0.49606299212598426,
          "duration": 0.05434782608695343
        },
        {
          "name": "F1",
          "midi": 29,
          "time": 84.51086956521407,
          "velocity": 0.3464566929133858,
          "duration": 0.03260869565217206
        },
        {
          "name": "G#6",
          "midi": 92,
          "time": 84.52173913043146,
          "velocity": 0.2047244094488189,
          "duration": 0.08695652173912549
        },
        {
          "name": "A#3",
          "midi": 58,
          "time": 84.53260869564885,
          "velocity": 0.2283464566929134,
          "duration": 0.14130434782607892
        },
        {
          "name": "F4",
          "midi": 65,
          "time": 84.53260869564885,
          "velocity": 0.2047244094488189,
          "duration": 0.09782608695651618
        },
        {
          "name": "B4",
          "midi": 71,
          "time": 84.53260869564885,
          "velocity": 0.11023622047244094,
          "duration": 0.03260869565217206
        },
        {
          "name": "A#5",
          "midi": 82,
          "time": 84.53260869564885,
          "velocity": 0.1968503937007874,
          "duration": 0.0760869565217348
        },
        {
          "name": "F#6",
          "midi": 90,
          "time": 84.53260869564885,
          "velocity": 0.1968503937007874,
          "duration": 0.0760869565217348
        },
        {
          "name": "A6",
          "midi": 93,
          "time": 84.53260869564885,
          "velocity": 0.16535433070866143,
          "duration": 0.09782608695651618
        },
        {
          "name": "C7",
          "midi": 96,
          "time": 84.53260869564885,
          "velocity": 0.07874015748031496,
          "duration": 0.03260869565217206
        },
        {
          "name": "D#7",
          "midi": 99,
          "time": 84.53260869564885,
          "velocity": 0.14960629921259844,
          "duration": 0.1630434782608603
        },
        {
          "name": "E7",
          "midi": 100,
          "time": 84.53260869564885,
          "velocity": 0.11811023622047244,
          "duration": 0.13043478260868824
        },
        {
          "name": "F5",
          "midi": 77,
          "time": 84.54347826086624,
          "velocity": 0.25984251968503935,
          "duration": 0.14130434782607892
        },
        {
          "name": "B6",
          "midi": 95,
          "time": 84.54347826086624,
          "velocity": 0.18110236220472442,
          "duration": 0.11956521739129755
        },
        {
          "name": "G#5",
          "midi": 80,
          "time": 84.55434782608363,
          "velocity": 0.2283464566929134,
          "duration": 0.10869565217390686
        },
        {
          "name": "D7",
          "midi": 98,
          "time": 84.55434782608363,
          "velocity": 0.1968503937007874,
          "duration": 0.13043478260868824
        },
        {
          "name": "C#7",
          "midi": 97,
          "time": 84.56521739130102,
          "velocity": 0.16535433070866143,
          "duration": 0.10869565217390686
        },
        {
          "name": "D6",
          "midi": 86,
          "time": 84.57608695651841,
          "velocity": 0.23622047244094488,
          "duration": 0.10869565217390686
        },
        {
          "name": "A#6",
          "midi": 94,
          "time": 84.59782608695319,
          "velocity": 0.2125984251968504,
          "duration": 0.0760869565217348
        },
        {
          "name": "D5",
          "midi": 74,
          "time": 84.63043478260536,
          "velocity": 0.11811023622047244,
          "duration": 0.03260869565217206
        },
        {
          "name": "A#3",
          "midi": 58,
          "time": 84.82608695651841,
          "velocity": 0.25196850393700787,
          "duration": 0.08695652173912549
        },
        {
          "name": "F4",
          "midi": 65,
          "time": 84.82608695651841,
          "velocity": 0.2204724409448819,
          "duration": 0.05434782608695343
        },
        {
          "name": "G#5",
          "midi": 80,
          "time": 84.82608695651841,
          "velocity": 0.2125984251968504,
          "duration": 0.06521739130434412
        },
        {
          "name": "F6",
          "midi": 89,
          "time": 84.82608695651841,
          "velocity": 0.2440944881889764,
          "duration": 0.08695652173912549
        },
        {
          "name": "F5",
          "midi": 77,
          "time": 84.8369565217358,
          "velocity": 0.23622047244094488,
          "duration": 0.06521739130434412
        },
        {
          "name": "F#6",
          "midi": 90,
          "time": 84.8369565217358,
          "velocity": 0.2440944881889764,
          "duration": 0.05434782608695343
        },
        {
          "name": "A#6",
          "midi": 94,
          "time": 84.8369565217358,
          "velocity": 0.08661417322834646,
          "duration": 0.03260869565217206
        },
        {
          "name": "C7",
          "midi": 96,
          "time": 84.8369565217358,
          "velocity": 0.16535433070866143,
          "duration": 0.05434782608695343
        },
        {
          "name": "C#7",
          "midi": 97,
          "time": 84.8369565217358,
          "velocity": 0.1968503937007874,
          "duration": 0.05434782608695343
        },
        {
          "name": "D7",
          "midi": 98,
          "time": 84.84782608695319,
          "velocity": 0.09448818897637795,
          "duration": 0.043478260869562746
        },
        {
          "name": "D5",
          "midi": 74,
          "time": 84.85869565217058,
          "velocity": 0.14960629921259844,
          "duration": 0.043478260869562746
        },
        {
          "name": "F#4",
          "midi": 66,
          "time": 84.97826086956188,
          "velocity": 0.36220472440944884,
          "duration": 0.021739130434781373
        },
        {
          "name": "C6",
          "midi": 84,
          "time": 84.97826086956188,
          "velocity": 0.13385826771653545,
          "duration": 0.043478260869562746
        },
        {
          "name": "F6",
          "midi": 89,
          "time": 84.97826086956188,
          "velocity": 0.31496062992125984,
          "duration": 0.10869565217390686
        },
        {
          "name": "A6",
          "midi": 93,
          "time": 84.97826086956188,
          "velocity": 0.2125984251968504,
          "duration": 0.03260869565217206
        },
        {
          "name": "E7",
          "midi": 100,
          "time": 84.97826086956188,
          "velocity": 0.2125984251968504,
          "duration": 0.09782608695651618
        },
        {
          "name": "C#5",
          "midi": 73,
          "time": 84.98913043477927,
          "velocity": 0.25196850393700787,
          "duration": 0.03260869565217206
        },
        {
          "name": "F5",
          "midi": 77,
          "time": 84.98913043477927,
          "velocity": 0.2440944881889764,
          "duration": 0.05434782608695343
        },
        {
          "name": "A5",
          "midi": 81,
          "time": 84.98913043477927,
          "velocity": 0.12598425196850394,
          "duration": 0.043478260869562746
        },
        {
          "name": "D#6",
          "midi": 87,
          "time": 84.98913043477927,
          "velocity": 0.12598425196850394,
          "duration": 0.05434782608695343
        },
        {
          "name": "A#6",
          "midi": 94,
          "time": 84.98913043477927,
          "velocity": 0.11811023622047244,
          "duration": 0.08695652173912549
        },
        {
          "name": "B6",
          "midi": 95,
          "time": 84.98913043477927,
          "velocity": 0.2047244094488189,
          "duration": 0.1521739130434696
        },
        {
          "name": "C#7",
          "midi": 97,
          "time": 84.98913043477927,
          "velocity": 0.2440944881889764,
          "duration": 0.28260869565215785
        },
        {
          "name": "D7",
          "midi": 98,
          "time": 84.98913043477927,
          "velocity": 0.12598425196850394,
          "duration": 0.0760869565217348
        },
        {
          "name": "A#3",
          "midi": 58,
          "time": 84.99999999999666,
          "velocity": 0.5354330708661418,
          "duration": 0.010869565217390686
        },
        {
          "name": "A3",
          "midi": 57,
          "time": 85.01086956521405,
          "velocity": 0.5748031496062992,
          "duration": 0.043478260869562746
        },
        {
          "name": "D5",
          "midi": 74,
          "time": 85.02173913043144,
          "velocity": 0.25984251968503935,
          "duration": 0.11956521739129755
        },
        {
          "name": "C7",
          "midi": 96,
          "time": 85.03260869564883,
          "velocity": 0.1968503937007874,
          "duration": 0.09782608695651618
        },
        {
          "name": "F4",
          "midi": 65,
          "time": 85.04347826086622,
          "velocity": 0.1732283464566929,
          "duration": 0.0760869565217348
        },
        {
          "name": "E6",
          "midi": 88,
          "time": 85.04347826086622,
          "velocity": 0.2047244094488189,
          "duration": 0.03260869565217206
        },
        {
          "name": "G#3",
          "midi": 56,
          "time": 85.05434782608361,
          "velocity": 0.3858267716535433,
          "duration": 0.05434782608695343
        },
        {
          "name": "G#5",
          "midi": 80,
          "time": 85.05434782608361,
          "velocity": 0.15748031496062992,
          "duration": 0.03260869565217206
        },
        {
          "name": "A#5",
          "midi": 82,
          "time": 85.05434782608361,
          "velocity": 0.1968503937007874,
          "duration": 0.08695652173912549
        },
        {
          "name": "F5",
          "midi": 77,
          "time": 85.065217391301,
          "velocity": 0.2125984251968504,
          "duration": 0.05434782608695343
        },
        {
          "name": "C6",
          "midi": 84,
          "time": 85.0760869565184,
          "velocity": 0.1889763779527559,
          "duration": 0.043478260869562746
        },
        {
          "name": "F#6",
          "midi": 90,
          "time": 85.0760869565184,
          "velocity": 0.14960629921259844,
          "duration": 0.043478260869562746
        },
        {
          "name": "E6",
          "midi": 88,
          "time": 85.08695652173579,
          "velocity": 0.1889763779527559,
          "duration": 0.0760869565217348
        },
        {
          "name": "A#3",
          "midi": 58,
          "time": 85.10869565217057,
          "velocity": 0.10236220472440945,
          "duration": 0.03260869565217206
        },
        {
          "name": "G6",
          "midi": 91,
          "time": 85.11956521738796,
          "velocity": 0.14960629921259844,
          "duration": 0.0760869565217348
        },
        {
          "name": "G4",
          "midi": 67,
          "time": 85.13043478260535,
          "velocity": 0.1889763779527559,
          "duration": 0.13043478260868824
        },
        {
          "name": "G5",
          "midi": 79,
          "time": 85.13043478260535,
          "velocity": 0.28346456692913385,
          "duration": 0.09782608695651618
        },
        {
          "name": "C4",
          "midi": 60,
          "time": 85.14130434782274,
          "velocity": 0.18110236220472442,
          "duration": 0.09782608695651618
        },
        {
          "name": "C6",
          "midi": 84,
          "time": 85.14130434782274,
          "velocity": 0.2755905511811024,
          "duration": 0.18478260869564167
        },
        {
          "name": "D7",
          "midi": 98,
          "time": 85.14130434782274,
          "velocity": 0.14960629921259844,
          "duration": 0.10869565217390686
        },
        {
          "name": "E5",
          "midi": 76,
          "time": 85.15217391304013,
          "velocity": 0.28346456692913385,
          "duration": 0.1630434782608603
        },
        {
          "name": "F#6",
          "midi": 90,
          "time": 85.15217391304013,
          "velocity": 0.29133858267716534,
          "duration": 0.043478260869562746
        },
        {
          "name": "A#5",
          "midi": 82,
          "time": 85.17391304347491,
          "velocity": 0.18110236220472442,
          "duration": 0.06521739130434412
        },
        {
          "name": "F6",
          "midi": 89,
          "time": 85.19565217390969,
          "velocity": 0.25196850393700787,
          "duration": 0.021739130434781373
        },
        {
          "name": "G#6",
          "midi": 92,
          "time": 85.19565217390969,
          "velocity": 0.1968503937007874,
          "duration": 0.06521739130434412
        },
        {
          "name": "B6",
          "midi": 95,
          "time": 85.20652173912708,
          "velocity": 0.18110236220472442,
          "duration": 0.05434782608695343
        },
        {
          "name": "D6",
          "midi": 86,
          "time": 85.21739130434447,
          "velocity": 0.11023622047244094,
          "duration": 0.043478260869562746
        },
        {
          "name": "A5",
          "midi": 81,
          "time": 85.28260869564882,
          "velocity": 0.3464566929133858,
          "duration": 0.06521739130434412
        },
        {
          "name": "A4",
          "midi": 69,
          "time": 85.29347826086621,
          "velocity": 0.18110236220472442,
          "duration": 0.11956521739129755
        },
        {
          "name": "F#5",
          "midi": 78,
          "time": 85.29347826086621,
          "velocity": 0.28346456692913385,
          "duration": 0.13043478260868824
        },
        {
          "name": "G6",
          "midi": 91,
          "time": 85.29347826086621,
          "velocity": 0.23622047244094488,
          "duration": 0.021739130434781373
        },
        {
          "name": "A#6",
          "midi": 94,
          "time": 85.29347826086621,
          "velocity": 0.2047244094488189,
          "duration": 0.09782608695651618
        },
        {
          "name": "C#7",
          "midi": 97,
          "time": 85.29347826086621,
          "velocity": 0.2440944881889764,
          "duration": 0.10869565217390686
        },
        {
          "name": "D7",
          "midi": 98,
          "time": 85.29347826086621,
          "velocity": 0.2125984251968504,
          "duration": 0.10869565217390686
        },
        {
          "name": "D#7",
          "midi": 99,
          "time": 85.29347826086621,
          "velocity": 0.16535433070866143,
          "duration": 0.09782608695651618
        },
        {
          "name": "D5",
          "midi": 74,
          "time": 85.3043478260836,
          "velocity": 0.18110236220472442,
          "duration": 0.09782608695651618
        },
        {
          "name": "E6",
          "midi": 88,
          "time": 85.31521739130099,
          "velocity": 0.2992125984251969,
          "duration": 0.11956521739129755
        },
        {
          "name": "G#6",
          "midi": 92,
          "time": 85.31521739130099,
          "velocity": 0.2755905511811024,
          "duration": 0.05434782608695343
        },
        {
          "name": "F#7",
          "midi": 102,
          "time": 85.31521739130099,
          "velocity": 0.2755905511811024,
          "duration": 0.17391304347825098
        },
        {
          "name": "G#5",
          "midi": 80,
          "time": 85.33695652173577,
          "velocity": 0.3464566929133858,
          "duration": 0.05434782608695343
        },
        {
          "name": "D6",
          "midi": 86,
          "time": 85.33695652173577,
          "velocity": 0.2440944881889764,
          "duration": 0.0760869565217348
        },
        {
          "name": "C6",
          "midi": 84,
          "time": 85.34782608695316,
          "velocity": 0.11023622047244094,
          "duration": 0.043478260869562746
        },
        {
          "name": "C#6",
          "midi": 85,
          "time": 85.35869565217055,
          "velocity": 0.15748031496062992,
          "duration": 0.06521739130434412
        },
        {
          "name": "A6",
          "midi": 93,
          "time": 85.35869565217055,
          "velocity": 0.1732283464566929,
          "duration": 0.05434782608695343
        },
        {
          "name": "G#6",
          "midi": 92,
          "time": 85.40217391304012,
          "velocity": 0.2047244094488189,
          "duration": 0.09782608695651618
        },
        {
          "name": "G#5",
          "midi": 80,
          "time": 85.46739130434446,
          "velocity": 0.1889763779527559,
          "duration": 0.10869565217390686
        },
        {
          "name": "F#7",
          "midi": 102,
          "time": 85.5326086956488,
          "velocity": 0.07086614173228346,
          "duration": 0.043478260869562746
        },
        {
          "name": "C5",
          "midi": 72,
          "time": 85.59782608695315,
          "velocity": 0.15748031496062992,
          "duration": 0.03260869565217206
        },
        {
          "name": "A#2",
          "midi": 46,
          "time": 85.60869565217054,
          "velocity": 0.5354330708661418,
          "duration": 0.010869565217390686
        },
        {
          "name": "A#1",
          "midi": 34,
          "time": 85.63043478260532,
          "velocity": 0.5275590551181102,
          "duration": 0.010869565217390686
        },
        {
          "name": "G4",
          "midi": 67,
          "time": 85.63043478260532,
          "velocity": 0.2125984251968504,
          "duration": 0.08695652173912549
        },
        {
          "name": "B4",
          "midi": 71,
          "time": 85.63043478260532,
          "velocity": 0.11811023622047244,
          "duration": 0.043478260869562746
        },
        {
          "name": "G5",
          "midi": 79,
          "time": 85.63043478260532,
          "velocity": 0.2204724409448819,
          "duration": 0.10869565217390686
        },
        {
          "name": "A5",
          "midi": 81,
          "time": 85.63043478260532,
          "velocity": 0.11811023622047244,
          "duration": 0.03260869565217206
        },
        {
          "name": "A1",
          "midi": 33,
          "time": 85.64130434782271,
          "velocity": 0.5748031496062992,
          "duration": 0.010869565217390686
        },
        {
          "name": "F5",
          "midi": 77,
          "time": 85.64130434782271,
          "velocity": 0.14173228346456693,
          "duration": 0.03260869565217206
        },
        {
          "name": "B5",
          "midi": 83,
          "time": 85.64130434782271,
          "velocity": 0.13385826771653545,
          "duration": 0.09782608695651618
        },
        {
          "name": "G#1",
          "midi": 32,
          "time": 85.6521739130401,
          "velocity": 0.5748031496062992,
          "duration": 0.010869565217390686
        },
        {
          "name": "G1",
          "midi": 31,
          "time": 85.66304347825749,
          "velocity": 0.5669291338582677,
          "duration": 0.03260869565217206
        },
        {
          "name": "D5",
          "midi": 74,
          "time": 85.67391304347488,
          "velocity": 0.25984251968503935,
          "duration": 0.09782608695651618
        },
        {
          "name": "F#6",
          "midi": 90,
          "time": 85.68478260869227,
          "velocity": 0.11811023622047244,
          "duration": 0.043478260869562746
        },
        {
          "name": "F#1",
          "midi": 30,
          "time": 85.69565217390966,
          "velocity": 0.5354330708661418,
          "duration": 0.021739130434781373
        },
        {
          "name": "D4",
          "midi": 62,
          "time": 85.69565217390966,
          "velocity": 0.14173228346456693,
          "duration": 0.03260869565217206
        },
        {
          "name": "B4",
          "midi": 71,
          "time": 85.69565217390966,
          "velocity": 0.29133858267716534,
          "duration": 0.08695652173912549
        },
        {
          "name": "G4",
          "midi": 67,
          "time": 85.72826086956184,
          "velocity": 0.25984251968503935,
          "duration": 0.2391304347825951
        },
        {
          "name": "F5",
          "midi": 77,
          "time": 85.72826086956184,
          "velocity": 0.10236220472440945,
          "duration": 0.043478260869562746
        },
        {
          "name": "D4",
          "midi": 62,
          "time": 85.74999999999662,
          "velocity": 0.2677165354330709,
          "duration": 0.22826086956520442
        },
        {
          "name": "G1",
          "midi": 31,
          "time": 85.76086956521401,
          "velocity": 0.5354330708661418,
          "duration": 0.44565217391301815
        },
        {
          "name": "B4",
          "midi": 71,
          "time": 85.80434782608357,
          "velocity": 0.1968503937007874,
          "duration": 0.08695652173912549
        },
        {
          "name": "B5",
          "midi": 83,
          "time": 85.91304347825748,
          "velocity": 0.07874015748031496,
          "duration": 0.043478260869562746
        },
        {
          "name": "F5",
          "midi": 77,
          "time": 86.04347826086617,
          "velocity": 0.1889763779527559,
          "duration": 0.03260869565217206
        },
        {
          "name": "A4",
          "midi": 69,
          "time": 86.05434782608356,
          "velocity": 0.2283464566929134,
          "duration": 0.0760869565217348
        },
        {
          "name": "C7",
          "midi": 96,
          "time": 86.05434782608356,
          "velocity": 0.11811023622047244,
          "duration": 0.0760869565217348
        },
        {
          "name": "F#5",
          "midi": 78,
          "time": 86.06521739130095,
          "velocity": 0.2755905511811024,
          "duration": 0.06521739130434412
        },
        {
          "name": "G6",
          "midi": 91,
          "time": 86.06521739130095,
          "velocity": 0.2283464566929134,
          "duration": 0.021739130434781373
        },
        {
          "name": "A6",
          "midi": 93,
          "time": 86.06521739130095,
          "velocity": 0.1968503937007874,
          "duration": 0.06521739130434412
        },
        {
          "name": "D7",
          "midi": 98,
          "time": 86.06521739130095,
          "velocity": 0.13385826771653545,
          "duration": 0.0760869565217348
        },
        {
          "name": "A5",
          "midi": 81,
          "time": 86.07608695651834,
          "velocity": 0.25984251968503935,
          "duration": 0.05434782608695343
        },
        {
          "name": "D#7",
          "midi": 99,
          "time": 86.07608695651834,
          "velocity": 0.2204724409448819,
          "duration": 0.09782608695651618
        },
        {
          "name": "E7",
          "midi": 100,
          "time": 86.07608695651834,
          "velocity": 0.25196850393700787,
          "duration": 0.27173913043476716
        },
        {
          "name": "D4",
          "midi": 62,
          "time": 86.08695652173573,
          "velocity": 0.11023622047244094,
          "duration": 0.03260869565217206
        },
        {
          "name": "C6",
          "midi": 84,
          "time": 86.08695652173573,
          "velocity": 0.1732283464566929,
          "duration": 0.043478260869562746
        },
        {
          "name": "G#6",
          "midi": 92,
          "time": 86.08695652173573,
          "velocity": 0.2204724409448819,
          "duration": 0.05434782608695343
        },
        {
          "name": "D6",
          "midi": 86,
          "time": 86.09782608695312,
          "velocity": 0.12598425196850394,
          "duration": 0.03260869565217206
        },
        {
          "name": "A#5",
          "midi": 82,
          "time": 86.13043478260529,
          "velocity": 0.31496062992125984,
          "duration": 0.08695652173912549
        },
        {
          "name": "F7",
          "midi": 101,
          "time": 86.13043478260529,
          "velocity": 0.2440944881889764,
          "duration": 0.21739130434781373
        },
        {
          "name": "D#4",
          "midi": 63,
          "time": 86.14130434782268,
          "velocity": 0.12598425196850394,
          "duration": 0.06521739130434412
        },
        {
          "name": "G5",
          "midi": 79,
          "time": 86.14130434782268,
          "velocity": 0.2992125984251969,
          "duration": 0.05434782608695343
        },
        {
          "name": "A6",
          "midi": 93,
          "time": 86.14130434782268,
          "velocity": 0.2283464566929134,
          "duration": 0.08695652173912549
        },
        {
          "name": "C#7",
          "midi": 97,
          "time": 86.14130434782268,
          "velocity": 0.14173228346456693,
          "duration": 0.0760869565217348
        },
        {
          "name": "C#6",
          "midi": 85,
          "time": 86.16304347825746,
          "velocity": 0.14960629921259844,
          "duration": 0.043478260869562746
        },
        {
          "name": "B6",
          "midi": 95,
          "time": 86.16304347825746,
          "velocity": 0.14960629921259844,
          "duration": 0.05434782608695343
        },
        {
          "name": "D#6",
          "midi": 87,
          "time": 86.17391304347485,
          "velocity": 0.13385826771653545,
          "duration": 0.03260869565217206
        },
        {
          "name": "F#7",
          "midi": 102,
          "time": 86.18478260869225,
          "velocity": 0.09448818897637795,
          "duration": 0.06521739130434412
        },
        {
          "name": "A4",
          "midi": 69,
          "time": 86.19565217390964,
          "velocity": 0.30708661417322836,
          "duration": 0.05434782608695343
        },
        {
          "name": "B5",
          "midi": 83,
          "time": 86.19565217390964,
          "velocity": 0.18110236220472442,
          "duration": 0.03260869565217206
        },
        {
          "name": "C6",
          "midi": 84,
          "time": 86.19565217390964,
          "velocity": 0.1732283464566929,
          "duration": 0.08695652173912549
        },
        {
          "name": "E6",
          "midi": 88,
          "time": 86.19565217390964,
          "velocity": 0.1968503937007874,
          "duration": 0.043478260869562746
        },
        {
          "name": "G#6",
          "midi": 92,
          "time": 86.19565217390964,
          "velocity": 0.30708661417322836,
          "duration": 0.2391304347825951
        },
        {
          "name": "D#7",
          "midi": 99,
          "time": 86.19565217390964,
          "velocity": 0.16535433070866143,
          "duration": 0.13043478260868824
        },
        {
          "name": "F#4",
          "midi": 66,
          "time": 86.20652173912703,
          "velocity": 0.29133858267716534,
          "duration": 0.021739130434781373
        },
        {
          "name": "C5",
          "midi": 72,
          "time": 86.20652173912703,
          "velocity": 0.1889763779527559,
          "duration": 0.03260869565217206
        },
        {
          "name": "E5",
          "midi": 76,
          "time": 86.20652173912703,
          "velocity": 0.1889763779527559,
          "duration": 0.05434782608695343
        },
        {
          "name": "A#3",
          "midi": 58,
          "time": 86.21739130434442,
          "velocity": 0.5433070866141733,
          "duration": 0.010869565217390686
        },
        {
          "name": "A3",
          "midi": 57,
          "time": 86.22826086956181,
          "velocity": 0.5905511811023622,
          "duration": 0.043478260869562746
        },
        {
          "name": "D5",
          "midi": 74,
          "time": 86.22826086956181,
          "velocity": 0.13385826771653545,
          "duration": 0.03260869565217206
        },
        {
          "name": "F#5",
          "midi": 78,
          "time": 86.22826086956181,
          "velocity": 0.2755905511811024,
          "duration": 0.11956521739129755
        },
        {
          "name": "E6",
          "midi": 88,
          "time": 86.26086956521398,
          "velocity": 0.25196850393700787,
          "duration": 0.08695652173912549
        },
        {
          "name": "C#7",
          "midi": 97,
          "time": 86.26086956521398,
          "velocity": 0.14960629921259844,
          "duration": 0.10869565217390686
        },
        {
          "name": "G#3",
          "midi": 56,
          "time": 86.27173913043137,
          "velocity": 0.48031496062992124,
          "duration": 0.05434782608695343
        },
        {
          "name": "D4",
          "midi": 62,
          "time": 86.27173913043137,
          "velocity": 0.12598425196850394,
          "duration": 0.0760869565217348
        },
        {
          "name": "A4",
          "midi": 69,
          "time": 86.27173913043137,
          "velocity": 0.1732283464566929,
          "duration": 0.0760869565217348
        },
        {
          "name": "F#7",
          "midi": 102,
          "time": 86.29347826086615,
          "velocity": 0.16535433070866143,
          "duration": 0.05434782608695343
        },
        {
          "name": "D5",
          "midi": 74,
          "time": 86.30434782608354,
          "velocity": 0.12598425196850394,
          "duration": 0.03260869565217206
        },
        {
          "name": "C6",
          "midi": 84,
          "time": 86.30434782608354,
          "velocity": 0.13385826771653545,
          "duration": 0.03260869565217206
        },
        {
          "name": "A#6",
          "midi": 94,
          "time": 86.31521739130093,
          "velocity": 0.12598425196850394,
          "duration": 0.043478260869562746
        },
        {
          "name": "B3",
          "midi": 59,
          "time": 86.3586956521705,
          "velocity": 0.23622047244094488,
          "duration": 0.03260869565217206
        },
        {
          "name": "F#4",
          "midi": 66,
          "time": 86.3586956521705,
          "velocity": 0.2125984251968504,
          "duration": 0.03260869565217206
        },
        {
          "name": "G5",
          "midi": 79,
          "time": 86.3586956521705,
          "velocity": 0.25984251968503935,
          "duration": 0.11956521739129755
        },
        {
          "name": "A#5",
          "midi": 82,
          "time": 86.3586956521705,
          "velocity": 0.2283464566929134,
          "duration": 0.0760869565217348
        },
        {
          "name": "C7",
          "midi": 96,
          "time": 86.3586956521705,
          "velocity": 0.09448818897637795,
          "duration": 0.043478260869562746
        },
        {
          "name": "D#7",
          "midi": 99,
          "time": 86.36956521738789,
          "velocity": 0.1889763779527559,
          "duration": 0.0760869565217348
        },
        {
          "name": "E7",
          "midi": 100,
          "time": 86.36956521738789,
          "velocity": 0.18110236220472442,
          "duration": 0.0760869565217348
        },
        {
          "name": "D7",
          "midi": 98,
          "time": 86.38043478260528,
          "velocity": 0.07086614173228346,
          "duration": 0.05434782608695343
        },
        {
          "name": "C4",
          "midi": 60,
          "time": 86.39130434782267,
          "velocity": 0.2204724409448819,
          "duration": 0.05434782608695343
        },
        {
          "name": "G4",
          "midi": 67,
          "time": 86.39130434782267,
          "velocity": 0.14173228346456693,
          "duration": 0.043478260869562746
        },
        {
          "name": "E5",
          "midi": 76,
          "time": 86.39130434782267,
          "velocity": 0.15748031496062992,
          "duration": 0.05434782608695343
        },
        {
          "name": "C6",
          "midi": 84,
          "time": 86.39130434782267,
          "velocity": 0.14960629921259844,
          "duration": 0.05434782608695343
        },
        {
          "name": "D6",
          "midi": 86,
          "time": 86.40217391304006,
          "velocity": 0.15748031496062992,
          "duration": 0.05434782608695343
        },
        {
          "name": "B6",
          "midi": 95,
          "time": 86.40217391304006,
          "velocity": 0.11023622047244094,
          "duration": 0.043478260869562746
        },
        {
          "name": "F6",
          "midi": 89,
          "time": 86.41304347825745,
          "velocity": 0.1889763779527559,
          "duration": 0.03260869565217206
        },
        {
          "name": "A4",
          "midi": 69,
          "time": 86.66304347825745,
          "velocity": 0.1732283464566929,
          "duration": 0.0760869565217348
        },
        {
          "name": "D5",
          "midi": 74,
          "time": 86.66304347825745,
          "velocity": 0.1889763779527559,
          "duration": 0.11956521739129755
        },
        {
          "name": "C6",
          "midi": 84,
          "time": 86.66304347825745,
          "velocity": 0.2677165354330709,
          "duration": 0.1630434782608603
        },
        {
          "name": "C7",
          "midi": 96,
          "time": 86.66304347825745,
          "velocity": 0.28346456692913385,
          "duration": 0.14130434782607892
        },
        {
          "name": "C#7",
          "midi": 97,
          "time": 86.66304347825745,
          "velocity": 0.2204724409448819,
          "duration": 0.08695652173912549
        },
        {
          "name": "F#7",
          "midi": 102,
          "time": 86.66304347825745,
          "velocity": 0.2047244094488189,
          "duration": 0.10869565217390686
        },
        {
          "name": "G7",
          "midi": 103,
          "time": 86.66304347825745,
          "velocity": 0.2440944881889764,
          "duration": 0.10869565217390686
        },
        {
          "name": "A5",
          "midi": 81,
          "time": 86.67391304347484,
          "velocity": 0.23622047244094488,
          "duration": 0.1630434782608603
        },
        {
          "name": "D6",
          "midi": 86,
          "time": 86.67391304347484,
          "velocity": 0.2047244094488189,
          "duration": 0.06521739130434412
        },
        {
          "name": "D#7",
          "midi": 99,
          "time": 86.68478260869223,
          "velocity": 0.1732283464566929,
          "duration": 0.09782608695651618
        },
        {
          "name": "F#6",
          "midi": 90,
          "time": 86.69565217390962,
          "velocity": 0.15748031496062992,
          "duration": 0.08695652173912549
        },
        {
          "name": "E7",
          "midi": 100,
          "time": 86.69565217390962,
          "velocity": 0.1732283464566929,
          "duration": 0.08695652173912549
        },
        {
          "name": "D4",
          "midi": 62,
          "time": 86.70652173912701,
          "velocity": 0.07874015748031496,
          "duration": 0.05434782608695343
        },
        {
          "name": "E6",
          "midi": 88,
          "time": 86.70652173912701,
          "velocity": 0.08661417322834646,
          "duration": 0.043478260869562746
        },
        {
          "name": "A#6",
          "midi": 94,
          "time": 86.70652173912701,
          "velocity": 0.2125984251968504,
          "duration": 0.0760869565217348
        },
        {
          "name": "G#6",
          "midi": 92,
          "time": 86.7173913043444,
          "velocity": 0.14173228346456693,
          "duration": 0.03260869565217206
        },
        {
          "name": "D3",
          "midi": 50,
          "time": 86.82608695651831,
          "velocity": 0.5196850393700787,
          "duration": 0.010869565217390686
        },
        {
          "name": "A#2",
          "midi": 46,
          "time": 86.8369565217357,
          "velocity": 0.5511811023622047,
          "duration": 0.010869565217390686
        },
        {
          "name": "D2",
          "midi": 38,
          "time": 86.84782608695309,
          "velocity": 0.5511811023622047,
          "duration": 0.010869565217390686
        },
        {
          "name": "A#1",
          "midi": 34,
          "time": 86.85869565217048,
          "velocity": 0.5354330708661418,
          "duration": 0.010869565217390686
        },
        {
          "name": "A1",
          "midi": 33,
          "time": 86.86956521738787,
          "velocity": 0.5354330708661418,
          "duration": 0.010869565217390686
        },
        {
          "name": "G#1",
          "midi": 32,
          "time": 86.88043478260526,
          "velocity": 0.5196850393700787,
          "duration": 0.010869565217390686
        },
        {
          "name": "G1",
          "midi": 31,
          "time": 86.89130434782265,
          "velocity": 0.5118110236220472,
          "duration": 0.010869565217390686
        },
        {
          "name": "F#1",
          "midi": 30,
          "time": 86.90217391304004,
          "velocity": 0.49606299212598426,
          "duration": 0.05434782608695343
        },
        {
          "name": "F1",
          "midi": 29,
          "time": 86.956521739127,
          "velocity": 0.3464566929133858,
          "duration": 0.03260869565217206
        },
        {
          "name": "B6",
          "midi": 95,
          "time": 86.96739130434439,
          "velocity": 0.1889763779527559,
          "duration": 0.09782608695651618
        },
        {
          "name": "F4",
          "midi": 65,
          "time": 86.97826086956178,
          "velocity": 0.2125984251968504,
          "duration": 0.14130434782607892
        },
        {
          "name": "A#4",
          "midi": 70,
          "time": 86.97826086956178,
          "velocity": 0.23622047244094488,
          "duration": 0.03260869565217206
        },
        {
          "name": "D5",
          "midi": 74,
          "time": 86.97826086956178,
          "velocity": 0.14960629921259844,
          "duration": 0.13043478260868824
        },
        {
          "name": "G#5",
          "midi": 80,
          "time": 86.97826086956178,
          "velocity": 0.2755905511811024,
          "duration": 0.1521739130434696
        },
        {
          "name": "C6",
          "midi": 84,
          "time": 86.97826086956178,
          "velocity": 0.18110236220472442,
          "duration": 0.043478260869562746
        },
        {
          "name": "A6",
          "midi": 93,
          "time": 86.97826086956178,
          "velocity": 0.2283464566929134,
          "duration": 0.1521739130434696
        },
        {
          "name": "C#7",
          "midi": 97,
          "time": 86.97826086956178,
          "velocity": 0.15748031496062992,
          "duration": 0.13043478260868824
        },
        {
          "name": "F7",
          "midi": 101,
          "time": 86.97826086956178,
          "velocity": 0.2204724409448819,
          "duration": 0.14130434782607892
        },
        {
          "name": "F#7",
          "midi": 102,
          "time": 86.97826086956178,
          "velocity": 0.14173228346456693,
          "duration": 0.11956521739129755
        },
        {
          "name": "E7",
          "midi": 100,
          "time": 86.98913043477917,
          "velocity": 0.16535433070866143,
          "duration": 0.11956521739129755
        },
        {
          "name": "F6",
          "midi": 89,
          "time": 87.02173913043134,
          "velocity": 0.1889763779527559,
          "duration": 0.09782608695651618
        },
        {
          "name": "D7",
          "midi": 98,
          "time": 87.03260869564873,
          "velocity": 0.14960629921259844,
          "duration": 0.0760869565217348
        },
        {
          "name": "A#4",
          "midi": 70,
          "time": 87.05434782608351,
          "velocity": 0.07874015748031496,
          "duration": 0.043478260869562746
        },
        {
          "name": "F#6",
          "midi": 90,
          "time": 87.08695652173569,
          "velocity": 0.07874015748031496,
          "duration": 0.03260869565217206
        },
        {
          "name": "A#3",
          "midi": 58,
          "time": 87.27173913043134,
          "velocity": 0.2204724409448819,
          "duration": 0.05434782608695343
        },
        {
          "name": "F4",
          "midi": 65,
          "time": 87.27173913043134,
          "velocity": 0.1968503937007874,
          "duration": 0.043478260869562746
        },
        {
          "name": "G#5",
          "midi": 80,
          "time": 87.27173913043134,
          "velocity": 0.25196850393700787,
          "duration": 0.05434782608695343
        },
        {
          "name": "D5",
          "midi": 74,
          "time": 87.28260869564873,
          "velocity": 0.15748031496062992,
          "duration": 0.05434782608695343
        },
        {
          "name": "A#5",
          "midi": 82,
          "time": 87.28260869564873,
          "velocity": 0.2047244094488189,
          "duration": 0.06521739130434412
        },
        {
          "name": "C6",
          "midi": 84,
          "time": 87.28260869564873,
          "velocity": 0.13385826771653545,
          "duration": 0.05434782608695343
        },
        {
          "name": "D6",
          "midi": 86,
          "time": 87.28260869564873,
          "velocity": 0.16535433070866143,
          "duration": 0.06521739130434412
        },
        {
          "name": "E6",
          "midi": 88,
          "time": 87.28260869564873,
          "velocity": 0.11811023622047244,
          "duration": 0.05434782608695343
        },
        {
          "name": "B6",
          "midi": 95,
          "time": 87.28260869564873,
          "velocity": 0.12598425196850394,
          "duration": 0.06521739130434412
        },
        {
          "name": "C7",
          "midi": 96,
          "time": 87.28260869564873,
          "velocity": 0.1968503937007874,
          "duration": 0.05434782608695343
        },
        {
          "name": "C#7",
          "midi": 97,
          "time": 87.28260869564873,
          "velocity": 0.1732283464566929,
          "duration": 0.0760869565217348
        },
        {
          "name": "G7",
          "midi": 103,
          "time": 87.29347826086612,
          "velocity": 0.14960629921259844,
          "duration": 0.05434782608695343
        },
        {
          "name": "F#6",
          "midi": 90,
          "time": 87.30434782608351,
          "velocity": 0.09448818897637795,
          "duration": 0.03260869565217206
        },
        {
          "name": "B5",
          "midi": 83,
          "time": 87.42391304347481,
          "velocity": 0.2204724409448819,
          "duration": 0.03260869565217206
        },
        {
          "name": "D#6",
          "midi": 87,
          "time": 87.42391304347481,
          "velocity": 0.14960629921259844,
          "duration": 0.03260869565217206
        },
        {
          "name": "F6",
          "midi": 89,
          "time": 87.42391304347481,
          "velocity": 0.2204724409448819,
          "duration": 0.043478260869562746
        },
        {
          "name": "A6",
          "midi": 93,
          "time": 87.42391304347481,
          "velocity": 0.1968503937007874,
          "duration": 0.03260869565217206
        },
        {
          "name": "C7",
          "midi": 96,
          "time": 87.42391304347481,
          "velocity": 0.1889763779527559,
          "duration": 0.043478260869562746
        },
        {
          "name": "D#7",
          "midi": 99,
          "time": 87.42391304347481,
          "velocity": 0.15748031496062992,
          "duration": 0.0760869565217348
        },
        {
          "name": "E7",
          "midi": 100,
          "time": 87.42391304347481,
          "velocity": 0.14960629921259844,
          "duration": 0.05434782608695343
        },
        {
          "name": "G7",
          "midi": 103,
          "time": 87.42391304347481,
          "velocity": 0.13385826771653545,
          "duration": 0.05434782608695343
        },
        {
          "name": "A#3",
          "midi": 58,
          "time": 87.4347826086922,
          "velocity": 0.5590551181102362,
          "duration": 0.021739130434781373
        },
        {
          "name": "A4",
          "midi": 69,
          "time": 87.4347826086922,
          "velocity": 0.2755905511811024,
          "duration": 0.03260869565217206
        },
        {
          "name": "F5",
          "midi": 77,
          "time": 87.4347826086922,
          "velocity": 0.25196850393700787,
          "duration": 0.03260869565217206
        },
        {
          "name": "G#5",
          "midi": 80,
          "time": 87.4347826086922,
          "velocity": 0.2204724409448819,
          "duration": 0.05434782608695343
        },
        {
          "name": "A#5",
          "midi": 82,
          "time": 87.4347826086922,
          "velocity": 0.2283464566929134,
          "duration": 0.14130434782607892
        },
        {
          "name": "F7",
          "midi": 101,
          "time": 87.4347826086922,
          "velocity": 0.25984251968503935,
          "duration": 0.21739130434781373
        },
        {
          "name": "F4",
          "midi": 65,
          "time": 87.4456521739096,
          "velocity": 0.25984251968503935,
          "duration": 0.021739130434781373
        },
        {
          "name": "A3",
          "midi": 57,
          "time": 87.45652173912698,
          "velocity": 0.5826771653543307,
          "duration": 0.043478260869562746
        },
        {
          "name": "D5",
          "midi": 74,
          "time": 87.45652173912698,
          "velocity": 0.18110236220472442,
          "duration": 0.10869565217390686
        },
        {
          "name": "E5",
          "midi": 76,
          "time": 87.45652173912698,
          "velocity": 0.12598425196850394,
          "duration": 0.03260869565217206
        },
        {
          "name": "F#6",
          "midi": 90,
          "time": 87.45652173912698,
          "velocity": 0.25196850393700787,
          "duration": 0.10869565217390686
        },
        {
          "name": "D7",
          "midi": 98,
          "time": 87.45652173912698,
          "velocity": 0.11811023622047244,
          "duration": 0.05434782608695343
        },
        {
          "name": "F#7",
          "midi": 102,
          "time": 87.45652173912698,
          "velocity": 0.25196850393700787,
          "duration": 0.14130434782607892
        },
        {
          "name": "C6",
          "midi": 84,
          "time": 87.47826086956177,
          "velocity": 0.25196850393700787,
          "duration": 0.1630434782608603
        },
        {
          "name": "F5",
          "midi": 77,
          "time": 87.48913043477916,
          "velocity": 0.13385826771653545,
          "duration": 0.0760869565217348
        },
        {
          "name": "G7",
          "midi": 103,
          "time": 87.48913043477916,
          "velocity": 0.12598425196850394,
          "duration": 0.03260869565217206
        },
        {
          "name": "C#3",
          "midi": 49,
          "time": 87.49999999999655,
          "velocity": 0.11811023622047244,
          "duration": 0.03260869565217206
        },
        {
          "name": "A#4",
          "midi": 70,
          "time": 87.49999999999655,
          "velocity": 0.09448818897637795,
          "duration": 0.06521739130434412
        },
        {
          "name": "F4",
          "midi": 65,
          "time": 87.51086956521394,
          "velocity": 0.12598425196850394,
          "duration": 0.05434782608695343
        },
        {
          "name": "G#5",
          "midi": 80,
          "time": 87.51086956521394,
          "velocity": 0.11023622047244094,
          "duration": 0.05434782608695343
        },
        {
          "name": "G#3",
          "midi": 56,
          "time": 87.52173913043133,
          "velocity": 0.28346456692913385,
          "duration": 0.03260869565217206
        },
        {
          "name": "A6",
          "midi": 93,
          "time": 87.52173913043133,
          "velocity": 0.1889763779527559,
          "duration": 0.05434782608695343
        },
        {
          "name": "C3",
          "midi": 48,
          "time": 87.53260869564872,
          "velocity": 0.10236220472440945,
          "duration": 0.03260869565217206
        },
        {
          "name": "G#6",
          "midi": 92,
          "time": 87.53260869564872,
          "velocity": 0.15748031496062992,
          "duration": 0.09782608695651618
        },
        {
          "name": "C#7",
          "midi": 97,
          "time": 87.53260869564872,
          "velocity": 0.2204724409448819,
          "duration": 0.05434782608695343
        },
        {
          "name": "D7",
          "midi": 98,
          "time": 87.53260869564872,
          "velocity": 0.15748031496062992,
          "duration": 0.043478260869562746
        },
        {
          "name": "G7",
          "midi": 103,
          "time": 87.5543478260835,
          "velocity": 0.10236220472440945,
          "duration": 0.043478260869562746
        },
        {
          "name": "E5",
          "midi": 76,
          "time": 87.57608695651828,
          "velocity": 0.1732283464566929,
          "duration": 0.10869565217390686
        },
        {
          "name": "G5",
          "midi": 79,
          "time": 87.57608695651828,
          "velocity": 0.25984251968503935,
          "duration": 0.13043478260868824
        },
        {
          "name": "E7",
          "midi": 100,
          "time": 87.57608695651828,
          "velocity": 0.2047244094488189,
          "duration": 0.14130434782607892
        },
        {
          "name": "A2",
          "midi": 45,
          "time": 87.58695652173567,
          "velocity": 0.13385826771653545,
          "duration": 0.03260869565217206
        },
        {
          "name": "C4",
          "midi": 60,
          "time": 87.58695652173567,
          "velocity": 0.1889763779527559,
          "duration": 0.043478260869562746
        },
        {
          "name": "D6",
          "midi": 86,
          "time": 87.58695652173567,
          "velocity": 0.1889763779527559,
          "duration": 0.1630434782608603
        },
        {
          "name": "G4",
          "midi": 67,
          "time": 87.59782608695306,
          "velocity": 0.15748031496062992,
          "duration": 0.10869565217390686
        },
        {
          "name": "A#5",
          "midi": 82,
          "time": 87.59782608695306,
          "velocity": 0.16535433070866143,
          "duration": 0.10869565217390686
        },
        {
          "name": "B6",
          "midi": 95,
          "time": 87.59782608695306,
          "velocity": 0.14173228346456693,
          "duration": 0.06521739130434412
        },
        {
          "name": "E6",
          "midi": 88,
          "time": 87.61956521738784,
          "velocity": 0.25984251968503935,
          "duration": 0.18478260869564167
        },
        {
          "name": "D#7",
          "midi": 99,
          "time": 87.61956521738784,
          "velocity": 0.25196850393700787,
          "duration": 0.10869565217390686
        },
        {
          "name": "F#7",
          "midi": 102,
          "time": 87.61956521738784,
          "velocity": 0.11023622047244094,
          "duration": 0.043478260869562746
        },
        {
          "name": "F#6",
          "midi": 90,
          "time": 87.63043478260524,
          "velocity": 0.15748031496062992,
          "duration": 0.05434782608695343
        },
        {
          "name": "G#2",
          "midi": 44,
          "time": 87.64130434782263,
          "velocity": 0.2440944881889764,
          "duration": 0.05434782608695343
        },
        {
          "name": "C4",
          "midi": 60,
          "time": 87.64130434782263,
          "velocity": 0.18110236220472442,
          "duration": 0.06521739130434412
        },
        {
          "name": "F7",
          "midi": 101,
          "time": 87.68478260869219,
          "velocity": 0.13385826771653545,
          "duration": 0.03260869565217206
        },
        {
          "name": "G2",
          "midi": 43,
          "time": 87.69565217390958,
          "velocity": 0.25196850393700787,
          "duration": 0.021739130434781373
        },
        {
          "name": "F#4",
          "midi": 66,
          "time": 87.72826086956175,
          "velocity": 0.14960629921259844,
          "duration": 0.03260869565217206
        },
        {
          "name": "A#6",
          "midi": 94,
          "time": 87.72826086956175,
          "velocity": 0.1732283464566929,
          "duration": 0.043478260869562746
        },
        {
          "name": "C#7",
          "midi": 97,
          "time": 87.72826086956175,
          "velocity": 0.16535433070866143,
          "duration": 0.0760869565217348
        },
        {
          "name": "E7",
          "midi": 100,
          "time": 87.72826086956175,
          "velocity": 0.2755905511811024,
          "duration": 0.1521739130434696
        },
        {
          "name": "G7",
          "midi": 103,
          "time": 87.72826086956175,
          "velocity": 0.2283464566929134,
          "duration": 0.14130434782607892
        },
        {
          "name": "A#4",
          "midi": 70,
          "time": 87.73913043477914,
          "velocity": 0.13385826771653545,
          "duration": 0.03260869565217206
        },
        {
          "name": "C6",
          "midi": 84,
          "time": 87.73913043477914,
          "velocity": 0.1968503937007874,
          "duration": 0.06521739130434412
        },
        {
          "name": "F7",
          "midi": 101,
          "time": 87.73913043477914,
          "velocity": 0.14960629921259844,
          "duration": 0.08695652173912549
        },
        {
          "name": "A#2",
          "midi": 46,
          "time": 87.74999999999653,
          "velocity": 0.5433070866141733,
          "duration": 0.010869565217390686
        },
        {
          "name": "D7",
          "midi": 98,
          "time": 87.74999999999653,
          "velocity": 0.09448818897637795,
          "duration": 0.05434782608695343
        },
        {
          "name": "D#7",
          "midi": 99,
          "time": 87.74999999999653,
          "velocity": 0.2677165354330709,
          "duration": 0.2608695652173765
        },
        {
          "name": "A5",
          "midi": 81,
          "time": 87.76086956521392,
          "velocity": 0.1968503937007874,
          "duration": 0.0760869565217348
        },
        {
          "name": "D6",
          "midi": 86,
          "time": 87.76086956521392,
          "velocity": 0.07086614173228346,
          "duration": 0.06521739130434412
        },
        {
          "name": "F#6",
          "midi": 90,
          "time": 87.76086956521392,
          "velocity": 0.2440944881889764,
          "duration": 0.09782608695651618
        },
        {
          "name": "D5",
          "midi": 74,
          "time": 87.77173913043131,
          "velocity": 0.11811023622047244,
          "duration": 0.05434782608695343
        },
        {
          "name": "A1",
          "midi": 33,
          "time": 87.7826086956487,
          "velocity": 0.5118110236220472,
          "duration": 0.021739130434781373
        },
        {
          "name": "G#1",
          "midi": 32,
          "time": 87.80434782608349,
          "velocity": 0.5118110236220472,
          "duration": 0.010869565217390686
        },
        {
          "name": "E6",
          "midi": 88,
          "time": 87.81521739130088,
          "velocity": 0.11811023622047244,
          "duration": 0.043478260869562746
        },
        {
          "name": "G#6",
          "midi": 92,
          "time": 87.81521739130088,
          "velocity": 0.11023622047244094,
          "duration": 0.03260869565217206
        },
        {
          "name": "F#1",
          "midi": 30,
          "time": 87.82608695651827,
          "velocity": 0.48031496062992124,
          "duration": 0.03260869565217206
        },
        {
          "name": "D7",
          "midi": 98,
          "time": 87.82608695651827,
          "velocity": 0.11023622047244094,
          "duration": 0.10869565217390686
        },
        {
          "name": "F1",
          "midi": 29,
          "time": 87.85869565217044,
          "velocity": 0.36220472440944884,
          "duration": 0.021739130434781373
        },
        {
          "name": "D#6",
          "midi": 87,
          "time": 87.85869565217044,
          "velocity": 0.1732283464566929,
          "duration": 0.14130434782607892
        },
        {
          "name": "F6",
          "midi": 89,
          "time": 87.85869565217044,
          "velocity": 0.07874015748031496,
          "duration": 0.05434782608695343
        },
        {
          "name": "C2",
          "midi": 36,
          "time": 87.92391304347478,
          "velocity": 0.2283464566929134,
          "duration": 0.021739130434781373
        },
        {
          "name": "C2",
          "midi": 36,
          "time": 87.95652173912696,
          "velocity": 0.18110236220472442,
          "duration": 0.0760869565217348
        },
        {
          "name": "B4",
          "midi": 71,
          "time": 88.04347826086608,
          "velocity": 0.15748031496062992,
          "duration": 0.03260869565217206
        },
        {
          "name": "B2",
          "midi": 47,
          "time": 88.05434782608347,
          "velocity": 0.5511811023622047,
          "duration": 0.010869565217390686
        },
        {
          "name": "D4",
          "midi": 62,
          "time": 88.05434782608347,
          "velocity": 0.18110236220472442,
          "duration": 0.03260869565217206
        },
        {
          "name": "G#2",
          "midi": 44,
          "time": 88.06521739130086,
          "velocity": 0.5511811023622047,
          "duration": 0.010869565217390686
        },
        {
          "name": "G5",
          "midi": 79,
          "time": 88.06521739130086,
          "velocity": 0.2125984251968504,
          "duration": 0.09782608695651618
        },
        {
          "name": "C#2",
          "midi": 37,
          "time": 88.07608695651825,
          "velocity": 0.5826771653543307,
          "duration": 0.010869565217390686
        },
        {
          "name": "B5",
          "midi": 83,
          "time": 88.07608695651825,
          "velocity": 0.11023622047244094,
          "duration": 0.10869565217390686
        },
        {
          "name": "A#1",
          "midi": 34,
          "time": 88.08695652173564,
          "velocity": 0.5354330708661418,
          "duration": 0.010869565217390686
        },
        {
          "name": "A5",
          "midi": 81,
          "time": 88.08695652173564,
          "velocity": 0.14960629921259844,
          "duration": 0.06521739130434412
        },
        {
          "name": "G4",
          "midi": 67,
          "time": 88.09782608695303,
          "velocity": 0.2283464566929134,
          "duration": 0.043478260869562746
        },
        {
          "name": "F#1",
          "midi": 30,
          "time": 88.11956521738782,
          "velocity": 0.5118110236220472,
          "duration": 0.0760869565217348
        },
        {
          "name": "C#5",
          "midi": 73,
          "time": 88.11956521738782,
          "velocity": 0.08661417322834646,
          "duration": 0.03260869565217206
        },
        {
          "name": "D3",
          "midi": 50,
          "time": 88.1304347826052,
          "velocity": 0.2992125984251969,
          "duration": 0.10869565217390686
        },
        {
          "name": "B4",
          "midi": 71,
          "time": 88.1413043478226,
          "velocity": 0.2440944881889764,
          "duration": 0.06521739130434412
        },
        {
          "name": "F5",
          "midi": 77,
          "time": 88.1413043478226,
          "velocity": 0.1732283464566929,
          "duration": 0.043478260869562746
        },
        {
          "name": "G4",
          "midi": 67,
          "time": 88.18478260869216,
          "velocity": 0.25984251968503935,
          "duration": 0.21739130434781373
        },
        {
          "name": "G1",
          "midi": 31,
          "time": 88.19565217390955,
          "velocity": 0.5196850393700787,
          "duration": 0.4673913043477995
        },
        {
          "name": "G#6",
          "midi": 92,
          "time": 88.21739130434433,
          "velocity": 0.11023622047244094,
          "duration": 0.043478260869562746
        },
        {
          "name": "B5",
          "midi": 83,
          "time": 88.22826086956172,
          "velocity": 0.13385826771653545,
          "duration": 0.14130434782607892
        },
        {
          "name": "B4",
          "midi": 71,
          "time": 88.2608695652139,
          "velocity": 0.12598425196850394,
          "duration": 0.09782608695651618
        },
        {
          "name": "F5",
          "midi": 77,
          "time": 88.27173913043129,
          "velocity": 0.13385826771653545,
          "duration": 0.0760869565217348
        },
        {
          "name": "F#5",
          "midi": 78,
          "time": 88.51086956521388,
          "velocity": 0.2283464566929134,
          "duration": 0.06521739130434412
        },
        {
          "name": "G#6",
          "midi": 92,
          "time": 88.51086956521388,
          "velocity": 0.11023622047244094,
          "duration": 0.05434782608695343
        },
        {
          "name": "A6",
          "midi": 93,
          "time": 88.51086956521388,
          "velocity": 0.07086614173228346,
          "duration": 0.03260869565217206
        },
        {
          "name": "E7",
          "midi": 100,
          "time": 88.51086956521388,
          "velocity": 0.1968503937007874,
          "duration": 0.2391304347825951
        },
        {
          "name": "F7",
          "midi": 101,
          "time": 88.51086956521388,
          "velocity": 0.2283464566929134,
          "duration": 0.2499999999999858
        },
        {
          "name": "C6",
          "midi": 84,
          "time": 88.52173913043127,
          "velocity": 0.18110236220472442,
          "duration": 0.05434782608695343
        },
        {
          "name": "D6",
          "midi": 86,
          "time": 88.52173913043127,
          "velocity": 0.2283464566929134,
          "duration": 0.06521739130434412
        },
        {
          "name": "E6",
          "midi": 88,
          "time": 88.53260869564866,
          "velocity": 0.2125984251968504,
          "duration": 0.043478260869562746
        },
        {
          "name": "B6",
          "midi": 95,
          "time": 88.53260869564866,
          "velocity": 0.07874015748031496,
          "duration": 0.043478260869562746
        },
        {
          "name": "D#7",
          "midi": 99,
          "time": 88.53260869564866,
          "velocity": 0.11811023622047244,
          "duration": 0.043478260869562746
        },
        {
          "name": "A5",
          "midi": 81,
          "time": 88.54347826086605,
          "velocity": 0.11023622047244094,
          "duration": 0.043478260869562746
        },
        {
          "name": "D#4",
          "midi": 63,
          "time": 88.57608695651822,
          "velocity": 0.14173228346456693,
          "duration": 0.0760869565217348
        },
        {
          "name": "G5",
          "midi": 79,
          "time": 88.57608695651822,
          "velocity": 0.25196850393700787,
          "duration": 0.0760869565217348
        },
        {
          "name": "C#6",
          "midi": 85,
          "time": 88.57608695651822,
          "velocity": 0.2125984251968504,
          "duration": 0.0760869565217348
        },
        {
          "name": "F#7",
          "midi": 102,
          "time": 88.57608695651822,
          "velocity": 0.18110236220472442,
          "duration": 0.06521739130434412
        },
        {
          "name": "F6",
          "midi": 89,
          "time": 88.58695652173562,
          "velocity": 0.18110236220472442,
          "duration": 0.08695652173912549
        },
        {
          "name": "A#6",
          "midi": 94,
          "time": 88.58695652173562,
          "velocity": 0.07874015748031496,
          "duration": 0.043478260869562746
        },
        {
          "name": "D#6",
          "midi": 87,
          "time": 88.597826086953,
          "velocity": 0.2677165354330709,
          "duration": 0.0760869565217348
        },
        {
          "name": "G7",
          "midi": 103,
          "time": 88.64130434782257,
          "velocity": 0.23622047244094488,
          "duration": 0.14130434782607892
        },
        {
          "name": "F#5",
          "midi": 78,
          "time": 88.65217391303996,
          "velocity": 0.23622047244094488,
          "duration": 0.14130434782607892
        },
        {
          "name": "C6",
          "midi": 84,
          "time": 88.65217391303996,
          "velocity": 0.1889763779527559,
          "duration": 0.13043478260868824
        },
        {
          "name": "G#6",
          "midi": 92,
          "time": 88.65217391303996,
          "velocity": 0.14960629921259844,
          "duration": 0.043478260869562746
        },
        {
          "name": "A#6",
          "midi": 94,
          "time": 88.65217391303996,
          "velocity": 0.1889763779527559,
          "duration": 0.11956521739129755
        },
        {
          "name": "A#3",
          "midi": 58,
          "time": 88.66304347825735,
          "velocity": 0.5275590551181102,
          "duration": 0.010869565217390686
        },
        {
          "name": "E6",
          "midi": 88,
          "time": 88.66304347825735,
          "velocity": 0.18110236220472442,
          "duration": 0.05434782608695343
        },
        {
          "name": "A3",
          "midi": 57,
          "time": 88.67391304347474,
          "velocity": 0.5905511811023622,
          "duration": 0.043478260869562746
        },
        {
          "name": "D5",
          "midi": 74,
          "time": 88.67391304347474,
          "velocity": 0.1732283464566929,
          "duration": 0.10869565217390686
        },
        {
          "name": "D6",
          "midi": 86,
          "time": 88.67391304347474,
          "velocity": 0.2677165354330709,
          "duration": 0.11956521739129755
        },
        {
          "name": "C#7",
          "midi": 97,
          "time": 88.70652173912691,
          "velocity": 0.25196850393700787,
          "duration": 0.17391304347825098
        },
        {
          "name": "G#3",
          "midi": 56,
          "time": 88.7173913043443,
          "velocity": 0.47244094488188976,
          "duration": 0.043478260869562746
        },
        {
          "name": "D#7",
          "midi": 99,
          "time": 88.7173913043443,
          "velocity": 0.11023622047244094,
          "duration": 0.0760869565217348
        },
        {
          "name": "F#7",
          "midi": 102,
          "time": 88.7282608695617,
          "velocity": 0.2283464566929134,
          "duration": 0.06521739130434412
        },
        {
          "name": "D4",
          "midi": 62,
          "time": 88.74999999999648,
          "velocity": 0.10236220472440945,
          "duration": 0.03260869565217206
        },
        {
          "name": "E7",
          "midi": 100,
          "time": 88.76086956521387,
          "velocity": 0.13385826771653545,
          "duration": 0.03260869565217206
        },
        {
          "name": "G#6",
          "midi": 92,
          "time": 88.77173913043126,
          "velocity": 0.08661417322834646,
          "duration": 0.043478260869562746
        },
        {
          "name": "C5",
          "midi": 72,
          "time": 88.80434782608343,
          "velocity": 0.2440944881889764,
          "duration": 0.08695652173912549
        },
        {
          "name": "E5",
          "midi": 76,
          "time": 88.80434782608343,
          "velocity": 0.1968503937007874,
          "duration": 0.08695652173912549
        },
        {
          "name": "A#5",
          "midi": 82,
          "time": 88.80434782608343,
          "velocity": 0.2283464566929134,
          "duration": 0.09782608695651618
        },
        {
          "name": "D6",
          "midi": 86,
          "time": 88.80434782608343,
          "velocity": 0.2125984251968504,
          "duration": 0.05434782608695343
        },
        {
          "name": "C7",
          "midi": 96,
          "time": 88.80434782608343,
          "velocity": 0.16535433070866143,
          "duration": 0.0760869565217348
        },
        {
          "name": "G4",
          "midi": 67,
          "time": 88.82608695651821,
          "velocity": 0.16535433070866143,
          "duration": 0.06521739130434412
        },
        {
          "name": "B6",
          "midi": 95,
          "time": 88.8369565217356,
          "velocity": 0.1968503937007874,
          "duration": 0.06521739130434412
        },
        {
          "name": "E7",
          "midi": 100,
          "time": 88.84782608695299,
          "velocity": 0.11811023622047244,
          "duration": 0.03260869565217206
        },
        {
          "name": "G6",
          "midi": 91,
          "time": 88.85869565217038,
          "velocity": 0.14173228346456693,
          "duration": 0.03260869565217206
        },
        {
          "name": "F#7",
          "midi": 102,
          "time": 88.85869565217038,
          "velocity": 0.13385826771653545,
          "duration": 0.03260869565217206
        },
        {
          "name": "A4",
          "midi": 69,
          "time": 89.10869565217038,
          "velocity": 0.18110236220472442,
          "duration": 0.10869565217390686
        },
        {
          "name": "D5",
          "midi": 74,
          "time": 89.10869565217038,
          "velocity": 0.2204724409448819,
          "duration": 0.10869565217390686
        },
        {
          "name": "D6",
          "midi": 86,
          "time": 89.10869565217038,
          "velocity": 0.2440944881889764,
          "duration": 0.10869565217390686
        },
        {
          "name": "C#7",
          "midi": 97,
          "time": 89.10869565217038,
          "velocity": 0.2204724409448819,
          "duration": 0.08695652173912549
        },
        {
          "name": "D7",
          "midi": 98,
          "time": 89.10869565217038,
          "velocity": 0.2440944881889764,
          "duration": 0.06521739130434412
        },
        {
          "name": "A5",
          "midi": 81,
          "time": 89.11956521738777,
          "velocity": 0.1968503937007874,
          "duration": 0.11956521739129755
        },
        {
          "name": "F#6",
          "midi": 90,
          "time": 89.11956521738777,
          "velocity": 0.07086614173228346,
          "duration": 0.03260869565217206
        },
        {
          "name": "C7",
          "midi": 96,
          "time": 89.11956521738777,
          "velocity": 0.2204724409448819,
          "duration": 0.10869565217390686
        },
        {
          "name": "F7",
          "midi": 101,
          "time": 89.11956521738777,
          "velocity": 0.11811023622047244,
          "duration": 0.08695652173912549
        },
        {
          "name": "G7",
          "midi": 103,
          "time": 89.11956521738777,
          "velocity": 0.1968503937007874,
          "duration": 0.09782608695651618
        },
        {
          "name": "C6",
          "midi": 84,
          "time": 89.14130434782255,
          "velocity": 0.2755905511811024,
          "duration": 0.10869565217390686
        },
        {
          "name": "E6",
          "midi": 88,
          "time": 89.14130434782255,
          "velocity": 0.15748031496062992,
          "duration": 0.08695652173912549
        },
        {
          "name": "A#6",
          "midi": 94,
          "time": 89.14130434782255,
          "velocity": 0.18110236220472442,
          "duration": 0.08695652173912549
        },
        {
          "name": "D#7",
          "midi": 99,
          "time": 89.15217391303995,
          "velocity": 0.11811023622047244,
          "duration": 0.06521739130434412
        },
        {
          "name": "E7",
          "midi": 100,
          "time": 89.15217391303995,
          "velocity": 0.2047244094488189,
          "duration": 0.0760869565217348
        },
        {
          "name": "F#5",
          "midi": 78,
          "time": 89.16304347825734,
          "velocity": 0.07874015748031496,
          "duration": 0.03260869565217206
        },
        {
          "name": "G#6",
          "midi": 92,
          "time": 89.16304347825734,
          "velocity": 0.18110236220472442,
          "duration": 0.05434782608695343
        },
        {
          "name": "A#2",
          "midi": 46,
          "time": 89.28260869564863,
          "velocity": 0.5433070866141733,
          "duration": 0.010869565217390686
        },
        {
          "name": "D2",
          "midi": 38,
          "time": 89.29347826086602,
          "velocity": 0.5590551181102362,
          "duration": 0.010869565217390686
        },
        {
          "name": "A#1",
          "midi": 34,
          "time": 89.30434782608341,
          "velocity": 0.5354330708661418,
          "duration": 0.010869565217390686
        },
        {
          "name": "A1",
          "midi": 33,
          "time": 89.3152173913008,
          "velocity": 0.5354330708661418,
          "duration": 0.010869565217390686
        },
        {
          "name": "G#1",
          "midi": 32,
          "time": 89.3260869565182,
          "velocity": 0.5196850393700787,
          "duration": 0.010869565217390686
        },
        {
          "name": "G1",
          "midi": 31,
          "time": 89.33695652173559,
          "velocity": 0.5118110236220472,
          "duration": 0.021739130434781373
        },
        {
          "name": "F#1",
          "midi": 30,
          "time": 89.38043478260515,
          "velocity": 0.4330708661417323,
          "duration": 0.021739130434781373
        },
        {
          "name": "F1",
          "midi": 29,
          "time": 89.40217391303993,
          "velocity": 0.3464566929133858,
          "duration": 0.03260869565217206
        },
        {
          "name": "G#6",
          "midi": 92,
          "time": 89.41304347825732,
          "velocity": 0.2125984251968504,
          "duration": 0.08695652173912549
        },
        {
          "name": "A#3",
          "midi": 58,
          "time": 89.42391304347471,
          "velocity": 0.2204724409448819,
          "duration": 0.14130434782607892
        },
        {
          "name": "F4",
          "midi": 65,
          "time": 89.42391304347471,
          "velocity": 0.2047244094488189,
          "duration": 0.09782608695651618
        },
        {
          "name": "A#5",
          "midi": 82,
          "time": 89.42391304347471,
          "velocity": 0.18110236220472442,
          "duration": 0.08695652173912549
        },
        {
          "name": "F#6",
          "midi": 90,
          "time": 89.42391304347471,
          "velocity": 0.18110236220472442,
          "duration": 0.0760869565217348
        },
        {
          "name": "A6",
          "midi": 93,
          "time": 89.42391304347471,
          "velocity": 0.16535433070866143,
          "duration": 0.09782608695651618
        },
        {
          "name": "B6",
          "midi": 95,
          "time": 89.42391304347471,
          "velocity": 0.16535433070866143,
          "duration": 0.13043478260868824
        },
        {
          "name": "D#7",
          "midi": 99,
          "time": 89.42391304347471,
          "velocity": 0.15748031496062992,
          "duration": 0.13043478260868824
        },
        {
          "name": "E7",
          "midi": 100,
          "time": 89.42391304347471,
          "velocity": 0.10236220472440945,
          "duration": 0.11956521739129755
        },
        {
          "name": "F5",
          "midi": 77,
          "time": 89.4456521739095,
          "velocity": 0.25196850393700787,
          "duration": 0.13043478260868824
        },
        {
          "name": "G#5",
          "midi": 80,
          "time": 89.4456521739095,
          "velocity": 0.2125984251968504,
          "duration": 0.11956521739129755
        },
        {
          "name": "D7",
          "midi": 98,
          "time": 89.4456521739095,
          "velocity": 0.1732283464566929,
          "duration": 0.10869565217390686
        },
        {
          "name": "C#7",
          "midi": 97,
          "time": 89.45652173912688,
          "velocity": 0.15748031496062992,
          "duration": 0.10869565217390686
        },
        {
          "name": "D6",
          "midi": 86,
          "time": 89.46739130434428,
          "velocity": 0.2204724409448819,
          "duration": 0.10869565217390686
        },
        {
          "name": "A#6",
          "midi": 94,
          "time": 89.48913043477906,
          "velocity": 0.2125984251968504,
          "duration": 0.08695652173912549
        },
        {
          "name": "A#3",
          "midi": 58,
          "time": 89.71739130434428,
          "velocity": 0.25196850393700787,
          "duration": 0.08695652173912549
        },
        {
          "name": "F4",
          "midi": 65,
          "time": 89.71739130434428,
          "velocity": 0.23622047244094488,
          "duration": 0.06521739130434412
        },
        {
          "name": "G#5",
          "midi": 80,
          "time": 89.71739130434428,
          "velocity": 0.2125984251968504,
          "duration": 0.06521739130434412
        },
        {
          "name": "F5",
          "midi": 77,
          "time": 89.72826086956167,
          "velocity": 0.23622047244094488,
          "duration": 0.06521739130434412
        },
        {
          "name": "F6",
          "midi": 89,
          "time": 89.72826086956167,
          "velocity": 0.23622047244094488,
          "duration": 0.0760869565217348
        },
        {
          "name": "A#6",
          "midi": 94,
          "time": 89.72826086956167,
          "velocity": 0.11023622047244094,
          "duration": 0.03260869565217206
        },
        {
          "name": "C7",
          "midi": 96,
          "time": 89.72826086956167,
          "velocity": 0.1889763779527559,
          "duration": 0.05434782608695343
        },
        {
          "name": "C#7",
          "midi": 97,
          "time": 89.72826086956167,
          "velocity": 0.1732283464566929,
          "duration": 0.06521739130434412
        },
        {
          "name": "D7",
          "midi": 98,
          "time": 89.73913043477906,
          "velocity": 0.08661417322834646,
          "duration": 0.03260869565217206
        },
        {
          "name": "D5",
          "midi": 74,
          "time": 89.74999999999645,
          "velocity": 0.16535433070866143,
          "duration": 0.043478260869562746
        },
        {
          "name": "F#4",
          "midi": 66,
          "time": 89.86956521738774,
          "velocity": 0.33858267716535434,
          "duration": 0.021739130434781373
        },
        {
          "name": "G5",
          "midi": 79,
          "time": 89.86956521738774,
          "velocity": 0.14960629921259844,
          "duration": 0.03260869565217206
        },
        {
          "name": "F6",
          "midi": 89,
          "time": 89.86956521738774,
          "velocity": 0.23622047244094488,
          "duration": 0.09782608695651618
        },
        {
          "name": "A#6",
          "midi": 94,
          "time": 89.86956521738774,
          "velocity": 0.1732283464566929,
          "duration": 0.043478260869562746
        },
        {
          "name": "D7",
          "midi": 98,
          "time": 89.86956521738774,
          "velocity": 0.08661417322834646,
          "duration": 0.03260869565217206
        },
        {
          "name": "D#7",
          "midi": 99,
          "time": 89.86956521738774,
          "velocity": 0.10236220472440945,
          "duration": 0.03260869565217206
        },
        {
          "name": "G7",
          "midi": 103,
          "time": 89.86956521738774,
          "velocity": 0.13385826771653545,
          "duration": 0.03260869565217206
        },
        {
          "name": "C#5",
          "midi": 73,
          "time": 89.88043478260514,
          "velocity": 0.25984251968503935,
          "duration": 0.021739130434781373
        },
        {
          "name": "F5",
          "midi": 77,
          "time": 89.88043478260514,
          "velocity": 0.2755905511811024,
          "duration": 0.13043478260868824
        },
        {
          "name": "G#6",
          "midi": 92,
          "time": 89.88043478260514,
          "velocity": 0.07086614173228346,
          "duration": 0.03260869565217206
        },
        {
          "name": "C7",
          "midi": 96,
          "time": 89.88043478260514,
          "velocity": 0.13385826771653545,
          "duration": 0.0760869565217348
        },
        {
          "name": "C#7",
          "midi": 97,
          "time": 89.88043478260514,
          "velocity": 0.2204724409448819,
          "duration": 0.14130434782607892
        },
        {
          "name": "A3",
          "midi": 57,
          "time": 89.89130434782253,
          "velocity": 0.5748031496062992,
          "duration": 0.05434782608695343
        },
        {
          "name": "E4",
          "midi": 64,
          "time": 89.89130434782253,
          "velocity": 0.2677165354330709,
          "duration": 0.021739130434781373
        },
        {
          "name": "D5",
          "midi": 74,
          "time": 89.90217391303992,
          "velocity": 0.2440944881889764,
          "duration": 0.11956521739129755
        },
        {
          "name": "E7",
          "midi": 100,
          "time": 89.90217391303992,
          "velocity": 0.1732283464566929,
          "duration": 0.0760869565217348
        },
        {
          "name": "E6",
          "midi": 88,
          "time": 89.91304347825731,
          "velocity": 0.2125984251968504,
          "duration": 0.05434782608695343
        },
        {
          "name": "B6",
          "midi": 95,
          "time": 89.91304347825731,
          "velocity": 0.2283464566929134,
          "duration": 0.11956521739129755
        },
        {
          "name": "G#3",
          "midi": 56,
          "time": 89.94565217390948,
          "velocity": 0.3779527559055118,
          "duration": 0.043478260869562746
        },
        {
          "name": "F4",
          "midi": 65,
          "time": 89.94565217390948,
          "velocity": 0.18110236220472442,
          "duration": 0.0760869565217348
        },
        {
          "name": "G#5",
          "midi": 80,
          "time": 89.94565217390948,
          "velocity": 0.14960629921259844,
          "duration": 0.03260869565217206
        },
        {
          "name": "A#5",
          "midi": 82,
          "time": 89.94565217390948,
          "velocity": 0.1732283464566929,
          "duration": 0.09782608695651618
        },
        {
          "name": "C#6",
          "midi": 85,
          "time": 89.94565217390948,
          "velocity": 0.23622047244094488,
          "duration": 0.08695652173912549
        },
        {
          "name": "G#6",
          "midi": 92,
          "time": 89.94565217390948,
          "velocity": 0.16535433070866143,
          "duration": 0.09782608695651618
        },
        {
          "name": "D#6",
          "midi": 87,
          "time": 89.96739130434426,
          "velocity": 0.1889763779527559,
          "duration": 0.03260869565217206
        },
        {
          "name": "F#6",
          "midi": 90,
          "time": 89.96739130434426,
          "velocity": 0.13385826771653545,
          "duration": 0.043478260869562746
        },
        {
          "name": "C7",
          "midi": 96,
          "time": 89.96739130434426,
          "velocity": 0.2047244094488189,
          "duration": 0.18478260869564167
        },
        {
          "name": "G#5",
          "midi": 80,
          "time": 89.98913043477904,
          "velocity": 0.09448818897637795,
          "duration": 0.03260869565217206
        },
        {
          "name": "A#3",
          "midi": 58,
          "time": 89.99999999999643,
          "velocity": 0.09448818897637795,
          "duration": 0.03260869565217206
        },
        {
          "name": "D#6",
          "midi": 87,
          "time": 90.01086956521382,
          "velocity": 0.10236220472440945,
          "duration": 0.05434782608695343
        },
        {
          "name": "G4",
          "midi": 67,
          "time": 90.02173913043121,
          "velocity": 0.1968503937007874,
          "duration": 0.13043478260868824
        },
        {
          "name": "G5",
          "midi": 79,
          "time": 90.02173913043121,
          "velocity": 0.29133858267716534,
          "duration": 0.09782608695651618
        },
        {
          "name": "E5",
          "midi": 76,
          "time": 90.0326086956486,
          "velocity": 0.2755905511811024,
          "duration": 0.13043478260868824
        },
        {
          "name": "C#7",
          "midi": 97,
          "time": 90.0326086956486,
          "velocity": 0.1968503937007874,
          "duration": 0.11956521739129755
        },
        {
          "name": "D7",
          "midi": 98,
          "time": 90.0326086956486,
          "velocity": 0.14960629921259844,
          "duration": 0.043478260869562746
        },
        {
          "name": "C4",
          "midi": 60,
          "time": 90.043478260866,
          "velocity": 0.18110236220472442,
          "duration": 0.08695652173912549
        },
        {
          "name": "A5",
          "midi": 81,
          "time": 90.043478260866,
          "velocity": 0.12598425196850394,
          "duration": 0.03260869565217206
        },
        {
          "name": "F#6",
          "midi": 90,
          "time": 90.043478260866,
          "velocity": 0.30708661417322836,
          "duration": 0.043478260869562746
        },
        {
          "name": "C6",
          "midi": 84,
          "time": 90.05434782608339,
          "velocity": 0.25984251968503935,
          "duration": 0.1630434782608603
        },
        {
          "name": "A#6",
          "midi": 94,
          "time": 90.06521739130078,
          "velocity": 0.11811023622047244,
          "duration": 0.06521739130434412
        },
        {
          "name": "A#5",
          "midi": 82,
          "time": 90.07608695651817,
          "velocity": 0.15748031496062992,
          "duration": 0.05434782608695343
        },
        {
          "name": "G#6",
          "midi": 92,
          "time": 90.07608695651817,
          "velocity": 0.1968503937007874,
          "duration": 0.0760869565217348
        },
        {
          "name": "F6",
          "midi": 89,
          "time": 90.08695652173556,
          "velocity": 0.23622047244094488,
          "duration": 0.021739130434781373
        },
        {
          "name": "B6",
          "midi": 95,
          "time": 90.09782608695295,
          "velocity": 0.15748031496062992,
          "duration": 0.05434782608695343
        },
        {
          "name": "D7",
          "midi": 98,
          "time": 90.09782608695295,
          "velocity": 0.11811023622047244,
          "duration": 0.043478260869562746
        },
        {
          "name": "D6",
          "midi": 86,
          "time": 90.10869565217034,
          "velocity": 0.11023622047244094,
          "duration": 0.043478260869562746
        },
        {
          "name": "A4",
          "midi": 69,
          "time": 90.17391304347468,
          "velocity": 0.1968503937007874,
          "duration": 0.11956521739129755
        },
        {
          "name": "A5",
          "midi": 81,
          "time": 90.17391304347468,
          "velocity": 0.3464566929133858,
          "duration": 0.06521739130434412
        },
        {
          "name": "F#5",
          "midi": 78,
          "time": 90.18478260869207,
          "velocity": 0.3228346456692913,
          "duration": 0.10869565217390686
        },
        {
          "name": "G#6",
          "midi": 92,
          "time": 90.18478260869207,
          "velocity": 0.2677165354330709,
          "duration": 0.08695652173912549
        },
        {
          "name": "A#6",
          "midi": 94,
          "time": 90.18478260869207,
          "velocity": 0.11811023622047244,
          "duration": 0.03260869565217206
        },
        {
          "name": "C#7",
          "midi": 97,
          "time": 90.18478260869207,
          "velocity": 0.25196850393700787,
          "duration": 0.11956521739129755
        },
        {
          "name": "D7",
          "midi": 98,
          "time": 90.18478260869207,
          "velocity": 0.23622047244094488,
          "duration": 0.10869565217390686
        },
        {
          "name": "D#7",
          "midi": 99,
          "time": 90.18478260869207,
          "velocity": 0.14960629921259844,
          "duration": 0.09782608695651618
        },
        {
          "name": "E7",
          "midi": 100,
          "time": 90.18478260869207,
          "velocity": 0.14173228346456693,
          "duration": 0.09782608695651618
        },
        {
          "name": "D5",
          "midi": 74,
          "time": 90.19565217390947,
          "velocity": 0.1732283464566929,
          "duration": 0.09782608695651618
        },
        {
          "name": "E6",
          "midi": 88,
          "time": 90.20652173912686,
          "velocity": 0.31496062992125984,
          "duration": 0.13043478260868824
        },
        {
          "name": "F#7",
          "midi": 102,
          "time": 90.20652173912686,
          "velocity": 0.2677165354330709,
          "duration": 0.19565217391303236
        },
        {
          "name": "G#5",
          "midi": 80,
          "time": 90.22826086956164,
          "velocity": 0.3464566929133858,
          "duration": 0.09782608695651618
        },
        {
          "name": "D6",
          "midi": 86,
          "time": 90.22826086956164,
          "velocity": 0.2440944881889764,
          "duration": 0.06521739130434412
        },
        {
          "name": "A#6",
          "midi": 94,
          "time": 90.22826086956164,
          "velocity": 0.14960629921259844,
          "duration": 0.05434782608695343
        },
        {
          "name": "C6",
          "midi": 84,
          "time": 90.23913043477903,
          "velocity": 0.08661417322834646,
          "duration": 0.03260869565217206
        },
        {
          "name": "A6",
          "midi": 93,
          "time": 90.24999999999642,
          "velocity": 0.1732283464566929,
          "duration": 0.06521739130434412
        },
        {
          "name": "C#6",
          "midi": 85,
          "time": 90.2717391304312,
          "velocity": 0.14960629921259844,
          "duration": 0.10869565217390686
        },
        {
          "name": "B5",
          "midi": 83,
          "time": 90.30434782608337,
          "velocity": 0.10236220472440945,
          "duration": 0.06521739130434412
        },
        {
          "name": "G#5",
          "midi": 80,
          "time": 90.36956521738772,
          "velocity": 0.18110236220472442,
          "duration": 0.13043478260868824
        },
        {
          "name": "C5",
          "midi": 72,
          "time": 90.47826086956162,
          "velocity": 0.14960629921259844,
          "duration": 0.043478260869562746
        },
        {
          "name": "G5",
          "midi": 79,
          "time": 90.47826086956162,
          "velocity": 0.2204724409448819,
          "duration": 0.11956521739129755
        },
        {
          "name": "A#2",
          "midi": 46,
          "time": 90.48913043477901,
          "velocity": 0.5354330708661418,
          "duration": 0.021739130434781373
        },
        {
          "name": "F5",
          "midi": 77,
          "time": 90.48913043477901,
          "velocity": 0.11023622047244094,
          "duration": 0.0760869565217348
        },
        {
          "name": "D#6",
          "midi": 87,
          "time": 90.48913043477901,
          "velocity": 0.07874015748031496,
          "duration": 0.03260869565217206
        },
        {
          "name": "B4",
          "midi": 71,
          "time": 90.52173913043119,
          "velocity": 0.28346456692913385,
          "duration": 0.1630434782608603
        },
        {
          "name": "A5",
          "midi": 81,
          "time": 90.52173913043119,
          "velocity": 0.11811023622047244,
          "duration": 0.06521739130434412
        },
        {
          "name": "G#1",
          "midi": 32,
          "time": 90.53260869564858,
          "velocity": 0.5748031496062992,
          "duration": 0.021739130434781373
        },
        {
          "name": "G4",
          "midi": 67,
          "time": 90.54347826086597,
          "velocity": 0.2204724409448819,
          "duration": 0.05434782608695343
        },
        {
          "name": "G1",
          "midi": 31,
          "time": 90.55434782608336,
          "velocity": 0.5748031496062992,
          "duration": 0.03260869565217206
        },
        {
          "name": "D5",
          "midi": 74,
          "time": 90.55434782608336,
          "velocity": 0.25984251968503935,
          "duration": 0.1630434782608603
        },
        {
          "name": "F#6",
          "midi": 90,
          "time": 90.57608695651814,
          "velocity": 0.10236220472440945,
          "duration": 0.043478260869562746
        },
        {
          "name": "F#1",
          "midi": 30,
          "time": 90.58695652173553,
          "velocity": 0.5354330708661418,
          "duration": 0.021739130434781373
        },
        {
          "name": "G1",
          "midi": 31,
          "time": 90.60869565217031,
          "velocity": 0.4645669291338583,
          "duration": 0.021739130434781373
        },
        {
          "name": "G4",
          "midi": 67,
          "time": 90.60869565217031,
          "velocity": 0.25196850393700787,
          "duration": 0.2391304347825951
        },
        {
          "name": "D4",
          "midi": 62,
          "time": 90.64130434782248,
          "velocity": 0.2677165354330709,
          "duration": 0.22826086956520442
        },
        {
          "name": "G1",
          "midi": 31,
          "time": 90.66304347825726,
          "velocity": 0.5196850393700787,
          "duration": 0.44565217391301815
        },
        {
          "name": "B4",
          "midi": 71,
          "time": 90.69565217390944,
          "velocity": 0.2204724409448819,
          "duration": 0.09782608695651618
        },
        {
          "name": "B4",
          "midi": 71,
          "time": 90.80434782608334,
          "velocity": 0.10236220472440945,
          "duration": 0.03260869565217206
        },
        {
          "name": "A4",
          "midi": 69,
          "time": 90.94565217390942,
          "velocity": 0.2204724409448819,
          "duration": 0.0760869565217348
        },
        {
          "name": "F#5",
          "midi": 78,
          "time": 90.94565217390942,
          "velocity": 0.28346456692913385,
          "duration": 0.0760869565217348
        },
        {
          "name": "A5",
          "midi": 81,
          "time": 90.95652173912681,
          "velocity": 0.29133858267716534,
          "duration": 0.0760869565217348
        },
        {
          "name": "G#6",
          "midi": 92,
          "time": 90.95652173912681,
          "velocity": 0.2283464566929134,
          "duration": 0.06521739130434412
        },
        {
          "name": "C7",
          "midi": 96,
          "time": 90.95652173912681,
          "velocity": 0.11023622047244094,
          "duration": 0.06521739130434412
        },
        {
          "name": "D7",
          "midi": 98,
          "time": 90.95652173912681,
          "velocity": 0.14960629921259844,
          "duration": 0.0760869565217348
        },
        {
          "name": "E7",
          "midi": 100,
          "time": 90.95652173912681,
          "velocity": 0.2204724409448819,
          "duration": 0.28260869565215785
        },
        {
          "name": "D#7",
          "midi": 99,
          "time": 90.9673913043442,
          "velocity": 0.2283464566929134,
          "duration": 0.10869565217390686
        },
        {
          "name": "C6",
          "midi": 84,
          "time": 90.9782608695616,
          "velocity": 0.18110236220472442,
          "duration": 0.043478260869562746
        },
        {
          "name": "A#5",
          "midi": 82,
          "time": 91.01086956521377,
          "velocity": 0.31496062992125984,
          "duration": 0.08695652173912549
        },
        {
          "name": "A#4",
          "midi": 70,
          "time": 91.02173913043116,
          "velocity": 0.2125984251968504,
          "duration": 0.03260869565217206
        },
        {
          "name": "D#5",
          "midi": 75,
          "time": 91.02173913043116,
          "velocity": 0.10236220472440945,
          "duration": 0.03260869565217206
        },
        {
          "name": "F7",
          "midi": 101,
          "time": 91.02173913043116,
          "velocity": 0.2283464566929134,
          "duration": 0.21739130434781373
        },
        {
          "name": "D#4",
          "midi": 63,
          "time": 91.03260869564855,
          "velocity": 0.12598425196850394,
          "duration": 0.06521739130434412
        },
        {
          "name": "G5",
          "midi": 79,
          "time": 91.03260869564855,
          "velocity": 0.30708661417322836,
          "duration": 0.05434782608695343
        },
        {
          "name": "C#7",
          "midi": 97,
          "time": 91.04347826086594,
          "velocity": 0.14173228346456693,
          "duration": 0.0760869565217348
        },
        {
          "name": "F#7",
          "midi": 102,
          "time": 91.04347826086594,
          "velocity": 0.10236220472440945,
          "duration": 0.043478260869562746
        },
        {
          "name": "C#6",
          "midi": 85,
          "time": 91.05434782608333,
          "velocity": 0.16535433070866143,
          "duration": 0.043478260869562746
        },
        {
          "name": "B6",
          "midi": 95,
          "time": 91.05434782608333,
          "velocity": 0.14960629921259844,
          "duration": 0.05434782608695343
        },
        {
          "name": "D#6",
          "midi": 87,
          "time": 91.06521739130072,
          "velocity": 0.10236220472440945,
          "duration": 0.03260869565217206
        },
        {
          "name": "G#6",
          "midi": 92,
          "time": 91.0869565217355,
          "velocity": 0.25984251968503935,
          "duration": 0.2391304347825951
        },
        {
          "name": "D#7",
          "midi": 99,
          "time": 91.0869565217355,
          "velocity": 0.14173228346456693,
          "duration": 0.0760869565217348
        },
        {
          "name": "A#3",
          "midi": 58,
          "time": 91.09782608695289,
          "velocity": 0.5275590551181102,
          "duration": 0.021739130434781373
        },
        {
          "name": "A5",
          "midi": 81,
          "time": 91.09782608695289,
          "velocity": 0.2125984251968504,
          "duration": 0.14130434782607892
        },
        {
          "name": "E6",
          "midi": 88,
          "time": 91.09782608695289,
          "velocity": 0.2755905511811024,
          "duration": 0.14130434782607892
        },
        {
          "name": "G7",
          "midi": 103,
          "time": 91.09782608695289,
          "velocity": 0.13385826771653545,
          "duration": 0.03260869565217206
        },
        {
          "name": "F#4",
          "midi": 66,
          "time": 91.10869565217028,
          "velocity": 0.2677165354330709,
          "duration": 0.021739130434781373
        },
        {
          "name": "C#5",
          "midi": 73,
          "time": 91.10869565217028,
          "velocity": 0.2440944881889764,
          "duration": 0.021739130434781373
        },
        {
          "name": "C6",
          "midi": 84,
          "time": 91.10869565217028,
          "velocity": 0.14960629921259844,
          "duration": 0.06521739130434412
        },
        {
          "name": "A3",
          "midi": 57,
          "time": 91.11956521738767,
          "velocity": 0.5826771653543307,
          "duration": 0.043478260869562746
        },
        {
          "name": "E5",
          "midi": 76,
          "time": 91.11956521738767,
          "velocity": 0.07874015748031496,
          "duration": 0.03260869565217206
        },
        {
          "name": "D4",
          "midi": 62,
          "time": 91.15217391303985,
          "velocity": 0.12598425196850394,
          "duration": 0.08695652173912549
        },
        {
          "name": "C#7",
          "midi": 97,
          "time": 91.15217391303985,
          "velocity": 0.1732283464566929,
          "duration": 0.10869565217390686
        },
        {
          "name": "G#3",
          "midi": 56,
          "time": 91.16304347825724,
          "velocity": 0.47244094488188976,
          "duration": 0.05434782608695343
        },
        {
          "name": "A4",
          "midi": 69,
          "time": 91.17391304347463,
          "velocity": 0.12598425196850394,
          "duration": 0.05434782608695343
        },
        {
          "name": "C7",
          "midi": 96,
          "time": 91.17391304347463,
          "velocity": 0.16535433070866143,
          "duration": 0.043478260869562746
        },
        {
          "name": "D5",
          "midi": 74,
          "time": 91.18478260869202,
          "velocity": 0.12598425196850394,
          "duration": 0.043478260869562746
        },
        {
          "name": "D#7",
          "midi": 99,
          "time": 91.18478260869202,
          "velocity": 0.08661417322834646,
          "duration": 0.03260869565217206
        },
        {
          "name": "F#7",
          "midi": 102,
          "time": 91.19565217390941,
          "velocity": 0.11811023622047244,
          "duration": 0.03260869565217206
        },
        {
          "name": "G5",
          "midi": 79,
          "time": 91.24999999999636,
          "velocity": 0.2440944881889764,
          "duration": 0.11956521739129755
        },
        {
          "name": "A#5",
          "midi": 82,
          "time": 91.24999999999636,
          "velocity": 0.2283464566929134,
          "duration": 0.0760869565217348
        },
        {
          "name": "B3",
          "midi": 59,
          "time": 91.26086956521375,
          "velocity": 0.2283464566929134,
          "duration": 0.021739130434781373
        },
        {
          "name": "D#7",
          "midi": 99,
          "time": 91.26086956521375,
          "velocity": 0.18110236220472442,
          "duration": 0.0760869565217348
        },
        {
          "name": "E7",
          "midi": 100,
          "time": 91.26086956521375,
          "velocity": 0.1889763779527559,
          "duration": 0.0760869565217348
        },
        {
          "name": "B6",
          "midi": 95,
          "time": 91.27173913043114,
          "velocity": 0.13385826771653545,
          "duration": 0.06521739130434412
        },
        {
          "name": "D7",
          "midi": 98,
          "time": 91.27173913043114,
          "velocity": 0.09448818897637795,
          "duration": 0.05434782608695343
        },
        {
          "name": "C4",
          "midi": 60,
          "time": 91.28260869564853,
          "velocity": 0.2047244094488189,
          "duration": 0.05434782608695343
        },
        {
          "name": "G4",
          "midi": 67,
          "time": 91.28260869564853,
          "velocity": 0.12598425196850394,
          "duration": 0.05434782608695343
        },
        {
          "name": "E5",
          "midi": 76,
          "time": 91.28260869564853,
          "velocity": 0.1732283464566929,
          "duration": 0.05434782608695343
        },
        {
          "name": "C6",
          "midi": 84,
          "time": 91.28260869564853,
          "velocity": 0.15748031496062992,
          "duration": 0.05434782608695343
        },
        {
          "name": "D6",
          "midi": 86,
          "time": 91.29347826086592,
          "velocity": 0.15748031496062992,
          "duration": 0.05434782608695343
        },
        {
          "name": "F6",
          "midi": 89,
          "time": 91.30434782608332,
          "velocity": 0.1968503937007874,
          "duration": 0.043478260869562746
        },
        {
          "name": "A4",
          "midi": 69,
          "time": 91.55434782608332,
          "velocity": 0.1732283464566929,
          "duration": 0.043478260869562746
        },
        {
          "name": "D5",
          "midi": 74,
          "time": 91.55434782608332,
          "velocity": 0.18110236220472442,
          "duration": 0.11956521739129755
        },
        {
          "name": "C6",
          "midi": 84,
          "time": 91.55434782608332,
          "velocity": 0.25196850393700787,
          "duration": 0.11956521739129755
        },
        {
          "name": "C7",
          "midi": 96,
          "time": 91.55434782608332,
          "velocity": 0.28346456692913385,
          "duration": 0.14130434782607892
        },
        {
          "name": "C#7",
          "midi": 97,
          "time": 91.55434782608332,
          "velocity": 0.1968503937007874,
          "duration": 0.08695652173912549
        },
        {
          "name": "F#7",
          "midi": 102,
          "time": 91.55434782608332,
          "velocity": 0.2047244094488189,
          "duration": 0.10869565217390686
        },
        {
          "name": "G7",
          "midi": 103,
          "time": 91.55434782608332,
          "velocity": 0.23622047244094488,
          "duration": 0.10869565217390686
        },
        {
          "name": "A5",
          "midi": 81,
          "time": 91.5652173913007,
          "velocity": 0.23622047244094488,
          "duration": 0.1630434782608603
        },
        {
          "name": "D6",
          "midi": 86,
          "time": 91.5652173913007,
          "velocity": 0.2204724409448819,
          "duration": 0.06521739130434412
        },
        {
          "name": "A#6",
          "midi": 94,
          "time": 91.5652173913007,
          "velocity": 0.23622047244094488,
          "duration": 0.10869565217390686
        },
        {
          "name": "D#7",
          "midi": 99,
          "time": 91.5760869565181,
          "velocity": 0.1889763779527559,
          "duration": 0.09782608695651618
        },
        {
          "name": "E7",
          "midi": 100,
          "time": 91.5760869565181,
          "velocity": 0.1732283464566929,
          "duration": 0.09782608695651618
        },
        {
          "name": "D4",
          "midi": 62,
          "time": 91.58695652173549,
          "velocity": 0.08661417322834646,
          "duration": 0.06521739130434412
        },
        {
          "name": "E6",
          "midi": 88,
          "time": 91.58695652173549,
          "velocity": 0.13385826771653545,
          "duration": 0.0760869565217348
        },
        {
          "name": "F#6",
          "midi": 90,
          "time": 91.58695652173549,
          "velocity": 0.1732283464566929,
          "duration": 0.08695652173912549
        },
        {
          "name": "G#6",
          "midi": 92,
          "time": 91.60869565217027,
          "velocity": 0.18110236220472442,
          "duration": 0.05434782608695343
        },
        {
          "name": "C#3",
          "midi": 49,
          "time": 91.71739130434418,
          "velocity": 0.5118110236220472,
          "duration": 0.010869565217390686
        },
        {
          "name": "G2",
          "midi": 43,
          "time": 91.72826086956157,
          "velocity": 0.5511811023622047,
          "duration": 0.010869565217390686
        },
        {
          "name": "D2",
          "midi": 38,
          "time": 91.73913043477896,
          "velocity": 0.5511811023622047,
          "duration": 0.010869565217390686
        },
        {
          "name": "A#1",
          "midi": 34,
          "time": 91.74999999999635,
          "velocity": 0.5354330708661418,
          "duration": 0.010869565217390686
        },
        {
          "name": "A1",
          "midi": 33,
          "time": 91.76086956521374,
          "velocity": 0.5354330708661418,
          "duration": 0.010869565217390686
        },
        {
          "name": "G#1",
          "midi": 32,
          "time": 91.77173913043113,
          "velocity": 0.5275590551181102,
          "duration": 0.010869565217390686
        },
        {
          "name": "G1",
          "midi": 31,
          "time": 91.78260869564852,
          "velocity": 0.5118110236220472,
          "duration": 0.010869565217390686
        },
        {
          "name": "F#1",
          "midi": 30,
          "time": 91.79347826086591,
          "velocity": 0.49606299212598426,
          "duration": 0.021739130434781373
        },
        {
          "name": "F#1",
          "midi": 30,
          "time": 91.82608695651808,
          "velocity": 0.4251968503937008,
          "duration": 0.021739130434781373
        },
        {
          "name": "F1",
          "midi": 29,
          "time": 91.84782608695286,
          "velocity": 0.33858267716535434,
          "duration": 0.03260869565217206
        },
        {
          "name": "C6",
          "midi": 84,
          "time": 91.85869565217025,
          "velocity": 0.1889763779527559,
          "duration": 0.05434782608695343
        },
        {
          "name": "B6",
          "midi": 95,
          "time": 91.85869565217025,
          "velocity": 0.18110236220472442,
          "duration": 0.10869565217390686
        },
        {
          "name": "F4",
          "midi": 65,
          "time": 91.86956521738765,
          "velocity": 0.2125984251968504,
          "duration": 0.14130434782607892
        },
        {
          "name": "D5",
          "midi": 74,
          "time": 91.86956521738765,
          "velocity": 0.15748031496062992,
          "duration": 0.14130434782607892
        },
        {
          "name": "G#5",
          "midi": 80,
          "time": 91.86956521738765,
          "velocity": 0.25984251968503935,
          "duration": 0.1521739130434696
        },
        {
          "name": "A#5",
          "midi": 82,
          "time": 91.86956521738765,
          "velocity": 0.2440944881889764,
          "duration": 0.1521739130434696
        },
        {
          "name": "A#6",
          "midi": 94,
          "time": 91.86956521738765,
          "velocity": 0.25196850393700787,
          "duration": 0.1630434782608603
        },
        {
          "name": "F7",
          "midi": 101,
          "time": 91.86956521738765,
          "velocity": 0.2047244094488189,
          "duration": 0.14130434782607892
        },
        {
          "name": "F#7",
          "midi": 102,
          "time": 91.86956521738765,
          "velocity": 0.13385826771653545,
          "duration": 0.13043478260868824
        },
        {
          "name": "A#4",
          "midi": 70,
          "time": 91.88043478260504,
          "velocity": 0.23622047244094488,
          "duration": 0.03260869565217206
        },
        {
          "name": "A6",
          "midi": 93,
          "time": 91.88043478260504,
          "velocity": 0.2204724409448819,
          "duration": 0.14130434782607892
        },
        {
          "name": "C#7",
          "midi": 97,
          "time": 91.88043478260504,
          "velocity": 0.13385826771653545,
          "duration": 0.11956521739129755
        },
        {
          "name": "E7",
          "midi": 100,
          "time": 91.88043478260504,
          "velocity": 0.14960629921259844,
          "duration": 0.11956521739129755
        },
        {
          "name": "F6",
          "midi": 89,
          "time": 91.91304347825721,
          "velocity": 0.1889763779527559,
          "duration": 0.10869565217390686
        },
        {
          "name": "D7",
          "midi": 98,
          "time": 91.9239130434746,
          "velocity": 0.14173228346456693,
          "duration": 0.06521739130434412
        },
        {
          "name": "A#4",
          "midi": 70,
          "time": 91.94565217390938,
          "velocity": 0.11811023622047244,
          "duration": 0.043478260869562746
        },
        {
          "name": "F#6",
          "midi": 90,
          "time": 91.97826086956155,
          "velocity": 0.07086614173228346,
          "duration": 0.03260869565217206
        },
        {
          "name": "G#5",
          "midi": 80,
          "time": 92.16304347825721,
          "velocity": 0.23622047244094488,
          "duration": 0.05434782608695343
        },
        {
          "name": "A#3",
          "midi": 58,
          "time": 92.1739130434746,
          "velocity": 0.2047244094488189,
          "duration": 0.043478260869562746
        },
        {
          "name": "F4",
          "midi": 65,
          "time": 92.1739130434746,
          "velocity": 0.1968503937007874,
          "duration": 0.03260869565217206
        },
        {
          "name": "D5",
          "midi": 74,
          "time": 92.1739130434746,
          "velocity": 0.1732283464566929,
          "duration": 0.05434782608695343
        },
        {
          "name": "C6",
          "midi": 84,
          "time": 92.1739130434746,
          "velocity": 0.14173228346456693,
          "duration": 0.06521739130434412
        },
        {
          "name": "D6",
          "midi": 86,
          "time": 92.1739130434746,
          "velocity": 0.1968503937007874,
          "duration": 0.06521739130434412
        },
        {
          "name": "E6",
          "midi": 88,
          "time": 92.1739130434746,
          "velocity": 0.11023622047244094,
          "duration": 0.03260869565217206
        },
        {
          "name": "B6",
          "midi": 95,
          "time": 92.1739130434746,
          "velocity": 0.10236220472440945,
          "duration": 0.06521739130434412
        },
        {
          "name": "C7",
          "midi": 96,
          "time": 92.1739130434746,
          "velocity": 0.18110236220472442,
          "duration": 0.05434782608695343
        },
        {
          "name": "C#7",
          "midi": 97,
          "time": 92.1739130434746,
          "velocity": 0.18110236220472442,
          "duration": 0.05434782608695343
        },
        {
          "name": "F#7",
          "midi": 102,
          "time": 92.1739130434746,
          "velocity": 0.2047244094488189,
          "duration": 0.05434782608695343
        },
        {
          "name": "F#6",
          "midi": 90,
          "time": 92.18478260869199,
          "velocity": 0.09448818897637795,
          "duration": 0.03260869565217206
        },
        {
          "name": "A#5",
          "midi": 82,
          "time": 92.19565217390938,
          "velocity": 0.1889763779527559,
          "duration": 0.043478260869562746
        },
        {
          "name": "F#4",
          "midi": 66,
          "time": 92.31521739130068,
          "velocity": 0.3464566929133858,
          "duration": 0.03260869565217206
        },
        {
          "name": "C#5",
          "midi": 73,
          "time": 92.31521739130068,
          "velocity": 0.29133858267716534,
          "duration": 0.021739130434781373
        },
        {
          "name": "G5",
          "midi": 79,
          "time": 92.31521739130068,
          "velocity": 0.16535433070866143,
          "duration": 0.03260869565217206
        },
        {
          "name": "E6",
          "midi": 88,
          "time": 92.31521739130068,
          "velocity": 0.18110236220472442,
          "duration": 0.03260869565217206
        },
        {
          "name": "F6",
          "midi": 89,
          "time": 92.31521739130068,
          "velocity": 0.11811023622047244,
          "duration": 0.043478260869562746
        },
        {
          "name": "F#6",
          "midi": 90,
          "time": 92.31521739130068,
          "velocity": 0.11811023622047244,
          "duration": 0.03260869565217206
        },
        {
          "name": "A6",
          "midi": 93,
          "time": 92.31521739130068,
          "velocity": 0.2283464566929134,
          "duration": 0.03260869565217206
        },
        {
          "name": "A#6",
          "midi": 94,
          "time": 92.31521739130068,
          "velocity": 0.2047244094488189,
          "duration": 0.03260869565217206
        },
        {
          "name": "F7",
          "midi": 101,
          "time": 92.31521739130068,
          "velocity": 0.1732283464566929,
          "duration": 0.03260869565217206
        },
        {
          "name": "G7",
          "midi": 103,
          "time": 92.31521739130068,
          "velocity": 0.1889763779527559,
          "duration": 0.03260869565217206
        },
        {
          "name": "A#3",
          "midi": 58,
          "time": 92.33695652173546,
          "velocity": 0.5590551181102362,
          "duration": 0.010869565217390686
        },
        {
          "name": "A3",
          "midi": 57,
          "time": 92.34782608695285,
          "velocity": 0.5905511811023622,
          "duration": 0.03260869565217206
        },
        {
          "name": "C7",
          "midi": 96,
          "time": 92.34782608695285,
          "velocity": 0.08661417322834646,
          "duration": 0.043478260869562746
        },
        {
          "name": "G1",
          "midi": 31,
          "time": 92.35869565217024,
          "velocity": 0.5433070866141733,
          "duration": 0.2391304347825951
        },
        {
          "name": "G#3",
          "midi": 56,
          "time": 92.38043478260502,
          "velocity": 0.5275590551181102,
          "duration": 0.05434782608695343
        },
        {
          "name": "C#5",
          "midi": 73,
          "time": 92.39130434782241,
          "velocity": 0.12598425196850394,
          "duration": 0.05434782608695343
        },
        {
          "name": "G#5",
          "midi": 80,
          "time": 92.4021739130398,
          "velocity": 0.2992125984251969,
          "duration": 0.18478260869564167
        },
        {
          "name": "A#5",
          "midi": 82,
          "time": 92.4130434782572,
          "velocity": 0.33070866141732286,
          "duration": 0.1630434782608603
        },
        {
          "name": "D#6",
          "midi": 87,
          "time": 92.43478260869198,
          "velocity": 0.14960629921259844,
          "duration": 0.1630434782608603
        },
        {
          "name": "E6",
          "midi": 88,
          "time": 92.43478260869198,
          "velocity": 0.11023622047244094,
          "duration": 0.10869565217390686
        },
        {
          "name": "D#5",
          "midi": 75,
          "time": 92.44565217390937,
          "velocity": 0.1889763779527559,
          "duration": 0.14130434782607892
        },
        {
          "name": "C6",
          "midi": 84,
          "time": 92.44565217390937,
          "velocity": 0.1968503937007874,
          "duration": 0.1521739130434696
        },
        {
          "name": "C#6",
          "midi": 85,
          "time": 92.44565217390937,
          "velocity": 0.16535433070866143,
          "duration": 0.1521739130434696
        },
        {
          "name": "C#5",
          "midi": 73,
          "time": 92.46739130434415,
          "velocity": 0.23622047244094488,
          "duration": 0.043478260869562746
        },
        {
          "name": "F#5",
          "midi": 78,
          "time": 92.47826086956154,
          "velocity": 0.1732283464566929,
          "duration": 0.10869565217390686
        },
        {
          "name": "D3",
          "midi": 50,
          "time": 92.48913043477893,
          "velocity": 0.16535433070866143,
          "duration": 0.09782608695651618
        },
        {
          "name": "C5",
          "midi": 72,
          "time": 92.51086956521371,
          "velocity": 0.25984251968503935,
          "duration": 0.0760869565217348
        },
        {
          "name": "B3",
          "midi": 59,
          "time": 92.54347826086588,
          "velocity": 0.25984251968503935,
          "duration": 0.03260869565217206
        },
        {
          "name": "E7",
          "midi": 100,
          "time": 92.55434782608327,
          "velocity": 0.07086614173228346,
          "duration": 0.043478260869562746
        },
        {
          "name": "E4",
          "midi": 64,
          "time": 92.56521739130066,
          "velocity": 0.2992125984251969,
          "duration": 0.03260869565217206
        },
        {
          "name": "A#3",
          "midi": 58,
          "time": 92.57608695651805,
          "velocity": 0.4015748031496063,
          "duration": 0.021739130434781373
        },
        {
          "name": "F#1",
          "midi": 30,
          "time": 92.59782608695284,
          "velocity": 0.4251968503937008,
          "duration": 0.021739130434781373
        },
        {
          "name": "B2",
          "midi": 47,
          "time": 92.6413043478224,
          "velocity": 0.5118110236220472,
          "duration": 0.010869565217390686
        },
        {
          "name": "C#2",
          "midi": 37,
          "time": 92.65217391303979,
          "velocity": 0.5433070866141733,
          "duration": 0.010869565217390686
        },
        {
          "name": "C2",
          "midi": 36,
          "time": 92.66304347825718,
          "velocity": 0.5511811023622047,
          "duration": 0.010869565217390686
        },
        {
          "name": "A1",
          "midi": 33,
          "time": 92.67391304347457,
          "velocity": 0.5354330708661418,
          "duration": 0.010869565217390686
        },
        {
          "name": "C#5",
          "midi": 73,
          "time": 92.69565217390935,
          "velocity": 0.11811023622047244,
          "duration": 0.09782608695651618
        },
        {
          "name": "G#5",
          "midi": 80,
          "time": 92.69565217390935,
          "velocity": 0.2755905511811024,
          "duration": 0.19565217391303236
        },
        {
          "name": "A#5",
          "midi": 82,
          "time": 92.69565217390935,
          "velocity": 0.2755905511811024,
          "duration": 0.18478260869564167
        },
        {
          "name": "F#1",
          "midi": 30,
          "time": 92.70652173912674,
          "velocity": 0.5354330708661418,
          "duration": 0.0760869565217348
        },
        {
          "name": "C6",
          "midi": 84,
          "time": 92.71739130434413,
          "velocity": 0.2755905511811024,
          "duration": 0.18478260869564167
        },
        {
          "name": "D#6",
          "midi": 87,
          "time": 92.73913043477891,
          "velocity": 0.13385826771653545,
          "duration": 0.17391304347825098
        },
        {
          "name": "G1",
          "midi": 31,
          "time": 92.78260869564848,
          "velocity": 0.5590551181102362,
          "duration": 0.11956521739129755
        },
        {
          "name": "C5",
          "midi": 72,
          "time": 92.79347826086587,
          "velocity": 0.2125984251968504,
          "duration": 0.08695652173912549
        },
        {
          "name": "C#6",
          "midi": 85,
          "time": 92.80434782608326,
          "velocity": 0.2047244094488189,
          "duration": 0.09782608695651618
        },
        {
          "name": "D3",
          "midi": 50,
          "time": 92.81521739130065,
          "velocity": 0.18110236220472442,
          "duration": 0.08695652173912549
        },
        {
          "name": "F#5",
          "midi": 78,
          "time": 92.83695652173543,
          "velocity": 0.18110236220472442,
          "duration": 0.05434782608695343
        },
        {
          "name": "E6",
          "midi": 88,
          "time": 92.83695652173543,
          "velocity": 0.09448818897637795,
          "duration": 0.06521739130434412
        },
        {
          "name": "A6",
          "midi": 93,
          "time": 92.84782608695282,
          "velocity": 0.10236220472440945,
          "duration": 0.05434782608695343
        },
        {
          "name": "E7",
          "midi": 100,
          "time": 92.84782608695282,
          "velocity": 0.13385826771653545,
          "duration": 0.05434782608695343
        },
        {
          "name": "B3",
          "midi": 59,
          "time": 92.85869565217021,
          "velocity": 0.23622047244094488,
          "duration": 0.021739130434781373
        },
        {
          "name": "E4",
          "midi": 64,
          "time": 92.8695652173876,
          "velocity": 0.30708661417322836,
          "duration": 0.03260869565217206
        },
        {
          "name": "A#3",
          "midi": 58,
          "time": 92.880434782605,
          "velocity": 0.3937007874015748,
          "duration": 0.021739130434781373
        },
        {
          "name": "B6",
          "midi": 95,
          "time": 92.880434782605,
          "velocity": 0.16535433070866143,
          "duration": 0.03260869565217206
        },
        {
          "name": "F#1",
          "midi": 30,
          "time": 92.90217391303977,
          "velocity": 0.44881889763779526,
          "duration": 0.021739130434781373
        },
        {
          "name": "A#2",
          "midi": 46,
          "time": 92.91304347825717,
          "velocity": 0.31496062992125984,
          "duration": 0.021739130434781373
        },
        {
          "name": "B1",
          "midi": 35,
          "time": 92.92391304347456,
          "velocity": 0.3779527559055118,
          "duration": 0.021739130434781373
        },
        {
          "name": "B2",
          "midi": 47,
          "time": 92.94565217390934,
          "velocity": 0.5354330708661418,
          "duration": 0.010869565217390686
        },
        {
          "name": "B4",
          "midi": 71,
          "time": 92.94565217390934,
          "velocity": 0.2755905511811024,
          "duration": 0.17391304347825098
        },
        {
          "name": "G#2",
          "midi": 44,
          "time": 92.95652173912673,
          "velocity": 0.5433070866141733,
          "duration": 0.010869565217390686
        },
        {
          "name": "C#2",
          "midi": 37,
          "time": 92.96739130434412,
          "velocity": 0.5748031496062992,
          "duration": 0.010869565217390686
        },
        {
          "name": "G5",
          "midi": 79,
          "time": 92.96739130434412,
          "velocity": 0.2440944881889764,
          "duration": 0.0760869565217348
        },
        {
          "name": "A5",
          "midi": 81,
          "time": 92.96739130434412,
          "velocity": 0.11023622047244094,
          "duration": 0.03260869565217206
        },
        {
          "name": "A#1",
          "midi": 34,
          "time": 92.97826086956151,
          "velocity": 0.5118110236220472,
          "duration": 0.010869565217390686
        },
        {
          "name": "G4",
          "midi": 67,
          "time": 92.9891304347789,
          "velocity": 0.25196850393700787,
          "duration": 0.3152173913043299
        },
        {
          "name": "F5",
          "midi": 77,
          "time": 92.9891304347789,
          "velocity": 0.13385826771653545,
          "duration": 0.03260869565217206
        },
        {
          "name": "A6",
          "midi": 93,
          "time": 92.99999999999629,
          "velocity": 0.10236220472440945,
          "duration": 0.03260869565217206
        },
        {
          "name": "F#1",
          "midi": 30,
          "time": 93.01086956521368,
          "velocity": 0.4409448818897638,
          "duration": 0.021739130434781373
        },
        {
          "name": "D5",
          "midi": 74,
          "time": 93.01086956521368,
          "velocity": 0.2677165354330709,
          "duration": 0.09782608695651618
        },
        {
          "name": "F1",
          "midi": 29,
          "time": 93.03260869564846,
          "velocity": 0.48031496062992124,
          "duration": 0.021739130434781373
        },
        {
          "name": "F5",
          "midi": 77,
          "time": 93.03260869564846,
          "velocity": 0.15748031496062992,
          "duration": 0.08695652173912549
        },
        {
          "name": "F#6",
          "midi": 90,
          "time": 93.03260869564846,
          "velocity": 0.07086614173228346,
          "duration": 0.03260869565217206
        },
        {
          "name": "D4",
          "midi": 62,
          "time": 93.04347826086585,
          "velocity": 0.12598425196850394,
          "duration": 0.03260869565217206
        },
        {
          "name": "F#1",
          "midi": 30,
          "time": 93.05434782608324,
          "velocity": 0.5039370078740157,
          "duration": 0.043478260869562746
        },
        {
          "name": "D4",
          "midi": 62,
          "time": 93.08695652173542,
          "velocity": 0.2677165354330709,
          "duration": 0.14130434782607892
        },
        {
          "name": "G1",
          "midi": 31,
          "time": 93.09782608695281,
          "velocity": 0.5196850393700787,
          "duration": 0.45652173913040883
        },
        {
          "name": "B4",
          "midi": 71,
          "time": 93.15217391303976,
          "velocity": 0.16535433070866143,
          "duration": 0.0760869565217348
        },
        {
          "name": "A#5",
          "midi": 82,
          "time": 93.18478260869193,
          "velocity": 0.07086614173228346,
          "duration": 0.043478260869562746
        },
        {
          "name": "C#4",
          "midi": 61,
          "time": 93.2282608695615,
          "velocity": 0.15748031496062992,
          "duration": 0.03260869565217206
        },
        {
          "name": "D4",
          "midi": 62,
          "time": 93.26086956521367,
          "velocity": 0.1889763779527559,
          "duration": 0.043478260869562746
        },
        {
          "name": "F#5",
          "midi": 78,
          "time": 93.40217391303975,
          "velocity": 0.2440944881889764,
          "duration": 0.06521739130434412
        },
        {
          "name": "D#7",
          "midi": 99,
          "time": 93.40217391303975,
          "velocity": 0.12598425196850394,
          "duration": 0.043478260869562746
        },
        {
          "name": "F7",
          "midi": 101,
          "time": 93.40217391303975,
          "velocity": 0.2204724409448819,
          "duration": 0.17391304347825098
        },
        {
          "name": "G7",
          "midi": 103,
          "time": 93.40217391303975,
          "velocity": 0.09448818897637795,
          "duration": 0.06521739130434412
        },
        {
          "name": "C6",
          "midi": 84,
          "time": 93.41304347825714,
          "velocity": 0.15748031496062992,
          "duration": 0.043478260869562746
        },
        {
          "name": "D6",
          "midi": 86,
          "time": 93.41304347825714,
          "velocity": 0.23622047244094488,
          "duration": 0.05434782608695343
        },
        {
          "name": "E7",
          "midi": 100,
          "time": 93.41304347825714,
          "velocity": 0.18110236220472442,
          "duration": 0.22826086956520442
        },
        {
          "name": "E6",
          "midi": 88,
          "time": 93.42391304347453,
          "velocity": 0.2125984251968504,
          "duration": 0.05434782608695343
        },
        {
          "name": "G#6",
          "midi": 92,
          "time": 93.42391304347453,
          "velocity": 0.10236220472440945,
          "duration": 0.03260869565217206
        },
        {
          "name": "A5",
          "midi": 81,
          "time": 93.43478260869192,
          "velocity": 0.11811023622047244,
          "duration": 0.03260869565217206
        },
        {
          "name": "G5",
          "midi": 79,
          "time": 93.46739130434409,
          "velocity": 0.25196850393700787,
          "duration": 0.09782608695651618
        },
        {
          "name": "C#6",
          "midi": 85,
          "time": 93.46739130434409,
          "velocity": 0.2204724409448819,
          "duration": 0.0760869565217348
        },
        {
          "name": "D#4",
          "midi": 63,
          "time": 93.47826086956148,
          "velocity": 0.15748031496062992,
          "duration": 0.06521739130434412
        },
        {
          "name": "F6",
          "midi": 89,
          "time": 93.47826086956148,
          "velocity": 0.1889763779527559,
          "duration": 0.08695652173912549
        },
        {
          "name": "A#6",
          "midi": 94,
          "time": 93.47826086956148,
          "velocity": 0.1968503937007874,
          "duration": 0.09782608695651618
        },
        {
          "name": "F#7",
          "midi": 102,
          "time": 93.47826086956148,
          "velocity": 0.1732283464566929,
          "duration": 0.06521739130434412
        },
        {
          "name": "D#6",
          "midi": 87,
          "time": 93.48913043477887,
          "velocity": 0.29133858267716534,
          "duration": 0.0760869565217348
        },
        {
          "name": "B6",
          "midi": 95,
          "time": 93.48913043477887,
          "velocity": 0.1732283464566929,
          "duration": 0.0760869565217348
        },
        {
          "name": "G4",
          "midi": 67,
          "time": 93.53260869564843,
          "velocity": 0.29133858267716534,
          "duration": 0.021739130434781373
        },
        {
          "name": "A5",
          "midi": 81,
          "time": 93.53260869564843,
          "velocity": 0.15748031496062992,
          "duration": 0.03260869565217206
        },
        {
          "name": "G7",
          "midi": 103,
          "time": 93.53260869564843,
          "velocity": 0.2283464566929134,
          "duration": 0.13043478260868824
        },
        {
          "name": "C#5",
          "midi": 73,
          "time": 93.54347826086583,
          "velocity": 0.2677165354330709,
          "duration": 0.03260869565217206
        },
        {
          "name": "C6",
          "midi": 84,
          "time": 93.54347826086583,
          "velocity": 0.2047244094488189,
          "duration": 0.14130434782607892
        },
        {
          "name": "F#6",
          "midi": 90,
          "time": 93.54347826086583,
          "velocity": 0.10236220472440945,
          "duration": 0.06521739130434412
        },
        {
          "name": "A#3",
          "midi": 58,
          "time": 93.55434782608322,
          "velocity": 0.5354330708661418,
          "duration": 0.010869565217390686
        },
        {
          "name": "D7",
          "midi": 98,
          "time": 93.55434782608322,
          "velocity": 0.1732283464566929,
          "duration": 0.21739130434781373
        },
        {
          "name": "A3",
          "midi": 57,
          "time": 93.5652173913006,
          "velocity": 0.5905511811023622,
          "duration": 0.043478260869562746
        },
        {
          "name": "D5",
          "midi": 74,
          "time": 93.5652173913006,
          "velocity": 0.1732283464566929,
          "duration": 0.08695652173912549
        },
        {
          "name": "F#5",
          "midi": 78,
          "time": 93.5652173913006,
          "velocity": 0.18110236220472442,
          "duration": 0.11956521739129755
        },
        {
          "name": "E6",
          "midi": 88,
          "time": 93.5652173913006,
          "velocity": 0.12598425196850394,
          "duration": 0.08695652173912549
        },
        {
          "name": "D4",
          "midi": 62,
          "time": 93.576086956518,
          "velocity": 0.15748031496062992,
          "duration": 0.03260869565217206
        },
        {
          "name": "D6",
          "midi": 86,
          "time": 93.576086956518,
          "velocity": 0.2283464566929134,
          "duration": 0.1630434782608603
        },
        {
          "name": "C#7",
          "midi": 97,
          "time": 93.59782608695278,
          "velocity": 0.23622047244094488,
          "duration": 0.18478260869564167
        },
        {
          "name": "G#3",
          "midi": 56,
          "time": 93.60869565217017,
          "velocity": 0.48031496062992124,
          "duration": 0.043478260869562746
        },
        {
          "name": "A5",
          "midi": 81,
          "time": 93.60869565217017,
          "velocity": 0.13385826771653545,
          "duration": 0.03260869565217206
        },
        {
          "name": "D#7",
          "midi": 99,
          "time": 93.60869565217017,
          "velocity": 0.10236220472440945,
          "duration": 0.06521739130434412
        },
        {
          "name": "A4",
          "midi": 69,
          "time": 93.61956521738756,
          "velocity": 0.16535433070866143,
          "duration": 0.05434782608695343
        },
        {
          "name": "D4",
          "midi": 62,
          "time": 93.63043478260495,
          "velocity": 0.10236220472440945,
          "duration": 0.03260869565217206
        },
        {
          "name": "A#6",
          "midi": 94,
          "time": 93.63043478260495,
          "velocity": 0.1732283464566929,
          "duration": 0.03260869565217206
        },
        {
          "name": "F#7",
          "midi": 102,
          "time": 93.63043478260495,
          "velocity": 0.1889763779527559,
          "duration": 0.043478260869562746
        },
        {
          "name": "E7",
          "midi": 100,
          "time": 93.65217391303973,
          "velocity": 0.12598425196850394,
          "duration": 0.043478260869562746
        },
        {
          "name": "C5",
          "midi": 72,
          "time": 93.6956521739093,
          "velocity": 0.2204724409448819,
          "duration": 0.08695652173912549
        },
        {
          "name": "E5",
          "midi": 76,
          "time": 93.6956521739093,
          "velocity": 0.2204724409448819,
          "duration": 0.08695652173912549
        },
        {
          "name": "C7",
          "midi": 96,
          "time": 93.6956521739093,
          "velocity": 0.1889763779527559,
          "duration": 0.09782608695651618
        },
        {
          "name": "A#5",
          "midi": 82,
          "time": 93.70652173912669,
          "velocity": 0.2047244094488189,
          "duration": 0.08695652173912549
        },
        {
          "name": "G4",
          "midi": 67,
          "time": 93.71739130434408,
          "velocity": 0.1968503937007874,
          "duration": 0.06521739130434412
        },
        {
          "name": "F7",
          "midi": 101,
          "time": 93.71739130434408,
          "velocity": 0.09448818897637795,
          "duration": 0.043478260869562746
        },
        {
          "name": "G6",
          "midi": 91,
          "time": 93.73913043477886,
          "velocity": 0.14960629921259844,
          "duration": 0.043478260869562746
        },
        {
          "name": "B6",
          "midi": 95,
          "time": 93.73913043477886,
          "velocity": 0.18110236220472442,
          "duration": 0.05434782608695343
        },
        {
          "name": "E7",
          "midi": 100,
          "time": 93.73913043477886,
          "velocity": 0.11023622047244094,
          "duration": 0.03260869565217206
        },
        {
          "name": "F#7",
          "midi": 102,
          "time": 93.74999999999625,
          "velocity": 0.11023622047244094,
          "duration": 0.03260869565217206
        },
        {
          "name": "A4",
          "midi": 69,
          "time": 93.99999999999625,
          "velocity": 0.1732283464566929,
          "duration": 0.10869565217390686
        },
        {
          "name": "D5",
          "midi": 74,
          "time": 93.99999999999625,
          "velocity": 0.2440944881889764,
          "duration": 0.09782608695651618
        },
        {
          "name": "C#7",
          "midi": 97,
          "time": 93.99999999999625,
          "velocity": 0.1732283464566929,
          "duration": 0.09782608695651618
        },
        {
          "name": "D7",
          "midi": 98,
          "time": 93.99999999999625,
          "velocity": 0.25196850393700787,
          "duration": 0.0760869565217348
        },
        {
          "name": "F#5",
          "midi": 78,
          "time": 94.01086956521364,
          "velocity": 0.07874015748031496,
          "duration": 0.08695652173912549
        },
        {
          "name": "A5",
          "midi": 81,
          "time": 94.01086956521364,
          "velocity": 0.2047244094488189,
          "duration": 0.11956521739129755
        },
        {
          "name": "C7",
          "midi": 96,
          "time": 94.01086956521364,
          "velocity": 0.2125984251968504,
          "duration": 0.10869565217390686
        },
        {
          "name": "D#7",
          "midi": 99,
          "time": 94.01086956521364,
          "velocity": 0.12598425196850394,
          "duration": 0.10869565217390686
        },
        {
          "name": "F7",
          "midi": 101,
          "time": 94.01086956521364,
          "velocity": 0.13385826771653545,
          "duration": 0.09782608695651618
        },
        {
          "name": "G7",
          "midi": 103,
          "time": 94.01086956521364,
          "velocity": 0.1889763779527559,
          "duration": 0.09782608695651618
        },
        {
          "name": "C6",
          "midi": 84,
          "time": 94.02173913043103,
          "velocity": 0.2677165354330709,
          "duration": 0.09782608695651618
        },
        {
          "name": "A#6",
          "midi": 94,
          "time": 94.03260869564842,
          "velocity": 0.16535433070866143,
          "duration": 0.09782608695651618
        },
        {
          "name": "E7",
          "midi": 100,
          "time": 94.04347826086581,
          "velocity": 0.2047244094488189,
          "duration": 0.0760869565217348
        },
        {
          "name": "D4",
          "midi": 62,
          "time": 94.0543478260832,
          "velocity": 0.07086614173228346,
          "duration": 0.05434782608695343
        },
        {
          "name": "E6",
          "midi": 88,
          "time": 94.07608695651798,
          "velocity": 0.1732283464566929,
          "duration": 0.043478260869562746
        },
        {
          "name": "C#3",
          "midi": 49,
          "time": 94.16304347825711,
          "velocity": 0.5196850393700787,
          "duration": 0.010869565217390686
        },
        {
          "name": "G#2",
          "midi": 44,
          "time": 94.1739130434745,
          "velocity": 0.5511811023622047,
          "duration": 0.010869565217390686
        },
        {
          "name": "D2",
          "midi": 38,
          "time": 94.18478260869189,
          "velocity": 0.5590551181102362,
          "duration": 0.010869565217390686
        },
        {
          "name": "A#1",
          "midi": 34,
          "time": 94.19565217390928,
          "velocity": 0.5354330708661418,
          "duration": 0.010869565217390686
        },
        {
          "name": "A1",
          "midi": 33,
          "time": 94.20652173912667,
          "velocity": 0.5354330708661418,
          "duration": 0.010869565217390686
        },
        {
          "name": "G#1",
          "midi": 32,
          "time": 94.21739130434406,
          "velocity": 0.5275590551181102,
          "duration": 0.010869565217390686
        },
        {
          "name": "G1",
          "midi": 31,
          "time": 94.22826086956145,
          "velocity": 0.5118110236220472,
          "duration": 0.010869565217390686
        },
        {
          "name": "F#1",
          "midi": 30,
          "time": 94.23913043477884,
          "velocity": 0.49606299212598426,
          "duration": 0.05434782608695343
        },
        {
          "name": "F1",
          "midi": 29,
          "time": 94.2934782608658,
          "velocity": 0.33858267716535434,
          "duration": 0.03260869565217206
        },
        {
          "name": "A#3",
          "midi": 58,
          "time": 94.30434782608319,
          "velocity": 0.2047244094488189,
          "duration": 0.1521739130434696
        },
        {
          "name": "G#5",
          "midi": 80,
          "time": 94.30434782608319,
          "velocity": 0.2204724409448819,
          "duration": 0.14130434782607892
        },
        {
          "name": "F4",
          "midi": 65,
          "time": 94.31521739130058,
          "velocity": 0.1889763779527559,
          "duration": 0.09782608695651618
        },
        {
          "name": "A#5",
          "midi": 82,
          "time": 94.31521739130058,
          "velocity": 0.1889763779527559,
          "duration": 0.08695652173912549
        },
        {
          "name": "B6",
          "midi": 95,
          "time": 94.31521739130058,
          "velocity": 0.1732283464566929,
          "duration": 0.13043478260868824
        },
        {
          "name": "D#7",
          "midi": 99,
          "time": 94.31521739130058,
          "velocity": 0.16535433070866143,
          "duration": 0.11956521739129755
        },
        {
          "name": "E7",
          "midi": 100,
          "time": 94.31521739130058,
          "velocity": 0.08661417322834646,
          "duration": 0.0760869565217348
        },
        {
          "name": "G6",
          "midi": 91,
          "time": 94.32608695651797,
          "velocity": 0.1732283464566929,
          "duration": 0.043478260869562746
        },
        {
          "name": "A6",
          "midi": 93,
          "time": 94.32608695651797,
          "velocity": 0.14173228346456693,
          "duration": 0.08695652173912549
        },
        {
          "name": "F5",
          "midi": 77,
          "time": 94.33695652173536,
          "velocity": 0.25196850393700787,
          "duration": 0.13043478260868824
        },
        {
          "name": "C#7",
          "midi": 97,
          "time": 94.33695652173536,
          "velocity": 0.16535433070866143,
          "duration": 0.11956521739129755
        },
        {
          "name": "D7",
          "midi": 98,
          "time": 94.33695652173536,
          "velocity": 0.18110236220472442,
          "duration": 0.10869565217390686
        },
        {
          "name": "D6",
          "midi": 86,
          "time": 94.35869565217014,
          "velocity": 0.2204724409448819,
          "duration": 0.10869565217390686
        },
        {
          "name": "A#6",
          "midi": 94,
          "time": 94.38043478260492,
          "velocity": 0.2204724409448819,
          "duration": 0.08695652173912549
        },
        {
          "name": "D5",
          "midi": 74,
          "time": 94.4130434782571,
          "velocity": 0.10236220472440945,
          "duration": 0.03260869565217206
        },
        {
          "name": "A#3",
          "midi": 58,
          "time": 94.60869565217014,
          "velocity": 0.2283464566929134,
          "duration": 0.08695652173912549
        },
        {
          "name": "F4",
          "midi": 65,
          "time": 94.60869565217014,
          "velocity": 0.23622047244094488,
          "duration": 0.05434782608695343
        },
        {
          "name": "F5",
          "midi": 77,
          "time": 94.60869565217014,
          "velocity": 0.25196850393700787,
          "duration": 0.08695652173912549
        },
        {
          "name": "G#5",
          "midi": 80,
          "time": 94.61956521738753,
          "velocity": 0.2047244094488189,
          "duration": 0.05434782608695343
        },
        {
          "name": "F6",
          "midi": 89,
          "time": 94.61956521738753,
          "velocity": 0.25196850393700787,
          "duration": 0.06521739130434412
        },
        {
          "name": "F#6",
          "midi": 90,
          "time": 94.61956521738753,
          "velocity": 0.23622047244094488,
          "duration": 0.06521739130434412
        },
        {
          "name": "A#6",
          "midi": 94,
          "time": 94.61956521738753,
          "velocity": 0.11023622047244094,
          "duration": 0.03260869565217206
        },
        {
          "name": "C7",
          "midi": 96,
          "time": 94.61956521738753,
          "velocity": 0.16535433070866143,
          "duration": 0.05434782608695343
        },
        {
          "name": "C#7",
          "midi": 97,
          "time": 94.61956521738753,
          "velocity": 0.14960629921259844,
          "duration": 0.06521739130434412
        },
        {
          "name": "D7",
          "midi": 98,
          "time": 94.63043478260492,
          "velocity": 0.10236220472440945,
          "duration": 0.043478260869562746
        },
        {
          "name": "D5",
          "midi": 74,
          "time": 94.64130434782231,
          "velocity": 0.14960629921259844,
          "duration": 0.043478260869562746
        },
        {
          "name": "F#4",
          "midi": 66,
          "time": 94.76086956521361,
          "velocity": 0.3779527559055118,
          "duration": 0.03260869565217206
        },
        {
          "name": "C5",
          "midi": 72,
          "time": 94.76086956521361,
          "velocity": 0.2677165354330709,
          "duration": 0.021739130434781373
        },
        {
          "name": "G5",
          "midi": 79,
          "time": 94.76086956521361,
          "velocity": 0.2283464566929134,
          "duration": 0.03260869565217206
        },
        {
          "name": "F6",
          "midi": 89,
          "time": 94.76086956521361,
          "velocity": 0.2992125984251969,
          "duration": 0.10869565217390686
        },
        {
          "name": "A6",
          "midi": 93,
          "time": 94.76086956521361,
          "velocity": 0.2047244094488189,
          "duration": 0.03260869565217206
        },
        {
          "name": "E7",
          "midi": 100,
          "time": 94.76086956521361,
          "velocity": 0.1889763779527559,
          "duration": 0.06521739130434412
        },
        {
          "name": "G7",
          "midi": 103,
          "time": 94.76086956521361,
          "velocity": 0.10236220472440945,
          "duration": 0.043478260869562746
        },
        {
          "name": "F5",
          "midi": 77,
          "time": 94.771739130431,
          "velocity": 0.29133858267716534,
          "duration": 0.14130434782607892
        },
        {
          "name": "A#6",
          "midi": 94,
          "time": 94.771739130431,
          "velocity": 0.1889763779527559,
          "duration": 0.2608695652173765
        },
        {
          "name": "B6",
          "midi": 95,
          "time": 94.771739130431,
          "velocity": 0.2047244094488189,
          "duration": 0.14130434782607892
        },
        {
          "name": "C#7",
          "midi": 97,
          "time": 94.771739130431,
          "velocity": 0.2125984251968504,
          "duration": 0.11956521739129755
        },
        {
          "name": "A3",
          "midi": 57,
          "time": 94.78260869564839,
          "velocity": 0.5826771653543307,
          "duration": 0.05434782608695343
        },
        {
          "name": "C#6",
          "midi": 85,
          "time": 94.79347826086578,
          "velocity": 0.1889763779527559,
          "duration": 0.06521739130434412
        },
        {
          "name": "D6",
          "midi": 86,
          "time": 94.79347826086578,
          "velocity": 0.2283464566929134,
          "duration": 0.10869565217390686
        },
        {
          "name": "E6",
          "midi": 88,
          "time": 94.79347826086578,
          "velocity": 0.2125984251968504,
          "duration": 0.06521739130434412
        },
        {
          "name": "D5",
          "midi": 74,
          "time": 94.80434782608317,
          "velocity": 0.25196850393700787,
          "duration": 0.10869565217390686
        },
        {
          "name": "G#5",
          "midi": 80,
          "time": 94.82608695651795,
          "velocity": 0.1732283464566929,
          "duration": 0.043478260869562746
        },
        {
          "name": "C7",
          "midi": 96,
          "time": 94.82608695651795,
          "velocity": 0.14960629921259844,
          "duration": 0.08695652173912549
        },
        {
          "name": "G#3",
          "midi": 56,
          "time": 94.83695652173535,
          "velocity": 0.3779527559055118,
          "duration": 0.043478260869562746
        },
        {
          "name": "F4",
          "midi": 65,
          "time": 94.83695652173535,
          "velocity": 0.14960629921259844,
          "duration": 0.06521739130434412
        },
        {
          "name": "A#5",
          "midi": 82,
          "time": 94.83695652173535,
          "velocity": 0.1968503937007874,
          "duration": 0.08695652173912549
        },
        {
          "name": "F#6",
          "midi": 90,
          "time": 94.85869565217013,
          "velocity": 0.10236220472440945,
          "duration": 0.043478260869562746
        },
        {
          "name": "C#6",
          "midi": 85,
          "time": 94.88043478260491,
          "velocity": 0.18110236220472442,
          "duration": 0.043478260869562746
        },
        {
          "name": "A#3",
          "midi": 58,
          "time": 94.8913043478223,
          "velocity": 0.11811023622047244,
          "duration": 0.03260869565217206
        },
        {
          "name": "G4",
          "midi": 67,
          "time": 94.91304347825708,
          "velocity": 0.2047244094488189,
          "duration": 0.13043478260868824
        },
        {
          "name": "G6",
          "midi": 91,
          "time": 94.91304347825708,
          "velocity": 0.1889763779527559,
          "duration": 0.08695652173912549
        },
        {
          "name": "E5",
          "midi": 76,
          "time": 94.92391304347447,
          "velocity": 0.28346456692913385,
          "duration": 0.13043478260868824
        },
        {
          "name": "A5",
          "midi": 81,
          "time": 94.92391304347447,
          "velocity": 0.12598425196850394,
          "duration": 0.03260869565217206
        },
        {
          "name": "C6",
          "midi": 84,
          "time": 94.92391304347447,
          "velocity": 0.2677165354330709,
          "duration": 0.13043478260868824
        },
        {
          "name": "F6",
          "midi": 89,
          "time": 94.92391304347447,
          "velocity": 0.28346456692913385,
          "duration": 0.021739130434781373
        },
        {
          "name": "C#7",
          "midi": 97,
          "time": 94.92391304347447,
          "velocity": 0.2283464566929134,
          "duration": 0.13043478260868824
        },
        {
          "name": "D7",
          "midi": 98,
          "time": 94.92391304347447,
          "velocity": 0.15748031496062992,
          "duration": 0.09782608695651618
        },
        {
          "name": "G5",
          "midi": 79,
          "time": 94.93478260869186,
          "velocity": 0.2755905511811024,
          "duration": 0.0760869565217348
        },
        {
          "name": "F#6",
          "midi": 90,
          "time": 94.94565217390925,
          "velocity": 0.25196850393700787,
          "duration": 0.03260869565217206
        },
        {
          "name": "C4",
          "midi": 60,
          "time": 94.95652173912664,
          "velocity": 0.1732283464566929,
          "duration": 0.06521739130434412
        },
        {
          "name": "A#5",
          "midi": 82,
          "time": 94.95652173912664,
          "velocity": 0.1889763779527559,
          "duration": 0.06521739130434412
        },
        {
          "name": "G#6",
          "midi": 92,
          "time": 94.96739130434403,
          "velocity": 0.2047244094488189,
          "duration": 0.09782608695651618
        },
        {
          "name": "F6",
          "midi": 89,
          "time": 94.97826086956142,
          "velocity": 0.25196850393700787,
          "duration": 0.021739130434781373
        },
        {
          "name": "B6",
          "midi": 95,
          "time": 94.98913043477882,
          "velocity": 0.15748031496062992,
          "duration": 0.05434782608695343
        },
        {
          "name": "D6",
          "midi": 86,
          "time": 94.9999999999962,
          "velocity": 0.11023622047244094,
          "duration": 0.043478260869562746
        },
        {
          "name": "A5",
          "midi": 81,
          "time": 95.06521739130055,
          "velocity": 0.36220472440944884,
          "duration": 0.06521739130434412
        },
        {
          "name": "C6",
          "midi": 84,
          "time": 95.06521739130055,
          "velocity": 0.2125984251968504,
          "duration": 0.043478260869562746
        },
        {
          "name": "A4",
          "midi": 69,
          "time": 95.07608695651794,
          "velocity": 0.2204724409448819,
          "duration": 0.10869565217390686
        },
        {
          "name": "D5",
          "midi": 74,
          "time": 95.07608695651794,
          "velocity": 0.18110236220472442,
          "duration": 0.10869565217390686
        },
        {
          "name": "E5",
          "midi": 76,
          "time": 95.07608695651794,
          "velocity": 0.11023622047244094,
          "duration": 0.03260869565217206
        },
        {
          "name": "F#5",
          "midi": 78,
          "time": 95.07608695651794,
          "velocity": 0.31496062992125984,
          "duration": 0.13043478260868824
        },
        {
          "name": "A#6",
          "midi": 94,
          "time": 95.07608695651794,
          "velocity": 0.14960629921259844,
          "duration": 0.09782608695651618
        },
        {
          "name": "D7",
          "midi": 98,
          "time": 95.07608695651794,
          "velocity": 0.23622047244094488,
          "duration": 0.11956521739129755
        },
        {
          "name": "E7",
          "midi": 100,
          "time": 95.07608695651794,
          "velocity": 0.15748031496062992,
          "duration": 0.10869565217390686
        },
        {
          "name": "G#6",
          "midi": 92,
          "time": 95.08695652173533,
          "velocity": 0.2283464566929134,
          "duration": 0.06521739130434412
        },
        {
          "name": "D#7",
          "midi": 99,
          "time": 95.08695652173533,
          "velocity": 0.14173228346456693,
          "duration": 0.09782608695651618
        },
        {
          "name": "E6",
          "midi": 88,
          "time": 95.09782608695272,
          "velocity": 0.30708661417322836,
          "duration": 0.14130434782607892
        },
        {
          "name": "C#7",
          "midi": 97,
          "time": 95.09782608695272,
          "velocity": 0.2440944881889764,
          "duration": 0.10869565217390686
        },
        {
          "name": "F#7",
          "midi": 102,
          "time": 95.09782608695272,
          "velocity": 0.29133858267716534,
          "duration": 0.18478260869564167
        },
        {
          "name": "G#5",
          "midi": 80,
          "time": 95.1195652173875,
          "velocity": 0.3543307086614173,
          "duration": 0.06521739130434412
        },
        {
          "name": "D6",
          "midi": 86,
          "time": 95.1195652173875,
          "velocity": 0.2440944881889764,
          "duration": 0.06521739130434412
        },
        {
          "name": "A6",
          "midi": 93,
          "time": 95.14130434782228,
          "velocity": 0.18110236220472442,
          "duration": 0.05434782608695343
        },
        {
          "name": "C#6",
          "midi": 85,
          "time": 95.16304347825707,
          "velocity": 0.11811023622047244,
          "duration": 0.03260869565217206
        },
        {
          "name": "G#6",
          "midi": 92,
          "time": 95.18478260869185,
          "velocity": 0.2204724409448819,
          "duration": 0.10869565217390686
        },
        {
          "name": "C#6",
          "midi": 85,
          "time": 95.2391304347788,
          "velocity": 0.09448818897637795,
          "duration": 0.06521739130434412
        },
        {
          "name": "G#5",
          "midi": 80,
          "time": 95.24999999999619,
          "velocity": 0.1968503937007874,
          "duration": 0.09782608695651618
        },
        {
          "name": "G1",
          "midi": 31,
          "time": 95.38043478260488,
          "velocity": 0.4409448818897638,
          "duration": 0.021739130434781373
        },
        {
          "name": "C#3",
          "midi": 49,
          "time": 95.38043478260488,
          "velocity": 0.5039370078740157,
          "duration": 0.021739130434781373
        },
        {
          "name": "E4",
          "midi": 64,
          "time": 95.38043478260488,
          "velocity": 0.23622047244094488,
          "duration": 0.03260869565217206
        },
        {
          "name": "C5",
          "midi": 72,
          "time": 95.38043478260488,
          "velocity": 0.15748031496062992,
          "duration": 0.03260869565217206
        },
        {
          "name": "G#4",
          "midi": 68,
          "time": 95.40217391303966,
          "velocity": 0.11023622047244094,
          "duration": 0.03260869565217206
        },
        {
          "name": "F#1",
          "midi": 30,
          "time": 95.41304347825705,
          "velocity": 0.5118110236220472,
          "duration": 0.010869565217390686
        },
        {
          "name": "G#1",
          "midi": 32,
          "time": 95.42391304347444,
          "velocity": 0.5826771653543307,
          "duration": 0.021739130434781373
        },
        {
          "name": "A5",
          "midi": 81,
          "time": 95.42391304347444,
          "velocity": 0.14960629921259844,
          "duration": 0.05434782608695343
        },
        {
          "name": "G4",
          "midi": 67,
          "time": 95.43478260869183,
          "velocity": 0.1889763779527559,
          "duration": 0.043478260869562746
        },
        {
          "name": "G1",
          "midi": 31,
          "time": 95.44565217390922,
          "velocity": 0.5826771653543307,
          "duration": 0.03260869565217206
        },
        {
          "name": "F#1",
          "midi": 30,
          "time": 95.4782608695614,
          "velocity": 0.5433070866141733,
          "duration": 0.021739130434781373
        },
        {
          "name": "B4",
          "midi": 71,
          "time": 95.4782608695614,
          "velocity": 0.25196850393700787,
          "duration": 0.08695652173912549
        },
        {
          "name": "D3",
          "midi": 50,
          "time": 95.48913043477879,
          "velocity": 0.31496062992125984,
          "duration": 0.03260869565217206
        },
        {
          "name": "G1",
          "midi": 31,
          "time": 95.49999999999618,
          "velocity": 0.5118110236220472,
          "duration": 0.03260869565217206
        },
        {
          "name": "G4",
          "midi": 67,
          "time": 95.52173913043096,
          "velocity": 0.2755905511811024,
          "duration": 0.21739130434781373
        },
        {
          "name": "G#1",
          "midi": 32,
          "time": 95.53260869564835,
          "velocity": 0.47244094488188976,
          "duration": 0.021739130434781373
        },
        {
          "name": "D4",
          "midi": 62,
          "time": 95.54347826086574,
          "velocity": 0.2440944881889764,
          "duration": 0.21739130434781373
        },
        {
          "name": "G1",
          "midi": 31,
          "time": 95.55434782608313,
          "velocity": 0.5275590551181102,
          "duration": 0.4130434782608461
        },
        {
          "name": "G#6",
          "midi": 92,
          "time": 95.55434782608313,
          "velocity": 0.07086614173228346,
          "duration": 0.043478260869562746
        },
        {
          "name": "A5",
          "midi": 81,
          "time": 95.57608695651791,
          "velocity": 0.07874015748031496,
          "duration": 0.043478260869562746
        },
        {
          "name": "B5",
          "midi": 83,
          "time": 95.57608695651791,
          "velocity": 0.15748031496062992,
          "duration": 0.11956521739129755
        },
        {
          "name": "B4",
          "midi": 71,
          "time": 95.5869565217353,
          "velocity": 0.16535433070866143,
          "duration": 0.13043478260868824
        },
        {
          "name": "F5",
          "midi": 77,
          "time": 95.61956521738747,
          "velocity": 0.13385826771653545,
          "duration": 0.043478260869562746
        },
        {
          "name": "F#5",
          "midi": 78,
          "time": 95.83695652173529,
          "velocity": 0.29133858267716534,
          "duration": 0.0760869565217348
        },
        {
          "name": "G#5",
          "midi": 80,
          "time": 95.83695652173529,
          "velocity": 0.2283464566929134,
          "duration": 0.021739130434781373
        },
        {
          "name": "G6",
          "midi": 91,
          "time": 95.83695652173529,
          "velocity": 0.2283464566929134,
          "duration": 0.03260869565217206
        },
        {
          "name": "C7",
          "midi": 96,
          "time": 95.83695652173529,
          "velocity": 0.10236220472440945,
          "duration": 0.0760869565217348
        },
        {
          "name": "A4",
          "midi": 69,
          "time": 95.84782608695268,
          "velocity": 0.2204724409448819,
          "duration": 0.06521739130434412
        },
        {
          "name": "A6",
          "midi": 93,
          "time": 95.84782608695268,
          "velocity": 0.1889763779527559,
          "duration": 0.06521739130434412
        },
        {
          "name": "D7",
          "midi": 98,
          "time": 95.84782608695268,
          "velocity": 0.14960629921259844,
          "duration": 0.0760869565217348
        },
        {
          "name": "A5",
          "midi": 81,
          "time": 95.85869565217007,
          "velocity": 0.2677165354330709,
          "duration": 0.05434782608695343
        },
        {
          "name": "D#7",
          "midi": 99,
          "time": 95.85869565217007,
          "velocity": 0.2283464566929134,
          "duration": 0.09782608695651618
        },
        {
          "name": "E7",
          "midi": 100,
          "time": 95.85869565217007,
          "velocity": 0.2283464566929134,
          "duration": 0.36956521739128334
        },
        {
          "name": "C6",
          "midi": 84,
          "time": 95.86956521738746,
          "velocity": 0.1968503937007874,
          "duration": 0.043478260869562746
        },
        {
          "name": "G#6",
          "midi": 92,
          "time": 95.86956521738746,
          "velocity": 0.23622047244094488,
          "duration": 0.05434782608695343
        },
        {
          "name": "D6",
          "midi": 86,
          "time": 95.88043478260485,
          "velocity": 0.15748031496062992,
          "duration": 0.03260869565217206
        },
        {
          "name": "A#5",
          "midi": 82,
          "time": 95.90217391303963,
          "velocity": 0.30708661417322836,
          "duration": 0.09782608695651618
        },
        {
          "name": "A#4",
          "midi": 70,
          "time": 95.91304347825702,
          "velocity": 0.1889763779527559,
          "duration": 0.03260869565217206
        },
        {
          "name": "F7",
          "midi": 101,
          "time": 95.91304347825702,
          "velocity": 0.23622047244094488,
          "duration": 0.21739130434781373
        },
        {
          "name": "G5",
          "midi": 79,
          "time": 95.92391304347441,
          "velocity": 0.31496062992125984,
          "duration": 0.06521739130434412
        },
        {
          "name": "A6",
          "midi": 93,
          "time": 95.92391304347441,
          "velocity": 0.18110236220472442,
          "duration": 0.08695652173912549
        },
        {
          "name": "C#7",
          "midi": 97,
          "time": 95.92391304347441,
          "velocity": 0.14173228346456693,
          "duration": 0.05434782608695343
        },
        {
          "name": "D#4",
          "midi": 63,
          "time": 95.9347826086918,
          "velocity": 0.16535433070866143,
          "duration": 0.05434782608695343
        },
        {
          "name": "C#6",
          "midi": 85,
          "time": 95.9456521739092,
          "velocity": 0.1732283464566929,
          "duration": 0.03260869565217206
        },
        {
          "name": "F#7",
          "midi": 102,
          "time": 95.9456521739092,
          "velocity": 0.07086614173228346,
          "duration": 0.03260869565217206
        },
        {
          "name": "D#6",
          "midi": 87,
          "time": 95.95652173912659,
          "velocity": 0.13385826771653545,
          "duration": 0.05434782608695343
        },
        {
          "name": "B6",
          "midi": 95,
          "time": 95.95652173912659,
          "velocity": 0.07874015748031496,
          "duration": 0.03260869565217206
        },
        {
          "name": "G#6",
          "midi": 92,
          "time": 95.97826086956137,
          "velocity": 0.29133858267716534,
          "duration": 0.11956521739129755
        },
        {
          "name": "D#7",
          "midi": 99,
          "time": 95.97826086956137,
          "velocity": 0.15748031496062992,
          "duration": 0.03260869565217206
        },
        {
          "name": "F#4",
          "midi": 66,
          "time": 95.98913043477876,
          "velocity": 0.29133858267716534,
          "duration": 0.021739130434781373
        },
        {
          "name": "A4",
          "midi": 69,
          "time": 95.98913043477876,
          "velocity": 0.28346456692913385,
          "duration": 0.14130434782607892
        },
        {
          "name": "C6",
          "midi": 84,
          "time": 95.98913043477876,
          "velocity": 0.14960629921259844,
          "duration": 0.0760869565217348
        },
        {
          "name": "A#3",
          "midi": 58,
          "time": 95.99999999999615,
          "velocity": 0.5433070866141733,
          "duration": 0.010869565217390686
        },
        {
          "name": "A#6",
          "midi": 94,
          "time": 95.99999999999615,
          "velocity": 0.14960629921259844,
          "duration": 0.043478260869562746
        },
        {
          "name": "A3",
          "midi": 57,
          "time": 96.01086956521354,
          "velocity": 0.5984251968503937,
          "duration": 0.043478260869562746
        },
        {
          "name": "F#5",
          "midi": 78,
          "time": 96.01086956521354,
          "velocity": 0.25984251968503935,
          "duration": 0.11956521739129755
        },
        {
          "name": "D#7",
          "midi": 99,
          "time": 96.03260869564832,
          "velocity": 0.14960629921259844,
          "duration": 0.0760869565217348
        },
        {
          "name": "D4",
          "midi": 62,
          "time": 96.04347826086571,
          "velocity": 0.10236220472440945,
          "duration": 0.043478260869562746
        },
        {
          "name": "E6",
          "midi": 88,
          "time": 96.04347826086571,
          "velocity": 0.2755905511811024,
          "duration": 0.08695652173912549
        },
        {
          "name": "C#7",
          "midi": 97,
          "time": 96.04347826086571,
          "velocity": 0.1968503937007874,
          "duration": 0.08695652173912549
        },
        {
          "name": "G#3",
          "midi": 56,
          "time": 96.0543478260831,
          "velocity": 0.4645669291338583,
          "duration": 0.043478260869562746
        },
        {
          "name": "D5",
          "midi": 74,
          "time": 96.0652173913005,
          "velocity": 0.11811023622047244,
          "duration": 0.0760869565217348
        },
        {
          "name": "A#6",
          "midi": 94,
          "time": 96.0652173913005,
          "velocity": 0.14960629921259844,
          "duration": 0.1630434782608603
        },
        {
          "name": "C7",
          "midi": 96,
          "time": 96.07608695651788,
          "velocity": 0.09448818897637795,
          "duration": 0.03260869565217206
        },
        {
          "name": "G7",
          "midi": 103,
          "time": 96.07608695651788,
          "velocity": 0.07874015748031496,
          "duration": 0.03260869565217206
        },
        {
          "name": "C6",
          "midi": 84,
          "time": 96.08695652173527,
          "velocity": 0.09448818897637795,
          "duration": 0.03260869565217206
        },
        {
          "name": "F#7",
          "midi": 102,
          "time": 96.08695652173527,
          "velocity": 0.10236220472440945,
          "duration": 0.043478260869562746
        },
        {
          "name": "G6",
          "midi": 91,
          "time": 96.09782608695267,
          "velocity": 0.2440944881889764,
          "duration": 0.021739130434781373
        },
        {
          "name": "B3",
          "midi": 59,
          "time": 96.14130434782223,
          "velocity": 0.2204724409448819,
          "duration": 0.03260869565217206
        },
        {
          "name": "F#4",
          "midi": 66,
          "time": 96.14130434782223,
          "velocity": 0.1889763779527559,
          "duration": 0.03260869565217206
        },
        {
          "name": "G5",
          "midi": 79,
          "time": 96.14130434782223,
          "velocity": 0.2677165354330709,
          "duration": 0.13043478260868824
        },
        {
          "name": "A#5",
          "midi": 82,
          "time": 96.14130434782223,
          "velocity": 0.23622047244094488,
          "duration": 0.0760869565217348
        },
        {
          "name": "B6",
          "midi": 95,
          "time": 96.15217391303962,
          "velocity": 0.12598425196850394,
          "duration": 0.0760869565217348
        },
        {
          "name": "D#7",
          "midi": 99,
          "time": 96.15217391303962,
          "velocity": 0.16535433070866143,
          "duration": 0.0760869565217348
        },
        {
          "name": "G#6",
          "midi": 92,
          "time": 96.16304347825701,
          "velocity": 0.2283464566929134,
          "duration": 0.05434782608695343
        },
        {
          "name": "C4",
          "midi": 60,
          "time": 96.1739130434744,
          "velocity": 0.2047244094488189,
          "duration": 0.05434782608695343
        },
        {
          "name": "G4",
          "midi": 67,
          "time": 96.1739130434744,
          "velocity": 0.16535433070866143,
          "duration": 0.043478260869562746
        },
        {
          "name": "E5",
          "midi": 76,
          "time": 96.1739130434744,
          "velocity": 0.18110236220472442,
          "duration": 0.05434782608695343
        },
        {
          "name": "C6",
          "midi": 84,
          "time": 96.1739130434744,
          "velocity": 0.11023622047244094,
          "duration": 0.043478260869562746
        },
        {
          "name": "D7",
          "midi": 98,
          "time": 96.1739130434744,
          "velocity": 0.10236220472440945,
          "duration": 0.043478260869562746
        },
        {
          "name": "D6",
          "midi": 86,
          "time": 96.18478260869179,
          "velocity": 0.14173228346456693,
          "duration": 0.06521739130434412
        },
        {
          "name": "F6",
          "midi": 89,
          "time": 96.19565217390918,
          "velocity": 0.18110236220472442,
          "duration": 0.03260869565217206
        },
        {
          "name": "D5",
          "midi": 74,
          "time": 96.44565217390918,
          "velocity": 0.2283464566929134,
          "duration": 0.11956521739129755
        },
        {
          "name": "C6",
          "midi": 84,
          "time": 96.44565217390918,
          "velocity": 0.25984251968503935,
          "duration": 0.14130434782607892
        },
        {
          "name": "C7",
          "midi": 96,
          "time": 96.44565217390918,
          "velocity": 0.29133858267716534,
          "duration": 0.1630434782608603
        },
        {
          "name": "C#7",
          "midi": 97,
          "time": 96.44565217390918,
          "velocity": 0.2204724409448819,
          "duration": 0.08695652173912549
        },
        {
          "name": "F#7",
          "midi": 102,
          "time": 96.44565217390918,
          "velocity": 0.1889763779527559,
          "duration": 0.10869565217390686
        },
        {
          "name": "G7",
          "midi": 103,
          "time": 96.44565217390918,
          "velocity": 0.2440944881889764,
          "duration": 0.10869565217390686
        },
        {
          "name": "A5",
          "midi": 81,
          "time": 96.45652173912657,
          "velocity": 0.23622047244094488,
          "duration": 0.14130434782607892
        },
        {
          "name": "D#7",
          "midi": 99,
          "time": 96.45652173912657,
          "velocity": 0.1968503937007874,
          "duration": 0.10869565217390686
        },
        {
          "name": "E7",
          "midi": 100,
          "time": 96.46739130434396,
          "velocity": 0.15748031496062992,
          "duration": 0.09782608695651618
        },
        {
          "name": "D4",
          "midi": 62,
          "time": 96.48913043477874,
          "velocity": 0.07874015748031496,
          "duration": 0.05434782608695343
        },
        {
          "name": "F#6",
          "midi": 90,
          "time": 96.48913043477874,
          "velocity": 0.1889763779527559,
          "duration": 0.0760869565217348
        },
        {
          "name": "A#6",
          "midi": 94,
          "time": 96.48913043477874,
          "velocity": 0.2204724409448819,
          "duration": 0.0760869565217348
        },
        {
          "name": "E6",
          "midi": 88,
          "time": 96.49999999999613,
          "velocity": 0.07086614173228346,
          "duration": 0.06521739130434412
        },
        {
          "name": "G#6",
          "midi": 92,
          "time": 96.49999999999613,
          "velocity": 0.16535433070866143,
          "duration": 0.05434782608695343
        },
        {
          "name": "C6",
          "midi": 84,
          "time": 96.74999999999613,
          "velocity": 0.2204724409448819,
          "duration": 0.05434782608695343
        },
        {
          "name": "B6",
          "midi": 95,
          "time": 96.74999999999613,
          "velocity": 0.1968503937007874,
          "duration": 0.10869565217390686
        },
        {
          "name": "F#7",
          "midi": 102,
          "time": 96.74999999999613,
          "velocity": 0.13385826771653545,
          "duration": 0.14130434782607892
        },
        {
          "name": "F4",
          "midi": 65,
          "time": 96.76086956521353,
          "velocity": 0.2047244094488189,
          "duration": 0.14130434782607892
        },
        {
          "name": "A#4",
          "midi": 70,
          "time": 96.76086956521353,
          "velocity": 0.2283464566929134,
          "duration": 0.043478260869562746
        },
        {
          "name": "D5",
          "midi": 74,
          "time": 96.76086956521353,
          "velocity": 0.14960629921259844,
          "duration": 0.14130434782607892
        },
        {
          "name": "G#5",
          "midi": 80,
          "time": 96.76086956521353,
          "velocity": 0.2755905511811024,
          "duration": 0.1521739130434696
        },
        {
          "name": "A#5",
          "midi": 82,
          "time": 96.76086956521353,
          "velocity": 0.2440944881889764,
          "duration": 0.1521739130434696
        },
        {
          "name": "A#6",
          "midi": 94,
          "time": 96.76086956521353,
          "velocity": 0.2440944881889764,
          "duration": 0.1521739130434696
        },
        {
          "name": "C#7",
          "midi": 97,
          "time": 96.76086956521353,
          "velocity": 0.16535433070866143,
          "duration": 0.13043478260868824
        },
        {
          "name": "E7",
          "midi": 100,
          "time": 96.76086956521353,
          "velocity": 0.14173228346456693,
          "duration": 0.13043478260868824
        },
        {
          "name": "F7",
          "midi": 101,
          "time": 96.76086956521353,
          "velocity": 0.2125984251968504,
          "duration": 0.14130434782607892
        },
        {
          "name": "A6",
          "midi": 93,
          "time": 96.77173913043092,
          "velocity": 0.2283464566929134,
          "duration": 0.14130434782607892
        },
        {
          "name": "F6",
          "midi": 89,
          "time": 96.80434782608309,
          "velocity": 0.1968503937007874,
          "duration": 0.09782608695651618
        },
        {
          "name": "D7",
          "midi": 98,
          "time": 96.81521739130048,
          "velocity": 0.14173228346456693,
          "duration": 0.0760869565217348
        },
        {
          "name": "A#4",
          "midi": 70,
          "time": 96.83695652173526,
          "velocity": 0.08661417322834646,
          "duration": 0.043478260869562746
        },
        {
          "name": "A#3",
          "midi": 58,
          "time": 97.05434782608309,
          "velocity": 0.2204724409448819,
          "duration": 0.05434782608695343
        },
        {
          "name": "G#5",
          "midi": 80,
          "time": 97.05434782608309,
          "velocity": 0.25196850393700787,
          "duration": 0.05434782608695343
        },
        {
          "name": "F4",
          "midi": 65,
          "time": 97.06521739130048,
          "velocity": 0.2047244094488189,
          "duration": 0.03260869565217206
        },
        {
          "name": "D5",
          "midi": 74,
          "time": 97.06521739130048,
          "velocity": 0.16535433070866143,
          "duration": 0.05434782608695343
        },
        {
          "name": "A#5",
          "midi": 82,
          "time": 97.06521739130048,
          "velocity": 0.1889763779527559,
          "duration": 0.06521739130434412
        },
        {
          "name": "D6",
          "midi": 86,
          "time": 97.06521739130048,
          "velocity": 0.1732283464566929,
          "duration": 0.06521739130434412
        },
        {
          "name": "E6",
          "midi": 88,
          "time": 97.06521739130048,
          "velocity": 0.12598425196850394,
          "duration": 0.05434782608695343
        },
        {
          "name": "B6",
          "midi": 95,
          "time": 97.06521739130048,
          "velocity": 0.10236220472440945,
          "duration": 0.06521739130434412
        },
        {
          "name": "C7",
          "midi": 96,
          "time": 97.06521739130048,
          "velocity": 0.1968503937007874,
          "duration": 0.06521739130434412
        },
        {
          "name": "C#7",
          "midi": 97,
          "time": 97.06521739130048,
          "velocity": 0.2125984251968504,
          "duration": 0.05434782608695343
        },
        {
          "name": "F#7",
          "midi": 102,
          "time": 97.06521739130048,
          "velocity": 0.1968503937007874,
          "duration": 0.05434782608695343
        },
        {
          "name": "F#6",
          "midi": 90,
          "time": 97.07608695651787,
          "velocity": 0.07874015748031496,
          "duration": 0.03260869565217206
        },
        {
          "name": "C6",
          "midi": 84,
          "time": 97.09782608695265,
          "velocity": 0.13385826771653545,
          "duration": 0.03260869565217206
        },
        {
          "name": "D5",
          "midi": 74,
          "time": 97.20652173912656,
          "velocity": 0.23622047244094488,
          "duration": 0.14130434782607892
        },
        {
          "name": "F5",
          "midi": 77,
          "time": 97.20652173912656,
          "velocity": 0.25196850393700787,
          "duration": 0.14130434782607892
        },
        {
          "name": "G#5",
          "midi": 80,
          "time": 97.20652173912656,
          "velocity": 0.23622047244094488,
          "duration": 0.05434782608695343
        },
        {
          "name": "E6",
          "midi": 88,
          "time": 97.20652173912656,
          "velocity": 0.2047244094488189,
          "duration": 0.06521739130434412
        },
        {
          "name": "D7",
          "midi": 98,
          "time": 97.20652173912656,
          "velocity": 0.2047244094488189,
          "duration": 0.08695652173912549
        },
        {
          "name": "A3",
          "midi": 57,
          "time": 97.21739130434395,
          "velocity": 0.10236220472440945,
          "duration": 0.03260869565217206
        },
        {
          "name": "A#5",
          "midi": 82,
          "time": 97.21739130434395,
          "velocity": 0.2440944881889764,
          "duration": 0.14130434782607892
        },
        {
          "name": "F#6",
          "midi": 90,
          "time": 97.21739130434395,
          "velocity": 0.13385826771653545,
          "duration": 0.06521739130434412
        },
        {
          "name": "C#7",
          "midi": 97,
          "time": 97.21739130434395,
          "velocity": 0.2440944881889764,
          "duration": 0.1521739130434696
        },
        {
          "name": "D#7",
          "midi": 99,
          "time": 97.21739130434395,
          "velocity": 0.18110236220472442,
          "duration": 0.09782608695651618
        },
        {
          "name": "C6",
          "midi": 84,
          "time": 97.22826086956134,
          "velocity": 0.23622047244094488,
          "duration": 0.19565217391303236
        },
        {
          "name": "C7",
          "midi": 96,
          "time": 97.22826086956134,
          "velocity": 0.25196850393700787,
          "duration": 0.13043478260868824
        },
        {
          "name": "A#4",
          "midi": 70,
          "time": 97.23913043477873,
          "velocity": 0.16535433070866143,
          "duration": 0.11956521739129755
        },
        {
          "name": "F7",
          "midi": 101,
          "time": 97.23913043477873,
          "velocity": 0.2283464566929134,
          "duration": 0.2499999999999858
        },
        {
          "name": "F#7",
          "midi": 102,
          "time": 97.23913043477873,
          "velocity": 0.14960629921259844,
          "duration": 0.09782608695651618
        },
        {
          "name": "B6",
          "midi": 95,
          "time": 97.24999999999612,
          "velocity": 0.2125984251968504,
          "duration": 0.08695652173912549
        },
        {
          "name": "F4",
          "midi": 65,
          "time": 97.28260869564829,
          "velocity": 0.14960629921259844,
          "duration": 0.06521739130434412
        },
        {
          "name": "G#5",
          "midi": 80,
          "time": 97.28260869564829,
          "velocity": 0.16535433070866143,
          "duration": 0.06521739130434412
        },
        {
          "name": "A6",
          "midi": 93,
          "time": 97.32608695651786,
          "velocity": 0.12598425196850394,
          "duration": 0.03260869565217206
        },
        {
          "name": "C4",
          "midi": 60,
          "time": 97.36956521738742,
          "velocity": 0.16535433070866143,
          "duration": 0.043478260869562746
        },
        {
          "name": "E5",
          "midi": 76,
          "time": 97.36956521738742,
          "velocity": 0.15748031496062992,
          "duration": 0.06521739130434412
        },
        {
          "name": "G5",
          "midi": 79,
          "time": 97.36956521738742,
          "velocity": 0.25196850393700787,
          "duration": 0.11956521739129755
        },
        {
          "name": "B6",
          "midi": 95,
          "time": 97.36956521738742,
          "velocity": 0.12598425196850394,
          "duration": 0.0760869565217348
        },
        {
          "name": "E7",
          "midi": 100,
          "time": 97.36956521738742,
          "velocity": 0.2047244094488189,
          "duration": 0.13043478260868824
        },
        {
          "name": "A#5",
          "midi": 82,
          "time": 97.38043478260481,
          "velocity": 0.16535433070866143,
          "duration": 0.11956521739129755
        },
        {
          "name": "G4",
          "midi": 67,
          "time": 97.3913043478222,
          "velocity": 0.14173228346456693,
          "duration": 0.03260869565217206
        },
        {
          "name": "E6",
          "midi": 88,
          "time": 97.3913043478222,
          "velocity": 0.2677165354330709,
          "duration": 0.19565217391303236
        },
        {
          "name": "C#7",
          "midi": 97,
          "time": 97.3913043478222,
          "velocity": 0.09448818897637795,
          "duration": 0.08695652173912549
        },
        {
          "name": "F#7",
          "midi": 102,
          "time": 97.3913043478222,
          "velocity": 0.10236220472440945,
          "duration": 0.05434782608695343
        },
        {
          "name": "F#6",
          "midi": 90,
          "time": 97.40217391303959,
          "velocity": 0.16535433070866143,
          "duration": 0.06521739130434412
        },
        {
          "name": "D#7",
          "midi": 99,
          "time": 97.40217391303959,
          "velocity": 0.2283464566929134,
          "duration": 0.09782608695651618
        },
        {
          "name": "C4",
          "midi": 60,
          "time": 97.42391304347437,
          "velocity": 0.1968503937007874,
          "duration": 0.06521739130434412
        },
        {
          "name": "G4",
          "midi": 67,
          "time": 97.43478260869176,
          "velocity": 0.13385826771653545,
          "duration": 0.05434782608695343
        },
        {
          "name": "F#5",
          "midi": 78,
          "time": 97.5108695652135,
          "velocity": 0.18110236220472442,
          "duration": 0.10869565217390686
        },
        {
          "name": "A#6",
          "midi": 94,
          "time": 97.52173913043089,
          "velocity": 0.2204724409448819,
          "duration": 0.043478260869562746
        },
        {
          "name": "C#7",
          "midi": 97,
          "time": 97.52173913043089,
          "velocity": 0.14960629921259844,
          "duration": 0.06521739130434412
        },
        {
          "name": "F7",
          "midi": 101,
          "time": 97.52173913043089,
          "velocity": 0.13385826771653545,
          "duration": 0.08695652173912549
        },
        {
          "name": "G7",
          "midi": 103,
          "time": 97.52173913043089,
          "velocity": 0.25196850393700787,
          "duration": 0.10869565217390686
        },
        {
          "name": "A4",
          "midi": 69,
          "time": 97.53260869564828,
          "velocity": 0.12598425196850394,
          "duration": 0.043478260869562746
        },
        {
          "name": "A5",
          "midi": 81,
          "time": 97.53260869564828,
          "velocity": 0.2440944881889764,
          "duration": 0.08695652173912549
        },
        {
          "name": "F#6",
          "midi": 90,
          "time": 97.53260869564828,
          "velocity": 0.2283464566929134,
          "duration": 0.10869565217390686
        },
        {
          "name": "C6",
          "midi": 84,
          "time": 97.54347826086567,
          "velocity": 0.2047244094488189,
          "duration": 0.03260869565217206
        },
        {
          "name": "G#6",
          "midi": 92,
          "time": 97.54347826086567,
          "velocity": 0.2283464566929134,
          "duration": 0.0760869565217348
        },
        {
          "name": "D5",
          "midi": 74,
          "time": 97.55434782608306,
          "velocity": 0.15748031496062992,
          "duration": 0.05434782608695343
        },
        {
          "name": "D#7",
          "midi": 99,
          "time": 97.57608695651784,
          "velocity": 0.11811023622047244,
          "duration": 0.05434782608695343
        },
        {
          "name": "E6",
          "midi": 88,
          "time": 97.59782608695262,
          "velocity": 0.10236220472440945,
          "duration": 0.043478260869562746
        }
      ],
      "controlChanges": {},
      "id": 0,
      "instrumentNumber": 0,
      "instrument": "acoustic grand piano",
      "instrumentFamily": "piano",
      "channelNumber": 0,
      "isPercussion": false
    }
  ]
}